<svg xmlns="http://www.w3.org/2000/svg" xmlns:xlink="http://www.w3.org/1999/xlink" width="430" height="300" viewBox="0 0 430 300"><defs><rect id="a" width="280" height="180" x="77" y="60" rx="10"/><rect id="c" width="100" height="48" rx="10"/><filter id="b" width="105%" height="120.8%" x="-2.5%" y="-5.2%" filterUnits="objectBoundingBox"><feOffset dy="5" in="SourceAlpha" result="shadowOffsetOuter1"/><feComposite in="shadowOffsetOuter1" in2="SourceAlpha" operator="out" result="shadowOffsetOuter1"/><feColorMatrix in="shadowOffsetOuter1" values="0 0 0 0 0.976470588 0 0 0 0 0.976470588 0 0 0 0 0.976470588 0 0 0 1 0"/></filter><rect id="e" width="84" height="76" rx="10"/><filter id="d" width="106%" height="113.2%" x="-3%" y="-3.3%" filterUnits="objectBoundingBox"><feOffset dy="5" in="SourceAlpha" result="shadowOffsetOuter1"/><feComposite in="shadowOffsetOuter1" in2="SourceAlpha" operator="out" result="shadowOffsetOuter1"/><feColorMatrix in="shadowOffsetOuter1" values="0 0 0 0 0.976470588 0 0 0 0 0.976470588 0 0 0 0 0.976470588 0 0 0 1 0"/></filter><rect id="g" width="52" height="76" rx="10"/><filter id="f" width="109.6%" height="113.2%" x="-4.8%" y="-3.3%" filterUnits="objectBoundingBox"><feOffset dy="5" in="SourceAlpha" result="shadowOffsetOuter1"/><feComposite in="shadowOffsetOuter1" in2="SourceAlpha" operator="out" result="shadowOffsetOuter1"/><feColorMatrix in="shadowOffsetOuter1" values="0 0 0 0 0.976470588 0 0 0 0 0.976470588 0 0 0 0 0.976470588 0 0 0 1 0"/></filter><rect id="i" width="36" height="132" rx="10"/><filter id="h" width="113.9%" height="107.6%" x="-6.9%" y="-1.9%" filterUnits="objectBoundingBox"><feOffset dy="5" in="SourceAlpha" result="shadowOffsetOuter1"/><feComposite in="shadowOffsetOuter1" in2="SourceAlpha" operator="out" result="shadowOffsetOuter1"/><feColorMatrix in="shadowOffsetOuter1" values="0 0 0 0 0.976470588 0 0 0 0 0.976470588 0 0 0 0 0.976470588 0 0 0 1 0"/></filter><rect id="k" width="52" height="48" rx="10"/><filter id="j" width="109.6%" height="120.8%" x="-4.8%" y="-5.2%" filterUnits="objectBoundingBox"><feOffset dy="5" in="SourceAlpha" result="shadowOffsetOuter1"/><feComposite in="shadowOffsetOuter1" in2="SourceAlpha" operator="out" result="shadowOffsetOuter1"/><feColorMatrix in="shadowOffsetOuter1" values="0 0 0 0 0.976470588 0 0 0 0 0.976470588 0 0 0 0 0.976470588 0 0 0 1 0"/></filter></defs><g fill="none" fill-rule="evenodd"><path d="M0 0h430v300H0z"/><use fill="#FFF" xlink:href="#a"/><rect width="276" height="176" x="79" y="62" stroke="#EEE" stroke-width="4" rx="10"/><rect width="8" height="20" x="244" y="141" fill="#EEE" rx="4"/><rect width="8" height="20" x="311" y="103" fill="#EEE" rx="4"/><rect width="8" height="20" x="272" y="166" fill="#FEE1D3" rx="4"/><rect width="8" height="20" x="257" y="203" fill="#EEE" rx="4"/><rect width="8" height="20" x="169" y="77" fill="#EEE" rx="4"/><rect width="8" height="20" x="191" y="104" fill="#FFF" rx="4"/><rect width="8" height="20" x="140" y="157" fill="#E1DBF1" rx="4"/><rect width="8" height="20" x="154" y="119" fill="#FEE1D3" rx="4"/><rect width="8" height="20" x="163" y="205" fill="#FEE1D3" rx="4"/><rect width="8" height="20" x="294" y="186" fill="#E1DBF1" rx="4"/><rect width="8" height="20" x="327" y="73" fill="#FEE1D3" rx="4"/><g transform="translate(197 79)"><use fill="#000" filter="url(#b)" xlink:href="#c"/><use fill="#FFF" xlink:href="#c"/><rect width="96" height="44" x="2" y="2" stroke="#FEE1D3" stroke-width="4" rx="10"/><rect width="8" height="20" x="62" y="14" fill="#FEE1D3" rx="4"/><rect width="8" height="20" x="78" y="14" fill="#FDC4A8" rx="4"/><rect width="8" height="20" x="46" y="14" fill="#FC6D26" rx="4"/><rect width="8" height="20" x="30" y="14" fill="#FEE1D3" rx="4"/><rect width="8" height="20" x="14" y="14" fill="#EEE" rx="4"/></g><g transform="translate(57 30)"><use fill="#000" filter="url(#d)" xlink:href="#e"/><use fill="#FFF" xlink:href="#e"/><rect width="80" height="72" x="2" y="2" stroke="#E1DBF1" stroke-width="4" rx="10"/><rect width="8" height="20" x="62" y="42" fill="#6B4FBB" rx="4"/><rect width="8" height="20" x="46" y="42" fill="#E1DBF1" rx="4"/><rect width="8" height="20" x="30" y="42" fill="#C3B8E3" rx="4"/><rect width="8" height="20" x="14" y="42" fill="#E1DBF1" rx="4"/><rect width="8" height="20" x="62" y="14" fill="#E1DBF1" rx="4"/><rect width="8" height="20" x="46" y="14" fill="#C3B8E3" rx="4"/><rect width="8" height="20" x="30" y="14" fill="#EEE" rx="4"/><rect width="8" height="20" x="14" y="14" fill="#C3B8E3" rx="4"/></g><g transform="translate(317 133)"><use fill="#000" filter="url(#f)" xlink:href="#g"/><use fill="#FFF" xlink:href="#g"/><rect width="48" height="72" x="2" y="2" stroke="#FEE1D3" stroke-width="4" rx="10"/><rect width="8" height="20" x="14" y="14" fill="#FEE1D3" rx="4"/><rect width="8" height="20" x="14" y="42" fill="#FC6D26" rx="4"/><rect width="8" height="20" x="30" y="14" fill="#EEE" rx="4"/><rect width="8" height="20" x="30" y="42" fill="#FDC4A8" rx="4"/></g><g transform="translate(89 133)"><use fill="#000" filter="url(#h)" xlink:href="#i"/><use fill="#FFF" xlink:href="#i"/><rect width="32" height="128" x="2" y="2" stroke="#FEE1D3" stroke-width="4" rx="10"/><rect width="8" height="20" x="14" y="14" fill="#FDC4A8" rx="4"/><rect width="8" height="20" x="14" y="42" fill="#EEE" rx="4"/><rect width="8" height="20" x="14" y="70" fill="#FEE1D3" rx="4"/><rect width="8" height="20" x="14" y="98" fill="#FC6D26" rx="4"/></g><g transform="translate(181 161)"><use fill="#000" filter="url(#j)" xlink:href="#k"/><use fill="#FFF" xlink:href="#k"/><rect width="48" height="44" x="2" y="2" stroke="#E1DBF1" stroke-width="4" rx="10"/><rect width="8" height="20" x="30" y="14" fill="#6B4FBB" rx="4"/><rect width="8" height="20" x="14" y="14" fill="#C3B8E3" rx="4"/></g></g></svg>