<svg xmlns="http://www.w3.org/2000/svg" viewBox="0 0 16 16" enable-background="new 0 0 16 16"><path d="m6.8 8c-.3 0-.5 0-.8 0-5 0-6 2.7-6 4.5s.1 2.5 6 2.5c.6 0 1.1 0 1.5 0-1-1.1-1.5-2.5-1.5-4 0-1.1.3-2.1.8-3"/><circle cx="6" cy="4" r="3"/><path d="m15.9 11.5l-.9-.6c0-.3-.1-.7-.2-.9l.6-.9c.1-.1.1-.2 0-.3l-.4-.5c-.1-.1-.2-.1-.3-.1l-.9.4c-.3-.2-.5-.3-.9-.4l-.3-1c0-.1-.1-.2-.2-.2h-.6c-.1 0-.2.1-.2.2l-.3 1c-.3.1-.6.2-.9.4l-1.1-.4c-.1 0-.2 0-.3.1l-.4.5c0 .1 0 .2 0 .3l.6.9c-.1.3-.2.6-.2.9l-.9.5c-.1.1-.1.2-.1.3l.1.6c0 .1.1.2.2.2l1.1.1c.1.2.3.4.5.6l-.2 1.2c0 .1 0 .2.1.3l.6.3c.1 0 .2 0 .3-.1l.9-.9c.2 0 .4 0 .6 0l.9.9c.1.1.2.1.3 0l.6-.3c.1 0 .2-.2.1-.3l-.1-1.1c.2-.2.4-.4.5-.6l1.1-.1c.1 0 .2-.1.2-.2l.1-.6c.1-.1.1-.2 0-.2m-3.9.5c-.6 0-1-.4-1-1s.4-1 1-1 1 .4 1 1-.4 1-1 1"/></svg>
