<svg xmlns="http://www.w3.org/2000/svg" width="78" height="82" viewBox="0 0 78 82">
  <g fill="none" fill-rule="evenodd">
    <path fill="#000" fill-opacity=".03" d="M2.12 42C2.04 43 2 44 2 45c0 20.43 16.57 37 37 37s37-16.57 37-37c0-1-.04-2-.12-3C74.35 61.03 58.42 76 39 76S3.65 61.03 2.12 42z"/>
    <path fill="#EEE" fill-rule="nonzero" d="M39 78C17.46 78 0 60.54 0 39S17.46 0 39 0s39 17.46 39 39-17.46 39-39 39zm0-4c19.33 0 35-15.67 35-35S58.33 4 39 4 4 19.67 4 39s15.67 35 35 35z"/>
    <path fill="#E1DBF2" fill-rule="nonzero" d="M59.65 32.65H60l-2-2.42-2 2.4-2-2.4-2 2.4-2-2.4-2 2.4-2-2.4-2 2.42h.77C45.57 34.6 46 36.75 46 39c0 2.84-.7 5.5-1.92 7.86 1.97 2.28 4.83 3.64 7.92 3.64 5.8 0 10.5-4.74 10.5-10.6 0-2.8-1.08-5.36-2.85-7.25zM43.18 29.6c2.4-2.1 5.52-3.3 8.82-3.3 7.46 0 13.5 6.1 13.5 13.6S59.46 53.5 52 53.5c-3.68 0-7.1-1.5-9.6-4.04C39.3 53.44 34.44 56 29 56c-9.4 0-17-7.6-17-17s7.6-17 17-17c3.22 0 6.23.9 8.8 2.45 2.13 1.3 3.97 3.05 5.38 5.16zM17 34c-.65 1.54-1 3.23-1 5 0 7.18 5.82 13 13 13s13-5.82 13-13c0-1.77-.35-3.46-1-5h-9c-.53 0-1.04-.2-1.4-.6L29 31.84l-1.6 1.58c-.36.4-.87.6-1.4.6h-9zm21.38-4c-2.4-2.5-5.76-4-9.38-4-3.62 0-6.98 1.5-9.38 4h5.55l2.42-2.4c.74-.8 2-.8 2.8 0l2.4 2.4h5.54z"/>
    <path fill="#6B4FBB" d="M47.6 42.32c-.66 0-1.2-.54-1.2-1.2 0-.68.54-1.22 1.2-1.22.66 0 1.2.54 1.2 1.2 0 .68-.54 1.22-1.2 1.22zm8.8 0c-.66 0-1.2-.54-1.2-1.2 0-.68.54-1.22 1.2-1.22.66 0 1.2.54 1.2 1.2 0 .68-.54 1.22-1.2 1.22zM25 44h8c0 2.2-1.8 4-4 4s-4-1.8-4-4zm-1.5-1c-.83 0-1.5-.67-1.5-1.5s.67-1.5 1.5-1.5 1.5.67 1.5 1.5-.67 1.5-1.5 1.5zm11 0c-.83 0-1.5-.67-1.5-1.5s.67-1.5 1.5-1.5 1.5.67 1.5 1.5-.67 1.5-1.5 1.5z"/>
  </g>
</svg>
