<svg xmlns="http://www.w3.org/2000/svg" width="78" height="82" viewBox="0 0 78 82">
  <g fill="none" fill-rule="evenodd">
    <path fill="#000" fill-opacity=".03" d="M2.12 42C2.04 43 2 44 2 45c0 20.43 16.57 37 37 37s37-16.57 37-37c0-1-.04-2-.12-3C74.35 61.03 58.42 76 39 76S3.65 61.03 2.12 42z"/>
    <path fill="#EEE" fill-rule="nonzero" d="M39 78C17.46 78 0 60.54 0 39S17.46 0 39 0s39 17.46 39 39-17.46 39-39 39zm0-4c19.33 0 35-15.67 35-35S58.33 4 39 4 4 19.67 4 39s15.67 35 35 35z"/>
    <path fill="#E1DBF2" d="M44 31l-2.5-3-2.5 3-2.5-3-2.5 3-2.5-3-2.5 3h-2.72c2.65-4.2 7.36-7 12.72-7s10.07 2.8 12.72 7H49l-2.5-3-2.5 3z"/>
    <path fill="#E1DBF2" fill-rule="nonzero" d="M39 57c-9.4 0-17-7.6-17-17s7.6-17 17-17 17 7.6 17 17-7.6 17-17 17zm0-4c7.18 0 13-5.82 13-13s-5.82-13-13-13-13 5.82-13 13 5.82 13 13 13z"/>
    <path fill="#6B4FBB" d="M35 45h8c0 2.2-1.8 4-4 4s-4-1.8-4-4zm-1.5-2c-.83 0-1.5-.67-1.5-1.5s.67-1.5 1.5-1.5 1.5.67 1.5 1.5-.67 1.5-1.5 1.5zm11 0c-.83 0-1.5-.67-1.5-1.5s.67-1.5 1.5-1.5 1.5.67 1.5 1.5-.67 1.5-1.5 1.5z"/>
  </g>
</svg>
