<svg xmlns="http://www.w3.org/2000/svg" width="16" height="16" viewBox="0 0 16 16"><path d="M11.161 12.456l.232.121c.1.053.175.094.249.137.53.318.844.75.857 1.402.012 1.397-1.116 1.756-3.12 1.858-.411.022-.744.026-1.38.026A8 8 0 0 1 0 8a8 8 0 0 1 8-8c4.417 0 7.998 3.582 7.998 7.977.06 2.621-1.312 3.586-4.48 3.648-.602.008-1.068.043-1.4.104.228.192.598.47 1.043.727zm-3.287-.943c-.019-1.495 1.228-1.856 3.611-1.888C13.67 9.582 14.028 9.33 13.998 8A6 6 0 1 0 8 14c.603 0 .91-.004 1.277-.023.172-.009.332-.02.478-.035-1.172-.738-1.868-1.47-1.88-2.43zM6 5a1 1 0 1 1 0-2 1 1 0 0 1 0 2zm6 3a1 1 0 1 1 0-2 1 1 0 0 1 0 2zm-2-3a1 1 0 1 1 0-2 1 1 0 0 1 0 2zM4 8a1 1 0 1 1 0-2 1 1 0 0 1 0 2z"/></svg>
