<svg xmlns="http://www.w3.org/2000/svg" width="208" height="127" viewBox="0 0 208 127" xmlns:xlink="http://www.w3.org/1999/xlink">
  <defs>
    <rect id="a" width="58" height="98" y="17" rx="6"/>
    <rect id="b" width="58" height="98" x="3.5" y="17" rx="6"/>
    <rect id="c" width="58" height="98.394" rx="6"/>
  </defs>
  <g fill="none" fill-rule="evenodd" transform="translate(1)">
    <path fill="#000" fill-opacity=".06" fill-rule="nonzero" d="M16 11.06c0-1.39.56-2.69 1.534-3.635.398-.386.41-1.025.027-1.426-.382-.402-1.015-.414-1.413-.028C14.785 7.294 14 9.116 14 11.062c0 .556.448 1.007 1 1.007s1-.452 1-1.01zm6.432-5.043h4.8c.552 0 1-.452 1-1.01 0-.556-.448-1.007-1-1.007h-4.8c-.552 0-1 .45-1 1.008 0 .557.448 1.01 1 1.01zm10.8 0h4.8c.552 0 1-.452 1-1.01 0-.556-.448-1.007-1-1.007h-4.8c-.552 0-1 .45-1 1.008 0 .557.448 1.01 1 1.01zm10.8 0h4.8c.552 0 1-.452 1-1.01 0-.556-.448-1.007-1-1.007h-4.8c-.552 0-1 .45-1 1.008 0 .557.448 1.01 1 1.01zm10.8 0h4.8c.552 0 1-.452 1-1.01 0-.556-.448-1.007-1-1.007h-4.8c-.552 0-1 .45-1 1.008 0 .557.448 1.01 1 1.01zm10.8 0h4.8c.552 0 1-.452 1-1.01 0-.556-.448-1.007-1-1.007h-4.8c-.552 0-1 .45-1 1.008 0 .557.448 1.01 1 1.01zm10.8 0h4.8c.552 0 1-.452 1-1.01 0-.556-.448-1.007-1-1.007h-4.8c-.552 0-1 .45-1 1.008 0 .557.448 1.01 1 1.01zm10.8 0h4.8c.552 0 1-.452 1-1.01 0-.556-.448-1.007-1-1.007h-4.8c-.552 0-1 .45-1 1.008 0 .557.448 1.01 1 1.01zm10.8 0h4.8c.552 0 1-.452 1-1.01 0-.556-.448-1.007-1-1.007h-4.8c-.552 0-1 .45-1 1.008 0 .557.448 1.01 1 1.01zm10.8 0h4.8c.552 0 1-.452 1-1.01 0-.556-.448-1.007-1-1.007h-4.8c-.552 0-1 .45-1 1.008 0 .557.448 1.01 1 1.01zm10.8 0h4.8c.552 0 1-.452 1-1.01 0-.556-.448-1.007-1-1.007h-4.8c-.552 0-1 .45-1 1.008 0 .557.448 1.01 1 1.01zm10.8 0h4.8c.552 0 1-.452 1-1.01 0-.556-.448-1.007-1-1.007h-4.8c-.552 0-1 .45-1 1.008 0 .557.448 1.01 1 1.01zm10.8 0h4.8c.552 0 1-.452 1-1.01 0-.556-.448-1.007-1-1.007h-4.8c-.552 0-1 .45-1 1.008 0 .557.448 1.01 1 1.01zm10.8 0h4.8c.552 0 1-.452 1-1.01 0-.556-.448-1.007-1-1.007h-4.8c-.552 0-1 .45-1 1.008 0 .557.448 1.01 1 1.01zm10.8 0h4.8c.552 0 1-.452 1-1.01 0-.556-.448-1.007-1-1.007h-4.8c-.552 0-1 .45-1 1.008 0 .557.448 1.01 1 1.01zm10.8 0h4.8c.552 0 1-.452 1-1.01 0-.556-.448-1.007-1-1.007h-4.8c-.552 0-1 .45-1 1.008 0 .557.448 1.01 1 1.01zm10.8 0H185c1.21 0 2.354.435 3.254 1.215.42.362 1.05.314 1.41-.108.36-.423.312-1.06-.107-1.422C188.297 4.612 186.694 4 185 4h-.568c-.552 0-1 .45-1 1.008 0 .557.448 1.01 1 1.01zM190 11.932v4.84c0 .557.448 1.008 1 1.008s1-.45 1-1.008v-4.84c0-.556-.448-1.008-1-1.008s-1 .452-1 1.008zm0 10.89v4.84c0 .556.448 1.008 1 1.008s1-.452 1-1.01v-4.838c0-.557-.448-1.01-1-1.01s-1 .453-1 1.01zm0 10.89v4.84c0 .555.448 1.007 1 1.007s1-.453 1-1.01v-4.84c0-.556-.448-1.007-1-1.007s-1 .45-1 1.008zm0 10.888v4.84c0 .557.448 1.008 1 1.008s1-.45 1-1.008V44.6c0-.557-.448-1.008-1-1.008s-1 .45-1 1.008zm0 10.89v4.84c0 .556.448 1.007 1 1.007s1-.45 1-1.008v-4.84c0-.557-.448-1.01-1-1.01s-1 .453-1 1.01zm0 10.89v4.838c0 .557.448 1.01 1 1.01s1-.453 1-1.01v-4.84c0-.556-.448-1.008-1-1.008s-1 .452-1 1.01zm0 10.888v4.84c0 .556.448 1.008 1 1.008s1-.452 1-1.008v-4.84c0-.557-.448-1.008-1-1.008s-1 .45-1 1.008zm0 10.89v4.84c0 .556.448 1.007 1 1.007s1-.45 1-1.008v-4.84c0-.557-.448-1.008-1-1.008s-1 .45-1 1.007zm0 10.888v4.84c0 .557.448 1.008 1 1.008s1-.45 1-1.008v-4.84c0-.556-.448-1.008-1-1.008s-1 .452-1 1.008zm-.24 21.446c-.42 1.304-1.353 2.385-2.572 2.985-.497.244-.703.847-.46 1.348.24.5.84.708 1.336.464 1.707-.84 3.013-2.35 3.598-4.178.17-.53-.12-1.098-.644-1.27-.526-.17-1.09.12-1.26.65zm-8.063 3.49h-4.8c-.552 0-1 .453-1 1.01 0 .557.448 1.008 1 1.008h4.8c.553 0 1-.45 1-1.008 0-.557-.447-1.01-1-1.01zm-10.8 0h-4.8c-.552 0-1 .453-1 1.01 0 .557.448 1.008 1 1.008h4.8c.553 0 1-.45 1-1.008 0-.557-.447-1.01-1-1.01zm-10.8 0h-4.8c-.552 0-1 .453-1 1.01 0 .557.448 1.008 1 1.008h4.8c.553 0 1-.45 1-1.008 0-.557-.447-1.01-1-1.01zm-10.8 0h-4.8c-.552 0-1 .453-1 1.01 0 .557.448 1.008 1 1.008h4.8c.553 0 1-.45 1-1.008 0-.557-.447-1.01-1-1.01zm-10.8 0h-4.8c-.552 0-1 .453-1 1.01 0 .557.448 1.008 1 1.008h4.8c.553 0 1-.45 1-1.008 0-.557-.447-1.01-1-1.01zm-10.8 0h-4.8c-.552 0-1 .453-1 1.01 0 .557.448 1.008 1 1.008h4.8c.553 0 1-.45 1-1.008 0-.557-.447-1.01-1-1.01zm-10.8 0h-4.8c-.552 0-1 .453-1 1.01 0 .557.448 1.008 1 1.008h4.8c.553 0 1-.45 1-1.008 0-.557-.447-1.01-1-1.01zm-10.8 0h-4.8c-.552 0-1 .453-1 1.01 0 .557.448 1.008 1 1.008h4.8c.553 0 1-.45 1-1.008 0-.557-.447-1.01-1-1.01zm-10.8 0h-4.8c-.552 0-1 .453-1 1.01 0 .557.448 1.008 1 1.008h4.8c.553 0 1-.45 1-1.008 0-.557-.447-1.01-1-1.01zm-10.8 0h-4.8c-.552 0-1 .453-1 1.01 0 .557.448 1.008 1 1.008h4.8c.553 0 1-.45 1-1.008 0-.557-.447-1.01-1-1.01zm-10.8 0h-4.8c-.552 0-1 .453-1 1.01 0 .557.448 1.008 1 1.008h4.8c.553 0 1-.45 1-1.008 0-.557-.447-1.01-1-1.01zm-10.8 0h-4.8c-.552 0-1 .453-1 1.01 0 .557.448 1.008 1 1.008h4.8c.553 0 1-.45 1-1.008 0-.557-.447-1.01-1-1.01zm-10.8 0h-4.8c-.552 0-1 .453-1 1.01 0 .557.448 1.008 1 1.008h4.8c.553 0 1-.45 1-1.008 0-.557-.447-1.01-1-1.01zm-10.8 0h-4.8c-.552 0-1 .453-1 1.01 0 .557.448 1.008 1 1.008h4.8c.553 0 1-.45 1-1.008 0-.557-.447-1.01-1-1.01zm-10.8 0h-4.8c-.552 0-1 .453-1 1.01 0 .557.448 1.008 1 1.008h4.8c.553 0 1-.45 1-1.008 0-.557-.447-1.01-1-1.01zm-10.577-.116c-1.33-.295-2.48-1.13-3.19-2.3-.287-.474-.902-.623-1.373-.333-.472.29-.62.91-.332 1.386.99 1.632 2.6 2.8 4.465 3.215.54.12 1.073-.224 1.192-.768.12-.544-.222-1.082-.762-1.2zM16 105.292v-4.84c0-.556-.448-1.008-1-1.008s-1 .452-1 1.01v4.838c0 .557.448 1.01 1 1.01s1-.453 1-1.01zm0-10.89v-4.84c0-.555-.448-1.007-1-1.007s-1 .452-1 1.008v4.84c0 .557.448 1.008 1 1.008s1-.45 1-1.007zm0-10.888v-4.84c0-.557-.448-1.008-1-1.008s-1 .45-1 1.008v4.84c0 .557.448 1.008 1 1.008s1-.45 1-1.008zm0-10.89v-4.84c0-.556-.448-1.007-1-1.007s-1 .45-1 1.008v4.84c0 .556.448 1.008 1 1.008s1-.452 1-1.008zm0-10.89v-4.838c0-.557-.448-1.01-1-1.01s-1 .453-1 1.01v4.84c0 .556.448 1.008 1 1.008s1-.452 1-1.01zm0-11.888v-4.84c0-.556-.448-1.008-1-1.008s-1 .452-1 1.008v4.84c0 .557.448 1.008 1 1.008s1-.45 1-1.008zm0-9.89v-4.84c0-.556-.448-1.007-1-1.007s-1 .45-1 1.007v4.84c0 .557.448 1.008 1 1.008s1-.45 1-1.008zm0-10.888v-4.84c0-.557-.448-1.008-1-1.008s-1 .45-1 1.008v4.84c0 .556.448 1.008 1 1.008s1-.452 1-1.008zm0-10.89v-4.84c0-.556-.448-1.008-1-1.008s-1 .452-1 1.01v4.838c0 .557.448 1.01 1 1.01s1-.453 1-1.01z"/>
    <g transform="translate(74)">
      <rect width="58" height="98" y="20" fill="#000" fill-opacity=".02" rx="6"/>
      <use fill="#FFF" xlink:href="#a"/>
      <rect width="56" height="96" x="1" y="18" stroke="#EEE" stroke-width="2" rx="6"/>
      <g transform="translate(16 45.185)">
        <path fill="#333" d="M.59 33.815h5.655V32.15H4.58v-7.225H3.066c-.63.378-1.246.63-2.212.812v1.274H2.52v5.14H.59v1.665zm10.093.168c-1.778 0-3.094-.994-3.094-2.436 0-1.078.67-1.736 1.51-2.184v-.056c-.685-.518-1.19-1.162-1.19-2.1 0-1.512 1.19-2.45 2.843-2.45 1.624 0 2.702.966 2.702 2.436 0 .854-.546 1.54-1.162 1.946v.055c.854.462 1.54 1.148 1.54 2.324 0 1.4-1.26 2.463-3.15 2.463zm.56-5.348c.35-.406.546-.84.546-1.302 0-.686-.407-1.148-1.08-1.148-.545 0-.993.336-.993 1.022 0 .728.616 1.078 1.526 1.428zm-.518 3.92c.686 0 1.19-.364 1.19-1.106 0-.785-.756-1.08-1.876-1.555-.393.364-.687.868-.687 1.414 0 .783.63 1.245 1.372 1.245zm6.3-2.24c-1.316 0-2.268-1.078-2.268-2.912 0-1.82.952-2.884 2.268-2.884 1.316 0 2.282 1.063 2.282 2.883 0 1.834-.966 2.912-2.282 2.912zm0-1.148c.462 0 .84-.462.84-1.764s-.378-1.736-.84-1.736c-.462 0-.84.434-.84 1.736s.378 1.764.84 1.764zm.308 4.816l4.928-9.464h1.19l-4.927 9.463h-1.19zm6.426 0c-1.317 0-2.27-1.078-2.27-2.912 0-1.82.953-2.883 2.27-2.883 1.315 0 2.28 1.064 2.28 2.884 0 1.835-.965 2.913-2.28 2.913zm0-1.148c.46 0 .84-.462.84-1.764 0-1.3-.38-1.735-.84-1.735-.463 0-.84.434-.84 1.736 0 1.303.377 1.765.84 1.765z"/>
        <rect width="13" height="2" x="6" y=".815" fill="#FB722E" rx="1"/>
        <path fill="#F0EDF8" d="M3 47.815c0-.552.455-1 .992-1h18.016c.548 0 .992.444.992 1 0 .553-.455 1-.992 1H3.992c-.548 0-.992-.444-.992-1zm0 6c0-.552.455-1 .992-1h18.016c.548 0 .992.444.992 1 0 .553-.455 1-.992 1H3.992c-.548 0-.992-.444-.992-1z"/>
        <rect width="20" height="2" x="3" y="6.815" fill="#FEE1D3" rx="1"/>
      </g>
      <g transform="translate(10.81)">
        <circle cx="18.19" cy="18" r="18" fill="#FFF"/>
        <path fill="#F0EDF8" fill-rule="nonzero" d="M18.19 34c8.837 0 16-7.163 16-16s-7.163-16-16-16-16 7.163-16 16 7.163 16 16 16zm0 2c-9.94 0-18-8.06-18-18s8.06-18 18-18 18 8.06 18 18-8.06 18-18 18z"/>
        <g transform="translate(10 11)">
          <path fill="#C3B8E3" fill-rule="nonzero" d="M2.19 13.32L5.397 11h7.783c.566 0 1.01-.444 1.01-1V3c0-.55-.45-1-1.01-1H3.2c-.566 0-1.01.444-1.01 1v10.32zM6.045 13l-3.422 2.476C1.28 16.45.19 15.892.19 14.23V3c0-1.657 1.337-3 3.01-3h9.98c1.663 0 3.01 1.342 3.01 3v7c0 1.657-1.337 3-3.01 3H6.045z"/>
          <rect width="4" height="2" x="5.19" y="4" fill="#6B4FBB" rx="1"/>
          <rect width="6" height="2" x="5.19" y="7" fill="#6B4FBB" rx="1"/>
        </g>
      </g>
    </g>
    <g transform="translate(144.5)">
      <rect width="58" height="98" x=".5" y="20" fill="#000" fill-opacity=".02" rx="6"/>
      <use fill="#FFF" xlink:href="#b"/>
      <rect width="56" height="96" x="4.5" y="18" stroke="#EEE" stroke-width="2" rx="6"/>
      <g transform="translate(19 46.185)">
        <path fill="#333" d="M4.01 33.746c1.793 0 3.305-.938 3.305-2.59 0-1.148-.742-1.876-1.764-2.17v-.056c.953-.406 1.485-1.05 1.485-1.974 0-1.554-1.232-2.436-3.066-2.436-1.093 0-1.99.434-2.8 1.134l1.035 1.26c.56-.49 1.036-.784 1.666-.784.7 0 1.093.364 1.093.98 0 .714-.504 1.19-2.1 1.19v1.456c1.932 0 2.394.49 2.394 1.274 0 .672-.574 1.05-1.442 1.05-.756 0-1.414-.378-1.946-.896l-.953 1.302c.644.756 1.652 1.26 3.094 1.26zm4.51-.168h6.257v-1.736h-1.792c-.42 0-1.036.056-1.484.112 1.443-1.512 2.843-3.108 2.843-4.606 0-1.708-1.19-2.828-2.94-2.828-1.274 0-2.1.476-2.982 1.414l1.12 1.106c.45-.476.94-.91 1.583-.91.77 0 1.26.476 1.26 1.344 0 1.26-1.596 2.786-3.864 4.928v1.176zm9.505-3.5c-1.316 0-2.268-1.078-2.268-2.912 0-1.82.952-2.884 2.268-2.884 1.316 0 2.282 1.064 2.282 2.884 0 1.834-.966 2.912-2.282 2.912zm0-1.148c.462 0 .84-.462.84-1.764s-.378-1.736-.84-1.736c-.462 0-.84.434-.84 1.736s.378 1.764.84 1.764zm.308 4.816l4.928-9.464h1.19l-4.927 9.464h-1.19zm6.426 0c-1.317 0-2.27-1.078-2.27-2.912 0-1.82.953-2.884 2.27-2.884 1.315 0 2.28 1.064 2.28 2.884 0 1.834-.965 2.912-2.28 2.912zm0-1.148c.46 0 .84-.462.84-1.764s-.38-1.736-.84-1.736c-.463 0-.84.434-.84 1.736s.377 1.764.84 1.764z"/>
        <rect width="13" height="2.008" x="7.5" fill="#FB722E" rx="1.004"/>
        <path fill="#F0EDF8" d="M3.5 47.19c0-.556.455-1.005 1.006-1.005h17.988c.556 0 1.006.445 1.006 1.004 0 .553-.455 1.003-1.006 1.003H4.506c-.556 0-1.006-.446-1.006-1.004zm0 6.023c0-.555.455-1.004 1.006-1.004h17.988c.556 0 1.006.444 1.006 1.003 0 .554-.455 1.004-1.006 1.004H4.506c-.556 0-1.006-.446-1.006-1.004z"/>
        <rect width="20" height="2.008" x="4" y="6.024" fill="#FEE1D3" rx="1.004"/>
      </g>
      <g transform="translate(14.413)">
        <circle cx="18.087" cy="18" r="18" fill="#FFF"/>
        <path fill="#F0EDF8" fill-rule="nonzero" d="M18.087 34c8.836 0 16-7.163 16-16s-7.164-16-16-16c-8.837 0-16 7.163-16 16s7.163 16 16 16zm0 2c-9.942 0-18-8.06-18-18s8.058-18 18-18c9.94 0 18 8.06 18 18s-8.06 18-18 18z"/>
        <path fill="#C3B8E3" fill-rule="nonzero" d="M18.087 24c3.313 0 6-2.686 6-6s-2.687-6-6-6c-3.314 0-6 2.686-6 6s2.686 6 6 6zm0 2c-4.42 0-8-3.582-8-8s3.58-8 8-8c4.418 0 8 3.582 8 8s-3.582 8-8 8z"/>
        <path fill="#6B4FBB" d="M19.087 17v-2c0-.556-.448-1-1-1-.557 0-1 .448-1 1v3c0 .278.11.528.292.71.18.18.43.29.706.29h3c.557 0 1-.448 1-1 0-.556-.447-1-1-1h-2z"/>
      </g>
    </g>
    <rect width="58" height="98" x="3" y="20" fill="#000" fill-opacity=".02" rx="6"/>
    <g transform="translate(0 16.754)">
      <use fill="#FFF" xlink:href="#c"/>
      <rect width="56" height="96.394" x="1" y="1" stroke="#EEE" stroke-width="2" rx="6"/>
      <g transform="translate(16 29.618)">
        <path fill="#333" d="M3.137 27.84c.462 0 .98-.253 1.33-.883-.182-1.4-.756-1.848-1.386-1.848-.6 0-1.12.433-1.12 1.44 0 .94.505 1.29 1.177 1.29zm-.322 4.955C1.64 32.795.77 32.29.21 31.73l1.093-1.23c.294.335.854.63 1.372.63.994 0 1.764-.7 1.834-2.773-.463.588-1.233.938-1.78.938-1.51 0-2.645-.868-2.645-2.744 0-1.847 1.344-2.98 2.954-2.98 1.72 0 3.373 1.287 3.373 4.41 0 3.317-1.736 4.815-3.598 4.815zm8.12 0c-1.722 0-3.36-1.288-3.36-4.41 0-3.318 1.722-4.816 3.598-4.816 1.176 0 2.03.49 2.59 1.063l-1.078 1.232c-.308-.336-.868-.63-1.386-.63-.98 0-1.765.7-1.835 2.772.462-.588 1.232-.938 1.778-.938 1.526 0 2.646.867 2.646 2.743 0 1.848-1.345 2.982-2.955 2.982zm-.042-1.54c.616 0 1.12-.434 1.12-1.442 0-.938-.49-1.288-1.162-1.288-.46 0-.98.252-1.343.882.182 1.4.77 1.848 1.386 1.848zm6.132-2.128c-1.316 0-2.268-1.078-2.268-2.912 0-1.82.952-2.884 2.268-2.884 1.316 0 2.282 1.065 2.282 2.885 0 1.834-.966 2.912-2.282 2.912zm0-1.148c.462 0 .84-.463.84-1.765 0-1.302-.378-1.736-.84-1.736-.462 0-.84.433-.84 1.735s.378 1.764.84 1.764zm.308 4.815l4.928-9.464h1.19l-4.927 9.465h-1.19zm6.426 0c-1.317 0-2.27-1.078-2.27-2.912 0-1.82.953-2.884 2.27-2.884 1.315 0 2.28 1.063 2.28 2.883 0 1.834-.965 2.912-2.28 2.912zm0-1.148c.46 0 .84-.462.84-1.764s-.38-1.736-.84-1.736c-.463 0-.84.434-.84 1.736s.377 1.764.84 1.764z"/>
        <rect width="13" height="2.008" x="6.5" y=".314" fill="#FEE1D3" rx="1.004"/>
        <path fill="#F0EDF8" d="M3 46.627c0-.552.455-1 .992-1h18.016c.548 0 .992.444.992 1 0 .553-.455 1-.992 1H3.992c-.548 0-.992-.444-.992-1zm0 6c0-.552.455-1 .992-1h18.016c.548 0 .992.444.992 1 0 .553-.455 1-.992 1H3.992c-.548 0-.992-.444-.992-1z"/>
        <rect width="20" height="2" x="3" y="5.627" fill="#FB722E" rx="1"/>
      </g>
    </g>
    <g transform="translate(10.41)">
      <circle cx="18.589" cy="18" r="18" fill="#FFF"/>
      <path fill="#F0EDF8" fill-rule="nonzero" d="M18.59 34c8.836 0 16-7.163 16-16s-7.164-16-16-16c-8.837 0-16 7.163-16 16s7.163 16 16 16zm0 2c-9.942 0-18-8.06-18-18s8.058-18 18-18c9.94 0 18 8.06 18 18s-8.06 18-18 18z"/>
      <path fill="#C3B8E3" d="M17.05 19.262h3.367l.248-2.808H17.3l-.25 2.808zm-.177 2.008l-.144 1.627c-.06.662-.646 1.2-1.3 1.2h.25c-.658 0-1.144-.534-1.085-1.2l.144-1.627H13.59c-.554 0-1.003-.446-1.003-1.004 0-.555.455-1.004 1.002-1.004h1.325l.248-2.808h-1.15c-.555 0-1.004-.445-1.004-1.004 0-.554.457-1.004 1.004-1.004h1.33l.106-1.2c.058-.66.644-1.198 1.298-1.198h-.25c.66 0 1.145.533 1.086 1.2l-.106 1.198h3.365l.107-1.2c.058-.66.644-1.198 1.298-1.198h-.25c.66 0 1.145.533 1.086 1.2l-.106 1.198h1.03c.554 0 1.003.446 1.003 1.004 0 .555-.455 1.004-1 1.004H22.8l-.25 2.808h1.037c.554 0 1.002.446 1.002 1.004 0 .554-.456 1.004-1.003 1.004h-1.214l-.144 1.627c-.06.662-.646 1.2-1.3 1.2h.25c-.658 0-1.144-.534-1.085-1.2l.144-1.627h-3.367z"/>
      <path fill="#6B4FBB" d="M17.05 19.262l-.177 2.008H14.74l.177-2.008h2.134zm-1.707-4.816h2.135l-.178 2.008h-2.135l.178-2.008zm5.5 0h2.135l-.178 2.008h-2.135l.178-2.008zm1.708 4.816l-.177 2.008H20.24l.177-2.008h2.134z"/>
    </g>
  </g>
</svg>
