<svg xmlns="http://www.w3.org/2000/svg" viewBox="0 0 208 127" xmlns:xlink="http://www.w3.org/1999/xlink"><defs><rect id="0" width="58" height="98" y="17" rx="6" fill="#fff"/><path id="2" d="m6.04 13h7.135c1.673 0 3.01-1.343 3.01-2.999v-7c0-1.657-1.347-2.999-3.01-2.999h-9.981c-1.673 0-3.01 1.343-3.01 2.999v7 4.231c0 1.66 1.089 2.218 2.433 1.245l3.422-2.476" fill="#fff"/><rect id="3" width="58" height="98" x="3.5" y="17" rx="6" fill="#fff"/><rect id="6" width="58" height="98.39" rx="6" fill="#fff"/><circle id="7" cx="18.589" cy="18" r="18"/><circle id="5" cx="18.09" cy="18" r="8"/><circle id="1" cx="18.19" cy="18" r="18"/><circle id="4" cx="18.09" cy="18" r="18"/></defs><g fill="none" fill-rule="evenodd" transform="translate(1)"><path fill="#eee" fill-rule="nonzero" d="m16 11.06c0-1.392.56-2.691 1.534-3.636.398-.386.41-1.024.027-1.426-.383-.401-1.016-.413-1.414-.027-1.362 1.322-2.147 3.144-2.147 5.089 0 .557.448 1.01 1 1.01.552 0 1-.451 1-1.01m6.432-5.04h4.8c.552 0 1-.451 1-1.01 0-.557-.448-1.01-1-1.01h-4.8c-.552 0-1 .451-1 1.01 0 .557.448 1.01 1 1.01m10.8 0h4.8c.552 0 1-.451 1-1.01 0-.557-.448-1.01-1-1.01h-4.8c-.552 0-1 .451-1 1.01 0 .557.448 1.01 1 1.01m10.8 0h4.8c.552 0 1-.451 1-1.01 0-.557-.448-1.01-1-1.01h-4.8c-.552 0-1 .451-1 1.01 0 .557.448 1.01 1 1.01m10.8 0h4.8c.552 0 1-.451 1-1.01 0-.557-.448-1.01-1-1.01h-4.8c-.552 0-1 .451-1 1.01 0 .557.448 1.01 1 1.01m10.8 0h4.8c.552 0 1-.451 1-1.01 0-.557-.448-1.01-1-1.01h-4.8c-.552 0-1 .451-1 1.01 0 .557.448 1.01 1 1.01m10.8 0h4.8c.552 0 1-.451 1-1.01 0-.557-.448-1.01-1-1.01h-4.8c-.552 0-1 .451-1 1.01 0 .557.448 1.01 1 1.01m10.8 0h4.8c.552 0 1-.451 1-1.01 0-.557-.448-1.01-1-1.01h-4.8c-.552 0-1 .451-1 1.01 0 .557.448 1.01 1 1.01m10.8 0h4.8c.552 0 1-.451 1-1.01 0-.557-.448-1.01-1-1.01h-4.8c-.552 0-1 .451-1 1.01 0 .557.448 1.01 1 1.01m10.8 0h4.8c.552 0 1-.451 1-1.01 0-.557-.448-1.01-1-1.01h-4.8c-.552 0-1 .451-1 1.01 0 .557.448 1.01 1 1.01m10.8 0h4.8c.552 0 1-.451 1-1.01 0-.557-.448-1.01-1-1.01h-4.8c-.552 0-1 .451-1 1.01 0 .557.448 1.01 1 1.01m10.8 0h4.8c.552 0 1-.451 1-1.01 0-.557-.448-1.01-1-1.01h-4.8c-.552 0-1 .451-1 1.01 0 .557.448 1.01 1 1.01m10.8 0h4.8c.552 0 1-.451 1-1.01 0-.557-.448-1.01-1-1.01h-4.8c-.552 0-1 .451-1 1.01 0 .557.448 1.01 1 1.01m10.8 0h4.8c.552 0 1-.451 1-1.01 0-.557-.448-1.01-1-1.01h-4.8c-.552 0-1 .451-1 1.01 0 .557.448 1.01 1 1.01m10.8 0h4.8c.552 0 1-.451 1-1.01 0-.557-.448-1.01-1-1.01h-4.8c-.552 0-1 .451-1 1.01 0 .557.448 1.01 1 1.01m10.8 0h4.8c.552 0 1-.451 1-1.01 0-.557-.448-1.01-1-1.01h-4.8c-.552 0-1 .451-1 1.01 0 .557.448 1.01 1 1.01m10.8 0h.567c1.212 0 2.355.435 3.255 1.215.419.363 1.05.314 1.41-.108.36-.422.312-1.059-.107-1.422-1.26-1.091-2.864-1.702-4.559-1.702h-.567c-.552 0-1 .451-1 1.01 0 .557.448 1.01 1 1.01m5.568 5.916v4.84c0 .557.448 1.01 1 1.01.552 0 1-.451 1-1.01v-4.84c0-.557-.448-1.01-1-1.01-.552 0-1 .451-1 1.01m0 10.889v4.84c0 .557.448 1.01 1 1.01.552 0 1-.451 1-1.01v-4.84c0-.557-.448-1.01-1-1.01-.552 0-1 .451-1 1.01m0 10.889v4.84c0 .557.448 1.01 1 1.01.552 0 1-.451 1-1.01v-4.84c0-.557-.448-1.01-1-1.01-.552 0-1 .451-1 1.01m0 10.889v4.84c0 .557.448 1.01 1 1.01.552 0 1-.451 1-1.01v-4.84c0-.557-.448-1.01-1-1.01-.552 0-1 .451-1 1.01m0 10.889v4.84c0 .557.448 1.01 1 1.01.552 0 1-.451 1-1.01v-4.84c0-.557-.448-1.01-1-1.01-.552 0-1 .451-1 1.01m0 10.889v4.84c0 .557.448 1.01 1 1.01.552 0 1-.451 1-1.01v-4.84c0-.557-.448-1.01-1-1.01-.552 0-1 .451-1 1.01m0 10.889v4.84c0 .557.448 1.01 1 1.01.552 0 1-.451 1-1.01v-4.84c0-.557-.448-1.01-1-1.01-.552 0-1 .451-1 1.01m0 10.889v4.84c0 .557.448 1.01 1 1.01.552 0 1-.451 1-1.01v-4.84c0-.557-.448-1.01-1-1.01-.552 0-1 .451-1 1.01m0 10.889v4.84c0 .557.448 1.01 1 1.01.552 0 1-.451 1-1.01v-4.84c0-.557-.448-1.01-1-1.01-.552 0-1 .451-1 1.01m0 10.889v4.84c0 .557.448 1.01 1 1.01.552 0 1-.451 1-1.01v-4.84c0-.557-.448-1.01-1-1.01-.552 0-1 .451-1 1.01m-.241 10.557c-.418 1.303-1.352 2.385-2.571 2.984-.496.244-.703.848-.46 1.348.242.501.841.708 1.337.464 1.707-.839 3.01-2.35 3.598-4.177.17-.53-.119-1.098-.644-1.269-.526-.171-1.089.12-1.259.65m-8.06 3.491h-4.8c-.552 0-1 .451-1 1.01 0 .557.448 1.01 1 1.01h4.8c.552 0 1-.451 1-1.01 0-.557-.448-1.01-1-1.01m-10.8 0h-4.8c-.552 0-1 .451-1 1.01 0 .557.448 1.01 1 1.01h4.8c.552 0 1-.451 1-1.01 0-.557-.448-1.01-1-1.01m-10.8 0h-4.8c-.552 0-1 .451-1 1.01 0 .557.448 1.01 1 1.01h4.8c.552 0 1-.451 1-1.01 0-.557-.448-1.01-1-1.01m-10.8 0h-4.8c-.552 0-1 .451-1 1.01 0 .557.448 1.01 1 1.01h4.8c.552 0 1-.451 1-1.01 0-.557-.448-1.01-1-1.01m-10.8 0h-4.8c-.552 0-1 .451-1 1.01 0 .557.448 1.01 1 1.01h4.8c.552 0 1-.451 1-1.01 0-.557-.448-1.01-1-1.01m-10.8 0h-4.8c-.552 0-1 .451-1 1.01 0 .557.448 1.01 1 1.01h4.8c.552 0 1-.451 1-1.01 0-.557-.448-1.01-1-1.01m-10.8 0h-4.8c-.552 0-1 .451-1 1.01 0 .557.448 1.01 1 1.01h4.8c.552 0 1-.451 1-1.01 0-.557-.448-1.01-1-1.01m-10.8 0h-4.8c-.552 0-1 .451-1 1.01 0 .557.448 1.01 1 1.01h4.8c.552 0 1-.451 1-1.01 0-.557-.448-1.01-1-1.01m-10.8 0h-4.8c-.552 0-1 .451-1 1.01 0 .557.448 1.01 1 1.01h4.8c.552 0 1-.451 1-1.01 0-.557-.448-1.01-1-1.01m-10.8 0h-4.8c-.552 0-1 .451-1 1.01 0 .557.448 1.01 1 1.01h4.8c.552 0 1-.451 1-1.01 0-.557-.448-1.01-1-1.01m-10.8 0h-4.8c-.552 0-1 .451-1 1.01 0 .557.448 1.01 1 1.01h4.8c.552 0 1-.451 1-1.01 0-.557-.448-1.01-1-1.01m-10.8 0h-4.8c-.552 0-1 .451-1 1.01 0 .557.448 1.01 1 1.01h4.8c.552 0 1-.451 1-1.01 0-.557-.448-1.01-1-1.01m-10.8 0h-4.8c-.552 0-1 .451-1 1.01 0 .557.448 1.01 1 1.01h4.8c.552 0 1-.451 1-1.01 0-.557-.448-1.01-1-1.01m-10.8 0h-4.8c-.552 0-1 .451-1 1.01 0 .557.448 1.01 1 1.01h4.8c.552 0 1-.451 1-1.01 0-.557-.448-1.01-1-1.01m-10.8 0h-4.8c-.552 0-1 .451-1 1.01 0 .557.448 1.01 1 1.01h4.8c.552 0 1-.451 1-1.01 0-.557-.448-1.01-1-1.01m-10.577-.118c-1.329-.295-2.481-1.131-3.189-2.298-.288-.475-.904-.625-1.375-.334-.471.291-.62.911-.331 1.386.99 1.633 2.601 2.802 4.465 3.216.539.12 1.073-.224 1.192-.768.119-.544-.222-1.082-.762-1.201m-3.92-7.684v-4.84c0-.557-.448-1.01-1-1.01-.552 0-1 .451-1 1.01v4.84c0 .557.448 1.01 1 1.01.552 0 1-.451 1-1.01m0-10.889v-4.84c0-.557-.448-1.01-1-1.01-.552 0-1 .451-1 1.01v4.84c0 .557.448 1.01 1 1.01.552 0 1-.451 1-1.01m0-10.889v-4.84c0-.557-.448-1.01-1-1.01-.552 0-1 .451-1 1.01v4.84c0 .557.448 1.01 1 1.01.552 0 1-.451 1-1.01m0-10.889v-4.84c0-.557-.448-1.01-1-1.01-.552 0-1 .451-1 1.01v4.84c0 .557.448 1.01 1 1.01.552 0 1-.451 1-1.01m0-10.889v-4.84c0-.557-.448-1.01-1-1.01-.552 0-1 .451-1 1.01v4.84c0 .557.448 1.01 1 1.01.552 0 1-.451 1-1.01m0-10.889v-4.84c0-.557-.448-1.01-1-1.01-.552 0-1 .451-1 1.01v4.84c0 .557.448 1.01 1 1.01.552 0 1-.451 1-1.01m0-10.889v-4.84c0-.557-.448-1.01-1-1.01-.552 0-1 .451-1 1.01v4.84c0 .557.448 1.01 1 1.01.552 0 1-.451 1-1.01m0-10.889v-4.84c0-.557-.448-1.01-1-1.01-.552 0-1 .451-1 1.01v4.84c0 .557.448 1.01 1 1.01.552 0 1-.451 1-1.01m0-10.889v-4.84c0-.557-.448-1.01-1-1.01-.552 0-1 .451-1 1.01v4.84c0 .557.448 1.01 1 1.01.552 0 1-.451 1-1.01m0-10.889v-4.84c0-.557-.448-1.01-1-1.01-.552 0-1 .451-1 1.01v4.84c0 .557.448 1.01 1 1.01.552 0 1-.451 1-1.01"/><g transform="translate(74)"><rect width="58" height="98" y="20" fill="#f9f9f9" rx="6"/><use xlink:href="#0"/><rect width="56" height="96" x="1" y="18" stroke="#eee" stroke-width="2" rx="6"/><g transform="translate(15 45.19)"><text fill="#333" font-size="14" font-weight="bold"><tspan x=".609" y="33.815">18%</tspan></text><rect width="13" height="2" x="7" y=".815" fill="#fb722e" rx="1"/><g fill="#f0edf8"><rect width="20" height="2" x="4" y="46.815" rx="1"/><rect width="20" height="2" x="4" y="52.815" rx="1"/></g><rect width="20" height="2" x="4" y="6.815" fill="#fee1d3" rx="1"/></g><g transform="translate(10.81)"><use fill="#fff" xlink:href="#1"/><circle cx="18.19" cy="18" r="17" stroke="#f0edf8" stroke-width="2"/><g transform="translate(10 11)"><use xlink:href="#2"/><path stroke="#c3b8e3" stroke-width="2" d="m6.04 12h-.324l-.262.19-3.422 2.476c-.683.494-.847.41-.847-.435v-4.231-7c0-1.107.892-1.999 2.01-1.999h9.981c1.111 0 2.01.895 2.01 1.999v7c0 1.107-.892 1.999-2.01 1.999h-7.135"/><g fill="#6b4fbb"><rect width="4" height="2" x="5.19" y="4" rx="1"/><rect width="6" height="2" x="5.19" y="7" rx="1"/></g></g></g></g><g transform="translate(144.5)"><rect width="58" height="98" x=".5" y="20" fill="#f9f9f9" rx="6"/><use xlink:href="#3"/><rect width="56" height="96" x="4.5" y="18" stroke="#eee" stroke-width="2" rx="6"/><g transform="translate(19 46.19)"><text fill="#333" font-size="14" font-weight="bold"><tspan x=".609" y="33.578">32%</tspan></text><rect width="13" height="2.01" x="7.5" fill="#fb722e" rx="1"/><g fill="#f0edf8"><rect width="20" height="2.01" x="3.5" y="46.19" rx="1"/><rect width="20" height="2.01" x="3.5" y="52.21" rx="1"/></g><rect width="20" height="2.01" x="4" y="6.02" fill="#fee1d3" rx="1"/></g><g transform="translate(14.413)"><use fill="#fff" xlink:href="#4"/><circle cx="18.09" cy="18" r="17" stroke="#f0edf8" stroke-width="2"/><use fill="#fff" xlink:href="#5"/><circle cx="18.09" cy="18" r="7" stroke="#c3b8e3" stroke-width="2"/><path fill="#6b4fbb" d="m19.09 17v-2c0-.556-.448-1-1-1-.556 0-1 .448-1 1v3c0 .278.112.528.293.708.181.18.431.291.707.291h3c.556 0 1-.448 1-1 0-.556-.448-1-1-1h-2"/></g></g><rect width="58" height="98" x="3" y="20" fill="#f9f9f9" rx="6"/><g transform="translate(0 16.754)"><use xlink:href="#6"/><rect width="56" height="96.39" x="1" y="1" stroke="#eee" stroke-width="2" rx="6"/><g transform="translate(15 29.618)"><text fill="#333" font-size="14" font-weight="bold"><tspan x=".609" y="32.627">96%</tspan></text><rect width="13" height="2.01" x="7.5" y=".314" fill="#fee1d3" rx="1"/><g fill="#f0edf8"><rect width="20" height="2" x="4" y="45.627" rx="1"/><rect width="20" height="2" x="4" y="51.627" rx="1"/></g><rect width="20" height="2" x="4" y="5.627" fill="#fb722e" rx="1"/></g></g><g transform="translate(10.41)"><use fill="#fff" xlink:href="#7"/><circle cx="18.589" cy="18" r="17" stroke="#f0edf8" stroke-width="2"/><g transform="translate(12 12)"><g fill="#c3b8e3"><path d="m3.45 1.247c.059-.662.645-1.199 1.298-1.199h-.25c.658 0 1.145.533 1.086 1.199l-.855 9.65c-.059.662-.645 1.199-1.298 1.199h.25c-.658 0-1.145-.533-1.086-1.199l.855-9.65"/><rect width="12" height="2.01" x="1.01" y="2.446" rx="1"/><path d="m8.95 1.247c.059-.662.645-1.199 1.298-1.199h-.25c.658 0 1.145.533 1.086 1.199l-.855 9.65c-.059.662-.645 1.199-1.298 1.199h.25c-.658 0-1.145-.533-1.086-1.199l.855-9.65"/><rect width="12" height="2.01" x=".589" y="7.262" rx="1"/></g><path fill="#6b4fbb" d="m5.05 7.262l-.178 2.01h-2.134l.178-2.01h2.134m-1.708-4.815h2.134l-.178 2.01h-2.134l.178-2.01m5.5 0h2.134l-.178 2.01h-2.134l.178-2.01m1.708 4.815l-.178 2.01h-2.134l.178-2.01h2.134"/></g></g></g></svg>
