<svg viewBox="0 0 238 172" xmlns="http://www.w3.org/2000/svg" xmlns:xlink="http://www.w3.org/1999/xlink"><defs><rect id="0" width="24" y="10" rx="2" height="4" fill="#f0edf8"/><rect id="1" width="14" x="5" rx="2" height="4" fill="#c3b8e3"/></defs><g fill="none" fill-rule="evenodd" transform="translate(2 2)"><g><rect stroke="#eeeeee" stroke-width="4" fill="#ffffff" stroke-linecap="round" stroke-dasharray="8 10" width="110" height="168" rx="10" id="2"/><g transform="translate(19 80)"><use xlink:href="#0"/><rect fill="#c3b8e3" x="5" width="14" height="4" rx="2"/></g><g transform="translate(67 80)"><use xlink:href="#0"/><use xlink:href="#1"/></g><g transform="translate(32 40)" fill="#fee1d3"><rect x="10" width="6" height="4" rx="2"/><rect x="20" width="6" height="4" rx="2" id="B"/><rect x="30" width="6" height="4" rx="2" id="C"/><rect y="12" width="6" height="4" rx="2" id="D"/><rect x="10" y="12" width="6" height="4" rx="2" id="E"/><rect x="20" y="12" width="6" height="4" rx="2" id="F"/><rect x="30" y="12" width="6" height="4" rx="2" id="G"/><rect x="40" y="12" width="6" height="4" rx="2" id="H"/></g><rect fill="#eeeeee" x="6" y="12" width="8" height="4" rx="2" id="3"/><rect fill="#eeeeee" x="19" y="12" width="8" height="4" rx="2" id="4"/><rect fill="#eeeeee" x="32" y="12" width="8" height="4" rx="2" id="5"/><rect fill="#eeeeee" x="45" y="12" width="8" height="4" rx="2" id="6"/><rect fill="#eeeeee" x="58" y="12" width="8" height="4" rx="2" id="7"/><rect fill="#eeeeee" x="71" y="12" width="8" height="4" rx="2" id="8"/><rect fill="#eeeeee" x="84" y="12" width="8" height="4" rx="2" id="9"/><rect fill="#eeeeee" x="97" y="12" width="8" height="4" rx="2" id="A"/><text font-size="24" font-weight="bold" fill="#eeeeee"><tspan x="38.38" y="136">0%</tspan></text></g><g transform="translate(124)"><use xlink:href="#2"/><g transform="translate(19 80)"><use xlink:href="#0"/><use xlink:href="#1"/></g><g transform="translate(67 80)"><use xlink:href="#0"/><use xlink:href="#1"/></g><g transform="translate(32 40)" fill="#fee1d3"><rect x="10" width="6" height="4" rx="2"/><use xlink:href="#B"/><use xlink:href="#C"/><use xlink:href="#D"/><use xlink:href="#E"/><use xlink:href="#F"/><use xlink:href="#G"/><use xlink:href="#H"/></g><use xlink:href="#3"/><use xlink:href="#4"/><use xlink:href="#5"/><use xlink:href="#6"/><use xlink:href="#7"/><use xlink:href="#8"/><use xlink:href="#9"/><use xlink:href="#A"/><text font-size="24" font-weight="bold" fill="#eeeeee"><tspan x="38.38" y="136">0%</tspan></text></g></g></svg>
