<svg viewBox="0 0 306 205" xmlns="http://www.w3.org/2000/svg" xmlns:xlink="http://www.w3.org/1999/xlink"><defs><rect id="0" width="110" rx="10" height="168" stroke="#eeeeee" fill="#ffffff" stroke-width="4"/></defs><g fill="none" fill-rule="evenodd" transform="translate(2 2)"><g fill="#fafafa"><rect x="97" y="5" width="110" height="169" rx="10"/><rect x="194" y="34" width="110" height="169" rx="12"/><rect x="6" y="35" width="110" height="168" rx="12"/></g><g transform="translate(188 29)"><use stroke-linecap="round" stroke-dasharray="8 10" xlink:href="#0"/><g transform="translate(36 69)"><circle stroke="#f0edf8" stroke-width="4" cx="19" cy="19" r="19"/><path d="m20 17v-6.997c0-1.109-.895-2-2-2-1.112 0-2 .897-2 2v8.994c0 1.109.895 2 2 2 .174 0 .343-.022.503-.063.161.041.331.063.505.063h7.983c1.107 0 2.01-.895 2.01-2 0-1.112-.899-2-2.01-2h-6.991" fill="#6b4fbb"/></g><rect fill="#eeeeee" x="6" y="12" width="8" height="4" rx="2"/><rect fill="#eeeeee" x="19" y="12" width="8" height="4" rx="2" id="1"/><rect fill="#eeeeee" x="32" y="12" width="8" height="4" rx="2" id="2"/><rect fill="#eeeeee" x="45" y="12" width="8" height="4" rx="2" id="3"/><rect fill="#eeeeee" x="58" y="12" width="8" height="4" rx="2" id="4"/><rect fill="#eeeeee" x="71" y="12" width="8" height="4" rx="2" id="5"/><rect fill="#eeeeee" x="84" y="12" width="8" height="4" rx="2" id="6"/><rect fill="#eeeeee" x="97" y="12" width="8" height="4" rx="2" id="7"/></g><g transform="translate(92)"><use stroke-linecap="round" stroke-dasharray="8 10" xlink:href="#0"/><rect fill="#eeeeee" x="6" y="12" width="8" height="4" rx="2"/><use xlink:href="#1"/><use xlink:href="#2"/><use xlink:href="#3"/><use xlink:href="#4"/><use xlink:href="#5"/><use xlink:href="#6"/><use xlink:href="#7"/></g><g transform="translate(128 69)" stroke-width="6"><circle stroke="#f0edf8" cx="19" cy="19" r="19"/><path d="m5.78 32.647c3.42 3.314 8.08 5.353 13.22 5.353 10.493 0 19-8.507 19-19 0-10.493-8.507-19-19-19" stroke="#6b4fbb"/></g><g transform="translate(0 29)"><use xlink:href="#0"/><g transform="translate(19 80)"><rect fill="#f0edf8" y="10" width="24" height="4" rx="2" id="8"/><rect fill="#6b4fbb" x="5" width="14" height="4" rx="2" id="9"/></g><g transform="translate(67 80)"><use xlink:href="#8"/><use xlink:href="#9"/></g><g transform="translate(36 40)"><rect fill="#fee1d3" x="8" width="22" height="4" rx="2"/><rect fill="#fb722e" y="12" width="38" height="4" rx="2"/></g><path fill="#eeeeee" d="m2 12h106v4h-106z"/><text font-size="24" font-weight="bold" fill="#333333"><tspan x="32.04" y="136">16%</tspan></text></g></g></svg>
