<svg xmlns="http://www.w3.org/2000/svg" width="78" height="82" viewBox="0 0 78 82">
  <g fill="none" fill-rule="evenodd">
    <path fill="#000" fill-opacity=".03" d="M2.12 42C2.04 43 2 44 2 45c0 20.43 16.57 37 37 37s37-16.57 37-37c0-1-.04-2-.12-3C74.35 61.03 58.42 76 39 76S3.65 61.03 2.12 42z"/>
    <path fill="#EEE" fill-rule="nonzero" d="M39 78C17.46 78 0 60.54 0 39S17.46 0 39 0s39 17.46 39 39-17.46 39-39 39zm0-4c19.33 0 35-15.67 35-35S58.33 4 39 4 4 19.67 4 39s15.67 35 35 35z"/>
    <path fill="#FEE1D3" fill-rule="nonzero" d="M24.92 35.15c-1.72-1.4-1.98-3.9-.6-5.63l1.26-1.55c1.4-1.72 3.9-2 5.63-.6l.7.56c.7-.4 1.4-.73 2.1-1V26c0-2.2 1.8-4 4-4h2c2.2 0 4 1.8 4 4v.92c.8.28 1.5.62 2.1 1l.7-.55c1.7-1.4 4.3-1.12 5.7.6l1.3 1.55c1.4 1.72 1.2 4.23-.6 5.63l-.7.6c.3.74.4 1.5.5 2.3l.9.2c2.2.5 3.5 2.64 3 4.8L56.4 45c-.5 2.15-2.64 3.5-4.8 3l-.88-.2c-.44.63-.92 1.24-1.46 1.8l.4.82c.9 1.98.1 4.38-1.9 5.35l-1.8.87c-2 .97-4.37.15-5.34-1.84l-.46-.85c-.34.03-.74.05-1.13.05-.4 0-.8-.02-1.2-.05l-.4.85c-.95 2-3.34 2.8-5.33 1.84l-1.8-.87c-1.97-.97-2.8-3.37-1.83-5.35l.4-.8c-.54-.58-1.02-1.2-1.46-1.83l-.8.2c-2.2.5-4.3-.9-4.8-3l-.4-2c-.5-2.2.85-4.3 3-4.8l.9-.2c.1-.8.3-1.6.5-2.3l-.7-.6zm4.95.77c-.53 1.2-.83 2.47-.87 3.8-.02.9-.66 1.68-1.55 1.9l-2.32.53.45 1.94 2.3-.6c.9-.2 1.8.2 2.23 1 .7 1.1 1.5 2.2 2.5 3 .7.6.9 1.6.5 2.4l-1 2.1 1.8.9 1.1-2.1c.4-.8 1.3-1.3 2.2-1.1.7.1 1.3.2 2 .2s1.3-.1 2-.2c.9-.2 1.8.3 2.2 1.1l1 2.1 1.8-.9-1.2-2c-.4-.8-.2-1.8.5-2.4 1-.85 1.84-1.88 2.45-3.05.4-.82 1.33-1.24 2.2-1.04l2.33.54.45-1.95-2.32-.54c-.9-.2-1.52-.97-1.54-1.88-.03-1.4-.33-2.6-.86-3.8-.4-.9-.2-1.8.5-2.4l1.9-1.5-1.3-1.6-1.8 1.5c-.8.5-1.8.6-2.5 0-1.1-.8-2.3-1.4-3.5-1.7-.9-.2-1.5-1-1.5-1.9V26h-2v2.38c0 .9-.6 1.7-1.5 1.93-1.3.4-2.5 1-3.5 1.7-.8.6-1.8.6-2.5 0l-1.9-1.5-1.26 1.6 1.8 1.5c.7.6.94 1.6.6 2.4z"/>
    <path fill="#FC6D26" fill-rule="nonzero" d="M39 46c-3.3 0-6-2.7-6-6s2.7-6 6-6 6 2.7 6 6-2.7 6-6 6zm0-4c1.1 0 2-.9 2-2s-.9-2-2-2-2 .9-2 2 .9 2 2 2z"/>
  </g>
</svg>
