<svg xmlns="http://www.w3.org/2000/svg" width="78" height="82" viewBox="0 0 78 82"><g fill="none" fill-rule="evenodd"><path fill="#F9F9F9" d="M2.12 42c-.08.99-.12 1.99-.12 3 0 20.435 16.565 37 37 37s37-16.565 37-37c0-1.01-.04-2.01-.12-3C74.353 61.032 58.425 76 39 76 19.575 76 3.647 61.032 2.12 42z"/><path fill="#EEE" fill-rule="nonzero" d="M39 78C17.46 78 0 60.54 0 39S17.46 0 39 0s39 17.46 39 39-17.46 39-39 39zm0-4c19.33 0 35-15.67 35-35S58.33 4 39 4 4 19.67 4 39s15.67 35 35 35z"/><path fill="#FEE1D3" fill-rule="nonzero" d="M42 25c5.523 0 10 4.477 10 10v12h-4V35a6 6 0 0 0-6-6v1.826a1 1 0 0 1-1.65.759l-4.464-3.826a1 1 0 0 1 0-1.518l4.463-3.826a1 1 0 0 1 1.651.76V25z"/><path fill="#FEE1D3" d="M30 45.341a6 6 0 1 1-4 0V31h4v14.341zM28 53a2 2 0 1 0 0-4 2 2 0 0 0 0 4z"/><path fill="#FC6D26" fill-rule="nonzero" d="M28 33a6 6 0 1 1 0-12 6 6 0 0 1 0 12zm0-4a2 2 0 1 0 0-4 2 2 0 0 0 0 4zm22 28a6 6 0 1 1 0-12 6 6 0 0 1 0 12zm0-4a2 2 0 1 0 0-4 2 2 0 0 0 0 4z"/></g></svg>