<svg xmlns="http://www.w3.org/2000/svg" width="78" height="82" viewBox="0 0 78 82"><g fill="none" fill-rule="evenodd"><path fill="#F9F9F9" d="M2.12 42c-.08.99-.12 1.99-.12 3 0 20.435 16.565 37 37 37s37-16.565 37-37c0-1.01-.04-2.01-.12-3C74.353 61.032 58.425 76 39 76 19.575 76 3.647 61.032 2.12 42z"/><path fill="#EEE" fill-rule="nonzero" d="M39 78C17.46 78 0 60.54 0 39S17.46 0 39 0s39 17.46 39 39-17.46 39-39 39zm0-4c19.33 0 35-15.67 35-35S58.33 4 39 4 4 19.67 4 39s15.67 35 35 35z"/><path fill="#6B4BBE" fill-rule="nonzero" d="M40 28c5.523 0 10 4.477 10 10 0 2.279-.76 4.434-2.141 6.184A3 3 0 0 0 52.57 47.9C54.778 45.1 56 41.64 56 38c0-8.837-7.163-16-16-16v-3.131a1 1 0 0 0-1.555-.833l-9.197 6.132a1 1 0 0 0 0 1.664l9.197 6.132A1 1 0 0 0 40 31.13V28z"/><path fill="#E1DBF2" fill-rule="nonzero" d="M38 50c-5.523 0-10-4.477-10-10 0-2.25.742-4.38 2.09-6.12a3 3 0 0 0-4.742-3.675A15.941 15.941 0 0 0 22 40c0 8.837 7.163 16 16 16v3.131a1 1 0 0 0 1.555.833l9.197-6.132a1 1 0 0 0 0-1.664l-9.197-6.132A1 1 0 0 0 38 46.87V50z"/></g></svg>