<svg xmlns="http://www.w3.org/2000/svg" width="78" height="82" viewBox="0 0 78 82"><g fill="none" fill-rule="evenodd"><path fill="#F9F9F9" d="M2.12 42c-.08.99-.12 1.99-.12 3 0 20.435 16.565 37 37 37s37-16.565 37-37c0-1.01-.04-2.01-.12-3C74.353 61.032 58.425 76 39 76 19.575 76 3.647 61.032 2.12 42z"/><path fill="#EEE" fill-rule="nonzero" d="M39 78C17.46 78 0 60.54 0 39S17.46 0 39 0s39 17.46 39 39-17.46 39-39 39zm0-4c19.33 0 35-15.67 35-35S58.33 4 39 4 4 19.67 4 39s15.67 35 35 35z"/><path fill="#6B4FBB" fill-rule="nonzero" d="M48 31h-4a5 5 0 0 0-10 0h-4a9 9 0 1 1 18 0zm-18 0h4v3h-4v-3zm14 0h4v3h-4v-3z"/><path fill="#E1DBF2" fill-rule="nonzero" d="M30 37a1 1 0 0 0-1 1v12a1 1 0 0 0 1 1h18a1 1 0 0 0 1-1V38a1 1 0 0 0-1-1H30zm0-4h18a5 5 0 0 1 5 5v12a5 5 0 0 1-5 5H30a5 5 0 0 1-5-5V38a5 5 0 0 1 5-5z"/><path fill="#6B4FBB" d="M38 43.732a2 2 0 1 1 2 0V45a1 1 0 0 1-2 0v-1.268z"/></g></svg>