<svg xmlns="http://www.w3.org/2000/svg" width="78" height="82" viewBox="0 0 78 82"><g fill="none" fill-rule="evenodd"><path fill="#F9F9F9" d="M2.12 42c-.08.99-.12 1.99-.12 3 0 20.435 16.565 37 37 37s37-16.565 37-37c0-1.01-.04-2.01-.12-3C74.353 61.032 58.425 76 39 76 19.575 76 3.647 61.032 2.12 42z"/><path fill="#EEE" fill-rule="nonzero" d="M39 78C17.46 78 0 60.54 0 39S17.46 0 39 0s39 17.46 39 39-17.46 39-39 39zm0-4c19.33 0 35-15.67 35-35S58.33 4 39 4 4 19.67 4 39s15.67 35 35 35z"/><g fill-rule="nonzero"><path fill="#FEE1D3" d="M39.5 51c-6.423 0-12.261-2.84-17.43-8.407a4 4 0 0 1-.267-5.124C26.996 30.557 32.917 27 39.5 27c6.583 0 12.504 3.557 17.697 10.469a4 4 0 0 1-.267 5.124C51.76 48.16 45.923 51 39.5 51zm0-4c5.246 0 10.05-2.338 14.498-7.128C49.505 33.89 44.694 31 39.5 31c-5.194 0-10.005 2.89-14.498 8.872C29.45 44.662 34.254 47 39.5 47z"/><path fill="#FC6D26" d="M39 47a8 8 0 1 1 0-16 8 8 0 0 1 0 16zm0-4a4 4 0 1 0 0-8 4 4 0 0 0 0 8zm0-1a3 3 0 1 1 0-6 3 3 0 0 1 0 6z"/></g></g></svg>