<svg width="18" height="18" viewBox="0 0 18 18" xmlns="http://www.w3.org/2000/svg"><path d="M13.29 11.098a4.328 4.328 0 0 1-1.618 2.285c-.79.578-1.68.867-2.672.867-.992 0-1.883-.29-2.672-.867a4.328 4.328 0 0 1-1.617-2.285.721.721 0 0 1 .047-.569.715.715 0 0 1 .445-.369c.195-.062 7.41-.062 7.606 0 .195.063.34.186.433.37.094.183.11.372.047.568zM14 6.37c0 .398-.04.755-.513.755-.473 0-.498-.272-1.237-.272-.74 0-.74.215-1.165.215-.425 0-.585-.3-.585-.698 0-.397.17-.736.513-1.017.341-.281.754-.422 1.237-.422.483 0 .896.14 1.237.422.342.28.513.62.513 1.017zm-6.5 0c0 .398-.04.755-.513.755-.473 0-.498-.272-1.237-.272-.74 0-.74.215-1.165.215-.425 0-.585-.3-.585-.698 0-.397.17-.736.513-1.017.341-.281.754-.422 1.237-.422.483 0 .896.14 1.237.422.342.28.513.62.513 1.017zm9 2.63a7.29 7.29 0 0 0-.598-2.912 7.574 7.574 0 0 0-1.6-2.39 7.574 7.574 0 0 0-2.39-1.6A7.29 7.29 0 0 0 9 1.5a7.29 7.29 0 0 0-2.912.598 7.574 7.574 0 0 0-2.39 1.6 7.574 7.574 0 0 0-1.6 2.39A7.29 7.29 0 0 0 1.5 9c0 1.016.2 1.986.598 2.912a7.574 7.574 0 0 0 1.6 2.39 7.574 7.574 0 0 0 2.39 1.6A7.29 7.29 0 0 0 9 16.5a7.29 7.29 0 0 0 2.912-.598 7.574 7.574 0 0 0 2.39-1.6 7.574 7.574 0 0 0 1.6-2.39A7.29 7.29 0 0 0 16.5 9zM18 9a8.804 8.804 0 0 1-1.207 4.518 8.96 8.96 0 0 1-3.275 3.275A8.804 8.804 0 0 1 9 18a8.804 8.804 0 0 1-4.518-1.207 8.96 8.96 0 0 1-3.275-3.275A8.804 8.804 0 0 1 0 9c0-1.633.402-3.139 1.207-4.518a8.96 8.96 0 0 1 3.275-3.275A8.804 8.804 0 0 1 9 0c1.633 0 3.139.402 4.518 1.207a8.96 8.96 0 0 1 3.275 3.275A8.804 8.804 0 0 1 18 9z" fill-rule="evenodd"/></svg>
