<svg xmlns="http://www.w3.org/2000/svg" width="27" height="32" viewBox="0 0 27 32" class="btn-template-icon icon-node-express">
  <g fill="none" fill-rule="evenodd" transform="translate(-3)">
    <rect width="32" height="32"/>
    <path fill="#353535" d="M4.19170065,16.2667139 C4.23142421,18.3323387 4.47969269,20.2489714 4.93651356,22.0166696 C5.39333443,23.7843677 6.09841693,25.3236323 7.05178222,26.6345096 C8.00514751,27.9453869 9.23655921,28.9781838 10.7460543,29.7329313 C12.2555493,30.4876788 14.1026668,30.8650469 16.2874623,30.8650469 C19.5050701,30.8650469 22.1764391,30.0209341 24.3016492,28.3326831 C26.4268593,26.644432 27.7476477,24.1120935 28.2640539,20.7355914 L29.4557545,20.7355914 C29.0187954,24.3107112 27.6086304,27.0813875 25.2252172,29.0477034 C22.841804,31.0140194 19.9023051,31.9971626 16.4066324,31.9971626 C14.0232191,32.0368861 11.9874175,31.659518 10.2991665,30.8650469 C8.61091547,30.0705759 7.23054269,28.9484023 6.15800673,27.4984926 C5.08547078,26.0485829 4.29101162,24.3404957 3.77460543,22.3741798 C3.25819923,20.4078639 3,18.2926164 3,16.0283738 C3,13.4860664 3.3773681,11.2218578 4.13211562,9.23568007 C4.88686314,7.24950238 5.87993709,5.57120741 7.11136726,4.20074481 C8.34279742,2.8302822 9.77282391,1.78755456 11.4014896,1.07253059 C13.0301553,0.357506621 14.6985195,0 16.4066324,0 C18.7900456,0 20.8457087,0.456814016 22.5736832,1.37045575 C24.3016578,2.28409749 25.7118228,3.4956477 26.8042206,5.00514275 C27.8966183,6.51463779 28.6910775,8.24258646 29.1876219,10.1890406 C29.6841663,12.1354947 29.8927118,14.1613656 29.8132647,16.2667139 L4.19170065,16.2667139 Z M28.6215641,15.0750133 C28.6215641,13.2080062 28.3633648,11.4304039 27.8469586,9.74215285 C27.3305524,8.05390181 26.5658855,6.57422163 25.5529349,5.30306791 C24.5399843,4.03191419 23.2787803,3.0289095 21.7692853,2.29402376 C20.2597903,1.55913801 18.5119801,1.19170065 16.5258024,1.19170065 C14.8574132,1.19170065 13.2982871,1.50948432 11.8483774,2.14506118 C10.3984676,2.78063804 9.12733299,3.70419681 8.03493526,4.9157652 C6.94253754,6.12733359 6.05870172,7.58715229 5.38340131,9.2952651 C4.70810089,11.0033779 4.31087132,12.9299414 4.19170065,15.0750133 L28.6215641,15.0750133 Z"/>
  </g>
</svg>
