<?xml version="1.0" encoding="UTF-8" standalone="no"?>
<svg width="16px" height="16px" viewBox="0 0 16 16" version="1.1" xmlns="http://www.w3.org/2000/svg" xmlns:xlink="http://www.w3.org/1999/xlink">
    <!-- Generator: Sketch 3.8.3 (29802) - http://www.bohemiancoding.com/sketch -->
    <title>Pasted Image 237</title>
    <desc>Created with Sketch.</desc>
    <defs></defs>
    <g id="Page-1" stroke="none" stroke-width="1" fill="none" fill-rule="evenodd">
        <g id="Pasted-Image-237">
            <path d="M15.1111,16 C15.6021,16 16.0001,15.602 16.0001,15.111 L16.0001,4.444 C15.5341,3.983 12.0671,0.378 11.5551,0 L0.8891,0 C0.3981,0 0.0001,0.398 0.0001,0.889 L0.0001,15.111 C0.0001,15.602 0.3981,16 0.8891,16 L15.1111,16 M14.0001,14.111 L1.8891,14.111 L1.8891,2 L10.8131,2 C11.4451,2.42 13.5811,4.555 14.0001,5.187 L14.0001,14.111" id="Fill-1" fill="#7E7D7D"></path>
            <path d="M0.889,0 C0.398,0 0,0.398 0,0.889 L0,15.111 C0,15.602 0.398,16 0.889,16 L15.111,16 C15.602,16 16,15.602 16,15.111 L16,4.445 C15.534,3.983 12.068,0.377 11.555,0 L0.889,0 L0.889,0 Z M1.889,2 L10.813,2 C11.446,2.42 13.581,4.554 14,5.187 L14,14.111 L1.889,14.111 L1.889,2 L1.889,2 Z" id="Clip-4"></path>
            <polygon id="Fill-6" fill="#7E7D7D" points="9 7 11 7 11 2 9 2"></polygon>
            <polygon id="Clip-9" points="9 7 11 7 11 2.001 9 2.001"></polygon>
            <polygon id="Fill-11" fill="#7E7D7D" points="10 7 15.444 7 15.444 5 10 5"></polygon>
            <polygon id="Clip-14" points="10 7 15.444 7 15.444 5 10 5"></polygon>
        </g>
    </g>
</svg>