<svg xmlns="http://www.w3.org/2000/svg" width="78" height="82" viewBox="0 0 78 82"><g fill="none" fill-rule="evenodd"><path fill="#F9F9F9" d="M2.12 42c-.08.99-.12 1.99-.12 3 0 20.435 16.565 37 37 37s37-16.565 37-37c0-1.01-.04-2.01-.12-3C74.353 61.032 58.425 76 39 76 19.575 76 3.647 61.032 2.12 42z"/><path fill="#EEE" fill-rule="nonzero" d="M39 78C17.46 78 0 60.54 0 39S17.46 0 39 0s39 17.46 39 39-17.46 39-39 39zm0-4c19.33 0 35-15.67 35-35S58.33 4 39 4 4 19.67 4 39s15.67 35 35 35z"/><path fill="#E1DBF2" d="M30.24 27.823A14.98 14.98 0 0 0 24 40c0 2.549.636 4.949 1.757 7.051-.297-2.684.644-4.026 2.823-4.026 3.707 0 2.462 5.365 4.473 5.761 2.01.396 4.175.396 4.267 3.29.04 1.257-.265 2.157-.917 2.7a15.095 15.095 0 0 0 8.555-1.006c.035-1.91.303-4.941 2.21-5.61 2.373-.833-.55-1.431.734-3.368 1.17-1.762-3.297-5.2 0-4.832 3.477.388 5.044-.816 6.024-1.456a14.903 14.903 0 0 0-1.373-4.94c-.873.4-2.19.465-3.702-.538-.757-.502-1.084-3.944-2.107-3.944-3.823 0-4.065 3.17-5.994 3.944-1.076.431-4.193 3.773-5.614 3.596-1.126-.14-1.071-4.417-2.45-5.166-1.359-.738-2.174-1.948-2.447-3.633zM39 59c-10.493 0-19-8.507-19-19s8.507-19 19-19 19 8.507 19 19-8.507 19-19 19z"/></g></svg>