<?xml version="1.0" encoding="UTF-8" standalone="no"?>
<svg width="16px" height="16px" viewBox="0 0 16 16" version="1.1" xmlns="http://www.w3.org/2000/svg" xmlns:xlink="http://www.w3.org/1999/xlink">
    <!-- Generator: Sketch 3.7.2 (28276) - http://www.bohemiancoding.com/sketch -->
    <title>Pasted Image 232</title>
    <desc>Created with Sketch.</desc>
    <defs>
        <polygon id="path-1" points="5.9997 6 0 6 0 0.0221 5.9997 0.0221 5.9997 6"></polygon>
        <polygon id="path-3" points="-0.0003 6 5.9997 6 5.9997 0.0221 -0.0003 0.0221"></polygon>
        <polygon id="path-5" points="7.9997 0.012 -0.0003 0.012 -0.0003 6.9896 7.9997 6.9896 7.9997 0.012"></polygon>
    </defs>
    <g id="Page-1" stroke="none" stroke-width="1" fill="none" fill-rule="evenodd">
        <g id="Pasted-Image-232" transform="translate(0.000000, -1.000000)">
            <path d="M12.5,9.5834 L3.5,9.5834" id="Stroke-1" stroke="#303030" stroke-width="2"></path>
            <path d="M8,10.0834 L8,6.0834" id="Stroke-3" stroke="#303030" stroke-width="2"></path>
            <g id="Group-17" transform="translate(0.000000, 0.988400)">
                <path d="M3,11.095 L3,7.595" id="Stroke-4" stroke="#303030" stroke-width="2"></path>
                <path d="M13,11.095 L13,7.595" id="Stroke-6" stroke="#303030" stroke-width="2"></path>
                <g id="Group-10" transform="translate(0.000000, 10.000000)">
                    <mask id="mask-2" fill="white">
                        <use xlink:href="#path-1"></use>
                    </mask>
                    <g id="Clip-9"></g>
                    <path d="M5.6667,0.0221 L0.3337,0.0221 C0.1497,0.0221 -0.0003,0.1891 -0.0003,0.3961 L-0.0003,5.6261 C-0.0003,5.8331 0.1497,6.0001 0.3337,6.0001 L5.6667,6.0001 C5.8507,6.0001 5.9997,5.8331 5.9997,5.6261 L5.9997,0.3961 C5.9997,0.1891 5.8507,0.0221 5.6667,0.0221 L5.6667,0.0221 Z M1.9997,4.0221 L3.9997,4.0221 L3.9997,2.0221 L1.9997,2.0221 L1.9997,4.0221 Z" id="Fill-8" fill="#303030" mask="url(#mask-2)"></path>
                </g>
                <g id="Group-13" transform="translate(10.000000, 10.000000)">
                    <mask id="mask-4" fill="white">
                        <use xlink:href="#path-3"></use>
                    </mask>
                    <g id="Clip-12"></g>
                    <path d="M5.6667,0.0221 L0.3337,0.0221 C0.1497,0.0221 -0.0003,0.1891 -0.0003,0.3961 L-0.0003,5.6261 C-0.0003,5.8331 0.1497,6.0001 0.3337,6.0001 L5.6667,6.0001 C5.8507,6.0001 5.9997,5.8331 5.9997,5.6261 L5.9997,0.3961 C5.9997,0.1891 5.8507,0.0221 5.6667,0.0221 L5.6667,0.0221 Z M1.9997,4.0221 L3.9997,4.0221 L3.9997,2.0221 L1.9997,2.0221 L1.9997,4.0221 Z" id="Fill-11" fill="#303030" mask="url(#mask-4)"></path>
                </g>
                <g id="Group-16" transform="translate(4.000000, 0.000000)">
                    <mask id="mask-6" fill="white">
                        <use xlink:href="#path-5"></use>
                    </mask>
                    <g id="Clip-15"></g>
                    <path d="M7.6667,0.0116 L0.3337,0.0116 C0.1497,0.0116 -0.0003,0.1786 -0.0003,0.3856 L-0.0003,6.6156 C-0.0003,6.8226 0.1497,6.9896 0.3337,6.9896 L7.6667,6.9896 C7.8507,6.9896 7.9997,6.8226 7.9997,6.6156 L7.9997,0.3856 C7.9997,0.1786 7.8507,0.0116 7.6667,0.0116 L7.6667,0.0116 Z M1.9997,5.0116 L5.9997,5.0116 L5.9997,2.0116 L1.9997,2.0116 L1.9997,5.0116 Z" id="Fill-14" fill="#303030" mask="url(#mask-6)"></path>
                </g>
            </g>
        </g>
    </g>
</svg>