<?xml version="1.0"?>
<svg xmlns="http://www.w3.org/2000/svg" viewBox="0 0 76 76" enable-background="new 0 0 76 76">
  <path d="m45.688 18.854c-4.869-1.989-10.488-1.975-15.29-.001-2.413.979-4.597 2.414-6.493 4.268-1.836 1.8-3.33 3.985-4.346 6.381-1.013 2.38-1.525 4.916-1.525 7.537 0 2.066.33 4.118.983 6.104.469 1.388 1.089 2.706 1.83 3.937-1.275 1.101-2.086 2.725-2.086 4.538 0 3.309 2.691 6 6 6s6-2.691 6-6-2.691-6-6-6c-.779 0-1.522.154-2.205.425-.665-1.105-1.221-2.289-1.642-3.533-.585-1.776-.881-3.618-.881-5.472 0-2.351.459-4.623 1.391-6.814.89-2.096 2.231-4.059 3.88-5.675 1.708-1.669 3.675-2.962 5.85-3.845 4.329-1.778 9.392-1.79 13.78.002 2.17.881 4.137 2.175 5.843 3.84 3.39 3.34 5.257 7.776 5.257 12.493.002 1.86-.294 3.705-.878 5.481-.579 1.75-1.443 3.406-2.569 4.923-2.134 2.866-3.818 4.698-5.174 6.173-2.424 2.643-3.98 4.599-4.383 8.384h-10.815c-.553 0-1 .447-1 1s.447 1 1 1h11.739c.532 0 .971-.416.999-.947.19-3.645 1.345-5.263 3.934-8.09 1.385-1.506 3.107-3.381 5.304-6.331 1.254-1.688 2.218-3.535 2.864-5.489.651-1.98.98-4.04.979-6.109 0-5.256-2.078-10.198-5.856-13.92-1.897-1.851-4.081-3.287-6.49-4.265m-16.927 32.763c0 2.206-1.794 4-4 4s-4-1.794-4-4 1.794-4 4-4 4 1.794 4 4"/>
  <path d="m40 74h-4c-.553 0-1 .447-1 1s.447 1 1 1h4c.553 0 1-.447 1-1s-.447-1-1-1"/>
  <path d="m42 70h-8c-.553 0-1 .447-1 1s.447 1 1 1h8c.553 0 1-.447 1-1s-.447-1-1-1"/>
  <path d="m38 10c.553 0 1-.447 1-1v-8c0-.553-.447-1-1-1s-1 .447-1 1v8c0 .553.447 1 1 1"/>
  <path d="m20.828 15.828c.256 0 .512-.098.707-.293.391-.391.391-1.023 0-1.414l-5.656-5.656c-.391-.391-1.023-.391-1.414 0s-.391 1.023 0 1.414l5.656 5.656c.195.195.451.293.707.293"/>
  <path d="m10 33h-8c-.553 0-1 .447-1 1s.447 1 1 1h8c.553 0 1-.447 1-1s-.447-1-1-1"/>
  <path d="m60.12 8.465l-5.656 5.656c-.391.391-.391 1.023 0 1.414.195.195.451.293.707.293s.512-.098.707-.293l5.656-5.656c.391-.391.391-1.023 0-1.414s-1.023-.391-1.414 0"/>
  <path d="m74 33h-8c-.553 0-1 .447-1 1s.447 1 1 1h8c.553 0 1-.447 1-1s-.447-1-1-1"/>
  <path d="m43 66h-10c-.553 0-1 .447-1 1s.447 1 1 1h10c.553 0 1-.447 1-1s-.447-1-1-1"/>
</svg>
