<?xml version="1.0"?>
<svg xmlns="http://www.w3.org/2000/svg" viewBox="0 0 76 76" enable-background="new 0 0 76 76">
  <path d="m67.7 10h-6.751c-.507-5.598-5.221-10-10.949-10-6.06 0-11 4.935-11 11s4.935 11 11 11c5.728 0 10.442-4.402 10.949-10h6.751c1.269 0 2.3.987 2.3 2.2v57.6c0 1.213-1.031 2.2-2.3 2.2h-59.4c-1.269 0-2.3-.987-2.3-2.2v-57.6c0-1.213 1.031-2.2 2.3-2.2h15.15c.553 0 1-.447 1-1s-.447-1-1-1h-15.15c-2.371 0-4.3 1.884-4.3 4.2v57.6c0 2.316 1.929 4.2 4.3 4.2h59.4c2.371 0 4.3-1.884 4.3-4.2v-57.6c0-2.316-1.929-4.2-4.3-4.2m-17.7 10c-4.963 0-9-4.04-9-9s4.04-9 9-9 9 4.04 9 9-4.04 9-9 9"/>
  <path d="m21.293 29.29c-.391.391-.391 1.023 0 1.414l12.975 12.975-12.975 12.974c-.391.391-.391 1.023 0 1.414.195.195.451.293.707.293s.512-.098.707-.293l13.682-13.682c.391-.391.391-1.023 0-1.414l-13.682-13.681c-.391-.391-1.023-.391-1.414 0"/>
  <path d="m54 59c.553 0 1-.447 1-1s-.447-1-1-1h-12c-.553 0-1 .447-1 1s.447 1 1 1h12"/>
</svg>
