<?xml version="1.0"?>
<svg xmlns="http://www.w3.org/2000/svg" viewBox="0 0 76 76" enable-background="new 0 0 76 76">
  <path d="m62.44 54.765l-9.912-11.09c.315-3.881.481-7.241.508-10.271-.029-13.871-3.789-23.05-13.413-32.746-.855-.859-2.411-.828-3.294.059-7.594 7.65-11.139 13.934-12.575 22.3-1.776.062-3.437.776-4.699 2.039-1.321 1.321-2.05 3.079-2.05 4.949s.729 3.628 2.051 4.949c1.321 1.322 3.079 2.051 4.949 2.051s3.628-.729 4.949-2.051c1.322-1.321 2.051-3.079 2.051-4.949 0-1.869-.729-3.627-2.051-4.949-.9-.9-2-1.517-3.205-1.824 1.373-7.859 4.764-13.818 11.999-21.11.128-.13.356-.158.456-.059 9.207 9.274 12.805 18.06 12.832 31.33-.026 3.079-.202 6.527-.536 10.54-.023.273.067.545.25.749l10.166 11.379c.062.076.109.23.093.32l-4.547 17.407c-.004.015-.009.036-.079.106-.062.063-.155.1-.2.106l-3.577.002c-.144-.009-.265-.077-.309-.153l-5.425-10.328c-.173-.329-.515-.535-.886-.535h-15.962c-.371 0-.713.206-.886.535l-5.407 10.303-.069.072c-.07.07-.165.105-.199.105l-3.588.001c-.179-.009-.304-.123-.33-.227l-4.531-17.338c-.029-.146.019-.301.049-.34l10.197-11.415c.367-.412.332-1.044-.08-1.412-.411-.366-1.042-.333-1.412.08l-10.229 11.453c-.448.554-.63 1.312-.474 2.084l4.544 17.396c.253.963 1.146 1.669 2.218 1.719h3.636c.581 0 1.187-.261 1.615-.693.114-.114.286-.286.406-.528l5.144-9.793h14.754l5.16 9.822c.396.697 1.124 1.143 2.01 1.192l3.712-.003c.604-.046 1.137-.285 1.544-.694.313-.316.504-.646.598-1.022l4.557-17.451c.143-.718-.039-1.476-.518-2.066m-33.435-24.765c0 1.335-.521 2.591-1.465 3.535s-2.2 1.465-3.535 1.465-2.591-.521-3.535-1.465-1.465-2.2-1.465-3.535.521-2.591 1.465-3.535 2.2-1.465 3.535-1.465 2.591.521 3.535 1.465 1.465 2.2 1.465 3.535"/>
</svg>
