<?xml version="1.0"?>
<svg xmlns="http://www.w3.org/2000/svg" viewBox="0 0 76 76" enable-background="new 0 0 76 76">
  <path d="m68 67c-1.725 0-3.36.541-4.723 1.545-2.298-4.02-6.592-6.545-11.277-6.545-2.734 0-5.359.853-7.555 2.43l-2.286-15.43h1.228l3.829 7.645c.339.598.962.979 1.724 1.022l2.812-.003c.507-.039.974-.25 1.316-.595.264-.266.433-.559.514-.882l3.433-13.145c.12-.611-.037-1.258-.449-1.763l-7.385-8.268c.231-2.875.354-5.376.374-7.641-.023-10.507-2.871-17.462-10.162-24.806-.737-.742-2.072-.715-2.829.044-5.617 5.659-8.309 10.336-9.446 16.463-1.267.186-2.438.764-3.36 1.686-1.134 1.134-1.758 2.64-1.758 4.243s.624 3.109 1.758 4.242c1.133 1.134 2.639 1.758 4.242 1.758s3.109-.624 4.242-1.758c1.134-1.133 1.758-2.639 1.758-4.242s-.624-3.109-1.758-4.242c-.858-.859-1.932-1.424-3.098-1.648 1.095-5.538 3.637-9.855 8.83-15.14 6.874 6.924 9.561 13.485 9.581 23.392-.021 2.316-.151 4.903-.402 7.91-.023.273.067.544.25.749l7.663 8.572-3.391 13.07-2.695.036-4.081-8.15c-.17-.339-.516-.553-.895-.553h-12.01c-.379 0-.725.214-.895.553l-4.04 8.114-2.707.015-3.427-13.07 7.671-8.588c.367-.412.332-1.044-.08-1.412-.411-.366-1.043-.333-1.412.08l-7.7 8.623c-.383.47-.54 1.116-.406 1.787l3.419 13.08c.216.829.98 1.438 1.907 1.48h2.735c.508 0 1.016-.218 1.391-.595.091-.09.242-.241.358-.475l3.804-7.597h1.228l-2.286 15.43c-2.196-1.577-4.821-2.43-7.555-2.43-4.685 0-8.979 2.53-11.277 6.545-1.363-1-2.998-1.545-4.723-1.545-4.411 0-8 3.589-8 8 0 .553.447 1 1 1h74c.553 0 1-.447 1-1 0-4.411-3.589-8-8-8m-36-44c0 1.068-.416 2.072-1.172 2.828-1.512 1.512-4.145 1.512-5.656 0-.756-.756-1.172-1.76-1.172-2.828s.416-2.072 1.172-2.828 1.76-1.172 2.828-1.172 2.072.416 2.828 1.172 1.172 1.76 1.172 2.828m-29.917 51c.478-2.834 2.949-5 5.917-5 1.638 0 3.17.652 4.313 1.836.231.24.562.35.895.29.327-.058.604-.274.739-.579 1.765-3.977 5.711-6.547 10.05-6.547 2.836 0 5.532 1.085 7.593 3.055.271.258.665.345 1.016.224.354-.122.61-.43.665-.8l2.588-17.479h4.275l2.589 17.479c.055.37.312.678.665.8s.745.035 1.016-.224c2.061-1.97 4.757-3.055 7.593-3.055 4.343 0 8.288 2.57 10.05 6.547.135.305.412.521.739.579.329.059.663-.051.895-.29 1.143-1.184 2.675-1.836 4.313-1.836 2.968 0 5.439 2.166 5.917 5h-71.834"/>
</svg>
