<?xml version="1.0"?>
<svg xmlns="http://www.w3.org/2000/svg" viewBox="0 0 76 76" enable-background="new 0 0 76 76">
  <path d="M73.236,23.749c-0.208-0.513-0.798-0.76-1.302-0.552c-0.513,0.207-0.759,0.79-0.552,1.302    C73.119,28.787,74,33.329,74,38c0,19.851-16.149,36-36,36S2,57.851,2,38S18.149,2,38,2c7.6,0,14.83,2.332,20.965,6.74    C58.339,9.702,58,10.825,58,12c0,1.603,0.624,3.109,1.758,4.242C60.891,17.376,62.397,18,64,18c1.603,0,3.109-0.624,4.242-1.758    C69.376,15.109,70,13.603,70,12s-0.624-3.109-1.758-4.242C67.109,6.624,65.603,6,64,6c-1.346,0-2.622,0.445-3.668,1.259    C53.812,2.512,46.104,0,38,0C17.047,0,0,17.047,0,38s17.047,38,38,38s38-17.047,38-38C76,33.07,75.07,28.275,73.236,23.749z M64,8    c1.068,0,2.072,0.416,2.828,1.172S68,10.932,68,12s-0.416,2.072-1.172,2.828c-1.512,1.512-4.145,1.512-5.656,0    C60.416,14.072,60,13.068,60,12s0.416-2.072,1.172-2.828S62.932,8,64,8z"/>
  <path d="m27.19 32.17c-.277-.479-.89-.643-1.366-.364l-12.654 7.326c-.309.179-.499.509-.499.865s.19.687.499.865l12.654 7.326c.157.092.33.135.5.135.345 0 .681-.179.866-.499.277-.478.113-1.09-.364-1.366l-11.159-6.461 11.159-6.461c.478-.276.642-.889.364-1.366"/>
  <path d="m48.808 47.827c.186.32.521.499.866.499.17 0 .343-.043.5-.135l12.654-7.326c.309-.179.499-.509.499-.865s-.19-.687-.499-.865l-12.654-7.326c-.478-.278-1.09-.114-1.366.364-.277.478-.113 1.09.364 1.366l11.159 6.461-11.159 6.461c-.478.276-.642.889-.364 1.366"/>
  <path d="m42.71 23.06l-11.312 33.23c-.179.522.102 1.091.624 1.269.106.037.216.054.322.054.416 0 .805-.262.946-.678l11.312-33.23c.179-.522-.102-1.091-.624-1.269-.523-.181-1.089.101-1.268.624"/>
</svg>
