<?xml version="1.0"?>
<svg xmlns="http://www.w3.org/2000/svg" viewBox="0 0 76 76" enable-background="new 0 0 76 76">
  <path d="m14.267 7.32l-4.896 5.277-1.702-1.533c-.409-.369-1.043-.338-1.412.074-.369.41-.337 1.042.074 1.412l2.434 2.192c.064.058.139.091.212.13.035.018.065.048.101.062.114.044.235.066.356.066.135 0 .27-.028.396-.082.044-.019.077-.058.118-.084.076-.047.155-.086.219-.154l5.566-6c.375-.404.352-1.037-.054-1.413-.405-.377-1.036-.353-1.412.053"/>
  <path d="m31 9h44c.553 0 1-.447 1-1s-.447-1-1-1h-44c-.553 0-1 .447-1 1s.447 1 1 1"/>
  <path d="m31 15h24c.553 0 1-.447 1-1s-.447-1-1-1h-24c-.553 0-1 .447-1 1s.447 1 1 1"/>
  <path d="m11 0c-6.07 0-11 4.935-11 11s4.935 11 11 11 11-4.935 11-11-4.935-11-11-11m0 20c-4.963 0-9-4.04-9-9s4.04-9 9-9 9 4.04 9 9-4.04 9-9 9"/>
  <path d="m14.267 34.32l-4.896 5.277-1.702-1.533c-.409-.368-1.043-.338-1.412.074-.369.41-.337 1.042.074 1.412l2.434 2.192c.064.058.139.091.212.13.035.018.065.048.101.062.114.044.235.066.356.066.135 0 .27-.028.396-.082.044-.019.077-.058.118-.084.076-.047.155-.086.219-.154l5.566-6c.375-.404.352-1.037-.054-1.413-.405-.377-1.036-.353-1.412.053"/>
  <path d="m75 34h-44c-.553 0-1 .447-1 1s.447 1 1 1h44c.553 0 1-.447 1-1s-.447-1-1-1"/>
  <path d="m31 42h24c.553 0 1-.447 1-1s-.447-1-1-1h-24c-.553 0-1 .447-1 1s.447 1 1 1"/>
  <path d="m11 27c-6.07 0-11 4.935-11 11s4.935 11 11 11 11-4.935 11-11-4.935-11-11-11m0 20c-4.963 0-9-4.04-9-9s4.04-9 9-9 9 4.04 9 9-4.04 9-9 9"/>
  <path d="m14.267 61.32l-4.896 5.277-1.702-1.533c-.409-.368-1.043-.338-1.412.074-.369.41-.337 1.042.074 1.412l2.434 2.192c.064.058.139.091.212.13.035.018.065.048.101.062.114.044.235.066.356.066.135 0 .27-.028.396-.082.044-.019.077-.058.118-.084.076-.047.155-.086.219-.154l5.566-6c.375-.404.352-1.037-.054-1.413-.405-.377-1.036-.353-1.412.053"/>
  <path d="m11 54c-6.07 0-11 4.935-11 11s4.935 11 11 11 11-4.935 11-11-4.935-11-11-11m0 20c-4.963 0-9-4.04-9-9s4.04-9 9-9 9 4.04 9 9-4.04 9-9 9"/>
  <path d="m75 61h-44c-.553 0-1 .447-1 1s.447 1 1 1h44c.553 0 1-.447 1-1s-.447-1-1-1"/>
  <path d="m55 67h-24c-.553 0-1 .447-1 1s.447 1 1 1h24c.553 0 1-.447 1-1s-.447-1-1-1"/>
</svg>
