<?xml version="1.0"?>
<svg xmlns="http://www.w3.org/2000/svg" viewBox="0 0 76 76" enable-background="new 0 0 76 76">
  <path d="m42.26 40.44c.558.073 1.045-.329 1.109-.877l2.625-22.444c.033-.283-.057-.567-.246-.781-.189-.214-.462-.336-.747-.336h-14c-.284 0-.555.121-.744.332-.19.212-.281.494-.25.776l3.454 31.575c-1.503 1.285-2.46 3.19-2.46 5.317 0 3.859 3.141 7 7 7s7-3.141 7-7-3.141-7-7-7c-.94 0-1.835.189-2.655.527l-3.23-29.527h11.761l-2.494 21.328c-.065.549.328 1.045.877 1.11m.741 13.562c0 2.757-2.243 5-5 5s-5-2.243-5-5 2.243-5 5-5 5 2.243 5 5"/>
  <path d="M73.236,23.749c-0.207-0.513-0.796-0.76-1.302-0.552c-0.513,0.207-0.759,0.79-0.552,1.302    C73.119,28.787,74,33.329,74,38c0,19.851-16.149,36-36,36S2,57.851,2,38S18.149,2,38,2c7.6,0,14.83,2.332,20.965,6.74    C58.339,9.702,58,10.825,58,12c0,1.603,0.624,3.109,1.758,4.242C60.891,17.376,62.397,18,64,18c1.603,0,3.109-0.624,4.242-1.758    C69.376,15.109,70,13.603,70,12s-0.624-3.109-1.758-4.242C67.109,6.624,65.603,6,64,6c-1.346,0-2.622,0.445-3.668,1.259    C53.812,2.512,46.104,0,38,0C17.047,0,0,17.047,0,38s17.047,38,38,38s38-17.047,38-38C76,33.07,75.07,28.275,73.236,23.749z M64,8    c1.068,0,2.072,0.416,2.828,1.172S68,10.932,68,12s-0.416,2.072-1.172,2.828c-1.512,1.512-4.145,1.512-5.656,0    C60.416,14.072,60,13.068,60,12s0.416-2.072,1.172-2.828S62.932,8,64,8z"/>
</svg>
