<?xml version="1.0"?>
<svg xmlns="http://www.w3.org/2000/svg" viewBox="0 0 76 76" enable-background="new 0 0 76 76">
  <path d="m12 8c0-3.309-2.691-6-6-6s-6 2.691-6 6c0 2.967 2.167 5.431 5 5.91v8.181c-2.833.478-5 2.942-5 5.909s2.167 5.431 5 5.91v8.181c-2.833.478-5 2.942-5 5.909s2.167 5.431 5 5.91v8.181c-2.833.478-5 2.942-5 5.909 0 3.309 2.691 6 6 6s6-2.691 6-6c0-2.967-2.167-5.431-5-5.91v-8.18c2.833-.478 5-2.942 5-5.91s-2.167-5.431-5-5.91v-8.18c2.833-.478 5-2.942 5-5.91s-2.167-5.431-5-5.91v-8.18c2.833-.479 5-2.943 5-5.91m-10 0c0-2.206 1.794-4 4-4s4 1.794 4 4-1.794 4-4 4-4-1.794-4-4m8 60c0 2.206-1.794 4-4 4s-4-1.794-4-4 1.794-4 4-4 4 1.794 4 4m0-20c0 2.206-1.794 4-4 4s-4-1.794-4-4 1.794-4 4-4 4 1.794 4 4m0-20c0 2.206-1.794 4-4 4s-4-1.794-4-4 1.794-4 4-4 4 1.794 4 4"/>
  <path d="m21 6h54c.553 0 1-.447 1-1s-.447-1-1-1h-54c-.553 0-1 .447-1 1s.447 1 1 1"/>
  <path d="m21 12h35c.553 0 1-.447 1-1s-.447-1-1-1h-35c-.553 0-1 .447-1 1s.447 1 1 1"/>
  <path d="m75 24h-54c-.553 0-1 .447-1 1s.447 1 1 1h54c.553 0 1-.447 1-1s-.447-1-1-1"/>
  <path d="m21 32h34c.553 0 1-.447 1-1s-.447-1-1-1h-34c-.553 0-1 .447-1 1s.447 1 1 1"/>
  <path d="m75 44h-54c-.553 0-1 .447-1 1s.447 1 1 1h54c.553 0 1-.447 1-1s-.447-1-1-1"/>
  <path d="m21 52h34c.553 0 1-.447 1-1s-.447-1-1-1h-34c-.553 0-1 .447-1 1s.447 1 1 1"/>
  <path d="m75 64h-54c-.553 0-1 .447-1 1s.447 1 1 1h54c.553 0 1-.447 1-1s-.447-1-1-1"/>
  <path d="m55 70h-34c-.553 0-1 .447-1 1s.447 1 1 1h34c.553 0 1-.447 1-1s-.447-1-1-1"/>
</svg>
