<?xml version="1.0"?>
<svg xmlns="http://www.w3.org/2000/svg" viewBox="0 0 76 76" enable-background="new 0 0 76 76">
  <path d="m5 43c0 .553.447 1 1 1s1-.447 1-1v-4h4c.553 0 1-.447 1-1s-.447-1-1-1h-4v-4c0-.553-.447-1-1-1s-1 .447-1 1v4h-4c-.553 0-1 .447-1 1s.447 1 1 1h4v4"/>
  <path d="m75 37h-4v-4c0-.553-.447-1-1-1s-1 .447-1 1v4h-4c-.553 0-1 .447-1 1s.447 1 1 1h4v4c0 .553.447 1 1 1s1-.447 1-1v-4h4c.553 0 1-.447 1-1s-.447-1-1-1"/>
  <path d="m21 38c0 .345.178.665.47.848l8 5c.165.103.348.152.529.152.333 0 .659-.166.849-.47.293-.469.15-1.086-.317-1.378l-6.644-4.152 6.644-4.152c.468-.292.61-.909.317-1.378s-.908-.611-1.378-.317l-8 5c-.292.182-.47.502-.47.847"/>
  <path d="m55 38c0-.345-.178-.665-.47-.848l-8-5c-.469-.294-1.086-.151-1.378.317-.293.469-.15 1.086.317 1.378l6.644 4.153-6.644 4.152c-.468.292-.61.909-.317 1.378.189.304.516.47.849.47.181 0 .364-.049.529-.152l8-5c.292-.183.47-.503.47-.848"/>
  <path d="m41.803 26.05c-.525-.168-1.089.124-1.256.65l-7 22c-.167.525.124 1.088.65 1.256.101.032.202.047.303.047.424 0 .817-.271.953-.697l7-22c.167-.526-.124-1.088-.65-1.256"/>
  <path d="m62 7c3.859 0 7 3.141 7 7v11c0 .553.447 1 1 1s1-.447 1-1v-11c0-4.963-4.04-9-9-9h-16.09c-.479-2.833-2.943-5-5.91-5-3.309 0-6 2.691-6 6s2.691 6 6 6c2.967 0 5.431-2.167 5.91-5h16.09m-22 3c-2.206 0-4-1.794-4-4s1.794-4 4-4 4 1.794 4 4-1.794 4-4 4"/>
  <path d="m6 26c.553 0 1-.447 1-1v-11c0-3.859 3.141-7 7-7h11.09l-3.293 3.293c-.391.391-.391 1.023 0 1.414.195.195.451.293.707.293s.512-.098.707-.293l5-5c.391-.391.391-1.023 0-1.414l-5-5c-.391-.391-1.023-.391-1.414 0s-.391 1.023 0 1.414l3.293 3.293h-11.09c-4.963 0-9 4.04-9 9v11c0 .553.447 1 1 1"/>
  <path d="m36 64c-2.967 0-5.431 2.167-5.91 5h-16.09c-3.859 0-7-3.141-7-7v-11c0-.553-.447-1-1-1s-1 .447-1 1v11c0 4.963 4.04 9 9 9h16.09c.478 2.833 2.942 5 5.91 5 3.309 0 6-2.691 6-6s-2.691-6-6-6m0 10c-2.206 0-4-1.794-4-4s1.794-4 4-4 4 1.794 4 4-1.794 4-4 4"/>
  <path d="m70 50c-.553 0-1 .447-1 1v11c0 3.859-3.141 7-7 7h-11.09l3.293-3.293c.391-.391.391-1.023 0-1.414s-1.023-.391-1.414 0l-5 5c-.391.391-.391 1.023 0 1.414l5 5c.195.195.451.293.707.293s.512-.098.707-.293c.391-.391.391-1.023 0-1.414l-3.293-3.293h11.09c4.963 0 9-4.04 9-9v-11c0-.553-.447-1-1-1"/>
</svg>
