<svg xmlns="http://www.w3.org/2000/svg" viewBox="0 0 16 16">
  <path fill-rule="evenodd" d="m12 11h-2v-.681c0-.307-.203-.407-.454-.236l-2.355 1.607c-.259.177-.251.448 0 .619l2.355 1.607c.259.177.454.065.454-.236v-.679h2c0 0 0 0 0 0 1.657 0 3-1.343 3-3 0-.828-.336-1.578-.879-2.121-.543-.543-1.293-.879-2.121-.879-.001 0-.002 0-.002 0h-10.497c-.271 0-.5.226-.5.505v.991c0 .291.224.505.5.505h10.497c.001 0 .002 0 .002 0 .552 0 1 .448 1 1 0 .276-.112.526-.293.707-.181.181-.431.293-.707.293m-11-7.495c0-.279.22-.505.498-.505h13c.275 0 .498.214.498.505v.991c0 .279-.22.505-.498.505h-13c-.275 0-.498-.214-.498-.505v-.991m0 8c0-.279.215-.505.49-.505h3.02c.271 0 .49.214.49.505v.991c0 .279-.215.505-.49.505h-3.02c-.271 0-.49-.214-.49-.505v-.991"/>
</svg>
