<svg xmlns="http://www.w3.org/2000/svg" width="16" height="16" viewBox="0 0 16 16"><path fill-rule="evenodd" d="M11.95 8.536l1.06-1.061a1 1 0 0 1 1.415 1.414l-1.061 1.06 1.06 1.061a1 1 0 0 1-1.414 1.415l-1.06-1.061-1.06 1.06a1 1 0 1 1-1.415-1.414l1.06-1.06-1.06-1.06a1 1 0 0 1 1.414-1.414l1.06 1.06zm-3.768-.33c.006.503.201 1.006.586 1.39l.353.354-.353.353a2 2 0 1 0 2.828 2.829l.354-.354.047.048C11.964 14.363 11.527 15 6 15c-5.924 0-6-.78-6-2.52S.964 8 6 8c.834 0 1.557.074 2.182.205zM5.976 7a3 3 0 1 1 0-6 3 3 0 0 1 0 6z"/></svg>

