<svg xmlns="http://www.w3.org/2000/svg" viewBox="0 0 112 90" xmlns:xlink="http://www.w3.org/1999/xlink"><g fill="none" fill-rule="evenodd"><rect width="112" height="90" fill="#fff" rx="6"/><path fill="#eee" fill-rule="nonzero" d="m4 6.01v77.98c0 1.11.899 2.01 2 2.01h100c1.105 0 2-.898 2-2.01v-77.98c0-1.11-.899-2.01-2-2.01h-100c-1.105 0-2 .898-2 2.01m-4 0c0-3.319 2.686-6.01 6-6.01h100c3.315 0 6 2.694 6 6.01v77.98c0 3.319-2.686 6.01-6 6.01h-100c-3.315 0-6-2.694-6-6.01v-77.98"/><g transform="translate(26 35)"><rect width="4" height="39" x="5" fill="#eee" rx="2" id="0"/><rect width="4" height="21" x="5" y="18" fill="#fef0ea" rx="2"/><circle cx="7" cy="13" r="5" fill="#fff"/><path fill="#fb722e" fill-rule="nonzero" d="m7 20c-3.866 0-7-3.134-7-7 0-3.866 3.134-7 7-7 3.866 0 7 3.134 7 7 0 3.866-3.134 7-7 7m0-4c1.657 0 3-1.343 3-3 0-1.657-1.343-3-3-3-1.657 0-3 1.343-3 3 0 1.657 1.343 3 3 3"/></g><g transform="translate(49 35)"><use xlink:href="#0"/><rect width="4" height="21" x="5" y="18" fill="#b5a7dd" rx="2"/><circle cx="7" cy="25" r="5" fill="#fff"/><path fill="#6b4fbb" fill-rule="nonzero" d="m7 32c-3.866 0-7-3.134-7-7 0-3.866 3.134-7 7-7 3.866 0 7 3.134 7 7 0 3.866-3.134 7-7 7m0-4c1.657 0 3-1.343 3-3 0-1.657-1.343-3-3-3-1.657 0-3 1.343-3 3 0 1.657 1.343 3 3 3"/></g><g transform="translate(72 33)"><rect width="4" height="39" x="5" y="2" fill="#eee" rx="2"/><rect width="4" height="34" x="5" y="7" fill="#fef0ea" rx="2"/><circle cx="7" cy="7" r="5" fill="#fff"/><path fill="#fb722e" fill-rule="nonzero" d="m7 14c-3.866 0-7-3.134-7-7 0-3.866 3.134-7 7-7 3.866 0 7 3.134 7 7 0 3.866-3.134 7-7 7m0-4c1.657 0 3-1.343 3-3 0-1.657-1.343-3-3-3-1.657 0-3 1.343-3 3 0 1.657 1.343 3 3 3"/></g><g fill="#6b4fbb"><circle cx="13.5" cy="11.5" r="2.5"/><circle cx="23.5" cy="11.5" r="2.5" opacity=".5"/><circle cx="33.5" cy="11.5" r="2.5" opacity=".5"/></g><path fill="#eee" d="m0 19h111v4h-111z"/></g></svg>
