<svg width="19" height="14" viewBox="0 0 19 14" xmlns="http://www.w3.org/2000/svg"><rect fill="#848484" x="7.2" y="9.25" width="6.46" height="1.5" rx=".5"/><path d="M5.851 7.016L3.81 9.103a.503.503 0 0 0 .017.709l.35.334c.207.198.524.191.717-.006l2.687-2.748a.493.493 0 0 0 .137-.376.493.493 0 0 0-.137-.376L4.894 3.892a.507.507 0 0 0-.717-.006l-.35.334a.503.503 0 0 0-.017.709L5.85 7.016z"/><path d="M1.25 11.497c0 .691.562 1.253 1.253 1.253h13.994c.694 0 1.253-.56 1.253-1.253V2.503c0-.691-.562-1.253-1.253-1.253H2.503c-.694 0-1.253.56-1.253 1.253v8.994zM2.503 0h13.994A2.504 2.504 0 0 1 19 2.503v8.994A2.501 2.501 0 0 1 16.497 14H2.503A2.504 2.504 0 0 1 0 11.497V2.503A2.501 2.501 0 0 1 2.503 0z"/></svg>
