<svg xmlns="http://www.w3.org/2000/svg" width="1792" height="1792" viewBox="0 0 1792 1792"><path d="M1664 896q0 156-61 298t-164 245-245 164-298 61q-172 0-327-72.5T305 1387q-7-10-6.5-22.5t8.5-20.5l137-138q10-9 25-9 16 2 23 12 73 95 179 147t225 52q104 0 198.5-40.5T1258 1258t109.5-163.5T1408 896t-40.5-198.5T1258 534t-163.5-109.5T896 384q-98 0-188 35.5T548 521l137 138q31 30 14 69-17 40-59 40H192q-26 0-45-19t-19-45V256q0-42 40-59 39-17 69 14l130 129q107-101 244.5-156.5T896 128q156 0 298 61t245 164 164 245 61 298zm-640-288v448q0 14-9 23t-23 9H672q-14 0-23-9t-9-23v-64q0-14 9-23t23-9h224V608q0-14 9-23t23-9h64q14 0 23 9t9 23z"/></svg>
