<svg xmlns="http://www.w3.org/2000/svg" viewBox="0 0 16 16"><g fill-rule="evenodd"><path d="m8.411 1.012c-.136-.008-.273-.012-.411-.012-3.866 0-7 3.134-7 7 0 3.866 3.134 7 7 7 3.866 0 7-3.134 7-7 0-.138-.004-.275-.012-.411-.464.201-.964.334-1.488.386 0 .008 0 .016 0 .025 0 3.038-2.462 5.5-5.5 5.5-3.038 0-5.5-2.462-5.5-5.5 0-3.038 2.462-5.5 5.5-5.5.008 0 .016 0 .025 0 .052-.524.185-1.024.386-1.488"/><path d="m12 2h-1.01c-.54 0-.991.448-.991 1 0 .556.444 1 .991 1h1.01v1.01c0 .54.448.991 1 .991.556 0 1-.444 1-.991v-1.01h1.01c.54 0 .991-.448.991-1 0-.556-.444-1-.991-1h-1.01v-1.01c0-.54-.448-.991-1-.991-.556 0-1 .444-1 .991v1.01m-5 4.01c0-.557.444-1.01 1-1.01.552 0 1 .443 1 1.01v1.981c0 .557-.444 1.01-1 1.01-.552 0-1-.443-1-1.01v-1.981m1 5.991c.552 0 1-.448 1-1 0-.552-.448-1-1-1-.552 0-1 .448-1 1 0 .552.448 1 1 1"/></g></svg>
