<svg xmlns="http://www.w3.org/2000/svg" width="189" height="110" viewBox="0 0 189 179">
  <g fill="none" fill-rule="evenodd">
    <path fill="#FFFFFF" fill-rule="nonzero" d="M110.160166,47.6956996 L160.160166,47.6956996 C165.683013,47.6956996 170.160166,52.1728521 170.160166,57.6956996 L170.160166,117.6957 C170.160166,123.218547 165.683013,127.6957 160.160166,127.6957 L110.160166,127.6957 C104.637318,127.6957 100.160166,123.218547 100.160166,117.6957 L100.160166,57.6956996 C100.160166,52.1728521 104.637318,47.6956996 110.160166,47.6956996 Z" transform="rotate(10 135.16 87.696)"/>
    <path fill="#EEEEEE" fill-rule="nonzero" d="M110.160166,51.6956996 C106.846457,51.6956996 104.160166,54.3819911 104.160166,57.6956996 L104.160166,117.6957 C104.160166,121.009408 106.846457,123.6957 110.160166,123.6957 L160.160166,123.6957 C163.473874,123.6957 166.160166,121.009408 166.160166,117.6957 L166.160166,57.6956996 C166.160166,54.3819911 163.473874,51.6956996 160.160166,51.6956996 L110.160166,51.6956996 Z M110.160166,47.6956996 L160.160166,47.6956996 C165.683013,47.6956996 170.160166,52.1728521 170.160166,57.6956996 L170.160166,117.6957 C170.160166,123.218547 165.683013,127.6957 160.160166,127.6957 L110.160166,127.6957 C104.637318,127.6957 100.160166,123.218547 100.160166,117.6957 L100.160166,57.6956996 C100.160166,52.1728521 104.637318,47.6956996 110.160166,47.6956996 Z" transform="rotate(10 135.16 87.696)"/>
    <rect width="70" height="80" x="80" y="34" fill="#000000" fill-opacity=".03" transform="rotate(5 115 74)" rx="10"/>
    <path fill="#000000" fill-opacity=".03" fill-rule="nonzero" d="M126.028,178 L150,178 C169.972,177.457 186,161.1 186,141 C186,120.565 169.435,104 149,104 C148.007,104 147.023,104.04 146.05,104.116 C141.1,89.51 127.277,79 111,79 C105.71511,78.9924557 100.490375,80.1212986 95.68,82.31 C89.03,72.47 77.77,66 65,66 C44.565,66 28,82.565 28,103 C28,103.7 28.02,104.397 28.058,105.088 C11.944,109.088 0,123.648 0,141 C0,161.435 16.565,178 37,178 C37.324,178 37.646,177.996 37.968,177.988 L126.028,178 Z"/>
    <g transform="rotate(5 -300.07 1010.998)">
      <rect width="70" height="80" fill="#FFFFFF" rx="10"/>
      <path fill="#EEEEEE" fill-rule="nonzero" d="M10,4 C6.6862915,4 4,6.6862915 4,10 L4,70 C4,73.3137085 6.6862915,76 10,76 L60,76 C63.3137085,76 66,73.3137085 66,70 L66,10 C66,6.6862915 63.3137085,4 60,4 L10,4 Z M10,-2.68673972e-14 L60,-2.68673972e-14 C65.5228475,-2.78819278e-14 70,4.4771525 70,10 L70,70 C70,75.5228475 65.5228475,80 60,80 L10,80 C4.4771525,80 9.15550472e-14,75.5228475 9.08786935e-14,70 L9.08786935e-14,10 C9.02023397e-14,4.4771525 4.4771525,-2.58528666e-14 10,-2.68673972e-14 Z"/>
      <rect width="8" height="4" x="14" y="18" fill="#FC6D26" rx="2"/>
      <rect width="8" height="4" x="32" y="38" fill="#E1DBF1" rx="2"/>
      <rect width="8" height="4" x="45" y="48" fill="#FEE1D3" rx="2"/>
      <rect width="8" height="4" x="44" y="38" fill="#FEF0E8" rx="2"/>
      <rect width="12" height="4" x="26" y="18" fill="#EFEDF8" rx="2"/>
      <rect width="6" height="4" x="15" y="48" fill="#FEF0E8" rx="2"/>
      <rect width="6" height="4" x="25" y="48" fill="#FC6D26" rx="2"/>
      <rect width="6" height="4" x="35" y="48" fill="#EEEEEE" rx="2"/>
      <rect width="12" height="4" x="14" y="28" fill="#EEEEEE" rx="2"/>
      <rect width="12" height="4" x="44" y="58" fill="#6B4FBB" rx="2"/>
      <rect width="26" height="4" x="30" y="28" fill="#C3B8E3" rx="2"/>
      <rect width="26" height="4" x="15" y="58" fill="#FEE1D3" rx="2"/>
      <rect width="14" height="4" x="42" y="18" fill="#E1DBF1" rx="2"/>
      <rect width="14" height="4" x="14" y="38" fill="#6B4FBB" rx="2"/>
    </g>
    <g transform="translate(3 67)">
      <path fill="#FFFFFF" fill-rule="nonzero" d="M126.028,112 L150,112 C169.972,111.457 186,95.1 186,75 C186,54.565 169.435,38 149,38 C148.007,38 147.023,38.04 146.05,38.116 C141.1,23.51 127.277,13 111,13 C105.71511,12.9924557 100.490375,14.1212986 95.68,16.31 C89.03,6.47 77.77,0 65,0 C44.565,0 28,16.565 28,37 C28,37.7 28.02,38.397 28.058,39.088 C11.944,43.088 0,57.648 0,75 C0,95.435 16.565,112 37,112 C37.324,112 37.646,111.996 37.968,111.988 L126.028,112 Z"/>
      <path fill="#FFFFFF" d="M126.028,110 L149.946,110 C168.876,109.486 184,93.976 184,75 C184,55.67 168.33,40 149,40 C148.064,40 147.133,40.037 146.207,40.11 L144.656,40.232 L144.156,38.758 C139.381,24.67 126.116,15 111,15 C106.001056,14.9926759 101.058995,16.0604828 96.509,18.131 L94.969,18.832 L94.022,17.431 C87.552,7.855 76.774,2 65,2 C45.67,2 30,17.67 30,37 C30,37.661 30.018,38.32 30.055,38.977 L30.147,40.63 L28.54,41.029 C13.06,44.87 2,58.827 2,75 C2,94.33 17.67,110 37,110 C37.306,110 37.612,109.996 37.968,109.988 L126.028,110 Z"/>
      <path fill="#EEEEEE" fill-rule="nonzero" d="M149,38 C169.434569,38 186,54.5654305 186,75 C186,95.0477955 170.024944,111.45554 149.946,112 L126.028,112 L38.0129325,111.987495 C37.6348039,111.995992 37.3157048,112 37,112 C16.5654305,112 0,95.4345695 0,75 C0,57.9772494 11.6188339,43.1669444 28.0580557,39.0879359 C28.0192558,38.39805 28,37.7022134 28,37 C28,16.5654305 44.5654305,0 65,0 C77.3556804,0 88.7905015,6.1156181 95.6789703,16.310978 C100.491636,14.1213221 105.717209,12.9922579 111,13 C126.893041,13 140.974134,23.139867 146.049999,38.1155308 C147.031471,38.0388091 148.014765,38 149,38 Z M149.891715,108.000737 C167.750695,107.515818 182,92.8805667 182,75 C182,56.7745695 167.225431,42 149,42 C148.1197,42 147.241142,42.0346799 146.363833,42.1038413 L144.812833,42.2258413 C143.900567,42.2975992 143.055957,41.7410534 142.762001,40.8744692 L142.261844,39.400007 C137.735045,26.0442906 125.175364,17 110.99707,16.9999979 C106.284902,16.9930939 101.626355,17.9996435 97.3375854,19.9512874 L95.7975854,20.6522874 C94.9091924,21.0566793 93.8586575,20.7607079 93.3120297,19.952022 L92.3648004,18.5506827 C86.2175802,9.45241684 76.0227954,4 65,4 C46.7745695,4 32,18.7745695 32,37 C32,37.6282966 32.0172077,38.249659 32.0519095,38.8658592 L32.1439095,40.5188592 C32.1972908,41.4779816 31.5612439,42.3395846 30.6289443,42.5710641 L29.0216479,42.9701376 C14.3638424,46.6071293 4,59.8177208 4,75 C4,93.2254305 18.7745695,108 37,108 C37.2837952,108 37.5733598,107.996363 37.9682725,107.988 L126.02825,108 L149.891715,108.000737 Z"/>
    </g>
    <g fill-rule="nonzero" transform="rotate(15 -315.035 277.714)">
      <path fill="#FFFFFF" d="M12.275,10.57 C13.986216,9.15630755 15.921048,8.03765363 18,7.26 L18,5.5 C18,2.463 20.47,0 23.493,0 L26.507,0 C27.9648848,0.000530018716 29.3628038,0.580386367 30.3930274,1.61192286 C31.4232511,2.64345935 32.0013267,4.04211574 32,5.5 L32,7.26 C34.098,8.043 36.03,9.17 37.725,10.57 L39.253,9.688 C41.8816141,8.17268496 45.2407537,9.07039379 46.763,11.695 L48.27,14.305 C48.9984289,15.5678669 49.1951495,17.0684426 48.8168566,18.4763972 C48.4385638,19.8843518 47.5162683,21.0842673 46.253,21.812 L44.728,22.693 C44.907,23.769 45,24.873 45,26 C45,27.127 44.907,28.231 44.728,29.307 L46.253,30.187 C48.8800379,31.705769 49.7822744,35.0642181 48.27,37.695 L46.763,40.305 C46.0335844,41.5673849 44.8323832,42.4881439 43.4238487,42.8645658 C42.0153143,43.2409877 40.5149245,43.0422119 39.253,42.312 L37.725,41.43 C36.013784,42.8436924 34.078952,43.9623464 32,44.74 L32,46.5 C32,49.537 29.53,52 26.507,52 L23.493,52 C22.0351152,51.99947 20.6371962,51.4196136 19.6069726,50.3880771 C18.5767489,49.3565406 17.9986733,47.9578843 18,46.5 L18,44.74 C15.921048,43.9623464 13.986216,42.8436924 12.275,41.43 L10.747,42.312 C8.11838594,43.827315 4.75924629,42.9296062 3.237,40.305 L1.73,37.695 C1.00157113,36.4321331 0.804850523,34.9315574 1.18314337,33.5236028 C1.56143621,32.1156482 2.48373172,30.9157327 3.747,30.188 L5.272,29.307 C5.09051204,28.2140265 4.9995366,27.107939 5,26 C5,24.873 5.093,23.769 5.272,22.693 L3.747,21.813 C1.11996213,20.294231 0.217725591,16.9357819 1.73,14.305 L3.237,11.695 C3.96641559,10.4326151 5.16761682,9.51185609 6.57615125,9.13543417 C7.98468568,8.75901226 9.48507553,8.95778814 10.747,9.688 L12.275,10.57 Z"/>
      <path fill="#E1DBF1" d="M17.9996486,7.25963195 L18.0000013,5.49772675 C18.0034459,2.46713881 20.4561478,0.00952173148 23.493,0 L26.507,0 C29.542757,0 32,2.46161709 32,5.5 L32,7.25850184 C34.0799663,8.03664754 36.0149544,9.15559094 37.7260175,10.5694605 L39.2547869,9.68691874 C41.8812087,8.17416302 45.2363972,9.06948854 46.7630175,11.6949424 L48.270687,14.3061027 C48.9989901,15.569417 49.1952874,17.0704122 48.816349,18.4785295 C48.4374106,19.8866468 47.5143145,21.0864021 46.2530682,21.8120114 L44.7278655,22.6926677 C44.9091017,23.7802451 45,24.8850821 45,26 C45,27.1144218 44.9091826,28.218078 44.7278653,29.3073326 L46.2547984,30.1889888 C48.8778516,31.7070439 49.7801588,35.0599752 48.2700175,37.6950576 L46.7625317,40.3058986 C46.0327098,41.5684739 44.8309328,42.4891542 43.4219037,42.8651509 C42.0128746,43.2411475 40.512172,43.0416186 39.2533538,42.312255 L37.7244858,41.4299789 C36.013753,42.8435912 34.0794396,43.9622923 32.0003514,44.7403681 L31.9999987,46.5022733 C31.9965541,49.5328612 29.5438522,51.9904783 26.507,52 L23.493,52 C20.457243,52 18,49.5383829 18,46.5 L18,44.7414988 C15.9200337,43.9633525 13.9850456,42.8444091 12.2739825,41.4305395 L10.7452131,42.3130813 C8.11879127,43.825837 4.76360277,42.9305115 3.23698247,40.3050576 L1.72931303,37.6938973 C1.0010099,36.430583 0.804712603,34.9295878 1.18365098,33.5214705 C1.56258936,32.1133532 2.48568546,30.9135979 3.74693178,30.1879886 L5.27213454,29.3073323 C5.09089825,28.2197549 5,27.114918 5.00000019,26.0008761 C4.99951488,24.8930059 5.0904571,23.7869854 5.27213502,22.6926675 L3.74520157,21.8110112 C1.12214836,20.2929561 0.219841192,16.9400248 1.72998247,14.3049424 L3.23746831,11.6941014 C3.96729024,10.4315261 5.16906725,9.51084579 6.5780963,9.13484913 C7.98712536,8.75885247 9.48782803,8.95838137 10.7466462,9.687745 L12.2748018,10.56961 C14.0209791,9.13635584 15.9392199,8.03072455 17.9996486,7.25963195 Z M13.7518374,14.537862 C13.108069,15.069723 12.2016163,15.1456339 11.4783538,14.728255 L8.74433999,13.1505123 C8.40103903,12.9516035 7.99274958,12.8973186 7.60940137,12.9996143 C7.22605315,13.10191 6.89909107,13.3523954 6.70101753,13.6950576 L5.19724591,16.2994454 C4.78547321,17.0179634 5.03203388,17.9341714 5.74706822,18.3479886 L8.47306822,19.9219886 C9.19530115,20.3390079 9.58295216,21.1604138 9.44574883,21.983032 L9.21798321,23.3486236 C9.07251948,24.2246212 8.99961081,25.111131 9,26 C9,26.8953847 9.0728258,27.7804297 9.21774883,28.649968 L9.44574883,30.016968 C9.58295216,30.8395862 9.19530115,31.6609921 8.47306822,32.0780114 L5.74435077,33.6535776 C5.40046982,33.851417 5.14932721,34.1778291 5.04623114,34.5609292 C4.94313508,34.9440294 4.9965408,35.3523984 5.19401753,35.6949424 L6.69795587,38.2996585 C7.11427713,39.0156351 8.03110189,39.260288 8.7470791,38.8479035 L11.4770791,37.2719035 C12.200376,36.8543519 13.1069795,36.9302031 13.7508374,37.462138 L14.8210499,38.3463136 C16.1898549,39.4774943 17.737648,40.3725891 19.3990866,40.9941596 L20.6990866,41.4791596 C21.4813437,41.7710017 22,42.5180761 22,43.353 L22,46.5 C22,47.3308348 22.6679761,48 23.493,48 L26.5007228,48.0000099 C27.328845,47.9974107 27.99906,47.3258525 28,46.5 L28,43.353 C28,42.5185702 28.5180515,41.771829 29.2996486,41.4796319 L30.599003,40.9938734 C32.261836,40.3715765 33.8093225,39.4764853 35.1790197,38.3444304 L36.2490197,37.4614304 C36.8927697,36.9301861 37.798736,36.8545694 38.5216462,37.271745 L41.25566,38.8494877 C41.598961,39.0483965 42.0072504,39.1026814 42.3905986,39.0003857 C42.7739468,38.89809 43.1009089,38.6476046 43.2989825,38.3049424 L44.8027541,35.7005546 C45.2145268,34.9820366 44.9679661,34.0658286 44.2529318,33.6520114 L41.5269318,32.0780114 C40.8046988,31.6609921 40.4170478,30.8395862 40.5542512,30.016968 L40.7821577,28.6505288 C40.9272286,27.7792134 41,26.8950523 41,26 C41,25.1046153 40.9271742,24.2195703 40.7822512,23.350032 L40.5542512,21.983032 C40.4170478,21.1604138 40.8046988,20.3390079 41.5269318,19.9219886 L44.2556492,18.3464224 C44.5995302,18.148583 44.8506728,17.8221709 44.9537689,17.4390708 C45.0568649,17.0559706 45.0034592,16.6476016 44.8059825,16.3050576 L43.3020441,13.7003415 C42.8857229,12.9843649 41.9688981,12.739712 41.2529209,13.1520965 L38.5229209,14.7280965 C37.799624,15.1456481 36.8930205,15.0697969 36.2491626,14.537862 L35.1789501,13.6536864 C33.8101451,12.5225057 32.262352,11.6274109 30.6021792,11.0063122 L29.3021792,10.5223122 C28.5192618,10.230826 28,9.48341836 28,8.648 L28,5.5 C28,4.66916515 27.3320239,4 26.507,4 L23.4992772,3.99999015 C22.671155,4.00258933 22.00094,4.67414748 22,5.5 L22,8.647 C22,9.48142977 21.4819485,10.228171 20.7003514,10.5203681 L19.400997,11.0061266 C17.738164,11.6284235 16.1906775,12.5235147 14.822142,13.6546103 C14.8121128,13.6628994 14.4553446,13.9573166 13.7518374,14.537862 Z"/>
      <g transform="rotate(15 -59.137 82.348)">
        <circle cx="8" cy="8" r="8" fill="#FFFFFF" transform="translate(.035 6.008)"/>
        <path fill="#6B4FBB" d="M7.40192379,14.7679492 C2.98364579,14.7679492 -0.598076211,11.1862272 -0.598076211,6.76794919 C-0.598076211,2.34967119 2.98364579,-1.23205081 7.40192379,-1.23205081 C11.8202018,-1.23205081 15.4019238,2.34967119 15.4019238,6.76794919 C15.4019238,11.1862272 11.8202018,14.7679492 7.40192379,14.7679492 Z M7.40192379,10.7679492 C9.61106279,10.7679492 11.4019238,8.97708819 11.4019238,6.76794919 C11.4019238,4.55881019 9.61106279,2.76794919 7.40192379,2.76794919 C5.19278479,2.76794919 3.40192379,4.55881019 3.40192379,6.76794919 C3.40192379,8.97708819 5.19278479,10.7679492 7.40192379,10.7679492 Z"/>
      </g>
    </g>
    <g fill-rule="nonzero" transform="rotate(15 -402.968 460.884)">
      <path fill="#FFFFFF" d="M9.82,8.53730769 C11.1889728,7.39547918 12.7368384,6.49195101 14.4,5.86384615 L14.4,4.44230769 C14.4,1.98934615 16.376,0 18.7944,0 L21.2056,0 C22.3719078,0.00042809204 23.4902431,0.468773604 24.314422,1.30193769 C25.1386009,2.13510179 25.6010613,3.26478579 25.6,4.44230769 L25.6,5.86384615 C27.2784,6.49626923 28.824,7.40653846 30.18,8.53730769 L31.4024,7.82492308 C33.5052912,6.60101478 36.192603,7.32608729 37.4104,9.44596154 L38.616,11.5540385 C39.1987431,12.5740464 39.3561196,13.7860498 39.0534853,14.9232439 C38.750851,16.060438 38.0130146,17.0296006 37.0024,17.6173846 L35.7824,18.3289615 C35.9256,19.1980385 36,20.0897308 36,21 C36,21.9102692 35.9256,22.8019615 35.7824,23.6710385 L37.0024,24.3818077 C39.1040303,25.6085057 39.8258195,28.3210992 38.616,30.4459615 L37.4104,32.5540385 C36.8268675,33.573657 35.8659065,34.317347 34.739079,34.6213801 C33.6122515,34.9254132 32.4119396,34.7648634 31.4024,34.1750769 L30.18,33.4626923 C28.8110272,34.6045208 27.2631616,35.508049 25.6,36.1361538 L25.6,37.5576923 C25.6,40.0106538 23.624,42 21.2056,42 L18.7944,42 C17.6280922,41.9995719 16.5097569,41.5312264 15.685578,40.6980623 C14.8613991,39.8648982 14.3989387,38.7352142 14.4,37.5576923 L14.4,36.1361538 C12.7368384,35.508049 11.1889728,34.6045208 9.82,33.4626923 L8.5976,34.1750769 C6.49470875,35.3989852 3.80739703,34.6739127 2.5896,32.5540385 L1.384,30.4459615 C0.8012569,29.4259536 0.643880418,28.2139502 0.946514692,27.0767561 C1.24914897,25.939562 1.98698538,24.9703994 2.9976,24.3826154 L4.2176,23.6710385 C4.07240963,22.7882521 3.99962928,21.8948738 4,21 C4,20.0897308 4.0744,19.1980385 4.2176,18.3289615 L2.9976,17.6181923 C0.895969702,16.3914943 0.174180473,13.6789008 1.384,11.5540385 L2.5896,9.44596154 C3.17313247,8.42634297 4.13409345,7.682653 5.260921,7.37861991 C6.38774855,7.07458682 7.58806043,7.23513658 8.5976,7.82492308 L9.82,8.53730769 Z"/>
      <path fill="#FEE1D3" d="M14.0000007,5.6038043 L14.0000013,4.44005609 C14.0029906,1.78475013 16.1390906,-0.376211234 18.7944,-0.384615385 L21.2056,-0.384615385 C23.8595941,-0.384615385 26,1.78021801 26,4.44230769 L26,5.60295806 C27.5208716,6.20655954 28.9434678,7.03621848 30.2204219,8.06411282 L31.1970056,7.49492104 C33.4941909,6.15907529 36.4301298,6.95005805 37.7609369,9.26076474 L38.9671983,11.3699991 C39.5988409,12.4761812 39.768854,13.7886936 39.4405746,15.0202941 C39.1116282,16.2543969 38.308799,17.3078735 37.2096539,17.946304 L36.2175721,18.5246428 C36.3390841,19.3401617 36.4,20.1667594 36.4,21 C36.4,21.8329668 36.339124,22.6588262 36.2175401,23.4753391 L37.2113882,24.0547082 C39.4944154,25.3886826 40.276605,28.3232105 38.9665369,30.6311583 L37.7604568,32.7400742 C37.1252608,33.8495148 36.0768547,34.6604208 34.8452776,34.9922248 C33.6111681,35.324711 32.2964469,35.1482289 31.195569,34.5042428 L30.2192355,33.9354047 C28.9426535,34.9630196 27.5206806,35.7924453 25.9999993,36.3961957 L25.9999987,37.5599439 C25.9970094,40.2152499 23.8609094,42.3762112 21.2056,42.3846154 L18.7944,42.3846154 C16.1404059,42.3846154 14,40.219782 14,37.5576923 L14,36.3970419 C12.4791284,35.7934405 11.0565322,34.9637815 9.77957815,33.9358872 L8.80299442,34.505079 C6.50580915,35.8409247 3.56987021,35.049942 2.23906313,32.7392353 L1.03280169,30.6300009 C0.401159146,29.5238188 0.231145999,28.2113064 0.559425405,26.9797059 C0.888371786,25.7456031 1.69120101,24.6921265 2.79034606,24.053696 L3.78242779,23.4753573 C3.66091587,22.6598457 3.60000002,21.8333228 3.60000019,21.0008678 C3.59964068,20.1722851 3.66061719,19.3449468 3.78254167,18.5247085 L2.78861183,17.9452918 C0.505584602,16.6113174 -0.276605002,13.6767895 1.03346313,11.3688417 L2.23954317,9.25992583 C2.87473915,8.15048519 3.92314533,7.33957919 5.15472238,7.00777521 C6.38883187,6.67528896 7.70355311,6.85177112 8.80443097,7.49575721 L9.78076186,8.06459377 C11.0573465,7.03698045 12.4793194,6.20755475 14.0000007,5.6038043 Z M11.2634746,12.0326234 C10.617233,12.5716613 9.7026973,12.6485026 8.97556903,12.2248582 L6.78774825,10.9501716 C6.60754053,10.8447551 6.39506809,10.8162338 6.19527576,10.8700606 C5.99295099,10.9245697 5.8183659,11.0596053 5.71133687,11.246543 L4.50892658,13.3490215 C4.28085652,13.7508163 4.41776119,14.2644394 4.80485394,14.4906191 L6.98565394,15.7619268 C7.70254629,16.1798426 8.08690703,16.9970357 7.95165511,17.8157512 L7.76948523,18.9184706 C7.65638664,19.6061109 7.59969735,20.3020342 7.6,21 C7.6,21.7031066 7.65662064,22.3978283 7.76925511,23.0801334 L7.95165511,24.1842488 C8.08690703,25.0029643 7.70254629,25.8201574 6.98565394,26.2380732 L4.80213007,27.5109659 C4.61772321,27.6180778 4.48116147,27.7972748 4.42448029,28.0099246 C4.36713215,28.2250767 4.39688141,28.454743 4.50573687,28.6453801 L5.70831165,30.7481858 C5.93243371,31.1373303 6.41410538,31.2670993 6.79049373,31.0482253 L8.97449373,29.7753023 C9.7016554,29.3514832 10.6163433,29.4282639 11.2626746,29.9673766 L12.1188867,30.6815536 C13.1796505,31.566598 14.3786867,32.2666727 15.6649769,32.7525215 L16.7049769,33.1442523 C17.4841581,33.4377419 18,34.1832625 18,35.0158846 L18,37.5576923 C18,38.02074 18.3597694,38.3846154 18.7944,38.3846154 L21.1992624,38.3846254 C21.6372484,38.3832375 21.9994819,38.0167881 22,37.5576923 L22,35.0158846 C22,34.18376 22.5152346,33.4385758 23.2937506,33.1447321 L24.3331012,32.7524389 C25.620867,32.2658727 26.8196661,31.5658006 27.8813806,30.679856 L28.7373806,29.9666637 C29.3836087,29.4282468 30.2976553,29.3517028 31.024431,29.7751418 L33.2122517,31.0498284 C33.3924595,31.1552449 33.6049319,31.1837662 33.8047242,31.1299394 C34.007049,31.0754303 34.1816341,30.9403947 34.2886631,30.753457 L35.4910734,28.6509785 C35.7191435,28.2491837 35.5822388,27.7355606 35.1951461,27.5093809 L33.0143461,26.2380732 C32.2974537,25.8201574 31.913093,25.0029643 32.0483449,24.1842488 L32.2306531,23.0806893 C32.3434217,22.3968737 32.4,21.7028459 32.4,21 C32.4,20.2968934 32.3433794,19.6021717 32.2307449,18.9198666 L32.0483449,17.8157512 C31.913093,16.9970357 32.2974537,16.1798426 33.0143461,15.7619268 L35.1978699,14.4890341 C35.3822768,14.3819222 35.5188385,14.2027252 35.5755197,13.9900754 C35.6328679,13.7749233 35.6031186,13.545257 35.4942631,13.3546199 L34.2916883,11.2518142 C34.0675663,10.8626697 33.5858946,10.7329007 33.2095063,10.9517747 L31.0255063,12.2246977 C30.2983446,12.6485168 29.3836567,12.5717361 28.7373254,12.0326234 L27.8811133,11.3184464 C26.8203495,10.433402 25.6213133,9.73332732 24.3362966,9.24795765 L23.2962966,8.85703457 C22.5164499,8.56389992 22,7.81804293 22,6.98492308 L22,4.44230769 C22,3.97925995 21.6402306,3.61538462 21.2056,3.61538462 L18.8007376,3.61537457 C18.3627516,3.61676247 18.0005181,3.98321188 18,4.44230769 L18,6.98411538 C18,7.81623999 17.4847654,8.56142419 16.7062494,8.85526793 L15.6668988,9.24756113 C14.379133,9.73412728 13.1803339,10.4341994 12.1197785,11.3191775 C12.1108094,11.3266617 11.8253748,11.564477 11.2634746,12.0326234 Z"/>
      <g transform="rotate(15 -47.892 66.043)">
        <ellipse cx="6.4" cy="6.462" fill="#FFFFFF" rx="6.4" ry="6.462" transform="translate(.028 4.853)"/>
        <path fill="#FC6D26" d="M5.92153903,11.9125743 C2.3834711,11.9125743 -0.478460969,9.0231237 -0.478460969,5.4664205 C-0.478460969,1.9097173 2.3834711,-0.979733345 5.92153903,-0.979733345 C9.45960696,-0.979733345 12.321539,1.9097173 12.321539,5.4664205 C12.321539,9.0231237 9.45960696,11.9125743 5.92153903,11.9125743 Z M5.92153903,8.71257435 C7.6854047,8.71257435 9.12153903,7.26263103 9.12153903,5.4664205 C9.12153903,3.67020997 7.6854047,2.22026666 5.92153903,2.22026666 C4.15767337,2.22026666 2.72153903,3.67020997 2.72153903,5.4664205 C2.72153903,7.26263103 4.15767337,8.71257435 5.92153903,8.71257435 Z"/>
      </g>
    </g>
    <path fill="#000000" fill-opacity=".03" d="M61.6792606,38.251778 C61.8904713,36.8653316 62,35.4454567 62,34 C62,18.536027 49.463973,6 34,6 C18.536027,6 6,18.536027 6,34 C6,49.463973 18.536027,62 34,62 C42.8132237,62 50.6754255,57.9281916 55.8080076,51.5631726 L64.2689981,50.6250607 C64.4699867,50.6027761 64.6664333,50.5501384 64.8516368,50.4689431 C65.8632575,50.0254374 66.3238058,48.8458244 65.8803001,47.8342037 L65.8803001,47.8342037 L61.6792599,38.2517794 Z"/>
    <path fill="#FFFFFF" d="M63.6792606,34.251778 C63.8904713,32.8653316 64,31.4454567 64,30 C64,14.536027 51.463973,2 36,2 C20.536027,2 8,14.536027 8,30 C8,45.463973 20.536027,58 36,58 C44.8132237,58 52.6754255,53.9281916 57.8080076,47.5631726 L66.2689981,46.6250607 C66.4699867,46.6027761 66.6664333,46.5501384 66.8516368,46.4689431 C67.8632575,46.0254374 68.3238058,44.8458244 67.8803001,43.8342037 L67.8803001,43.8342037 L63.6792599,34.2517794 Z"/>
    <path fill="#EEEEEE" fill-rule="nonzero" d="M69.7120015,43.0311656 C70.5990128,45.0544071 69.6779163,47.4136331 67.6546748,48.3006445 C67.2842678,48.463035 66.8913746,48.5683104 66.4893975,48.6128796 L58.8313193,49.4619687 C53.1777737,56.0908093 44.9077957,60 36,60 C19.4314575,60 6,46.5685425 6,30 C6,13.4314575 19.4314575,0 36,0 C52.5685425,0 66,13.4314575 66,30 C66,31.335699 65.9125851,32.6609639 65.739427,33.9698636 L69.7120015,43.0311656 Z M61.7020717,33.9505738 C61.8999153,32.6518726 62,31.332589 62,30 C62,15.6405965 50.3594035,4 36,4 C21.6405965,4 10,15.6405965 10,30 C10,44.3594035 21.6405965,56 36,56 C43.969518,56 51.3430155,52.3943837 56.251122,46.3077415 L56.7684631,45.6661764 L66.0485988,44.6372417 L61.8475593,35.054816 L61.6147491,34.5237842 L61.7020717,33.9505738 Z"/>
    <g fill="#31AF64" fill-rule="nonzero" transform="translate(24 18)">
      <path d="M12.5,26.5 C4.7680135,26.5 -1.5,20.2319865 -1.5,12.5 C-1.5,4.7680135 4.7680135,-1.5 12.5,-1.5 C20.2319865,-1.5 26.5,4.7680135 26.5,12.5 C26.5,20.2319865 20.2319865,26.5 12.5,26.5 Z M12.5,23.5 C18.5751322,23.5 23.5,18.5751322 23.5,12.5 C23.5,6.42486775 18.5751322,1.5 12.5,1.5 C6.42486775,1.5 1.5,6.42486775 1.5,12.5 C1.5,18.5751322 6.42486775,23.5 12.5,23.5 Z"/>
      <path d="M11.18,13.81 L9.248,11.878 C8.67483243,11.3054203 7.74616757,11.3054203 7.173,11.878 C6.89709997,12.1525667 6.74198837,12.5257601 6.74198837,12.915 C6.74198837,13.3042399 6.89709997,13.6774333 7.173,13.952 L10.048,16.826 C10.0636337,16.8423622 10.0796378,16.8583663 10.096,16.874 C10.646,17.424 11.526,17.423 12.071,16.879 L17.879,11.071 C18.1403709,10.8085057 18.2866977,10.4528922 18.2857599,10.0824639 C18.2848221,9.71203558 18.1366966,9.35716757 17.874,9.096 C17.6132271,8.83256594 17.2582132,8.68392968 16.8875393,8.68299126 C16.5168653,8.68205285 16.1611034,8.82888967 15.899,9.091 L11.18,13.81 Z"/>
    </g>
  </g>
</svg>
