<svg xmlns="http://www.w3.org/2000/svg" width="40" height="40" viewBox="0 0 40 40" xmlns:xlink="http://www.w3.org/1999/xlink"><defs><circle id="a" cx="4" cy="4" r="4"/><mask id="d" width="8" height="8" x="0" y="0" fill="#fff"><use xlink:href="#a"/></mask><circle id="b" cx="20" cy="4" r="4"/><mask id="e" width="8" height="8" x="0" y="0" fill="#fff"><use xlink:href="#b"/></mask><circle id="c" cx="12" cy="30" r="4"/><mask id="f" width="8" height="8" x="0" y="0" fill="#fff"><use xlink:href="#c"/></mask></defs><g fill="none" fill-rule="evenodd" transform="translate(8 3)"><path fill="#7E7E7E" d="M10 19.667c-4.14-1.29-7.389-5.878-7.389-5.878C2.274 13.353 2 12.545 2 12.01V6h4v5.509c0 .276.166.65.367.831 0 0 1.136 1.028 1.746 1.574C9.617 15.261 11.048 16 12.09 16c1.028 0 2.41-.723 3.858-2.048.588-.54 1.84-1.742 1.84-1.742a.784.784 0 0 0 .211-.502V6h4v6.008c0 .548-.259 1.349-.601 1.795 0 0-3.21 4.707-7.399 5.916V27h-4v-7.333z"/><use stroke="#7E7E7E" stroke-width="4" mask="url(#d)" xlink:href="#a"/><use stroke="#7E7E7E" stroke-width="4" mask="url(#e)" xlink:href="#b"/><use stroke="#7E7E7E" stroke-width="4" mask="url(#f)" xlink:href="#c"/></g></svg>