<svg version="1.1" xmlns="http://www.w3.org/2000/svg" xmlns:xlink="http://www.w3.org/1999/xlink" width="14" height="14" viewBox="0 0 14 14">
<path d="M13 12.75v-8.5q0-0.102-0.074-0.176t-0.176-0.074h-8.5q-0.102 0-0.176 0.074t-0.074 0.176v8.5q0 0.102 0.074 0.176t0.176 0.074h8.5q0.102 0 0.176-0.074t0.074-0.176zM14 4.25v8.5q0 0.516-0.367 0.883t-0.883 0.367h-8.5q-0.516 0-0.883-0.367t-0.367-0.883v-8.5q0-0.516 0.367-0.883t0.883-0.367h8.5q0.516 0 0.883 0.367t0.367 0.883zM11 1.25v1.25h-1v-1.25q0-0.102-0.074-0.176t-0.176-0.074h-8.5q-0.102 0-0.176 0.074t-0.074 0.176v8.5q0 0.102 0.074 0.176t0.176 0.074h1.25v1h-1.25q-0.516 0-0.883-0.367t-0.367-0.883v-8.5q0-0.516 0.367-0.883t0.883-0.367h8.5q0.516 0 0.883 0.367t0.367 0.883z"></path>
</svg>
