<svg width="22" height="22" viewBox="0 0 22 22" xmlns="http://www.w3.org/2000/svg"><path d="M14.072 11.063l-2.82 2.82a.46.46 0 0 0-.001.652l.495.495a.457.457 0 0 0 .653-.001l3.7-3.7a.46.46 0 0 0 .001-.653l-.196-.196a.453.453 0 0 0-.03-.033l-3.479-3.479a.464.464 0 0 0-.654.007l-.548.548a.463.463 0 0 0-.007.654l2.886 2.886z"/><path d="M10.08 11.063l-2.819 2.82a.46.46 0 0 0-.002.652l.496.495a.457.457 0 0 0 .652-.001l3.7-3.7a.46.46 0 0 0 .002-.653l-.196-.196a.453.453 0 0 0-.03-.033l-3.48-3.479a.464.464 0 0 0-.653.007l-.548.548a.463.463 0 0 0-.007.654l2.886 2.886z"/></svg>
