<svg xmlns="http://www.w3.org/2000/svg" width="78" height="82" viewBox="0 0 78 82"><g fill="none" fill-rule="evenodd"><path fill="#F9F9F9" d="M2.12 42c-.08.99-.12 1.99-.12 3 0 20.435 16.565 37 37 37s37-16.565 37-37c0-1.01-.04-2.01-.12-3C74.353 61.032 58.425 76 39 76 19.575 76 3.647 61.032 2.12 42z"/><path fill="#EEE" fill-rule="nonzero" d="M39 78C17.46 78 0 60.54 0 39S17.46 0 39 0s39 17.46 39 39-17.46 39-39 39zm0-4c19.33 0 35-15.67 35-35S58.33 4 39 4 4 19.67 4 39s15.67 35 35 35z"/><g transform="translate(12 25)"><path fill="#E1DBF2" d="M3 0h10a3 3 0 0 1 3 3v22a3 3 0 0 1-3 3H3a3 3 0 0 1-3-3V3a3 3 0 0 1 3-3zm1 4v20h8V4H4zm2 2h4a1 1 0 0 1 1 1v2a1 1 0 0 1-1 1H6a1 1 0 0 1-1-1V7a1 1 0 0 1 1-1z"/><rect width="6" height="4" x="5" y="12" fill="#6B4FBB" rx="1"/></g><g transform="translate(50 25)"><rect width="6" height="4" x="5" y="6" fill="#6B4FBB" rx="1"/><path fill="#E1DBF2" fill-rule="nonzero" d="M3 0h10a3 3 0 0 1 3 3v22a3 3 0 0 1-3 3H3a3 3 0 0 1-3-3V3a3 3 0 0 1 3-3zm1 4v20h8V4H4zm2 8h4a1 1 0 0 1 1 1v2a1 1 0 0 1-1 1H6a1 1 0 0 1-1-1v-2a1 1 0 0 1 1-1z"/></g><path fill="#E1DBF2" d="M34 25h10a3 3 0 0 1 3 3v28a3 3 0 0 1-3 3H34a3 3 0 0 1-3-3V28a3 3 0 0 1 3-3zm1 4v26h8V29h-8zm2 8h4a1 1 0 0 1 1 1v2a1 1 0 0 1-1 1h-4a1 1 0 0 1-1-1v-2a1 1 0 0 1 1-1z"/><path fill="#6B4FBB" d="M37 43h4a1 1 0 0 1 1 1v2a1 1 0 0 1-1 1h-4a1 1 0 0 1-1-1v-2a1 1 0 0 1 1-1zm0-12h4a1 1 0 0 1 1 1v2a1 1 0 0 1-1 1h-4a1 1 0 0 1-1-1v-2a1 1 0 0 1 1-1z"/></g></svg>