<svg xmlns="http://www.w3.org/2000/svg" width="14" height="14" viewBox="0 0 14 14"><g fill-rule="evenodd"><path d="M12.5,7 C12.5,3.96243388 10.0375661,1.5 7,1.5 C3.96243388,1.5 1.5,3.96243388 1.5,7 C1.5,10.0375661 3.96243388,12.5 7,12.5 C10.0375661,12.5 12.5,10.0375661 12.5,7 Z M0,7 C0,3.13400675 3.13400675,0 7,0 C10.8659932,0 14,3.13400675 14,7 C14,10.8659932 10.8659932,14 7,14 C3.13400675,14 0,10.8659932 0,7 Z"/><path d="M7.72916667,6.27083333 L7.72916667,4.28939247 C7.72916667,4.12531853 7.59703895,4 7.43405116,4 L6.56594884,4 C6.40541585,4 6.27083333,4.12956542 6.27083333,4.28939247 L6.27083333,6.27083333 L4.28939247,6.27083333 C4.12531853,6.27083333 4,6.40296105 4,6.56594884 L4,7.43405116 C4,7.59458415 4.12956542,7.72916667 4.28939247,7.72916667 L6.27083333,7.72916667 L6.27083333,9.71060753 C6.27083333,9.87468147 6.40296105,10 6.56594884,10 L7.43405116,10 C7.59458415,10 7.72916667,9.87043458 7.72916667,9.71060753 L7.72916667,7.72916667 L9.71060753,7.72916667 C9.87468147,7.72916667 10,7.59703895 10,7.43405116 L10,6.56594884 C10,6.40541585 9.87043458,6.27083333 9.71060753,6.27083333 L7.72916667,6.27083333 Z" transform="rotate(-45 7 7)"/></g></svg>
