<svg xmlns="http://www.w3.org/2000/svg" width="62" height="50" viewBox="260 141 62 50" xmlns:xlink="http://www.w3.org/1999/xlink"><defs><path id="a" d="M24.6 7.7H56c3.3 0 6 2.7 6 6V44c0 3.3-2.7 6-6 6H6c-3.3 0-6-2.7-6-6V4.8C0 2 2.2 0 4.8 0h12c1.5 0 3 1 4 2l3.8 5.7z"/><mask id="e" width="62" height="50" x="0" y="0" fill="#fff"><use xlink:href="#a"/></mask><path id="b" d="M4.2 13c3.7 0 4-1.7 4-4.5S7 4.8 4.2 4.8 0 5.8 0 8.5C0 11.3.5 13 4.2 13z"/><mask id="f" width="10.7" height="10.7" x="-1.2" y="-1.2"><path fill="#fff" d="M-1.2 3.6H9.5v10.7H-1.2z"/><use xlink:href="#b"/></mask><path id="c" d="M4.2 13c3.7 0 4-1.7 4-4.5S7 4.8 4.2 4.8 0 5.8 0 8.5C0 11.3.5 13 4.2 13z"/><mask id="g" width="10.7" height="10.7" x="-1.2" y="-1.2"><path fill="#fff" d="M-1.2 3.6H9.5v10.7H-1.2z"/><use xlink:href="#c"/></mask><path id="d" d="M5.4 16c4.7 0 5.3-2.3 5.3-6 0-3.5-1.7-4.6-5.3-4.6C1.7 5.4 0 6.4 0 10s.6 6 5.4 6z"/><mask id="h" width="13.1" height="13.1" x="-1.2" y="-1.2"><path fill="#fff" d="M-1.2 4.2h13v13H-1z"/><use xlink:href="#d"/></mask></defs><g fill="none" fill-rule="evenodd" transform="translate(260 141)"><use fill="#FFF" stroke="#EEE" stroke-width="4.8" mask="url(#e)" xlink:href="#a"/><g transform="translate(33.98 22.62)"><use fill="#B5A7DD" xlink:href="#b"/><use stroke="#FFF" stroke-width="2.4" mask="url(#f)" xlink:href="#b"/><ellipse cx="4.2" cy="3" fill="#B5A7DD" stroke="#FFF" stroke-width="1.2" rx="3" ry="3"/></g><g transform="translate(19.673 22.62)"><use fill="#B5A7DD" xlink:href="#c"/><use stroke="#FFF" stroke-width="2.4" mask="url(#g)" xlink:href="#c"/><ellipse cx="4.2" cy="3" fill="#B5A7DD" stroke="#FFF" stroke-width="1.2" rx="3" ry="3"/></g><g transform="translate(25.635 21.43)"><use fill="#B5A7DD" xlink:href="#d"/><use stroke="#FFF" stroke-width="2.4" mask="url(#h)" xlink:href="#d"/><ellipse cx="5.4" cy="3.6" fill="#B5A7DD" stroke="#FFF" stroke-width="1.2" rx="3.6" ry="3.6"/></g></g></svg>
