<svg width="30px" height="30px" viewBox="0 0 30 30" xmlns="http://www.w3.org/2000/svg"><path d="M19.25,14.9765625 C19.25,14.1380166 19.0234398,13.3697952 18.5703125,12.671875 L12.6796875,18.5546875 C13.3932327,19.0182315 14.1666625,19.25 15,19.25 C15.5781279,19.25 16.1289036,19.1367199 16.6523438,18.9101562 C17.1757839,18.6835926 17.6276023,18.3802102 18.0078125,18 C18.3880227,17.6197898 18.690103,17.1653672 18.9140625,16.6367188 C19.138022,16.1080703 19.25,15.5546904 19.25,14.9765625 Z M11.4453125,17.3125 L17.34375,11.421875 C16.6406215,10.9479143 15.8593793,10.7109375 15,10.7109375 C14.2291628,10.7109375 13.5182324,10.9010398 12.8671875,11.28125 C12.2161426,11.6614602 11.7005227,12.1796842 11.3203125,12.8359375 C10.9401023,13.4921908 10.75,14.2057253 10.75,14.9765625 C10.75,15.8203167 10.9817685,16.5989548 11.4453125,17.3125 Z M21,14.9765625 C21,15.7942749 20.8411474,16.5755171 20.5234375,17.3203125 C20.2057276,18.0651079 19.7799506,18.7057265 19.2460938,19.2421875 C18.7122369,19.7786485 18.0742225,20.2057276 17.3320312,20.5234375 C16.58984,20.8411474 15.8125041,21 15,21 C14.1874959,21 13.41016,20.8411474 12.6679688,20.5234375 C11.9257775,20.2057276 11.2877631,19.7786485 10.7539062,19.2421875 C10.2200494,18.7057265 9.79427242,18.0651079 9.4765625,17.3203125 C9.15885258,16.5755171 9,15.7942749 9,14.9765625 C9,14.1588501 9.15885258,13.37891 9.4765625,12.6367188 C9.79427242,11.8945275 10.2200494,11.255211 10.7539062,10.71875 C11.2877631,10.182289 11.9257775,9.75520992 12.6679688,9.4375 C13.41016,9.11979008 14.1874959,8.9609375 15,8.9609375 C15.8125041,8.9609375 16.58984,9.11979008 17.3320312,9.4375 C18.0742225,9.75520992 18.7122369,10.182289 19.2460938,10.71875 C19.7799506,11.255211 20.2057276,11.8945275 20.5234375,12.6367188 C20.8411474,13.37891 21,14.1588501 21,14.9765625 Z"></path></svg>
