<svg xmlns="http://www.w3.org/2000/svg" width="22" height="22"><path d="M12.822 11.29c.816-.58 1.42-1.348 1.683-2.322.603-2.243-.973-4.553-3.53-4.553-1.15 0-2.085.41-2.775 1.09-.42.412-.672.834-.8 1.166a1.18 1.18 0 0 0 2.2.85c.016-.043.1-.184.252-.334.264-.26.613-.412 1.123-.412.938 0 1.47.78 1.254 1.584-.108.39-.37.726-.776 1.012a3.25 3.25 0 0 1-.945.47 1.18 1.18 0 0 0-.874 1.137v2.234a1.18 1.18 0 1 0 2.358 0v-1.43a5.9 5.9 0 0 0 .827-.49z"/><ellipse cx="10.825" cy="16.711" rx="1.275" ry="1.322"/></svg>
