<svg width="14" height="14" viewBox="0 0 14 14" xmlns="http://www.w3.org/2000/svg"><g fill-rule="evenodd"><path d="M0 7a7 7 0 1 1 14 0A7 7 0 0 1 0 7z"/><path d="M13 7A6 6 0 1 0 1 7a6 6 0 0 0 12 0z" fill="#FFF"/><path d="M10.5 7.63V6.37l-.787-.13c-.044-.175-.132-.349-.263-.61l.481-.652-.918-.913-.657.478a2.346 2.346 0 0 0-.612-.26L7.656 3.5H6.388l-.132.783c-.219.043-.394.13-.612.26l-.657-.478-.918.913.437.652c-.131.218-.175.392-.262.61l-.744.086v1.261l.787.13c.044.218.132.392.263.61l-.438.651.92.913.655-.434c.175.086.394.173.613.26l.131.783h1.313l.131-.783c.219-.043.394-.13.613-.26l.656.478.918-.913-.48-.652c.13-.218.218-.435.262-.61l.656-.13zM7 8.283a1.285 1.285 0 0 1-1.313-1.305c0-.739.57-1.304 1.313-1.304.744 0 1.313.565 1.313 1.304 0 .74-.57 1.305-1.313 1.305z"/></g></svg>
