<svg xmlns="http://www.w3.org/2000/svg" width="14" height="14" viewBox="0 0 14 14"><g fill-rule="evenodd"><path d="M12.5,7 C12.5,3.96243388 10.0375661,1.5 7,1.5 C3.96243388,1.5 1.5,3.96243388 1.5,7 C1.5,10.0375661 3.96243388,12.5 7,12.5 C10.0375661,12.5 12.5,10.0375661 12.5,7 Z M0,7 C0,3.13400675 3.13400675,0 7,0 C10.8659932,0 14,3.13400675 14,7 C14,10.8659932 10.8659932,14 7,14 C3.13400675,14 0,10.8659932 0,7 Z"/><path d="M7.29166667,7.875 L5.54840803,7.875 C5.38293028,7.875 5.25,8.00712771 5.25,8.17011551 L5.25,9.03821782 C5.25,9.19875081 5.38360183,9.33333333 5.54840803,9.33333333 L8.24853534,9.33333333 C8.52035522,9.33333333 8.75,9.11228506 8.75,8.83960819 L8.75,8.46475969 L8.75,4.07392947 C8.75,3.92144267 8.61787229,3.79166667 8.45488449,3.79166667 L7.58678218,3.79166667 C7.42624919,3.79166667 7.29166667,3.91804003 7.29166667,4.07392947 L7.29166667,7.875 Z" transform="rotate(45 7 6.563)"/></g></svg>
