<svg width="30px" height="30px" viewBox="0 0 30 30" xmlns="http://www.w3.org/2000/svg"><path d="M20.6114971,16.0821413 C20.6114971,16.106323 20.6090789,16.1232499 20.6042426,16.1329226 C20.2947172,17.42906 19.6466582,18.4797378 18.6600462,19.2849873 C17.6734341,20.0902369 16.5175677,20.4928556 15.1924122,20.4928556 C14.4863075,20.4928556 13.8031856,20.3598584 13.1430261,20.0938601 C12.4828665,19.8278617 11.8940517,19.4482152 11.376564,18.9549092 L10.4407381,19.8907351 C10.3488478,19.9826254 10.2400319,20.0285699 10.1142872,20.0285699 C9.98854256,20.0285699 9.87972669,19.9826254 9.78783635,19.8907351 C9.69594601,19.7988447 9.65000153,19.6900289 9.65000153,19.5642842 L9.65000153,16.3142842 C9.65000153,16.1885395 9.69594601,16.0797236 9.78783635,15.9878333 C9.87972669,15.895943 9.98854256,15.8499985 10.1142872,15.8499985 L13.3642872,15.8499985 C13.4900319,15.8499985 13.5988478,15.895943 13.6907381,15.9878333 C13.7826285,16.0797236 13.828573,16.1885395 13.828573,16.3142842 C13.828573,16.4400289 13.7826285,16.5488447 13.6907381,16.6407351 L12.6968765,17.6345967 C13.0402562,17.9537947 13.4295752,18.200444 13.8648453,18.374552 C14.3001153,18.5486601 14.7523057,18.6357128 15.2214301,18.6357128 C15.8694988,18.6357128 16.4740315,18.4785343 17.0350462,18.1641726 C17.5960609,17.8498109 18.0458332,17.4169655 18.3843765,16.8656235 C18.4375762,16.7834058 18.5657371,16.5004845 18.7688631,16.0168512 C18.8075538,15.9056155 18.8800977,15.8499985 18.9864971,15.8499985 L20.3793542,15.8499985 C20.4422265,15.8499985 20.4966345,15.8729707 20.5425797,15.9189159 C20.5885248,15.9648611 20.6114971,16.019269 20.6114971,16.0821413 Z M20.7928587,10.2785699 L20.7928587,13.5285699 C20.7928587,13.6543146 20.7469142,13.7631305 20.6550238,13.8550208 C20.5631335,13.9469111 20.4543176,13.9928556 20.328573,13.9928556 L17.078573,13.9928556 C16.9528283,13.9928556 16.8440124,13.9469111 16.7521221,13.8550208 C16.6602317,13.7631305 16.6142872,13.6543146 16.6142872,13.5285699 C16.6142872,13.4028252 16.6602317,13.2940094 16.7521221,13.202119 L17.7532381,12.2010029 C17.0374607,11.5384252 16.1935332,11.2071413 15.2214301,11.2071413 C14.5733614,11.2071413 13.9688287,11.3643198 13.407814,11.6786815 C12.8467993,11.9930432 12.397027,12.4258886 12.0584837,12.9772306 C12.005284,13.0594483 11.8771231,13.3423696 11.6739971,13.8260029 C11.6353064,13.9372386 11.5627625,13.9928556 11.4563631,13.9928556 L10.0127247,13.9928556 C9.9498524,13.9928556 9.89544446,13.9698834 9.84949929,13.9239382 C9.80355412,13.877993 9.78058188,13.8235851 9.78058188,13.7607128 L9.78058188,13.7099315 C10.0949436,12.4137941 10.7478388,11.3631163 11.7392872,10.5578668 C12.7307356,9.75261722 13.8914383,9.34999847 15.2214301,9.34999847 C15.9275348,9.34999847 16.6142839,9.48420472 17.281698,9.75262124 C17.949112,10.0210378 18.541554,10.3994752 19.0590417,10.8879449 L20.0021221,9.95211901 C20.0940124,9.86022867 20.2028283,9.81428419 20.328573,9.81428419 C20.4543176,9.81428419 20.5631335,9.86022867 20.6550238,9.95211901 C20.7469142,10.0440094 20.7928587,10.1528252 20.7928587,10.2785699 Z"></path></svg>
