<svg width="46px" height="54px" viewBox="227 0 46 54" version="1.1" xmlns="http://www.w3.org/2000/svg" xmlns:xlink="http://www.w3.org/1999/xlink">
    <!-- Generator: Sketch 41 (35326) - http://www.bohemiancoding.com/sketch -->
    <desc>Created with Sketch.</desc>
    <defs>
        <rect id="path-1" x="0" y="20" width="46" height="34" rx="8"></rect>
        <mask id="mask-2" maskContentUnits="userSpaceOnUse" maskUnits="objectBoundingBox" x="0" y="0" width="46" height="34" fill="white">
            <use xlink:href="#path-1"></use>
        </mask>
        <path d="M29,16 C29,8.2680135 22.7319865,2 15,2 C7.2680135,2 1,8.2680135 1,16" id="path-3"></path>
        <mask id="mask-4" maskContentUnits="userSpaceOnUse" maskUnits="objectBoundingBox" x="0" y="0" width="28" height="14" fill="white">
            <use xlink:href="#path-3"></use>
        </mask>
    </defs>
    <g id="locker" stroke="none" stroke-width="1" fill="none" fill-rule="evenodd" transform="translate(227.000000, 0.000000)">
        <g id="Group-8">
            <use id="Rectangle-14" stroke="#B5A7DD" mask="url(#mask-2)" stroke-width="6" xlink:href="#path-1"></use>
            <g id="Group-7" transform="translate(8.000000, 0.000000)">
                <use id="Oval-3" stroke="#B5A7DD" mask="url(#mask-4)" stroke-width="6" xlink:href="#path-3"></use>
                <rect id="Rectangle-13" fill="#B5A7DD" x="1" y="16" width="3" height="6"></rect>
                <rect id="Rectangle-13-Copy" fill="#B5A7DD" x="26" y="16" width="3" height="6"></rect>
            </g>
            <path d="M25,37.4648712 C26.1956027,36.7732524 27,35.4805647 27,34 C27,31.790861 25.209139,30 23,30 C20.790861,30 19,31.790861 19,34 C19,35.4805647 19.8043973,36.7732524 21,37.4648712 L21,41.0026083 C21,42.1041422 21.8954305,43 23,43 C24.1122704,43 25,42.1057373 25,41.0026083 L25,37.4648712 Z" id="Combined-Shape" fill="#6B4FBB"></path>
        </g>
    </g>
</svg>
