<svg width="22px" height="22px" viewBox="0 0 22 22" version="1.1" xmlns="http://www.w3.org/2000/svg"><path d="M12.1458333,9.85416667 L12.1458333,6.74047388 C12.1458333,6.4826434 11.9382041,6.28571429 11.6820804,6.28571429 L10.3179196,6.28571429 C10.0656535,6.28571429 9.85416667,6.48931709 9.85416667,6.74047388 L9.85416667,9.85416667 L6.74047388,9.85416667 C6.4826434,9.85416667 6.28571429,10.0617959 6.28571429,10.3179196 L6.28571429,11.6820804 C6.28571429,11.9343465 6.48931709,12.1458333 6.74047388,12.1458333 L9.85416667,12.1458333 L9.85416667,15.2595261 C9.85416667,15.5173566 10.0617959,15.7142857 10.3179196,15.7142857 L11.6820804,15.7142857 C11.9343465,15.7142857 12.1458333,15.5106829 12.1458333,15.2595261 L12.1458333,12.1458333 L15.2595261,12.1458333 C15.5173566,12.1458333 15.7142857,11.9382041 15.7142857,11.6820804 L15.7142857,10.3179196 C15.7142857,10.0656535 15.5106829,9.85416667 15.2595261,9.85416667 L12.1458333,9.85416667 Z" id="Combined-Shape" transform="translate(11.000000, 11.000000) rotate(-45.000000) translate(-11.000000, -11.000000) "></path></svg>
