<svg xmlns="http://www.w3.org/2000/svg" width="16" height="16" viewBox="0 0 16 16"><path d="M13.618 2.62L1.62 14.619a1 1 0 0 1-.985-1.668l1.525-1.526C1.516 10.742.926 9.927.393 8.981a2 2 0 0 1 0-1.962C2.253 3.716 4.816 2 8 2c1.074 0 2.076.195 3.006.58l.944-.944a1 1 0 0 1 1.668.985zM8.068 11a3 3 0 0 0 2.931-2.932l-2.931 2.931zm-3.02-2.462a3 3 0 0 1 3.49-3.49l.884-.884A6.044 6.044 0 0 0 8 4C5.59 4 3.662 5.29 2.136 8c.445.79.924 1.46 1.439 2.011l1.473-1.473zm.421 5.06l1.658-1.658c.283.04.575.06.873.06 2.41 0 4.338-1.29 5.864-4a11.023 11.023 0 0 0-1.133-1.664l1.418-1.418a12.799 12.799 0 0 1 1.458 2.1 2 2 0 0 1 0 1.963C13.747 12.284 11.184 14 8 14a7.883 7.883 0 0 1-2.53-.402z"/></svg>

