<svg width="14px" class="stage-empty" height="14px" viewBox="0 0 14 14" version="1.1" xmlns="http://www.w3.org/2000/svg" xmlns:xlink="http://www.w3.org/1999/xlink">
    <g id="Page-1" stroke="none" stroke-width="1" fill="none" fill-rule="evenodd">
        <g id="_icon_status_created" fill="#000000">
            <path d="M12.5,7 C12.5,4 10,1.5 7,1.5 C4,1.5 1.5,4 1.5,7 C1.5,10 4,12.5 7,12.5 C10,12.5 12.5,10 12.5,7 L12.5,7 L12.5,7 Z M0,7 C0,3.1 3.1,0 7,0 C10.9,0 14,3.1 14,7 C14,10.9 10.9,14 7,14 C3.1,14 0,10.9 0,7 L0,7 L0,7 Z" id="Shape"></path>
        </g>
    </g>
</svg>
