<svg width="22px" height="22px" viewBox="0 0 22 22" version="1.1" xmlns="http://www.w3.org/2000/svg"><path d="M7.38571429,8.32857143 C7.38571429,8.01428571 7.54285714,7.85714286 7.85714286,7.85714286 L9.27142857,7.85714286 C9.58571429,7.85714286 9.74285714,8.01428571 9.74285714,8.32857143 L9.74285714,13.6714286 C9.74285714,13.9857143 9.58571429,14.1428571 9.27142857,14.1428571 L7.85714286,14.1428571 C7.54285714,14.1428571 7.38571429,13.9857143 7.38571429,13.6714286 L7.38571429,8.32857143 M12.1,8.32857143 C12.1,8.01428571 12.2571429,7.85714286 12.5714286,7.85714286 L13.9857143,7.85714286 C14.3,7.85714286 14.4571429,8.01428571 14.4571429,8.32857143 L14.4571429,13.6714286 C14.4571429,13.9857143 14.3,14.1428571 13.9857143,14.1428571 L12.5714286,14.1428571 C12.2571429,14.1428571 12.1,13.9857143 12.1,13.6714286 L12.1,8.32857143" id="Shape"></path></svg>
