<svg xmlns="http://www.w3.org/2000/svg" width="14" height="14" viewBox="0 0 14 14" xmlns:xlink="http://www.w3.org/1999/xlink">
  <defs>
    <circle id="a" cx="7" cy="7" r="7"/>
    <mask id="b" width="14" height="14" x="0" y="0" fill="white">
      <use xlink:href="#a"/>
    </mask>
  </defs>
  <g fill="none" fill-rule="evenodd">
    <use stroke="#D22852" stroke-width="2" mask="url(#b)" xlink:href="#a"/>
    <path fill="#D22852" d="M7.5,6.5 L7.5,4.30578971 C7.5,4.12531853 7.36809219,4 7.20537567,4 L6.79462433,4 C6.63904572,4 6.5,4.13690672 6.5,4.30578971 L6.5,6.5 L4.30578971,6.5 C4.12531853,6.5 4,6.63190781 4,6.79462433 L4,7.20537567 C4,7.36095428 4.13690672,7.5 4.30578971,7.5 L6.5,7.5 L6.5,9.69421029 C6.5,9.87468147 6.63190781,10 6.79462433,10 L7.20537567,10 C7.36095428,10 7.5,9.86309328 7.5,9.69421029 L7.5,7.5 L9.69421029,7.5 C9.87468147,7.5 10,7.36809219 10,7.20537567 L10,6.79462433 C10,6.63904572 9.86309328,6.5 9.69421029,6.5 L7.5,6.5 Z" transform="rotate(45 7 7)"/>
  </g>
</svg>
