<svg width="22px" height="22px" viewBox="0 0 22 22" version="1.1" xmlns="http://www.w3.org/2000/svg"><path d="M12.0846,12.1 L10.6623,13.5223 C10.2454306,13.9539168 10.2513924,14.6399933 10.6756996,15.0643004 C11.1000067,15.4886076 11.7860832,15.4945694 12.2177,15.0777 L15.1261,12.1693 C15.7708612,11.5230891 15.7708612,10.4769109 15.1261,9.8307 L12.2177,6.9223 C11.7860832,6.50543057 11.1000067,6.51139239 10.6756996,6.93569957 C10.2513924,7.36000675 10.2454306,8.04608322 10.6623,8.4777 L12.0846,9.9 L7.04,9.9 C6.43248678,9.9 5.94,10.3924868 5.94,11 C5.94,11.6075132 6.43248678,12.1 7.04,12.1 L12.0846,12.1 L12.0846,12.1 Z" id="Shape"></path></svg>
