<svg width="22" height="22" viewBox="0 0 22 22" xmlns="http://www.w3.org/2000/svg"><path d="M12.822 11.29c.816-.581 1.421-1.348 1.683-2.322.603-2.243-.973-4.553-3.53-4.553-1.15 0-2.085.41-2.775 1.089-.42.413-.672.835-.8 1.167a1.179 1.179 0 0 0 2.2.847c.016-.043.1-.184.252-.334.264-.259.613-.412 1.123-.412.938 0 1.47.78 1.254 1.584-.105.39-.37.726-.773 1.012a3.25 3.25 0 0 1-.945.47 1.179 1.179 0 0 0-.874 1.138v2.234a1.179 1.179 0 1 0 2.358 0V11.78a5.9 5.9 0 0 0 .827-.492z" fill-rule="nonzero"/><ellipse cx="10.825" cy="16.711" rx="1.275" ry="1.322"/></svg>
