<svg width="22px" height="22px" viewBox="0 0 22 22" version="1.1" xmlns="http://www.w3.org/2000/svg"><path d="M9.42857143,5.5 C9.42857143,5.02857143 9.74285714,4.71428571 10.2142857,4.71428571 L11.7857143,4.71428571 C12.2571429,4.71428571 12.5714286,5.02857143 12.5714286,5.5 L12.5714286,11.7857143 C12.5714286,12.2571429 12.2571429,12.5714286 11.7857143,12.5714286 L10.2142857,12.5714286 C9.74285714,12.5714286 9.42857143,12.2571429 9.42857143,11.7857143 L9.42857143,5.5 M9.42857143,14.9285714 C9.42857143,14.4571429 9.74285714,14.1428571 10.2142857,14.1428571 L11.7857143,14.1428571 C12.2571429,14.1428571 12.5714286,14.4571429 12.5714286,14.9285714 L12.5714286,16.5 C12.5714286,16.9714286 12.2571429,17.2857143 11.7857143,17.2857143 L10.2142857,17.2857143 C9.74285714,17.2857143 9.42857143,16.9714286 9.42857143,16.5 L9.42857143,14.9285714" id="Shape"></path></svg>
