<svg xmlns="http://www.w3.org/2000/svg" viewBox="0 0 16 16"><g fill-rule="evenodd"><path fill-rule="nonzero" d="M11.3 8.85c.2-.15.4-.3.6-.5l1.4-1.4c1.37-1.38 1.53-3.44.36-4.6-1.17-1.18-3.23-1.02-4.6.35l-1.4 1.4c-.2.2-.36.4-.5.6l1.66.66.04-.04 1.4-1.4c.6-.6 1.48-.66 1.98-.16s.44 1.38-.15 1.97l-1.44 1.4-.04.05.66 1.67zM8.85 11.3c-.15.2-.3.4-.5.6l-1.4 1.4c-1.38 1.37-3.44 1.53-4.6.36-1.18-1.17-1.02-3.23.35-4.6l1.4-1.4c.2-.2.4-.36.6-.5l.66 1.66-.04.04-1.4 1.4c-.6.6-.66 1.48-.16 1.98s1.38.44 1.97-.15l1.4-1.44.05-.04 1.67.66z"/><path d="M12.66 9.2h2c.27 0 .5.23.5.5v.06c0 .27-.23.5-.5.5h-2c-.28 0-.5-.23-.5-.5V9.7c0-.27.22-.5.5-.5zm-.4 2.12l1.43 1.42c.16.2.16.5 0 .7l-.07.04c-.2.2-.5.2-.7 0l-1.42-1.4c-.2-.2-.2-.53 0-.72l.05-.04c.2-.2.5-.2.7 0zm-2.8 1.1c0-.28.2-.5.5-.5H10c.28 0 .5.22.5.5v2c0 .27-.22.5-.5.5h-.05c-.28 0-.5-.23-.5-.5v-2zM6.7 3.24v-2c0-.27-.22-.5-.5-.5h-.05c-.27 0-.5.23-.5.5v2c0 .28.23.5.5.5h.05c.28 0 .5-.22.5-.5zm-2.1.4L3.16 2.2c-.2-.2-.5-.2-.7 0l-.04.04c-.2.2-.2.5 0 .7l1.4 1.42c.2.2.52.2.72 0l.04-.04c.18-.2.18-.5 0-.7zm-1.1 2.8c.27 0 .5-.2.5-.5V5.9c0-.27-.23-.5-.5-.5h-2c-.28 0-.5.23-.5.5v.06c0 .28.22.5.5.5h2z"/></g></svg>
