<svg xmlns="http://www.w3.org/2000/svg" viewBox="0 0 16 16"><g fill="#262626" fill-rule="evenodd"><path d="m8 10c-2.761 0-5-2.239-5-5 0-2.761 2.239-5 5-5 2.761 0 5 2.239 5 5 0 2.761-2.239 5-5 5m0-2.5c1.381 0 2.5-1.119 2.5-2.5 0-1.381-1.119-2.5-2.5-2.5-1.381 0-2.5 1.119-2.5 2.5 0 1.381 1.119 2.5 2.5 2.5m0-1c-.828 0-1.5-.672-1.5-1.5 0-.828.672-1.5 1.5-1.5.828 0 1.5.672 1.5 1.5 0 .828-.672 1.5-1.5 1.5m4.893 1.974l2.321 4.02c.138.239.028.447-.245.463l-1.737.104-.959 1.452c-.151.229-.389.214-.524-.019l-2.143-3.712c1.344-.373 2.498-1.201 3.286-2.308m-6.444 2.324l-2.135 3.697c-.135.234-.373.248-.524.019l-.959-1.452-1.737-.104c-.273-.016-.383-.224-.245-.463l2.293-3.971c.798 1.098 1.958 1.914 3.306 2.274" transform="translate(0 1)"/></g></svg>