<svg xmlns="http://www.w3.org/2000/svg" viewBox="0 0 16 16"><path fill-rule="evenodd" d="m8.419 7.99l-.002.002c-.023-.026-.046-.051-.071-.075-.642-.642-1.678-.651-2.312-.018l-2.432 2.432c-.635.635-.626 1.668.018 2.312.642.642 1.678.651 2.312.018l1.028-1.028c.719.366 1.481.518 2.176.444l-1.753 1.753c-1.344 1.344-3.542 1.326-4.909-.041-1.367-1.367-1.383-3.566-.041-4.909l2.292-2.292c1.344-1.344 3.542-1.326 4.909.041.016.016.032.032.048.049.009.008.017.016.025.024.362.362.367.944.011 1.3-.356.356-.938.351-1.3-.011m-.575.284l.002-.002c.023.026.046.051.071.075.642.642 1.678.651 2.312.018l2.432-2.432c.635-.635.626-1.668-.018-2.312-.642-.642-1.678-.651-2.312-.018l-1.028 1.028c-.719-.366-1.481-.518-2.176-.444l1.753-1.753c1.344-1.344 3.542-1.326 4.909.041 1.367 1.367 1.383 3.566.041 4.909l-2.292 2.292c-1.344 1.344-3.542 1.326-4.909-.041-.016-.016-.032-.032-.048-.049-.009-.008-.017-.016-.025-.024-.362-.362-.367-.944-.011-1.3.356-.356.938-.351 1.3.011"/></svg>
