<svg width="167" height="166" viewBox="261 77 167 166" xmlns="http://www.w3.org/2000/svg" xmlns:xlink="http://www.w3.org/1999/xlink"><defs><path id="a" d="M18 84h34v9H18z"/><mask id="h" x="0" y="0" width="34" height="9" fill="#fff"><use xlink:href="#a"/></mask><path d="M26 95c0 4.97 4.03 9 9 9s9-4.03 9-9" id="b"/><mask id="i" x="0" y="0" width="18" height="9" fill="#fff"><use xlink:href="#b"/></mask><path d="M42 48l25.564 18.26C68.91 67.22 70 69.34 70 70.994v22.004c0 2.21-1.456 2.962-3.253 1.678L42 77V48z" id="c"/><mask id="j" x="0" y="0" width="28" height="47.303" fill="#fff"><use xlink:href="#c"/></mask><path d="M0 48l25.564 18.26C26.91 67.22 28 69.34 28 70.994v22.004c0 2.21-1.456 2.962-3.253 1.678L0 77V48z" id="d"/><mask id="k" x="0" y="0" width="28" height="47.303" fill="#fff"><use xlink:href="#d"/></mask><path d="M52.994 86C59.156 79.382 62 67.656 62 49.725 62 19.235 38.032 1.18 38.032 1.18c-1.675-1.434-4.408-1.466-6.064 0C31.968 1.18 8 19.234 8 49.724 8 67.655 10.844 79.382 17.006 86h35.988z" id="e"/><mask id="l" x="0" y="0" width="54" height="85.908" fill="#fff"><use xlink:href="#e"/></mask><circle id="f" cx="35" cy="43" r="13"/><mask id="m" x="0" y="0" width="26" height="26" fill="#fff"><use xlink:href="#f"/></mask><circle id="g" cx="35" cy="43" r="8"/><mask id="n" x="0" y="0" width="16" height="16" fill="#fff"><use xlink:href="#g"/></mask></defs><g fill="none" fill-rule="evenodd" transform="translate(262 77)"><g transform="translate(47 6)"><path d="M51 132c0 2.21 1.79 4 4 4s4-1.79 4-4M11 122c0 2.21 1.79 4 4 4s4-1.79 4-4" stroke="#E5E5E5" stroke-width="2" stroke-linecap="round"/><rect fill="#E5E5E5" x="50" y="107" width="2" height="6" rx="1"/><rect fill="#E5E5E5" x="50" y="117" width="2" height="6" rx="1"/><rect fill="#E5E5E5" x="34" y="107" width="2" height="6" rx="1"/><rect fill="#E5E5E5" x="42" y="107" width="2" height="6" rx="1"/><rect fill="#E5E5E5" x="34" y="117" width="2" height="6" rx="1"/><rect fill="#E5E5E5" x="34" y="127" width="2" height="6" rx="1"/><rect fill="#E5E5E5" x="42" y="117" width="2" height="30" rx="1"/><rect fill="#E5E5E5" x="26" y="107" width="2" height="27" rx="1"/><rect fill="#E5E5E5" x="50" y="127" width="2" height="6" rx="1"/><rect fill="#E5E5E5" x="18" y="107" width="2" height="6" rx="1"/><rect fill="#E5E5E5" x="18" y="117" width="2" height="6" rx="1"/><use stroke="#E5E5E5" mask="url(#h)" stroke-width="4" xlink:href="#a"/><use stroke="#E5E5E5" mask="url(#i)" stroke-width="4" xlink:href="#b"/><use stroke="#E5E5E5" mask="url(#j)" stroke-width="4" xlink:href="#c"/><use stroke="#E5E5E5" mask="url(#k)" stroke-width="4" transform="matrix(-1 0 0 1 28 0)" xlink:href="#d"/><use stroke="#E5E5E5" mask="url(#l)" stroke-width="4" fill="#FFF" xlink:href="#e"/><use stroke="#E5E5E5" mask="url(#m)" stroke-width="4" xlink:href="#f"/><use stroke="#E5E5E5" mask="url(#n)" stroke-width="4" xlink:href="#g"/><path d="M43 146c0 3.59 2.91 6.5 6.5 6.5s6.5-2.91 6.5-6.5M14 133c0 3.59 2.91 6.5 6.5 6.5s6.5-2.91 6.5-6.5" stroke="#E5E5E5" stroke-width="2" stroke-linecap="round"/></g><circle stroke="#E5E5E5" stroke-width="2" cx="138.5" cy="115.5" r="6.5"/><circle stroke="#E5E5E5" stroke-width="2" cx="33.5" cy="28.5" r="6.5"/><circle stroke="#E5E5E5" stroke-width="2" cx="142" cy="52" r="4"/><circle stroke="#E5E5E5" stroke-width="2" cx="4" cy="83" r="4"/></g></svg>