<svg width="22px" height="22px" viewBox="0 0 22 22" version="1.1" xmlns="http://www.w3.org/2000/svg"><path d="M16.5,11.9906832 L16.5,10.0093168 L15.2625,9.80434783 C15.19375,9.5310559 15.05625,9.25776398 14.85,8.84782609 L15.60625,7.82298137 L14.1625,6.38819876 L13.13125,7.13975155 C12.7875,6.93478261 12.44375,6.79813665 12.16875,6.72981366 L12.03125,5.5 L10.0375,5.5 L9.83125,6.72981366 C9.4875,6.79813665 9.2125,6.93478261 8.86875,7.13975155 L7.8375,6.38819876 L6.39375,7.82298137 L7.08125,8.84782609 C6.875,9.18944099 6.80625,9.46273292 6.66875,9.80434783 L5.5,9.94099379 L5.5,11.9223602 L6.7375,12.1273292 C6.80625,12.4689441 6.94375,12.742236 7.15,13.0838509 L6.4625,14.1086957 L7.90625,15.5434783 L8.9375,14.8602484 C9.2125,14.9968944 9.55625,15.1335404 9.9,15.2701863 L10.10625,16.5 L12.16875,16.5 L12.375,15.2701863 C12.71875,15.2018634 12.99375,15.0652174 13.3375,14.8602484 L14.36875,15.6118012 L15.8125,14.1770186 L15.05625,13.1521739 C15.2625,12.810559 15.4,12.4689441 15.46875,12.1956522 L16.5,11.9906832 L16.5,11.9906832 Z M11,13.015528 C9.83125,13.015528 8.9375,12.1273292 8.9375,10.9658385 C8.9375,9.80434783 9.83125,8.91614907 11,8.91614907 C12.16875,8.91614907 13.0625,9.80434783 13.0625,10.9658385 C13.0625,12.1273292 12.16875,13.015528 11,13.015528 L11,13.015528 Z" id="Shape" ></path></svg>
