<svg width="30px" height="30px" viewBox="0 0 30 30" version="1.1" xmlns="http://www.w3.org/2000/svg"><path d="M20.1357204,10.2985704 L20.1357204,19.7271418 C20.1357204,19.8432138 20.0933101,19.9436592 20.0084882,20.0284811 C19.9236664,20.1133029 19.823221,20.1557132 19.707149,20.1557132 L10.2785775,20.1557132 C10.1625055,20.1557132 10.0620601,20.1133029 9.97723825,20.0284811 C9.89241639,19.9436592 9.8500061,19.8432138 9.8500061,19.7271418 L9.8500061,10.2985704 C9.8500061,10.1824984 9.89241639,10.0820529 9.97723825,9.99723107 C10.0620601,9.91240922 10.1625055,9.86999893 10.2785775,9.86999893 L19.707149,9.86999893 C19.823221,9.86999893 19.9236664,9.91240922 20.0084882,9.99723107 C20.0933101,10.0820529 20.1357204,10.1824984 20.1357204,10.2985704 Z"></path></svg>
