<svg xmlns="http://www.w3.org/2000/svg" width="30" height="40" viewBox="5 0 30 40"><path fill="#7E7E7E" fill-rule="evenodd" d="M22 29.535V22.72c4.19-1.21 7.4-5.917 7.4-5.917.34-.446.6-1.247.6-1.795v-4.543C31.196 9.773 32 8.48 32 7c0-2.21-1.79-4-4-4s-4 1.79-4 4c0 1.48.804 2.773 2 3.465v4.243c0 .17-.094.39-.21.502 0 0-1.253 1.203-1.84 1.742C22.5 18.277 21.12 19 20.09 19c-1.042 0-2.473-.74-3.977-2.086-.61-.546-1.746-1.574-1.746-1.574-.2-.182-.367-.555-.367-.83v-4.045C15.196 9.773 16 8.48 16 7c0-2.21-1.79-4-4-4S8 4.79 8 7c0 1.48.804 2.773 2 3.465v4.543c0 .537.274 1.345.61 1.78 0 0 3.25 4.59 7.39 5.88v6.867c-1.196.692-2 1.984-2 3.465 0 2.21 1.79 4 4 4s4-1.79 4-4c0-1.48-.804-2.773-2-3.465zM14 7c0-1.105-.895-2-2-2s-2 .895-2 2 .895 2 2 2 2-.895 2-2zm16 0c0-1.105-.895-2-2-2s-2 .895-2 2 .895 2 2 2 2-.895 2-2zm-8 26c0-1.105-.895-2-2-2s-2 .895-2 2 .895 2 2 2 2-.895 2-2z"/></svg>
