<svg xmlns="http://www.w3.org/2000/svg" viewBox="0 0 16 16"><path d="m2 3c.552 0 1-.448 1-1 0-.552-.448-1-1-1-.552 0-1 .448-1 1 0 .552.448 1 1 1m.761.85c.154 2.556 1.987 4.692 4.45 5.255.328-.655 1.01-1.105 1.789-1.105 1.105 0 2 .895 2 2 0 1.105-.895 2-2 2-.89 0-1.645-.582-1.904-1.386-1.916-.376-3.548-1.5-4.596-3.044v4.493c.863.222 1.5 1.01 1.5 1.937 0 1.105-.895 2-2 2-1.105 0-2-.895-2-2 0-.74.402-1.387 1-1.732v-8.535c-.598-.346-1-.992-1-1.732 0-1.105.895-2 2-2 1.105 0 2 .895 2 2 0 .835-.512 1.551-1.239 1.85m6.239 7.15c.552 0 1-.448 1-1 0-.552-.448-1-1-1-.552 0-1 .448-1 1 0 .552.448 1 1 1m-7 4c.552 0 1-.448 1-1 0-.552-.448-1-1-1-.552 0-1 .448-1 1 0 .552.448 1 1 1" transform="translate(3)"/></svg>
