<svg viewBox="0 0 16 16" xmlns="http://www.w3.org/2000/svg"><path d="m7.222.222c1.657 0 3 1.343 3 3v8.327c0 .631-.298 1.226-.805 1.603l-3 2.237c-.709.529-1.682.529-2.391 0l-3-2.237c-.506-.377-.805-.972-.805-1.603v-8.327c0-1.657 1.343-3 3-3h4m-5 3v8.08c0 .158.075.306.201.401l2.5 1.864c.177.132.42.132.598 0l2.5-1.864c.127-.094.201-.243.201-.401v-8.08c0-.552-.448-1-1-1h-4c-.552 0-1 .448-1 1m2.778 7.778c-.552 0-1-.448-1-1s .448-1 1-1 1 .448 1 1-.448 1-1 1" transform="matrix(-.70711 .70711 -.70711 -.70711 17.05 9.767)"/></svg>

