<svg width="19" height="14" viewBox="0 0 19 14" xmlns="http://www.w3.org/2000/svg" xmlns:xlink="http://www.w3.org/1999/xlink"><title>Icon</title><defs><rect id="a" width="19" height="14" rx="2.5"/><mask id="b" x="0" y="0" width="19" height="14" fill="#fff"><use xlink:href="#a"/></mask></defs><g fill="none" fill-rule="evenodd"><rect fill="#848484" x="7.2" y="9.25" width="6.46" height="1.5" rx=".5"/><path d="M5.851 7.016L3.81 9.103a.503.503 0 0 0 .017.709l.35.334c.207.198.524.191.717-.006l2.687-2.748a.493.493 0 0 0 .137-.376.493.493 0 0 0-.137-.376L4.894 3.892a.507.507 0 0 0-.717-.006l-.35.334a.503.503 0 0 0-.017.709L5.85 7.016z" fill="#848484"/><use stroke="#848484" mask="url(#b)" stroke-width="2.5" xlink:href="#a"/></g></svg>
