<svg width="14" height="14" viewBox="0 0 14 14" xmlns="http://www.w3.org/2000/svg"><path d="M0 7c0-3.866 3.142-7 7-7 3.866 0 7 3.142 7 7 0 3.866-3.142 7-7 7-3.866 0-7-3.142-7-7z"/><path d="M1 7c0 3.309 2.69 6 6 6 3.309 0 6-2.69 6-6 0-3.309-2.69-6-6-6-3.309 0-6 2.69-6 6z" fill="#FFF"/><path d="M9.427 6.523a.932.932 0 0 0-.808.489v-.01c-.49-.01-1.059-.172-1.46-.489-.35-.278-.7-.772-.882-1.17a.964.964 0 0 0 .35-.744.943.943 0 0 0-.934-.959c-.518 0-.933.432-.933.964 0 .35.191.662.467.825v3.147a.97.97 0 0 0-.467.825c0 .532.415.959.933.959a.943.943 0 0 0 .934-.96.965.965 0 0 0-.467-.824V6.844c.313.336.672.61 1.073.81.402.202.948.303 1.386.308v-.01c.168.293.467.49.808.49a.943.943 0 0 0 .933-.96.943.943 0 0 0-.933-.96z"/></svg>
