<svg xmlns="http://www.w3.org/2000/svg" width="64" height="64" viewBox="0 0 64 64">
  <g fill="#E5E5E5">
    <path d="M32 64C30.8954305 64 30 63.1045695 30 62 30 60.8954305 30.8954305 60 32 60 33.8894444 60 35.7536611 59.8131396 37.574335 59.4454933 38.6570511 59.2268618 39.7120017 59.9273408 39.9306331 61.0100569 40.1492646 62.0927729 39.4487856 63.1477235 38.3660695 63.366355 36.285133 63.7865558 34.1557023 64 32 64zM49.2301062 58.9696428C51.0302775 57.8173242 52.7114504 56.4871355 54.247711 55.0008916 55.0415758 54.232873 55.0625283 52.9667164 54.2945097 52.1728516 53.5264912 51.3789869 52.2603346 51.3580344 51.4664698 52.1260529 50.1212672 53.4274592 48.6493395 54.5920875 47.0736141 55.6007347 46.1433158 56.1962335 45.8719072 57.4331365 46.4674061 58.3634348 47.0629049 59.2937331 48.2998079 59.5651416 49.2301062 58.9696428zM61.0426034 45.4531856C61.9412068 43.5163476 62.6441937 41.4911051 63.1388045 39.4034279 63.393449 38.3286117 62.7285685 37.2508708 61.6537523 36.9962262 60.5789361 36.7415816 59.5011952 37.4064621 59.2465506 38.4812784 58.8141946 40.3061875 58.1997219 42.0764286 57.4141077 43.7697311 56.9492346 44.7717126 57.3846469 45.9608331 58.3866284 46.4257062 59.3886098 46.8905793 60.5777303 46.455167 61.0426034 45.4531856zM63.7270657 27.8034151C63.4476841 25.6718707 62.9558906 23.5863203 62.2616468 21.5714028 61.9018246 20.527084 60.7635435 19.9721898 59.7192246 20.3320119 58.6749058 20.6918341 58.1200116 21.8301152 58.4798337 22.874434 59.0867105 24.6357842 59.5166381 26.45898 59.760988 28.3232492 59.9045362 29.4184513 60.9087418 30.1899192 62.0039439 30.046371 63.099146 29.9028228 63.8706139 28.8986173 63.7270657 27.8034151zM56.4699838 11.3781121C55.0919588 9.74451505 53.5537382 8.25140603 51.8798083 6.92273835 51.0146495 6.23602588 49.7566092 6.38068523 49.0698968 7.24584403 48.3831843 8.11100284 48.5278436 9.36904308 49.3930024 10.0557555 50.8587525 11.2191822 52.2058153 12.5267396 53.4125204 13.9572433 54.1247279 14.8015385 55.3865225 14.9086168 56.2308177 14.1964094 57.0751129 13.484202 57.1821912 12.2224073 56.4699838 11.3781121zM41.481294 1.42849704C39.4470333.798260231 37.3474846.371987025 35.2067823.158824109 34.1076485.0493765922 33.1278998.851675811 33.0184523 1.95080957 32.9090048 3.04994333 33.711304 4.02969203 34.8104377 4.13913955 36.6833634 4.32563829 38.5191483 4.69835932 40.297557 5.24933028 41.3526509 5.57621023 42.4729622 4.98587613 42.7998421 3.93078217 43.1267221 2.8756882 42.536388 1.75537699 41.481294 1.42849704zM23.6558195 1.0993008C21.5852929 1.6571259 19.5822296 2.42161363 17.6728876 3.37914679 16.6855233 3.874309 16.2865147 5.07613416 16.7816769 6.06349841 17.2768392 7.05086266 18.4786643 7.44987125 19.4660286 6.95470905 21.1354949 6.11747332 22.8864813 5.44919307 24.6963667 4.96158787 25.7629079 4.67424869 26.3945759 3.57671185 26.1072367 2.51017072 25.8198975 1.44362959 24.7223606.811961615 23.6558195 1.0993008zM8.36290105 10.4291871C6.92120358 12.00815 5.63985273 13.7275139 4.53998784 15.5610549 3.97179016 16.5082746 4.27904822 17.7367631 5.22626792 18.3049608 6.17348763 18.8731585 7.40197615 18.5659004 7.97017383 17.6186807 8.9327668 16.0139803 10.054503 14.5087932 11.3168098 13.126301 12.0615972 12.3106016 12.0041117 11.0455771 11.1884123 10.3007897 10.372713 9.55600224 9.10768848 9.61348772 8.36290105 10.4291871zM.450120287 26.6230259C.151304663 28.3883054 0 30.1850053 0 32 0 32.2974081.00406268322 32.594367.0121750297 32.8908218.0423897377 33.994978.96197903 34.8655796 2.0661352 34.8353649 3.17029137 34.8051502 4.04089294 33.8855609 4.01067824 32.7814047 4.00356366 32.521412 4 32.2609289 4 32 4 30.4089462 4.13249902 28.8355581 4.39401589 27.2906242 4.57836807 26.2015475 3.84494393 25.1692294 2.75586724 24.9848772 1.66679054 24.800525.634472466 25.5339492.450120287 26.6230259zM2.45830096 44.3202494C3.28286321 46.2952494 4.30407075 48.1806071 5.50459135 49.9494734 6.124886 50.8634254 7.36863868 51.1014818 8.28259072 50.4811871 9.19654276 49.8608925 9.43459912 48.6171398 8.81430448 47.7031878 7.76386025 46.1554464 6.87058107 44.5062706 6.14951581 42.7791677 5.72395784 41.7598668 4.55266835 41.2785432 3.53336751 41.7041011 2.51406668 42.1296591 2.03274299 43.3009486 2.45830096 44.3202494zM13.73374 58.2776222C15.4883094 59.4994144 17.3614388 60.5433005 19.3262717 61.39161 20.3403619 61.8294398 21.5173756 61.3622885 21.9552054 60.3481983 22.3930351 59.3341082 21.9258838 58.1570945 20.9117937 57.7192647 19.1934726 56.9773858 17.5548741 56.0642026 16.0195384 54.9950736 15.1130877 54.3638678 13.8665707 54.5869979 13.2353649 55.4934487 12.6041591 56.3998995 12.8272892 57.6464164 13.73374 58.2776222zM30.6955071 63.9738646C29.5918263 63.9295649 28.7330282 62.9989428 28.7773279 61.895262 28.8216276 60.7915812 29.7522497 59.9327832 30.8559305 59.9770829 31.2344492 59.9922759 31.6140624 59.9999282 31.9946308 59.9999995 33.0992003 60.0002065 33.994463 60.8958047 33.994256 62.0003742 33.9940491 63.1049437 33.0984508 64.0002064 31.9938814 63.9999994 31.5600677 63.9999181 31.1272192 63.9911927 30.6955071 63.9738646zM30.1721098 44.2840559C30.7941711 46.023825 33.2407935 46.0619159 33.9167124 44.3423547L38.9452693 31.5495297 41.1315797 35.2685507C41.4908522 35.8796908 42.1468005 36.2549751 42.8557214 36.2549751L51.1106965 36.2549751C52.215266 36.2549751 53.1106965 35.3595446 53.1106965 34.2549751 53.1106965 33.1504056 52.215266 32.2549751 51.1106965 32.2549751L43.9999712 32.2549751 40.3112064 25.9802055C39.465988 24.5424477 37.3358287 24.7099356 36.7257006 26.2621229L32.1439734 37.9181973 26.2115967 21.3266406C25.5807315 19.562249 23.0875908 19.5563214 22.4483429 21.3176933L18.4775633 32.2587065 13 32.2587065C11.8954305 32.2587065 11 33.154137 11 34.2587065 11 35.363276 11.8954305 36.2587065 13 36.2587065L19.8793532 36.2587065C20.720826 36.2587065 21.4722973 35.732004 21.7593685 34.9410132L24.314328 27.9011249 30.1721098 44.2840559z"/>
  </g>
</svg>
