<svg xmlns="http://www.w3.org/2000/svg" viewBox="0 0 168 107" xmlns:xlink="http://www.w3.org/1999/xlink"><g fill="#eee" fill-rule="evenodd"><path d="m4.01 2h1.102c.552 0 1-.448 1-1 0-.552-.448-1-1-1h-1.102c-2.218 0-4.01 1.788-4.01 4 0 .552.448 1 1 1 .552 0 1-.448 1-1 0-1.108.892-2 2.01-2m12.702 0c.552 0 1-.448 1-1 0-.552-.448-1-1-1h-5.7c-.552 0-1 .448-1 1 0 .552.448 1 1 1h5.7m11.6 0c.552 0 1-.448 1-1 0-.552-.448-1-1-1h-5.7c-.552 0-1 .448-1 1 0 .552.448 1 1 1h5.7m11.6 0c.552 0 1-.448 1-1 0-.552-.448-1-1-1h-5.7c-.552 0-1 .448-1 1 0 .552.448 1 1 1h5.7m11.6 0c.552 0 1-.448 1-1 0-.552-.448-1-1-1h-5.7c-.552 0-1 .448-1 1 0 .552.448 1 1 1h5.7m11.6 0c.552 0 1-.448 1-1 0-.552-.448-1-1-1h-5.7c-.552 0-1 .448-1 1 0 .552.448 1 1 1h5.7m11.6 0c.552 0 1-.448 1-1 0-.552-.448-1-1-1h-5.7c-.552 0-1 .448-1 1 0 .552.448 1 1 1h5.7m11.6 0c.552 0 1-.448 1-1 0-.552-.448-1-1-1h-5.7c-.552 0-1 .448-1 1 0 .552.448 1 1 1h5.7m11.6 0c.552 0 1-.448 1-1 0-.552-.448-1-1-1h-5.7c-.552 0-1 .448-1 1 0 .552.448 1 1 1h5.7m11.6 0c.552 0 1-.448 1-1 0-.552-.448-1-1-1h-5.7c-.552 0-1 .448-1 1 0 .552.448 1 1 1h5.7m11.6 0c.552 0 1-.448 1-1 0-.552-.448-1-1-1h-5.7c-.552 0-1 .448-1 1 0 .552.448 1 1 1h5.7m11.6 0c.552 0 1-.448 1-1 0-.552-.448-1-1-1h-5.7c-.552 0-1 .448-1 1 0 .552.448 1 1 1h5.7m11.6 0c.552 0 1-.448 1-1 0-.552-.448-1-1-1h-5.7c-.552 0-1 .448-1 1 0 .552.448 1 1 1h5.7m11.6 0c.552 0 1-.448 1-1 0-.552-.448-1-1-1h-5.7c-.552 0-1 .448-1 1 0 .552.448 1 1 1h5.7m8.088 0c.822 0 1.554.503 1.86 1.254.208.512.791.758 1.303.55.512-.208.758-.791.55-1.303-.609-1.497-2.069-2.5-3.712-2.5h-2.188c-.552 0-1 .448-1 1 0 .552.448 1 1 1h2.188m2.01 12.518c0 .552.448 1 1 1 .552 0 1-.448 1-1v-5.7c0-.552-.448-1-1-1-.552 0-1 .448-1 1v5.7m0 11.6c0 .552.448 1 1 1 .552 0 1-.448 1-1v-5.7c0-.552-.448-1-1-1-.552 0-1 .448-1 1v5.7m0 11.6c0 .552.448 1 1 1 .552 0 1-.448 1-1v-5.7c0-.552-.448-1-1-1-.552 0-1 .448-1 1v5.7m0 6.282c0 1.108-.892 2-2.01 2h-.72c-.552 0-1 .448-1 1 0 .552.448 1 1 1h.72c2.218 0 4.01-1.788 4.01-4v-.382c0-.552-.448-1-1-1-.552 0-1 .448-1 1v.382m-14.325 2c-.552 0-1 .448-1 1 0 .552.448 1 1 1h5.7c.552 0 1-.448 1-1 0-.552-.448-1-1-1h-5.7m-11.6 0c-.552 0-1 .448-1 1 0 .552.448 1 1 1h5.7c.552 0 1-.448 1-1 0-.552-.448-1-1-1h-5.7m-11.6 0c-.552 0-1 .448-1 1 0 .552.448 1 1 1h5.7c.552 0 1-.448 1-1 0-.552-.448-1-1-1h-5.7m-11.6 0c-.552 0-1 .448-1 1 0 .552.448 1 1 1h5.7c.552 0 1-.448 1-1 0-.552-.448-1-1-1h-5.7m-11.6 0c-.552 0-1 .448-1 1 0 .552.448 1 1 1h5.7c.552 0 1-.448 1-1 0-.552-.448-1-1-1h-5.7m-11.6 0c-.552 0-1 .448-1 1 0 .552.448 1 1 1h5.7c.552 0 1-.448 1-1 0-.552-.448-1-1-1h-5.7m-11.6 0c-.552 0-1 .448-1 1 0 .552.448 1 1 1h5.7c.552 0 1-.448 1-1 0-.552-.448-1-1-1h-5.7m-11.6 0c-.552 0-1 .448-1 1 0 .552.448 1 1 1h5.7c.552 0 1-.448 1-1 0-.552-.448-1-1-1h-5.7m-11.6 0c-.552 0-1 .448-1 1 0 .552.448 1 1 1h5.7c.552 0 1-.448 1-1 0-.552-.448-1-1-1h-5.7m-11.6 0c-.552 0-1 .448-1 1 0 .552.448 1 1 1h5.7c.552 0 1-.448 1-1 0-.552-.448-1-1-1h-5.7m-11.6 0c-.552 0-1 .448-1 1 0 .552.448 1 1 1h5.7c.552 0 1-.448 1-1 0-.552-.448-1-1-1h-5.7m-11.6 0c-.552 0-1 .448-1 1 0 .552.448 1 1 1h5.7c.552 0 1-.448 1-1 0-.552-.448-1-1-1h-5.7m-11.6 0c-.552 0-1 .448-1 1 0 .552.448 1 1 1h5.7c.552 0 1-.448 1-1 0-.552-.448-1-1-1h-5.7m-8.47 0c-.755 0-1.438-.424-1.782-1.085-.255-.49-.859-.681-1.349-.426-.49.255-.681.859-.426 1.349.684 1.316 2.046 2.162 3.556 2.162h2.57c.552 0 1-.448 1-1 0-.552-.448-1-1-1h-2.57m-2.01-12.136c0-.552-.448-1-1-1-.552 0-1 .448-1 1v5.7c0 .552.448 1 1 1 .552 0 1-.448 1-1v-5.7m0-11.6c0-.552-.448-1-1-1-.552 0-1 .448-1 1v5.7c0 .552.448 1 1 1 .552 0 1-.448 1-1v-5.7m0-11.6c0-.552-.448-1-1-1-.552 0-1 .448-1 1v5.7c0 .552.448 1 1 1 .552 0 1-.448 1-1v-5.7m0-6.664c0-.552-.448-1-1-1-.552 0-1 .448-1 1v.764c0 .552.448 1 1 1 .552 0 1-.448 1-1v-.764" id="0"/><circle cx="21" cy="24" r="10"/><rect width="33" height="3" x="37" y="18" rx="1.5" id="1"/><rect width="53" height="3" x="37" y="27" rx="1.5" id="2"/><path d="m131 29c0 .552.447.999.996.999h22.01c.545 0 .996-.451.996-.999v-9c0-.552-.447-.999-.996-.999h-22.01c-.545 0-.996.451-.996.999v9m.996-12h22.01c1.655 0 2.996 1.344 2.996 2.999v9c0 1.657-1.35 2.999-2.996 2.999h-22.01c-1.655 0-2.996-1.344-2.996-2.999v-9c0-1.657 1.35-2.999 2.996-2.999" id="3"/><g transform="translate(0 59)"><use xlink:href="#0"/><circle cx="21" cy="24" r="10"/><use xlink:href="#1"/><use xlink:href="#2"/><use xlink:href="#3"/></g></g></svg>
