<?xml version="1.0" encoding="UTF-8" standalone="no"?>
<svg width="16px" height="16px" viewBox="0 0 16 16" version="1.1" xmlns="http://www.w3.org/2000/svg" xmlns:xlink="http://www.w3.org/1999/xlink">
    <!-- Generator: Sketch 3.7.2 (28276) - http://www.bohemiancoding.com/sketch -->
    <title>Pasted Image 227</title>
    <desc>Created with Sketch.</desc>
    <defs>
        <path d="M0,8 C0,12.419 3.581,16 8,16 C12.419,16 16,12.419 16,8 C16,3.581 12.419,0 8,0 C3.581,0 0,3.581 0,8 L0,8 Z M2,8 C2,4.692 4.692,2 8,2 C11.308,2 14,4.692 14,8 C14,11.308 11.308,14 8,14 C4.692,14 2,11.308 2,8 L2,8 Z" id="path-1"></path>
        <polygon id="path-3" points="0.16 0 0.11 4 1.889 4 1.889 0"></polygon>
        <polygon id="path-5" points="0.16 0.666 0.11 2.445 1.889 2.445 1.889 0.666"></polygon>
    </defs>
    <g id="Page-1" stroke="none" stroke-width="1" fill="none" fill-rule="evenodd">
        <g id="Pasted-Image-227">
            <path d="M8,0 C3.581,0 0,3.581 0,8 C0,12.419 3.581,16 8,16 C12.419,16 16,12.419 16,8 C16,3.581 12.419,0 8,0 M8,2 C11.308,2 14,4.692 14,8 C14,11.308 11.308,14 8,14 C4.692,14 2,11.308 2,8 C2,4.692 4.692,2 8,2" id="Fill-1" fill="#7E7C7C"></path>
            <g id="Group-5">
                <mask id="mask-2" fill="white">
                    <use xlink:href="#path-1"></use>
                </mask>
                <g id="Clip-4"></g>
            </g>
            <polygon id="Fill-6" fill="#7E7C7C" points="7.1597 4 8.8887 4 8.8887 8 7.1107 8"></polygon>
            <g id="Group-10" transform="translate(7.000000, 4.000000)">
                <mask id="mask-4" fill="white">
                    <use xlink:href="#path-3"></use>
                </mask>
                <g id="Clip-9"></g>
                <polygon id="Fill-8" fill="#7E7C7C" mask="url(#mask-4)" points="-4.889 9 6.889 9 6.889 -5 -4.889 -5"></polygon>
            </g>
            <polygon id="Fill-11" fill="#7E7C7C" points="7.1597 9.6667 8.8887 9.6667 8.8887 11.4447 7.1107 11.4447"></polygon>
            <g id="Group-15" transform="translate(7.000000, 9.000000)">
                <mask id="mask-6" fill="white">
                    <use xlink:href="#path-5"></use>
                </mask>
                <g id="Clip-14"></g>
                <polygon id="Fill-13" fill="#7E7C7C" mask="url(#mask-6)" points="-4.889 7.445 6.889 7.445 6.889 -4.333 -4.889 -4.333"></polygon>
            </g>
        </g>
    </g>
</svg>