<?xml version="1.0" encoding="UTF-8" standalone="no"?>
<svg width="16px" height="16px" viewBox="0 0 16 16" version="1.1" xmlns="http://www.w3.org/2000/svg" xmlns:xlink="http://www.w3.org/1999/xlink">
    <!-- Generator: Sketch 3.7.2 (28276) - http://www.bohemiancoding.com/sketch -->
    <title>Group</title>
    <desc>Created with Sketch.</desc>
    <defs></defs>
    <g id="Page-1" stroke="none" stroke-width="1" fill="none" fill-rule="evenodd">
        <g id="Group" fill="#7E7C7C">
            <path d="M8,0 C3.581,0 0,3.581 0,8 C0,12.419 3.581,16 8,16 C12.419,16 16,12.419 16,8 C16,3.581 12.419,0 8,0 M8,2 C11.308,2 14,4.692 14,8 C14,11.308 11.308,14 8,14 C4.692,14 2,11.308 2,8 C2,4.692 4.692,2 8,2" id="Fill-1"></path>
            <path d="M7.1597,4 L8.8887,4 L8.8887,8 L7.1107,8 L7.1597,4 Z M7.1597,9.6667 L8.8887,9.6667 L8.8887,11.4447 L7.1107,11.4447 L7.1597,9.6667 Z" id="Combined-Shape"></path>
        </g>
    </g>
</svg>