<svg xmlns="http://www.w3.org/2000/svg" width="32" height="32" viewBox="0 0 32 32" class="btn-template-icon icon-java-spring">
  <g fill="none" fill-rule="evenodd">
    <rect width="32" height="32"/>
    <path fill="#70AD51" d="M5.46647617,27.9932117 C6.0517027,28.4658996 6.91159892,28.3777063 7.38425926,27.7914452 C7.85922261,27.2048452 7.76991326,26.3449044 7.18398981,25.8699411 C6.59874295,25.3956543 5.74015536,25.4869934 5.26383884,26.0722403 C4.81393367,26.6267596 4.87238621,27.4284565 5.37913494,27.9159868 L5.11431334,27.6818383 C1.97157151,24.7616933 0,20.5966301 0,15.9782542 C0,7.16842834 7.16775175,0 15.9796074,0 C20.4586065,0 24.5113565,1.8565519 27.4145869,4.8362365 C28.0749348,3.93840692 28.6466499,2.93435335 29.115524,1.82069284 C31.1513712,7.93770658 32.3482517,13.0811131 31.909824,17.1311567 C31.3178113,25.4044499 24.4017495,31.9585382 15.9796074,31.9585382 C12.0682639,31.9585382 8.48438805,30.5444735 5.7042963,28.2034861 L5.46647617,27.9932117 Z M29.0471888,23.0106888 C33.0546075,17.6737787 30.8211972,9.04527781 28.9612624,3.529749 C27.3029502,6.98304378 23.2217836,9.62375882 19.6981239,10.4613722 C16.3950312,11.2482417 13.4715032,10.6021021 10.4153644,11.7780085 C3.44517575,14.457289 3.55613585,22.7698242 7.39373146,24.6365249 C7.39711439,24.6392312 7.62444728,24.7616933 7.62174094,24.7576338 C7.62309411,24.7562806 13.2658211,23.6358542 16.3862356,22.4843049 C20.9450718,20.7996058 25.9524846,16.6494275 27.5986182,11.8273993 C26.723116,16.8415779 22.4179995,21.6669891 18.093262,23.8828081 C15.7908399,25.0648038 14.0005934,25.3279957 10.2123886,26.6385428 C9.74892722,26.798217 9.38492397,26.9538318 9.38492397,26.9538318 C10.3463526,26.7948341 11.301692,26.7420604 11.301692,26.7420604 C16.6954354,26.4869875 25.1087819,28.2582896 29.0471888,23.0106888 Z"/>
  </g>
</svg>
