<svg xmlns="http://www.w3.org/2000/svg" width="16" height="16" viewBox="0 0 16 16"><path d="M9.424 2.254l2.08-.905a1 1 0 0 1 1.206.326l3.013 4.12a1 1 0 0 1 .16.849l-1.947 7.264a3 3 0 0 1-3.675 2.122l-.5-.135a3.999 3.999 0 0 0 1.082-1.782 1 1 0 0 0 1.16-.722l1.823-6.802-2.258-3.087-.687.299a2 2 0 0 0-.628-.88l-.829-.667z"/><path d="M.377 3.7L4.4.498a1 1 0 0 1 1.25.003L9.627 3.7a1 1 0 0 1 .373.78V13a3 3 0 0 1-3 3H3a3 3 0 0 1-3-3V4.482A1 1 0 0 1 .377 3.7zM2 13a1 1 0 0 0 1 1h4a1 1 0 0 0 1-1V4.958L5.02 2.561 2 4.964V13zm3-6a1 1 0 1 1 0-2 1 1 0 0 1 0 2z"/></svg>
