<svg xmlns="http://www.w3.org/2000/svg" width="16" height="16" viewBox="0 0 16 16"><path fill-rule="evenodd" d="M12.56 8.9l2.66 4.606a.3.3 0 0 1-.243.45l-1.678.094a.1.1 0 0 0-.078.044l-.953 1.432a.3.3 0 0 1-.51-.016L9.097 10.9a5.994 5.994 0 0 0 3.464-2zm-5.23 2.063L4.707 15.51a.3.3 0 0 1-.51.016l-.953-1.432a.1.1 0 0 0-.078-.044l-1.678-.094a.3.3 0 0 1-.243-.45l2.48-4.297a5.983 5.983 0 0 0 3.607 1.754zM8 10A5 5 0 1 1 8 0a5 5 0 0 1 0 10zm0-2a3 3 0 1 0 0-6 3 3 0 0 0 0 6zm0-1a2 2 0 1 1 0-4 2 2 0 0 1 0 4z"/></svg>
