<svg xmlns="http://www.w3.org/2000/svg" width="78" height="82" viewBox="0 0 78 82"><g fill="none" fill-rule="evenodd"><path fill="#F9F9F9" d="M2.12 42c-.08.99-.12 1.99-.12 3 0 20.435 16.565 37 37 37s37-16.565 37-37c0-1.01-.04-2.01-.12-3C74.353 61.032 58.425 76 39 76S3.647 61.032 2.12 42z"/><path fill="#EEE" fill-rule="nonzero" d="M39 78C17.46 78 0 60.54 0 39S17.46 0 39 0s39 17.46 39 39-17.46 39-39 39zm0-4c19.33 0 35-15.67 35-35S58.33 4 39 4 4 19.67 4 39s15.67 35 35 35z"/><path fill="#6B4FBB" d="M33 52h12c1.105 0 2 .895 2 2s-.895 2-2 2H33c-1.105 0-2-.895-2-2s.895-2 2-2zm1 5h10c1.105 0 2 .895 2 2s-.895 2-2 2H34c-1.105 0-2-.895-2-2s.895-2 2-2z"/><path fill="#E1DBF2" fill-rule="nonzero" d="M45.542 46.932l.346-2.36c.198-1.348.737-2.623 1.566-3.705 3.025-3.946 4.485-7.29 4.547-9.96C52.153 24.41 46.843 20 39 20c-7.777 0-13 4.374-13 11 0 2.4 1.462 5.73 4.573 9.846.815 1.08 1.343 2.345 1.536 3.683l.353 2.456 13.08-.054zm-17.038.624L28.15 45.1c-.097-.67-.36-1.303-.768-1.842C23.794 38.51 22 34.424 22 31c0-9.39 7.61-15 17-15s17.218 5.614 17 15c-.085 3.64-1.875 7.74-5.37 12.3-.416.54-.685 1.18-.784 1.853l-.346 2.36c-.288 1.958-1.963 3.41-3.942 3.42l-13.08.053c-1.994.008-3.69-1.455-3.974-3.43z"/><path fill="#6B4FBB" d="M41 38.732c-.598-.345-1-.992-1-1.732 0-1.105.895-2 2-2s2 .895 2 2c0 .74-.402 1.387-1 1.732V42c0 .552-.448 1-1 1s-1-.448-1-1v-3.268zm-6 0c-.598-.345-1-.992-1-1.732 0-1.105.895-2 2-2s2 .895 2 2c0 .74-.402 1.387-1 1.732V42c0 .552-.448 1-1 1s-1-.448-1-1v-3.268z"/></g></svg>
