<?xml version="1.0" encoding="UTF-8" standalone="no"?>
<svg width="22px" height="16px" viewBox="0 0 22 16" version="1.1" xmlns="http://www.w3.org/2000/svg" xmlns:xlink="http://www.w3.org/1999/xlink">
    <!-- Generator: Sketch 3.7.2 (28276) - http://www.bohemiancoding.com/sketch -->
    <title>Pasted Image 233</title>
    <desc>Created with Sketch.</desc>
    <defs></defs>
    <g id="Page-1" stroke="none" stroke-width="1" fill="none" fill-rule="evenodd">
        <g id="Pasted-Image-233" fill="#7E7C7C">
            <g id="Group-3" transform="translate(0.000000, 2.000000)">
                <path d="M6.4357,9.8588 C7.1487,9.2798 7.8797,8.7808 8.5357,8.3708 C8.5837,8.3008 8.6187,8.2338 8.6187,8.1768 L8.6187,6.8088 C8.9197,6.5218 9.0927,6.1248 9.0927,5.7028 L9.0927,3.3748 C9.0927,1.9478 7.9187,0.7858 6.4757,0.7858 L5.9687,0.7858 C4.5247,0.7858 3.3507,1.9478 3.3507,3.3748 L3.3507,5.7028 C3.3507,6.1248 3.5247,6.5218 3.8247,6.8088 L3.8247,8.5838 C3.2537,8.8738 1.8797,9.6198 0.5967,10.6618 C0.2177,10.9698 -0.0003,11.4258 -0.0003,11.9138 L-0.0003,13.5088 C-0.0003,13.5438 0.0857,13.7668 0.3467,13.7778 C1.3257,13.8198 3.8417,13.8328 5.9617,13.9038 C5.8337,13.8148 5.7447,13.6748 5.7447,13.5088 L5.7447,11.5498 C5.7447,10.9848 5.9967,10.2158 6.4357,9.8588" id="Fill-1"></path>
            </g>
            <g id="Group-6" transform="translate(6.000000, 0.000000)">
                <path d="M15.3092,12.1 C13.6932,10.787 11.9592,9.86 11.3042,9.53 L11.3042,7.235 C11.6722,6.9 11.8862,6.428 11.8862,5.925 L11.8862,3.066 C11.8862,1.376 10.4952,0 8.7852,0 L8.1632,0 C6.4532,0 5.0622,1.376 5.0622,3.066 L5.0622,5.925 C5.0622,6.428 5.2752,6.9 5.6442,7.235 L5.6442,9.53 C4.9892,9.86 3.2542,10.787 1.6392,12.1 C1.2002,12.457 0.9482,12.985 0.9482,13.55 L0.9482,15.509 C0.9482,15.78 1.1702,16 1.4442,16 L8.1172,16 L8.1172,11.704 C6.6812,11.595 5.5652,10.853 5.5652,9.945 C5.5652,9.804 5.5982,9.669 5.6482,9.538 C5.9502,10.326 7.0982,10.913 8.4762,10.913 C9.8532,10.913 11.0012,10.326 11.3032,9.538 C11.3532,9.669 11.3862,9.804 11.3862,9.945 C11.3862,10.793 10.4152,11.5 9.1172,11.679 L9.1172,16 L15.5032,16 C15.7772,16 16.0002,15.78 16.0002,15.509 L16.0002,13.55 C16.0002,12.985 15.7482,12.457 15.3092,12.1" id="Fill-4"></path>
            </g>
        </g>
    </g>
</svg>