<?xml version="1.0" encoding="UTF-8" standalone="no"?>
<svg width="22px" height="16px" viewBox="0 0 22 16" version="1.1" xmlns="http://www.w3.org/2000/svg" xmlns:xlink="http://www.w3.org/1999/xlink">
    <!-- Generator: Sketch 3.7.2 (28276) - http://www.bohemiancoding.com/sketch -->
    <title>Group</title>
    <desc>Created with Sketch.</desc>
    <defs></defs>
    <g id="Page-1" stroke="none" stroke-width="1" fill="none" fill-rule="evenodd">
        <g id="Group" fill="#7E7C7C">
            <path d="M6.4357,11.8588 C7.1487,11.2798 7.8797,10.7808 8.5357,10.3708 C8.5837,10.3008 8.6187,10.2338 8.6187,10.1768 L8.6187,8.8088 C8.9197,8.5218 9.0927,8.1248 9.0927,7.7028 L9.0927,5.3748 C9.0927,3.9478 7.9187,2.7858 6.4757,2.7858 L5.9687,2.7858 C4.5247,2.7858 3.3507,3.9478 3.3507,5.3748 L3.3507,7.7028 C3.3507,8.1248 3.5247,8.5218 3.8247,8.8088 L3.8247,10.5838 C3.2537,10.8738 1.8797,11.6198 0.5967,12.6618 C0.2177,12.9698 -0.0003,13.4258 -0.0003,13.9138 L-0.0003,15.5088 C-0.0003,15.5438 0.0857,15.7668 0.3467,15.7778 C1.3257,15.8198 3.8417,15.8328 5.9617,15.9038 C5.8337,15.8148 5.7447,15.6748 5.7447,15.5088 L5.7447,13.5498 C5.7447,12.9848 5.9967,12.2158 6.4357,11.8588" id="Fill-1"></path>
            <path d="M21.3092,12.1 C19.6932,10.787 17.9592,9.86 17.3042,9.53 L17.3042,7.235 C17.6722,6.9 17.8862,6.428 17.8862,5.925 L17.8862,3.066 C17.8862,1.376 16.4952,0 14.7852,0 L14.1632,0 C12.4532,0 11.0622,1.376 11.0622,3.066 L11.0622,5.925 C11.0622,6.428 11.2752,6.9 11.6442,7.235 L11.6442,9.53 C10.9892,9.86 9.2542,10.787 7.6392,12.1 C7.2002,12.457 6.9482,12.985 6.9482,13.55 L6.9482,15.509 C6.9482,15.78 7.1702,16 7.4442,16 L14.1172,16 L14.1172,11.704 C12.6812,11.595 11.5652,10.853 11.5652,9.945 C11.5652,9.804 11.5982,9.669 11.6482,9.538 C11.9502,10.326 13.0982,10.913 14.4762,10.913 C15.8532,10.913 17.0012,10.326 17.3032,9.538 C17.3532,9.669 17.3862,9.804 17.3862,9.945 C17.3862,10.793 16.4152,11.5 15.1172,11.679 L15.1172,16 L21.5032,16 C21.7772,16 22.0002,15.78 22.0002,15.509 L22.0002,13.55 C22.0002,12.985 21.7482,12.457 21.3092,12.1" id="Fill-4"></path>
        </g>
    </g>
</svg>