<svg xmlns="http://www.w3.org/2000/svg" width="16" height="16" viewBox="0 0 16 16"><path fill-rule="evenodd" d="M8.588 8.942l1.173 5.862A1 1 0 0 1 8.78 16H7.22a1 1 0 0 1-.98-1.196l1.172-5.862a3.014 3.014 0 0 0 1.176 0zM8 8a2 2 0 1 1 0-4 2 2 0 0 1 0 4zM4.464 2.464L5.88 3.88a3 3 0 0 0 0 4.242L4.464 9.536a5 5 0 0 1 0-7.072zm7.072 7.072L10.12 8.12a3 3 0 0 0 0-4.242l1.415-1.415a5 5 0 0 1 0 7.072zM2.343.343l1.414 1.414a6 6 0 0 0 0 8.486l-1.414 1.414a8 8 0 0 1 0-11.314zm11.314 11.314l-1.414-1.414a6 6 0 0 0 0-8.486L13.657.343a8 8 0 0 1 0 11.314z"/></svg>
