<?xml version="1.0" encoding="UTF-8" standalone="no"?>
<svg width="16px" height="17px" viewBox="0 0 16 17" version="1.1" xmlns="http://www.w3.org/2000/svg" xmlns:xlink="http://www.w3.org/1999/xlink">
    <!-- Generator: Sketch 3.7.2 (28276) - http://www.bohemiancoding.com/sketch -->
    <title>Group</title>
    <desc>Created with Sketch.</desc>
    <defs></defs>
    <g id="Page-1" stroke="none" stroke-width="1" fill="none" fill-rule="evenodd">
        <g id="Group" fill="#7E7C7C">
            <path d="M15.1111,1 L0.8891,1 C0.3981,1 0.0001,1.446 0.0001,1.996 L0.0001,15.945 C0.0001,16.495 0.3981,16.941 0.8891,16.941 L15.1111,16.941 C15.6021,16.941 16.0001,16.495 16.0001,15.945 L16.0001,1.996 C16.0001,1.446 15.6021,1 15.1111,1 L15.1111,1 L15.1111,1 Z M14.0001,6.0002 L14.0001,14.949 L2.0001,14.949 L2.0001,6.0002 L14.0001,6.0002 Z M14.0001,4.0002 L14.0001,2.993 L2.0001,2.993 L2.0001,4.0002 L14.0001,4.0002 Z" id="Combined-Shape"></path>
            <polygon id="Fill-11" points="3 2.0002 5 2.0002 5 0.0002 3 0.0002"></polygon>
            <polygon id="Fill-16" points="11 2.0002 13 2.0002 13 0.0002 11 0.0002"></polygon>
            <path d="M5.37709616,11.5511984 L6.92309616,12.7821984 C7.35112915,13.123019 7.97359761,13.0565604 8.32002627,12.6330535 L10.7740263,9.63305349 C11.1237073,9.20557058 11.0606364,8.57555475 10.6331535,8.22587373 C10.2056706,7.87619272 9.57565475,7.93926361 9.22597373,8.36674651 L6.77197373,11.3667465 L8.16890384,11.2176016 L6.62290384,9.98660159 C6.19085236,9.6425813 5.56172188,9.71394467 5.21770159,10.1459962 C4.8736813,10.5780476 4.94504467,11.2071781 5.37709616,11.5511984 L5.37709616,11.5511984 Z" id="Stroke-21"></path>
        </g>
    </g>
</svg>