<svg width="256" height="146" xmlns="http://www.w3.org/2000/svg" xmlns:xlink="http://www.w3.org/1999/xlink"><defs><mask id="d" x="0" y="0" width="178.7" height="115.4" fill="#FFF"><use xlink:href="#a"/></mask><mask id="e" x="0" y="0" width="43.1" height="36.4" fill="#FFF"><use xlink:href="#b"/></mask><mask id="f" x="0" y="0" width="43.1" height="36.4" fill="#FFF"><use xlink:href="#c"/></mask><path d="M8.8 31.5H33a10 10 0 0 0 10-10V10A10 10 0 0 0 33 0H10A10 10 0 0 0 0 10v11.6c0 1.2.2 2.4.7 3.5H0v7.5c0 4 2.4 5 5.3 2.2l3.5-3.3z" id="b"/><path d="M8.8 31.5H33a10 10 0 0 0 10-10V10A10 10 0 0 0 33 0H10A10 10 0 0 0 0 10v11.6c0 1.2.2 2.4.7 3.5H0v7.5c0 4 2.4 5 5.3 2.2l3.5-3.3z" id="c"/><rect id="a" width="178.7" height="115.4" rx="10"/></defs><g fill="none" fill-rule="evenodd"><g transform="translate(0 3.9)" fill="var(--gray-10, #f9f9f9)"><rect x="19.3" width="77.1" height="14.2" rx="7.1"/><rect y="28.4" width="84.9" height="14.2" rx="7.1"/><rect x="133.7" y="42.5" width="122.1" height="14.2" rx="7.1"/><rect x="82.9" y="127" width="101.6" height="14.2" rx="7.1"/><rect x="42.4" y="99.3" width="101.6" height="14.2" rx="7.1"/><rect x="19.9" y="70.9" width="225" height="14.2" rx="7.1"/><path d="M98.4 14.2h-85 13.9a7.1 7.1 0 0 1 7 7 7 7 0 0 1-7 7.2H13.5h84.9-23.5a7.1 7.1 0 0 1-7-7.1 7 7 0 0 1 7-7.1h23.5zm162 42.5H185h23.5a7.1 7.1 0 0 1 7 7.1 7 7 0 0 1-7 7.1H185h75.3-23.5a7.1 7.1 0 0 1-7-7 7 7 0 0 1 7-7.2h23.5zM103.5 85.1H28.3h23.4a7.1 7.1 0 0 1 7.1 7 7 7 0 0 1-7 7.2H28.2h75.2H80a7.1 7.1 0 0 1-7.1-7.1 7 7 0 0 1 7-7.1h23.5zm48.2 28.4H76.5h13.8a7.1 7.1 0 0 1 7 7 7 7 0 0 1-7 7.1H76.5h75.2-33a7.1 7.1 0 0 1-7.2-7 7 7 0 0 1 7.1-7.1h33.1z"/></g><g transform="translate(38.6 12.2)"><use stroke="var(--gray-200, #EEE)" mask="url(#d)" stroke-width="8" fill="var(--white, #fff)" xlink:href="#a"/><path fill="var(--gray-200, #EEE)" d="M2.6 18.7h174.2v2.6H2.6z"/><g fill="var(--gray-100, #EEE)"><g transform="translate(21.9 38.7)"><g fill="var(--dark-icon-color-purple-2, #B5A7DD)"><rect y=".6" width="3.9" height="1.3" rx=".6"/><rect y="7.7" width="3.9" height="1.3" rx=".6"/><rect y="14.8" width="3.9" height="1.3" rx=".6"/></g><rect x="9.6" width="9.6" height="2.6" rx="1.3"/><rect x="46.3" width="9.6" height="2.6" rx="1.3"/><rect x="25.1" y="14.2" width="9.6" height="2.6" rx="1.3"/><rect fill="#FC6D26" x="34.1" y="7.1" width="9.6" height="2.6" rx="1.3"/><rect fill="#FC6D26" opacity=".5" x="30.9" width="12.9" height="2.6" rx="1.3"/><rect x="9.6" y="14.2" width="12.9" height="2.6" rx="1.3"/><rect x="18.6" y="7.1" width="12.9" height="2.6" rx="1.3"/><rect fill="#FC6D26" x="21.9" width="6.4" height="2.6" rx="1.3"/><rect x="9.6" y="7.1" width="6.4" height="2.6" rx="1.3"/></g><g transform="translate(21.9 60)"><g fill="var(--dark-icon-color-purple-2, #B5A7DD)"><rect y=".6" width="3.9" height="1.3" rx=".6"/><rect y="7.7" width="3.9" height="1.3" rx=".6"/><rect y="14.8" width="3.9" height="1.3" rx=".6"/></g><rect fill="#FC6D26" x="9.6" width="9.6" height="2.6" rx="1.3"/><rect x="46.3" width="9.6" height="2.6" rx="1.3"/><rect fill="#FC6D26" opacity=".5" x="25.1" y="14.2" width="9.6" height="2.6" rx="1.3"/><rect x="34.1" y="7.1" width="9.6" height="2.6" rx="1.3"/><rect fill="#FC6D26" x="30.9" width="12.9" height="2.6" rx="1.3"/><rect fill="#FC6D26" x="9.6" y="14.2" width="12.9" height="2.6" rx="1.3"/><rect x="18.6" y="7.1" width="12.9" height="2.6" rx="1.3"/><rect fill="#FC6D26" opacity=".5" x="21.9" width="6.4" height="2.6" rx="1.3"/><rect x="9.6" y="7.1" width="6.4" height="2.6" rx="1.3"/></g><g transform="translate(21.9 81.2)"><g fill="var(--dark-icon-color-purple-2, #B5A7DD)"><rect y=".6" width="3.9" height="1.3" rx=".6"/><rect y="7.7" width="3.9" height="1.3" rx=".6"/><rect y="14.8" width="3.9" height="1.3" rx=".6"/></g><rect x="9.6" width="9.6" height="2.6" rx="1.3"/><rect x="46.3" width="9.6" height="2.6" rx="1.3"/><rect x="25.1" y="14.2" width="9.6" height="2.6" rx="1.3"/><rect x="34.1" y="7.1" width="9.6" height="2.6" rx="1.3"/><rect fill="#FC6D26" x="30.9" width="12.9" height="2.6" rx="1.3"/><rect x="9.6" y="14.2" width="12.9" height="2.6" rx="1.3"/><rect x="18.6" y="7.1" width="12.9" height="2.6" rx="1.3"/><rect fill="#FC6D26" opacity=".5" x="21.9" width="6.4" height="2.6" rx="1.3"/><rect x="9.6" y="7.1" width="6.4" height="2.6" rx="1.3"/></g><g transform="translate(101 38)"><g fill="var(--dark-icon-color-purple-3, #6B4FBB)"><rect opacity=".5" x="25.1" y="14.2" width="9.6" height="2.6" rx="1.3"/><rect x="34.1" y="7.1" width="9.6" height="2.6" rx="1.3"/><rect opacity=".5" x="30.9" width="12.9" height="2.6" rx="1.3"/><rect x="9.6" y="14.2" width="12.9" height="2.6" rx="1.3"/><rect x="21.9" width="6.4" height="2.6" rx="1.3"/><rect opacity=".5" x="25.1" y="35.5" width="9.6" height="2.6" rx="1.3"/><rect x="18.6" y="28.4" width="9.6" height="2.6" rx="1.3"/><rect x="30.9" y="21.3" width="12.9" height="2.6" rx="1.3"/><rect x="9.6" y="42.5" width="9.6" height="2.6" rx="1.3"/><rect opacity=".5" x="34.1" y="49.6" width="9.6" height="2.6" rx="1.3"/><rect x="18.6" y="49.6" width="12.9" height="2.6" rx="1.3"/></g><g fill="var(--dark-icon-color-orange-1, #FDE5D8)"><rect y=".6" width="3.9" height="1.3" rx=".6"/><rect y="7.7" width="3.9" height="1.3" rx=".6"/><rect y="14.8" width="3.9" height="1.3" rx=".6"/><rect y="21.9" width="3.9" height="1.3" rx=".6"/><rect y="29" width="3.9" height="1.3" rx=".6"/><rect y="36.1" width="3.9" height="1.3" rx=".6"/><rect y="43.2" width="3.9" height="1.3" rx=".6"/><rect y="50.3" width="3.9" height="1.3" rx=".6"/><rect y="57.4" width="3.9" height="1.3" rx=".6"/></g><rect x="9.6" width="9.6" height="2.6" rx="1.3"/><rect x="46.3" width="9.6" height="2.6" rx="1.3"/><rect x="18.6" y="7.1" width="12.9" height="2.6" rx="1.3"/><rect x="9.6" y="7.1" width="6.4" height="2.6" rx="1.3"/><rect x="9.6" y="21.3" width="9.6" height="2.6" rx="1.3"/><rect x="37.3" y="14.2" width="9.6" height="2.6" rx="1.3"/><rect x="9.6" y="35.5" width="12.9" height="2.6" rx="1.3"/><rect x="21.9" y="21.3" width="6.4" height="2.6" rx="1.3"/><rect x="9.6" y="28.4" width="6.4" height="2.6" rx="1.3"/><rect x="30.9" y="28.4" width="6.4" height="2.6" rx="1.3"/><rect x="39.9" y="28.4" width="6.4" height="2.6" rx="1.3"/><rect x="49.5" y="14.2" width="6.4" height="2.6" rx="1.3"/><rect x="25.1" y="56.7" width="9.6" height="2.6" rx="1.3"/><rect x="9.6" y="56.7" width="12.9" height="2.6" rx="1.3"/><rect x="21.9" y="42.5" width="6.4" height="2.6" rx="1.3"/><rect x="46.3" y="49.6" width="6.4" height="2.6" rx="1.3"/><rect x="9.6" y="49.6" width="6.4" height="2.6" rx="1.3"/></g></g></g><g transform="translate(196)"><use stroke="var(--dark-icon-color-orange-1, #FDE5D8)" mask="url(#e)" stroke-width="8" fill="var(--white, #fff)" xlink:href="#b"/><g fill="var(--dark-icon-color-orange-2, #FDB692)"><rect x="9" y="9" width="18.6" height="1.9" rx="1"/><rect x="9" y="14.8" width="25.1" height="1.9" rx="1"/><rect x="9" y="20.6" width="18.6" height="1.9" rx="1"/></g></g><g transform="translate(189 41.3)"><ellipse stroke="#FC6D26" stroke-width="3" fill="#fde5d8" cx="10.3" cy="9.7" rx="9.6" ry="9.7"/><path d="M0 9a8.4 8.4 0 0 0 8-4.3m1-4V0" stroke="#FC6D26" stroke-width="2"/><path d="M5 2a10.3 10.3 0 0 0 8.5 4.4c2.1 0 4-.6 5.7-1.7" stroke="#FC6D26" stroke-width="2"/><circle fill="#FC6D26" cx="6.8" cy="11.3" r="1"/><circle fill="#FC6D26" cx="13.8" cy="11.3" r="1"/></g><g transform="translate(47 96)"><ellipse stroke="var(--dark-icon-color-purple-3, #6B4FBB)" stroke-width="3" fill="#F4F1FA" cx="9.6" cy="10.3" rx="9.6" ry="9.7"/><path d="m12.9 4.5-1.7-2-1.6 2-1.6-2-1.6 2-1.6-2-1.6 2H1.5A9.6 9.6 0 0 1 9.6 0c3.5 0 6.5 1.8 8.2 4.5h-1.7l-1.6-2-1.6 2z" fill="var(--dark-icon-color-purple-3, #6B4FBB)"/><circle fill="var(--dark-icon-color-purple-3, #6B4FBB)" cx="6.1" cy="11.3" r="1"/><circle fill="var(--dark-icon-color-purple-3, #6B4FBB)" cx="13.2" cy="11.3" r="1"/></g><g transform="matrix(-1 0 0 1 56.6 54.8)" fill="var(--dark-icon-color-purple-2, #b5a8dd)"><use stroke="var(--dark-icon-color-purple-1, #E2DCF2)" mask="url(#f)" stroke-width="8" fill="var(--white, #fff)" xlink:href="#c"/><rect x="15.4" y="9" width="18.6" height="1.9" rx="1"/><rect x="21.9" y="14.8" width="12.2" height="1.9" rx="1"/><rect x="21.9" y="20.6" width="12.2" height="1.9" rx="1"/></g></g></svg>
