<svg xmlns="http://www.w3.org/2000/svg" width="16" height="16" viewBox="0 0 16 16"><path fill-rule="evenodd" d="M6 14H2.435a2 2 0 0 1-1.761-2.947c.962-1.788 1.521-3.065 1.68-3.832.322-1.566.947-5.501 4.65-6.134a1 1 0 1 1 1.994-.024c3.755.528 4.375 4.27 4.761 6.043.188.86.742 2.188 1.661 3.982A2 2 0 0 1 13.64 14H10a2 2 0 1 1-4 0zm5.805-6.468c-.325-1.492-.37-1.674-.61-2.288C10.6 3.716 9.742 3 8.07 3c-1.608 0-2.49.718-3.103 2.197-.28.676-.356.982-.654 2.428-.208 1.012-.827 2.424-1.877 4.375H13.64c-.993-1.937-1.6-3.396-1.835-4.468z"/></svg>
