<svg xmlns="http://www.w3.org/2000/svg" viewBox="0 0 16 16" enable-background="new 0 0 16 16"><path d="m8 0c-4.4 0-8 3.6-8 8s3.6 8 8 8 8-3.6 8-8-3.6-8-8-8m0 14c-3.3 0-6-2.7-6-6s2.7-6 6-6 6 2.7 6 6-2.7 6-6 6"/><circle cx="12.5" cy="9.5" r=".5"/><circle cx="12.5" cy="6.5" r=".5"/><circle cx="10.5" cy="12.5" r=".5"/><circle cx="10.5" cy="3.5" r=".5"/><circle cx="5.5" cy="12.5" r=".5"/><circle cx="5.5" cy="3.5" r=".5"/><circle cx="3.5" cy="9.5" r=".5"/><circle cx="3.5" cy="6.5" r=".5"/><path d="m9 7.2c0 0 0-.1 0-.2v-1.9c0-.1 0-.1-.1-.2l-.8-.8c0 0-.1 0-.1 0l-.9.8c-.1.1-.1.1-.1.2v1.9c0 .1 0 .2 0 .2-.6.4-1 1-1 1.8 0 1.1.9 2 2 2s2-.9 2-2c0-.8-.4-1.4-1-1.8m-1 2.8c-.6 0-1-.4-1-1s.4-1 1-1 1 .4 1 1-.4 1-1 1"/></svg>
