<?xml version="1.0" encoding="UTF-8" standalone="no"?>
<svg width="16px" height="16px" viewBox="0 0 16 16" version="1.1" xmlns="http://www.w3.org/2000/svg" xmlns:xlink="http://www.w3.org/1999/xlink">
    <!-- Generator: Sketch 3.8.3 (29802) - http://www.bohemiancoding.com/sketch -->
    <title>Pasted Image 246</title>
    <desc>Created with Sketch.</desc>
    <defs></defs>
    <g id="Page-1" stroke="none" stroke-width="1" fill="none" fill-rule="evenodd">
        <path d="M12.5,14 C11.672,14 11,13.328 11,12.5 C11,11.672 11.672,11 12.5,11 C13.328,11 14,11.672 14,12.5 C14,13.328 13.328,14 12.5,14 M12.5,9 L3.5,9 C1.567,9 0,10.567 0,12.5 C0,14.433 1.567,16 3.5,16 L12.5,16 C14.433,16 16,14.433 16,12.5 C16,10.567 14.433,9 12.5,9 M3.5,2 C4.328,2 5,2.672 5,3.5 C5,4.328 4.328,5 3.5,5 C2.672,5 2,4.328 2,3.5 C2,2.672 2.672,2 3.5,2 M3.5,7 L12.5,7 C14.433,7 16,5.433 16,3.5 C16,1.567 14.433,0 12.5,0 L3.5,0 C1.567,0 0,1.567 0,3.5 C0,5.433 1.567,7 3.5,7" id="Pasted-Image-246" fill="#303030"></path>
    </g>
</svg>