<svg xmlns="http://www.w3.org/2000/svg" width="32" height="20" viewBox="0 0 32 20" class="btn-template-icon icon-rails">
  <g fill="none" fill-rule="evenodd" transform="translate(0 -6)">
    <rect width="32" height="32"/>
    <path fill="#C00" fill-rule="nonzero" d="M0.984615385,25.636044 C0.984615385,25.636044 1.40659341,21.4725275 4.36043956,16.5494505 C7.31428571,11.6263736 12.3498901,7.8989011 16.4430769,7.53318681 C24.5872527,6.71736264 31.9015385,14.0175824 31.9015385,14.0175824 C31.9015385,14.0175824 31.6624176,14.1863736 31.4092308,14.3973626 C23.4197802,8.48967033 18.5389011,11.2747253 17.0057143,12.0202198 C9.97274725,15.9446154 12.0967033,25.636044 12.0967033,25.636044 L0.984615385,25.636044 Z M24.1371429,8.32087912 C23.687033,8.13802198 23.2369231,7.96923077 22.7727473,7.81450549 L22.829011,6.88615385 C23.7151648,7.13934066 24.0668132,7.30813187 24.1934066,7.37846154 L24.1371429,8.32087912 Z M22.8008791,11.3028571 C23.250989,11.330989 23.7151648,11.3872527 24.1934066,11.4857143 L24.1371429,12.3578022 C23.672967,12.2593407 23.2087912,12.2030769 22.7446154,12.189011 L22.8008791,11.3028571 Z M17.5964835,6.91428571 C17.1885714,6.91428571 16.7806593,6.92835165 16.3727473,6.97054945 L16.1054945,6.14065934 C16.5696703,6.0843956 17.0197802,6.05626374 17.4558242,6.05626374 L17.7371429,6.91428571 C17.6949451,6.91428571 17.6386813,6.91428571 17.5964835,6.91428571 Z M18.2716484,12.0905495 C18.6232967,11.9358242 19.0312088,11.7810989 19.5094505,11.6404396 L19.8189011,12.5687912 C19.410989,12.6953846 19.0030769,12.8641758 18.5951648,13.0610989 L18.2716484,12.0905495 Z M11.8857143,8.39120879 C11.52,8.57406593 11.1683516,8.78505495 10.8026374,9.01010989 L10.1556044,8.02549451 C10.5353846,7.80043956 10.9010989,7.60351648 11.2527473,7.42065934 L11.8857143,8.39120879 Z M14.7692308,14.7208791 C15.0224176,14.3973626 15.3178022,14.0738462 15.6413187,13.7784615 L16.2742857,14.7349451 C15.9648352,15.0584615 15.6835165,15.381978 15.4443956,15.7336264 L14.7692308,14.7208791 Z M12.7296703,19.2501099 C12.8421978,18.7437363 12.9687912,18.2232967 13.1516484,17.7028571 L14.1643956,18.5046154 C14.0237363,19.0531868 13.9252747,19.6017582 13.869011,20.1503297 L12.7296703,19.2501099 Z M6.56879121,12.5687912 C6.23120879,12.9204396 5.90769231,13.3002198 5.61230769,13.68 L4.52923077,12.7516484 C4.85274725,12.4 5.2043956,12.0483516 5.57010989,11.6967033 L6.56879121,12.5687912 Z M2.32087912,18.8562637 C2.09582418,19.3767033 1.80043956,20.0659341 1.61758242,20.5441758 L0,19.9534066 C0.140659341,19.5736264 0.436043956,18.8703297 0.703296703,18.2654945 L2.32087912,18.8562637 Z M12.5186813,22.8228571 L14.0378022,23.3714286 C14.1221978,24.0325275 14.2487912,24.6514286 14.3753846,25.2 L12.6874725,24.5951648 C12.6171429,24.1731868 12.5468132,23.5683516 12.5186813,22.8228571 Z"/>
  </g>
</svg>
