<svg width="12" height="16" viewBox="0 0 12 16" xmlns="http://www.w3.org/2000/svg"><path d="M1.048 1.845a.508.508 0 0 1-.32-.105c-.091-.07-.136-.154-.136-.25V.78c0-.095.045-.178.135-.249a.508.508 0 0 1 .321-.105h10.043c.124 0 .23.035.321.105.09.07.136.154.136.25v.71c0 .095-.045.178-.136.249a.508.508 0 0 1-.32.105"/><path d="M.687 7.973c-.09.087-.122.16-.093.22.028.06.104.09.228.09h10.5c.123 0 .2-.03.228-.09.029-.06-.002-.133-.093-.22L6.393 3.09A.458.458 0 0 0 6.257 3h-.37a.626.626 0 0 0-.136.09"/><path d="M.687 14.973c-.09.087-.122.16-.093.22.028.06.104.09.228.09h10.5c.123 0 .2-.03.228-.09.029-.06-.002-.133-.093-.22L6.393 10.09A.458.458 0 0 0 6.257 10h-.37a.626.626 0 0 0-.136.09"/></svg>
