<svg width="16" height="33" class="gitlab-icon-scroll-up" viewBox="0 0 16 33" xmlns="http://www.w3.org/2000/svg">
  <path fill="#ffffff" d="M1.385 14.534v12.47a4.145 4.145 0 0 0 4.144 4.15h4.942a4.151 4.151 0 0 0 4.144-4.15v-12.47a4.145 4.145 0 0 0-4.144-4.15H5.53a4.151 4.151 0 0 0-4.144 4.15zM8.88 2.609V6.96a.688.688 0 0 1-.69.688.687.687 0 0 1-.69-.688V2.627L6.155 3.972a.69.69 0 0 1-.976-.976L7.705.47a.685.685 0 0 1 .494-.2.685.685 0 0 1 .493.2l2.526 2.526a.69.69 0 1 1-.976.976L8.88 2.609zM0 14.534A5.536 5.536 0 0 1 5.529 9h4.942A5.53 5.53 0 0 1 16 14.534v12.47a5.536 5.536 0 0 1-5.529 5.534H5.53A5.53 5.53 0 0 1 0 27.005V14.534zm7 1.01a1 1 0 1 1 2 0v2.143a1 1 0 1 1-2 0v-2.143z" fill-rule="evenodd"/>
</svg>
