<svg width="12" height="16" viewBox="0 0 12 16" xmlns="http://www.w3.org/2000/svg">
  <path class="first-triangle" d="M1.048 14.155a.508.508 0 0 0-.32.105c-.091.07-.136.154-.136.25v.71c0 .095.045.178.135.249.09.07.197.105.321.105h10.043c.124 0 .23-.035.321-.105.09-.07.136-.154.136-.25v-.71c0-.095-.045-.178-.136-.249a.508.508 0 0 0-.32-.105"/>
  <path class="second-triangle" d="M.687 8.027c-.09-.087-.122-.16-.093-.22.028-.06.104-.09.228-.09h10.5c.123 0 .2.03.228.09.029.06-.002.133-.093.22L6.393 12.91a.458.458 0 0 1-.136.089h-.37a.626.626 0 0 1-.136-.09"/>
  <path class="third-triangle" d="M.687 1.027C.597.94.565.867.594.807c.028-.06.104-.09.228-.09h10.5c.123 0 .2.03.228.09.029.06-.002.133-.093.22L6.393 5.91A.458.458 0 0 1 6.257 6h-.37a.626.626 0 0 1-.136-.09"/>
</svg>
