<svg width="16" height="33" class="gitlab-icon-scroll-up-hover" viewBox="0 0 16 33" xmlns="http://www.w3.org/2000/svg">
  <path fill="#ffffff" d="M8.88 2.646l1.362 1.362a.69.69 0 0 0 .976-.976L8.692.507A.685.685 0 0 0 8.2.306a.685.685 0 0 0-.494.2L5.179 3.033a.69.69 0 1 0 .976.976L7.5 2.663v4.179c0 .38.306.688.69.688.381 0 .69-.306.69-.688V2.646zM0 14.534A5.536 5.536 0 0 1 5.529 9h4.942A5.53 5.53 0 0 1 16 14.534v12.47a5.536 5.536 0 0 1-5.529 5.534H5.53A5.53 5.53 0 0 1 0 27.005V14.534zm7 1.01a1 1 0 1 1 2 0v2.143a1 1 0 1 1-2 0v-2.143z" fill-rule="evenodd"/>
</svg>
