<svg width="16" height="33" class="gitlab-icon-scroll-down-hover" viewBox="0 0 16 33" xmlns="http://www.w3.org/2000/svg">
  <path fill="#ffffff" d="M8.88 30.27v-4.351a.688.688 0 0 0-.69-.688.687.687 0 0 0-.69.688v4.334l-1.345-1.346a.69.69 0 0 0-.976.976l2.526 2.526a.685.685 0 0 0 .494.2.685.685 0 0 0 .493-.2l2.526-2.526a.69.69 0 1 0-.976-.976L8.88 30.27zM0 5.534A5.536 5.536 0 0 1 5.529 0h4.942A5.53 5.53 0 0 1 16 5.534v12.47a5.536 5.536 0 0 1-5.529 5.534H5.53A5.53 5.53 0 0 1 0 18.005V5.534zm7 1.01a1 1 0 1 1 2 0v2.143a1 1 0 1 1-2 0V6.544z" fill-rule="evenodd"/>
</svg>
