<svg xmlns="http://www.w3.org/2000/svg" width="16" height="16" viewBox="0 0 16 16"><path fill-rule="evenodd" d="M2.415 5.803L1.317 4.084A.5.5 0 0 1 1.35 3.5l.805-.994a.5.5 0 0 1 .564-.153l1.878.704a5.975 5.975 0 0 1 1.65-.797L6.885.342A.5.5 0 0 1 7.36 0h1.28a.5.5 0 0 1 .474.342l.639 1.918c.594.181 1.15.452 1.65.797l1.877-.704a.5.5 0 0 1 .565.153l.805.994a.5.5 0 0 1 .032.584l-1.097 1.719c.217.551.354 1.143.399 1.76l1.731 1.058a.5.5 0 0 1 .227.54l-.288 1.246a.5.5 0 0 1-.44.385l-2.008.19a6.026 6.026 0 0 1-1.142 1.431l.265 1.995a.5.5 0 0 1-.277.516l-1.15.56a.5.5 0 0 1-.576-.1l-1.424-1.452a6.047 6.047 0 0 1-1.804 0l-1.425 1.453a.5.5 0 0 1-.576.1l-1.15-.561a.5.5 0 0 1-.276-.516l.265-1.995a6.026 6.026 0 0 1-1.143-1.43l-2.008-.191a.5.5 0 0 1-.44-.385L.058 9.16a.5.5 0 0 1 .226-.539l1.732-1.058a5.968 5.968 0 0 1 .399-1.76zM8 11a3 3 0 1 0 0-6 3 3 0 0 0 0 6z"/></svg>
