<svg xmlns="http://www.w3.org/2000/svg" width="16" height="16" viewBox="0 0 16 16"><path d="M10.67 9.31a3.001 3.001 0 0 1 2.062 5.546 3 3 0 0 1-3.771-4.559 1.007 1.007 0 0 1-.095-.137l-4.5-7.794a1 1 0 1 1 1.732-1l4.5 7.794c.028.05.052.1.071.15zm-3.283.35l-.289.5c-.028.05-.06.095-.095.137a3.001 3.001 0 0 1-3.77 4.56A3 3 0 0 1 5.294 9.31c.02-.051.043-.102.071-.15l.866-1.5 1.155 2zm2.31-4l-1.156-2 1.325-2.294a1 1 0 1 1 1.732 1L9.696 5.66zm-5.465 7.464a1 1 0 1 0 1-1.732 1 1 0 0 0-1 1.732zm7.5 0a1 1 0 1 0-1-1.732 1 1 0 0 0 1 1.732z"/></svg>
