<?xml version="1.0" encoding="UTF-8" standalone="no"?>
<svg width="16px" height="16px" viewBox="0 0 16 16" version="1.1" xmlns="http://www.w3.org/2000/svg" xmlns:xlink="http://www.w3.org/1999/xlink">
    <!-- Generator: Sketch 3.8.3 (29802) - http://www.bohemiancoding.com/sketch -->
    <title>Pasted Image 241</title>
    <desc>Created with Sketch.</desc>
    <defs></defs>
    <g id="Page-1" stroke="none" stroke-width="1" fill="none" fill-rule="evenodd">
        <path d="M2.004,12.9999459 L3.939,12.9999459 L3.939,4.99994585 L2.004,4.99994585 L2.004,12.9999459 Z M7.017,9.99994585 L13.018,9.99994585 L13.018,8.99994585 L7.017,8.99994585 L7.017,9.99994585 Z M7.017,7.99994585 L13.018,7.99994585 L13.018,6.99994585 L7.017,6.99994585 L7.017,7.99994585 Z M7.017,5.99994585 L13.018,5.99994585 L13.018,4.99994585 L7.017,4.99994585 L7.017,5.99994585 Z M14.754,-5.41499267e-05 L4.938,-5.41499267e-05 C4.386,-5.41499267e-05 3.938,0.44794585 3.938,0.99994585 L3.938,2.99994585 L1,2.99994585 C0.448,2.99994585 0,3.44794585 0,3.99994585 L0,12.9999459 C0.037,13.4999459 -0.25,16.0509459 3.938,15.9999459 L12.408,15.9999459 C12.408,15.9999459 15.754,15.9169459 15.754,13.9999459 L15.754,0.99994585 C15.754,0.44794585 15.306,-5.41499267e-05 14.754,-5.41499267e-05 L14.754,-5.41499267e-05 Z" id="Pasted-Image-241" fill="#7E7D7D"></path>
    </g>
</svg>