<svg xmlns="http://www.w3.org/2000/svg" width="360" height="220" viewBox="0 0 360 220"><g fill="none" fill-rule="evenodd"><path fill="#000" fill-opacity=".02" d="M125 44V24.003C125 18.48 129.483 14 135.005 14h89.99C230.52 14 235 18.477 235 24.003V43h84.992C326.624 43 332 48.372 332 55.002v144.996c0 6.63-5.38 12.002-12.008 12.002h-85.984c-6.632 0-12.008-5.372-12.008-12.002V183h-78v17.002c0 6.626-5.38 11.998-12.008 11.998H46.008C39.376 212 34 206.624 34 200.002V55.998C34 49.372 39.38 44 46.008 44H125z"/><g transform="translate(214 36)"><rect width="110" height="168" x="2" y="2" fill="#FFF" rx="10"/><path fill="#EEE" fill-rule="nonzero" d="M4 12.006c0-2.208.896-4.27 2.457-5.77a2 2 0 0 0-2.773-2.883A11.974 11.974 0 0 0 0 12.006a2 2 0 1 0 4 0zM14.388 4h8a2 2 0 0 0 0-4h-8a2 2 0 1 0 0 4zm18 0h8a2 2 0 0 0 0-4h-8a2 2 0 1 0 0 4zm18 0h8a2 2 0 0 0 0-4h-8a2 2 0 1 0 0 4zm18 0h8a2 2 0 0 0 0-4h-8a2 2 0 1 0 0 4zm18 0h8a2 2 0 0 0 0-4h-8a2 2 0 1 0 0 4zm17.51.227a8.015 8.015 0 0 1 5.022 3.756 2 2 0 1 0 3.458-2.011A12.01 12.01 0 0 0 104.844.34a2 2 0 0 0-.946 3.887zM110 16.78v8a2 2 0 0 0 4 0v-8a2 2 0 1 0-4 0zm0 18v8a2 2 0 0 0 4 0v-8a2 2 0 1 0-4 0zm0 18v8a2 2 0 0 0 4 0v-8a2 2 0 1 0-4 0zm0 18v8a2 2 0 0 0 4 0v-8a2 2 0 1 0-4 0zm0 18v8a2 2 0 0 0 4 0v-8a2 2 0 1 0-4 0zm0 18v8a2 2 0 0 0 4 0v-8a2 2 0 1 0-4 0zm0 18v8a2 2 0 0 0 4 0v-8a2 2 0 1 0-4 0zm0 18v8a2 2 0 0 0 4 0v-8a2 2 0 1 0-4 0zm-.024 17.844a7.99 7.99 0 0 1-2.903 5.558 2 2 0 0 0 2.54 3.09 11.977 11.977 0 0 0 4.35-8.338 2.002 2.002 0 0 0-1.838-2.15 2.003 2.003 0 0 0-2.15 1.84zM98.826 168h-8a2 2 0 0 0 0 4h8a2 2 0 1 0 0-4zm-18 0h-8a2 2 0 0 0 0 4h8a2 2 0 1 0 0-4zm-18 0h-8a2 2 0 0 0 0 4h8a2 2 0 1 0 0-4zm-18 0h-8a2 2 0 0 0 0 4h8a2 2 0 1 0 0-4zm-18 0h-8a2 2 0 0 0 0 4h8a2 2 0 1 0 0-4zm-17.334-.4a8.032 8.032 0 0 1-4.71-4.143 1.998 1.998 0 0 0-2.667-.938 1.997 1.997 0 0 0-.938 2.667 12.022 12.022 0 0 0 7.063 6.21 1.998 1.998 0 1 0 1.252-3.798zM4 154.434v-8a2 2 0 0 0-4 0v8a2 2 0 1 0 4 0zm0-18v-8a2 2 0 0 0-4 0v8a2 2 0 1 0 4 0zm0-18v-8a2 2 0 0 0-4 0v8a2 2 0 1 0 4 0zm0-18v-8a2 2 0 0 0-4 0v8a2 2 0 1 0 4 0zm0-18v-8a2 2 0 0 0-4 0v8a2 2 0 1 0 4 0zm0-18v-8a2 2 0 0 0-4 0v8a2 2 0 1 0 4 0zm0-18v-8a2 2 0 0 0-4 0v8a2 2 0 1 0 4 0zm0-18v-8a2 2 0 0 0-4 0v8a2 2 0 1 0 4 0z"/><path fill="#F0EDF8" fill-rule="nonzero" d="M57 111c-11.598 0-21-9.402-21-21s9.402-21 21-21 21 9.402 21 21-9.402 21-21 21zm0-4c9.39 0 17-7.61 17-17s-7.61-17-17-17-17 7.61-17 17 7.61 17 17 17z"/><path fill="#6B4FBB" d="M58 88v-6.997c0-1.11-.895-2.003-2-2.003-1.112 0-2 .897-2 2.003v8.994a1.999 1.999 0 0 0 2.503 1.94c.162.04.33.063.506.063h7.98a2 2 0 0 0 .001-4H58z"/><rect width="8" height="4" x="8" y="14" fill="#EEE" rx="2"/><path fill="#EEE" d="M21 16c0-1.105.887-2 1.998-2h4.004c1.103 0 1.998.888 1.998 2 0 1.105-.887 2-1.998 2h-4.004A1.995 1.995 0 0 1 21 16zm13 0c0-1.105.887-2 1.998-2h4.004c1.103 0 1.998.888 1.998 2 0 1.105-.887 2-1.998 2h-4.004A1.995 1.995 0 0 1 34 16zm13 0c0-1.105.887-2 1.998-2h4.004c1.103 0 1.998.888 1.998 2 0 1.105-.887 2-1.998 2h-4.004A1.995 1.995 0 0 1 47 16zm13 0c0-1.105.887-2 1.998-2h4.004c1.103 0 1.998.888 1.998 2 0 1.105-.887 2-1.998 2h-4.004A1.995 1.995 0 0 1 60 16zm13 0c0-1.105.887-2 1.998-2h4.004c1.103 0 1.998.888 1.998 2 0 1.105-.887 2-1.998 2h-4.004A1.995 1.995 0 0 1 73 16zm13 0c0-1.105.887-2 1.998-2h4.004c1.103 0 1.998.888 1.998 2 0 1.105-.887 2-1.998 2h-4.004A1.995 1.995 0 0 1 86 16zm13 0c0-1.105.887-2 1.998-2h4.004c1.103 0 1.998.888 1.998 2 0 1.105-.887 2-1.998 2h-4.004A1.995 1.995 0 0 1 99 16z"/></g><g transform="translate(118 7)"><rect width="110" height="168" x="2" y="2" fill="#FFF" rx="10"/><path fill="#EEE" fill-rule="nonzero" d="M4 12.006c0-2.208.896-4.27 2.457-5.77a2 2 0 0 0-2.773-2.883A11.974 11.974 0 0 0 0 12.006a2 2 0 1 0 4 0zM14.388 4h8a2 2 0 0 0 0-4h-8a2 2 0 1 0 0 4zm18 0h8a2 2 0 0 0 0-4h-8a2 2 0 1 0 0 4zm18 0h8a2 2 0 0 0 0-4h-8a2 2 0 1 0 0 4zm18 0h8a2 2 0 0 0 0-4h-8a2 2 0 1 0 0 4zm18 0h8a2 2 0 0 0 0-4h-8a2 2 0 1 0 0 4zm17.51.227a8.015 8.015 0 0 1 5.022 3.756 2 2 0 1 0 3.458-2.011A12.01 12.01 0 0 0 104.844.34a2 2 0 0 0-.946 3.887zM110 16.78v8a2 2 0 0 0 4 0v-8a2 2 0 1 0-4 0zm0 18v8a2 2 0 0 0 4 0v-8a2 2 0 1 0-4 0zm0 18v8a2 2 0 0 0 4 0v-8a2 2 0 1 0-4 0zm0 18v8a2 2 0 0 0 4 0v-8a2 2 0 1 0-4 0zm0 18v8a2 2 0 0 0 4 0v-8a2 2 0 1 0-4 0zm0 18v8a2 2 0 0 0 4 0v-8a2 2 0 1 0-4 0zm0 18v8a2 2 0 0 0 4 0v-8a2 2 0 1 0-4 0zm0 18v8a2 2 0 0 0 4 0v-8a2 2 0 1 0-4 0zm-.024 17.844a7.99 7.99 0 0 1-2.903 5.558 2 2 0 0 0 2.54 3.09 11.977 11.977 0 0 0 4.35-8.338 2.002 2.002 0 0 0-1.838-2.15 2.003 2.003 0 0 0-2.15 1.84zM98.826 168h-8a2 2 0 0 0 0 4h8a2 2 0 1 0 0-4zm-18 0h-8a2 2 0 0 0 0 4h8a2 2 0 1 0 0-4zm-18 0h-8a2 2 0 0 0 0 4h8a2 2 0 1 0 0-4zm-18 0h-8a2 2 0 0 0 0 4h8a2 2 0 1 0 0-4zm-18 0h-8a2 2 0 0 0 0 4h8a2 2 0 1 0 0-4zm-17.334-.4a8.032 8.032 0 0 1-4.71-4.143 1.998 1.998 0 0 0-2.667-.938 1.997 1.997 0 0 0-.938 2.667 12.022 12.022 0 0 0 7.063 6.21 1.998 1.998 0 1 0 1.252-3.798zM4 154.434v-8a2 2 0 0 0-4 0v8a2 2 0 1 0 4 0zm0-18v-8a2 2 0 0 0-4 0v8a2 2 0 1 0 4 0zm0-18v-8a2 2 0 0 0-4 0v8a2 2 0 1 0 4 0zm0-18v-8a2 2 0 0 0-4 0v8a2 2 0 1 0 4 0zm0-18v-8a2 2 0 0 0-4 0v8a2 2 0 1 0 4 0zm0-18v-8a2 2 0 0 0-4 0v8a2 2 0 1 0 4 0zm0-18v-8a2 2 0 0 0-4 0v8a2 2 0 1 0 4 0zm0-18v-8a2 2 0 0 0-4 0v8a2 2 0 1 0 4 0z"/><g fill-rule="nonzero"><path fill="#F0EDF8" d="M57 112c-12.15 0-22-9.85-22-22s9.85-22 22-22 22 9.85 22 22-9.85 22-22 22zm0-6c8.837 0 16-7.163 16-16s-7.163-16-16-16-16 7.163-16 16 7.163 16 16 16z"/><path fill="#6B4FBB" d="M41.692 105.8A21.93 21.93 0 0 0 57 112c12.15 0 22-9.85 22-22s-9.85-22-22-22v6c8.837 0 16 7.163 16 16s-7.163 16-16 16a15.935 15.935 0 0 1-11.133-4.508l-4.175 4.31z"/></g><path fill="#EEE" d="M8 16c0-1.105.887-2 1.998-2h4.004c1.103 0 1.998.888 1.998 2 0 1.105-.887 2-1.998 2H9.998A1.995 1.995 0 0 1 8 16zm13 0c0-1.105.887-2 1.998-2h4.004c1.103 0 1.998.888 1.998 2 0 1.105-.887 2-1.998 2h-4.004A1.995 1.995 0 0 1 21 16zm13 0c0-1.105.887-2 1.998-2h4.004c1.103 0 1.998.888 1.998 2 0 1.105-.887 2-1.998 2h-4.004A1.995 1.995 0 0 1 34 16zm13 0c0-1.105.887-2 1.998-2h4.004c1.103 0 1.998.888 1.998 2 0 1.105-.887 2-1.998 2h-4.004A1.995 1.995 0 0 1 47 16zm13 0c0-1.105.887-2 1.998-2h4.004c1.103 0 1.998.888 1.998 2 0 1.105-.887 2-1.998 2h-4.004A1.995 1.995 0 0 1 60 16zm13 0c0-1.105.887-2 1.998-2h4.004c1.103 0 1.998.888 1.998 2 0 1.105-.887 2-1.998 2h-4.004A1.995 1.995 0 0 1 73 16zm13 0c0-1.105.887-2 1.998-2h4.004c1.103 0 1.998.888 1.998 2 0 1.105-.887 2-1.998 2h-4.004A1.995 1.995 0 0 1 86 16zm13 0c0-1.105.887-2 1.998-2h4.004c1.103 0 1.998.888 1.998 2 0 1.105-.887 2-1.998 2h-4.004A1.995 1.995 0 0 1 99 16z"/></g><g transform="translate(26 36)"><rect width="110" height="168" x="2" y="2" fill="#FFF" rx="10"/><path fill="#EEE" fill-rule="nonzero" d="M4 12.006v147.988A8 8 0 0 0 12.005 168h89.99a8.007 8.007 0 0 0 8.005-8.006V12.006A8 8 0 0 0 101.995 4h-89.99A8.007 8.007 0 0 0 4 12.006zm-4 0C0 5.376 5.377 0 12.005 0h89.99C108.628 0 114 5.37 114 12.006v147.988c0 6.63-5.377 12.006-12.005 12.006h-89.99C5.372 172 0 166.63 0 159.994V12.006z"/><g transform="translate(21 82)"><rect width="24" height="4" y="10" fill="#F0EDF8" rx="2"/><rect width="14" height="4" x="5" fill="#6B4FBB" rx="2"/></g><g transform="translate(69 82)"><rect width="24" height="4" y="10" fill="#F0EDF8" rx="2"/><rect width="14" height="4" x="5" fill="#6B4FBB" rx="2"/></g><g transform="translate(38 42)"><rect width="22" height="4" x="8" fill="#FEE1D3" rx="2"/><rect width="38" height="4" y="12" fill="#FB722E" rx="2"/></g><path fill="#EEE" d="M4 14h106v4H4z"/><path fill="#333" d="M35.724 138h9.696v-2.856h-2.856V122.76h-2.592c-1.08.648-2.136 1.08-3.792 1.392v2.184h2.856v8.808h-3.312V138zm17.736.288c-2.952 0-5.76-2.208-5.76-7.56 0-5.688 2.952-8.256 6.168-8.256 2.016 0 3.48.84 4.44 1.824l-1.848 2.112c-.528-.576-1.488-1.08-2.376-1.08-1.68 0-3.024 1.2-3.144 4.752.792-1.008 2.112-1.608 3.048-1.608 2.616 0 4.536 1.488 4.536 4.704 0 3.168-2.304 5.112-5.064 5.112zm-.072-2.64c1.056 0 1.92-.744 1.92-2.472 0-1.608-.84-2.208-1.992-2.208-.792 0-1.68.432-2.304 1.512.312 2.4 1.32 3.168 2.376 3.168zM63.9 132c-2.256 0-3.888-1.848-3.888-4.992 0-3.12 1.632-4.944 3.888-4.944 2.256 0 3.912 1.824 3.912 4.944 0 3.144-1.656 4.992-3.912 4.992zm0-1.968c.792 0 1.44-.792 1.44-3.024s-.648-2.976-1.44-2.976c-.792 0-1.44.744-1.44 2.976s.648 3.024 1.44 3.024zm.528 8.256l8.448-16.224h2.04l-8.448 16.224h-2.04zm11.016 0c-2.256 0-3.888-1.848-3.888-4.992 0-3.12 1.632-4.944 3.888-4.944 2.256 0 3.912 1.824 3.912 4.944 0 3.144-1.656 4.992-3.912 4.992zm0-1.968c.792 0 1.44-.792 1.44-3.024s-.648-2.976-1.44-2.976c-.792 0-1.44.744-1.44 2.976s.648 3.024 1.44 3.024z"/></g></g></svg>