<svg xmlns="http://www.w3.org/2000/svg" width="360" height="200" viewBox="0 0 360 200"><g fill="none" fill-rule="evenodd" transform="translate(3 11)"><rect width="110" height="168" x="6" y="8" fill="#000" fill-opacity=".02" rx="10"/><g transform="translate(0 2)"><rect width="110" height="168" fill="#FFF" rx="10"/><path fill="#EEE" fill-rule="nonzero" d="M2 10.006v147.988A8 8 0 0 0 10.005 166h89.99a8.007 8.007 0 0 0 8.005-8.006V10.006A8 8 0 0 0 99.995 2h-89.99A8.007 8.007 0 0 0 2 10.006zm-4 0C-2 3.376 3.377-2 10.005-2h89.99C106.628-2 112 3.37 112 10.006v147.988c0 6.63-5.377 12.006-12.005 12.006h-89.99C3.372 170-2 164.63-2 157.994V10.006z"/><g transform="translate(19 80)"><rect width="24" height="4" y="10" fill="#F0EDF8" rx="2"/><rect width="14" height="4" x="5" fill="#6B4FBB" rx="2"/></g><g transform="translate(67 80)"><rect width="24" height="4" y="10" fill="#F0EDF8" rx="2"/><rect width="14" height="4" x="5" fill="#6B4FBB" rx="2"/></g><g transform="translate(36 40)"><rect width="22" height="4" x="8" fill="#FEE1D3" rx="2"/><rect width="38" height="4" y="12" fill="#FB722E" rx="2"/></g><path fill="#EEE" d="M2 12h106v4H2z"/><path fill="#333" d="M38.048 127.792c.792 0 1.68-.432 2.28-1.512-.312-2.4-1.296-3.168-2.376-3.168-1.032 0-1.92.744-1.92 2.472 0 1.608.864 2.208 2.016 2.208zm-.552 8.496c-2.016 0-3.504-.864-4.464-1.824l1.872-2.112c.504.576 1.464 1.08 2.352 1.08 1.704 0 3.024-1.2 3.144-4.752-.792 1.008-2.112 1.608-3.048 1.608-2.592 0-4.536-1.488-4.536-4.704 0-3.168 2.304-5.112 5.064-5.112 2.952 0 5.784 2.208 5.784 7.56 0 5.688-2.976 8.256-6.168 8.256zm13.488 0c-3.048 0-5.304-1.704-5.304-4.176 0-1.848 1.152-2.976 2.592-3.744v-.096c-1.176-.888-2.04-1.992-2.04-3.6 0-2.592 2.04-4.2 4.872-4.2 2.784 0 4.632 1.656 4.632 4.176 0 1.464-.936 2.64-1.992 3.336v.096c1.464.792 2.64 1.968 2.64 3.984 0 2.4-2.16 4.224-5.4 4.224zm.96-9.168c.6-.696.936-1.44.936-2.232 0-1.176-.696-1.968-1.848-1.968-.936 0-1.704.576-1.704 1.752 0 1.248 1.056 1.848 2.616 2.448zm-.888 6.72c1.176 0 2.04-.624 2.04-1.896 0-1.344-1.296-1.848-3.216-2.664-.672.624-1.176 1.488-1.176 2.424 0 1.344 1.08 2.136 2.352 2.136zm10.8-3.84c-2.256 0-3.888-1.848-3.888-4.992 0-3.12 1.632-4.944 3.888-4.944 2.256 0 3.912 1.824 3.912 4.944 0 3.144-1.656 4.992-3.912 4.992zm0-1.968c.792 0 1.44-.792 1.44-3.024s-.648-2.976-1.44-2.976c-.792 0-1.44.744-1.44 2.976s.648 3.024 1.44 3.024zm.528 8.256l8.448-16.224h2.04l-8.448 16.224h-2.04zm11.016 0c-2.256 0-3.888-1.848-3.888-4.992 0-3.12 1.632-4.944 3.888-4.944 2.256 0 3.912 1.824 3.912 4.944 0 3.144-1.656 4.992-3.912 4.992zm0-1.968c.792 0 1.44-.792 1.44-3.024s-.648-2.976-1.44-2.976c-.792 0-1.44.744-1.44 2.976s.648 3.024 1.44 3.024z"/></g><g transform="translate(122)"><rect width="110" height="168" x="2" y="2" fill="#FFF" rx="10"/><path fill="#EEE" fill-rule="nonzero" d="M4 12.006c0-2.208.896-4.27 2.457-5.77a2 2 0 0 0-2.773-2.883A11.974 11.974 0 0 0 0 12.006a2 2 0 1 0 4 0zM14.388 4h8a2 2 0 0 0 0-4h-8a2 2 0 1 0 0 4zm18 0h8a2 2 0 0 0 0-4h-8a2 2 0 1 0 0 4zm18 0h8a2 2 0 0 0 0-4h-8a2 2 0 1 0 0 4zm18 0h8a2 2 0 0 0 0-4h-8a2 2 0 1 0 0 4zm18 0h8a2 2 0 0 0 0-4h-8a2 2 0 1 0 0 4zm17.51.227a8.015 8.015 0 0 1 5.022 3.756 2 2 0 1 0 3.458-2.011A12.01 12.01 0 0 0 104.844.34a2 2 0 0 0-.946 3.887zM110 16.78v8a2 2 0 0 0 4 0v-8a2 2 0 1 0-4 0zm0 18v8a2 2 0 0 0 4 0v-8a2 2 0 1 0-4 0zm0 18v8a2 2 0 0 0 4 0v-8a2 2 0 1 0-4 0zm0 18v8a2 2 0 0 0 4 0v-8a2 2 0 1 0-4 0zm0 18v8a2 2 0 0 0 4 0v-8a2 2 0 1 0-4 0zm0 18v8a2 2 0 0 0 4 0v-8a2 2 0 1 0-4 0zm0 18v8a2 2 0 0 0 4 0v-8a2 2 0 1 0-4 0zm0 18v8a2 2 0 0 0 4 0v-8a2 2 0 1 0-4 0zm-.024 17.844a7.99 7.99 0 0 1-2.903 5.558 2 2 0 0 0 2.54 3.09 11.977 11.977 0 0 0 4.35-8.338 2.002 2.002 0 0 0-1.838-2.15 2.003 2.003 0 0 0-2.15 1.84zM98.826 168h-8a2 2 0 0 0 0 4h8a2 2 0 1 0 0-4zm-18 0h-8a2 2 0 0 0 0 4h8a2 2 0 1 0 0-4zm-18 0h-8a2 2 0 0 0 0 4h8a2 2 0 1 0 0-4zm-18 0h-8a2 2 0 0 0 0 4h8a2 2 0 1 0 0-4zm-18 0h-8a2 2 0 0 0 0 4h8a2 2 0 1 0 0-4zm-17.334-.4a8.032 8.032 0 0 1-4.71-4.143 1.998 1.998 0 0 0-2.667-.938 1.997 1.997 0 0 0-.938 2.667 12.022 12.022 0 0 0 7.063 6.21 1.998 1.998 0 1 0 1.252-3.798zM4 154.434v-8a2 2 0 0 0-4 0v8a2 2 0 1 0 4 0zm0-18v-8a2 2 0 0 0-4 0v8a2 2 0 1 0 4 0zm0-18v-8a2 2 0 0 0-4 0v8a2 2 0 1 0 4 0zm0-18v-8a2 2 0 0 0-4 0v8a2 2 0 1 0 4 0zm0-18v-8a2 2 0 0 0-4 0v8a2 2 0 1 0 4 0zm0-18v-8a2 2 0 0 0-4 0v8a2 2 0 1 0 4 0zm0-18v-8a2 2 0 0 0-4 0v8a2 2 0 1 0 4 0zm0-18v-8a2 2 0 0 0-4 0v8a2 2 0 1 0 4 0z"/><g transform="translate(21 82)"><rect width="24" height="4" y="10" fill="#F0EDF8" rx="2"/><rect width="14" height="4" x="5" fill="#C3B8E3" rx="2"/></g><g transform="translate(69 82)"><rect width="24" height="4" y="10" fill="#F0EDF8" rx="2"/><rect width="14" height="4" x="5" fill="#C3B8E3" rx="2"/></g><path fill="#FEE1D3" d="M44 44a2 2 0 0 1 1.998-2h2.004a2 2 0 0 1 0 4h-2.004A1.994 1.994 0 0 1 44 44zm10 0a2 2 0 0 1 1.998-2h2.004a2 2 0 0 1 0 4h-2.004A1.994 1.994 0 0 1 54 44zm10 0a2 2 0 0 1 1.998-2h2.004a2 2 0 0 1 0 4h-2.004A1.994 1.994 0 0 1 64 44zM34 56a2 2 0 0 1 1.998-2h2.004a2 2 0 0 1 0 4h-2.004A1.994 1.994 0 0 1 34 56zm10 0a2 2 0 0 1 1.998-2h2.004a2 2 0 0 1 0 4h-2.004A1.994 1.994 0 0 1 44 56zm10 0a2 2 0 0 1 1.998-2h2.004a2 2 0 0 1 0 4h-2.004A1.994 1.994 0 0 1 54 56zm10 0a2 2 0 0 1 1.998-2h2.004a2 2 0 0 1 0 4h-2.004A1.994 1.994 0 0 1 64 56zm10 0a2 2 0 0 1 1.998-2h2.004a2 2 0 0 1 0 4h-2.004A1.994 1.994 0 0 1 74 56z"/><rect width="8" height="4" x="8" y="14" fill="#EEE" rx="2"/><rect width="8" height="4" x="21" y="14" fill="#EEE" rx="2"/><rect width="8" height="4" x="34" y="14" fill="#EEE" rx="2"/><rect width="8" height="4" x="47" y="14" fill="#EEE" rx="2"/><rect width="8" height="4" x="60" y="14" fill="#EEE" rx="2"/><rect width="8" height="4" x="73" y="14" fill="#EEE" rx="2"/><rect width="8" height="4" x="86" y="14" fill="#EEE" rx="2"/><rect width="8" height="4" x="99" y="14" fill="#EEE" rx="2"/><path fill="#EEE" d="M46.716 138.288c-3.264 0-5.448-2.784-5.448-7.968s2.184-7.848 5.448-7.848c3.264 0 5.448 2.664 5.448 7.848 0 5.184-2.184 7.968-5.448 7.968zm0-2.736c1.2 0 2.112-1.08 2.112-5.232 0-4.176-.912-5.112-2.112-5.112-1.176 0-2.112.936-2.112 5.112 0 4.152.936 5.232 2.112 5.232zM57.564 132c-2.256 0-3.888-1.848-3.888-4.992 0-3.12 1.632-4.944 3.888-4.944 2.256 0 3.912 1.824 3.912 4.944 0 3.144-1.656 4.992-3.912 4.992zm0-1.968c.792 0 1.44-.792 1.44-3.024s-.648-2.976-1.44-2.976c-.792 0-1.44.744-1.44 2.976s.648 3.024 1.44 3.024zm.528 8.256l8.448-16.224h2.04l-8.448 16.224h-2.04zm11.016 0c-2.256 0-3.888-1.848-3.888-4.992 0-3.12 1.632-4.944 3.888-4.944 2.256 0 3.912 1.824 3.912 4.944 0 3.144-1.656 4.992-3.912 4.992zm0-1.968c.792 0 1.44-.792 1.44-3.024s-.648-2.976-1.44-2.976c-.792 0-1.44.744-1.44 2.976s.648 3.024 1.44 3.024z"/></g><g transform="translate(243)"><rect width="110" height="168" x="2" y="2" fill="#FFF" rx="10"/><path fill="#EEE" fill-rule="nonzero" d="M4 12.006c0-2.208.896-4.27 2.457-5.77a2 2 0 0 0-2.773-2.883A11.974 11.974 0 0 0 0 12.006a2 2 0 1 0 4 0zM14.388 4h8a2 2 0 0 0 0-4h-8a2 2 0 1 0 0 4zm18 0h8a2 2 0 0 0 0-4h-8a2 2 0 1 0 0 4zm18 0h8a2 2 0 0 0 0-4h-8a2 2 0 1 0 0 4zm18 0h8a2 2 0 0 0 0-4h-8a2 2 0 1 0 0 4zm18 0h8a2 2 0 0 0 0-4h-8a2 2 0 1 0 0 4zm17.51.227a8.015 8.015 0 0 1 5.022 3.756 2 2 0 1 0 3.458-2.011A12.01 12.01 0 0 0 104.844.34a2 2 0 0 0-.946 3.887zM110 16.78v8a2 2 0 0 0 4 0v-8a2 2 0 1 0-4 0zm0 18v8a2 2 0 0 0 4 0v-8a2 2 0 1 0-4 0zm0 18v8a2 2 0 0 0 4 0v-8a2 2 0 1 0-4 0zm0 18v8a2 2 0 0 0 4 0v-8a2 2 0 1 0-4 0zm0 18v8a2 2 0 0 0 4 0v-8a2 2 0 1 0-4 0zm0 18v8a2 2 0 0 0 4 0v-8a2 2 0 1 0-4 0zm0 18v8a2 2 0 0 0 4 0v-8a2 2 0 1 0-4 0zm0 18v8a2 2 0 0 0 4 0v-8a2 2 0 1 0-4 0zm-.024 17.844a7.99 7.99 0 0 1-2.903 5.558 2 2 0 0 0 2.54 3.09 11.977 11.977 0 0 0 4.35-8.338 2.002 2.002 0 0 0-1.838-2.15 2.003 2.003 0 0 0-2.15 1.84zM98.826 168h-8a2 2 0 0 0 0 4h8a2 2 0 1 0 0-4zm-18 0h-8a2 2 0 0 0 0 4h8a2 2 0 1 0 0-4zm-18 0h-8a2 2 0 0 0 0 4h8a2 2 0 1 0 0-4zm-18 0h-8a2 2 0 0 0 0 4h8a2 2 0 1 0 0-4zm-18 0h-8a2 2 0 0 0 0 4h8a2 2 0 1 0 0-4zm-17.334-.4a8.032 8.032 0 0 1-4.71-4.143 1.998 1.998 0 0 0-2.667-.938 1.997 1.997 0 0 0-.938 2.667 12.022 12.022 0 0 0 7.063 6.21 1.998 1.998 0 1 0 1.252-3.798zM4 154.434v-8a2 2 0 0 0-4 0v8a2 2 0 1 0 4 0zm0-18v-8a2 2 0 0 0-4 0v8a2 2 0 1 0 4 0zm0-18v-8a2 2 0 0 0-4 0v8a2 2 0 1 0 4 0zm0-18v-8a2 2 0 0 0-4 0v8a2 2 0 1 0 4 0zm0-18v-8a2 2 0 0 0-4 0v8a2 2 0 1 0 4 0zm0-18v-8a2 2 0 0 0-4 0v8a2 2 0 1 0 4 0zm0-18v-8a2 2 0 0 0-4 0v8a2 2 0 1 0 4 0zm0-18v-8a2 2 0 0 0-4 0v8a2 2 0 1 0 4 0z"/><path fill="#FEE1D3" d="M44 44a2 2 0 0 1 1.998-2h2.004a2 2 0 0 1 0 4h-2.004A1.994 1.994 0 0 1 44 44zm10 0a2 2 0 0 1 1.998-2h2.004a2 2 0 0 1 0 4h-2.004A1.994 1.994 0 0 1 54 44zm10 0a2 2 0 0 1 1.998-2h2.004a2 2 0 0 1 0 4h-2.004A1.994 1.994 0 0 1 64 44zM34 56a2 2 0 0 1 1.998-2h2.004a2 2 0 0 1 0 4h-2.004A1.994 1.994 0 0 1 34 56zm10 0a2 2 0 0 1 1.998-2h2.004a2 2 0 0 1 0 4h-2.004A1.994 1.994 0 0 1 44 56zm10 0a2 2 0 0 1 1.998-2h2.004a2 2 0 0 1 0 4h-2.004A1.994 1.994 0 0 1 54 56zm10 0a2 2 0 0 1 1.998-2h2.004a2 2 0 0 1 0 4h-2.004A1.994 1.994 0 0 1 64 56zm10 0a2 2 0 0 1 1.998-2h2.004a2 2 0 0 1 0 4h-2.004A1.994 1.994 0 0 1 74 56z"/><g transform="translate(21 82)"><rect width="24" height="4" y="10" fill="#F0EDF8" rx="2"/><rect width="14" height="4" x="5" fill="#C3B8E3" rx="2"/></g><g transform="translate(69 82)"><rect width="24" height="4" y="10" fill="#F0EDF8" rx="2"/><rect width="14" height="4" x="5" fill="#C3B8E3" rx="2"/></g><rect width="8" height="4" x="8" y="14" fill="#EEE" rx="2"/><rect width="8" height="4" x="21" y="14" fill="#EEE" rx="2"/><rect width="8" height="4" x="34" y="14" fill="#EEE" rx="2"/><rect width="8" height="4" x="47" y="14" fill="#EEE" rx="2"/><rect width="8" height="4" x="60" y="14" fill="#EEE" rx="2"/><rect width="8" height="4" x="73" y="14" fill="#EEE" rx="2"/><rect width="8" height="4" x="86" y="14" fill="#EEE" rx="2"/><rect width="8" height="4" x="99" y="14" fill="#EEE" rx="2"/><path fill="#EEE" d="M46.716 138.288c-3.264 0-5.448-2.784-5.448-7.968s2.184-7.848 5.448-7.848c3.264 0 5.448 2.664 5.448 7.848 0 5.184-2.184 7.968-5.448 7.968zm0-2.736c1.2 0 2.112-1.08 2.112-5.232 0-4.176-.912-5.112-2.112-5.112-1.176 0-2.112.936-2.112 5.112 0 4.152.936 5.232 2.112 5.232zM57.564 132c-2.256 0-3.888-1.848-3.888-4.992 0-3.12 1.632-4.944 3.888-4.944 2.256 0 3.912 1.824 3.912 4.944 0 3.144-1.656 4.992-3.912 4.992zm0-1.968c.792 0 1.44-.792 1.44-3.024s-.648-2.976-1.44-2.976c-.792 0-1.44.744-1.44 2.976s.648 3.024 1.44 3.024zm.528 8.256l8.448-16.224h2.04l-8.448 16.224h-2.04zm11.016 0c-2.256 0-3.888-1.848-3.888-4.992 0-3.12 1.632-4.944 3.888-4.944 2.256 0 3.912 1.824 3.912 4.944 0 3.144-1.656 4.992-3.912 4.992zm0-1.968c.792 0 1.44-.792 1.44-3.024s-.648-2.976-1.44-2.976c-.792 0-1.44.744-1.44 2.976s.648 3.024 1.44 3.024z"/></g></g></svg>