<svg xmlns="http://www.w3.org/2000/svg" viewBox="0 0 76 76"><path d="M67.7 10h-6.751C60.442 4.402 55.728 0 50 0c-6.06 0-11 4.935-11 11s4.935 11 11 11c5.728 0 10.442-4.402 10.949-10H67.7c1.269 0 2.3.987 2.3 2.2v57.6c0 1.213-1.031 2.2-2.3 2.2H8.3C7.031 74 6 73.013 6 71.8V14.2C6 12.987 7.031 12 8.3 12h15.15a1 1 0 1 0 0-2H8.3C5.929 10 4 11.884 4 14.2v57.6C4 74.116 5.929 76 8.3 76h59.4c2.371 0 4.3-1.884 4.3-4.2V14.2c0-2.316-1.929-4.2-4.3-4.2M50 20c-4.963 0-9-4.04-9-9s4.04-9 9-9 9 4.04 9 9-4.04 9-9 9"/><path d="M21.293 29.29a.999.999 0 0 0 0 1.414l12.975 12.975-12.975 12.974a.999.999 0 1 0 1.414 1.414l13.682-13.682a.999.999 0 0 0 0-1.414L22.707 29.29a.999.999 0 0 0-1.414 0M54 59a1 1 0 1 0 0-2H42a1 1 0 1 0 0 2h12"/></svg>