<svg xmlns="http://www.w3.org/2000/svg" viewBox="0 0 76 76"><path d="M14.267 7.32l-4.896 5.277-1.702-1.533a.999.999 0 1 0-1.338 1.486l2.434 2.192c.064.058.139.091.212.13.035.018.065.048.101.062a.99.99 0 0 0 .752-.016c.044-.019.077-.058.118-.084.076-.047.155-.086.219-.154l5.566-6a1 1 0 0 0-1.466-1.36M31 9h44a1 1 0 1 0 0-2H31a1 1 0 1 0 0 2M31 15h24a1 1 0 1 0 0-2H31a1 1 0 1 0 0 2"/><path d="M11 0C4.93 0 0 4.935 0 11s4.935 11 11 11 11-4.935 11-11S17.065 0 11 0m0 20c-4.963 0-9-4.04-9-9s4.04-9 9-9 9 4.04 9 9-4.04 9-9 9M14.267 34.32l-4.896 5.277-1.702-1.533a1 1 0 1 0-1.338 1.486l2.434 2.192c.064.058.139.091.212.13.035.018.065.048.101.062a.99.99 0 0 0 .752-.016c.044-.019.077-.058.118-.084.076-.047.155-.086.219-.154l5.566-6a1 1 0 0 0-1.466-1.36M75 34H31a1 1 0 1 0 0 2h44a1 1 0 1 0 0-2M31 42h24a1 1 0 1 0 0-2H31a1 1 0 1 0 0 2"/><path d="M11 27C4.93 27 0 31.935 0 38s4.935 11 11 11 11-4.935 11-11-4.935-11-11-11m0 20c-4.963 0-9-4.04-9-9s4.04-9 9-9 9 4.04 9 9-4.04 9-9 9M14.267 61.32l-4.896 5.277-1.702-1.533a1 1 0 1 0-1.338 1.486l2.434 2.192c.064.058.139.091.212.13.035.018.065.048.101.062a.99.99 0 0 0 .752-.016c.044-.019.077-.058.118-.084.076-.047.155-.086.219-.154l5.566-6a1 1 0 0 0-1.466-1.36"/><path d="M11 54C4.93 54 0 58.935 0 65s4.935 11 11 11 11-4.935 11-11-4.935-11-11-11m0 20c-4.963 0-9-4.04-9-9s4.04-9 9-9 9 4.04 9 9-4.04 9-9 9M75 61H31a1 1 0 1 0 0 2h44a1 1 0 1 0 0-2M55 67H31a1 1 0 1 0 0 2h24a1 1 0 1 0 0-2"/></svg>