<svg xmlns="http://www.w3.org/2000/svg" viewBox="0 0 76 76"><path d="M68 67c-1.725 0-3.36.541-4.723 1.545A12.998 12.998 0 0 0 52 62c-2.734 0-5.359.853-7.555 2.43L42.159 49h1.228l3.829 7.645c.339.598.962.979 1.724 1.022l2.812-.003a2.07 2.07 0 0 0 1.316-.595c.264-.266.433-.559.514-.882l3.433-13.145a2.138 2.138 0 0 0-.449-1.763l-7.385-8.268c.231-2.875.354-5.376.374-7.641C49.532 14.863 46.684 7.908 39.393.564c-.737-.742-2.072-.715-2.829.044-5.617 5.659-8.309 10.336-9.446 16.463a5.95 5.95 0 0 0-3.36 1.686C22.624 19.891 22 21.397 22 23s.624 3.109 1.758 4.242C24.891 28.376 26.397 29 28 29s3.109-.624 4.242-1.758C33.376 26.109 34 24.603 34 23s-.624-3.109-1.758-4.242a5.952 5.952 0 0 0-3.098-1.648c1.095-5.538 3.637-9.855 8.83-15.14 6.874 6.924 9.561 13.485 9.581 23.392-.021 2.316-.151 4.903-.402 7.91a.999.999 0 0 0 .25.749l7.663 8.572-3.391 13.07-2.695.036-4.081-8.15a1.001 1.001 0 0 0-.895-.553h-12.01c-.379 0-.725.214-.895.553l-4.04 8.114-2.707.015-3.427-13.07 7.671-8.588a1 1 0 0 0-1.492-1.332l-7.7 8.623c-.383.47-.54 1.116-.406 1.787l3.419 13.08c.216.829.98 1.438 1.907 1.48h2.735c.508 0 1.016-.218 1.391-.595.091-.09.242-.241.358-.475l3.804-7.597h1.228l-2.286 15.43a12.914 12.914 0 0 0-7.555-2.43c-4.685 0-8.979 2.53-11.277 6.545a7.943 7.943 0 0 0-4.723-1.545c-4.411 0-8 3.589-8 8a1 1 0 0 0 1 1h74a1 1 0 0 0 1-1c0-4.411-3.589-8-8-8m-36-44a3.973 3.973 0 0 1-1.172 2.828c-1.512 1.512-4.145 1.512-5.656 0-.756-.756-1.172-1.76-1.172-2.828s.416-2.072 1.172-2.828 1.76-1.172 2.828-1.172 2.072.416 2.828 1.172 1.172 1.76 1.172 2.828m-29.917 51a6.01 6.01 0 0 1 5.917-5c1.638 0 3.17.652 4.313 1.836a.998.998 0 0 0 1.634-.289 11.011 11.011 0 0 1 10.05-6.547c2.836 0 5.532 1.085 7.593 3.055a1.001 1.001 0 0 0 1.681-.576l2.588-17.479h4.275l2.589 17.479a.999.999 0 1 0 1.681.576 10.945 10.945 0 0 1 7.593-3.055c4.343 0 8.288 2.57 10.05 6.547a.998.998 0 0 0 1.634.289 5.948 5.948 0 0 1 4.313-1.836 6.01 6.01 0 0 1 5.917 5H2.076"/></svg>