<svg xmlns="http://www.w3.org/2000/svg" viewBox="0 0 76 76"><path d="M45.688 18.854c-4.869-1.989-10.488-1.975-15.29-.001a20.014 20.014 0 0 0-6.493 4.268 19.798 19.798 0 0 0-4.346 6.381 19.135 19.135 0 0 0-1.525 7.537c0 2.066.33 4.118.983 6.104a20.142 20.142 0 0 0 1.83 3.937 5.983 5.983 0 0 0-2.086 4.538c0 3.309 2.691 6 6 6s6-2.691 6-6-2.691-6-6-6c-.779 0-1.522.154-2.205.425a18.13 18.13 0 0 1-1.642-3.533 17.467 17.467 0 0 1-.881-5.472c0-2.351.459-4.623 1.391-6.814a17.721 17.721 0 0 1 3.88-5.675 18.057 18.057 0 0 1 5.85-3.845c4.329-1.778 9.392-1.79 13.78.002a18.077 18.077 0 0 1 5.843 3.84c3.39 3.34 5.257 7.776 5.257 12.493a17.463 17.463 0 0 1-.878 5.481 17.451 17.451 0 0 1-2.569 4.923c-2.134 2.866-3.818 4.698-5.174 6.173-2.424 2.643-3.98 4.599-4.383 8.384H32.215a1 1 0 1 0 0 2h11.739a1 1 0 0 0 .999-.947c.19-3.645 1.345-5.263 3.934-8.09 1.385-1.506 3.107-3.381 5.304-6.331a19.422 19.422 0 0 0 2.864-5.489c.651-1.98.98-4.04.979-6.109 0-5.256-2.078-10.198-5.856-13.92a20.079 20.079 0 0 0-6.49-4.265M28.761 51.612c0 2.206-1.794 4-4 4s-4-1.794-4-4 1.794-4 4-4 4 1.794 4 4M40 74h-4a1 1 0 1 0 0 2h4a1 1 0 1 0 0-2M42 70h-8a1 1 0 1 0 0 2h8a1 1 0 1 0 0-2M38 10a1 1 0 0 0 1-1V1a1 1 0 1 0-2 0v8a1 1 0 0 0 1 1M20.828 15.828a.999.999 0 0 0 .707-1.707l-5.656-5.656a.999.999 0 1 0-1.414 1.414l5.656 5.656a.997.997 0 0 0 .707.293M10 33H2a1 1 0 1 0 0 2h8a1 1 0 1 0 0-2M60.12 8.465l-5.656 5.656a.999.999 0 1 0 1.414 1.414l5.656-5.656a.999.999 0 1 0-1.414-1.414M74 33h-8a1 1 0 1 0 0 2h8a1 1 0 1 0 0-2M43 66H33a1 1 0 1 0 0 2h10a1 1 0 1 0 0-2"/></svg>