<svg xmlns="http://www.w3.org/2000/svg" viewBox="0 0 76 76"><path d="M5 43a1 1 0 1 0 2 0v-4h4a1 1 0 1 0 0-2H7v-4a1 1 0 1 0-2 0v4H1a1 1 0 1 0 0 2h4v4M75 37h-4v-4a1 1 0 1 0-2 0v4h-4a1 1 0 1 0 0 2h4v4a1 1 0 1 0 2 0v-4h4a1 1 0 1 0 0-2M21 38a1 1 0 0 0 .47.848l8 5a.999.999 0 0 0 1.061-1.696L23.887 38l6.644-4.152a1 1 0 1 0-1.061-1.695l-8 5A.998.998 0 0 0 21 38M55 38a1 1 0 0 0-.47-.848l-8-5a.999.999 0 1 0-1.061 1.695L52.113 38l-6.644 4.152a1 1 0 1 0 1.061 1.696l8-5A1 1 0 0 0 55 38M41.803 26.05a1 1 0 0 0-1.256.65l-7 22a1.001 1.001 0 0 0 .953 1.303 1 1 0 0 0 .953-.697l7-22a1.001 1.001 0 0 0-.65-1.256M62 7c3.859 0 7 3.141 7 7v11a1 1 0 1 0 2 0V14c0-4.963-4.04-9-9-9H45.91c-.479-2.833-2.943-5-5.91-5-3.309 0-6 2.691-6 6s2.691 6 6 6c2.967 0 5.431-2.167 5.91-5H62m-22 3c-2.206 0-4-1.794-4-4s1.794-4 4-4 4 1.794 4 4-1.794 4-4 4M6 26a1 1 0 0 0 1-1V14c0-3.859 3.141-7 7-7h11.09l-3.293 3.293a.999.999 0 1 0 1.414 1.414l5-5a.999.999 0 0 0 0-1.414l-5-5a.999.999 0 1 0-1.414 1.414L25.09 5H14c-4.963 0-9 4.04-9 9v11a1 1 0 0 0 1 1M36 64c-2.967 0-5.431 2.167-5.91 5H14c-3.859 0-7-3.141-7-7V51a1 1 0 1 0-2 0v11c0 4.963 4.04 9 9 9h16.09c.478 2.833 2.942 5 5.91 5 3.309 0 6-2.691 6-6s-2.691-6-6-6m0 10c-2.206 0-4-1.794-4-4s1.794-4 4-4 4 1.794 4 4-1.794 4-4 4M70 50a1 1 0 0 0-1 1v11c0 3.859-3.141 7-7 7H50.91l3.293-3.293a.999.999 0 1 0-1.414-1.414l-5 5a.999.999 0 0 0 0 1.414l5 5a.997.997 0 0 0 1.414 0 .999.999 0 0 0 0-1.414L50.91 71H62c4.963 0 9-4.04 9-9V51a1 1 0 0 0-1-1"/></svg>