<svg xmlns="http://www.w3.org/2000/svg" viewBox="0 0 76 76"><path d="M12 8c0-3.309-2.691-6-6-6S0 4.691 0 8c0 2.967 2.167 5.431 5 5.91v8.181c-2.833.478-5 2.942-5 5.909s2.167 5.431 5 5.91v8.181c-2.833.478-5 2.942-5 5.909s2.167 5.431 5 5.91v8.181c-2.833.478-5 2.942-5 5.909 0 3.309 2.691 6 6 6s6-2.691 6-6c0-2.967-2.167-5.431-5-5.91v-8.18c2.833-.478 5-2.942 5-5.91s-2.167-5.431-5-5.91v-8.18c2.833-.478 5-2.942 5-5.91s-2.167-5.431-5-5.91v-8.18c2.833-.479 5-2.943 5-5.91M2 8c0-2.206 1.794-4 4-4s4 1.794 4 4-1.794 4-4 4-4-1.794-4-4m8 60c0 2.206-1.794 4-4 4s-4-1.794-4-4 1.794-4 4-4 4 1.794 4 4m0-20c0 2.206-1.794 4-4 4s-4-1.794-4-4 1.794-4 4-4 4 1.794 4 4m0-20c0 2.206-1.794 4-4 4s-4-1.794-4-4 1.794-4 4-4 4 1.794 4 4M21 6h54a1 1 0 1 0 0-2H21a1 1 0 1 0 0 2M21 12h35a1 1 0 1 0 0-2H21a1 1 0 1 0 0 2M75 24H21a1 1 0 1 0 0 2h54a1 1 0 1 0 0-2M21 32h34a1 1 0 1 0 0-2H21a1 1 0 1 0 0 2M75 44H21a1 1 0 1 0 0 2h54a1 1 0 1 0 0-2M21 52h34a1 1 0 1 0 0-2H21a1 1 0 1 0 0 2M75 64H21a1 1 0 1 0 0 2h54a1 1 0 1 0 0-2M55 70H21a1 1 0 1 0 0 2h34a1 1 0 1 0 0-2"/></svg>