<svg xmlns="http://www.w3.org/2000/svg" viewBox="0 0 76 76"><path d="M42.26 40.44a.989.989 0 0 0 1.109-.877l2.625-22.444a.997.997 0 0 0-.993-1.117h-14a1 1 0 0 0-.994 1.108l3.454 31.575a6.981 6.981 0 0 0-2.46 5.317c0 3.859 3.141 7 7 7s7-3.141 7-7-3.141-7-7-7c-.94 0-1.835.189-2.655.527l-3.23-29.527h11.761L41.383 39.33a1 1 0 0 0 .877 1.11m.741 13.562c0 2.757-2.243 5-5 5s-5-2.243-5-5 2.243-5 5-5 5 2.243 5 5"/><path d="M73.236 23.749a1 1 0 0 0-1.854.75A35.788 35.788 0 0 1 74 38c0 19.851-16.149 36-36 36S2 57.851 2 38 18.149 2 38 2c7.6 0 14.83 2.332 20.965 6.74A5.955 5.955 0 0 0 58 12c0 1.603.624 3.109 1.758 4.242A5.956 5.956 0 0 0 64 18a5.956 5.956 0 0 0 4.242-1.758C69.376 15.109 70 13.603 70 12s-.624-3.109-1.758-4.242A5.956 5.956 0 0 0 64 6a5.943 5.943 0 0 0-3.668 1.259C53.812 2.512 46.104 0 38 0 17.047 0 0 17.047 0 38s17.047 38 38 38 38-17.047 38-38c0-4.93-.93-9.725-2.764-14.251zM64 8c1.068 0 2.072.416 2.828 1.172S68 10.932 68 12s-.416 2.072-1.172 2.828c-1.512 1.512-4.145 1.512-5.656 0C60.416 14.072 60 13.068 60 12s.416-2.072 1.172-2.828S62.932 8 64 8z"/></svg>