<svg xmlns="http://www.w3.org/2000/svg" viewBox="0 0 76 76"><path d="M73.236 23.749a1 1 0 1 0-1.854.75A35.788 35.788 0 0 1 74 38c0 19.851-16.149 36-36 36S2 57.851 2 38 18.149 2 38 2c7.6 0 14.83 2.332 20.965 6.74A5.955 5.955 0 0 0 58 12c0 1.603.624 3.109 1.758 4.242A5.956 5.956 0 0 0 64 18a5.956 5.956 0 0 0 4.242-1.758C69.376 15.109 70 13.603 70 12s-.624-3.109-1.758-4.242A5.956 5.956 0 0 0 64 6a5.943 5.943 0 0 0-3.668 1.259C53.812 2.512 46.104 0 38 0 17.047 0 0 17.047 0 38s17.047 38 38 38 38-17.047 38-38c0-4.93-.93-9.725-2.764-14.251zM64 8c1.068 0 2.072.416 2.828 1.172S68 10.932 68 12s-.416 2.072-1.172 2.828c-1.512 1.512-4.145 1.512-5.656 0C60.416 14.072 60 13.068 60 12s.416-2.072 1.172-2.828S62.932 8 64 8z"/><path d="M27.19 32.17a.997.997 0 0 0-1.366-.364L13.17 39.132a1 1 0 0 0 0 1.73l12.654 7.326a1 1 0 0 0 1.002-1.73l-11.159-6.461 11.159-6.461a.998.998 0 0 0 .364-1.366M48.808 47.827a1 1 0 0 0 1.366.364l12.654-7.326a1 1 0 0 0 0-1.73l-12.654-7.326a1 1 0 0 0-1.002 1.73L60.331 40l-11.159 6.461a.998.998 0 0 0-.364 1.366M42.71 23.06L31.398 56.29a1 1 0 0 0 1.892.645l11.312-33.23a1 1 0 0 0-1.892-.645"/></svg>