<svg xmlns="http://www.w3.org/2000/svg" viewBox="0 0 76 76"><path d="M62.44 54.765l-9.912-11.09c.315-3.881.481-7.241.508-10.271-.029-13.871-3.789-23.05-13.413-32.746-.855-.859-2.411-.828-3.294.059-7.594 7.65-11.139 13.934-12.575 22.3a6.94 6.94 0 0 0-4.699 2.039c-1.321 1.321-2.05 3.079-2.05 4.949s.729 3.628 2.051 4.949c1.321 1.322 3.079 2.051 4.949 2.051s3.628-.729 4.949-2.051a6.951 6.951 0 0 0 2.051-4.949 6.955 6.955 0 0 0-2.051-4.949c-.9-.9-2-1.517-3.205-1.824 1.373-7.859 4.764-13.818 11.999-21.11.128-.13.356-.158.456-.059 9.207 9.274 12.805 18.06 12.832 31.33-.026 3.079-.202 6.527-.536 10.54a.997.997 0 0 0 .25.749l10.166 11.379c.062.076.109.23.093.32l-4.547 17.407c-.004.015-.009.036-.079.106a.403.403 0 0 1-.2.106l-3.577.002c-.144-.009-.265-.077-.309-.153l-5.425-10.328a1.002 1.002 0 0 0-.886-.535H30.024c-.371 0-.713.206-.886.535l-5.407 10.303-.069.072a.366.366 0 0 1-.199.105l-3.588.001c-.179-.009-.304-.123-.33-.227l-4.531-17.338a.525.525 0 0 1 .049-.34L25.26 44.682a1 1 0 0 0-1.492-1.332L13.539 54.803c-.448.554-.63 1.312-.474 2.084l4.544 17.396c.253.963 1.146 1.669 2.218 1.719h3.636c.581 0 1.187-.261 1.615-.693.114-.114.286-.286.406-.528l5.144-9.793h14.754l5.16 9.822c.396.697 1.124 1.143 2.01 1.192l3.712-.003a2.396 2.396 0 0 0 1.544-.694c.313-.316.504-.646.598-1.022l4.557-17.451a2.502 2.502 0 0 0-.518-2.066M29.01 30.001c0 1.335-.521 2.591-1.465 3.535s-2.2 1.465-3.535 1.465-2.591-.521-3.535-1.465-1.465-2.2-1.465-3.535.521-2.591 1.465-3.535 2.2-1.465 3.535-1.465 2.591.521 3.535 1.465 1.465 2.2 1.465 3.535"/></svg>