<svg width="26" height="26" viewBox="0 0 26 26" fill="none" xmlns="http://www.w3.org/2000/svg">
<path d="M13 25C19.6274 25 25 19.6274 25 13C25 6.37258 19.6274 1 13 1C6.37258 1 1 6.37258 1 13C1 19.6274 6.37258 25 13 25Z" fill="white" stroke="#C2B7E6" stroke-width="2"/>
<path d="M1.16748 12.3359C2.88075 11.7701 4.4618 10.8635 5.81545 9.67055C7.16911 8.47763 8.26738 7.02313 9.04415 5.39461M6.94481 2.60461C9.28681 6.43995 13.5115 8.99995 18.3335 8.99995C20.2715 8.99995 22.1135 8.58661 23.7748 7.84261L6.94481 2.60461Z" stroke="#C2B7E6"/>
<path fill-rule="evenodd" clip-rule="evenodd" d="M10.1176 15.8941H15.7647C15.7647 17.447 14.4941 18.7176 12.9412 18.7176C11.3882 18.7176 10.1176 17.447 10.1176 15.8941ZM9.05882 15.1882C8.47294 15.1882 8 14.7153 8 14.1294C8 13.5435 8.47294 13.0706 9.05882 13.0706C9.64471 13.0706 10.1176 13.5435 10.1176 14.1294C10.1176 14.7153 9.64471 15.1882 9.05882 15.1882ZM16.8235 15.1882C16.2376 15.1882 15.7647 14.7153 15.7647 14.1294C15.7647 13.5435 16.2376 13.0706 16.8235 13.0706C17.4094 13.0706 17.8824 13.5435 17.8824 14.1294C17.8824 14.7153 17.4094 15.1882 16.8235 15.1882Z" fill="#6B4FBB"/>
</svg>
