<svg width="468" height="96" xmlns="http://www.w3.org/2000/svg"><g transform="translate(4)" fill="none" fill-rule="evenodd"><path d="M19.817 6.79c.398-1.258 1.516-2.107 2.776-2.107h1.634c1.26 0 2.378.849 2.776 2.107l1.537 4.858c1.088.35 2.13.807 3.117 1.36l4.35-2.29c1.127-.593 2.487-.36 3.378.577l1.156 1.217c.89.938 1.111 2.37.548 3.557l-2.175 4.582c.525 1.038.96 2.136 1.291 3.281l4.613 1.62c1.195.419 2.001 1.597 2.001 2.923v1.721c0 1.326-.806 2.504-2 2.923l-4.614 1.62a18.947 18.947 0 01-1.291 3.281l2.175 4.582c.563 1.186.342 2.619-.548 3.557l-1.156 1.217c-.89.938-2.251 1.17-3.378.577l-4.35-2.29a16.947 16.947 0 01-3.117 1.36l-1.537 4.858c-.398 1.258-1.517 2.107-2.776 2.107h-1.634c-1.26 0-2.378-.849-2.776-2.107l-1.538-4.858a16.973 16.973 0 01-3.116-1.36l-4.35 2.29c-1.127.593-2.488.36-3.379-.577L6.28 46.159c-.89-.938-1.112-2.37-.548-3.557l2.175-4.582a18.93 18.93 0 01-1.292-3.281l-4.613-1.62C.806 32.7 0 31.522 0 30.196v-1.721c0-1.326.806-2.504 2-2.923l4.614-1.62a18.932 18.932 0 011.292-3.281L5.73 16.069c-.564-1.186-.343-2.62.548-3.557l1.155-1.217c.89-.938 2.252-1.17 3.378-.577l4.35 2.29a16.975 16.975 0 013.117-1.36l1.538-4.858zm3.593 34.872c6.464 0 11.705-5.52 11.705-12.327S29.874 17.01 23.41 17.01c-6.465 0-11.705 5.519-11.705 12.326 0 6.808 5.24 12.327 11.705 12.327z" stroke="#6E49CB" stroke-width="2" fill="#EFEDF8"/><path d="M23.41 37.039c4.04 0 7.315-3.45 7.315-7.704 0-4.255-3.275-7.704-7.315-7.704-4.04 0-7.316 3.45-7.316 7.704 0 4.255 3.276 7.704 7.316 7.704z" stroke="#6E49CB" stroke-linecap="round"/><path d="M218.894 5.854c1.177 0 2.186.207 2.858.497.337.145.536.288.633.388a.555.555 0 01.034.037v44.362c-.008.01-.019.023-.034.038-.097.099-.296.242-.633.388-.672.289-1.681.497-2.858.497-1.176 0-2.186-.208-2.857-.497-.338-.146-.537-.289-.634-.388-.015-.015-.026-.028-.034-.038V6.776a.554.554 0 01.034-.037c.097-.1.296-.243.634-.388.671-.29 1.681-.497 2.857-.497z" stroke="#6E49CB" stroke-width="2" fill="#EFEDF8" fill-rule="nonzero"/><path d="M223.59 6.665l30.511 9.4c2.93.902 2.983 2.492.135 3.545l-30.647 11.33V6.664z" fill="#6E49CB"/><path d="M434.38 42.624h-.119l-.11.046c-2.675 1.14-5.224 1.423-7.758.61l-.283-.09-.241.176a4.655 4.655 0 01-6.045-.465v0l-3.178-3.179a4.659 4.659 0 01-.159-6.422l.206-.227-.069-.298c-.496-2.14-.302-4.32.467-6.575l.183-.533-.526-.202-4.709-1.818a3.605 3.605 0 01-2.195-2.467 3.622 3.622 0 01.73-3.221s0 0 0 0l6.166-7.35v0a3.612 3.612 0 014.064-1.047h.001l6.025 2.326.361.14.27-.28c.577-.594 1.167-1.193 1.772-1.798 5.89-5.893 13.552-9.022 23.03-9.36.258-.01.515-.004.773.016v0a6.906 6.906 0 016.359 7.412c-.692 9.033-3.963 16.452-9.804 22.292v0c-.413.414-.826.826-1.242 1.237l-.272.269.137.357 2.433 6.302s0 0 0 0a3.6 3.6 0 01.127 2.2 3.603 3.603 0 01-1.175 1.865h0l-7.347 6.168.376.448-.376-.448a3.613 3.613 0 01-3.221.73 3.614 3.614 0 01-2.466-2.196v0l-1.638-4.244-.144-.374h-.403zm-17.378-19.038l.391.15.268-.32 7.795-9.291.526-.628-.764-.295-5.11-1.972v0a1.785 1.785 0 00-2.008.517v0l-6.166 7.35v0a1.789 1.789 0 00-.36 1.592 1.78 1.78 0 001.085 1.22v0l4.343 1.677zm19.584 18.482v.109l.04.102 1.676 4.345v0c.103.265.266.501.478.69l.389-.437-.389.437a1.78 1.78 0 002.332.034l7.348-6.167v0c.285-.24.488-.561.58-.922l-.566-.146.567.146c.093-.36.071-.74-.062-1.087h-.001l-1.972-5.111-.294-.764-.628.526-9.289 7.796-.21.175v.274zm17.83-39.285l-.22.542.22-.542a5.079 5.079 0 00-2.089-.369h0c-8.997.321-16.228 3.251-21.803 8.827-6.376 6.377-10.292 11.317-11.722 15.569-.723 2.148-.817 4.138-.263 6.047.553 1.901 1.732 3.67 3.47 5.41 1.676 1.675 3.328 2.828 5.103 3.357 1.788.532 3.639.412 5.67-.351 4.005-1.504 8.816-5.55 15.517-12.253 5.54-5.54 8.618-12.556 9.273-21.141a5.076 5.076 0 00-3.156-5.096z" stroke="#6E49CB" fill="#6E49CB" fill-rule="nonzero"/><path d="M440.596 20.006a2.998 2.998 0 004.26.023 2.99 2.99 0 00.877-2.135 3.003 3.003 0 00-.901-2.126 2.996 2.996 0 10-4.237 4.238zm-2.12 2.12a6.001 6.001 0 01-1.3-6.532 5.98 5.98 0 013.244-3.245 5.99 5.99 0 016.53 1.3 5.992 5.992 0 01-8.473 8.475l-.001.001z" fill="#C2B7E6" fill-rule="nonzero"/><path d="M412.525 39.607a1.498 1.498 0 010 2.118l-8.473 8.475a1.502 1.502 0 01-2.137.02 1.513 1.513 0 01-.328-.493 1.49 1.49 0 01.345-1.645l8.475-8.476a1.501 1.501 0 011.632-.325c.183.075.348.186.486.325zm7.415 7.416a1.498 1.498 0 010 2.118l-6.356 6.357a1.501 1.501 0 01-1.631.325 1.495 1.495 0 01-.811-1.958c.075-.181.185-.347.324-.486l6.356-6.356a1.5 1.5 0 012.118 0z" fill="#E0DBF2"/><path d="M416.232 43.314a1.498 1.498 0 010 2.12l-11.65 11.654a1.497 1.497 0 01-2.558-1.06c0-.398.158-.779.439-1.06l11.652-11.653a1.497 1.497 0 012.117 0z" fill="#C2B7E6"/><path d="M7.468 84.21h1.474c-.022-.644-.147-1.196-.377-1.655a3.111 3.111 0 00-.917-1.163 3.704 3.704 0 00-1.344-.672 6.253 6.253 0 00-1.671-.213c-.536 0-1.06.07-1.573.213a4.175 4.175 0 00-1.36.622c-.394.274-.71.629-.951 1.066-.24.426-.36.934-.36 1.524 0 .535.103.984.31 1.344.22.35.503.64.853.869.36.218.765.399 1.213.54.447.132.9.252 1.36.361.47.099.928.197 1.376.295.448.099.847.23 1.196.394.36.153.645.355.853.606.218.251.327.58.327.983 0 .427-.087.776-.262 1.05a1.98 1.98 0 01-.688.655 3.252 3.252 0 01-.967.328c-.35.065-.7.098-1.049.098-.437 0-.863-.054-1.278-.164a3.269 3.269 0 01-1.098-.508 2.762 2.762 0 01-.754-.868c-.185-.361-.278-.787-.278-1.279H.028c0 .71.126 1.328.377 1.852.262.514.612.94 1.049 1.279a4.79 4.79 0 001.54.737 6.948 6.948 0 003.474.05 4.641 4.641 0 001.475-.59 3.472 3.472 0 001.065-1.082c.284-.448.426-.984.426-1.607 0-.579-.11-1.06-.328-1.442a2.736 2.736 0 00-.852-.95 4.215 4.215 0 00-1.196-.59 14.217 14.217 0 00-1.377-.394c-.458-.11-.912-.208-1.36-.295a7.987 7.987 0 01-1.212-.36 2.535 2.535 0 01-.852-.542c-.208-.229-.312-.524-.312-.885 0-.382.071-.699.213-.95.153-.263.35-.47.59-.623a2.66 2.66 0 01.852-.328c.317-.065.64-.098.967-.098.808 0 1.47.19 1.983.573.524.372.83.978.918 1.82zm9.511 3.23h-4.867a2.82 2.82 0 01.213-.918c.12-.295.284-.552.492-.77.207-.22.453-.388.737-.509.295-.13.623-.196.983-.196.35 0 .667.065.95.196.296.12.547.29.755.508.218.208.387.46.508.754.13.295.207.607.229.935zm1.344 2.36h-1.377c-.12.557-.371.972-.754 1.245-.37.274-.852.41-1.442.41-.458 0-.857-.076-1.196-.23a2.394 2.394 0 01-.836-.606 2.483 2.483 0 01-.475-.885 3.438 3.438 0 01-.13-1.065h6.34a6.499 6.499 0 00-.147-1.623 4.48 4.48 0 00-.622-1.573 3.533 3.533 0 00-1.197-1.18c-.491-.317-1.114-.476-1.868-.476-.579 0-1.114.11-1.606.328-.48.219-.9.525-1.261.918-.35.393-.623.858-.82 1.393a5.1 5.1 0 00-.295 1.77c.022.645.115 1.24.279 1.787.175.546.431 1.016.77 1.41.339.393.754.699 1.246.917.502.219 1.092.328 1.77.328.96 0 1.758-.24 2.392-.721s1.043-1.197 1.229-2.147zm3.508-5.786v-2.54h-1.393v2.54h-1.442v1.23h1.442v5.392c0 .393.039.71.115.95.077.24.191.426.344.558.164.13.372.224.623.278.262.044.573.066.934.066h1.065v-1.23h-.639a7.31 7.31 0 01-.54-.016.742.742 0 01-.312-.115.446.446 0 01-.164-.229 1.883 1.883 0 01-.033-.393v-5.262h1.688v-1.229h-1.688zm14.81 8.474v-8.474h-1.393V88.8c0 .382-.055.738-.164 1.065a2.31 2.31 0 01-.459.836c-.207.24-.47.426-.786.558-.306.13-.672.196-1.098.196-.535 0-.956-.153-1.262-.459-.306-.306-.459-.72-.459-1.245v-5.737h-1.393v5.573c0 .459.044.88.131 1.262.099.371.263.694.492.967.23.273.53.486.901.639.372.142.836.213 1.393.213.623 0 1.164-.12 1.622-.36.46-.252.836-.64 1.131-1.164h.033v1.344h1.31zm2.141-8.474v11.703h1.393v-4.36h.033c.153.251.338.464.557.64.23.163.47.294.72.392.252.099.503.17.755.214.262.043.497.065.704.065.645 0 1.207-.115 1.688-.344.492-.23.896-.541 1.213-.934a3.92 3.92 0 00.72-1.41c.165-.535.246-1.104.246-1.704s-.081-1.17-.245-1.705a4.132 4.132 0 00-.738-1.41 3.35 3.35 0 00-1.212-.983c-.481-.24-1.05-.36-1.705-.36-.59 0-1.13.109-1.622.327a2.05 2.05 0 00-1.081 1.016h-.033v-1.147h-1.393zm6.555 4.163c0 .415-.044.82-.131 1.213a3.21 3.21 0 01-.426 1.049 2.22 2.22 0 01-.787.738c-.317.185-.716.278-1.196.278-.481 0-.89-.087-1.23-.262a2.55 2.55 0 01-.835-.721 3.082 3.082 0 01-.459-1.016 4.983 4.983 0 01-.147-1.213c0-.394.043-.781.13-1.164.1-.382.252-.721.46-1.016.207-.306.475-.552.803-.738.327-.186.726-.278 1.196-.278.448 0 .836.087 1.163.262.339.175.612.41.82.705a2.9 2.9 0 01.475 1.016c.109.371.164.754.164 1.147zm129.786-1.786v-4.295h3.048c.885 0 1.53.186 1.934.558.415.36.622.89.622 1.59 0 .699-.207 1.234-.622 1.606-.404.371-1.05.552-1.934.54h-3.048zm-1.557-5.606v11.703h1.557v-4.786h3.572c1.18.01 2.071-.29 2.671-.902.613-.612.918-1.464.918-2.556 0-1.093-.305-1.94-.918-2.541-.6-.612-1.49-.918-2.67-.918h-5.13zm10.478 0v11.703h1.393V80.785h-1.393zm11.057 11.67c-.24.142-.574.213-1 .213-.36 0-.65-.098-.868-.295-.207-.207-.312-.54-.312-1-.382.46-.83.793-1.343 1a4.456 4.456 0 01-1.639.295c-.383 0-.748-.044-1.098-.131a2.545 2.545 0 01-.885-.41 2.06 2.06 0 01-.606-.721c-.142-.306-.213-.672-.213-1.098 0-.48.082-.874.246-1.18.164-.306.377-.552.639-.738.273-.196.58-.344.917-.442.35-.099.705-.18 1.066-.246.382-.077.743-.131 1.081-.164.35-.044.656-.098.918-.164.262-.076.47-.18.622-.311.154-.142.23-.345.23-.607 0-.306-.06-.552-.18-.737a1.1 1.1 0 00-.443-.427 1.72 1.72 0 00-.606-.196 4.412 4.412 0 00-.656-.05c-.59 0-1.081.115-1.474.345-.394.218-.607.639-.64 1.262h-1.392c.022-.525.13-.967.327-1.328.197-.36.46-.65.787-.868a3.21 3.21 0 011.114-.492 6.032 6.032 0 011.36-.148c.383 0 .76.028 1.131.082.383.055.727.17 1.032.345.306.163.552.398.738.704.186.306.278.705.278 1.197v4.36c0 .327.017.568.05.72.043.154.174.23.393.23.12 0 .262-.027.426-.082v1.082zm-2.262-4.343c-.174.13-.403.23-.688.295-.284.054-.584.103-.901.147a14.79 14.79 0 00-.934.131c-.317.044-.6.12-.852.23a1.58 1.58 0 00-.623.475c-.153.197-.23.47-.23.82 0 .229.044.426.132.59.098.153.219.278.36.377.154.098.328.169.525.213.196.043.404.065.622.065.46 0 .852-.06 1.18-.18.328-.131.596-.29.803-.475.207-.197.36-.405.459-.623.098-.23.147-.443.147-.64v-1.425zm3.559-4.098v8.474h1.393v-4.786c0-.383.049-.732.147-1.05.109-.327.267-.611.475-.851.208-.24.464-.427.77-.558a2.898 2.898 0 011.115-.196c.535 0 .955.153 1.262.459.305.305.458.72.458 1.245v5.737h1.393v-5.573c0-.459-.049-.874-.147-1.246a2.302 2.302 0 00-.475-.983 2.294 2.294 0 00-.902-.64c-.372-.152-.835-.229-1.393-.229-1.257 0-2.174.514-2.753 1.541h-.032v-1.344h-1.311zm17.123 1.278l-.394-.491a7.294 7.294 0 01-.36-.492 4.216 4.216 0 01-.279-.524 1.485 1.485 0 01-.098-.525c0-.426.143-.737.426-.934.285-.208.59-.312.918-.312.415 0 .743.126.983.377.241.24.36.53.36.87 0 .25-.049.48-.147.687a2.28 2.28 0 01-.377.541 3.227 3.227 0 01-.508.443c-.185.131-.36.251-.524.36zm2.999 5.737l1.245 1.459h1.819l-2.278-2.639c.12-.262.225-.492.311-.688.088-.208.16-.416.213-.623.066-.208.115-.432.148-.672.044-.252.082-.552.115-.902h-1.328a6.424 6.424 0 01-.377 1.82l-2.113-2.574c.284-.164.557-.344.819-.54a4.65 4.65 0 00.705-.689c.208-.251.372-.524.491-.82.12-.305.18-.633.18-.983 0-.393-.082-.737-.245-1.032a2.093 2.093 0 00-.623-.754 2.587 2.587 0 00-.918-.46 3.74 3.74 0 00-1.049-.147c-.426 0-.802.066-1.13.197a2.327 2.327 0 00-1.344 1.311 2.498 2.498 0 00-.164.902c0 .295.033.562.099.803.077.23.175.453.294.672.132.207.274.415.427.622.153.208.31.427.475.656a11.6 11.6 0 00-1.065.64c-.328.218-.617.47-.869.753-.24.273-.436.585-.59.935-.141.35-.213.753-.213 1.212 0 .24.039.541.115.902.088.36.262.71.524 1.049.262.339.635.628 1.115.869.48.24 1.114.36 1.9.36.645 0 1.268-.137 1.869-.41a3.23 3.23 0 001.442-1.229zm-3.458-4.196l2.687 3.229c-.283.426-.639.765-1.065 1.016-.414.252-.89.377-1.425.377-.284 0-.562-.049-.836-.147a2.615 2.615 0 01-.705-.394 2.164 2.164 0 01-.508-.622 1.886 1.886 0 01-.18-.82c0-.35.055-.65.164-.901.11-.263.257-.498.442-.705.186-.208.4-.394.64-.558.251-.163.513-.322.786-.475zm17.767.607h-4.867a2.82 2.82 0 01.213-.918 2.46 2.46 0 01.491-.77c.208-.22.453-.388.738-.509.295-.13.623-.196.983-.196.35 0 .666.065.95.196.295.12.547.29.754.508.22.208.388.46.508.754.131.295.207.607.23.935zm1.343 2.36h-1.376c-.12.557-.371.972-.754 1.245-.37.274-.852.41-1.442.41-.459 0-.858-.076-1.196-.23a2.4 2.4 0 01-.836-.606 2.477 2.477 0 01-.475-.885 3.448 3.448 0 01-.131-1.065h6.342a6.466 6.466 0 00-.148-1.623 4.48 4.48 0 00-.623-1.573 3.536 3.536 0 00-1.196-1.18c-.492-.317-1.114-.476-1.868-.476-.58 0-1.114.11-1.606.328a3.863 3.863 0 00-1.262.918c-.35.393-.622.858-.819 1.393a5.1 5.1 0 00-.295 1.77c.022.645.115 1.24.279 1.787.174.546.432 1.016.77 1.41.338.393.754.699 1.245.917.502.219 1.092.328 1.77.328.96 0 1.76-.24 2.392-.721.634-.48 1.043-1.197 1.23-2.147zm3.854-1.77l-3.18 4.458h1.688l2.36-3.508 2.36 3.508h1.786l-3.277-4.573 2.916-3.901h-1.671l-2.114 2.967-2.032-2.967h-1.786l2.95 4.016zm12.086-.59h-4.867a2.79 2.79 0 01.213-.918c.12-.295.283-.552.492-.77.207-.22.453-.388.737-.509.295-.13.623-.196.983-.196.35 0 .666.065.95.196.296.12.546.29.755.508.217.208.387.46.508.754.13.295.207.607.23.935zm1.344 2.36h-1.377c-.12.557-.372.972-.754 1.245-.372.274-.852.41-1.442.41-.458 0-.858-.076-1.196-.23a2.379 2.379 0 01-.835-.606 2.477 2.477 0 01-.476-.885 3.413 3.413 0 01-.13-1.065h6.34a6.577 6.577 0 00-.147-1.623 4.503 4.503 0 00-.622-1.573 3.536 3.536 0 00-1.197-1.18c-.491-.317-1.114-.476-1.868-.476-.579 0-1.114.11-1.606.328a3.863 3.863 0 00-1.261.918c-.35.393-.623.858-.82 1.393a5.1 5.1 0 00-.295 1.77c.021.645.115 1.24.279 1.787a3.98 3.98 0 00.77 1.41c.338.393.754.699 1.246.917.502.219 1.092.328 1.77.328.96 0 1.757-.24 2.392-.721.633-.48 1.043-1.197 1.229-2.147zm7.326-3.065h1.442c-.054-.503-.185-.934-.393-1.295a2.832 2.832 0 00-.803-.918 3.084 3.084 0 00-1.115-.524 4.806 4.806 0 00-1.343-.18c-.666 0-1.25.12-1.754.36-.502.23-.922.552-1.262.967a4.095 4.095 0 00-.737 1.442 6.135 6.135 0 00-.246 1.77c0 .634.082 1.219.246 1.754.176.525.426.978.754 1.36.34.383.754.678 1.245.886.504.207 1.077.311 1.72.311 1.082 0 1.934-.284 2.557-.852.635-.568 1.028-1.377 1.18-2.426h-1.426c-.086.656-.327 1.164-.72 1.524-.382.36-.918.541-1.607.541-.436 0-.813-.087-1.13-.262a2.238 2.238 0 01-.77-.688 3.318 3.318 0 01-.443-1 5.037 5.037 0 01-.13-1.148c0-.426.044-.835.13-1.229.088-.404.23-.76.426-1.065.209-.306.481-.552.82-.738.339-.186.76-.278 1.261-.278.59 0 1.06.147 1.41.442.35.295.579.71.688 1.246zm10.064 5.753v-8.474h-1.393V88.8c0 .382-.055.738-.164 1.065a2.316 2.316 0 01-.459.836c-.208.24-.47.426-.786.558-.307.13-.672.196-1.098.196-.536 0-.957-.153-1.262-.459-.307-.306-.459-.72-.459-1.245v-5.737h-1.393v5.573c0 .459.043.88.131 1.262.099.371.262.694.492.967.23.273.529.486.901.639.371.142.836.213 1.393.213.623 0 1.163-.12 1.622-.36.46-.252.836-.64 1.13-1.164h.034v1.344h1.31zm4.025-8.474v-2.54h-1.393v2.54h-1.442v1.23h1.442v5.392c0 .393.039.71.115.95.076.24.19.426.344.558.164.13.37.224.623.278.262.044.573.066.934.066h1.065v-1.23h-.64c-.218 0-.398-.005-.54-.016a.74.74 0 01-.311-.115.448.448 0 01-.164-.229 1.86 1.86 0 01-.033-.393v-5.262h1.688v-1.229h-1.688zm9.118 3.426h-4.867a2.82 2.82 0 01.213-.918 2.46 2.46 0 01.492-.77c.207-.22.453-.388.737-.509.295-.13.623-.196.983-.196.35 0 .666.065.95.196.296.12.547.29.755.508.218.208.387.46.508.754.13.295.207.607.229.935zm1.344 2.36h-1.377c-.12.557-.37.972-.754 1.245-.37.274-.852.41-1.442.41-.458 0-.858-.076-1.196-.23a2.4 2.4 0 01-.836-.606 2.477 2.477 0 01-.475-.885 3.448 3.448 0 01-.13-1.065h6.34a6.466 6.466 0 00-.147-1.623 4.48 4.48 0 00-.622-1.573 3.536 3.536 0 00-1.197-1.18c-.491-.317-1.114-.476-1.868-.476-.58 0-1.114.11-1.606.328a3.863 3.863 0 00-1.261.918c-.35.393-.623.858-.82 1.393a5.1 5.1 0 00-.295 1.77 7.05 7.05 0 00.279 1.787c.174.546.432 1.016.77 1.41.338.393.754.699 1.245.917.503.219 1.093.328 1.77.328.961 0 1.76-.24 2.393-.721s1.043-1.197 1.229-2.147zm126.596 1.377v-9.08h2.622c.72 0 1.327.103 1.819.31.491.197.89.493 1.196.886.316.382.54.852.672 1.41.141.546.213 1.169.213 1.868 0 .721-.078 1.338-.23 1.852-.143.503-.328.923-.557 1.262-.23.339-.492.607-.786.803-.285.197-.574.35-.869.46a4.367 4.367 0 01-.836.196 8.132 8.132 0 01-.655.033h-2.59zm-1.557-10.392v11.703h4.015c.971 0 1.813-.137 2.523-.41.71-.273 1.295-.666 1.754-1.18.458-.525.797-1.164 1.016-1.918.217-.765.327-1.639.327-2.622 0-1.88-.487-3.278-1.458-4.196-.973-.918-2.36-1.377-4.162-1.377h-4.015zm17.19 6.655h-4.866a2.85 2.85 0 01.213-.918 2.46 2.46 0 01.492-.77c.208-.22.454-.388.737-.509.295-.13.623-.196.983-.196.35 0 .667.065.95.196.296.12.547.29.754.508.22.208.389.46.508.754.132.295.209.607.23.935zm1.345 2.36h-1.377c-.12.557-.371.972-.754 1.245-.37.274-.852.41-1.442.41-.459 0-.857-.076-1.196-.23a2.4 2.4 0 01-.836-.606 2.495 2.495 0 01-.475-.885 3.448 3.448 0 01-.131-1.065h6.342a6.466 6.466 0 00-.148-1.623 4.458 4.458 0 00-.623-1.573 3.526 3.526 0 00-1.196-1.18c-.491-.317-1.114-.476-1.868-.476a3.91 3.91 0 00-1.606.328c-.48.219-.901.525-1.262.918a4.322 4.322 0 00-.819 1.393 5.1 5.1 0 00-.295 1.77 7.05 7.05 0 00.279 1.787c.175.546.432 1.016.77 1.41.34.393.754.699 1.245.917.504.219 1.094.328 1.77.328.962 0 1.76-.24 2.393-.721.634-.48 1.044-1.197 1.229-2.147zm1.624-5.786v11.703h1.393v-4.36h.033a2.4 2.4 0 00.557.64c.23.163.47.294.721.392.25.099.502.17.754.214.262.043.496.065.704.065.644 0 1.207-.115 1.688-.344.492-.23.896-.541 1.213-.934.328-.405.568-.875.72-1.41.165-.535.247-1.104.247-1.704s-.082-1.17-.246-1.705a4.132 4.132 0 00-.737-1.41 3.353 3.353 0 00-1.213-.983c-.481-.24-1.049-.36-1.704-.36-.59 0-1.131.109-1.623.327a2.05 2.05 0 00-1.081 1.016h-.033v-1.147h-1.393zm6.555 4.163c0 .415-.045.82-.131 1.213-.088.393-.23.743-.426 1.049a2.219 2.219 0 01-.787.738c-.317.185-.716.278-1.196.278-.481 0-.89-.087-1.23-.262a2.534 2.534 0 01-.835-.721 3.065 3.065 0 01-.459-1.016 5.185 5.185 0 01-.016-2.377c.098-.382.25-.721.459-1.016.207-.306.475-.552.803-.738.328-.186.725-.278 1.196-.278.447 0 .836.087 1.163.262.339.175.611.41.82.705.218.295.377.633.475 1.016.109.371.164.754.164 1.147zm3.192-7.392v11.703h1.393V80.785h-1.393zm4.566 7.474a4.3 4.3 0 01.197-1.36c.141-.405.333-.743.573-1.016.24-.274.519-.481.836-.623a2.57 2.57 0 012.048 0c.328.142.612.35.852.623s.426.611.557 1.016c.142.393.213.847.213 1.36s-.071.973-.213 1.377a2.868 2.868 0 01-.557 1c-.24.262-.524.464-.852.606a2.57 2.57 0 01-2.048 0 2.518 2.518 0 01-.836-.606 3.075 3.075 0 01-.573-1 4.456 4.456 0 01-.197-1.377zm-1.475 0c0 .623.088 1.202.262 1.737.175.536.437 1.006.787 1.41.35.393.78.705 1.294.934.514.219 1.104.328 1.77.328.678 0 1.268-.11 1.77-.328.514-.23.944-.54 1.294-.934.35-.404.613-.874.787-1.41a5.579 5.579 0 00.262-1.737c0-.623-.088-1.202-.262-1.737a3.852 3.852 0 00-.787-1.41 3.659 3.659 0 00-1.294-.95c-.502-.23-1.092-.345-1.77-.345-.666 0-1.256.115-1.77.345-.513.229-.944.546-1.294.95-.35.394-.612.863-.787 1.41a5.579 5.579 0 00-.262 1.737zm13.195 5.36a8.003 8.003 0 01-.492 1.049 2.468 2.468 0 01-.524.688 1.554 1.554 0 01-.64.393c-.229.088-.495.132-.802.132-.164 0-.328-.011-.492-.033a2.326 2.326 0 01-.475-.115v-1.278c.12.054.258.098.41.13.164.044.3.066.41.066.284 0 .52-.07.704-.213.197-.13.344-.322.442-.573l.574-1.426-3.36-8.425h1.574l2.474 6.933h.033l2.376-6.933h1.475l-3.687 9.605z" fill="#303030" fill-rule="nonzero"/><rect fill="#C2B7E6" fill-rule="nonzero" x="62.036" y="26.927" width="126.412" height="4.683" rx="2"/><rect fill="#C2B7E6" fill-rule="nonzero" x="266.87" y="26.927" width="125.242" height="4.683" rx="2"/></g></svg>
