<svg width="40" height="39" viewBox="0 0 40 39" fill="none" xmlns="http://www.w3.org/2000/svg">
<g clip-path="url(#clip0)">
<path d="M32.2886 3.99573H37.8624C38.1834 3.99573 38.4435 4.25587 38.4435 4.57679V33.9598C38.4435 34.2808 38.1834 34.5409 37.8624 34.5409H32.2886V3.99573Z" fill="#F0F0F0" stroke="#DBDBDB" stroke-width="2"/>
<path d="M10.757 9.4011L10.7363 4.92686C10.7337 4.35386 11.1491 3.86447 11.7148 3.77395L30.908 0.703095C31.614 0.590124 32.2537 1.13556 32.2537 1.85062V37.0106C32.2537 37.723 31.6184 38.2678 30.9143 38.1591L11.8555 35.2171C11.2908 35.13 10.8733 34.6453 10.8707 34.074L10.8502 29.6368" stroke="#DBDBDB" stroke-width="2"/>
<path d="M11.2195 29.7561C16.877 29.7561 21.4634 25.1698 21.4634 19.5122C21.4634 13.8547 16.877 9.26831 11.2195 9.26831C5.56194 9.26831 0.975586 13.8547 0.975586 19.5122C0.975586 25.1698 5.56194 29.7561 11.2195 29.7561Z" stroke="#6E49CB"/>
<path d="M11.2194 27.8048C15.7994 27.8048 19.5121 24.0921 19.5121 19.5122C19.5121 14.9322 15.7994 11.2195 11.2194 11.2195C6.63952 11.2195 2.92676 14.9322 2.92676 19.5122C2.92676 24.0921 6.63952 27.8048 11.2194 27.8048Z" fill="#6E49CB"/>
<path d="M11.2194 27.8048C15.7994 27.8048 19.5121 24.0921 19.5121 19.5122C19.5121 14.9322 15.7994 11.2195 11.2194 11.2195C6.63952 11.2195 2.92676 14.9322 2.92676 19.5122C2.92676 24.0921 6.63952 27.8048 11.2194 27.8048Z" fill="white" fill-opacity="0.9"/>
<path d="M10.8843 23.4146V16.276" stroke="#6E49CB" stroke-linecap="round"/>
<path d="M7.31689 19.6609H14.634" stroke="#6E49CB" stroke-linecap="round"/>
</g>
<defs>
<clipPath id="clip0">
<rect width="40" height="39.0244" fill="white"/>
</clipPath>
</defs>
</svg>
