<svg width="81" height="48" viewBox="0 0 81 48" fill="none" xmlns="http://www.w3.org/2000/svg">
<g clip-path="url(#clip0)">
<path fill-rule="evenodd" clip-rule="evenodd" d="M42.9799 11.6386C42.9688 11.7501 42.955 11.8786 42.9384 12.0222C42.8865 12.4687 42.8257 12.9142 42.756 13.3582C42.7493 13.3954 42.7501 13.4335 42.7584 13.4704C42.7667 13.5072 42.7822 13.542 42.8041 13.5728C42.826 13.6035 42.8538 13.6296 42.8859 13.6495C42.918 13.6693 42.9538 13.6826 42.9911 13.6884C43.0284 13.6943 43.0664 13.6926 43.1031 13.6835C43.1397 13.6745 43.1742 13.6582 43.2045 13.6356C43.2347 13.613 43.2602 13.5847 43.2793 13.5521C43.2985 13.5196 43.3109 13.4835 43.316 13.4461C43.3915 12.9637 43.4531 12.506 43.5015 12.0874C43.5221 11.9092 43.5408 11.7308 43.5577 11.5522C43.5609 11.5151 43.5568 11.4777 43.5456 11.4422C43.5343 11.4067 43.5162 11.3738 43.4923 11.3453C43.4684 11.3168 43.439 11.2933 43.406 11.2761C43.373 11.2589 43.3369 11.2484 43.2998 11.2452C43.2627 11.242 43.2253 11.2461 43.1898 11.2573C43.1543 11.2685 43.1214 11.2866 43.0929 11.3106C43.0644 11.3345 43.0409 11.3638 43.0237 11.3969C43.0065 11.4299 42.996 11.466 42.9928 11.5031C42.9909 11.5263 42.9866 11.572 42.9799 11.6386ZM41.9287 16.9968C41.9171 17.0322 41.9127 17.0695 41.9156 17.1066C41.9185 17.1438 41.9287 17.1799 41.9456 17.2131C41.9624 17.2463 41.9857 17.2758 42.014 17.3C42.0423 17.3242 42.0751 17.3426 42.1105 17.3542C42.1459 17.3657 42.1832 17.3701 42.2203 17.3672C42.2574 17.3643 42.2936 17.3541 42.3268 17.3373C42.36 17.3204 42.3895 17.2971 42.4137 17.2688C42.4379 17.2405 42.4563 17.2078 42.4678 17.1724C42.6521 16.606 42.8172 15.985 42.9645 15.321C42.9734 15.2843 42.975 15.2462 42.9691 15.2089C42.9631 15.1716 42.9498 15.1359 42.9299 15.1039C42.91 15.0718 42.8839 15.044 42.8531 15.0222C42.8223 15.0004 42.7874 14.9849 42.7506 14.9767C42.7137 14.9686 42.6756 14.9678 42.6385 14.9746C42.6013 14.9813 42.5659 14.9954 42.5343 15.016C42.5027 15.0367 42.4755 15.0634 42.4543 15.0947C42.4332 15.1259 42.4185 15.1611 42.4111 15.1981C42.2675 15.8456 42.1069 16.4491 41.9287 16.9968ZM40.0489 19.874C40.0136 19.8862 39.981 19.9053 39.9531 19.9302C39.9252 19.955 39.9025 19.9852 39.8863 20.0189C39.8701 20.0526 39.8607 20.0891 39.8587 20.1265C39.8566 20.1638 39.862 20.2012 39.8745 20.2364C39.887 20.2716 39.9063 20.3041 39.9313 20.3318C39.9564 20.3596 39.9867 20.3821 40.0205 20.3981C40.0543 20.4141 40.0909 20.4232 40.1283 20.425C40.1656 20.4267 40.2029 20.4211 40.2381 20.4084C40.8012 20.209 41.2854 19.713 41.7083 18.9671C41.7454 18.9017 41.755 18.8242 41.735 18.7517C41.715 18.6792 41.667 18.6177 41.6016 18.5806C41.5362 18.5435 41.4587 18.5339 41.3862 18.554C41.3137 18.574 41.2522 18.622 41.2151 18.6874C40.8532 19.3257 40.4601 19.7283 40.0489 19.874ZM36.3662 20.7087C36.3319 20.7231 36.3007 20.7442 36.2746 20.7706C36.2484 20.7971 36.2277 20.8285 36.2136 20.863C36.1996 20.8974 36.1925 20.9343 36.1927 20.9716C36.1929 21.0088 36.2004 21.0456 36.2149 21.0799C36.2293 21.1142 36.2504 21.1454 36.2769 21.1715C36.3033 21.1977 36.3347 21.2184 36.3692 21.2324C36.4037 21.2465 36.4406 21.2536 36.4778 21.2534C36.515 21.2532 36.5518 21.2456 36.5861 21.2312C37.1757 20.9829 37.7714 20.792 38.3357 20.6679C38.4091 20.6517 38.4731 20.607 38.5136 20.5437C38.5541 20.4803 38.5677 20.4035 38.5516 20.3301C38.5354 20.2566 38.4907 20.1926 38.4274 20.1521C38.364 20.1117 38.2872 20.098 38.2138 20.1142C37.6153 20.2459 36.9871 20.4473 36.3662 20.7087ZM33.1143 22.7955C33.0607 22.8475 33.0298 22.9186 33.0283 22.9932C33.0267 23.0678 33.0547 23.1401 33.1061 23.1942C33.1576 23.2483 33.2282 23.28 33.3029 23.2823C33.3775 23.2846 33.45 23.2574 33.5047 23.2066C33.9359 22.7967 34.4242 22.42 34.9553 22.0829C35.0187 22.0426 35.0636 21.9788 35.08 21.9054C35.0964 21.832 35.083 21.7551 35.0427 21.6916C35.0024 21.6282 34.9385 21.5833 34.8651 21.5669C34.7918 21.5505 34.7149 21.5639 34.6514 21.6042C34.0901 21.9605 33.5729 22.3598 33.1143 22.7955ZM31.0777 26.1259C31.0686 26.162 31.0667 26.1995 31.0721 26.2364C31.0776 26.2732 31.0902 26.3086 31.1093 26.3406C31.1284 26.3725 31.1536 26.4004 31.1835 26.4226C31.2134 26.4448 31.2474 26.4609 31.2835 26.47C31.3196 26.4791 31.3571 26.481 31.3939 26.4755C31.4308 26.4701 31.4662 26.4575 31.4981 26.4384C31.5301 26.4193 31.558 26.394 31.5802 26.3642C31.6024 26.3343 31.6185 26.3003 31.6276 26.2642C31.7727 25.6871 32.0133 25.1347 32.3419 24.611C32.3799 24.5474 32.3915 24.4715 32.3742 24.3994C32.3569 24.3274 32.3121 24.265 32.2493 24.2256C32.1866 24.1862 32.1109 24.1729 32.0385 24.1886C31.9661 24.2043 31.9027 24.2478 31.8619 24.3096C31.5023 24.8826 31.2379 25.4896 31.0777 26.1259ZM31.0276 29.9893C31.0322 30.0262 31.0441 30.0619 31.0626 30.0943C31.081 30.1266 31.1056 30.155 31.135 30.1778C31.1644 30.2007 31.1981 30.2175 31.234 30.2273C31.2699 30.2371 31.3074 30.2398 31.3443 30.2352C31.3813 30.2305 31.4169 30.2186 31.4493 30.2002C31.4816 30.1818 31.51 30.1571 31.5328 30.1277C31.5557 30.0983 31.5725 30.0647 31.5823 30.0288C31.5922 29.9929 31.5948 29.9554 31.5902 29.9184C31.5208 29.3685 31.4806 28.7587 31.4683 28.0633C31.467 27.9881 31.4358 27.9165 31.3817 27.8643C31.3276 27.8121 31.255 27.7835 31.1798 27.7848C31.1046 27.7861 31.0331 27.8173 30.9808 27.8714C30.9286 27.9255 30.9 27.9981 30.9014 28.0733C30.914 28.7882 30.9556 29.418 31.0276 29.9893ZM32.2028 33.6691C32.238 33.7355 32.2981 33.7853 32.37 33.8074C32.4418 33.8295 32.5195 33.8222 32.586 33.7871C32.6524 33.7519 32.7022 33.6918 32.7243 33.6199C32.7465 33.5481 32.7392 33.4704 32.704 33.4039C32.3876 32.8064 32.1554 32.271 31.9768 31.7139C31.9539 31.6423 31.9034 31.5828 31.8365 31.5484C31.7697 31.514 31.6919 31.5075 31.6203 31.5305C31.5487 31.5535 31.4892 31.6039 31.4548 31.6708C31.4204 31.7376 31.414 31.8154 31.4369 31.887C31.6265 32.4779 31.8719 33.0435 32.2028 33.6691ZM33.6326 36.0823C33.8058 36.3634 33.9778 36.6453 34.1485 36.9279C34.1874 36.9923 34.2502 37.0386 34.3233 37.0567C34.3963 37.0747 34.4734 37.063 34.5378 37.0241C34.6022 36.9853 34.6485 36.9224 34.6665 36.8494C34.6846 36.7764 34.6729 36.6992 34.634 36.6348C34.4623 36.351 34.2895 36.0678 34.1155 35.7854C34.1306 35.81 33.7462 35.1858 33.6457 35.0219C33.6264 34.9897 33.601 34.9617 33.5709 34.9394C33.5407 34.9171 33.5065 34.901 33.4701 34.892C33.4337 34.8831 33.3958 34.8814 33.3588 34.8872C33.3217 34.8929 33.2862 34.906 33.2542 34.9256C33.2222 34.9451 33.1945 34.9709 33.1725 35.0013C33.1506 35.0317 33.1349 35.0661 33.1263 35.1026C33.1177 35.1391 33.1165 35.177 33.1227 35.2139C33.1289 35.2509 33.1423 35.2863 33.1623 35.3181C33.2632 35.4825 33.6481 36.1076 33.6326 36.0825V36.0823ZM35.3062 40.3242C35.3067 40.3615 35.3145 40.3982 35.3292 40.4324C35.3439 40.4666 35.3652 40.4976 35.3918 40.5236C35.4185 40.5496 35.45 40.57 35.4846 40.5838C35.5192 40.5976 35.5561 40.6045 35.5933 40.604C35.6306 40.6035 35.6673 40.5957 35.7015 40.581C35.7357 40.5663 35.7667 40.545 35.7927 40.5184C35.8187 40.4917 35.8392 40.4602 35.853 40.4256C35.8668 40.391 35.8736 40.3541 35.8731 40.3169C35.8648 39.6518 35.7475 38.9926 35.526 38.3655C35.4998 38.2962 35.4474 38.2399 35.3802 38.2087C35.313 38.1775 35.2363 38.1738 35.1664 38.1985C35.0966 38.2232 35.0392 38.2743 35.0065 38.3407C34.9738 38.4072 34.9684 38.4839 34.9915 38.5543C35.1924 39.1231 35.2987 39.721 35.3062 40.3242ZM34.27 43.7311C34.2299 43.7937 34.216 43.8695 34.2313 43.9422C34.2466 44.015 34.2898 44.0788 34.3517 44.12C34.4135 44.1612 34.4891 44.1764 34.5621 44.1624C34.6351 44.1484 34.6997 44.1063 34.7419 44.0452C35.109 43.4961 35.3947 42.8967 35.59 42.2658C35.6121 42.1939 35.6048 42.1162 35.5696 42.0497C35.5344 41.9833 35.4743 41.9335 35.4024 41.9114C35.3305 41.8893 35.2528 41.8967 35.1864 41.9319C35.1199 41.9671 35.0702 42.0272 35.0481 42.0991C34.8689 42.6778 34.6068 43.2275 34.27 43.7311Z" fill="#FDE5D8"/>
<path d="M60.8446 31.6803L53.1713 38.2926M49.7697 32.4009L59.3328 29.0618L49.7697 32.4009Z" stroke="#FDE5D8" stroke-linecap="round"/>
<path d="M60.2631 30.4887C60.3987 30.4104 60.4451 30.237 60.3668 30.1014C60.2886 29.9659 60.1152 29.9194 59.9796 29.9977L54.1288 33.3756C53.9932 33.4539 53.9468 33.6273 54.0251 33.7629C54.1033 33.8984 54.2767 33.9449 54.4123 33.8666L60.2631 30.4887Z" fill="#FDE5D8"/>
<path d="M63.2421 30.9507L61.2578 27.5138C61.1535 27.3331 60.9223 27.2711 60.7415 27.3755L59.9327 27.8425C59.752 27.9468 59.69 28.178 59.7944 28.3588L61.7786 31.7956C61.883 31.9764 62.1142 32.0383 62.2949 31.9339L63.1037 31.467C63.2845 31.3626 63.3464 31.1314 63.2421 30.9507Z" fill="white" stroke="#FDE5D8"/>
<path d="M69.8124 20.1746L73.8754 27.2119L63.7936 33.0326L59.7306 25.9953L69.8124 20.1746Z" stroke="#FDE5D8"/>
<path d="M68.6454 29.795L68.3599 32.8374C68.35 32.9411 68.2766 33.0767 68.1935 33.1419L64.4623 36.0762C64.2994 36.2045 64.2327 36.1536 64.3133 35.9633L65.268 33.7089L65.5559 31.5788" stroke="#FDE5D8"/>
<path d="M64.9604 23.4123L62.1829 22.1385C62.088 22.0951 61.934 22.0911 61.836 22.1302L57.4292 23.8944C57.2367 23.9715 57.2473 24.0546 57.4525 24.08L59.8823 24.3805L61.8709 25.1962" stroke="#FDE5D8"/>
<path d="M69.8126 20.1746L76.321 20.7344C76.6326 20.7612 76.778 21.0118 76.645 21.2955L73.8758 27.2118" stroke="#FDE5D8"/>
<path d="M62.0503 27.3839C62.1285 27.5195 62.3012 27.5663 62.4359 27.4886C62.5705 27.4108 62.6163 27.2379 62.538 27.1023C62.4597 26.9667 62.2871 26.9198 62.1524 26.9976C62.0177 27.0754 61.972 27.2483 62.0503 27.3839Z" fill="#FC8A51"/>
<path d="M62.6173 28.3658C62.6955 28.5014 62.8682 28.5483 63.0028 28.4705C63.1375 28.3928 63.1832 28.2198 63.105 28.0842C63.0267 27.9487 62.8541 27.9018 62.7194 27.9795C62.5847 28.0573 62.539 28.2302 62.6173 28.3658Z" fill="#FC8A51"/>
<path d="M63.1841 29.3476C63.2624 29.4832 63.435 29.5301 63.5697 29.4523C63.7044 29.3746 63.7501 29.2016 63.6718 29.066C63.5935 28.9305 63.4209 28.8836 63.2862 28.9613C63.1516 29.0391 63.1058 29.212 63.1841 29.3476Z" fill="#FC8A51"/>
<path d="M63.7511 30.3297C63.8294 30.4653 64.002 30.5121 64.1367 30.4344C64.2714 30.3566 64.3171 30.1837 64.2388 30.0481C64.1605 29.9125 63.9879 29.8656 63.8532 29.9434C63.7186 30.0212 63.6728 30.1941 63.7511 30.3297Z" fill="#FC8A51"/>
<path d="M65.9899 27.0731C66.5378 28.0221 67.7464 28.3501 68.6894 27.8057C69.6324 27.2612 69.9527 26.0505 69.4048 25.1015C68.8568 24.1524 67.6482 23.8244 66.7052 24.3689C65.7622 24.9133 65.4419 26.124 65.9899 27.0731Z" stroke="#FDE5D8"/>
<path d="M66.8032 26.6036C67.0902 27.1008 67.7233 27.2726 68.2173 26.9874C68.7113 26.7022 68.879 26.068 68.592 25.5709C68.305 25.0738 67.6719 24.902 67.1779 25.1872C66.684 25.4723 66.5162 26.1065 66.8032 26.6036Z" stroke="#FDE5D8"/>
<path fill-rule="evenodd" clip-rule="evenodd" d="M18.5279 7.40988C18.4991 7.72887 18.5432 8.13101 18.7163 8.57152C18.7364 8.61656 18.7731 8.65211 18.8188 8.6708C18.8645 8.68948 18.9156 8.68987 18.9615 8.67188C19.0075 8.65389 19.0447 8.61891 19.0656 8.57418C19.0864 8.52945 19.0892 8.47842 19.0734 8.43167C18.924 8.05108 18.8863 7.70752 18.91 7.44408C18.9119 7.42254 18.9137 7.40893 18.9145 7.40421C18.9193 7.37911 18.9189 7.35331 18.9136 7.32834C18.9082 7.30336 18.8979 7.2797 18.8833 7.25876C18.8687 7.23781 18.85 7.22 18.8284 7.20637C18.8068 7.19273 18.7827 7.18355 18.7575 7.17936C18.7323 7.17517 18.7065 7.17605 18.6817 7.18196C18.6568 7.18787 18.6334 7.19868 18.6128 7.21376C18.5922 7.22885 18.5748 7.2479 18.5616 7.26979C18.5485 7.29169 18.5398 7.31599 18.5362 7.34128C18.5326 7.36404 18.5298 7.38692 18.5279 7.40988ZM20.6986 10.3736C20.7914 10.4189 20.9061 10.3855 20.9547 10.2991C21.0033 10.213 20.9675 10.1064 20.8746 10.061C20.5219 9.88963 20.2211 9.69933 19.9686 9.49278C19.9299 9.46178 19.8811 9.44626 19.8316 9.44923C19.7822 9.4522 19.7355 9.47344 19.7008 9.50884C19.6845 9.52574 19.6719 9.5459 19.6638 9.568C19.6557 9.59009 19.6524 9.61364 19.654 9.63711C19.6556 9.66058 19.6622 9.68344 19.6732 9.70422C19.6842 9.725 19.6995 9.74323 19.718 9.75772C19.9936 9.98298 20.3195 10.1892 20.6988 10.3738L20.6986 10.3736ZM23.1801 11.5188C23.2048 11.5264 23.2308 11.5289 23.2565 11.5263C23.2822 11.5238 23.3072 11.5161 23.3299 11.5038C23.3527 11.4915 23.3727 11.4748 23.389 11.4546C23.4052 11.4345 23.4172 11.4113 23.4244 11.3865C23.4399 11.3362 23.435 11.2819 23.4107 11.2352C23.3865 11.1886 23.3448 11.1533 23.2948 11.1371C22.9212 11.0216 22.5486 10.903 22.177 10.7814C22.1524 10.7735 22.1264 10.7705 22.1007 10.7727C22.0749 10.7749 22.0498 10.7822 22.0269 10.7941C22.004 10.8061 21.9837 10.8225 21.9672 10.8425C21.9507 10.8624 21.9383 10.8854 21.9308 10.9101C21.9146 10.9602 21.9187 11.0146 21.9423 11.0616C21.966 11.1087 22.0072 11.1445 22.057 11.1614C22.3837 11.269 22.606 11.3391 23.1801 11.5188ZM25.4353 12.2611C25.5204 12.3076 25.6285 12.2796 25.6772 12.1987C25.6887 12.1795 25.6962 12.158 25.6991 12.1358C25.7021 12.1135 25.7004 12.0909 25.6943 12.0692C25.6882 12.0476 25.6777 12.0275 25.6635 12.0101C25.6493 11.9927 25.6318 11.9784 25.6118 11.968C25.3295 11.8132 25.0086 11.676 24.6165 11.5381C24.5246 11.5059 24.4228 11.5507 24.389 11.6382C24.3549 11.7259 24.4022 11.823 24.4938 11.8554C24.8688 11.9871 25.1723 12.1169 25.4353 12.2611ZM27.2083 14.2457C27.247 14.3391 27.3614 14.3859 27.4632 14.3504C27.5653 14.3149 27.6163 14.2106 27.5776 14.1172C27.4169 13.7302 27.2274 13.3999 27.0036 13.1147C26.94 13.0336 26.8166 13.0151 26.7279 13.0735C26.6393 13.1317 26.6193 13.2447 26.6829 13.3258C26.8859 13.5843 27.0594 13.887 27.2083 14.2457ZM27.7057 16.8237C27.7091 16.9282 27.813 17.0108 27.9378 17.008C28.0625 17.005 28.1607 16.9178 28.1575 16.8133C28.1437 16.3968 28.1065 16.0185 28.04 15.6568C28.0209 15.5534 27.9054 15.4824 27.782 15.4984C27.6588 15.5143 27.5742 15.6113 27.5932 15.7146C27.6567 16.0595 27.6925 16.4224 27.7057 16.8237Z" fill="#EEEEEE"/>
<path fill-rule="evenodd" clip-rule="evenodd" d="M27.6172 18.4687C27.6047 18.7996 27.5957 19.1305 27.5903 19.4616C27.589 19.5661 27.6652 19.6521 27.7608 19.6536C27.8564 19.6551 27.9352 19.5718 27.9365 19.4675C27.9403 19.1902 27.9471 18.9608 27.9634 18.4827L27.9683 18.3378C27.9717 18.2334 27.897 18.1458 27.8016 18.142C27.706 18.1382 27.6257 18.2195 27.6221 18.324L27.6172 18.4687ZM27.7678 22.1483C27.7905 22.2513 27.895 22.3168 28.0014 22.2951C28.1076 22.2732 28.1754 22.1721 28.1529 22.0691C28.0741 21.71 28.0187 21.3434 27.9834 20.9609C27.9736 20.8562 27.878 20.7788 27.7697 20.7882C27.6614 20.7977 27.5815 20.8903 27.5911 20.995C27.6279 21.3922 27.6856 21.7737 27.7678 22.1483ZM28.7232 24.4772C28.7792 24.563 28.9033 24.5925 29.0005 24.543C29.0976 24.4937 29.1309 24.3841 29.0751 24.2983C28.8775 23.9966 28.7013 23.6814 28.5479 23.3551C28.505 23.2634 28.3863 23.22 28.2827 23.2578C28.1792 23.2956 28.1297 23.4004 28.1728 23.4919C28.333 23.8328 28.5169 24.1621 28.7232 24.4772ZM29.633 25.9325C29.8392 26.1713 30.063 26.3944 30.3025 26.5998C30.3398 26.6315 30.3877 26.6478 30.4366 26.6455C30.4855 26.6432 30.5317 26.6224 30.5658 26.5873C30.5821 26.5704 30.5948 26.5503 30.603 26.5282C30.6113 26.5062 30.6149 26.4827 30.6136 26.4592C30.6124 26.4357 30.6063 26.4127 30.5958 26.3916C30.5853 26.3706 30.5706 26.3519 30.5525 26.3368C30.3268 26.1431 30.1158 25.9329 29.9214 25.7078C29.8848 25.6652 29.8485 25.6222 29.8125 25.579C29.7807 25.5418 29.7359 25.5182 29.6872 25.5129C29.6386 25.5075 29.5897 25.5209 29.5506 25.5502C29.5315 25.5641 29.5156 25.5818 29.5036 25.6021C29.4917 25.6224 29.4841 25.645 29.4812 25.6684C29.4784 25.6918 29.4804 25.7155 29.4871 25.7381C29.4939 25.7607 29.5052 25.7816 29.5204 25.7997C29.5574 25.8439 29.5948 25.8883 29.633 25.9325ZM32.6235 28.1392C32.7142 28.1849 32.8223 28.1424 32.8647 28.0445C32.907 27.9463 32.8677 27.8299 32.777 27.7841C32.4527 27.6215 32.1381 27.4403 31.8347 27.2414C31.7491 27.1851 31.6375 27.2142 31.5853 27.3066C31.5331 27.3988 31.5602 27.5194 31.6458 27.5757C31.9605 27.7823 32.287 27.9704 32.6235 28.1392Z" fill="#E5E5E5"/>
<path fill-rule="evenodd" clip-rule="evenodd" d="M35.2883 29.0967C35.3928 29.1234 35.4977 29.054 35.5225 28.9418C35.5472 28.8293 35.4828 28.7165 35.3783 28.6898C35.0044 28.5945 34.6348 28.4834 34.2703 28.3567C34.1683 28.3212 34.0587 28.3812 34.0254 28.4912C33.9923 28.601 34.0483 28.7189 34.1505 28.7545C34.5248 28.8846 34.9044 28.9987 35.2883 29.0965V29.0967ZM37.7828 29.48C37.8875 29.4875 37.9775 29.3959 37.9841 29.2753C37.9907 29.1545 37.9111 29.0508 37.8066 29.0432C37.4321 29.0161 37.0589 28.9735 36.6879 28.9155C36.584 28.8992 36.4885 28.9831 36.4744 29.1028C36.4604 29.2226 36.5329 29.3327 36.6369 29.349C37.0169 29.4085 37.3993 29.4522 37.783 29.48H37.7828ZM40.464 29.2169C40.568 29.2065 40.6417 29.1305 40.6286 29.0468C40.6158 28.9635 40.5211 28.9041 40.4174 28.9145C40.0551 28.9508 39.6817 28.975 39.3005 28.9867C39.1958 28.9899 39.1144 29.0608 39.1185 29.1449C39.1225 29.229 39.2105 29.2946 39.3151 29.2912C39.6988 29.2795 40.082 29.2548 40.464 29.2169ZM43.156 28.7148C43.2562 28.6732 43.3026 28.5606 43.2599 28.4631C43.2385 28.4159 43.1995 28.379 43.1513 28.3601C43.1031 28.3412 43.0494 28.3419 43.0016 28.362C42.6464 28.5079 42.2817 28.6294 41.9099 28.7254C41.8852 28.7315 41.862 28.7424 41.8416 28.7575C41.8212 28.7727 41.804 28.7918 41.7911 28.8136C41.7781 28.8355 41.7696 28.8597 41.7662 28.8849C41.7627 28.9101 41.7643 28.9357 41.7708 28.9603C41.7991 29.0627 41.9071 29.1234 42.0121 29.0958C42.4018 28.9951 42.784 28.8678 43.1562 28.7148H43.156ZM45.326 26.9135C45.3812 26.8313 45.354 26.7234 45.2656 26.6721C45.1767 26.6211 45.0601 26.6461 45.0049 26.7283C44.8241 26.9974 44.5845 27.2449 44.2899 27.4691C44.2709 27.4827 44.255 27.5003 44.2433 27.5205C44.2316 27.5407 44.2242 27.5632 44.2218 27.5864C44.2193 27.6097 44.2218 27.6332 44.229 27.6554C44.2362 27.6777 44.2481 27.6981 44.2638 27.7155C44.3299 27.7903 44.449 27.8011 44.5299 27.7397C44.8555 27.4921 45.1225 27.216 45.326 26.9135ZM46.8046 25.0747C46.8407 25.0429 46.8628 24.998 46.866 24.9499C46.8692 24.9018 46.8532 24.8544 46.8216 24.8181C46.8059 24.8001 46.7869 24.7854 46.7655 24.7748C46.7441 24.7642 46.7209 24.758 46.6971 24.7564C46.6733 24.7548 46.6494 24.7579 46.6268 24.7656C46.6043 24.7733 46.5834 24.7853 46.5655 24.8011C46.2859 25.0458 46.0227 25.3086 45.7775 25.5878C45.7458 25.6241 45.7297 25.6716 45.7329 25.7197C45.736 25.7678 45.7581 25.8127 45.7943 25.8446C45.8122 25.8604 45.833 25.8724 45.8556 25.8801C45.8781 25.8878 45.902 25.891 45.9257 25.8894C45.9495 25.8878 45.9728 25.8816 45.9941 25.871C46.0155 25.8604 46.0345 25.8458 46.0502 25.8278C46.2849 25.5606 46.5368 25.309 46.8044 25.0747H46.8046ZM49.036 23.5975C49.126 23.5489 49.1602 23.4354 49.1125 23.3439C49.1015 23.3222 49.0862 23.303 49.0676 23.2873C49.049 23.2716 49.0275 23.2598 49.0043 23.2526C48.9811 23.2453 48.9566 23.2428 48.9324 23.2451C48.9082 23.2474 48.8847 23.2545 48.8633 23.266C48.5322 23.4443 48.2091 23.6372 47.8952 23.8441C47.8099 23.9004 47.7856 24.0167 47.8409 24.1036C47.8965 24.1905 48.0106 24.2151 48.096 24.1588C48.4009 23.9579 48.7145 23.7706 49.036 23.5975ZM51.454 22.4735C51.5579 22.4415 51.6148 22.3367 51.581 22.239C51.5471 22.1411 51.4354 22.0878 51.3315 22.1195C50.9508 22.236 50.5742 22.3654 50.2024 22.5077C50.1011 22.5464 50.0523 22.6551 50.0935 22.7501C50.1347 22.8454 50.2504 22.8911 50.3517 22.8524C50.7147 22.7135 51.0823 22.5872 51.454 22.4735Z" fill="#EEEEEE"/>
<path d="M27.7796 18.3307C28.3014 18.3307 28.7244 17.9076 28.7244 17.3858C28.7244 16.864 28.3014 16.4409 27.7796 16.4409C27.2577 16.4409 26.8347 16.864 26.8347 17.3858C26.8347 17.9076 27.2577 18.3307 27.7796 18.3307Z" fill="white" stroke="#EEEEEE"/>
<path d="M45.3543 27.4016C45.8761 27.4016 46.2992 26.9786 46.2992 26.4567C46.2992 25.9349 45.8761 25.5118 45.3543 25.5118C44.8325 25.5118 44.4094 25.9349 44.4094 26.4567C44.4094 26.9786 44.8325 27.4016 45.3543 27.4016Z" fill="white" stroke="#EEEEEE"/>
<path d="M4.16876 10.9607C4.16876 10.9607 0.867338 17.1969 1.90104 20.9764C2.93474 24.756 5.11364 27.0237 9.08214 29.2914C13.0506 31.5591 15.2125 28.3465 20.5984 30.4253C25.9842 32.504 26.0787 38.5513 26.0787 38.5513" stroke="#B5A7DD" stroke-width="0.4" stroke-linecap="round" stroke-dasharray="8 10"/>
<path fill-rule="evenodd" clip-rule="evenodd" d="M49.8898 47.6221C49.8898 39.5857 43.375 33.0709 35.3386 33.0709C27.3022 33.0709 20.7874 39.5857 20.7874 47.6221" fill="white"/>
<path d="M49.8898 47.6221C49.8898 39.5857 43.375 33.0709 35.3386 33.0709C27.3022 33.0709 20.7874 39.5857 20.7874 47.6221" stroke="#EEEEEE" stroke-linecap="round"/>
<path d="M41.1969 43.8425C42.8668 43.8425 44.2205 42.4888 44.2205 40.8189C44.2205 39.149 42.8668 37.7953 41.1969 37.7953C39.527 37.7953 38.1732 39.149 38.1732 40.8189C38.1732 42.4888 39.527 43.8425 41.1969 43.8425Z" stroke="#EEEEEE"/>
<path d="M28.8189 40.441C29.7061 40.441 30.4252 39.7218 30.4252 38.8347C30.4252 37.9476 29.7061 37.2284 28.8189 37.2284C27.9318 37.2284 27.2126 37.9476 27.2126 38.8347C27.2126 39.7218 27.9318 40.441 28.8189 40.441Z" stroke="#EEEEEE"/>
<path d="M24.9449 44.9764C25.4667 44.9764 25.8898 44.5534 25.8898 44.0316C25.8898 43.5097 25.4667 43.0867 24.9449 43.0867C24.423 43.0867 24 43.5097 24 44.0316C24 44.5534 24.423 44.9764 24.9449 44.9764Z" stroke="#EEEEEE"/>
<path fill-rule="evenodd" clip-rule="evenodd" d="M45.703 3.43286L46.1389 3.54966C46.346 2.7768 47.1318 2.3159 47.8939 2.5201L48.0123 2.078C47.0096 1.80933 45.9757 2.416 45.7032 3.43291L45.703 3.43286Z" fill="#FC8A51"/>
<path d="M47.9471 2.61347C48.1478 2.66723 48.3546 2.54588 48.4091 2.34244C48.4636 2.139 48.3452 1.93051 48.1445 1.87675C47.9439 1.823 47.7371 1.94434 47.6826 2.14778C47.6281 2.35122 47.7465 2.55972 47.9471 2.61347Z" fill="#FC8A51"/>
<path fill-rule="evenodd" clip-rule="evenodd" d="M45.412 3.35511L44.9761 3.23831C45.1832 2.46545 44.7332 1.67342 43.9711 1.46921L44.0896 1.02711C45.0922 1.29577 45.6843 2.33814 45.4119 3.35506L45.412 3.35511Z" fill="#FC8A51"/>
<path d="M43.8787 1.52354C43.6781 1.46979 43.5597 1.26129 43.6142 1.05785C43.6687 0.854411 43.8755 0.733068 44.0761 0.786823C44.2768 0.840578 44.3952 1.04908 44.3407 1.25252C44.2862 1.45596 44.0794 1.5773 43.8787 1.52354Z" fill="#FC8A51"/>
<path d="M47.8422 7.79545L46.7544 7.50399C46.6536 7.47698 46.55 7.5368 46.523 7.63762C46.496 7.73843 46.5558 7.84205 46.6566 7.86907L47.7444 8.16052C47.8452 8.18754 47.9488 8.12771 47.9758 8.0269C48.0028 7.92608 47.943 7.82246 47.8422 7.79545Z" fill="#FC8A51"/>
<path d="M47.4759 9.27595L46.5007 8.7129C46.4103 8.66071 46.2947 8.69168 46.2425 8.78207C46.1904 8.87245 46.2213 8.98803 46.3117 9.04021L47.287 9.60327C47.3773 9.65545 47.4929 9.62448 47.5451 9.5341C47.5973 9.44371 47.5663 9.32813 47.4759 9.27595Z" fill="#FC8A51"/>
<path d="M48.1795 6.35876L47.0534 6.35876C46.949 6.35876 46.8644 6.44337 46.8644 6.54774C46.8644 6.65211 46.949 6.73671 47.0534 6.73671L48.1795 6.73671C48.2839 6.73671 48.3685 6.6521 48.3685 6.54774C48.3685 6.44337 48.2839 6.35876 48.1795 6.35876Z" fill="#FC8A51"/>
<path d="M41.3783 6.06356L42.4661 6.35502C42.5669 6.38203 42.6267 6.48565 42.5997 6.58647C42.5727 6.68728 42.469 6.74711 42.3682 6.72009L41.2805 6.42863C41.1797 6.40162 41.1198 6.298 41.1469 6.19719C41.1739 6.09637 41.2775 6.03655 41.3783 6.06356Z" fill="#FC8A51"/>
<path d="M40.9549 7.52856L42.081 7.52856C42.1854 7.52856 42.27 7.61317 42.27 7.71754C42.27 7.82191 42.1854 7.90651 42.081 7.90651L40.9549 7.90651C40.8506 7.90651 40.7659 7.8219 40.7659 7.71754C40.7659 7.61317 40.8505 7.52856 40.9549 7.52856Z" fill="#FC8A51"/>
<path d="M41.8041 4.65032L42.7794 5.21337C42.8698 5.26556 42.9007 5.38113 42.8485 5.47152C42.7964 5.5619 42.6808 5.59287 42.5904 5.54069L41.6151 4.97763C41.5248 4.92545 41.4938 4.80987 41.546 4.71949C41.5982 4.6291 41.7137 4.59813 41.8041 4.65032Z" fill="#FC8A51"/>
<path d="M47.3515 6.28652C47.7063 4.96254 46.9206 3.60168 45.5967 3.24693C44.2728 2.89219 42.912 3.6779 42.5572 5.00187L42.1051 6.68907C41.7504 8.01304 42.536 9.3739 43.86 9.72865C45.1839 10.0834 46.5447 9.29768 46.8995 7.97371L47.3515 6.28652Z" stroke="#FC8A51"/>
<path fill-rule="evenodd" clip-rule="evenodd" d="M42.7135 5.00037L47.0721 6.16826L46.9254 6.71587L42.5668 5.54798L42.7135 5.00037Z" fill="#FC8A51"/>
<path fill-rule="evenodd" clip-rule="evenodd" d="M17.4662 2.50359L17.1869 2.57842C17.1557 2.46241 17.1019 2.35369 17.0286 2.25847C16.9554 2.16325 16.8641 2.0834 16.7599 2.02348C16.6558 1.96355 16.5409 1.92474 16.4217 1.90924C16.3026 1.89374 16.1816 1.90187 16.0656 1.93316L15.9909 1.6546C16.634 1.48229 17.2944 1.86252 17.4662 2.50359Z" fill="#EEEEEE"/>
<path d="M16.0312 1.99224C15.9025 2.02671 15.7704 1.95069 15.736 1.82246C15.7017 1.69423 15.7781 1.56233 15.9067 1.52786C16.0354 1.4934 16.1675 1.56941 16.2019 1.69764C16.2362 1.82587 16.1598 1.95777 16.0312 1.99224Z" fill="#EEEEEE"/>
<path fill-rule="evenodd" clip-rule="evenodd" d="M17.6526 2.45366L17.9318 2.37883C17.9009 2.26274 17.8931 2.14169 17.909 2.02259C17.9248 1.9035 17.964 1.78869 18.0242 1.68473C18.0844 1.58076 18.1645 1.48969 18.2599 1.4167C18.3554 1.3437 18.4642 1.29023 18.5804 1.25932L18.5057 0.980773C17.8626 1.15308 17.4808 1.81259 17.6526 2.45366Z" fill="#EEEEEE"/>
<path d="M18.6393 1.29344C18.7679 1.25898 18.8444 1.12708 18.81 0.998847C18.7756 0.870613 18.6435 0.794601 18.5149 0.82907C18.3862 0.863538 18.3098 0.995433 18.3442 1.12367C18.3785 1.2519 18.5107 1.32791 18.6393 1.29344Z" fill="#EEEEEE"/>
<path d="M16.1505 5.24482L16.7167 5.0931C16.8175 5.06609 16.9211 5.12591 16.9481 5.22673C16.9752 5.32754 16.9153 5.43116 16.8145 5.45817L16.2483 5.60989C16.1475 5.63691 16.0439 5.57708 16.0168 5.47627C15.9898 5.37546 16.0497 5.27183 16.1505 5.24482Z" fill="#EEEEEE"/>
<path d="M16.3578 6.1703L16.8655 5.8772C16.9559 5.82502 17.0714 5.85599 17.1236 5.94637C17.1758 6.03676 17.1448 6.15233 17.0545 6.20452L16.5468 6.49762C16.4564 6.5498 16.3408 6.51883 16.2886 6.42845C16.2365 6.33806 16.2674 6.22249 16.3578 6.1703Z" fill="#EEEEEE"/>
<path d="M15.9573 4.35278L16.5435 4.35278C16.6479 4.35278 16.7325 4.43739 16.7325 4.54176C16.7325 4.64613 16.6479 4.73074 16.5435 4.73074L15.9573 4.73074C15.853 4.73074 15.7684 4.64613 15.7684 4.54176C15.7684 4.43739 15.853 4.35278 15.9573 4.35278Z" fill="#EEEEEE"/>
<path d="M20.1626 4.16985L19.5964 4.32157C19.4956 4.34859 19.4357 4.45221 19.4628 4.55302C19.4898 4.65383 19.5934 4.71366 19.6942 4.68665L20.2604 4.53493C20.3612 4.50791 20.4211 4.40429 20.3941 4.30348C20.367 4.20267 20.2634 4.14284 20.1626 4.16985Z" fill="#EEEEEE"/>
<path d="M20.4451 5.07507L19.8589 5.07507C19.7545 5.07507 19.6699 5.15968 19.6699 5.26405C19.6699 5.36842 19.7545 5.45303 19.8589 5.45303L20.4451 5.45303C20.5494 5.45303 20.634 5.36842 20.634 5.26405C20.634 5.15968 20.5494 5.07507 20.4451 5.07507Z" fill="#EEEEEE"/>
<path d="M19.8834 3.30076L19.3757 3.59387C19.2853 3.64605 19.2543 3.76163 19.3065 3.85201C19.3587 3.9424 19.4743 3.97337 19.5647 3.92118L20.0723 3.62808C20.1627 3.5759 20.1937 3.46032 20.1415 3.36993C20.0893 3.27955 19.9737 3.24858 19.8834 3.30076Z" fill="#EEEEEE"/>
<path d="M17.5341 2.38566L17.5343 2.38561C18.3829 2.15821 19.2552 2.66184 19.4826 3.51048L19.7541 4.52356C19.9815 5.3722 19.4778 6.24449 18.6292 6.47189L18.629 6.47193C17.7804 6.69933 16.9081 6.19571 16.6807 5.34707L16.4092 4.33398C16.1819 3.48534 16.6855 2.61305 17.5341 2.38566Z" stroke="#EEEEEE"/>
<path fill-rule="evenodd" clip-rule="evenodd" d="M19.3759 3.48474L16.582 4.23337L16.6798 4.59844L19.4737 3.84982L19.3759 3.48474Z" fill="#EEEEEE"/>
<path d="M1.98426 23.0551C2.87139 23.0551 3.59056 22.336 3.59056 21.4488C3.59056 20.5617 2.87139 19.8425 1.98426 19.8425C1.09712 19.8425 0.37796 20.5617 0.37796 21.4488C0.37796 22.336 1.09712 23.0551 1.98426 23.0551Z" fill="white" stroke="#B5A7DD" stroke-width="0.4"/>
<path d="M32.7874 24.9449C33.4658 24.9449 34.0158 24.3949 34.0158 23.7165C34.0158 23.0381 33.4658 22.4882 32.7874 22.4882C32.109 22.4882 31.5591 23.0381 31.5591 23.7165C31.5591 24.3949 32.109 24.9449 32.7874 24.9449Z" fill="white"/>
<path d="M10.1102 31.9371C11.4148 31.9371 12.4724 30.8795 12.4724 29.5749C12.4724 28.2702 11.4148 27.2126 10.1102 27.2126C8.80561 27.2126 7.74802 28.2702 7.74802 29.5749C7.74802 30.8795 8.80561 31.9371 10.1102 31.9371Z" fill="white" stroke="#6B4FBB"/>
<path fill-rule="evenodd" clip-rule="evenodd" d="M9.77635 29.759L9.44262 29.4251C9.38944 29.3719 9.31732 29.3421 9.24211 29.3421C9.16691 29.3421 9.09479 29.3719 9.04161 29.4251C8.98843 29.4783 8.95856 29.5504 8.95856 29.6256C8.95856 29.7008 8.98843 29.773 9.04161 29.8261L9.57566 30.3602H9.57585V30.3604C9.68734 30.4719 9.86592 30.4713 9.97629 30.3609L11.1801 29.1572C11.2328 29.1038 11.2623 29.0319 11.2622 28.9569C11.2621 28.8819 11.2324 28.8101 11.1795 28.7569C11.1533 28.7305 11.1222 28.7095 11.0879 28.6952C11.0535 28.6808 11.0167 28.6734 10.9795 28.6733C10.9423 28.6733 10.9055 28.6805 10.8711 28.6948C10.8368 28.709 10.8055 28.7298 10.7792 28.7561L9.77635 29.759Z" fill="#FC8A51"/>
<path d="M32.7874 24.7559C33.4658 24.7559 34.0158 24.2059 34.0158 23.5275C34.0158 22.8491 33.4658 22.2992 32.7874 22.2992C32.109 22.2992 31.5591 22.8491 31.5591 23.5275C31.5591 24.2059 32.109 24.7559 32.7874 24.7559Z" fill="white" stroke="#FC8A51"/>
<path d="M4.53541 11.3386C5.16162 11.3386 5.66926 10.831 5.66926 10.2048C5.66926 9.57857 5.16162 9.07092 4.53541 9.07092C3.9092 9.07092 3.40155 9.57857 3.40155 10.2048C3.40155 10.831 3.9092 11.3386 4.53541 11.3386Z" fill="white" stroke="#B5A7DD" stroke-width="0.4"/>
<path fill-rule="evenodd" clip-rule="evenodd" d="M35.9339 27.1363C37.5787 25.6725 38.0151 23.182 36.8527 21.1688C35.5261 18.8708 32.6187 18.0654 30.3591 19.3701C28.0993 20.6748 27.343 23.5953 28.6698 25.8932C29.8483 27.9342 32.2732 28.7978 34.3841 28.0513L36.4437 31.619C36.563 31.8259 36.7596 31.9769 36.9903 32.0389C37.2209 32.1008 37.4667 32.0686 37.6736 31.9493C37.8802 31.8297 38.0309 31.6329 38.0926 31.4023C38.1542 31.1716 38.1218 30.9259 38.0024 30.7191L35.9339 27.1363ZM34.34 26.2653C35.8248 25.4081 36.3218 23.4889 35.4499 21.9788C34.5782 20.4686 32.6676 19.9395 31.1828 20.7967C29.6978 21.6541 29.2008 23.5733 30.0726 25.0834C30.9445 26.5934 32.8551 27.1227 34.34 26.2653Z" fill="white" stroke="#B5A7DD" stroke-width="0.5"/>
</g>
<defs>
<clipPath id="clip0">
<rect width="80.315" height="48" fill="white"/>
</clipPath>
</defs>
</svg>
