<svg width="79" height="47" viewBox="0 0 79 47" fill="none" xmlns="http://www.w3.org/2000/svg">
<g clip-path="url(#clip0)">
<path d="M27.0655 1.96289H5.80354C4.48549 1.96289 3.41699 3.03139 3.41699 4.34944C3.41699 5.6675 4.48549 6.73599 5.80354 6.73599H27.0655C28.3836 6.73599 29.4521 5.6675 29.4521 4.34944C29.4521 3.03139 28.3836 1.96289 27.0655 1.96289Z" fill="#F9F9F9"/>
<path d="M23.1603 11.5092H-0.705247C-2.0233 11.5092 -3.0918 12.5776 -3.0918 13.8957C-3.0918 15.2138 -2.0233 16.2823 -0.705247 16.2823H23.1603C24.4783 16.2823 25.5468 15.2138 25.5468 13.8957C25.5468 12.5776 24.4783 11.5092 23.1603 11.5092Z" fill="#F9F9F9"/>
<path d="M80.8713 16.2822H44.4222C43.1041 16.2822 42.0356 17.3507 42.0356 18.6688C42.0356 19.9868 43.1041 21.0553 44.4222 21.0553H80.8713C82.1894 21.0553 83.2579 19.9868 83.2579 18.6688C83.2579 17.3507 82.1894 16.2822 80.8713 16.2822Z" fill="#F9F9F9"/>
<path d="M56.789 44.7039H27.2825C25.9645 44.7039 24.896 45.7724 24.896 47.0904C24.896 48.4085 25.9645 49.477 27.2825 49.477H56.789C58.107 49.477 59.1755 48.4085 59.1755 47.0904C59.1755 45.7724 58.107 44.7039 56.789 44.7039Z" fill="#F9F9F9"/>
<path d="M43.1205 35.3746H13.6141C12.296 35.3746 11.2275 36.4431 11.2275 37.7612C11.2275 39.0792 12.296 40.1477 13.6141 40.1477H43.1205C44.4386 40.1477 45.5071 39.0792 45.5071 37.7612C45.5071 36.4431 44.4386 35.3746 43.1205 35.3746Z" fill="#F9F9F9"/>
<path d="M77.1829 25.8284H6.02034C4.70228 25.8284 3.63379 26.8969 3.63379 28.2149C3.63379 29.533 4.70228 30.6015 6.02034 30.6015H77.1829C78.501 30.6015 79.5695 29.533 79.5695 28.2149C79.5695 26.8969 78.501 25.8284 77.1829 25.8284Z" fill="#F9F9F9"/>
<path fill-rule="evenodd" clip-rule="evenodd" d="M30.103 6.73596H1.46436H6.12898C7.43073 6.73596 8.51553 7.82076 8.51553 9.12251C8.51553 10.4243 7.43073 11.5091 6.12898 11.5091H1.46436H30.103H22.1839C20.8822 11.5091 19.7974 10.4243 19.7974 9.12251C19.7974 7.82076 20.8822 6.73596 22.1839 6.73596H30.103ZM84.7766 21.0553H59.3924H67.3114C68.6132 21.0553 69.698 22.1401 69.698 23.4418C69.698 24.7436 68.6132 25.8284 67.3114 25.8284H59.3924H84.7766H76.8576C75.5559 25.8284 74.4711 24.7436 74.4711 23.4418C74.4711 22.1401 75.5559 21.0553 76.8576 21.0553H84.7766ZM31.8386 30.6015H6.45441H14.3734C15.6752 30.6015 16.76 31.6862 16.76 32.988C16.76 34.2898 15.6752 35.3746 14.3734 35.3746H6.45441H31.8386H23.9196C22.6179 35.3746 21.5331 34.2898 21.5331 32.988C21.5331 31.6862 22.6179 30.6015 23.9196 30.6015H31.8386ZM48.1106 40.1477H22.7263H27.391C28.6927 40.1477 29.7775 41.2324 29.7775 42.5342C29.7775 43.836 28.6927 44.9207 27.391 44.9207H22.7263H48.1106H36.9372C35.6354 44.9207 34.5506 43.836 34.5506 42.5342C34.5506 41.2324 35.6354 40.1477 36.9372 40.1477H48.1106Z" fill="#F9F9F9"/>
<path d="M68.0708 4.78333H12.0954C10.8971 4.78333 9.92578 5.75468 9.92578 6.95292V41.4494C9.92578 42.6476 10.8971 43.619 12.0954 43.619H68.0708C69.269 43.619 70.2404 42.6476 70.2404 41.4494V6.95292C70.2404 5.75468 69.269 4.78333 68.0708 4.78333Z" fill="white" stroke="#EEEEEE" stroke-width="2"/>
<path fill-rule="evenodd" clip-rule="evenodd" d="M10.7935 11.0751H69.5894V11.9429H10.7935V11.0751Z" fill="#EEEEEE"/>
<path d="M18.387 18.0178H17.5192C17.3994 18.0178 17.3022 18.115 17.3022 18.2348C17.3022 18.3546 17.3994 18.4517 17.5192 18.4517H18.387C18.5069 18.4517 18.604 18.3546 18.604 18.2348C18.604 18.115 18.5069 18.0178 18.387 18.0178Z" fill="#B5A7DD"/>
<path d="M23.3771 17.8009H20.9906C20.7509 17.8009 20.5566 17.9952 20.5566 18.2348C20.5566 18.4745 20.7509 18.6687 20.9906 18.6687H23.3771C23.6167 18.6687 23.811 18.4745 23.811 18.2348C23.811 17.9952 23.6167 17.8009 23.3771 17.8009Z" fill="#EEEEEE"/>
<path d="M35.7438 17.8009H33.3573C33.1176 17.8009 32.9233 17.9952 32.9233 18.2348C32.9233 18.4745 33.1176 18.6687 33.3573 18.6687H35.7438C35.9835 18.6687 36.1777 18.4745 36.1777 18.2348C36.1777 17.9952 35.9835 17.8009 35.7438 17.8009Z" fill="#EEEEEE"/>
<path d="M28.5841 22.574H26.1976C25.9579 22.574 25.7637 22.7682 25.7637 23.0079C25.7637 23.2475 25.9579 23.4418 26.1976 23.4418H28.5841C28.8238 23.4418 29.0181 23.2475 29.0181 23.0079C29.0181 22.7682 28.8238 22.574 28.5841 22.574Z" fill="#EEEEEE"/>
<path d="M31.6217 20.1875H29.2352C28.9955 20.1875 28.8013 20.3818 28.8013 20.6214C28.8013 20.8611 28.9955 21.0553 29.2352 21.0553H31.6217C31.8614 21.0553 32.0557 20.8611 32.0557 20.6214C32.0557 20.3818 31.8614 20.1875 31.6217 20.1875Z" fill="#FC6D26"/>
<path opacity="0.5" d="M31.6216 17.8009H28.1502C27.9106 17.8009 27.7163 17.9952 27.7163 18.2348C27.7163 18.4745 27.9106 18.6687 28.1502 18.6687H31.6216C31.8612 18.6687 32.0555 18.4745 32.0555 18.2348C32.0555 17.9952 31.8612 17.8009 31.6216 17.8009Z" fill="#FC6D26"/>
<path d="M24.4619 22.574H20.9906C20.7509 22.574 20.5566 22.7682 20.5566 23.0079C20.5566 23.2475 20.7509 23.4418 20.9906 23.4418H24.4619C24.7016 23.4418 24.8958 23.2475 24.8958 23.0079C24.8958 22.7682 24.7016 22.574 24.4619 22.574Z" fill="#EEEEEE"/>
<path d="M27.4995 20.1875H24.0282C23.7885 20.1875 23.5942 20.3818 23.5942 20.6214C23.5942 20.8611 23.7885 21.0553 24.0282 21.0553H27.4995C27.7392 21.0553 27.9334 20.8611 27.9334 20.6214C27.9334 20.3818 27.7392 20.1875 27.4995 20.1875Z" fill="#EEEEEE"/>
<path d="M26.4144 17.8009H25.1126C24.873 17.8009 24.6787 17.9952 24.6787 18.2348C24.6787 18.4745 24.873 18.6687 25.1126 18.6687H26.4144C26.654 18.6687 26.8483 18.4745 26.8483 18.2348C26.8483 17.9952 26.654 17.8009 26.4144 17.8009Z" fill="#FC6D26"/>
<path d="M22.2923 20.1875H20.9906C20.7509 20.1875 20.5566 20.3818 20.5566 20.6214C20.5566 20.8611 20.7509 21.0553 20.9906 21.0553H22.2923C22.532 21.0553 22.7262 20.8611 22.7262 20.6214C22.7262 20.3818 22.532 20.1875 22.2923 20.1875Z" fill="#EEEEEE"/>
<path d="M18.387 20.4044H17.5192C17.3994 20.4044 17.3022 20.5016 17.3022 20.6214C17.3022 20.7412 17.3994 20.8383 17.5192 20.8383H18.387C18.5069 20.8383 18.604 20.7412 18.604 20.6214C18.604 20.5016 18.5069 20.4044 18.387 20.4044Z" fill="#B5A7DD"/>
<path d="M18.387 22.791H17.5192C17.3994 22.791 17.3022 22.8882 17.3022 23.008C17.3022 23.1278 17.3994 23.2249 17.5192 23.2249H18.387C18.5069 23.2249 18.604 23.1278 18.604 23.008C18.604 22.8882 18.5069 22.791 18.387 22.791Z" fill="#B5A7DD"/>
<path d="M18.387 25.1774H17.5192C17.3994 25.1774 17.3022 25.2745 17.3022 25.3943C17.3022 25.5142 17.3994 25.6113 17.5192 25.6113H18.387C18.5069 25.6113 18.604 25.5142 18.604 25.3943C18.604 25.2745 18.5069 25.1774 18.387 25.1774Z" fill="#B5A7DD"/>
<path d="M23.3771 24.9604H20.9906C20.7509 24.9604 20.5566 25.1547 20.5566 25.3944C20.5566 25.634 20.7509 25.8283 20.9906 25.8283H23.3771C23.6167 25.8283 23.811 25.634 23.811 25.3944C23.811 25.1547 23.6167 24.9604 23.3771 24.9604Z" fill="#FC6D26"/>
<path d="M35.7438 24.9604H33.3573C33.1176 24.9604 32.9233 25.1547 32.9233 25.3944C32.9233 25.634 33.1176 25.8283 33.3573 25.8283H35.7438C35.9835 25.8283 36.1777 25.634 36.1777 25.3944C36.1777 25.1547 35.9835 24.9604 35.7438 24.9604Z" fill="#EEEEEE"/>
<path opacity="0.5" d="M28.5841 29.7335H26.1976C25.9579 29.7335 25.7637 29.9278 25.7637 30.1674C25.7637 30.4071 25.9579 30.6014 26.1976 30.6014H28.5841C28.8238 30.6014 29.0181 30.4071 29.0181 30.1674C29.0181 29.9278 28.8238 29.7335 28.5841 29.7335Z" fill="#FC6D26"/>
<path d="M31.6217 27.347H29.2352C28.9955 27.347 28.8013 27.5413 28.8013 27.781C28.8013 28.0206 28.9955 28.2149 29.2352 28.2149H31.6217C31.8614 28.2149 32.0557 28.0206 32.0557 27.781C32.0557 27.5413 31.8614 27.347 31.6217 27.347Z" fill="#EEEEEE"/>
<path d="M31.6216 24.9604H28.1502C27.9106 24.9604 27.7163 25.1547 27.7163 25.3944C27.7163 25.634 27.9106 25.8283 28.1502 25.8283H31.6216C31.8612 25.8283 32.0555 25.634 32.0555 25.3944C32.0555 25.1547 31.8612 24.9604 31.6216 24.9604Z" fill="#FC6D26"/>
<path d="M24.4619 29.7335H20.9906C20.7509 29.7335 20.5566 29.9278 20.5566 30.1674C20.5566 30.4071 20.7509 30.6014 20.9906 30.6014H24.4619C24.7016 30.6014 24.8958 30.4071 24.8958 30.1674C24.8958 29.9278 24.7016 29.7335 24.4619 29.7335Z" fill="#FC6D26"/>
<path d="M27.4995 27.347H24.0282C23.7885 27.347 23.5942 27.5413 23.5942 27.781C23.5942 28.0206 23.7885 28.2149 24.0282 28.2149H27.4995C27.7392 28.2149 27.9334 28.0206 27.9334 27.781C27.9334 27.5413 27.7392 27.347 27.4995 27.347Z" fill="#EEEEEE"/>
<path opacity="0.5" d="M26.4144 24.9604H25.1126C24.873 24.9604 24.6787 25.1547 24.6787 25.3944C24.6787 25.634 24.873 25.8283 25.1126 25.8283H26.4144C26.654 25.8283 26.8483 25.634 26.8483 25.3944C26.8483 25.1547 26.654 24.9604 26.4144 24.9604Z" fill="#FC6D26"/>
<path d="M22.2923 27.347H20.9906C20.7509 27.347 20.5566 27.5413 20.5566 27.781C20.5566 28.0206 20.7509 28.2149 20.9906 28.2149H22.2923C22.532 28.2149 22.7262 28.0206 22.7262 27.781C22.7262 27.5413 22.532 27.347 22.2923 27.347Z" fill="#EEEEEE"/>
<path d="M18.387 27.564H17.5192C17.3994 27.564 17.3022 27.6611 17.3022 27.7809C17.3022 27.9007 17.3994 27.9979 17.5192 27.9979H18.387C18.5069 27.9979 18.604 27.9007 18.604 27.7809C18.604 27.6611 18.5069 27.564 18.387 27.564Z" fill="#B5A7DD"/>
<path d="M18.387 29.9506H17.5192C17.3994 29.9506 17.3022 30.0477 17.3022 30.1675C17.3022 30.2873 17.3994 30.3845 17.5192 30.3845H18.387C18.5069 30.3845 18.604 30.2873 18.604 30.1675C18.604 30.0477 18.5069 29.9506 18.387 29.9506Z" fill="#B5A7DD"/>
<path d="M18.387 32.337H17.5192C17.3994 32.337 17.3022 32.4342 17.3022 32.554C17.3022 32.6738 17.3994 32.771 17.5192 32.771H18.387C18.5069 32.771 18.604 32.6738 18.604 32.554C18.604 32.4342 18.5069 32.337 18.387 32.337Z" fill="#B5A7DD"/>
<path d="M23.3771 32.1201H20.9906C20.7509 32.1201 20.5566 32.3144 20.5566 32.554C20.5566 32.7937 20.7509 32.988 20.9906 32.988H23.3771C23.6167 32.988 23.811 32.7937 23.811 32.554C23.811 32.3144 23.6167 32.1201 23.3771 32.1201Z" fill="#EEEEEE"/>
<path d="M35.7438 32.1201H33.3573C33.1176 32.1201 32.9233 32.3144 32.9233 32.554C32.9233 32.7937 33.1176 32.988 33.3573 32.988H35.7438C35.9835 32.988 36.1777 32.7937 36.1777 32.554C36.1777 32.3144 35.9835 32.1201 35.7438 32.1201Z" fill="#EEEEEE"/>
<path d="M28.5841 36.8932H26.1976C25.9579 36.8932 25.7637 37.0875 25.7637 37.3271C25.7637 37.5668 25.9579 37.761 26.1976 37.761H28.5841C28.8238 37.761 29.0181 37.5668 29.0181 37.3271C29.0181 37.0875 28.8238 36.8932 28.5841 36.8932Z" fill="#EEEEEE"/>
<path d="M31.6217 34.5067H29.2352C28.9955 34.5067 28.8013 34.701 28.8013 34.9406C28.8013 35.1803 28.9955 35.3745 29.2352 35.3745H31.6217C31.8614 35.3745 32.0557 35.1803 32.0557 34.9406C32.0557 34.701 31.8614 34.5067 31.6217 34.5067Z" fill="#EEEEEE"/>
<path d="M31.6216 32.1201H28.1502C27.9106 32.1201 27.7163 32.3144 27.7163 32.554C27.7163 32.7937 27.9106 32.988 28.1502 32.988H31.6216C31.8612 32.988 32.0555 32.7937 32.0555 32.554C32.0555 32.3144 31.8612 32.1201 31.6216 32.1201Z" fill="#FC6D26"/>
<path d="M24.4619 36.8932H20.9906C20.7509 36.8932 20.5566 37.0875 20.5566 37.3271C20.5566 37.5668 20.7509 37.761 20.9906 37.761H24.4619C24.7016 37.761 24.8958 37.5668 24.8958 37.3271C24.8958 37.0875 24.7016 36.8932 24.4619 36.8932Z" fill="#EEEEEE"/>
<path d="M27.4995 34.5067H24.0282C23.7885 34.5067 23.5942 34.701 23.5942 34.9406C23.5942 35.1803 23.7885 35.3745 24.0282 35.3745H27.4995C27.7392 35.3745 27.9334 35.1803 27.9334 34.9406C27.9334 34.701 27.7392 34.5067 27.4995 34.5067Z" fill="#EEEEEE"/>
<path opacity="0.5" d="M26.4144 32.1201H25.1126C24.873 32.1201 24.6787 32.3144 24.6787 32.554C24.6787 32.7937 24.873 32.988 25.1126 32.988H26.4144C26.654 32.988 26.8483 32.7937 26.8483 32.554C26.8483 32.3144 26.654 32.1201 26.4144 32.1201Z" fill="#FC6D26"/>
<path d="M22.2923 34.5067H20.9906C20.7509 34.5067 20.5566 34.701 20.5566 34.9406C20.5566 35.1803 20.7509 35.3745 20.9906 35.3745H22.2923C22.532 35.3745 22.7262 35.1803 22.7262 34.9406C22.7262 34.701 22.532 34.5067 22.2923 34.5067Z" fill="#EEEEEE"/>
<path d="M18.387 34.7236H17.5192C17.3994 34.7236 17.3022 34.8208 17.3022 34.9406C17.3022 35.0604 17.3994 35.1575 17.5192 35.1575H18.387C18.5069 35.1575 18.604 35.0604 18.604 34.9406C18.604 34.8208 18.5069 34.7236 18.387 34.7236Z" fill="#B5A7DD"/>
<path d="M18.387 37.1102H17.5192C17.3994 37.1102 17.3022 37.2074 17.3022 37.3272C17.3022 37.447 17.3994 37.5442 17.5192 37.5442H18.387C18.5069 37.5442 18.604 37.447 18.604 37.3272C18.604 37.2074 18.5069 37.1102 18.387 37.1102Z" fill="#B5A7DD"/>
<path d="M45.073 17.8008H44.2052C44.0854 17.8008 43.9883 17.8979 43.9883 18.0177C43.9883 18.1376 44.0854 18.2347 44.2052 18.2347H45.073C45.1929 18.2347 45.29 18.1376 45.29 18.0177C45.29 17.8979 45.1929 17.8008 45.073 17.8008Z" fill="#FDE5D8"/>
<path d="M50.0631 17.5839H47.6766C47.4369 17.5839 47.2427 17.7781 47.2427 18.0178C47.2427 18.2574 47.4369 18.4517 47.6766 18.4517H50.0631C50.3028 18.4517 50.4971 18.2574 50.4971 18.0178C50.4971 17.7781 50.3028 17.5839 50.0631 17.5839Z" fill="#EEEEEE"/>
<path d="M62.4299 17.5839H60.0433C59.8036 17.5839 59.6094 17.7781 59.6094 18.0178C59.6094 18.2574 59.8036 18.4517 60.0433 18.4517H62.4299C62.6695 18.4517 62.8638 18.2574 62.8638 18.0178C62.8638 17.7781 62.6695 17.5839 62.4299 17.5839Z" fill="#EEEEEE"/>
<path opacity="0.5" d="M55.2702 22.3569H52.8836C52.644 22.3569 52.4497 22.5512 52.4497 22.7909C52.4497 23.0305 52.644 23.2248 52.8836 23.2248H55.2702C55.5098 23.2248 55.7041 23.0305 55.7041 22.7909C55.7041 22.5512 55.5098 22.3569 55.2702 22.3569Z" fill="#6B4FBB"/>
<path d="M58.3078 19.9705H55.9212C55.6816 19.9705 55.4873 20.1647 55.4873 20.4044C55.4873 20.644 55.6816 20.8383 55.9212 20.8383H58.3078C58.5474 20.8383 58.7417 20.644 58.7417 20.4044C58.7417 20.1647 58.5474 19.9705 58.3078 19.9705Z" fill="#6B4FBB"/>
<path opacity="0.5" d="M58.3076 17.5839H54.8363C54.5966 17.5839 54.4023 17.7781 54.4023 18.0178C54.4023 18.2574 54.5966 18.4517 54.8363 18.4517H58.3076C58.5473 18.4517 58.7415 18.2574 58.7415 18.0178C58.7415 17.7781 58.5473 17.5839 58.3076 17.5839Z" fill="#6B4FBB"/>
<path d="M51.1479 22.3569H47.6766C47.4369 22.3569 47.2427 22.5512 47.2427 22.7909C47.2427 23.0305 47.4369 23.2248 47.6766 23.2248H51.1479C51.3876 23.2248 51.5819 23.0305 51.5819 22.7909C51.5819 22.5512 51.3876 22.3569 51.1479 22.3569Z" fill="#6B4FBB"/>
<path d="M54.1855 19.9705H50.7142C50.4745 19.9705 50.2803 20.1647 50.2803 20.4044C50.2803 20.644 50.4745 20.8383 50.7142 20.8383H54.1855C54.4252 20.8383 54.6195 20.644 54.6195 20.4044C54.6195 20.1647 54.4252 19.9705 54.1855 19.9705Z" fill="#EEEEEE"/>
<path d="M53.1004 17.5839H51.7987C51.559 17.5839 51.3647 17.7781 51.3647 18.0178C51.3647 18.2574 51.559 18.4517 51.7987 18.4517H53.1004C53.3401 18.4517 53.5343 18.2574 53.5343 18.0178C53.5343 17.7781 53.3401 17.5839 53.1004 17.5839Z" fill="#6B4FBB"/>
<path d="M48.9783 19.9705H47.6766C47.4369 19.9705 47.2427 20.1647 47.2427 20.4044C47.2427 20.644 47.4369 20.8383 47.6766 20.8383H48.9783C49.218 20.8383 49.4123 20.644 49.4123 20.4044C49.4123 20.1647 49.218 19.9705 48.9783 19.9705Z" fill="#EEEEEE"/>
<path d="M45.073 20.1874H44.2052C44.0854 20.1874 43.9883 20.2845 43.9883 20.4043C43.9883 20.5242 44.0854 20.6213 44.2052 20.6213H45.073C45.1929 20.6213 45.29 20.5242 45.29 20.4043C45.29 20.2845 45.1929 20.1874 45.073 20.1874Z" fill="#FDE5D8"/>
<path d="M45.073 22.574H44.2052C44.0854 22.574 43.9883 22.6711 43.9883 22.7909C43.9883 22.9108 44.0854 23.0079 44.2052 23.0079H45.073C45.1929 23.0079 45.29 22.9108 45.29 22.7909C45.29 22.6711 45.1929 22.574 45.073 22.574Z" fill="#FDE5D8"/>
<path d="M45.073 24.9604H44.2052C44.0854 24.9604 43.9883 25.0576 43.9883 25.1774C43.9883 25.2972 44.0854 25.3944 44.2052 25.3944H45.073C45.1929 25.3944 45.29 25.2972 45.29 25.1774C45.29 25.0576 45.1929 24.9604 45.073 24.9604Z" fill="#FDE5D8"/>
<path d="M50.0631 24.7435H47.6766C47.4369 24.7435 47.2427 24.9378 47.2427 25.1774C47.2427 25.4171 47.4369 25.6114 47.6766 25.6114H50.0631C50.3028 25.6114 50.4971 25.4171 50.4971 25.1774C50.4971 24.9378 50.3028 24.7435 50.0631 24.7435Z" fill="#EEEEEE"/>
<path d="M59.3922 22.3569H57.0057C56.766 22.3569 56.5718 22.5512 56.5718 22.7909C56.5718 23.0305 56.766 23.2248 57.0057 23.2248H59.3922C59.6319 23.2248 59.8262 23.0305 59.8262 22.7909C59.8262 22.5512 59.6319 22.3569 59.3922 22.3569Z" fill="#EEEEEE"/>
<path opacity="0.5" d="M55.2702 29.5166H52.8836C52.644 29.5166 52.4497 29.7109 52.4497 29.9505C52.4497 30.1902 52.644 30.3844 52.8836 30.3844H55.2702C55.5098 30.3844 55.7041 30.1902 55.7041 29.9505C55.7041 29.7109 55.5098 29.5166 55.2702 29.5166Z" fill="#6B4FBB"/>
<path d="M53.1007 27.1301H50.7142C50.4745 27.1301 50.2803 27.3244 50.2803 27.564C50.2803 27.8037 50.4745 27.998 50.7142 27.998H53.1007C53.3404 27.998 53.5347 27.8037 53.5347 27.564C53.5347 27.3244 53.3404 27.1301 53.1007 27.1301Z" fill="#6B4FBB"/>
<path d="M58.3076 24.7435H54.8363C54.5966 24.7435 54.4023 24.9378 54.4023 25.1774C54.4023 25.4171 54.5966 25.6114 54.8363 25.6114H58.3076C58.5473 25.6114 58.7415 25.4171 58.7415 25.1774C58.7415 24.9378 58.5473 24.7435 58.3076 24.7435Z" fill="#6B4FBB"/>
<path d="M51.1479 29.5166H47.6766C47.4369 29.5166 47.2427 29.7109 47.2427 29.9505C47.2427 30.1902 47.4369 30.3844 47.6766 30.3844H51.1479C51.3876 30.3844 51.5819 30.1902 51.5819 29.9505C51.5819 29.7109 51.3876 29.5166 51.1479 29.5166Z" fill="#EEEEEE"/>
<path d="M53.1004 24.7435H51.7987C51.559 24.7435 51.3647 24.9378 51.3647 25.1774C51.3647 25.4171 51.559 25.6114 51.7987 25.6114H53.1004C53.3401 25.6114 53.5343 25.4171 53.5343 25.1774C53.5343 24.9378 53.3401 24.7435 53.1004 24.7435Z" fill="#EEEEEE"/>
<path d="M48.9783 27.1301H47.6766C47.4369 27.1301 47.2427 27.3244 47.2427 27.564C47.2427 27.8037 47.4369 27.998 47.6766 27.998H48.9783C49.218 27.998 49.4123 27.8037 49.4123 27.564C49.4123 27.3244 49.218 27.1301 48.9783 27.1301Z" fill="#EEEEEE"/>
<path d="M56.138 27.1301H54.8363C54.5966 27.1301 54.4023 27.3244 54.4023 27.564C54.4023 27.8037 54.5966 27.998 54.8363 27.998H56.138C56.3777 27.998 56.5719 27.8037 56.5719 27.564C56.5719 27.3244 56.3777 27.1301 56.138 27.1301Z" fill="#EEEEEE"/>
<path d="M59.1756 27.1301H57.8739C57.6342 27.1301 57.4399 27.3244 57.4399 27.564C57.4399 27.8037 57.6342 27.998 57.8739 27.998H59.1756C59.4153 27.998 59.6095 27.8037 59.6095 27.564C59.6095 27.3244 59.4153 27.1301 59.1756 27.1301Z" fill="#EEEEEE"/>
<path d="M62.43 22.3569H61.1283C60.8886 22.3569 60.6943 22.5512 60.6943 22.7909C60.6943 23.0305 60.8886 23.2248 61.1283 23.2248H62.43C62.6697 23.2248 62.8639 23.0305 62.8639 22.7909C62.8639 22.5512 62.6697 22.3569 62.43 22.3569Z" fill="#EEEEEE"/>
<path d="M45.073 27.347H44.2052C44.0854 27.347 43.9883 27.4442 43.9883 27.564C43.9883 27.6838 44.0854 27.781 44.2052 27.781H45.073C45.1929 27.781 45.29 27.6838 45.29 27.564C45.29 27.4442 45.1929 27.347 45.073 27.347Z" fill="#FDE5D8"/>
<path d="M45.073 29.7335H44.2052C44.0854 29.7335 43.9883 29.8307 43.9883 29.9505C43.9883 30.0703 44.0854 30.1674 44.2052 30.1674H45.073C45.1929 30.1674 45.29 30.0703 45.29 29.9505C45.29 29.8307 45.1929 29.7335 45.073 29.7335Z" fill="#FDE5D8"/>
<path d="M45.073 32.1201H44.2052C44.0854 32.1201 43.9883 32.2173 43.9883 32.3371C43.9883 32.4569 44.0854 32.554 44.2052 32.554H45.073C45.1929 32.554 45.29 32.4569 45.29 32.3371C45.29 32.2173 45.1929 32.1201 45.073 32.1201Z" fill="#FDE5D8"/>
<path d="M50.0631 31.9032H47.6766C47.4369 31.9032 47.2427 32.0975 47.2427 32.3371C47.2427 32.5768 47.4369 32.771 47.6766 32.771H50.0631C50.3028 32.771 50.4971 32.5768 50.4971 32.3371C50.4971 32.0975 50.3028 31.9032 50.0631 31.9032Z" fill="#6B4FBB"/>
<path d="M55.2702 36.6763H52.8836C52.644 36.6763 52.4497 36.8705 52.4497 37.1102C52.4497 37.3498 52.644 37.5441 52.8836 37.5441H55.2702C55.5098 37.5441 55.7041 37.3498 55.7041 37.1102C55.7041 36.8705 55.5098 36.6763 55.2702 36.6763Z" fill="#EEEEEE"/>
<path opacity="0.5" d="M58.3078 34.2897H55.9212C55.6816 34.2897 55.4873 34.4839 55.4873 34.7236C55.4873 34.9632 55.6816 35.1575 55.9212 35.1575H58.3078C58.5474 35.1575 58.7417 34.9632 58.7417 34.7236C58.7417 34.4839 58.5474 34.2897 58.3078 34.2897Z" fill="#6B4FBB"/>
<path d="M51.1479 36.6763H47.6766C47.4369 36.6763 47.2427 36.8705 47.2427 37.1102C47.2427 37.3498 47.4369 37.5441 47.6766 37.5441H51.1479C51.3876 37.5441 51.5819 37.3498 51.5819 37.1102C51.5819 36.8705 51.3876 36.6763 51.1479 36.6763Z" fill="#EEEEEE"/>
<path d="M54.1855 34.2897H50.7142C50.4745 34.2897 50.2803 34.4839 50.2803 34.7236C50.2803 34.9632 50.4745 35.1575 50.7142 35.1575H54.1855C54.4252 35.1575 54.6195 34.9632 54.6195 34.7236C54.6195 34.4839 54.4252 34.2897 54.1855 34.2897Z" fill="#6B4FBB"/>
<path d="M53.1004 31.9032H51.7987C51.559 31.9032 51.3647 32.0975 51.3647 32.3371C51.3647 32.5768 51.559 32.771 51.7987 32.771H53.1004C53.3401 32.771 53.5343 32.5768 53.5343 32.3371C53.5343 32.0975 53.3401 31.9032 53.1004 31.9032Z" fill="#EEEEEE"/>
<path d="M61.3451 34.2897H60.0433C59.8036 34.2897 59.6094 34.4839 59.6094 34.7236C59.6094 34.9632 59.8036 35.1575 60.0433 35.1575H61.3451C61.5847 35.1575 61.779 34.9632 61.779 34.7236C61.779 34.4839 61.5847 34.2897 61.3451 34.2897Z" fill="#EEEEEE"/>
<path d="M48.9783 34.2897H47.6766C47.4369 34.2897 47.2427 34.4839 47.2427 34.7236C47.2427 34.9632 47.4369 35.1575 47.6766 35.1575H48.9783C49.218 35.1575 49.4123 34.9632 49.4123 34.7236C49.4123 34.4839 49.218 34.2897 48.9783 34.2897Z" fill="#EEEEEE"/>
<path d="M45.073 34.5067H44.2052C44.0854 34.5067 43.9883 34.6039 43.9883 34.7237C43.9883 34.8435 44.0854 34.9406 44.2052 34.9406H45.073C45.1929 34.9406 45.29 34.8435 45.29 34.7237C45.29 34.6039 45.1929 34.5067 45.073 34.5067Z" fill="#FDE5D8"/>
<path d="M45.073 36.8932H44.2052C44.0854 36.8932 43.9883 36.9903 43.9883 37.1101C43.9883 37.23 44.0854 37.3271 44.2052 37.3271H45.073C45.1929 37.3271 45.29 37.23 45.29 37.1101C45.29 36.9903 45.1929 36.8932 45.073 36.8932Z" fill="#FDE5D8"/>
<path d="M66.0312 11.2921H75.4472C76.6405 11.2921 77.6168 10.3158 77.6168 9.12254V2.83072C77.6168 1.63745 76.6405 0.661133 75.4472 0.661133H65.2502C64.0569 0.661133 63.0806 1.63745 63.0806 2.83072V11.943C63.0806 13.1363 63.7748 13.4617 64.6427 12.5939L66.0312 11.2921Z" fill="white" stroke="#FDE5D8" stroke-width="2"/>
<path d="M72.0845 3.69861H66.4436C66.2639 3.69861 66.1182 3.84431 66.1182 4.02405C66.1182 4.20378 66.2639 4.34949 66.4436 4.34949H72.0845C72.2643 4.34949 72.41 4.20378 72.41 4.02405C72.41 3.84431 72.2643 3.69861 72.0845 3.69861Z" fill="#FDB692"/>
<path d="M74.2541 5.65125H66.4436C66.2639 5.65125 66.1182 5.79695 66.1182 5.97668C66.1182 6.15642 66.2639 6.30212 66.4436 6.30212H74.2541C74.4339 6.30212 74.5796 6.15642 74.5796 5.97668C74.5796 5.79695 74.4339 5.65125 74.2541 5.65125Z" fill="#FDB692"/>
<path d="M72.0845 7.60388H66.4436C66.2639 7.60388 66.1182 7.74959 66.1182 7.92932C66.1182 8.10906 66.2639 8.25476 66.4436 8.25476H72.0845C72.2643 8.25476 72.41 8.10906 72.41 7.92932C72.41 7.74959 72.2643 7.60388 72.0845 7.60388Z" fill="#FDB692"/>
<path d="M64.1655 21.0553C65.9629 21.0553 67.4199 19.5982 67.4199 17.8009C67.4199 16.0035 65.9629 14.5465 64.1655 14.5465C62.3682 14.5465 60.9111 16.0035 60.9111 17.8009C60.9111 19.5982 62.3682 21.0553 64.1655 21.0553Z" fill="#FFF7F4" stroke="#FC6D26"/>
<path d="M62.3867 15.1974C63.0376 16.1303 64.079 16.7161 65.2506 16.7161C65.9665 16.7161 66.6174 16.4991 67.2032 16.1303" stroke="#FC6D26" stroke-width="0.5"/>
<path d="M62.9724 18.6687C63.1521 18.6687 63.2979 18.523 63.2979 18.3433C63.2979 18.1635 63.1521 18.0178 62.9724 18.0178C62.7927 18.0178 62.647 18.1635 62.647 18.3433C62.647 18.523 62.7927 18.6687 62.9724 18.6687Z" fill="#FC6D26"/>
<path d="M65.3591 18.6687C65.5389 18.6687 65.6846 18.523 65.6846 18.3433C65.6846 18.1635 65.5389 18.0178 65.3591 18.0178C65.1794 18.0178 65.0337 18.1635 65.0337 18.3433C65.0337 18.523 65.1794 18.6687 65.3591 18.6687Z" fill="#FC6D26"/>
<path d="M16.0005 39.7137C17.7978 39.7137 19.2549 38.2567 19.2549 36.4593C19.2549 34.662 17.7978 33.205 16.0005 33.205C14.2031 33.205 12.7461 34.662 12.7461 36.4593C12.7461 38.2567 14.2031 39.7137 16.0005 39.7137Z" fill="#F4F1FA" stroke="#6B4FBB"/>
<path fill-rule="evenodd" clip-rule="evenodd" d="M18.1701 34.5068H18.7559C18.1701 33.5955 17.1721 32.988 16.0005 32.988C14.8289 32.988 13.8309 33.5955 13.2451 34.5068H13.8309L14.3733 33.8559L14.9157 34.5068L15.4581 33.8559L16.0005 34.5068L16.5429 33.8559L17.0853 34.5068L17.6277 33.8559L18.1701 34.5068Z" fill="#6B4FBB"/>
<path d="M14.8074 37.1102C14.9871 37.1102 15.1328 36.9645 15.1328 36.7848C15.1328 36.6051 14.9871 36.4594 14.8074 36.4594C14.6276 36.4594 14.4819 36.6051 14.4819 36.7848C14.4819 36.9645 14.6276 37.1102 14.8074 37.1102Z" fill="#6B4FBB"/>
<path d="M17.1936 37.1102C17.3733 37.1102 17.519 36.9645 17.519 36.7848C17.519 36.6051 17.3733 36.4594 17.1936 36.4594C17.0139 36.4594 16.8682 36.6051 16.8682 36.7848C16.8682 36.9645 17.0139 37.1102 17.1936 37.1102Z" fill="#6B4FBB"/>
<path d="M13.0498 29.7336H3.63382C2.44055 29.7336 1.46423 28.7573 1.46423 27.5641V21.2722C1.46423 20.079 2.44055 19.1027 3.63382 19.1027H13.8309C15.0242 19.1027 16.0005 20.079 16.0005 21.2722V30.3845C16.0005 31.5778 15.3062 31.9032 14.4384 31.0354L13.0498 29.7336Z" fill="white" stroke="#E2DCF2" stroke-width="2"/>
<path opacity="0.5" d="M4.82708 22.1401H10.468C10.6478 22.1401 10.7935 22.2858 10.7935 22.4656C10.7935 22.6453 10.6478 22.791 10.468 22.791H4.82708C4.64735 22.791 4.50164 22.6453 4.50164 22.4656C4.50164 22.2858 4.64735 22.1401 4.82708 22.1401Z" fill="#6B4FBB"/>
<path opacity="0.5" d="M4.82724 24.0928H8.29859C8.47832 24.0928 8.62402 24.2385 8.62402 24.4182C8.62402 24.5979 8.47832 24.7437 8.29859 24.7437H4.82724C4.64751 24.7437 4.50181 24.5979 4.50181 24.4182C4.50181 24.2385 4.64751 24.0928 4.82724 24.0928Z" fill="#6B4FBB"/>
<path opacity="0.5" d="M4.82724 26.0454H8.29859C8.47832 26.0454 8.62402 26.1911 8.62402 26.3708C8.62402 26.5506 8.47832 26.6963 8.29859 26.6963H4.82724C4.64751 26.6963 4.50181 26.5506 4.50181 26.3708C4.50181 26.1911 4.64751 26.0454 4.82724 26.0454Z" fill="#6B4FBB"/>
</g>
<defs>
<clipPath id="clip0">
<rect width="83.5292" height="48.8158" fill="white" transform="translate(-2.44092 0.661133)"/>
</clipPath>
</defs>
</svg>
