<svg width="52" height="48" viewBox="0 0 52 48" fill="none" xmlns="http://www.w3.org/2000/svg">
<path d="M32.1404 11.789L45.6109 14.1173C47.0988 14.3744 48.0923 15.7653 47.8299 17.2237L44.9797 33.0687C44.7173 34.5272 43.2985 35.5011 41.8106 35.2439L28.34 32.9157C26.8521 32.6585 25.8586 31.2677 26.121 29.8092L28.9712 13.9642C29.2336 12.5057 30.6525 11.5318 32.1404 11.789Z" fill="white"/>
<path d="M31.9504 12.8453C31.0576 12.691 30.2063 13.2754 30.0489 14.1505L27.1986 29.9955C27.0412 30.8705 27.6373 31.705 28.5301 31.8593L42.0006 34.1876C42.8933 34.3419 43.7446 33.7576 43.9021 32.8825L46.7523 17.0375C46.9097 16.1624 46.3136 15.3279 45.4209 15.1736L31.9504 12.8453ZM32.1404 11.789L45.6109 14.1173C47.0988 14.3744 48.0923 15.7653 47.8299 17.2237L44.9797 33.0687C44.7173 34.5272 43.2985 35.5011 41.8106 35.2439L28.34 32.9157C26.8521 32.6585 25.8586 31.2677 26.121 29.8092L28.9712 13.9642C29.2336 12.5057 30.6525 11.5318 32.1404 11.789Z" fill="#E1D8F9"/>
<path d="M39.2265 9.7425L25.6003 8.57392C24.0951 8.44485 22.7683 9.53622 22.6366 11.0116L21.206 27.0398C21.0743 28.5151 22.1877 29.8158 23.6928 29.9449L37.3191 31.1134C38.8242 31.2425 40.1511 30.1511 40.2828 28.6758L41.7133 12.6476C41.845 11.1722 40.7316 9.87157 39.2265 9.7425Z" fill="black" fill-opacity="0.03"/>
<path d="M34.477 47.7322H41.0349C46.4986 47.5866 50.8833 43.2004 50.8833 37.8104C50.8833 32.3306 46.3517 27.8886 40.7614 27.8886C40.4897 27.8886 40.2205 27.8993 39.9544 27.9197C38.6002 24.003 34.8187 21.1847 30.3659 21.1847C28.9201 21.1826 27.4908 21.4853 26.1748 22.0723C24.3556 19.4336 21.2753 17.6986 17.7818 17.6986C12.1915 17.6986 7.65986 22.1406 7.65986 27.6204C7.65986 27.8081 7.66533 27.995 7.67572 28.1803C3.26748 29.253 0 33.1573 0 37.8104C0 43.2902 4.53163 47.7322 10.122 47.7322C10.2106 47.7322 10.2987 47.7311 10.3868 47.729L34.477 47.7322Z" fill="#F4F0FF"/>
<path d="M40.1486 9.42187L26.547 8.27441C25.0446 8.14767 23.718 9.24259 23.5839 10.72L22.1275 26.7704C21.9934 28.2478 23.1027 29.5482 24.6051 29.6749L38.2068 30.8224C39.7092 30.9491 41.0358 29.8542 41.1698 28.3768L42.6262 12.3264C42.7603 10.849 41.651 9.54862 40.1486 9.42187Z" fill="white"/>
<path d="M26.4499 9.34444C25.5485 9.26839 24.7525 9.92534 24.6721 10.8118L23.2156 26.8622C23.1352 27.7486 23.8007 28.5288 24.7022 28.6049L38.3038 29.7523C39.2053 29.8284 40.0013 29.1714 40.0817 28.285L41.5381 12.2346C41.6185 11.3482 40.953 10.5679 40.0516 10.4919L26.4499 9.34444ZM26.547 8.27441L40.1486 9.42187C41.651 9.54862 42.7603 10.849 42.6262 12.3264L41.1698 28.3768C41.0358 29.8542 39.7092 30.9491 38.2068 30.8224L24.6051 29.6749C23.1027 29.5482 21.9934 28.2478 22.1275 26.7704L23.5839 10.72C23.718 9.24259 25.0446 8.14767 26.547 8.27441Z" fill="#E1D8F9"/>
<path d="M28.8145 13.3182L27.7253 13.2263C27.4245 13.2009 27.1589 13.4202 27.1321 13.7161C27.1052 14.012 27.3273 14.2725 27.6281 14.2979L28.7173 14.3898C29.018 14.4152 29.2836 14.1959 29.3105 13.9C29.3373 13.6041 29.1152 13.3436 28.8145 13.3182Z" fill="#FC6D26"/>
<path d="M33.2417 19.0816L32.1525 18.9897C31.8517 18.9643 31.5862 19.1836 31.5593 19.4795C31.5325 19.7755 31.7545 20.0359 32.0553 20.0613L33.1445 20.1533C33.4453 20.1787 33.7109 19.9593 33.7377 19.6634C33.7645 19.3675 33.5425 19.107 33.2417 19.0816Z" fill="#E1DBF1"/>
<path d="M36.5464 22.0571L35.4572 21.9652C35.1564 21.9398 34.8908 22.1591 34.864 22.455C34.8372 22.7509 35.0592 23.0114 35.36 23.0368L36.4492 23.1287C36.75 23.1541 37.0155 22.9348 37.0424 22.6389C37.0692 22.343 36.8472 22.0825 36.5464 22.0571Z" fill="#FEE1D3"/>
<path d="M36.5127 19.3624L35.4235 19.2705C35.1227 19.2451 34.8571 19.4644 34.8303 19.7603C34.8035 20.0562 35.0255 20.3167 35.3263 20.3421L36.4155 20.434C36.7163 20.4594 36.9819 20.2401 37.0087 19.9442C37.0355 19.6483 36.8135 19.3878 36.5127 19.3624Z" fill="#FEF0E8"/>
<path d="M33.1744 13.6912L30.9954 13.5071C30.6946 13.4817 30.4289 13.7012 30.4021 13.9975C30.3752 14.2938 30.5974 14.5545 30.8982 14.58L33.0772 14.764C33.378 14.7895 33.6437 14.5699 33.6705 14.2736C33.6974 13.9774 33.4752 13.7166 33.1744 13.6912Z" fill="#EFEDF8"/>
<path d="M27.8257 21.3098L27.2813 21.2638C26.9806 21.2385 26.7151 21.4576 26.6882 21.7534C26.6614 22.0491 26.8834 22.3094 27.1841 22.3348L27.7286 22.3807C28.0293 22.4061 28.2948 22.1869 28.3216 21.8912C28.3484 21.5955 28.1264 21.3351 27.8257 21.3098Z" fill="#FEF0E8"/>
<path d="M30.5513 21.5437L30.0069 21.4977C29.7062 21.4723 29.4407 21.6915 29.4138 21.9873C29.387 22.283 29.609 22.5433 29.9097 22.5687L30.4541 22.6146C30.7548 22.64 31.0203 22.4208 31.0472 22.1251C31.074 21.8293 30.852 21.569 30.5513 21.5437Z" fill="#FC6D26"/>
<path d="M33.2764 21.7772L32.732 21.7312C32.4313 21.7059 32.1657 21.925 32.1389 22.2208C32.1121 22.5165 32.3341 22.7768 32.6348 22.8022L33.1792 22.8481C33.4799 22.8735 33.7455 22.6543 33.7723 22.3586C33.7991 22.0629 33.5771 21.8025 33.2764 21.7772Z" fill="#E1D8F9"/>
<path d="M29.6651 16.0818L27.4861 15.8977C27.1853 15.8723 26.9196 16.0919 26.8928 16.3881C26.866 16.6844 27.0881 16.9452 27.3889 16.9706L29.5679 17.1547C29.8688 17.1801 30.1344 16.9605 30.1613 16.6643C30.1881 16.368 29.966 16.1072 29.6651 16.0818Z" fill="#E1D8F9"/>
<path d="M37.126 24.7972L34.9471 24.6132C34.6462 24.5877 34.3806 24.8073 34.3537 25.1036C34.3269 25.3998 34.549 25.6606 34.8499 25.686L37.0288 25.8701C37.3297 25.8955 37.5953 25.676 37.6222 25.3797C37.649 25.0834 37.4269 24.8227 37.126 24.7972Z" fill="#6B4FBB"/>
<path d="M37.8406 16.7796L31.8467 16.2719C31.5457 16.2464 31.28 16.4666 31.2531 16.7638C31.2263 17.0609 31.4485 17.3225 31.7494 17.348L37.7434 17.8558C38.0443 17.8812 38.3101 17.661 38.3369 17.3638C38.3638 17.0667 38.1416 16.8051 37.8406 16.7796Z" fill="#C3B8E3"/>
<path d="M33.0379 24.4431L27.0439 23.9353C26.743 23.9098 26.4773 24.1301 26.4504 24.4272C26.4235 24.7244 26.6457 24.986 26.9467 25.0114L32.9407 25.5192C33.2416 25.5447 33.5073 25.3245 33.5342 25.0273C33.5611 24.7301 33.3389 24.4686 33.0379 24.4431Z" fill="#FEE1D3"/>
<path d="M38.0793 14.1112L35.3553 13.881C35.0545 13.8556 34.7888 14.0753 34.7619 14.3717C34.7351 14.6681 34.9572 14.929 35.2581 14.9544L37.982 15.1847C38.2829 15.2101 38.5486 14.9904 38.5754 14.694C38.6023 14.3976 38.3801 14.1367 38.0793 14.1112Z" fill="#E1DBF1"/>
<path d="M29.9723 18.7993L27.2484 18.5691C26.9475 18.5437 26.6818 18.7634 26.655 19.0598C26.6282 19.3562 26.8503 19.6171 27.1512 19.6426L29.8751 19.8728C30.176 19.8982 30.4417 19.6785 30.4685 19.3821C30.4953 19.0857 30.2732 18.8248 29.9723 18.7993Z" fill="#6B4FBB"/>
<path d="M35.2983 48H41.8562C47.3199 47.8544 51.7046 43.4682 51.7046 38.0782C51.7046 32.5984 47.173 28.1564 41.5827 28.1564C41.311 28.1564 41.0418 28.1671 40.7757 28.1875C39.4215 24.2708 35.64 21.4525 31.1871 21.4525C29.7414 21.4504 28.3121 21.7532 26.9961 22.3401C25.1769 19.7014 22.0965 17.9664 18.6031 17.9664C13.0128 17.9664 8.48115 22.4085 8.48115 27.8882C8.48115 28.076 8.48662 28.2629 8.49701 28.4482C4.08877 29.5208 0.821289 33.4252 0.821289 38.0782C0.821289 43.558 5.35292 48 10.9432 48C11.0319 48 11.12 47.999 11.2081 47.9968L35.2983 48Z" fill="white"/>
<path fill-rule="evenodd" clip-rule="evenodd" d="M35.2976 47.4637H41.8407C47.0193 47.3258 51.1567 43.1667 51.1567 38.0782C51.1567 32.8947 46.87 28.6927 41.5819 28.6927C41.3259 28.6927 41.0712 28.7026 40.8179 28.7222L40.3936 28.7549L40.2568 28.3596C38.9505 24.5818 35.3216 21.9887 31.1864 21.9887C29.8189 21.9868 28.4669 22.2731 27.2222 22.8283L26.8009 23.0163L26.5418 22.6406C24.7718 20.0727 21.8233 18.5027 18.6024 18.5027C13.3143 18.5027 9.02753 22.7047 9.02753 27.8882C9.02753 28.0654 9.03246 28.2422 9.04258 28.4183L9.06775 28.8616L8.62813 28.9686C4.39332 29.9986 1.36768 33.7413 1.36768 38.0782C1.36768 43.2616 5.65446 47.4637 10.9425 47.4637C11.0262 47.4637 11.1099 47.4626 11.2073 47.4604L35.2976 47.4637Z" fill="white"/>
<path d="M41.5827 28.1564C47.1729 28.1564 51.7046 32.5985 51.7046 38.0782C51.7046 43.4542 47.3344 47.854 41.8415 48H35.2983L11.2203 47.9967C11.1169 47.999 11.0296 48 10.9432 48C5.35303 48 0.821289 43.5579 0.821289 38.0782C0.821289 33.5134 3.99981 29.542 8.49703 28.4481C8.48641 28.2631 8.48115 28.0765 8.48115 27.8882C8.48115 22.4086 13.0129 17.9664 18.6031 17.9664C21.9832 17.9664 25.1114 19.6064 26.9958 22.3403C28.3124 21.7532 29.742 21.4504 31.1871 21.4525C35.535 21.4525 39.3871 24.1716 40.7757 28.1874C41.0441 28.1668 41.3131 28.1564 41.5827 28.1564ZM41.8266 46.9276C46.7122 46.7976 50.6104 42.873 50.6104 38.0782C50.6104 33.1909 46.5685 29.229 41.5827 29.229C41.3418 29.229 41.1015 29.2383 40.8615 29.2569L40.4372 29.2896C40.1876 29.3088 39.9566 29.1596 39.8762 28.9272L39.7393 28.5318C38.501 24.9504 35.0651 22.5251 31.1863 22.5251C29.8973 22.5232 28.6228 22.7932 27.4496 23.3165L27.0283 23.5045C26.7852 23.6129 26.4979 23.5336 26.3483 23.3167L26.0892 22.9409C24.4075 20.5012 21.6186 19.0391 18.6031 19.0391C13.6172 19.0391 9.57541 23.001 9.57541 27.8882C9.57541 28.0567 9.58012 28.2233 9.58961 28.3886L9.61478 28.8319C9.62938 29.089 9.45538 29.3201 9.20034 29.3822L8.76063 29.4892C4.75075 30.4645 1.91555 34.007 1.91555 38.0782C1.91555 42.9655 5.95738 46.9274 10.9432 46.9274C11.0209 46.9274 11.1001 46.9264 11.2081 46.9242L35.2984 46.9274L41.8266 46.9276Z" fill="#E1D8F9"/>
<path d="M19.2501 27.9907C19.8019 27.7404 20.3915 27.5821 20.9945 27.5223L21.1208 27.0649C21.3387 26.2755 22.1656 25.8045 22.9613 26.0114L23.7546 26.2177C24.1383 26.3176 24.4646 26.564 24.6618 26.9026C24.8589 27.2412 24.9107 27.6443 24.8057 28.0231L24.6794 28.4806C25.1755 28.8277 25.6031 29.2528 25.9488 29.7327L26.4143 29.6081C27.2149 29.3942 28.0346 29.8574 28.2469 30.6437L28.4563 31.4252C28.5574 31.8033 28.5015 32.2068 28.3009 32.5468C28.1003 32.8869 27.7714 33.1356 27.3867 33.2383L26.9221 33.3629C26.892 33.6548 26.8373 33.9481 26.7564 34.241C26.6755 34.5339 26.5718 34.8144 26.4475 35.0819L26.7857 35.4149C27.3682 35.9895 27.3647 36.9241 26.7779 37.5044L26.1939 38.0796C25.9113 38.3577 25.5291 38.5148 25.1313 38.5162C24.7336 38.5176 24.3529 38.3633 24.0732 38.0871L23.7343 37.7533C23.1824 38.0036 22.5929 38.1619 21.9899 38.2217L21.8636 38.6791C21.6457 39.4685 20.8188 39.9395 20.0231 39.7326L19.2298 39.5263C18.8461 39.4264 18.5198 39.18 18.3226 38.8414C18.1255 38.5028 18.0737 38.0997 18.1787 37.7209L18.3049 37.2634C17.8136 36.919 17.3846 36.4958 17.0356 36.0113L16.5701 36.1359C15.7695 36.3498 14.9498 35.8866 14.7374 35.1003L14.5281 34.3188C14.427 33.9407 14.4829 33.5372 14.6835 33.1972C14.8841 32.8571 15.2129 32.6084 15.5977 32.5057L16.0623 32.3812C16.0929 32.0847 16.1484 31.791 16.228 31.503C16.3089 31.2101 16.4126 30.9296 16.5369 30.6622L16.1986 30.3291C15.6162 29.7545 15.6197 28.8199 16.2065 28.2397L16.7905 27.6645C17.073 27.3863 17.4553 27.2292 17.853 27.2278C18.2508 27.2264 18.6314 27.3807 18.9112 27.6569L19.2501 27.9907Z" fill="white"/>
<path d="M20.9944 27.5222L21.121 27.0643C21.3393 26.2769 22.1613 25.806 22.9613 26.0114L23.7546 26.2177C24.5536 26.4255 25.0238 27.2335 24.8057 28.0232L24.6796 28.4802C25.1712 28.8248 25.6002 29.2481 25.9491 29.7327L26.4148 29.6079C27.2147 29.3945 28.0336 29.8569 28.247 30.6437L28.4564 31.4256C28.5575 31.8038 28.5014 32.2073 28.3006 32.5474C28.0999 32.8874 27.7708 33.136 27.3868 33.2383L26.9221 33.3628C26.8918 33.6578 26.8364 33.9512 26.7564 34.241C26.6764 34.5306 26.5733 34.8113 26.4475 35.0819L26.7861 35.4156C27.3676 35.9897 27.3645 36.9229 26.7779 37.5044L26.1937 38.0798C25.911 38.358 25.5287 38.515 25.1308 38.5163C24.733 38.5175 24.3523 38.363 24.0733 38.0872L23.7342 37.7533C23.1825 38.0036 22.593 38.1619 21.99 38.2218L21.8635 38.6797C21.6451 39.4672 20.8231 39.938 20.0231 39.7326L19.2298 39.5263C18.4308 39.3185 17.9606 38.5106 18.1787 37.7209L18.3049 37.2638C17.8132 36.9192 17.3842 36.496 17.0353 36.0114L16.5696 36.1361C15.7697 36.3495 14.9509 35.8871 14.7374 35.1003L14.528 34.3184C14.4269 33.9403 14.483 33.5367 14.6838 33.1967C14.8846 32.8566 15.2136 32.608 15.5977 32.5057L16.0623 32.3813C16.0926 32.0862 16.148 31.7928 16.2279 31.5033C16.3073 31.2153 16.4106 30.9341 16.537 30.6621L16.1983 30.3284C15.6168 29.7543 15.62 28.8211 16.2065 28.2396L16.7907 27.6643C17.0734 27.3861 17.4558 27.229 17.8536 27.2278C18.2515 27.2265 18.6321 27.3811 18.9111 27.6568L19.2501 27.9906C19.8125 27.7376 20.3968 27.5816 20.9944 27.5222ZM19.3541 29.1231C19.1465 29.2172 18.9024 29.1749 18.742 29.0169L18.1356 28.4197C18.0595 28.3445 17.956 28.3025 17.8477 28.3028C17.7395 28.3032 17.6354 28.3459 17.5587 28.4214L16.976 28.9953C16.8161 29.1539 16.8152 29.4089 16.9737 29.5654L17.5783 30.1611C17.7385 30.3189 17.7816 30.5589 17.6864 30.7633L17.5285 31.1027C17.4273 31.3204 17.3445 31.5458 17.2808 31.7768C17.2166 32.0096 17.1723 32.2446 17.148 32.4805L17.1099 32.8514C17.087 33.0746 16.926 33.2615 16.706 33.3205L15.8747 33.5432C15.77 33.5711 15.6805 33.6387 15.6258 33.7312C15.5712 33.8237 15.556 33.9335 15.5834 34.0361L15.7923 34.816C15.8505 35.0306 16.0743 35.1569 16.2923 35.0987L17.124 34.876C17.3443 34.817 17.5775 34.8987 17.7088 35.0811L17.927 35.3841C18.2062 35.7718 18.5493 36.1104 18.942 36.3857L19.2494 36.6007C19.4343 36.7301 19.5173 36.9598 19.4573 37.1768L19.2315 37.9947C19.1719 38.2106 19.2997 38.4302 19.5168 38.4867L20.3085 38.6926C20.5267 38.7486 20.7513 38.6199 20.8108 38.4054L21.0366 37.5874C21.0965 37.3706 21.2864 37.212 21.5131 37.1895L21.89 37.1522C22.3723 37.1043 22.8438 36.9776 23.2856 36.7771L23.6306 36.6208C23.8382 36.5268 24.082 36.5692 24.2424 36.7271L24.8488 37.3243C24.9249 37.3995 25.0285 37.4416 25.1367 37.4412C25.2449 37.4409 25.349 37.3981 25.4257 37.3226L26.0084 36.7487C26.1683 36.5901 26.1692 36.3351 26.0107 36.1786L25.4061 35.5829C25.2459 35.4251 25.2028 35.1851 25.298 34.9807L25.456 34.6412C25.5567 34.4246 25.6393 34.1998 25.7036 33.9672C25.7678 33.7345 25.8122 33.4995 25.8364 33.2636L25.8745 32.8927C25.8974 32.6695 26.0584 32.4825 26.2784 32.4236L27.1097 32.2009C27.2144 32.173 27.3039 32.1053 27.3586 32.0128C27.4132 31.9203 27.4284 31.8105 27.401 31.708L27.1921 30.928C27.1339 30.7135 26.9101 30.5871 26.6921 30.6453L25.8604 30.868C25.6401 30.9271 25.4069 30.8453 25.2756 30.663L25.0574 30.3599C24.7783 29.9722 24.4351 29.6336 24.0427 29.3586L23.7353 29.1438C23.5501 29.0145 23.4671 28.7847 23.527 28.5675L23.7529 27.7494C23.8125 27.5334 23.6847 27.3138 23.4676 27.2573L22.6759 27.0514C22.4578 26.9954 22.2332 27.1241 22.1736 27.3387L21.9478 28.1566C21.8879 28.3735 21.698 28.5321 21.4713 28.5545L21.0944 28.5918C20.6121 28.6397 20.1406 28.7665 19.6992 28.9668C19.696 28.9682 19.5809 29.0203 19.3541 29.1231Z" fill="#7B58CF"/>
<path d="M19.4256 36.6322C20.4661 37.2185 21.8046 36.8571 22.4152 35.825C23.0258 34.7929 22.6774 33.4808 21.6369 32.8945C20.5964 32.3082 19.2579 32.6696 18.6473 33.7017C18.0367 34.7339 18.3851 36.0459 19.4256 36.6322Z" fill="white"/>
<path d="M20.2669 34.8677C19.2265 34.2814 18.878 32.9693 19.4886 31.9372C20.0992 30.9051 21.4377 30.5437 22.4782 31.13C23.5187 31.7163 23.8671 33.0283 23.2565 34.0605C22.6459 35.0926 21.3074 35.454 20.2669 34.8677ZM20.8198 33.9333C21.34 34.2264 22.0092 34.0457 22.3145 33.5297C22.6199 33.0136 22.4456 32.3576 21.9254 32.0644C21.4051 31.7713 20.7359 31.952 20.4306 32.468C20.1253 32.9841 20.2995 33.6401 20.8198 33.9333Z" fill="#6B4FBB"/>
<path d="M30.889 35.0709C31.3313 34.8678 31.8035 34.7389 32.2863 34.6895L32.3883 34.3201C32.5643 33.6826 33.2272 33.3008 33.8637 33.4663L34.4983 33.6313C34.8053 33.7113 35.066 33.9096 35.2232 34.1825C35.3803 34.4555 35.421 34.7807 35.3362 35.0867L35.2342 35.4561C35.6306 35.7354 35.972 36.0777 36.2478 36.4644L36.6207 36.3629C37.262 36.1888 37.9173 36.5612 38.0857 37.1955L38.2517 37.8259C38.3319 38.1309 38.2864 38.4566 38.1251 38.7315C37.9638 39.0063 37.7001 39.2077 37.3919 39.2913L37.0198 39.3927C36.9951 39.6284 36.9507 39.8652 36.8854 40.1018C36.82 40.3384 36.7365 40.565 36.6364 40.7811L36.9065 41.0493C37.3717 41.512 37.367 42.2664 36.8961 42.7358L36.4275 43.2012C36.2007 43.4262 35.8945 43.5537 35.5761 43.5556C35.2577 43.5575 34.9532 43.4336 34.7299 43.2112L34.4592 42.9424C34.017 43.1455 33.5447 43.2744 33.0619 43.3238L32.9599 43.6932C32.7839 44.3307 32.1211 44.7125 31.4845 44.547L30.8499 44.3819C30.543 44.302 30.2822 44.1037 30.1251 43.8308C29.9679 43.5578 29.9273 43.2326 30.0121 42.9266L30.1141 42.5572C29.7214 42.2801 29.3788 41.9393 29.1004 41.5488L28.7276 41.6503C28.0863 41.8245 27.431 41.4521 27.2626 40.8178L27.0965 40.1874C27.0163 39.8824 27.0619 39.5566 27.2231 39.2818C27.3844 39.007 27.6481 38.8056 27.9563 38.722L28.3285 38.6206C28.3536 38.3812 28.3986 38.144 28.4629 37.9115C28.5282 37.6749 28.6118 37.4483 28.7118 37.2322L28.4417 36.964C27.9766 36.5013 27.9813 35.7469 28.4522 35.2775L28.9207 34.8121C29.1475 34.5871 29.4538 34.4595 29.7722 34.4577C30.0906 34.4558 30.395 34.5797 30.6184 34.802L30.889 35.0709Z" fill="white"/>
<path d="M32.1998 34.5947L32.2833 34.2923C32.4746 33.6024 33.1919 33.1869 33.8914 33.3665L34.526 33.5315C35.2246 33.7132 35.6326 34.4223 35.4416 35.1142L35.3583 35.4159C35.7153 35.6768 36.0302 35.9898 36.2925 36.3444L36.5904 36.2633C37.2909 36.0733 38.0069 36.4799 38.1913 37.1715L38.3575 37.8023C38.4444 38.133 38.3949 38.4857 38.2201 38.7834C38.045 39.0816 37.7581 39.3004 37.423 39.3911L37.1204 39.4735C37.0938 39.6938 37.0505 39.9128 36.9908 40.1294C36.931 40.3458 36.8557 40.5563 36.7651 40.7602L36.9851 40.9788C37.4903 41.4818 37.4856 42.298 36.9752 42.8081L36.5064 43.2737C36.2596 43.5186 35.9255 43.6575 35.5775 43.6595C35.2288 43.6614 34.8954 43.5256 34.6519 43.2828L34.4357 43.0682C34.026 43.2479 33.5922 43.3661 33.1486 43.4189L33.0651 43.7214C32.8738 44.4113 32.1565 44.8267 31.457 44.6472L30.8224 44.4821C30.1238 44.3005 29.7158 43.5913 29.9068 42.8994L29.9901 42.5978C29.6331 42.3368 29.3182 42.0238 29.0559 41.6693L28.758 41.7504C28.0575 41.9403 27.3415 41.5338 27.1571 40.8421L26.9909 40.2114C26.9041 39.8807 26.9535 39.5279 27.1283 39.2303C27.3034 38.9321 27.5903 38.7132 27.9254 38.6225L28.228 38.5401C28.2546 38.3199 28.2979 38.1009 28.3576 37.8845C28.417 37.6691 28.4924 37.4583 28.5833 37.2535L28.3633 37.0348C27.8581 36.5319 27.8628 35.7157 28.3732 35.2055L28.842 34.74C29.0888 34.4951 29.4229 34.3561 29.7709 34.3542C30.1196 34.3522 30.453 34.4881 30.6965 34.7308L30.9127 34.9455C31.3224 34.7658 31.7562 34.6475 32.1998 34.5947ZM31.0182 36.0782C30.8094 36.1741 30.5632 36.1315 30.4022 35.9716L29.9178 35.4906C29.878 35.4508 29.8241 35.4289 29.7676 35.4292C29.7105 35.4295 29.6548 35.4527 29.6133 35.4939L29.1459 35.958C29.057 36.0469 29.0562 36.1897 29.1419 36.275L29.6246 36.7547C29.7833 36.9124 29.8259 37.151 29.7315 37.3546L29.6044 37.6287C29.5253 37.7997 29.4605 37.9767 29.4105 38.1581C29.36 38.3408 29.3251 38.5252 29.3058 38.7103L29.2745 39.0097C29.2514 39.2318 29.0916 39.4178 28.8729 39.4774L28.2068 39.6588C28.1506 39.674 28.1018 39.7112 28.0716 39.7626C28.0411 39.8146 28.0325 39.8763 28.0474 39.9333L28.2131 40.5621C28.2441 40.6786 28.3616 40.7453 28.4764 40.7142L29.1425 40.5328C29.3644 40.4725 29.5996 40.555 29.731 40.7394L29.9051 40.9836C30.1208 41.2862 30.3862 41.5502 30.6899 41.7646L30.9355 41.9376C31.1195 42.0672 31.2018 42.2962 31.142 42.5126L30.9597 43.1732C30.9264 43.2936 30.995 43.4128 31.1094 43.4425L31.7424 43.6071C31.8578 43.6367 31.9794 43.5663 32.0125 43.447L32.1949 42.7864C32.2546 42.5701 32.4437 42.4117 32.6697 42.3887L32.9714 42.3578C33.3452 42.3195 33.711 42.2196 34.054 42.0621L34.3305 41.9353C34.5392 41.8396 34.7853 41.8823 34.9462 42.0421L35.4306 42.5231C35.4704 42.5628 35.5243 42.5848 35.5808 42.5845C35.6379 42.5841 35.6936 42.561 35.7352 42.5197L36.2025 42.0556C36.2914 41.9668 36.2922 41.8239 36.2065 41.7387L35.7238 41.259C35.5651 41.1013 35.5225 40.8626 35.6169 40.6591L35.7441 40.3847C35.8228 40.2147 35.8875 40.0382 35.9379 39.8556C35.9884 39.6728 36.0233 39.4884 36.0427 39.3034L36.0739 39.0039C36.097 38.7819 36.2568 38.5958 36.4755 38.5363L37.1416 38.3549C37.1978 38.3397 37.2466 38.3025 37.2768 38.2511C37.3073 38.1991 37.3159 38.1373 37.301 38.0803L37.1353 37.4515C37.1043 37.335 36.9868 37.2683 36.872 37.2995L36.2059 37.4808C35.9841 37.5412 35.7488 37.4586 35.6174 37.2743L35.4433 37.0301C35.2276 36.7274 34.9622 36.4634 34.6588 36.2493L34.4132 36.0765C34.2289 35.947 34.1465 35.7178 34.2063 35.5012L34.3888 34.8404C34.422 34.7201 34.3534 34.6009 34.239 34.5711L33.606 34.4065C33.4907 34.3769 33.369 34.4473 33.3359 34.5666L33.1535 35.2272C33.0938 35.4435 32.9047 35.6019 32.6788 35.625L32.377 35.6558C32.0032 35.6941 31.6374 35.794 31.2948 35.9514C31.2919 35.9528 31.1997 35.995 31.0182 36.0782Z" fill="#FC6D26"/>
<path d="M31.0067 42.0443C31.839 42.5134 32.9136 42.2178 33.4068 41.3841C33.9 40.5504 33.6251 39.4944 32.7928 39.0253C31.9604 38.5563 30.8858 38.8519 30.3926 39.6855C29.8994 40.5192 30.1743 41.5753 31.0067 42.0443Z" fill="white"/>
<path d="M31.6893 40.6162C30.8561 40.1466 30.5815 39.0919 31.073 38.2611C31.5645 37.4302 32.6378 37.135 33.471 37.6045C34.3042 38.074 34.5788 39.1288 34.0873 39.9596C33.5957 40.7905 32.5225 41.0857 31.6893 40.6162ZM32.1315 39.8686C32.5469 40.1027 33.0855 39.9546 33.3337 39.535C33.5819 39.1154 33.4441 38.5861 33.0288 38.3521C32.6134 38.118 32.0748 38.2661 31.8266 38.6857C31.5783 39.1053 31.7162 39.6346 32.1315 39.8686Z" fill="#FC6D26"/>
<path fill-rule="evenodd" clip-rule="evenodd" d="M16.8736 10.2573C16.9313 9.88553 16.9613 9.50478 16.9613 9.11717C16.9613 4.97039 13.5319 1.60876 9.30146 1.60876C5.07104 1.60876 1.6416 4.97039 1.6416 9.11717C1.6416 13.2639 5.07104 16.6256 9.30146 16.6256C11.7125 16.6256 13.8633 15.5337 15.2674 13.8269L17.582 13.5753C17.637 13.5693 17.6908 13.5552 17.7414 13.5334C18.0182 13.4145 18.1442 13.0982 18.0228 12.8269L16.8736 10.2573Z" fill="#F4F0FF"/>
<path fill-rule="evenodd" clip-rule="evenodd" d="M17.42 9.18492C17.4777 8.81314 17.5077 8.43239 17.5077 8.04478C17.5077 3.898 14.0783 0.536377 9.84784 0.536377C5.61742 0.536377 2.18799 3.898 2.18799 8.04478C2.18799 12.1916 5.61742 15.5532 9.84784 15.5532C12.2588 15.5532 14.4097 14.4613 15.8138 12.7545L18.1284 12.5029C18.1834 12.4969 18.2371 12.4828 18.2878 12.461C18.5646 12.3421 18.6905 12.0258 18.5692 11.7545L17.42 9.18492Z" fill="white"/>
<path d="M19.0711 11.5391C19.3137 12.0817 19.0617 12.7143 18.5082 12.9522C18.4069 12.9957 18.2994 13.0239 18.1895 13.0359L16.0945 13.2636C14.5478 15.0412 12.2855 16.0894 9.84859 16.0894C5.31599 16.0894 1.6416 12.4877 1.6416 8.04471C1.6416 3.60174 5.31599 0 9.84859 0C14.3812 0 18.0556 3.60174 18.0556 8.04471C18.0556 8.40289 18.0317 8.75827 17.9843 9.10926L19.0711 11.5391ZM16.8798 9.10409C16.9339 8.75583 16.9613 8.40206 16.9613 8.04471C16.9613 4.19414 13.7768 1.07263 9.84859 1.07263C5.92034 1.07263 2.73587 4.19414 2.73587 8.04471C2.73587 11.8953 5.92034 15.0168 9.84859 15.0168C12.0288 15.0168 14.0459 14.0499 15.3886 12.4178L15.5301 12.2457L18.0689 11.9698L16.9196 9.4002L16.8559 9.2578L16.8798 9.10409Z" fill="#E1D8F9"/>
<path d="M9.98471 11.9331C7.8695 11.9331 6.15479 10.2523 6.15479 8.17888C6.15479 6.1055 7.8695 4.42468 9.98471 4.42468C12.0999 4.42468 13.8146 6.1055 13.8146 8.17888C13.8146 10.2523 12.0999 11.9331 9.98471 11.9331ZM9.98471 11.1286C11.6467 11.1286 12.9939 9.80798 12.9939 8.17888C12.9939 6.54979 11.6467 5.22915 9.98471 5.22915C8.32276 5.22915 6.97548 6.54979 6.97548 8.17888C6.97548 9.80798 8.32276 11.1286 9.98471 11.1286Z" fill="#31AF64"/>
<path d="M9.62376 8.52988L9.09523 8.0118C8.93843 7.85825 8.68438 7.85825 8.52758 8.0118C8.4521 8.08542 8.40967 8.1855 8.40967 8.28987C8.40967 8.39425 8.4521 8.49433 8.52758 8.56795L9.31408 9.33864C9.31836 9.34303 9.32274 9.34732 9.32721 9.35151C9.47767 9.499 9.71841 9.49873 9.86751 9.35285L11.4564 7.79539C11.5279 7.725 11.5679 7.62964 11.5677 7.53031C11.5674 7.43098 11.5269 7.33582 11.455 7.26578C11.3837 7.19514 11.2866 7.15528 11.1851 7.15503C11.0837 7.15478 10.9864 7.19415 10.9147 7.26444L9.62376 8.52988Z" fill="#31AF64"/>
</svg>
