<svg width="80" height="56" viewBox="0 0 80 56" fill="none" xmlns="http://www.w3.org/2000/svg">
<path d="M11.1567 40.6485C16.4079 40.6485 20.6649 36.3891 20.6649 31.135C20.6649 25.8808 16.4079 21.6215 11.1567 21.6215C5.9055 21.6215 1.64856 25.8808 1.64856 31.135C1.64856 36.3891 5.9055 40.6485 11.1567 40.6485Z" fill="#F9F9F9"/>
<path d="M19.0163 30.4864C19.0163 35.1888 15.2065 38.9999 10.5081 38.9999C5.80976 38.9999 2 35.1888 2 30.4864C2 25.784 5.80976 21.9729 10.5081 21.9729C15.2065 21.9729 19.0163 25.784 19.0163 30.4864Z" fill="white" stroke="#EEEEEE" stroke-width="2"/>
<path d="M10.5075 39.5674C15.52 39.5674 19.5834 35.5017 19.5834 30.4863C19.5834 25.471 15.52 21.4053 10.5075 21.4053C5.49496 21.4053 1.43152 25.471 1.43152 30.4863C1.43152 35.5017 5.49496 39.5674 10.5075 39.5674Z" stroke="#EEEEEE"/>
<path d="M8.43196 33.0239C8.57802 32.9204 8.75259 32.8648 8.93158 32.8648H13.1009C13.817 32.8648 14.3975 32.284 14.3975 31.5675V28.5405C14.3975 27.824 13.817 27.2432 13.1009 27.2432H8.34686C7.63078 27.2432 7.05029 27.824 7.05029 28.5405V34.0031L8.43196 33.0239ZM8.93158 33.7296L7.20891 34.9505C7.09937 35.0282 6.96844 35.0699 6.8342 35.0699C6.47616 35.0699 6.18591 34.7795 6.18591 34.4212V28.5405C6.18591 27.3463 7.1534 26.3783 8.34686 26.3783H13.1009C14.2944 26.3783 15.2619 27.3463 15.2619 28.5405V31.5675C15.2619 32.7616 14.2944 33.7296 13.1009 33.7296H8.93158Z" fill="#FEE1D3"/>
<path fill-rule="evenodd" clip-rule="evenodd" d="M9.21191 29.6217C9.4506 29.6217 9.6441 29.8153 9.6441 30.0541C9.6441 30.293 9.4506 30.4866 9.21191 30.4866C8.97322 30.4866 8.77972 30.293 8.77972 30.0541C8.77972 29.8153 8.97322 29.6217 9.21191 29.6217ZM10.7246 29.6217C10.9633 29.6217 11.1568 29.8153 11.1568 30.0541C11.1568 30.293 10.9633 30.4866 10.7246 30.4866C10.4859 30.4866 10.2924 30.293 10.2924 30.0541C10.2924 29.8153 10.4859 29.6217 10.7246 29.6217ZM12.2372 29.6217C12.4759 29.6217 12.6694 29.8153 12.6694 30.0541C12.6694 30.293 12.4759 30.4866 12.2372 30.4866C11.9985 30.4866 11.805 30.293 11.805 30.0541C11.805 29.8153 11.9985 29.6217 12.2372 29.6217Z" fill="#FC6D26"/>
<path d="M18.0716 14.0539C21.7713 14.0539 24.7705 11.0531 24.7705 7.35125C24.7705 3.64946 21.7713 0.64856 18.0716 0.64856C14.3719 0.64856 11.3727 3.64946 11.3727 7.35125C11.3727 11.0531 14.3719 14.0539 18.0716 14.0539Z" fill="#F9F9F9"/>
<path d="M17.423 13.4054C21.1228 13.4054 24.122 10.4045 24.122 6.70269C24.122 3.0009 21.1228 0 17.423 0C13.7233 0 10.7241 3.0009 10.7241 6.70269C10.7241 10.4045 13.7233 13.4054 17.423 13.4054Z" fill="white"/>
<path d="M19.1525 6.27026H15.6949C15.4563 6.27026 15.2628 6.46387 15.2628 6.7027C15.2628 6.94152 15.4563 7.13513 15.6949 7.13513H19.1525C19.3911 7.13513 19.5846 6.94152 19.5846 6.7027C19.5846 6.46387 19.3911 6.27026 19.1525 6.27026Z" fill="#6B4FBB"/>
<path fill-rule="evenodd" clip-rule="evenodd" d="M49.7467 48.0001H20.8808C19.4486 48.0001 18.2877 46.8384 18.2877 45.4055V12.5406C18.2877 11.1077 19.4486 9.94604 20.8808 9.94604H65.3962C66.8284 9.94604 67.9893 11.1077 67.9893 12.5406V16.5187C69.077 15.9128 70.3297 15.5677 71.6629 15.5677C75.84 15.5677 79.2262 18.9558 79.2262 23.1352C79.2262 27.3147 75.84 30.7028 71.6629 30.7028C70.3297 30.7028 69.077 30.3576 67.9893 29.7517V45.4055C67.9893 46.8384 66.8284 48.0001 65.3962 48.0001H62.8938C62.9761 48.4198 63.0192 48.8535 63.0192 49.2974C63.0192 52.9991 60.02 56 56.3202 56C52.6205 56 49.6213 52.9991 49.6213 49.2974C49.6213 48.8535 49.6644 48.4198 49.7467 48.0001Z" fill="#F9F9F9"/>
<path d="M71.0139 30.0543C75.191 30.0543 78.5772 26.6662 78.5772 22.4868C78.5772 18.3073 75.191 14.9192 71.0139 14.9192C66.8368 14.9192 63.4506 18.3073 63.4506 22.4868C63.4506 26.6662 66.8368 30.0543 71.0139 30.0543Z" fill="white"/>
<path d="M71.0148 29.6218C74.9532 29.6218 78.1459 26.4273 78.1459 22.4867C78.1459 18.5461 74.9532 15.3516 71.0148 15.3516C67.0764 15.3516 63.8837 18.5461 63.8837 22.4867C63.8837 26.4273 67.0764 29.6218 71.0148 29.6218Z" stroke="#EEEEEE" stroke-width="2"/>
<path d="M71.014 25.7303C72.8042 25.7303 74.2554 24.2782 74.2554 22.487C74.2554 20.6958 72.8042 19.2438 71.014 19.2438C69.2238 19.2438 67.7726 20.6958 67.7726 22.487C67.7726 24.2782 69.2238 25.7303 71.014 25.7303Z" fill="#F4F1FA" stroke="#6B4FBB"/>
<path fill-rule="evenodd" clip-rule="evenodd" d="M71.9682 20.5401L71.9667 20.5401L71.4366 19.8925L70.9063 20.5404L70.9051 20.5404L70.3748 19.8925L69.8443 20.5407L69.8436 20.5407L69.3131 19.8925L68.7823 20.541L68.2041 20.5411C68.7671 19.6321 69.7666 19.0276 70.9057 19.0276C72.0443 19.0276 73.0433 19.6315 73.6065 20.5397L73.0282 20.5399L72.4983 19.8925L71.9682 20.5401Z" fill="#6B4FBB"/>
<path d="M69.8258 23.1357C70.0048 23.1357 70.1499 22.9905 70.1499 22.8114C70.1499 22.6323 70.0048 22.4871 69.8258 22.4871C69.6468 22.4871 69.5016 22.6323 69.5016 22.8114C69.5016 22.9905 69.6468 23.1357 69.8258 23.1357Z" fill="#6B4FBB"/>
<path d="M72.2021 23.1357C72.3811 23.1357 72.5263 22.9905 72.5263 22.8114C72.5263 22.6323 72.3811 22.4871 72.2021 22.4871C72.0231 22.4871 71.878 22.6323 71.878 22.8114C71.878 22.9905 72.0231 23.1357 72.2021 23.1357Z" fill="#6B4FBB"/>
<path d="M65.1797 9.29712H19.7999C18.6064 9.29712 17.6389 10.2652 17.6389 11.4593V45.189C17.6389 46.3831 18.6064 47.3511 19.7999 47.3511H65.1797C66.3731 47.3511 67.3406 46.3831 67.3406 45.189V11.4593C67.3406 10.2652 66.3731 9.29712 65.1797 9.29712Z" fill="white"/>
<path d="M64.7466 9.72986H20.2311C19.0377 9.72986 18.0702 10.6979 18.0702 11.892V44.7568C18.0702 45.951 19.0377 46.919 20.2311 46.919H64.7466C65.94 46.919 66.9075 45.951 66.9075 44.7568V11.892C66.9075 10.6979 65.94 9.72986 64.7466 9.72986Z" stroke="#EEEEEE" stroke-width="2"/>
<path d="M25.6338 18.8108C25.6338 18.572 25.4403 18.3784 25.2016 18.3784C24.9629 18.3784 24.7694 18.572 24.7694 18.8108V44.3243C24.7694 44.5632 24.9629 44.7568 25.2016 44.7568C25.4403 44.7568 25.6338 44.5632 25.6338 44.3243V18.8108Z" fill="#EEEEEE"/>
<path d="M22.177 22.0541H20.8804C20.6417 22.0541 20.4482 22.2477 20.4482 22.4865C20.4482 22.7253 20.6417 22.9189 20.8804 22.9189H22.177C22.4157 22.9189 22.6092 22.7253 22.6092 22.4865C22.6092 22.2477 22.4157 22.0541 22.177 22.0541Z" fill="#FEE1D3"/>
<path d="M22.177 24.6486H20.8804C20.6417 24.6486 20.4482 24.8422 20.4482 25.081C20.4482 25.3198 20.6417 25.5134 20.8804 25.5134H22.177C22.4157 25.5134 22.6092 25.3198 22.6092 25.081C22.6092 24.8422 22.4157 24.6486 22.177 24.6486Z" fill="#F0EDF8"/>
<path d="M22.177 27.2432H20.8804C20.6417 27.2432 20.4482 27.4368 20.4482 27.6756C20.4482 27.9144 20.6417 28.108 20.8804 28.108H22.177C22.4157 28.108 22.6092 27.9144 22.6092 27.6756C22.6092 27.4368 22.4157 27.2432 22.177 27.2432Z" fill="#FEF0E9"/>
<path d="M22.177 29.8379H20.8804C20.6417 29.8379 20.4482 30.0315 20.4482 30.2703C20.4482 30.5091 20.6417 30.7028 20.8804 30.7028H22.177C22.4157 30.7028 22.6092 30.5091 22.6092 30.2703C22.6092 30.0315 22.4157 29.8379 22.177 29.8379Z" fill="#FEE1D3"/>
<path d="M22.177 32.4324H20.8804C20.6417 32.4324 20.4482 32.626 20.4482 32.8648C20.4482 33.1036 20.6417 33.2972 20.8804 33.2972H22.177C22.4157 33.2972 22.6092 33.1036 22.6092 32.8648C22.6092 32.626 22.4157 32.4324 22.177 32.4324Z" fill="#E1DBF1"/>
<path d="M22.177 35.027H20.8804C20.6417 35.027 20.4482 35.2206 20.4482 35.4594C20.4482 35.6982 20.6417 35.8918 20.8804 35.8918H22.177C22.4157 35.8918 22.6092 35.6982 22.6092 35.4594C22.6092 35.2206 22.4157 35.027 22.177 35.027Z" fill="#F0EDF8"/>
<path d="M22.177 37.6216H20.8804C20.6417 37.6216 20.4482 37.8152 20.4482 38.054C20.4482 38.2928 20.6417 38.4864 20.8804 38.4864H22.177C22.4157 38.4864 22.6092 38.2928 22.6092 38.054C22.6092 37.8152 22.4157 37.6216 22.177 37.6216Z" fill="#FEF0E9"/>
<path d="M22.177 40.2161H20.8804C20.6417 40.2161 20.4482 40.4097 20.4482 40.6485C20.4482 40.8873 20.6417 41.0809 20.8804 41.0809H22.177C22.4157 41.0809 22.6092 40.8873 22.6092 40.6485C22.6092 40.4097 22.4157 40.2161 22.177 40.2161Z" fill="#FEE1D3"/>
<path d="M32.1164 22.0538H29.9555C29.7168 22.0538 29.5233 22.2474 29.5233 22.4863C29.5233 22.7251 29.7168 22.9187 29.9555 22.9187H32.1164C32.3551 22.9187 32.5486 22.7251 32.5486 22.4863C32.5486 22.2474 32.3551 22.0538 32.1164 22.0538Z" fill="#6B4FBB"/>
<path d="M36.439 22.0537H34.278C34.0393 22.0537 33.8458 22.2473 33.8458 22.4861C33.8458 22.725 34.0393 22.9186 34.278 22.9186H36.439C36.6776 22.9186 36.8711 22.725 36.8711 22.4861C36.8711 22.2473 36.6776 22.0537 36.439 22.0537Z" fill="#F0EDF8"/>
<path d="M40.7601 22.0537H38.5992C38.3605 22.0537 38.167 22.2473 38.167 22.4861C38.167 22.725 38.3605 22.9186 38.5992 22.9186H40.7601C40.9988 22.9186 41.1923 22.725 41.1923 22.4861C41.1923 22.2473 40.9988 22.0537 40.7601 22.0537Z" fill="#FEF0E9"/>
<path d="M32.1161 24.6484H29.9551C29.7164 24.6484 29.5229 24.842 29.5229 25.0809C29.5229 25.3197 29.7164 25.5133 29.9551 25.5133H32.1161C32.3548 25.5133 32.5483 25.3197 32.5483 25.0809C32.5483 24.842 32.3548 24.6484 32.1161 24.6484Z" fill="#F0EDF8"/>
<path d="M40.7601 27.243H38.5992C38.3605 27.243 38.167 27.4366 38.167 27.6755C38.167 27.9143 38.3605 28.1079 38.5992 28.1079H40.7601C40.9988 28.1079 41.1923 27.9143 41.1923 27.6755C41.1923 27.4366 40.9988 27.243 40.7601 27.243Z" fill="#FEF0E9"/>
<path d="M32.1161 32.4323H29.9551C29.7164 32.4323 29.5229 32.6259 29.5229 32.8647C29.5229 33.1035 29.7164 33.2971 29.9551 33.2971H32.1161C32.3548 33.2971 32.5483 33.1035 32.5483 32.8647C32.5483 32.6259 32.3548 32.4323 32.1161 32.4323Z" fill="#E1DBF1"/>
<path d="M40.7601 29.8378H38.5992C38.3605 29.8378 38.167 30.0314 38.167 30.2702C38.167 30.509 38.3605 30.7026 38.5992 30.7026H40.7601C40.9988 30.7026 41.1923 30.509 41.1923 30.2702C41.1923 30.0314 40.9988 29.8378 40.7601 29.8378Z" fill="#FEF0E9"/>
<path d="M34.9263 24.6484H34.278C34.0393 24.6484 33.8458 24.842 33.8458 25.0809C33.8458 25.3197 34.0393 25.5133 34.278 25.5133H34.9263C35.165 25.5133 35.3585 25.3197 35.3585 25.0809C35.3585 24.842 35.165 24.6484 34.9263 24.6484Z" fill="#FEE1D3"/>
<path d="M36.4379 29.8378H35.7896C35.5509 29.8378 35.3574 30.0314 35.3574 30.2702C35.3574 30.509 35.5509 30.7026 35.7896 30.7026H36.4379C36.6766 30.7026 36.8701 30.509 36.8701 30.2702C36.8701 30.0314 36.6766 29.8378 36.4379 29.8378Z" fill="#6B4FBB"/>
<path d="M34.9263 32.4323H34.278C34.0393 32.4323 33.8458 32.6259 33.8458 32.8647C33.8458 33.1035 34.0393 33.2971 34.278 33.2971H34.9263C35.165 33.2971 35.3585 33.1035 35.3585 32.8647C35.3585 32.6259 35.165 32.4323 34.9263 32.4323Z" fill="#FEE1D3"/>
<path d="M30.6034 27.243H29.9551C29.7164 27.243 29.5229 27.4366 29.5229 27.6755C29.5229 27.9143 29.7164 28.1079 29.9551 28.1079H30.6034C30.8421 28.1079 31.0356 27.9143 31.0356 27.6755C31.0356 27.4366 30.8421 27.243 30.6034 27.243Z" fill="#FC6D26"/>
<path d="M36.4383 27.243H32.7647C32.526 27.243 32.3325 27.4366 32.3325 27.6755C32.3325 27.9143 32.526 28.1079 32.7647 28.1079H36.4383C36.677 28.1079 36.8705 27.9143 36.8705 27.6755C36.8705 27.4366 36.677 27.243 36.4383 27.243Z" fill="#E1DBF1"/>
<path d="M33.6287 29.8378H29.9551C29.7164 29.8378 29.5229 30.0314 29.5229 30.2702C29.5229 30.509 29.7164 30.7026 29.9551 30.7026H33.6287C33.8674 30.7026 34.0609 30.509 34.0609 30.2702C34.0609 30.0314 33.8674 29.8378 33.6287 29.8378Z" fill="#EEEEEE"/>
<path d="M37.7342 24.6484H37.0859C36.8472 24.6484 36.6537 24.842 36.6537 25.0809C36.6537 25.3197 36.8472 25.5133 37.0859 25.5133H37.7342C37.9728 25.5133 38.1663 25.3197 38.1663 25.0809C38.1663 24.842 37.9728 24.6484 37.7342 24.6484Z" fill="#6B4FBB"/>
<path d="M53.2933 22.054H51.1323C50.8936 22.054 50.7001 22.2476 50.7001 22.4864C50.7001 22.7252 50.8936 22.9188 51.1323 22.9188H53.2933C53.532 22.9188 53.7254 22.7252 53.7254 22.4864C53.7254 22.2476 53.532 22.054 53.2933 22.054Z" fill="#FEE1D3"/>
<path d="M57.6143 22.054H55.4533C55.2146 22.054 55.0211 22.2476 55.0211 22.4864C55.0211 22.7252 55.2146 22.9188 55.4533 22.9188H57.6143C57.8529 22.9188 58.0464 22.7252 58.0464 22.4864C58.0464 22.2476 57.8529 22.054 57.6143 22.054Z" fill="#F0EDF8"/>
<path d="M61.9367 22.054H59.7758C59.5371 22.054 59.3436 22.2476 59.3436 22.4864C59.3436 22.7252 59.5371 22.9188 59.7758 22.9188H61.9367C62.1754 22.9188 62.3689 22.7252 62.3689 22.4864C62.3689 22.2476 62.1754 22.054 61.9367 22.054Z" fill="#FC6D26"/>
<path d="M53.2931 24.6486H51.1321C50.8934 24.6486 50.7 24.8422 50.7 25.081C50.7 25.3198 50.8934 25.5134 51.1321 25.5134H53.2931C53.5318 25.5134 53.7253 25.3198 53.7253 25.081C53.7253 24.8422 53.5318 24.6486 53.2931 24.6486Z" fill="#FEF0E9"/>
<path d="M61.9367 27.2432H59.7758C59.5371 27.2432 59.3436 27.4368 59.3436 27.6756C59.3436 27.9144 59.5371 28.108 59.7758 28.108H61.9367C62.1754 28.108 62.3689 27.9144 62.3689 27.6756C62.3689 27.4368 62.1754 27.2432 61.9367 27.2432Z" fill="#E1DBF1"/>
<path d="M53.2931 32.4324H51.1321C50.8934 32.4324 50.7 32.626 50.7 32.8648C50.7 33.1036 50.8934 33.2972 51.1321 33.2972H53.2931C53.5318 33.2972 53.7253 33.1036 53.7253 32.8648C53.7253 32.626 53.5318 32.4324 53.2931 32.4324Z" fill="#F0EDF8"/>
<path d="M61.9367 29.8378H59.7758C59.5371 29.8378 59.3436 30.0314 59.3436 30.2702C59.3436 30.509 59.5371 30.7026 59.7758 30.7026H61.9367C62.1754 30.7026 62.3689 30.509 62.3689 30.2702C62.3689 30.0314 62.1754 29.8378 61.9367 29.8378Z" fill="#FEE1D3"/>
<path d="M56.1016 24.6486H55.4533C55.2146 24.6486 55.0211 24.8422 55.0211 25.081C55.0211 25.3198 55.2146 25.5134 55.4533 25.5134H56.1016C56.3403 25.5134 56.5338 25.3198 56.5338 25.081C56.5338 24.8422 56.3403 24.6486 56.1016 24.6486Z" fill="#FC6D26"/>
<path d="M57.6149 29.8378H56.9666C56.7279 29.8378 56.5344 30.0314 56.5344 30.2702C56.5344 30.509 56.7279 30.7026 56.9666 30.7026H57.6149C57.8536 30.7026 58.0471 30.509 58.0471 30.2702C58.0471 30.0314 57.8536 29.8378 57.6149 29.8378Z" fill="#6B4FBB"/>
<path d="M56.1016 32.4324H55.4533C55.2146 32.4324 55.0211 32.626 55.0211 32.8648C55.0211 33.1036 55.2146 33.2972 55.4533 33.2972H56.1016C56.3403 33.2972 56.5338 33.1036 56.5338 32.8648C56.5338 32.626 56.3403 32.4324 56.1016 32.4324Z" fill="#FC6D26"/>
<path d="M51.7804 27.2432H51.1321C50.8934 27.2432 50.7 27.4368 50.7 27.6756C50.7 27.9144 50.8934 28.108 51.1321 28.108H51.7804C52.0191 28.108 52.2126 27.9144 52.2126 27.6756C52.2126 27.4368 52.0191 27.2432 51.7804 27.2432Z" fill="#6B4FBB"/>
<path d="M57.6153 27.2432H53.9417C53.703 27.2432 53.5095 27.4368 53.5095 27.6756C53.5095 27.9144 53.703 28.108 53.9417 28.108H57.6153C57.854 28.108 58.0475 27.9144 58.0475 27.6756C58.0475 27.4368 57.854 27.2432 57.6153 27.2432Z" fill="#FEE1D3"/>
<path d="M54.8057 29.8378H51.1321C50.8934 29.8378 50.7 30.0314 50.7 30.2702C50.7 30.509 50.8934 30.7026 51.1321 30.7026H54.8057C55.0444 30.7026 55.2379 30.509 55.2379 30.2702C55.2379 30.0314 55.0444 29.8378 54.8057 29.8378Z" fill="#FEF0E9"/>
<path d="M58.9112 24.6486H58.2629C58.0242 24.6486 57.8307 24.8422 57.8307 25.081C57.8307 25.3198 58.0242 25.5134 58.2629 25.5134H58.9112C59.1499 25.5134 59.3433 25.3198 59.3433 25.081C59.3433 24.8422 59.1499 24.6486 58.9112 24.6486Z" fill="#6B4FBB"/>
<path d="M32.1163 35.027H29.9553C29.7166 35.027 29.5231 35.2206 29.5231 35.4594C29.5231 35.6982 29.7166 35.8918 29.9553 35.8918H32.1163C32.355 35.8918 32.5484 35.6982 32.5484 35.4594C32.5484 35.2206 32.355 35.027 32.1163 35.027Z" fill="#F0EDF8"/>
<path d="M36.4372 35.027H34.2763C34.0376 35.027 33.8441 35.2206 33.8441 35.4594C33.8441 35.6982 34.0376 35.8918 34.2763 35.8918H36.4372C36.6759 35.8918 36.8694 35.6982 36.8694 35.4594C36.8694 35.2206 36.6759 35.027 36.4372 35.027Z" fill="#6B4FBB"/>
<path d="M40.7597 35.027H38.5988C38.3601 35.027 38.1666 35.2206 38.1666 35.4594C38.1666 35.6982 38.3601 35.8918 38.5988 35.8918H40.7597C40.9984 35.8918 41.1919 35.6982 41.1919 35.4594C41.1919 35.2206 40.9984 35.027 40.7597 35.027Z" fill="#E1DBF1"/>
<path d="M32.1161 37.6216H29.9551C29.7164 37.6216 29.5229 37.8152 29.5229 38.054C29.5229 38.2928 29.7164 38.4864 29.9551 38.4864H32.1161C32.3548 38.4864 32.5483 38.2928 32.5483 38.054C32.5483 37.8152 32.3548 37.6216 32.1161 37.6216Z" fill="#FEF0E9"/>
<path d="M40.7597 40.2161H38.5988C38.3601 40.2161 38.1666 40.4097 38.1666 40.6485C38.1666 40.8873 38.3601 41.0809 38.5988 41.0809H40.7597C40.9984 41.0809 41.1919 40.8873 41.1919 40.6485C41.1919 40.4097 40.9984 40.2161 40.7597 40.2161Z" fill="#FEE1D3"/>
<path d="M34.9246 37.6216H34.2763C34.0376 37.6216 33.8441 37.8152 33.8441 38.054C33.8441 38.2928 34.0376 38.4864 34.2763 38.4864H34.9246C35.1633 38.4864 35.3568 38.2928 35.3568 38.054C35.3568 37.8152 35.1633 37.6216 34.9246 37.6216Z" fill="#EEEEEE"/>
<path d="M30.6034 40.2161H29.9551C29.7164 40.2161 29.5229 40.4097 29.5229 40.6485C29.5229 40.8873 29.7164 41.0809 29.9551 41.0809H30.6034C30.8421 41.0809 31.0356 40.8873 31.0356 40.6485C31.0356 40.4097 30.8421 40.2161 30.6034 40.2161Z" fill="#6B4FBB"/>
<path d="M36.4383 40.2161H32.7647C32.526 40.2161 32.3325 40.4097 32.3325 40.6485C32.3325 40.8873 32.526 41.0809 32.7647 41.0809H36.4383C36.677 41.0809 36.8705 40.8873 36.8705 40.6485C36.8705 40.4097 36.677 40.2161 36.4383 40.2161Z" fill="#FEF0E9"/>
<path d="M37.7342 37.6216H37.0859C36.8472 37.6216 36.6537 37.8152 36.6537 38.054C36.6537 38.2928 36.8472 38.4864 37.0859 38.4864H37.7342C37.9728 38.4864 38.1663 38.2928 38.1663 38.054C38.1663 37.8152 37.9728 37.6216 37.7342 37.6216Z" fill="#FC6D26"/>
<path d="M46.3791 25.2972C46.3791 25.0584 46.1856 24.8647 45.947 24.8647C45.7083 24.8647 45.5148 25.0584 45.5148 25.2972V38.0539C45.5148 38.2927 45.7083 38.4863 45.947 38.4863C46.1856 38.4863 46.3791 38.2927 46.3791 38.0539V25.2972Z" fill="#EEEEEE"/>
<path d="M66.9082 15.135H18.0709C17.8322 15.135 17.6387 15.3286 17.6387 15.5674C17.6387 15.8063 17.8322 15.9999 18.0709 15.9999H66.9082C67.1469 15.9999 67.3404 15.8063 67.3404 15.5674C67.3404 15.3286 67.1469 15.135 66.9082 15.135Z" fill="#EEEEEE"/>
<path d="M55.8884 55.3513C59.5881 55.3513 62.5874 52.3504 62.5874 48.6486C62.5874 44.9468 59.5881 41.9459 55.8884 41.9459C52.1887 41.9459 49.1895 44.9468 49.1895 48.6486C49.1895 52.3504 52.1887 55.3513 55.8884 55.3513Z" fill="white"/>
<path d="M55.8878 54.9188C59.3489 54.9188 62.1546 52.1115 62.1546 48.6486C62.1546 45.1856 59.3489 42.3783 55.8878 42.3783C52.4268 42.3783 49.6211 45.1856 49.6211 48.6486C49.6211 52.1115 52.4268 54.9188 55.8878 54.9188Z" stroke="#EEEEEE" stroke-width="2"/>
<path fill-rule="evenodd" clip-rule="evenodd" d="M55.457 48.2161V46.9188C55.457 46.6799 55.6505 46.4863 55.8892 46.4863C56.1278 46.4863 56.3213 46.6799 56.3213 46.9188V48.2161H57.6179C57.8566 48.2161 58.0501 48.4097 58.0501 48.6485C58.0501 48.8873 57.8566 49.0809 57.6179 49.0809H56.3213V50.3782C56.3213 50.617 56.1278 50.8106 55.8892 50.8106C55.6505 50.8106 55.457 50.617 55.457 50.3782V49.0809H54.1604C53.9217 49.0809 53.7282 48.8873 53.7282 48.6485C53.7282 48.4097 53.9217 48.2161 54.1604 48.2161H55.457Z" fill="#FC6D26"/>
</svg>
