<svg width="40" height="40" fill="none" xmlns="http://www.w3.org/2000/svg"><path fill-rule="evenodd" clip-rule="evenodd" d="M14.544 6.44C14.816 5.58 15.581 5 16.442 5h1.116c.861 0 1.626.58 1.898 1.44l1.05 3.32c.744.238 1.456.55 2.13.93l2.974-1.566c.77-.405 1.7-.247 2.309.394l.79.832c.608.64.76 1.62.374 2.43l-1.486 3.131c.359.71.656 1.46.882 2.243l3.153 1.106c.817.287 1.368 1.091 1.368 1.998v1.176c0 .906-.55 1.71-1.368 1.998l-3.153 1.106a12.936 12.936 0 01-.882 2.242l1.486 3.131c.385.81.234 1.79-.374 2.43l-.79.832c-.609.641-1.539.8-2.309.395l-2.973-1.566c-.675.379-1.387.692-2.13.93l-1.051 3.32c-.272.86-1.037 1.44-1.898 1.44h-1.116c-.861 0-1.626-.58-1.898-1.44l-1.05-3.32a11.604 11.604 0 01-2.13-.93L8.39 34.569c-.77.406-1.7.247-2.309-.395l-.79-.831a2.189 2.189 0 01-.374-2.43l1.487-3.131c-.36-.71-.657-1.46-.883-2.243l-3.153-1.106C1.55 24.145 1 23.34 1 22.434v-1.176c0-.906.55-1.711 1.368-1.998l3.153-1.106c.226-.783.523-1.533.883-2.243l-1.487-3.13a2.19 2.19 0 01.374-2.431l.79-.832c.609-.64 1.539-.8 2.309-.394l2.973 1.565a11.599 11.599 0 012.13-.93l1.051-3.32zM17 30.269c4.418 0 8-3.771 8-8.423s-3.582-8.423-8-8.423-8 3.771-8 8.423 3.582 8.423 8 8.423z" fill="#EFEDF8" stroke="#6E49CB" stroke-width="2"/><path d="M17 27.11c2.762 0 5-2.357 5-5.264 0-2.908-2.238-5.265-5-5.265-2.76 0-5 2.357-5 5.265 0 2.907 2.24 5.264 5 5.264z" stroke="#6E49CB" stroke-linecap="round"/></svg>