<svg width="40" height="40" fill="none" xmlns="http://www.w3.org/2000/svg"><path d="M3.343 6c.82 0 1.516.145 1.968.34.198.085.315.165.375.218v31.441a1.45 1.45 0 01-.375.218c-.452.195-1.148.34-1.968.34-.82 0-1.516-.145-1.968-.34A1.45 1.45 0 011 37.999V6.558c.06-.053.177-.133.375-.218C1.827 6.145 2.523 6 3.343 6z" fill="#EFEDF8" stroke="#6E49CB" stroke-width="2"/><path fill-rule="evenodd" clip-rule="evenodd" d="M6.686 6.41l21.724 6.692c2.085.642 2.122 1.774.095 2.523L6.686 23.69V6.412z" fill="#6E49CB"/></svg>