<svg width="25" height="30" viewBox="0 0 20 23" fill="none" xmlns="http://www.w3.org/2000/svg">
<path d="M15 8L15 9.5C15 10.3284 15.6716 11 16.5 11C17.3284 11 18 10.3284 18 9.5V7.74264C18 6.94699 17.6839 6.18393 17.1213 5.62132L12.8787 1.37868C12.3161 0.816071 11.553 0.5 10.7574 0.5H1.5C0.671573 0.5 0 1.17157 0 2V20C0 20.8284 0.671573 21.5 1.5 21.5H6C6.82843 21.5 7.5 20.8284 7.5 20C7.5 19.1716 6.82843 18.5 6 18.5H3V3.5H10.5V6.5C10.5 7.32843 11.1716 8 12 8H15Z" fill="#6E49CB"/>
<path d="M10.5 18.5C10.5 17.6716 11.1716 17 12 17H13.5V15.5C13.5 14.6716 14.1716 14 15 14C15.8284 14 16.5 14.6716 16.5 15.5V17H18C18.8284 17 19.5 17.6716 19.5 18.5C19.5 19.3284 18.8284 20 18 20H16.5V21.5C16.5 22.3284 15.8284 23 15 23C14.1716 23 13.5 22.3284 13.5 21.5V20H12C11.1716 20 10.5 19.3284 10.5 18.5Z" fill="#6E49CB"/>
</svg>
