<svg width="32" height="30" viewBox="0 0 32 30" fill="none" xmlns="http://www.w3.org/2000/svg">
<path fill-rule="evenodd" clip-rule="evenodd" d="M15.9653 29.8263L21.8368 11.6285H10.0933L15.9653 29.8263Z" fill="#E38800"/>
<path fill-rule="evenodd" clip-rule="evenodd" d="M15.9656 29.8263L10.0936 11.6285H1.86475L15.9656 29.8263Z" fill="#F7980A"/>
<path fill-rule="evenodd" clip-rule="evenodd" d="M1.86441 11.6285L0.0800968 17.1586C-0.0826524 17.663 0.0955967 18.2156 0.521693 18.5273L15.9652 29.8261L1.86441 11.6285Z" fill="#FCA326"/>
<path fill-rule="evenodd" clip-rule="evenodd" d="M1.86426 11.6286H10.0933L6.55678 0.668335C6.37489 0.104294 5.58257 0.104447 5.40067 0.668335L1.86426 11.6286Z" fill="#E38800"/>
<path fill-rule="evenodd" clip-rule="evenodd" d="M15.9653 29.8263L21.8369 11.6285H30.0658L15.9653 29.8263Z" fill="#F7980A"/>
<path fill-rule="evenodd" clip-rule="evenodd" d="M30.0662 11.6285L31.8505 17.1586C32.0132 17.663 31.835 18.2156 31.4089 18.5273L15.9653 29.8261L30.0662 11.6285Z" fill="#FCA326"/>
<path fill-rule="evenodd" clip-rule="evenodd" d="M30.066 11.6286H21.8369L25.3735 0.668335C25.5554 0.104294 26.3477 0.104447 26.5296 0.668335L30.066 11.6286Z" fill="#E38800"/>
</svg>
