<svg width="38" height="24" viewBox="0 0 38 24" fill="none" xmlns="http://www.w3.org/2000/svg">
<path d="M33.6353 7.51765H33.8824L32.4706 5.80941L31.0588 7.50353L29.6471 5.80941L28.2353 7.50353L26.8235 5.80941L25.4118 7.50353L24 5.80941L22.5882 7.51765H23.1318C23.6965 8.89412 24 10.4118 24 12C24 14.0047 23.5059 15.8824 22.6447 17.5482C24.0353 19.1576 26.0541 20.1176 28.2353 20.1176C32.3294 20.1176 35.6471 16.7718 35.6471 12.6353C35.6471 10.6588 34.8847 8.85177 33.6353 7.51765ZM22.0094 5.36471C23.7035 3.88235 25.9059 3.03529 28.2353 3.03529C33.5012 3.03529 37.7647 7.34118 37.7647 12.6353C37.7647 17.9294 33.5012 22.2353 28.2353 22.2353C25.6376 22.2353 23.2235 21.1765 21.4588 19.3835C19.2706 22.1929 15.84 24 12 24C5.36471 24 0 18.6353 0 12C0 5.36471 5.36471 0 12 0C14.2729 0 16.3976 0.635295 18.2118 1.72941C19.7153 2.64706 21.0141 3.88235 22.0094 5.37177V5.36471ZM3.52941 8.47059C3.07059 9.55765 2.82353 10.7506 2.82353 12C2.82353 17.0682 6.93177 21.1765 12 21.1765C17.0682 21.1765 21.1765 17.0682 21.1765 12C21.1765 10.7506 20.9294 9.55765 20.4706 8.47059H14.1176C13.7435 8.47059 13.3835 8.32941 13.1294 8.04706L12 6.94588L10.8706 8.06118C10.6165 8.34353 10.2565 8.48471 9.88235 8.48471H3.52941V8.47059ZM18.6212 5.64706C16.9271 3.88235 14.5553 2.82353 12 2.82353C9.44471 2.82353 7.07294 3.88235 5.37882 5.64706H9.29647L11.0047 3.95294C11.5271 3.38824 12.4165 3.38824 12.9812 3.95294L14.6753 5.64706H18.5859H18.6212Z" fill="#E1DBF2"/>
<path fill-rule="evenodd" clip-rule="evenodd" d="M25.1292 14.3435C24.6633 14.3435 24.2821 13.9623 24.2821 13.4964C24.2821 13.0164 24.6633 12.6353 25.1292 12.6353C25.5951 12.6353 25.9762 13.0164 25.9762 13.4823C25.9762 13.9623 25.5951 14.3435 25.1292 14.3435ZM31.3409 14.3435C30.8751 14.3435 30.4939 13.9623 30.4939 13.4964C30.4939 13.0164 30.8751 12.6353 31.3409 12.6353C31.8068 12.6353 32.188 13.0164 32.188 13.4823C32.188 13.9623 31.8068 14.3435 31.3409 14.3435ZM9.17624 15.5294H14.8233C14.8233 17.0823 13.5527 18.3529 11.9998 18.3529C10.4468 18.3529 9.17624 17.0823 9.17624 15.5294ZM8.11742 14.8235C7.53153 14.8235 7.05859 14.3505 7.05859 13.7647C7.05859 13.1788 7.53153 12.7058 8.11742 12.7058C8.7033 12.7058 9.17624 13.1788 9.17624 13.7647C9.17624 14.3505 8.7033 14.8235 8.11742 14.8235ZM15.8821 14.8235C15.2962 14.8235 14.8233 14.3505 14.8233 13.7647C14.8233 13.1788 15.2962 12.7058 15.8821 12.7058C16.468 12.7058 16.9409 13.1788 16.9409 13.7647C16.9409 14.3505 16.468 14.8235 15.8821 14.8235Z" fill="#6B4FBB"/>
</svg>
