<svg xmlns="http://www.w3.org/2000/svg" viewBox="749 184 405 308" xmlns:xlink="http://www.w3.org/1999/xlink"><defs><rect id="a" width="260" height="68" rx="10"/><mask id="f" width="260" height="68" x="0" y="0" fill="#fff"><use xlink:href="#a"/></mask><circle id="b" cx="10.5" cy="5.5" r="5.5"/><mask id="g" width="15" height="15" x="-2" y="-2"><path fill="#fff" d="M3-2h15v15H3z"/><use xlink:href="#b"/></mask><rect id="c" width="226" height="61" rx="9"/><mask id="h" width="226" height="61" x="0" y="0" fill="#fff"><use xlink:href="#c"/></mask><rect id="d" width="200" height="55" rx="8.1"/><mask id="i" width="200" height="55" x="0" y="0" fill="#fff"><use xlink:href="#d"/></mask><path id="e" d="M0 5c0-3 2.2-5 5-5h130c2.8 0 5 2.2 5 5v23c0 2.8-2.2 5-5 5H5c-2.8 0-5-2.2-5-5V5z"/><mask id="j" width="140" height="33" x="0" y="0" fill="#fff"><use xlink:href="#e"/></mask></defs><g fill="none" fill-rule="evenodd" transform="translate(752 188)"><g fill="#FAFAFA" transform="translate(19 28)"><path d="M0 79c0-2.8 2.2-5 5-5h152c2.8 0 5 2.2 5 5v23c0 2.8-2.2 5-5 5H5c-2.8 0-5-2.2-5-5V79z"/><rect width="208" height="54" x="112" y="139" rx="8"/><rect width="187" height="49" x="175" rx="7.2"/></g><g transform="translate(100 46)"><use fill="#FFF" stroke="#EEE" stroke-width="6" mask="url(#f)" xlink:href="#a"/><g transform="translate(22 16)"><circle cx="17.5" cy="17.5" r="17.5"/><path fill="#6B4FBB" d="M17.5 31.3c7.8 0 10.5-3.8 10.5-9.6S23.3 13 17.5 13 7 16 7 21.7c0 5.8 2.7 9.6 10.5 9.6z"/><g transform="translate(7 5)"><use fill="#6B4FBB" xlink:href="#b"/><use stroke="#FFF" stroke-width="4" mask="url(#g)" xlink:href="#b"/></g></g><rect width="88" height="3" x="71" y="25" fill="#B5A7DD" rx="1.5"/><rect width="78" height="3" x="71" y="33" fill="#B5A7DD" rx="1.5"/><rect width="68" height="3" x="71" y="41" fill="#B5A7DD" rx="1.5"/></g><g transform="translate(54 119)"><use fill="#FFF" stroke="#EEE" stroke-width="6" mask="url(#h)" xlink:href="#c"/><g transform="translate(21 19)"><path stroke="#FDE5D8" stroke-width="3" d="M10.2 23h9.3C25.8 23 31 18 31 11.5S26 0 19.5 0h-8C5.2 0 0 5 0 11.5c0 3.6 1.7 6.8 4.3 9l3 5c.4.6 1 .6 1.3 0l1.6-2.6z" stroke-linejoin="round"/><ellipse cx="8.5" cy="11.5" fill="#FC6D26" rx="1.5" ry="1.5"/><ellipse cx="15.5" cy="11.5" fill="#FC6D26" rx="1.5" ry="1.5"/><ellipse cx="22.5" cy="11.5" fill="#FC6D26" rx="1.5" ry="1.5"/></g><rect width="35" height="3" x="64" y="22" fill="#EEE" rx="1.5"/><rect width="67" height="3" x="64" y="30" fill="#EEE" rx="1.5"/><rect width="72" height="3" x="64" y="38" fill="#EEE" rx="1.5"/></g><g transform="translate(130 185)"><use fill="#FFF" stroke="#EEE" stroke-width="6" mask="url(#i)" xlink:href="#d"/><rect width="46" height="3" x="57" y="18" fill="#EEE" rx="1.5"/><g transform="translate(18 24)"><circle cx="11.5" cy="4.5" r="4.5" stroke="#6B4FBB" stroke-width="3"/><rect width="8" height="3" x="15" y="3" fill="#6B4FBB" rx="1.5"/><rect width="8" height="3" y="3" fill="#6B4FBB" rx="1.5"/></g><rect width="68" height="3" x="57" y="26" fill="#EEE" rx="1.5"/><rect width="46" height="3" x="57" y="34" fill="#EEE" rx="1.5"/></g><g transform="translate(90 245)"><use fill="#FFF" stroke="#EEE" stroke-width="5" mask="url(#j)" xlink:href="#e"/><path fill="#FC6D26" d="M18 18v-2h2v2h-2zm0 2v2c0 .6-.4 1-1 1s-1-.5-1-1v-2h-2c-.6 0-1-.4-1-1s.4-1 1-1h2v-2h-1c-.6 0-1-.4-1-1s.4-1 1-1h1v-2c0-.6.4-1 1-1s1 .5 1 1v2h2v-2c0-.6.4-1 1-1s1 .5 1 1v2h2c.6 0 1 .4 1 1s-.4 1-1 1h-2v2h1c.6 0 1 .4 1 1s-.4 1-1 1h-1v2c0 .6-.4 1-1 1s-1-.5-1-1v-2h-2z"/><rect width="26" height="2" x="35" y="13" fill="#EEE" rx="1"/><rect width="58" height="2" x="35" y="19" fill="#EEE" rx="1"/></g><ellipse cx="207" cy="299" fill="#F9F9F9" rx="117" ry="5"/><path fill="#FC8A51" d="M6 177l-2.6 1.2c-1 .4-2-.2-1.8-1.3v-3l-1-2.8c-.4-1 0-2 1.2-1.8h3l2.6-1c1-.4 1.8 0 1.8 1.2v3l1 2.6c.4 1-.2 1.8-1.3 1.8H6zm384.7-18l-3.7.2c-1.4 0-2-.8-1.5-2l1.4-3.5-.4-3.7c0-1.4.8-2 2-1.5l3.5 1.4 3.8-.4c1.3 0 2 .8 1.4 2l-1.4 3.5.2 3.8c0 1.3-.8 2-2 1.4l-3.5-1.4z" opacity=".2"/><path fill="#6B4FBB" d="M354.8 8l-2-2.3c-.7-.8-.5-1.7.6-2l2.8-1 2-2c1-.6 1.8-.4 2.2.7l.8 2.8 2 2c.8 1 .5 1.8-.5 2.2l-2.8.8-2.5 2c-.8.8-1.7.5-2-.5l-1-2.8zm-62.4 269l-2.8.8c-1 .2-1.8-.5-1.6-1.6l.7-2.8-.7-2.8c-.2-1 .5-1.8 1.6-1.6l2.8.7 2.8-.7c1-.2 1.8.5 1.6 1.6l-.7 2.8 1 2.8c0 1-.5 1.8-1.6 1.6l-2.8-.7zM32 51l-3.6.6c-1.3.2-2-.7-1.7-2L28 46l-.6-3.6c-.2-1.3.7-2 2-1.7L33 42l3.6-.6c1.3-.2 2 .7 1.7 2L37 47l.6 3.6c.2 1.3-.7 2-2 1.7L32 51z" opacity=".2"/></g></svg>
