<svg xmlns="http://www.w3.org/2000/svg" viewBox="752 283 401 254"><g fill="none" fill-rule="evenodd" transform="translate(752 283)"><g fill="#F9F9F9" transform="translate(190.9 121)"><rect width="60" height="10" rx="5"/><rect width="74" height="10" x="31" y="19" rx="5"/><path d="M62.4 9.3h-31H35c3 0 5.2 2.4 5.2 5.2 0 3-2.3 5.2-5.2 5.2h-4 31.2-7.8c-2.8 0-5.2-2.4-5.2-5.2 0-3 2.3-5.2 5.2-5.2h7.8z"/></g><path fill="#FC6D26" d="M350.5 93c0-1 1-2 2-2s2 1 2 2v7c0 1-1 2-2 2s-2-1-2-2v-7zm16.4 6c.7-.7 2-.6 2.7.3.7.8.5 2-.3 2.8l-5.5 4.5c-1 .7-2.2.5-3-.3-.6-1-.4-2 .4-2.8L367 99zm5.5 16.5c1 .3 1.7 1.3 1.4 2.4-.3 1-1.4 1.7-2.4 1.4l-7-1.6c-1-.2-1.6-1.3-1.4-2.4.3-1 1.4-1.7 2.4-1.5l7 1.5zM363 130c.5 1 0 2.3-1 2.8s-2 0-2.6-1l-3-6.2c-.6-1-.2-2.2.8-2.7 1-.6 2.2 0 2.7.8l3 6.3zm-17.4 2c-.5 1-1.7 1.3-2.7.8-1-.5-1.5-1.7-1-2.7l3-6.2c.6-1 1.7-1.4 2.7-1 1 .6 1.5 1.8 1 2.8l-3 6.3zm-12.2-12.6c-1 .3-2-.4-2.3-1.5-.2-1.2.5-2.2 1.5-2.5l7-1.6c1-.3 2 .4 2.3 1.4.2 1-.5 2.2-1.5 2.4l-7 1.6zm2.2-17.3c-.8-.6-1-2-.3-2.7.7-1 2-1 2.8-.3l5.6 4.4c.8.7 1 2 .3 2.8-.8.8-2 1-3 .3l-5.4-4.4z"/><g fill="#F9F9F9" transform="translate(63.468 153)"><rect width="36.4" height="10.4" rx="5.2"/><rect width="66.2" height="10.4" x="9.1" y="20.8" rx="5.2"/><rect width="44.1" height="10.4" x="42.9" y="41.6" rx="5.2"/><path d="M40.3 10.4H9h4c3 0 5.2 2.3 5.2 5.2 0 3-2.3 5.2-5.2 5.2H9h31.3-7.8c-3 0-5.2-2.3-5.2-5.2 0-3 2.3-5.2 5.2-5.2h7.8zM75.3 31.2H44h4c3 0 5.2 2.3 5.2 5.2 0 3-2.3 5.2-5.2 5.2h-4 31.3-7.8c-2.8 0-5.2-2.3-5.2-5.2 0-3 2.4-5.2 5.2-5.2h7.8z"/></g><rect width="3" height="29" x="111" y="124" fill="#B5A7DD" rx="1.5"/><path fill="#6B4FBB" d="M114 135v-9l9 3.5c1.3.6 1.3 1.4 0 2l-9 3.5z"/><path fill="#FFF" stroke="#EEE" stroke-width="5.2" d="M7 250l53.6-74.6c2-3 5.5-3 7.6 0l11.6 16 30.2-44.2c2-3 5.3-3 7.3 0l66.7 98" stroke-linecap="round"/><g fill="#F9F9F9" transform="matrix(-1 0 0 1 398 142)"><rect width="41.5" height="10.3" rx="5.2"/><rect width="46.7" height="10.3" x="14.3" y="20.7" rx="5.2"/><path d="M45.4 10.3h-31H18c3 0 5.2 2.4 5.2 5.2 0 3-2.3 5.2-5.2 5.2h-4 31.2-7.8c-2.8 0-5.2-2.4-5.2-5.2 0-3 2.3-5.2 5.2-5.2h7.8z"/></g><path fill="#FFF" stroke="#EEE" stroke-width="5.2" d="M260 235.3l41.6-58.2c1.6-2 4.2-2 5.8 0l8.8 12.4 23-33.7c1.4-2.3 4-2.3 5.5 0l53.3 78.5" stroke-linecap="round"/><g transform="translate(194.5 69)"><rect width="5" height="55" fill="#FDE5D8" rx="2.5"/><path fill="#FC6D26" d="M4 23V2l25 9.6c1.3.5 1.3 1.3 0 1.8L4 23z"/></g><path fill="#FFF" stroke="#EEE" stroke-width="5.2" d="M336 250.4L263 148.6c-2-3-5.5-3-7.5 0l-16 22.3L200 112c-2-3-5.3-3-7.3 0l-94 138.6" stroke-linecap="round"/><path fill="#B5A7DD" d="M162.6 77l-2-1c-.4-.4-.4-1 0-1.2l2-1.2 1.2-2c.3-.4.8-.4 1 0l1.3 2 2 1.2c.5.3.5.8 0 1l-2 1.3-1 2c-.4.5-1 .5-1.2 0l-1.2-2zM289.6 125.3l-1.3-.8c-.5-.3-.5-.8 0-1l1.3-1 .8-1.2c.3-.5.8-.5 1 0l1 1.3 1.2.8c.5.3.5.8 0 1l-1.3 1-.8 1.2c-.3.5-.8.5-1 0l-1-1.3z"/><path fill="#B5A7DD" d="M4.6 186.3l-1.3-.8c-.5-.3-.5-.8 0-1l1.3-1 .8-1.2c.3-.5.8-.5 1 0l1 1.3 1.2.8c.5.3.5.8 0 1l-1.3 1-.8 1.2c-.3.5-.8.5-1 0l-1-1.3z" opacity=".5"/><path fill="#B5A7DD" d="M355.6 67.3l-1.3-.8c-.5-.3-.5-.8 0-1l1.3-1 .8-1.2c.3-.5.8-.5 1 0l1 1.3 1.2.8c.5.3.5.8 0 1l-1.3 1-.8 1.2c-.3.5-.8.5-1 0l-1-1.3z"/><path fill="#B5A7DD" d="M113.6 10L111 8.2c-.3-.3-.3-.8 0-1l2.6-1.7 1.6-2.5c.3-.3.8-.3 1 0l1.7 2.6 2.4 1.6c.5.3.5.8 0 1L118 10l-1.7 2.4c-.3.5-.8.5-1 0l-1.7-2.5z" opacity=".5"/><path fill="#FDE5D8" d="M279.5 10c0-1 1-2 2-2s2 1 2 2v7c0 1-1 2-2 2s-2-1-2-2v-7zm16.4 6c.7-.7 2-.6 2.7.3.7.8.5 2-.3 2.8l-5.5 4.5c-1 .7-2.2.5-3-.3-.6-1-.4-2 .4-2.8L296 16zm5.5 16.5c1 .3 1.7 1.3 1.4 2.4-.3 1-1.4 1.7-2.4 1.4l-7-1.6c-1-.2-1.6-1.3-1.4-2.4.3-1 1.4-1.7 2.4-1.5l7 1.5zM292 47c.5 1 0 2.3-1 2.8s-2 0-2.6-1l-3-6.2c-.6-1-.2-2.2.8-2.7 1-.6 2.2 0 2.7.8l3 6.3zm-17.4 2c-.5 1-1.7 1.3-2.7.8-1-.5-1.5-1.7-1-2.7l3-6.2c.6-1 1.7-1.4 2.7-1 1 .6 1.5 1.8 1 2.8l-3 6.3zm-12.2-12.6c-1 .3-2-.4-2.3-1.5-.2-1.2.5-2.2 1.5-2.5l7-1.6c1-.3 2 .4 2.3 1.4.2 1-.5 2.2-1.5 2.4l-7 1.6zm2.2-17.3c-.8-.6-1-2-.3-2.7.7-1 2-1 2.8-.3l5.6 4.4c.8.7 1 2 .3 2.8-.8.8-2 1-3 .3l-5.4-4.4z"/><path fill="#FC6D26" d="M29.7 29c0-1 1-2 2-2s2 1 2 2v7c0 1-1 2-2 2s-2-1-2-2v-7zm24.6 10c1-.8 2-.7 2.8.2.8 1 .7 2-.2 2.8l-5.4 4.4c-1 .7-2 .6-2.8-.3-.7-.7-.6-2 .3-2.7l5.3-4.4zM62 64.2c1 .3 1.7 1.4 1.4 2.4-.2 1-1.3 1.8-2.4 1.5l-6.8-1.5c-1-.3-1.8-1.3-1.5-2.4.2-1 1.3-1.8 2.4-1.5l7 1.5zM46.7 86c.5 1 0 2.3-1 2.8s-2 0-2.6-1l-3-6.3c-.6-1-.2-2 .8-2.6 1-.6 2.2-.2 2.7.8l3 6.3zm-26.5 2c-.5.8-1.7 1.3-2.7.8-1-.5-1.4-1.7-1-2.7L20 80c.4-1 1.6-1.4 2.6-1 1 .6 1.4 1.8 1 2.7l-3 6.4zM2.3 68c-1 .3-2-.4-2.2-1.5-.2-1 .5-2 1.5-2.4l7-1.5c1-.3 2 .4 2.3 1.5.2 1-.5 2-1.5 2.4l-7 1.5zM6.7 42c-.8-.7-1-2-.3-2.8.7-1 2-1 3-.3l5.3 4.3c1 .7 1 2 .3 2.8-.8 1-2 1-3 .4L6.7 42z"/></g></svg>
