<svg xmlns="http://www.w3.org/2000/svg" viewBox="0 0 446 249" xmlns:xlink="http://www.w3.org/1999/xlink"><defs><path id="0" d="m260.03 114h23.972v-.013c19.972-.53 36-16.887 36-36.987 0-20.435-16.565-37-37-37-.993 0-1.977.039-2.95.116-4.95-14.605-18.773-25.12-35.05-25.12-5.464 0-10.652 1.185-15.32 3.311-6.649-9.841-17.909-16.311-30.68-16.311-20.435 0-37 16.565-37 37 0 .701.019 1.397.058 2.088-16.11 3.999-28.06 18.561-28.06 35.912 0 20.435 16.565 37 37 37 .324 0 .646-.004.968-.012"/><ellipse id="2" cx="41" cy="41" rx="41" ry="41"/><mask id="1" width="186" height="112" x="0" y="0" fill="#fff"><use xlink:href="#0"/></mask><mask id="3" width="82" height="82" x="0" y="0" fill="#fff"><use xlink:href="#2"/></mask></defs><g fill="none" fill-rule="evenodd"><g transform="matrix(.86603.5-.5.86603 228.11 137.43)"><path stroke="#b5a7dd" stroke-width="4" d="m.445.161c15.89 10.636 34.998 16.839 55.55 16.839"/><g transform="translate(56 4)"><path fill="#fb722e" d="m16 8c0-1.105.902-2 2.01-2h7.983c1.109 0 2.01.888 2.01 2 0 1.105-.902 2-2.01 2h-7.983c-1.109 0-2.01-.888-2.01-2m0 10c0-1.105.902-2 2.01-2h7.983c1.109 0 2.01.888 2.01 2 0 1.105-.902 2-2.01 2h-7.983c-1.109 0-2.01-.888-2.01-2"/><path fill="#fde5d8" fill-rule="nonzero" d="m4 22h6c3.315 0 6-2.685 6-5.997v-6.01c0-3.315-2.684-5.997-6-5.997h-6v18m-4-18.992c0-1.661 1.343-3.01 2.994-3.01h7.01c5.523 0 10 4.47 10 9.997v6.01c0 5.521-4.476 9.997-10 9.997h-7.01c-1.654 0-2.994-1.343-2.994-3.01v-19.984"/></g></g><g fill-rule="nonzero" transform="translate(257)"><path fill="#e5e5e5" d="m3.597 18.747c5.611-9.09 15.519-14.747 26.403-14.747 17.12 0 31 13.879 31 31 0 7.02-2.34 13.685-6.58 19.1l3.149 2.466c4.786-6.111 7.431-13.639 7.431-21.565 0-19.33-15.67-35-35-35-12.286 0-23.476 6.384-29.808 16.647l3.404 2.1"/><g transform="matrix(.96593.25882-.25882.96593 15.98 9.578)"><path fill="#b5a7dd" d="m12.426 11.592l-2.142 1.768-3.664-2.116c-.186-.107-.43-.042-.543.154l-1.229 2.129c-.116.2-.052.438.138.547l3.658 2.112-.455 2.735c-.109.657-.165 1.327-.165 2.01 0 .678.055 1.348.165 2.01l.455 2.735-3.658 2.112c-.186.107-.251.351-.138.547l1.229 2.129c.116.2.353.264.543.154l3.664-2.116 2.142 1.768c1.036.855 2.205 1.533 3.462 2l2.6.972v4.225c0 .215.179.393.405.393h2.458c.231 0 .405-.174.405-.393v-4.225l2.6-.972c1.257-.47 2.426-1.147 3.462-2l2.142-1.768 3.664 2.116c.186.107.43.042.543-.154l1.229-2.129c.116-.2.052-.438-.138-.547l-3.658-2.112.455-2.735c.109-.657.165-1.327.165-2.01 0-.678-.055-1.348-.165-2.01l-.455-2.735 3.658-2.112c.186-.107.251-.351.138-.547l-1.229-2.129c-.116-.2-.353-.264-.543-.154l-3.664 2.116-2.142-1.768c-1.036-.855-2.205-1.533-3.462-2l-2.6-.972v-4.225c0-.215-.179-.393-.405-.393h-2.458c-.231 0-.405.174-.405.393v4.225l-2.6.972c-1.257.47-2.426 1.147-3.462 2m2.062-5.749v-1.45c0-2.426 1.963-4.393 4.405-4.393h2.458c2.433 0 4.405 1.967 4.405 4.393v1.45c1.689.631 3.243 1.538 4.608 2.665l1.259-.727c2.101-1.213 4.786-.497 6.01 1.618l1.229 2.129c1.216 2.107.499 4.798-1.602 6.01l-1.257.726c.144.866.219 1.755.219 2.662 0 .907-.075 1.796-.219 2.662l1.257.726c2.101 1.213 2.823 3.896 1.602 6.01l-1.229 2.129c-1.216 2.107-3.906 2.832-6.01 1.618l-1.259-.727c-1.365 1.127-2.92 2.034-4.608 2.665v1.45c0 2.426-1.963 4.393-4.405 4.393h-2.458c-2.433 0-4.405-1.967-4.405-4.393v-1.45c-1.689-.631-3.243-1.538-4.608-2.665l-1.259.727c-2.101 1.213-4.786.497-6.01-1.618l-1.229-2.129c-1.216-2.107-.499-4.798 1.602-6.01l1.257-.726c-.144-.866-.219-1.755-.219-2.662 0-.907.075-1.796.219-2.662l-1.257-.726c-2.101-1.213-2.823-3.896-1.602-6.01l1.229-2.129c1.216-2.107 3.906-2.832 6.01-1.618l1.259.727c1.365-1.127 2.92-2.034 4.608-2.665"/><path fill="#6b4fbb" d="m20.12 23.366c1.347 0 2.439-1.092 2.439-2.439 0-1.347-1.092-2.439-2.439-2.439-1.347 0-2.439 1.092-2.439 2.439 0 1.347 1.092 2.439 2.439 2.439m0 4c-3.556 0-6.439-2.883-6.439-6.439 0-3.556 2.883-6.439 6.439-6.439 3.556 0 6.439 2.883 6.439 6.439 0 3.556-2.883 6.439-6.439 6.439"/></g></g><use fill="#fff" stroke="#e5e5e5" stroke-width="8" mask="url(#1)" stroke-linejoin="round" xlink:href="#0"/><g transform="translate(175 58)"><use fill="#fff" stroke="#e5e5e5" stroke-width="8" mask="url(#3)" xlink:href="#2"/><g fill-rule="nonzero"><path fill="#e5e5e5" d="m41 78c20.435 0 37-16.565 37-37 0-20.435-16.565-37-37-37-20.435 0-37 16.565-37 37 0 20.435 16.565 37 37 37m0 4c-22.644 0-41-18.356-41-41 0-22.644 18.356-41 41-41 22.644 0 41 18.356 41 41 0 22.644-18.356 41-41 41"/><g transform="matrix(.96593.25882-.25882.96593 23.581 9.415)"><path fill="#b5a7dd" d="m14.821 13.655l-2.142 1.768-3.933-2.271c-.72-.416-1.634-.171-2.046.543l-1.507 2.61c-.409.708-.161 1.631.553 2.043l3.926 2.267-.455 2.735c-.145.869-.218 1.754-.218 2.65 0 .896.073 1.782.218 2.65l.455 2.735-3.926 2.267c-.72.416-.965 1.329-.553 2.043l1.507 2.61c.409.708 1.332.955 2.046.543l3.933-2.271 2.142 1.768c1.369 1.131 2.916 2.027 4.579 2.648l2.6.972v4.534c0 .831.669 1.5 1.493 1.5h3.01c.817 0 1.493-.676 1.493-1.5v-4.534l2.6-.972c1.663-.621 3.21-1.518 4.579-2.648l2.142-1.768 3.933 2.271c.72.416 1.634.171 2.046-.543l1.507-2.61c.409-.708.161-1.631-.553-2.043l-3.926-2.267.455-2.735c.145-.869.218-1.754.218-2.65 0-.896-.073-1.782-.218-2.65l-.455-2.735 3.926-2.267c.72-.416.965-1.329.553-2.043l-1.507-2.61c-.409-.708-1.332-.955-2.046-.543l-3.933 2.271-2.142-1.768c-1.369-1.131-2.916-2.027-4.579-2.648l-2.6-.972v-4.534c0-.831-.669-1.5-1.493-1.5h-3.01c-.817 0-1.493.676-1.493 1.5v4.534l-2.6.972c-1.663.621-3.21 1.518-4.579 2.648m3.179-6.395v-1.759c0-3.038 2.471-5.5 5.493-5.5h3.01c3.034 0 5.493 2.46 5.493 5.5v1.759c2.098.784 4.03 1.91 5.725 3.311l1.528-.882c2.631-1.519 5.999-.61 7.51 2.01l1.507 2.61c1.517 2.627.616 5.987-2.02 7.507l-1.525.881c.179 1.076.272 2.18.272 3.307 0 1.127-.093 2.231-.272 3.307l1.525.881c2.631 1.519 3.528 4.89 2.02 7.507l-1.507 2.61c-1.517 2.627-4.877 3.527-7.51 2.01l-1.528-.882c-1.696 1.401-3.627 2.527-5.725 3.311v1.759c0 3.038-2.471 5.5-5.493 5.5h-3.01c-3.034 0-5.493-2.46-5.493-5.5v-1.759c-2.098-.784-4.03-1.91-5.725-3.311l-1.528.882c-2.631 1.519-5.999.61-7.51-2.01l-1.507-2.61c-1.517-2.627-.616-5.987 2.02-7.507l1.525-.881c-.179-1.076-.272-2.18-.272-3.307 0-1.127.093-2.231.272-3.307l-1.525-.881c-2.631-1.519-3.528-4.89-2.02-7.507l1.507-2.61c1.517-2.627 4.877-3.527 7.51-2.01l1.528.882c1.696-1.401 3.627-2.527 5.725-3.311"/><path fill="#6b4fbb" d="m25 30c2.209 0 4-1.791 4-4 0-2.209-1.791-4-4-4-2.209 0-4 1.791-4 4 0 2.209 1.791 4 4 4m0 4c-4.418 0-8-3.582-8-8 0-4.418 3.582-8 8-8 4.418 0 8 3.582 8 8 0 4.418-3.582 8-8 8"/></g></g></g><g transform="translate(140 161)"><path fill="#e5e5e5" fill-rule="nonzero" d="m4 8.541v30.01c0 2.202 1.793 3.995 4 3.995h20c2.209 0 4-1.789 4-3.995v-30.01c0-2.202-1.793-3.995-4-3.995h-20c-2.209 0-4 1.789-4 3.995m-4 0c0-4.416 3.583-7.995 8-7.995h20c4.416 0 8 3.584 8 7.995v30.01c0 4.416-3.583 7.995-8 7.995h-20c-4.416 0-8-3.584-8-7.995v-30.01"/><g fill="#fb722e"><rect width="4" height="11" x="10" y="18.545" rx="2"/><rect width="4" height="11" x="21" y="18.545" rx="2"/></g></g><path fill="#e5e5e5" fill-rule="nonzero" d="m445.16 245.34c-16.874-11.778-110.62-20.336-222.14-20.336-111.61 0-205.4 8.571-222.18 20.364-.904.635-1.121 1.883-.486 2.786.635.904 1.883 1.121 2.786.486 15.756-11.07 109.46-19.636 219.88-19.636 110.34 0 203.99 8.55 219.85 19.617.906.632 2.153.41 2.785-.495.632-.906.41-2.153-.495-2.785"/></g></svg>