<svg xmlns="http://www.w3.org/2000/svg" viewBox="0 0 250 150"><g fill="none" fill-rule="evenodd" transform="translate(0-3)"><g transform="translate(0 105)"><g fill="#e5e5e5"><rect width="78" height="4" x="34" y="21" opacity=".5" rx="2"/><path d="m152 23c0-1.105.887-2 1.998-2h4c1.104 0 1.998.888 1.998 2 0 1.105-.887 2-1.998 2h-4c-1.104 0-1.998-.888-1.998-2m14 0c0-1.105.887-2 1.998-2h4c1.104 0 1.998.888 1.998 2 0 1.105-.887 2-1.998 2h-4c-1.104 0-1.998-.888-1.998-2m14 0c0-1.105.887-2 1.998-2h4c1.104 0 1.998.888 1.998 2 0 1.105-.887 2-1.998 2h-4c-1.104 0-1.998-.888-1.998-2m14 0c0-1.105.887-2 1.998-2h4c1.104 0 1.998.888 1.998 2 0 1.105-.887 2-1.998 2h-4c-1.104 0-1.998-.888-1.998-2m14 0c0-1.105.887-2 1.998-2h4c1.104 0 1.998.888 1.998 2 0 1.105-.887 2-1.998 2h-4c-1.104 0-1.998-.888-1.998-2"/></g><g transform="translate(0 4)"><path fill="#98d7b2" fill-rule="nonzero" d="m19 38c-10.493 0-19-8.507-19-19 0-10.493 8.507-19 19-19 10.493 0 19 8.507 19 19 0 10.493-8.507 19-19 19m0-4c8.284 0 15-6.716 15-15 0-8.284-6.716-15-15-15-8.284 0-15 6.716-15 15 0 8.284 6.716 15 15 15"/><path fill="#31af64" d="m17.07 21.02l-2.829-2.829c-.786-.786-2.047-.781-2.828 0-.786.786-.781 2.047 0 2.828l4.243 4.243c.392.392.902.587 1.412.588.512.002 1.021-.193 1.41-.582l7.79-7.79c.777-.777.775-2.042-.006-2.823-.786-.786-2.045-.784-2.823-.006l-6.37 6.37"/></g><g fill="#e52c5a" transform="translate(102)"><path fill-rule="nonzero" d="m24 47.5c-12.979 0-23.5-10.521-23.5-23.5 0-12.979 10.521-23.5 23.5-23.5 12.979 0 23.5 10.521 23.5 23.5 0 12.979-10.521 23.5-23.5 23.5m0-5c10.217 0 18.5-8.283 18.5-18.5 0-10.217-8.283-18.5-18.5-18.5-10.217 0-18.5 8.283-18.5 18.5 0 10.217 8.283 18.5 18.5 18.5"/><path d="m28.24 24l2.833-2.833c1.167-1.167 1.167-3.067-.004-4.239-1.169-1.169-3.069-1.173-4.239-.004l-2.833 2.833-2.833-2.833c-1.167-1.167-3.067-1.167-4.239.004-1.169 1.169-1.173 3.069-.004 4.239l2.833 2.833-2.833 2.833c-1.167 1.167-1.167 3.067.004 4.239 1.169 1.169 3.069 1.173 4.239.004l2.833-2.833 2.833 2.833c1.167 1.167 3.067 1.167 4.239-.004 1.169-1.169 1.173-3.069.004-4.239l-2.833-2.833"/></g><path fill="#e5e5e5" fill-rule="nonzero" d="m236 37c-7.732 0-14-6.268-14-14 0-7.732 6.268-14 14-14 7.732 0 14 6.268 14 14 0 7.732-6.268 14-14 14m0-4c5.523 0 10-4.477 10-10 0-5.523-4.477-10-10-10-5.523 0-10 4.477-10 10 0 5.523 4.477 10 10 10"/></g><g transform="translate(69 3)"><path fill="#e5e5e5" fill-rule="nonzero" d="m4 11.99v60.02c0 4.413 3.583 7.99 8 7.99h89.991c4.419 0 8-3.579 8-7.99v-60.02c0-4.413-3.583-7.99-8-7.99h-89.991c-4.419 0-8 3.579-8 7.99m-4 0c0-6.622 5.378-11.99 12-11.99h89.991c6.629 0 12 5.367 12 11.99v60.02c0 6.622-5.378 11.99-12 11.99h-89.991c-6.629 0-12-5.367-12-11.99v-60.02m52.874 80.3l-13.253-15.292h34.76l-13.253 15.292c-2.237 2.582-6.01 2.585-8.253 0m3.02-2.62c.644.743 1.564.743 2.207 0l7.516-8.673h-17.24l7.516 8.673"/><rect width="18" height="6" x="15" y="23" fill="#fc8a51" rx="3"/><rect width="18" height="6" x="39" y="39" fill="#e52c5a" rx="3"/><rect width="18" height="6" x="33" y="55" fill="#e5e5e5" rx="3"/><rect width="12" height="6" x="39" y="23" fill="#fde5d8" rx="3"/><rect width="12" height="6" x="57" y="55" fill="#e52c5a" rx="3"/><rect width="12" height="6" x="15" y="55" fill="#b5a7dd" rx="3"/><rect width="18" height="6" x="81" y="23" fill="#fc8a51" rx="3"/><rect width="18" height="6" x="15" y="39" fill="#fde5d8" rx="3"/><rect width="6" height="6" x="57" y="23" fill="#e52c5a" rx="3"/><g fill="#fde5d8"><rect width="6" height="6" x="69" y="23" rx="3"/><rect width="6" height="6" x="75" y="39" rx="3"/></g><rect width="6" height="6" x="63" y="39" fill="#e52c5a" rx="3"/></g><g transform="matrix(.70711-.70711.70711.70711 84.34 52.5)"><path fill="#6b4fbb" fill-rule="nonzero" d="m28.02 67.48c-15.927-2.825-28.02-16.738-28.02-33.476 0-18.778 15.222-34 34-34 18.778 0 34 15.222 34 34 0 16.738-12.1 30.652-28.02 33.476.015.173.023.347.023.524v21.999c0 3.314-2.693 6-6 6-3.314 0-6-2.682-6-6v-21.999c0-.177.008-.351.023-.524m5.977-7.476c14.359 0 26-11.641 26-26 0-14.359-11.641-26-26-26-14.359 0-26 11.641-26 26 0 14.359 11.641 26 26 26"/><path fill="#fff" fill-opacity=".3" stroke="#6b4fbb" stroke-width="8" d="m31 71c16.569 0 30-13.431 30-30 0-16.569-13.431-30-30-30" transform="matrix(.86603.5-.5.86603 26.663-17.507)"/></g></g></svg>