<svg xmlns="http://www.w3.org/2000/svg" width="226" height="178" viewBox="0 0 226 178">
  <g fill="none" fill-rule="evenodd">
    <path fill="#EEEEEE" fill-rule="nonzero" d="M113.11329,165.976823 C115.175008,165.976823 117.227075,165.89522 119.266293,165.732866 C120.367378,165.645203 121.188919,164.681531 121.101255,163.580446 C121.013592,162.479361 120.04992,161.65782 118.948835,161.745483 C117.015199,161.899431 115.069035,161.976823 113.11329,161.976823 C112.00872,161.976823 111.11329,162.872254 111.11329,163.976823 C111.11329,165.081393 112.00872,165.976823 113.11329,165.976823 Z M131.430062,163.76956 C133.428482,163.278472 135.403089,162.707138 137.349967,162.05731 C138.397714,161.707594 138.963579,160.574727 138.613862,159.52698 C138.264146,158.479234 137.131279,157.913369 136.083533,158.263085 C134.239236,158.878674 132.368672,159.419904 130.475509,159.885126 C129.402852,160.148718 128.746976,161.231962 129.010568,162.304619 C129.274161,163.377276 130.357405,164.033152 131.430062,163.76956 Z M148.683132,157.221532 C150.50134,156.264951 152.279982,155.235406 154.014883,154.135712 C154.94782,153.544355 155.224725,152.308671 154.633368,151.375734 C154.042012,150.442797 152.806328,150.165892 151.873391,150.757249 C150.229216,151.799436 148.543668,152.775094 146.820711,153.681562 C145.843175,154.195856 145.467643,155.405222 145.981937,156.382758 C146.49623,157.360294 147.705597,157.735826 148.683132,157.221532 Z M189.04494,80.1064727 C188.795068,78.0611173 188.463445,76.0322986 188.051346,74.0236239 C187.829357,72.9415912 186.772239,72.2443882 185.690206,72.4663774 C184.608173,72.6883665 183.91097,73.745485 184.13296,74.8275176 C184.523424,76.7307443 184.837662,78.653198 185.074458,80.5915273 C185.208402,81.6879454 186.205808,82.4681848 187.302226,82.3342406 C188.398644,82.2002965 189.178884,81.2028908 189.04494,80.1064727 Z M184.595563,62.1709241 C183.861709,60.2509316 183.050681,58.3626859 182.164767,56.5103055 C181.688197,55.513834 180.494062,55.0923701 179.49759,55.5689394 C178.501119,56.0455088 178.079655,57.2396443 178.556224,58.2361158 C179.395578,59.9911434 180.163951,61.7800779 180.859186,63.5990309 C181.253547,64.6308028 182.409656,65.1475266 183.441428,64.7531658 C184.4732,64.358805 184.989924,63.202696 184.595563,62.1709241 Z M175.975891,45.8699402 C174.803908,44.1835294 173.564524,42.5446905 172.261057,40.9575002 C171.560038,40.1038923 170.299764,39.9801944 169.446156,40.6812132 C168.592548,41.382232 168.46885,42.6425059 169.169869,43.4961138 C170.405479,45.0006764 171.580306,46.5541518 172.691201,48.1526598 C173.321556,49.059702 174.567864,49.2840008 175.474906,48.6536452 C176.381948,48.0232896 176.606247,46.7769824 175.975891,45.8699402 Z M163.655497,32.0496739 C162.114017,30.6919713 160.51871,29.3964955 158.873599,28.1666929 C157.988904,27.5053393 156.735584,27.6863932 156.07423,28.5710882 C155.412876,29.4557832 155.59393,30.7091032 156.478625,31.3704568 C158.03808,32.5362269 159.550371,33.7642895 161.01167,35.0513693 C161.840565,35.7814421 163.104358,35.7013307 163.834431,34.8724355 C164.564504,34.0435402 164.484393,32.7797468 163.655497,32.0496739 Z M62.1152751,32.4543561 C60.5847993,33.8240499 59.1096175,35.2546268 57.6935525,36.7423508 C56.9320102,37.5424303 56.9632509,38.8083748 57.7633304,39.569917 C58.5634099,40.3314593 59.8293544,40.3002186 60.5908967,39.5001391 C61.9333654,38.0897357 63.3318802,36.7335077 64.7828013,35.4350111 C65.6058865,34.698394 65.6759827,33.4340056 64.9393657,32.6109205 C64.2027487,31.7878354 62.9383602,31.7177391 62.1152751,32.4543561 Z M49.9647581,46.2842709 C48.8032203,47.9792905 47.7102218,49.7204285 46.6887322,51.5035159 C46.1396662,52.4619522 46.4715263,53.6840244 47.4299627,54.2330904 C48.388399,54.7821565 49.6104712,54.4502964 50.1595373,53.49186 C51.1275979,51.802037 52.1634776,50.1518886 53.2643646,48.5453761 C53.8887516,47.634215 53.6562752,46.3894072 52.745114,45.7650202 C51.8339529,45.1406333 50.5891451,45.3731097 49.9647581,46.2842709 Z M41.439817,62.6765492 C40.7205476,64.599303 40.0788901,66.5521196 39.5167498,68.5310093 C39.2149183,69.59354 39.8315868,70.6995742 40.8941175,71.0014057 C41.9566482,71.3032372 43.0626823,70.6865687 43.3645139,69.624038 C43.8970348,67.7494169 44.5048818,65.8994988 45.1862621,64.0780305 C45.5732704,63.0434782 45.0483324,61.8910757 44.0137802,61.5040673 C42.979228,61.117059 41.8268254,61.641997 41.439817,62.6765492 Z M37.1150567,80.6687506 C36.8818324,82.7025904 36.7294499,84.7512739 36.6588751,86.811482 C36.6210589,87.9154039 37.4853085,88.8409655 38.5892305,88.8787817 C39.6931524,88.9165978 40.618714,88.0523482 40.6565301,86.9484263 C40.7234542,84.9947919 40.8679273,83.0524452 41.089014,81.1244519 C41.2148524,80.0270739 40.427264,79.0354611 39.329886,78.9096226 C38.232508,78.7837842 37.2408952,79.5713726 37.1150567,80.6687506 Z M77.9924825,157.455875 C79.816423,158.400062 81.6783348,159.270485 83.5740683,160.064713 C84.5928411,160.491533 85.764726,160.011661 86.1915465,158.992888 C86.618367,157.974115 86.1384949,156.802231 85.1197221,156.37541 C83.3236522,155.622937 81.5595556,154.798241 79.8313562,153.903616 C78.850427,153.395825 77.6435809,153.77938 77.1357899,154.760309 C76.6279989,155.741238 77.0115533,156.948084 77.9924825,157.455875 Z M95.3222654,163.896773 C97.3170622,164.371938 99.3339469,164.76704 101.369224,165.080683 C102.460907,165.248916 103.48227,164.500311 103.650503,163.408628 C103.818735,162.316945 103.07013,161.295582 101.978447,161.12735 C100.049949,160.830161 98.1390329,160.455818 96.2491403,160.005642 C95.1746341,159.749692 94.0960867,160.413264 93.8401372,161.48777 C93.5841878,162.562276 94.2477592,163.640824 95.3222654,163.896773 Z" transform="rotate(3 112.859 96.873)"/>
    <g transform="translate(0 88)">
      <path fill="#F9F9F9" d="M2.11986346,42 C2.04046544,42.9895269 2,43.9900378 2,45 C2,65.4345357 18.5654643,82 39,82 C59.4345357,82 76,65.4345357 76,45 C76,43.9900378 75.9595346,42.9895269 75.8801365,42 C74.3530766,61.0315425 58.4245736,76 39,76 C19.5754264,76 3.64692341,61.0315425 2.11986346,42 Z"/>
      <path fill="#EEEEEE" fill-rule="nonzero" d="M39,78 C17.4608948,78 0,60.5391052 0,39 C0,17.4608948 17.4608948,0 39,0 C60.5391052,0 78,17.4608948 78,39 C78,60.5391052 60.5391052,78 39,78 Z M39,74 C58.3299662,74 74,58.3299662 74,39 C74,19.6700338 58.3299662,4 39,4 C19.6700338,4 4,19.6700338 4,39 C4,58.3299662 19.6700338,74 39,74 Z"/>
      <path fill="#FDC4A8" fill-rule="nonzero" d="M53.9249541,28.2262752 C53.6483435,28.0817338 53.3337167,28 53,28 L25,28 C24.6772246,28 24.372308,28.0764622 24.102375,28.2122615 L38.7647362,41.6178489 C39.1551138,41.9747655 39.7559205,41.9659442 40.1356513,41.5977204 L53.9249541,28.2262752 Z M55,32.7556101 L42.9202346,44.469322 C41.0215811,46.3104406 38.0175472,46.3545472 36.0656594,44.5699641 L23,32.6242184 L23,50 C23,51.1045695 23.8954305,52 25,52 L53,52 C54.1045695,52 55,51.1045695 55,50 L55,32.7556101 Z M25,24 L53,24 C56.3137085,24 59,26.6862915 59,30 L59,50 C59,53.3137085 56.3137085,56 53,56 L25,56 C21.6862915,56 19,53.3137085 19,50 L19,30 C19,26.6862915 21.6862915,24 25,24 Z"/>
    </g>
    <g transform="translate(148 89)">
      <path fill="#F9F9F9" d="M2.11986346,42 C2.04046544,42.9895269 2,43.9900378 2,45 C2,65.4345357 18.5654643,82 39,82 C59.4345357,82 76,65.4345357 76,45 C76,43.9900378 75.9595346,42.9895269 75.8801365,42 C74.3530766,61.0315425 58.4245736,76 39,76 C19.5754264,76 3.64692341,61.0315425 2.11986346,42 Z"/>
      <path fill="#EEEEEE" fill-rule="nonzero" d="M39,78 C17.4608948,78 0,60.5391052 0,39 C0,17.4608948 17.4608948,0 39,0 C60.5391052,0 78,17.4608948 78,39 C78,60.5391052 60.5391052,78 39,78 Z M39,74 C58.3299662,74 74,58.3299662 74,39 C74,19.6700338 58.3299662,4 39,4 C19.6700338,4 4,19.6700338 4,39 C4,58.3299662 19.6700338,74 39,74 Z"/>
      <path fill="#E1DBF1" fill-rule="nonzero" d="M32.509265,48 L51,48 C52.1045695,48 53,47.1045695 53,46 L53,30 C53,28.8954305 52.1045695,28 51,28 L27,28 C25.8954305,28 25,28.8954305 25,30 L25,52.7426937 L32.509265,48 Z M33.6666667,52 L24.067986,58.0623246 C23.7483517,58.2641989 23.3780467,58.3713468 23,58.3713468 C21.8954305,58.3713468 21,57.4759163 21,56.3713468 L21,30 C21,26.6862915 23.6862915,24 27,24 L51,24 C54.3137085,24 57,26.6862915 57,30 L57,46 C57,49.3137085 54.3137085,52 51,52 L33.6666667,52 Z"/>
      <path fill="#6B4FBB" d="M32,40 C30.8954305,40 30,39.1045695 30,38 C30,36.8954305 30.8954305,36 32,36 C33.1045695,36 34,36.8954305 34,38 C34,39.1045695 33.1045695,40 32,40 Z M39,40 C37.8954305,40 37,39.1045695 37,38 C37,36.8954305 37.8954305,36 39,36 C40.1045695,36 41,36.8954305 41,38 C41,39.1045695 40.1045695,40 39,40 Z M46,40 C44.8954305,40 44,39.1045695 44,38 C44,36.8954305 44.8954305,36 46,36 C47.1045695,36 48,36.8954305 48,38 C48,39.1045695 47.1045695,40 46,40 Z"/>
    </g>
    <g transform="translate(74)">
      <path fill="#F9F9F9" d="M2.11986346,42 C2.04046544,42.9895269 2,43.9900378 2,45 C2,65.4345357 18.5654643,82 39,82 C59.4345357,82 76,65.4345357 76,45 C76,43.9900378 75.9595346,42.9895269 75.8801365,42 C74.3530766,61.0315425 58.4245736,76 39,76 C19.5754264,76 3.64692341,61.0315425 2.11986346,42 Z"/>
      <path fill="#EEEEEE" fill-rule="nonzero" d="M39,78 C17.4608948,78 0,60.5391052 0,39 C0,17.4608948 17.4608948,0 39,0 C60.5391052,0 78,17.4608948 78,39 C78,60.5391052 60.5391052,78 39,78 Z M39,74 C58.3299662,74 74,58.3299662 74,39 C74,19.6700338 58.3299662,4 39,4 C19.6700338,4 4,19.6700338 4,39 C4,58.3299662 19.6700338,74 39,74 Z"/>
      <g transform="translate(12 16)">
        <g transform="translate(47 19)">
          <rect width="7" height="1" y="3" fill="#E1DBF2" rx=".5"/>
          <path fill="#6B4FBB" d="M1.5,7 L1.5,7 C3.43299662,7 5,5.43299662 5,3.5 C5,1.56700338 3.43299662,0 1.5,0 L1.5,7 Z"/>
        </g>
        <g transform="matrix(-1 0 0 1 7 19)">
          <rect width="7" height="1" y="3" fill="#E1DBF2" rx=".5"/>
          <path fill="#6B4FBB" d="M1.5,7 L1.5,7 C3.43299662,7 5,5.43299662 5,3.5 C5,1.56700338 3.43299662,0 1.5,0 L1.5,7 Z"/>
        </g>
        <path fill="#E1DBF1" fill-rule="nonzero" d="M27,42 C37.4934102,42 46,33.4934102 46,23 C46,12.5065898 37.4934102,4 27,4 C16.5065898,4 8,12.5065898 8,23 C8,33.4934102 16.5065898,42 27,42 Z M27,46 C14.2974508,46 4,35.7025492 4,23 C4,10.2974508 14.2974508,0 27,0 C39.7025492,0 50,10.2974508 50,23 C50,35.7025492 39.7025492,46 27,46 Z"/>
        <path fill="#6B4FBB" d="M23,40 C22.4477153,40 22,39.5522847 22,39 C22,38.4477153 22.4477153,38 23,38 C23.5522847,38 24,38.4477153 24,39 C24,39.5522847 23.5522847,40 23,40 Z M27,40 C26.4477153,40 26,39.5522847 26,39 C26,38.4477153 26.4477153,38 27,38 C27.5522847,38 28,38.4477153 28,39 C28,39.5522847 27.5522847,40 27,40 Z M31,40 C30.4477153,40 30,39.5522847 30,39 C30,38.4477153 30.4477153,38 31,38 C31.5522847,38 32,38.4477153 32,39 C32,39.5522847 31.5522847,40 31,40 Z"/>
        <path fill="#E1DBF1" fill-rule="nonzero" d="M11.5,24 C11.5,18.2011548 16.1980447,13.5 21.9942006,13.5 L32.0057994,13.5 C37.8021519,13.5 42.5,18.2004829 42.5,24 C42.5,29.7988452 37.8019553,34.5 32.0057994,34.5 L21.9942006,34.5 C16.1978481,34.5 11.5,29.7995171 11.5,24 Z M14.5,24 C14.5,28.1430393 17.855079,31.5 21.9942006,31.5 L32.0057994,31.5 C36.1446565,31.5 39.5,28.1424352 39.5,24 C39.5,19.8569607 36.144921,16.5 32.0057994,16.5 L21.9942006,16.5 C17.8553435,16.5 14.5,19.8575648 14.5,24 Z"/>
        <path fill="#6B4FBB" fill-rule="nonzero" d="M23.2545535,26.4064616 C23.0603408,25.8894511 23.3220201,25.3128908 23.8390307,25.1186781 C24.3560412,24.9244654 24.9326015,25.1861447 25.1268142,25.7031553 C25.4174322,26.4768048 26.1595191,27 27,27 C27.8552114,27 28.6075612,26.4582305 28.8870847,25.6649679 C29.0706325,25.1440757 29.6416939,24.8706041 30.1625861,25.0541519 C30.6834783,25.2376997 30.9569499,25.8087611 30.7734021,26.3296533 C30.2140684,27.9169922 28.7101065,29 27,29 C25.3194954,29 23.8358808,27.9540037 23.2545535,26.4064616 Z M19.5,24 C18.6715729,24 18,23.3284271 18,22.5 C18,21.6715729 18.6715729,21 19.5,21 C20.3284271,21 21,21.6715729 21,22.5 C21,23.3284271 20.3284271,24 19.5,24 Z M34.5,24 C33.6715729,24 33,23.3284271 33,22.5 C33,21.6715729 33.6715729,21 34.5,21 C35.3284271,21 36,21.6715729 36,22.5 C36,23.3284271 35.3284271,24 34.5,24 Z"/>
        <path fill="#6B4FBB" d="M26,6 L28,6 C28.5522847,6 29,6.44771525 29,7 L29,7 C29,7.55228475 28.5522847,8 28,8 L26,8 C25.4477153,8 25,7.55228475 25,7 L25,7 L25,7 C25,6.44771525 25.4477153,6 26,6 L26,6 Z M26,9 L28,9 C28.5522847,9 29,9.44771525 29,10 C29,10.5522847 28.5522847,11 28,11 L26,11 C25.4477153,11 25,10.5522847 25,10 C25,9.44771525 25.4477153,9 26,9 L26,9 Z" style="mix-blend-mode:multiply"/>
      </g>
    </g>
  </g>
</svg>
