<svg xmlns="http://www.w3.org/2000/svg" viewBox="758 211 385 296" xmlns:xlink="http://www.w3.org/1999/xlink"><defs><rect id="a" width="248" height="296" x="94" rx="10"/><mask id="c" width="248" height="296" x="0" y="0" fill="#fff"><use xlink:href="#a"/></mask><rect id="b" width="37" height="28" y="14" rx="6"/><mask id="d" width="37" height="28" x="0" y="0" fill="#fff"><use xlink:href="#b"/></mask></defs><g fill="none" fill-rule="evenodd" transform="translate(740.000000, 211.000000)"><g fill="#F9F9F9" transform="translate(203.000000, 140.500000) scale(-1, 1) translate(-203.000000, -140.500000) translate(0.000000, 31.000000)"><rect width="120" height="22" x="30" rx="11"/><rect width="132" height="22" y="44" rx="11"/><rect width="190" height="22" x="208" y="66" rx="11"/><rect width="158" height="22" x="199" y="197" rx="11"/><rect width="158" height="22" x="136" y="154" rx="11"/><rect width="350" height="22" x="31" y="110" rx="11"/><path d="M153 22H21h21.5c6 0 11 5 11 11s-5 11-11 11H21h132-36.5c-6 0-11-5-11-11s5-11 11-11H153zm252 66H288h36.5c6 0 11 5 11 11s-5 11-11 11H288h117-36.5c-6 0-11-5-11-11s5-11 11-11H405zm-174 44H114h36.5c6 0 11 5 11 11s-5 11-11 11H114h117-36.5c-6 0-11-5-11-11s5-11 11-11H231zm75 44H189h21.5c6 0 11 5 11 11s-5 11-11 11H189h117-51.5c-6 0-11-5-11-11s5-11 11-11H306z"/></g><use fill="#FFF" stroke="#EEE" stroke-width="8" mask="url(#c)" xlink:href="#a"/><rect width="200" height="117" x="118" y="22" fill="#FFF" stroke="#FDE5D8" stroke-width="4" stroke-linecap="round" stroke-dasharray="11" rx="6"/><rect width="200" height="117" x="118" y="157" fill="#FFF" stroke="#EEE" stroke-width="4" stroke-linecap="round" stroke-dasharray="11" rx="6"/><g transform="translate(74.998711, 230.815699) rotate(-330.000000) translate(-74.998711, -230.815699) translate(46.998711, 203.315699) translate(27.686210, 27.223611) rotate(-315.000000) translate(-27.686210, -27.223611) translate(18.686210, -2.276389)"><path fill="#FFF" stroke="#B5A7DD" stroke-width="3" d="M4.5 1.5c0-1.3 1-2 2-1.2 0 0 7 2.3 7 12.4v30h-9V1.4z"/><circle cx="9" cy="49.3" r="9" fill="#6B4FBB"/><circle cx="9" cy="49.3" r="4.5" fill="#FFF"/></g><g transform="translate(74.998711, 230.815699) rotate(-330.000000) translate(-74.998711, -230.815699) translate(46.998711, 203.315699) translate(28.167043, 27.223611) scale(-1, 1) rotate(-315.000000) translate(-28.167043, -27.223611) translate(19.167043, -2.276389)"><path fill="#FFF" stroke="#B5A7DD" stroke-width="3" d="M4.5 1.5c0-1.3 1-2 2-1.2 0 0 7 2.3 7 12.4v30h-9V1.4z"/><circle cx="9" cy="29.1" r="2.2" fill="#6B4FBB"/><circle cx="9" cy="49.3" r="9" fill="#6B4FBB"/><circle cx="9" cy="49.3" r="4.5" fill="#FFF"/></g><rect width="200" height="117" x="46" y="11" fill="#FFF" stroke="#E5E5E5" stroke-width="4" stroke-linecap="round" rx="6"/><g transform="translate(65.000000, 40.000000)"><rect width="22" height="6" fill="#E5E5E5" rx="3"/><rect width="22" height="6" x="22" y="18" fill="#FC6D26" rx="3"/><rect width="16" height="6" x="46" fill="#FDE5D8" rx="3"/><rect width="16" height="6" x="86" fill="#FDE5D8" rx="3"/><rect width="16" height="6" y="36" fill="#FDE5D8" rx="3"/><rect width="16" height="6" y="54" fill="#B5A7DD" rx="3"/><rect width="16" height="6" y="18" fill="#B5A7DD" rx="3"/><rect width="16" height="6" x="68" y="18" fill="#E5E5E5" rx="3"/><rect width="16" height="6" x="22" y="54" fill="#FDE5D8" rx="3"/><rect width="12" height="6" x="28" fill="#6B4FBB" rx="3"/><rect width="12" height="6" x="50" y="18" fill="#E5E5E5" rx="3"/><rect width="12" height="6" x="22" y="36" fill="#E5E5E5" rx="3"/><rect width="12" height="6" x="44" y="54" fill="#E5E5E5" rx="3"/><rect width="12" height="6" x="62" y="54" fill="#FC6D26" rx="3"/><rect width="12" height="6" x="40" y="36" fill="#6B4FBB" rx="3"/><rect width="12" height="6" x="68" fill="#FC6D26" rx="3"/></g><g transform="translate(170.000000, 169.000000)"><rect width="200" height="117" fill="#FFF" stroke="#E5E5E5" stroke-width="4" stroke-linecap="round" rx="6"/><g transform="translate(19.000000, 29.000000)"><rect width="22" height="6" fill="#E5E5E5" rx="3"/><rect width="22" height="6" x="22" y="18" fill="#FC6D26" rx="3"/><rect width="16" height="6" x="46" fill="#FDE5D8" rx="3"/><rect width="16" height="6" x="86" fill="#FDE5D8" rx="3"/><rect width="16" height="6" y="36" fill="#FDE5D8" rx="3"/><rect width="16" height="6" y="54" fill="#B5A7DD" rx="3"/><rect width="16" height="6" y="18" fill="#B5A7DD" rx="3"/><rect width="16" height="6" x="68" y="18" fill="#E5E5E5" rx="3"/><rect width="16" height="6" x="22" y="54" fill="#FDE5D8" rx="3"/><rect width="12" height="6" x="28" fill="#6B4FBB" rx="3"/><rect width="12" height="6" x="50" y="18" fill="#E5E5E5" rx="3"/><rect width="12" height="6" x="22" y="36" fill="#E5E5E5" rx="3"/><rect width="12" height="6" x="44" y="54" fill="#FC6D26" rx="3"/><rect width="12" height="6" x="62" y="54" fill="#E5E5E5" rx="3"/><rect width="12" height="6" x="40" y="36" fill="#6B4FBB" rx="3"/><rect width="12" height="6" x="68" fill="#FC6D26" rx="3"/></g></g><g transform="translate(387.500000, 70.000000) rotate(-15.000000) translate(-387.500000, -70.000000) translate(369.000000, 49.000000)"><path fill="#6B4FBB" d="M30 12v-.5C30 5 25 0 18.5 0S7 5 7 11.5v.5h4v-.5c0-4 3.4-7.5 7.5-7.5 4 0 7.5 3.4 7.5 7.5v.5h4zM7 12h4v5H7zm19 0h4v5h-4z"/><use fill="#FFF" stroke="#B5A7DD" stroke-width="6" mask="url(#d)" xlink:href="#b"/><path fill="#6B4FBB" d="M20 28.7c1.2-.6 2-1.8 2-3.2 0-2-1.6-3.5-3.5-3.5-2 0-3.5 1.6-3.5 3.5 0 1.4.8 2.6 2 3.2v1.8c0 .8.7 1.5 1.5 1.5s1.5-.7 1.5-1.5v-1.8z"/></g></g></svg>
