<svg xmlns="http://www.w3.org/2000/svg" viewBox="751 198 390 298" xmlns:xlink="http://www.w3.org/1999/xlink"><defs><path id="a" d="M0 0h12v40H0z"/><mask id="g" width="12" height="40" x="0" y="0" fill="#fff"><use xlink:href="#a"/></mask><path id="b" d="M0 51l5-10.2c.6-1 1.4-1 2 0L12 51"/><mask id="h" width="12" height="10.9" x="0" y="0" fill="#fff"><use xlink:href="#b"/></mask><path id="c" d="M4 51h16v21H4z"/><mask id="i" width="16" height="21" x="0" y="0" fill="#fff"><use xlink:href="#c"/></mask><rect id="d" width="24" height="10" y="44" rx="3"/><mask id="j" width="24" height="10" x="0" y="0" fill="#fff"><use xlink:href="#d"/></mask><rect id="e" width="88" height="46" x="140" y="27" rx="3"/><mask id="k" width="88" height="46" x="0" y="0" fill="#fff"><use xlink:href="#e"/></mask><path id="f" d="M164 100.5c0-1.7 1.3-3 3-3h16c1.7 0 3 1.3 3 3v35c0 2.2-1.4 3-3.2 1.6l-7.8-5.5-7.8 5.6c-1.7 1.4-3.2.7-3.2-1.5v-35z"/><mask id="l" width="22" height="40.3" x="0" y="0" fill="#fff"><use xlink:href="#f"/></mask></defs><g fill="none" fill-rule="evenodd" transform="translate(754.000000, 201.000000)"><g transform="translate(271.291053, 55.109073) rotate(-345.000000) translate(-271.291053, -55.109073) translate(244.791053, 33.109073)"><rect width="53" height="44" fill="#FFF" stroke="#FDE5D8" stroke-width="3" stroke-linecap="round" rx="5"/><path fill="#FC6D26" d="M29.5 28.3l-2.8-4c-1-1.2-2.5-1.2-3.4 0l-6.6 9.3c-1 1.3-.4 2.4 1.3 2.4h23c1.7 0 2.2-1 1.3-2.4l-6.6-9.2c-1-1.3-2.5-1.3-3.4 0l-2.8 4z" opacity=".6"/><ellipse cx="16" cy="16" fill="#FC6D26" rx="6" ry="6"/></g><g transform="translate(142.804704, 36.064512) scale(-1, 1) rotate(25.000000) translate(-142.804704, -36.064512) translate(122.804704, 6.064512)"><rect width="3" height="11" x="12.4" y="23.4" fill="#6B4FBB" transform="translate(13.949747, 28.949747) rotate(-315.000000) translate(-13.949747, -28.949747)" rx="1.5"/><rect width="3" height="14" x="9.4" y="15.4" fill="#6B4FBB" transform="translate(10.949747, 22.449747) rotate(-315.000000) translate(-10.949747, -22.449747)" rx="1.5"/><path fill="#FFF" stroke="#B5A7DD" stroke-width="3" d="M26 39c8-2.5 14-10 14-19C40 9 31 0 20 0S0 9 0 20c0 9.7 7 17.7 16 19.6V55c0 2.8 2.2 5 5 5s5-2.2 5-5V39zm-6-7c6.6 0 12-5.4 12-12S26.6 8 20 8 8 13.4 8 20s5.4 12 12 12z"/></g><g transform="translate(43.946152, 82.083648) scale(-1, 1) rotate(-195.000000) translate(-43.946152, -82.083648) translate(37.946152, 56.583648)"><use stroke="#FDE5D8" stroke-width="6" mask="url(#g)" xlink:href="#a"/><rect width="2" height="27" x="5" y="7" fill="#FDA77D" opacity=".8" rx="1"/><use stroke="#FDE5D8" stroke-width="6" mask="url(#h)" transform="translate(6.000000, 45.526500) scale(1, -1) translate(-6.000000, -45.526500)" xlink:href="#b"/></g><g transform="translate(357.392305, 162.176915) rotate(-30.000000) translate(-357.392305, -162.176915) translate(345.392305, 126.176915)"><path fill="#FFF" stroke="#FDE5D8" stroke-width="3" d="M9 0h6v46H9z"/><use fill="#FFF" stroke="#FDE5D8" stroke-width="6" mask="url(#i)" xlink:href="#c"/><rect width="2" height="14" x="9" y="51" fill="#FDA77D" rx="1"/><rect width="2" height="14" x="13" y="51" fill="#FDA77D" rx="1"/><use fill="#FFF" stroke="#FDE5D8" stroke-width="6" mask="url(#j)" xlink:href="#d"/></g><g transform="translate(72.000000, 97.487965)"><rect width="125" height="160" fill="#FFF" stroke="#E5E5E5" stroke-width="4" stroke-linecap="round" rx="10"/><rect width="125" height="160" x="125" fill="#FFF" stroke="#E5E5E5" stroke-width="4" stroke-linecap="round" rx="10"/><path fill="#FFF" stroke="#E5E5E5" stroke-width="4" d="M7 12c0-3.3 2.7-6 6-6h112v148H13c-3.3 0-6-2.7-6-6V12zM243 12c0-3.3-2.7-6-6-6H125v148h112c3.3 0 6-2.7 6-6V12z" stroke-linecap="round"/><use stroke="#EEE" stroke-width="8" mask="url(#k)" xlink:href="#e"/><rect width="88" height="4" x="141" y="93" fill="#E5E5E5" rx="2"/><rect width="88" height="4" x="141" y="107" fill="#BFBFBF" rx="2"/><rect width="56" height="4" x="141" y="121" fill="#E5E5E5" rx="2"/><rect width="56" height="4" x="22" y="93" fill="#E5E5E5" rx="2"/><rect width="26" height="4" x="22" y="27" fill="#BFBFBF" rx="2"/><rect width="56" height="4" x="22" y="41" fill="#E5E5E5" rx="2"/><rect width="36" height="4" x="22" y="55" fill="#BFBFBF" rx="2"/><rect width="56" height="4" x="22" y="69" fill="#E5E5E5" rx="2"/><rect width="36" height="4" x="22" y="107" fill="#E5E5E5" rx="2"/><rect width="56" height="4" x="22" y="121" fill="#BFBFBF" rx="2"/></g><path stroke="#B5A7DD" stroke-width="2.5" d="M25.5 177.4l2.2-2-.4-1.3c-.2-1 .4-2 1.5-2.3l2-.5c1-.3 2 .3 2.3 1.4l.5 1.4c1 0 2 .2 2.8.5l1-1c.5-1 1.8-1.2 2.7-.6l1.6 1c1 .8 1 2 .4 3l-.8 1c.5 1 1 1.7 1.3 2.6H44c1 0 2 .8 2 2v2c0 1-.7 2-1.8 2h-1.5c-.2 1-.6 1.8-1 2.7l.8 1c.8 1 .7 2.2-.2 3l-1.5 1.2c-.8.7-2 .6-2.8-.2l-1-1-1.3.3-1.4.3-.3 1.4c-.2 1-1.3 1.8-2.4 1.6l-2-.4c-1-.2-1.7-1.3-1.5-2.4l.4-1.4c-1-.4-1.7-1-2.3-1.7l-1.2.8c-1 .5-2.2 0-2.7-.8l-1-1.8c-.4-1 0-2.2 1-2.7l1.2-.7c0-1-.2-2 0-3l-1.4-.5c-1-.4-1.5-1.6-1-2.6l.8-1.8c.4-1.2 1.6-1.6 2.6-1.2l1.3.6zM34 188c2.3-.7 3.5-3 3-5-.6-2.2-2.8-3.4-5-3-2 .7-3.4 3-2.8 5 .6 2.2 2.8 3.4 5 3z"/><ellipse cx="197" cy="290" fill="#F9F9F9" rx="125" ry="4.5"/><use fill="#FFF" stroke="#B5A7DD" stroke-width="8" mask="url(#l)" stroke-linejoin="round" xlink:href="#f"/><g opacity=".2"><path fill="#FC8A51" d="M5.7 234.8l-2.6 1c-1 .5-1.7 0-1.7-1v-3l-1-2.7c-.4-1 .2-1.7 1.2-1.7h3l2.6-1c1.2-.4 2 .2 2 1.2l-.2 3 1 2.6c.5 1.2 0 2-1 2l-3-.2zM191.6 38h-3.8c-1.3.2-2-.8-1.4-2l1.4-3.4-.2-3.8c0-1.3 1-2 2-1.4l3.6 1.4 3.7-.2c1.2 0 2 1 1.4 2l-1.4 3.6V38c.2 1.2-.8 2-2 1.4l-3.4-1.4z"/><path fill="#6B4FBB" d="M348.8 76l-2-2.3c-.7-.8-.5-1.7.6-2l2.8-1 2-2c1-.6 1.8-.4 2.2.7l.8 2.8 2 2c.8 1 .5 1.8-.5 2.2l-2.8.8-2.3 2c-.8.8-1.7.5-2-.5l-1-2.8zM358 240.6h-3c-1-.2-1.4-1-1-2l1.4-2.5v-3c.2-1 1-1.4 2-1l2.6 1.4h3c1 .2 1.5 1 1 2l-1.4 2.6v3c-.2 1-1 1.5-2 1l-2.5-1.4zM88.8 76l-2-2.3c-.7-.8-.5-1.7.6-2l2.8-1 2-2c1-.6 1.8-.4 2.2.7l.8 2.8 2 2c.8 1 .5 1.8-.5 2.2l-2.8.8-2.3 2c-.8.8-1.7.5-2-.5l-1-2.8z"/></g></g></svg>
