<?xml version="1.0" encoding="utf-8"?>
<!-- Generator: Adobe Illustrator 22.1.0, SVG Export Plug-In . SVG Version: 6.00 Build 0)  -->
<svg version="1.1" id="Layer_1" xmlns="http://www.w3.org/2000/svg" xmlns:xlink="http://www.w3.org/1999/xlink" x="0px" y="0px"
	 viewBox="0 0 440 428" style="enable-background:new 0 0 440 428;" xml:space="preserve">
<style type="text/css">
	.st0{fill:#C9E9F4;}
	.st1{fill:#67BBE2;}
	.st2{fill:#9BDDF8;}
	.st3{fill:#666666;}
	.st4{fill:#333333;}
	.st5{fill:#1E1E1E;}
	.st6{fill:#FFFFFF;}
	.st7{fill:#CCCCCC;}
	.st8{fill:#AAAAAA;}
</style>
<g>
	<path class="st0" d="M173.6,29.2H80.9c0,191.5,155.3,346.8,346.8,346.8v-92.7C287.3,283.2,173.6,169.5,173.6,29.2"/>
	<path class="st1" d="M427.7,189.6V29.1H267.2C267.2,117.7,339,189.6,427.7,189.6"/>
	<path class="st2" d="M267.2,29.1h-93.6c0,140.3,113.7,254.1,254,254.1v-93.6C339,189.6,267.2,117.7,267.2,29.1"/>
	<path class="st3" d="M427.2,29.6v376.6H50.6V29.6H427.2 M427.7,29.1H50.1v377.6h377.6V29.1z"/>
	<path class="st4" d="M88.2,21.6c0,0.6,0.2,1.2,0.6,1.6c0.4,0.4,1.1,0.6,2.1,0.6c0.9,0,1.6-0.2,2-0.6c0.4-0.4,0.7-0.9,0.7-1.5
		c0-0.6-0.2-1-0.6-1.3c-0.3-0.2-0.8-0.4-1.6-0.5l-0.7-0.2c-0.3-0.1-0.6-0.2-0.7-0.3c-0.3-0.2-0.4-0.4-0.4-0.7c0-0.3,0.1-0.5,0.3-0.6
		s0.5-0.2,0.9-0.2c0.6,0,1.1,0.1,1.3,0.4c0.2,0.2,0.2,0.4,0.3,0.7h1c0-0.4-0.1-0.8-0.4-1.2c-0.4-0.6-1.1-0.8-2.1-0.8
		c-0.7,0-1.3,0.2-1.8,0.6c-0.4,0.4-0.7,0.9-0.7,1.5c0,0.5,0.2,0.9,0.7,1.2c0.3,0.2,0.7,0.3,1.2,0.5l0.9,0.2c0.5,0.1,0.8,0.2,0.9,0.3
		c0.2,0.1,0.4,0.4,0.4,0.6c0,0.4-0.2,0.6-0.5,0.8c-0.3,0.2-0.7,0.3-1.1,0.3c-0.7,0-1.2-0.2-1.4-0.5c-0.2-0.2-0.2-0.5-0.3-0.8H88.2z
		 M84.5,23.6h1.1v-3.7c0-0.5,0.1-0.9,0.4-1.2c0.3-0.3,0.7-0.5,1.2-0.5l0.2,0l0.2,0v-1.1c-0.1,0-0.2,0-0.2,0l-0.1,0
		c-0.4,0-0.8,0.2-1.1,0.5c-0.3,0.3-0.5,0.6-0.6,0.8v-1.1h-1V23.6z M78.5,19.9c0-0.5,0.2-1,0.5-1.4s0.7-0.5,1.2-0.5
		c0.7,0,1.2,0.3,1.5,0.8c0.2,0.3,0.3,0.7,0.3,1.1H78.5z M80.3,17c-0.9,0-1.6,0.3-2.2,1c-0.6,0.6-0.8,1.5-0.8,2.5
		c0,1,0.3,1.9,0.8,2.4c0.6,0.6,1.2,0.9,2,0.9c0.3,0,0.6,0,0.9-0.1c0.5-0.1,0.9-0.3,1.2-0.6c0.2-0.2,0.4-0.4,0.5-0.7
		c0.2-0.3,0.3-0.6,0.3-0.8H82c-0.1,0.3-0.2,0.5-0.4,0.8c-0.3,0.4-0.8,0.6-1.3,0.6c-0.6,0-1-0.2-1.3-0.6c-0.3-0.4-0.4-0.9-0.5-1.6
		h4.7c0-0.6,0-1.1-0.1-1.4c-0.1-0.4-0.2-0.8-0.4-1.1c-0.2-0.3-0.5-0.6-1-0.8C81.2,17.1,80.8,17,80.3,17z M75,20.3
		c0,0.5-0.1,1-0.3,1.4c-0.3,0.7-0.9,1-1.6,1c-0.5,0-0.9-0.2-1.2-0.6c-0.3-0.4-0.4-0.9-0.4-1.6c0-0.6,0.1-1.1,0.2-1.5
		c0.3-0.7,0.8-1.1,1.5-1.1c0.5,0,0.9,0.2,1.2,0.6C74.9,19,75,19.6,75,20.3z M73.1,17.1c-0.7,0-1.4,0.3-1.9,0.9
		c-0.5,0.6-0.8,1.4-0.8,2.5c0,1.1,0.3,2,0.8,2.4c0.5,0.5,1.1,0.7,1.8,0.7c0.5,0,0.9-0.1,1.2-0.2c0.3-0.2,0.6-0.4,0.8-0.7
		c0,0.9-0.1,1.5-0.2,1.8c-0.3,0.6-0.8,0.9-1.6,0.9c-0.5,0-0.9-0.1-1.1-0.4c-0.2-0.2-0.3-0.4-0.3-0.7h-1.1c0.1,0.7,0.3,1.1,0.8,1.5
		c0.5,0.3,1,0.5,1.7,0.5c1.2,0,2.1-0.4,2.5-1.3c0.2-0.5,0.4-1.1,0.4-1.9v-5.8h-1V18c-0.2-0.3-0.4-0.5-0.6-0.6
		C74,17.2,73.6,17.1,73.1,17.1z M64,23.6h1.1v-3.4c0-0.4,0-0.7,0.1-1c0.1-0.2,0.2-0.4,0.4-0.7c0.2-0.3,0.5-0.4,0.8-0.5
		c0.2-0.1,0.4-0.1,0.6-0.1c0.5,0,0.8,0.2,1,0.6c0.1,0.2,0.2,0.6,0.2,0.9v4h1.1v-4.1c0-0.6-0.1-1.1-0.3-1.5c-0.3-0.6-0.9-1-1.8-1
		c-0.4,0-0.8,0.1-1.1,0.2c-0.3,0.2-0.7,0.4-1,0.8v-0.9h-1V23.6z M58,19.9c0-0.5,0.2-1,0.5-1.4s0.7-0.5,1.2-0.5
		c0.7,0,1.2,0.3,1.5,0.8c0.2,0.3,0.3,0.7,0.3,1.1H58z M59.9,17c-0.9,0-1.6,0.3-2.2,1c-0.6,0.6-0.8,1.5-0.8,2.5c0,1,0.3,1.9,0.8,2.4
		c0.6,0.6,1.2,0.9,2,0.9c0.3,0,0.6,0,0.9-0.1c0.5-0.1,0.9-0.3,1.2-0.6c0.2-0.2,0.4-0.4,0.5-0.7c0.2-0.3,0.3-0.6,0.3-0.8h-1.1
		c-0.1,0.3-0.2,0.5-0.4,0.8c-0.3,0.4-0.8,0.6-1.3,0.6c-0.6,0-1-0.2-1.3-0.6c-0.3-0.4-0.4-0.9-0.5-1.6h4.7c0-0.6,0-1.1-0.1-1.4
		c-0.1-0.4-0.2-0.8-0.4-1.1c-0.2-0.3-0.5-0.6-1-0.8C60.8,17.1,60.3,17,59.9,17z M54.5,23.6h1.1v-8.8h-1.1V23.6z M51.8,23.6h1.1v-8.8
		h-1.1V23.6z M46.7,19.9c-0.6,0.1-1.1,0.3-1.5,0.6c-0.4,0.3-0.6,0.8-0.6,1.4c0,0.5,0.2,1,0.6,1.4s0.9,0.5,1.5,0.5
		c0.5,0,0.9-0.1,1.4-0.3s0.7-0.5,0.9-0.7c0,0.3,0.1,0.5,0.2,0.6c0.2,0.3,0.4,0.4,0.8,0.4c0.2,0,0.3,0,0.4,0c0.1,0,0.2,0,0.4-0.1
		v-0.8l-0.2,0l-0.2,0c-0.1,0-0.2,0-0.3-0.1S50,22.6,50,22.5v-3.7c0-0.6-0.2-1.1-0.7-1.3c-0.5-0.3-1.1-0.4-1.8-0.4
		c-0.6,0-1.2,0.2-1.7,0.5c-0.5,0.3-0.7,0.9-0.8,1.7h1c0-0.3,0.1-0.6,0.3-0.8c0.2-0.3,0.6-0.5,1.2-0.5c0.5,0,0.9,0.1,1.1,0.2
		c0.3,0.2,0.4,0.4,0.4,0.8c0,0.2,0,0.3-0.1,0.4c-0.1,0.2-0.2,0.3-0.5,0.3L46.7,19.9z M45.8,21.9c0-0.4,0.2-0.7,0.5-0.9
		c0.2-0.1,0.5-0.2,0.9-0.2l0.7-0.1c0.2,0,0.4-0.1,0.6-0.1c0.2-0.1,0.4-0.1,0.5-0.2v0.9c0,0.7-0.3,1.1-0.9,1.4
		c-0.4,0.2-0.7,0.3-1.1,0.3c-0.3,0-0.6-0.1-0.8-0.3C45.9,22.4,45.8,22.2,45.8,21.9z M38.2,23.6h1.1v-3.4c0-0.9,0.2-1.4,0.5-1.7
		c0.4-0.3,0.8-0.5,1.2-0.5c0.5,0,0.9,0.2,1.1,0.5c0.1,0.2,0.2,0.6,0.2,1v4h1.1v-4.1c0-0.6-0.1-1.1-0.3-1.5c-0.3-0.6-1-1-1.9-1
		c-0.5,0-1,0.1-1.3,0.3c-0.2,0.1-0.4,0.4-0.7,0.7v-3.3h-1.1V23.6z M33.1,14.5c-1.3,0-2.3,0.5-3,1.4c-0.7,0.8-1,1.9-1,3.2
		c0,1.7,0.5,3,1.4,3.8c0.7,0.6,1.5,0.9,2.5,0.9c1.2,0,2.1-0.4,2.8-1.1c0.6-0.6,0.9-1.4,1-2.3h-1.2c-0.1,0.6-0.3,1-0.5,1.4
		c-0.5,0.7-1.1,1-2,1c-0.9,0-1.6-0.3-2.1-1c-0.5-0.6-0.7-1.5-0.7-2.5c0-1.3,0.3-2.2,0.8-2.8c0.5-0.6,1.2-0.9,2.1-0.9
		c0.7,0,1.2,0.2,1.6,0.5c0.4,0.3,0.6,0.8,0.8,1.3h1.2c-0.1-0.7-0.4-1.4-1-2S34.2,14.5,33.1,14.5z"/>
	<path class="st4" d="M167.2,21.6c0,0.6,0.2,1.2,0.6,1.6c0.4,0.4,1.1,0.6,2.1,0.6c0.9,0,1.6-0.2,2-0.6c0.4-0.4,0.7-0.9,0.7-1.5
		c0-0.6-0.2-1-0.6-1.3c-0.3-0.2-0.8-0.4-1.6-0.5l-0.7-0.2c-0.3-0.1-0.6-0.2-0.7-0.3c-0.3-0.2-0.4-0.4-0.4-0.7c0-0.3,0.1-0.5,0.3-0.6
		s0.5-0.2,0.9-0.2c0.6,0,1.1,0.1,1.3,0.4c0.2,0.2,0.2,0.4,0.3,0.7h1c0-0.4-0.1-0.8-0.4-1.2c-0.4-0.6-1.1-0.8-2.1-0.8
		c-0.7,0-1.3,0.2-1.8,0.6c-0.4,0.4-0.7,0.9-0.7,1.5c0,0.5,0.2,0.9,0.7,1.2c0.3,0.2,0.7,0.3,1.2,0.5l0.9,0.2c0.5,0.1,0.8,0.2,0.9,0.3
		c0.2,0.1,0.4,0.4,0.4,0.6c0,0.4-0.2,0.6-0.5,0.8c-0.3,0.2-0.7,0.3-1.1,0.3c-0.7,0-1.2-0.2-1.4-0.5c-0.2-0.2-0.2-0.5-0.3-0.8H167.2z
		 M163.6,23.6h1.1v-3.7c0-0.5,0.1-0.9,0.4-1.2c0.3-0.3,0.7-0.5,1.2-0.5l0.2,0l0.2,0v-1.1c-0.1,0-0.2,0-0.2,0l-0.1,0
		c-0.4,0-0.8,0.2-1.1,0.5c-0.3,0.3-0.5,0.6-0.6,0.8v-1.1h-1V23.6z M157.5,19.9c0-0.5,0.2-1,0.5-1.4s0.7-0.5,1.2-0.5
		c0.7,0,1.2,0.3,1.5,0.8c0.2,0.3,0.3,0.7,0.3,1.1H157.5z M159.4,17c-0.9,0-1.6,0.3-2.2,1c-0.6,0.6-0.8,1.5-0.8,2.5
		c0,1,0.3,1.9,0.8,2.4c0.6,0.6,1.2,0.9,2,0.9c0.3,0,0.6,0,0.9-0.1c0.5-0.1,0.9-0.3,1.2-0.6c0.2-0.2,0.4-0.4,0.5-0.7
		c0.2-0.3,0.3-0.6,0.3-0.8H161c-0.1,0.3-0.2,0.5-0.4,0.8c-0.3,0.4-0.8,0.6-1.3,0.6c-0.6,0-1-0.2-1.3-0.6c-0.3-0.4-0.4-0.9-0.5-1.6
		h4.7c0-0.6,0-1.1-0.1-1.4c-0.1-0.4-0.2-0.8-0.4-1.1c-0.2-0.3-0.5-0.6-1-0.8C160.2,17.1,159.8,17,159.4,17z M152.2,17.1
		c-0.9,0-1.6,0.3-2,1c-0.5,0.7-0.7,1.5-0.7,2.4c0,1,0.3,1.8,0.8,2.4c0.5,0.6,1.1,0.9,1.8,0.9c0.4,0,0.8-0.1,1.2-0.3
		c0.3-0.2,0.6-0.5,0.9-0.9v0.9h1v-8.8h-1V18c-0.2-0.3-0.5-0.5-0.6-0.6C153.1,17.2,152.7,17.1,152.2,17.1z M150.6,20.4
		c0-0.8,0.2-1.4,0.5-1.8c0.3-0.4,0.8-0.6,1.3-0.6c0.5,0,0.9,0.2,1.2,0.6c0.3,0.4,0.5,1,0.5,1.8c0,0.8-0.2,1.4-0.5,1.8
		s-0.7,0.6-1.2,0.6c-0.6,0-1.1-0.2-1.4-0.7C150.7,21.7,150.6,21.1,150.6,20.4z M143.1,23.6h1.1v-3.4c0-0.4,0-0.7,0.1-1
		c0.1-0.2,0.2-0.4,0.4-0.7c0.2-0.3,0.5-0.4,0.8-0.5c0.2-0.1,0.4-0.1,0.6-0.1c0.5,0,0.8,0.2,1,0.6c0.1,0.2,0.2,0.6,0.2,0.9v4h1.1
		v-4.1c0-0.6-0.1-1.1-0.3-1.5c-0.3-0.6-0.9-1-1.8-1c-0.4,0-0.8,0.1-1.1,0.2c-0.3,0.2-0.7,0.4-1,0.8v-0.9h-1V23.6z M137.1,19.9
		c0-0.5,0.2-1,0.5-1.4s0.7-0.5,1.2-0.5c0.7,0,1.2,0.3,1.5,0.8c0.2,0.3,0.3,0.7,0.3,1.1H137.1z M138.9,17c-0.9,0-1.6,0.3-2.2,1
		c-0.6,0.6-0.8,1.5-0.8,2.5c0,1,0.3,1.9,0.8,2.4c0.6,0.6,1.2,0.9,2,0.9c0.3,0,0.6,0,0.9-0.1c0.5-0.1,0.9-0.3,1.2-0.6
		c0.2-0.2,0.4-0.4,0.5-0.7c0.2-0.3,0.3-0.6,0.3-0.8h-1.1c-0.1,0.3-0.2,0.5-0.4,0.8c-0.3,0.4-0.8,0.6-1.3,0.6c-0.6,0-1-0.2-1.3-0.6
		c-0.3-0.4-0.4-0.9-0.5-1.6h4.7c0-0.6,0-1.1-0.1-1.4c-0.1-0.4-0.2-0.8-0.4-1.1c-0.2-0.3-0.5-0.6-1-0.8C139.8,17.1,139.4,17,138.9,17
		z M133.1,17.2h-0.9V18h0.9v4.2c0,0.4,0.1,0.7,0.3,1c0.2,0.3,0.5,0.4,1,0.4c0.2,0,0.3,0,0.4,0c0.1,0,0.3,0,0.4-0.1v-0.9l-0.2,0
		l-0.2,0c-0.2,0-0.3,0-0.4-0.1c-0.2-0.1-0.2-0.2-0.2-0.4V18h1v-0.9h-1v-1.8h-1.1V17.2z M126.1,23.6h1.1v-3.4c0-0.4,0-0.7,0.1-1
		c0.1-0.2,0.2-0.4,0.4-0.7c0.2-0.3,0.5-0.4,0.8-0.5c0.2-0.1,0.4-0.1,0.6-0.1c0.5,0,0.8,0.2,1,0.6c0.1,0.2,0.2,0.6,0.2,0.9v4h1.1
		v-4.1c0-0.6-0.1-1.1-0.3-1.5c-0.3-0.6-0.9-1-1.8-1c-0.4,0-0.8,0.1-1.1,0.2c-0.3,0.2-0.7,0.4-1,0.8v-0.9h-1V23.6z M121.8,17
		c-0.9,0-1.6,0.3-2.2,1c-0.5,0.6-0.8,1.5-0.8,2.6c0,1,0.3,1.8,0.8,2.4s1.2,0.9,2.1,0.9c1,0,1.8-0.3,2.3-1c0.5-0.7,0.7-1.5,0.7-2.6
		c0-1.1-0.3-1.9-0.8-2.4S122.6,17,121.8,17z M121.8,22.9c-0.6,0-1.1-0.2-1.4-0.7c-0.3-0.5-0.4-1-0.4-1.7c0-0.7,0.1-1.3,0.4-1.8
		c0.3-0.5,0.8-0.8,1.4-0.8c0.7,0,1.2,0.3,1.5,0.9c0.2,0.4,0.3,0.9,0.3,1.5c0,0.7-0.1,1.3-0.4,1.8C123,22.6,122.5,22.9,121.8,22.9z
		 M114.2,14.5c-1.3,0-2.3,0.5-3,1.4c-0.7,0.8-1,1.9-1,3.2c0,1.7,0.5,3,1.4,3.8c0.7,0.6,1.5,0.9,2.5,0.9c1.2,0,2.1-0.4,2.8-1.1
		c0.6-0.6,0.9-1.4,1-2.3h-1.2c-0.1,0.6-0.3,1-0.5,1.4c-0.5,0.7-1.1,1-2,1c-0.9,0-1.6-0.3-2.1-1c-0.5-0.6-0.7-1.5-0.7-2.5
		c0-1.3,0.3-2.2,0.8-2.8c0.5-0.6,1.2-0.9,2.1-0.9c0.7,0,1.2,0.2,1.6,0.5c0.4,0.3,0.6,0.8,0.8,1.3h1.2c-0.1-0.7-0.4-1.4-1-2
		S115.3,14.5,114.2,14.5z"/>
	<path class="st4" d="M364,21.6c0,0.6,0.2,1.2,0.6,1.6c0.4,0.4,1.1,0.6,2.1,0.6c0.9,0,1.6-0.2,2-0.6c0.4-0.4,0.7-0.9,0.7-1.5
		c0-0.6-0.2-1-0.6-1.3c-0.3-0.2-0.8-0.4-1.6-0.5l-0.7-0.2c-0.3-0.1-0.6-0.2-0.7-0.3c-0.3-0.2-0.4-0.4-0.4-0.7c0-0.3,0.1-0.5,0.3-0.6
		s0.5-0.2,0.9-0.2c0.6,0,1.1,0.1,1.3,0.4c0.2,0.2,0.2,0.4,0.3,0.7h1c0-0.4-0.1-0.8-0.4-1.2c-0.4-0.6-1.1-0.8-2.1-0.8
		c-0.7,0-1.3,0.2-1.8,0.6c-0.4,0.4-0.7,0.9-0.7,1.5c0,0.5,0.2,0.9,0.7,1.2c0.3,0.2,0.7,0.3,1.2,0.5l0.9,0.2c0.5,0.1,0.8,0.2,0.9,0.3
		c0.2,0.1,0.4,0.4,0.4,0.6c0,0.4-0.2,0.6-0.5,0.8c-0.3,0.2-0.7,0.3-1.1,0.3c-0.7,0-1.2-0.2-1.4-0.5c-0.2-0.2-0.2-0.5-0.3-0.8H364z
		 M360.3,23.6h1.1v-3.7c0-0.5,0.1-0.9,0.4-1.2c0.3-0.3,0.7-0.5,1.2-0.5l0.2,0l0.2,0v-1.1c-0.1,0-0.2,0-0.2,0l-0.1,0
		c-0.4,0-0.8,0.2-1.1,0.5c-0.3,0.3-0.5,0.6-0.6,0.8v-1.1h-1V23.6z M354.3,19.9c0-0.5,0.2-1,0.5-1.4s0.7-0.5,1.2-0.5
		c0.7,0,1.2,0.3,1.5,0.8c0.2,0.3,0.3,0.7,0.3,1.1H354.3z M356.1,17c-0.9,0-1.6,0.3-2.2,1c-0.6,0.6-0.8,1.5-0.8,2.5
		c0,1,0.3,1.9,0.8,2.4c0.6,0.6,1.2,0.9,2,0.9c0.3,0,0.6,0,0.9-0.1c0.5-0.1,0.9-0.3,1.2-0.6c0.2-0.2,0.4-0.4,0.5-0.7
		c0.2-0.3,0.3-0.6,0.3-0.8h-1.1c-0.1,0.3-0.2,0.5-0.4,0.8c-0.3,0.4-0.8,0.6-1.3,0.6c-0.6,0-1-0.2-1.3-0.6c-0.3-0.4-0.4-0.9-0.5-1.6
		h4.7c0-0.6,0-1.1-0.1-1.4c-0.1-0.4-0.2-0.8-0.4-1.1c-0.2-0.3-0.5-0.6-1-0.8C357,17.1,356.6,17,356.1,17z M348.9,17.1
		c-0.9,0-1.6,0.3-2,1c-0.5,0.7-0.7,1.5-0.7,2.4c0,1,0.3,1.8,0.8,2.4c0.5,0.6,1.1,0.9,1.8,0.9c0.4,0,0.8-0.1,1.2-0.3
		c0.3-0.2,0.6-0.5,0.9-0.9v0.9h1v-8.8h-1V18c-0.2-0.3-0.5-0.5-0.6-0.6C349.8,17.2,349.4,17.1,348.9,17.1z M347.3,20.4
		c0-0.8,0.2-1.4,0.5-1.8c0.3-0.4,0.8-0.6,1.3-0.6c0.5,0,0.9,0.2,1.2,0.6c0.3,0.4,0.5,1,0.5,1.8c0,0.8-0.2,1.4-0.5,1.8
		s-0.7,0.6-1.2,0.6c-0.6,0-1.1-0.2-1.4-0.7C347.5,21.7,347.3,21.1,347.3,20.4z M341.6,19.9c-0.6,0.1-1.1,0.3-1.5,0.6
		c-0.4,0.3-0.6,0.8-0.6,1.4c0,0.5,0.2,1,0.6,1.4s0.9,0.5,1.5,0.5c0.5,0,0.9-0.1,1.4-0.3s0.7-0.5,0.9-0.7c0,0.3,0.1,0.5,0.2,0.6
		c0.2,0.3,0.4,0.4,0.8,0.4c0.2,0,0.3,0,0.4,0c0.1,0,0.2,0,0.4-0.1v-0.8l-0.2,0l-0.2,0c-0.1,0-0.2,0-0.3-0.1s-0.1-0.2-0.1-0.3v-3.7
		c0-0.6-0.2-1.1-0.7-1.3c-0.5-0.3-1.1-0.4-1.8-0.4c-0.6,0-1.2,0.2-1.7,0.5c-0.5,0.3-0.7,0.9-0.8,1.7h1c0-0.3,0.1-0.6,0.3-0.8
		c0.2-0.3,0.6-0.5,1.2-0.5c0.5,0,0.9,0.1,1.1,0.2c0.3,0.2,0.4,0.4,0.4,0.8c0,0.2,0,0.3-0.1,0.4c-0.1,0.2-0.2,0.3-0.5,0.3L341.6,19.9
		z M340.7,21.9c0-0.4,0.2-0.7,0.5-0.9c0.2-0.1,0.5-0.2,0.9-0.2l0.7-0.1c0.2,0,0.4-0.1,0.6-0.1c0.2-0.1,0.4-0.1,0.5-0.2v0.9
		c0,0.7-0.3,1.1-0.9,1.4c-0.4,0.2-0.7,0.3-1.1,0.3c-0.3,0-0.6-0.1-0.8-0.3C340.8,22.4,340.7,22.2,340.7,21.9z M333.8,19.9
		c0-0.5,0.2-1,0.5-1.4s0.7-0.5,1.2-0.5c0.7,0,1.2,0.3,1.5,0.8c0.2,0.3,0.3,0.7,0.3,1.1H333.8z M335.7,17c-0.9,0-1.6,0.3-2.2,1
		c-0.6,0.6-0.8,1.5-0.8,2.5c0,1,0.3,1.9,0.8,2.4c0.6,0.6,1.2,0.9,2,0.9c0.3,0,0.6,0,0.9-0.1c0.5-0.1,0.9-0.3,1.2-0.6
		c0.2-0.2,0.4-0.4,0.5-0.7c0.2-0.3,0.3-0.6,0.3-0.8h-1.1c-0.1,0.3-0.2,0.5-0.4,0.8c-0.3,0.4-0.8,0.6-1.3,0.6c-0.6,0-1-0.2-1.3-0.6
		c-0.3-0.4-0.4-0.9-0.5-1.6h4.7c0-0.6,0-1.1-0.1-1.4c-0.1-0.4-0.2-0.8-0.4-1.1c-0.2-0.3-0.5-0.6-1-0.8C336.6,17.1,336.1,17,335.7,17
		z M326.4,23.6h5.6v-1h-4.4v-7.7h-1.2V23.6z"/>
	<path class="st4" d="M236.3,6.3c0,0.5-0.1,1-0.3,1.4c-0.3,0.7-0.9,1-1.6,1c-0.5,0-0.9-0.2-1.2-0.6c-0.3-0.4-0.4-0.9-0.4-1.6
		c0-0.6,0.1-1.1,0.2-1.5c0.3-0.7,0.8-1.1,1.5-1.1c0.5,0,0.9,0.2,1.2,0.6C236.1,5,236.3,5.6,236.3,6.3z M234.3,3.1
		c-0.7,0-1.4,0.3-1.9,0.9c-0.5,0.6-0.8,1.4-0.8,2.5c0,1.1,0.3,2,0.8,2.4c0.5,0.5,1.1,0.7,1.8,0.7c0.5,0,0.9-0.1,1.2-0.2
		c0.3-0.2,0.6-0.4,0.8-0.7c0,0.9-0.1,1.5-0.2,1.8c-0.3,0.6-0.8,0.9-1.6,0.9c-0.5,0-0.9-0.1-1.1-0.4c-0.2-0.2-0.3-0.4-0.3-0.7h-1.1
		c0.1,0.7,0.3,1.1,0.8,1.5c0.5,0.3,1,0.5,1.7,0.5c1.2,0,2.1-0.4,2.5-1.3c0.2-0.5,0.4-1.1,0.4-1.9V3.2h-1V4c-0.2-0.3-0.4-0.5-0.6-0.6
		C235.3,3.2,234.8,3.1,234.3,3.1z M225.3,9.6h1.1V6.2c0-0.4,0-0.7,0.1-1c0.1-0.2,0.2-0.4,0.4-0.7c0.2-0.3,0.5-0.4,0.8-0.5
		c0.2-0.1,0.4-0.1,0.6-0.1c0.5,0,0.8,0.2,1,0.6c0.1,0.2,0.2,0.6,0.2,0.9v4h1.1V5.5c0-0.6-0.1-1.1-0.3-1.5c-0.3-0.6-0.9-1-1.8-1
		c-0.4,0-0.8,0.1-1.1,0.2c-0.3,0.2-0.7,0.4-1,0.8V3.2h-1V9.6z M221,3c-0.9,0-1.6,0.3-2.2,1c-0.5,0.6-0.8,1.5-0.8,2.6
		c0,1,0.3,1.8,0.8,2.4s1.2,0.9,2.1,0.9c1,0,1.8-0.3,2.3-1c0.5-0.7,0.7-1.5,0.7-2.6c0-1.1-0.3-1.9-0.8-2.4S221.9,3,221,3z M221,8.9
		c-0.6,0-1.1-0.2-1.4-0.7c-0.3-0.5-0.4-1-0.4-1.7c0-0.7,0.1-1.3,0.4-1.8c0.3-0.5,0.8-0.8,1.4-0.8c0.7,0,1.2,0.3,1.5,0.9
		c0.2,0.4,0.3,0.9,0.3,1.5c0,0.7-0.1,1.3-0.4,1.8C222.2,8.6,221.7,8.9,221,8.9z M214.4,9.6h1.1V5.9c0-0.5,0.1-0.9,0.4-1.2
		c0.3-0.3,0.7-0.5,1.2-0.5l0.2,0l0.2,0V3.1c-0.1,0-0.2,0-0.2,0l-0.1,0c-0.4,0-0.8,0.2-1.1,0.5c-0.3,0.3-0.5,0.6-0.6,0.8V3.2h-1V9.6z
		 M211.2,3.2h-0.9V4h0.9v4.2c0,0.4,0.1,0.7,0.3,1c0.2,0.3,0.5,0.4,1,0.4c0.2,0,0.3,0,0.4,0c0.1,0,0.3,0,0.4-0.1V8.7l-0.2,0l-0.2,0
		c-0.2,0-0.3,0-0.4-0.1c-0.2-0.1-0.2-0.2-0.2-0.4V4h1V3.2h-1V1.4h-1.1V3.2z M202.6,6.7c0,0.9,0.3,1.7,0.9,2.3
		c0.6,0.6,1.4,0.8,2.5,0.8c0.9,0,1.7-0.2,2.4-0.6c0.7-0.4,1-1.1,1-2.1c0-0.8-0.3-1.4-0.8-1.8c-0.3-0.2-0.8-0.4-1.3-0.6l-1.2-0.3
		c-0.8-0.2-1.3-0.4-1.5-0.5c-0.3-0.2-0.5-0.5-0.5-0.9c0-0.4,0.1-0.7,0.4-1c0.3-0.3,0.8-0.4,1.5-0.4c0.8,0,1.4,0.2,1.8,0.7
		c0.2,0.3,0.3,0.6,0.4,1.1h1.1c0-1-0.3-1.7-0.9-2.1c-0.6-0.4-1.4-0.7-2.3-0.7c-1,0-1.7,0.3-2.3,0.8c-0.5,0.5-0.8,1.2-0.8,1.9
		c0,0.7,0.3,1.3,0.8,1.6c0.3,0.2,0.8,0.4,1.6,0.6l1.2,0.3c0.6,0.1,1.1,0.3,1.4,0.5c0.3,0.2,0.4,0.5,0.4,1c0,0.6-0.3,1.1-1,1.3
		c-0.4,0.1-0.7,0.2-1.2,0.2c-1,0-1.6-0.3-2-0.9c-0.2-0.3-0.3-0.7-0.3-1.2H202.6z"/>
	<path class="st4" d="M245,21.6c0,0.6,0.2,1.2,0.6,1.6c0.4,0.4,1.1,0.6,2.1,0.6c0.9,0,1.6-0.2,2-0.6c0.4-0.4,0.7-0.9,0.7-1.5
		c0-0.6-0.2-1-0.6-1.3c-0.3-0.2-0.8-0.4-1.6-0.5l-0.7-0.2c-0.3-0.1-0.6-0.2-0.7-0.3c-0.3-0.2-0.4-0.4-0.4-0.7c0-0.3,0.1-0.5,0.3-0.6
		s0.5-0.2,0.9-0.2c0.6,0,1.1,0.1,1.3,0.4c0.2,0.2,0.2,0.4,0.3,0.7h1c0-0.4-0.1-0.8-0.4-1.2c-0.4-0.6-1.1-0.8-2.1-0.8
		c-0.7,0-1.3,0.2-1.8,0.6c-0.4,0.4-0.7,0.9-0.7,1.5c0,0.5,0.2,0.9,0.7,1.2c0.3,0.2,0.7,0.3,1.2,0.5l0.9,0.2c0.5,0.1,0.8,0.2,0.9,0.3
		c0.2,0.1,0.4,0.4,0.4,0.6c0,0.4-0.2,0.6-0.5,0.8c-0.3,0.2-0.7,0.3-1.1,0.3c-0.7,0-1.2-0.2-1.4-0.5c-0.2-0.2-0.2-0.5-0.3-0.8H245z
		 M241.3,23.6h1.1v-3.7c0-0.5,0.1-0.9,0.4-1.2c0.3-0.3,0.7-0.5,1.2-0.5l0.2,0l0.2,0v-1.1c-0.1,0-0.2,0-0.2,0l-0.1,0
		c-0.4,0-0.8,0.2-1.1,0.5c-0.3,0.3-0.5,0.6-0.6,0.8v-1.1h-1V23.6z M235.3,19.9c0-0.5,0.2-1,0.5-1.4s0.7-0.5,1.2-0.5
		c0.7,0,1.2,0.3,1.5,0.8c0.2,0.3,0.3,0.7,0.3,1.1H235.3z M237.1,17c-0.9,0-1.6,0.3-2.2,1c-0.6,0.6-0.8,1.5-0.8,2.5
		c0,1,0.3,1.9,0.8,2.4c0.6,0.6,1.2,0.9,2,0.9c0.3,0,0.6,0,0.9-0.1c0.5-0.1,0.9-0.3,1.2-0.6c0.2-0.2,0.4-0.4,0.5-0.7
		c0.2-0.3,0.3-0.6,0.3-0.8h-1.1c-0.1,0.3-0.2,0.5-0.4,0.8c-0.3,0.4-0.8,0.6-1.3,0.6c-0.6,0-1-0.2-1.3-0.6c-0.3-0.4-0.4-0.9-0.5-1.6
		h4.7c0-0.6,0-1.1-0.1-1.4c-0.1-0.4-0.2-0.8-0.4-1.1c-0.2-0.3-0.5-0.6-1-0.8C238,17.1,237.6,17,237.1,17z M224.3,23.6h1.1v-3.4
		c0-0.8,0.2-1.4,0.5-1.7c0.3-0.3,0.7-0.5,1.1-0.5c0.4,0,0.8,0.1,0.9,0.4c0.1,0.2,0.2,0.5,0.2,1v4.2h1.1v-3.7c0-0.7,0.2-1.1,0.5-1.4
		c0.3-0.3,0.7-0.4,1.1-0.4c0.3,0,0.6,0.1,0.8,0.2c0.2,0.2,0.3,0.5,0.3,0.9v4.5h1.1v-4.3c0-0.6-0.1-1-0.3-1.4
		c-0.3-0.6-0.9-0.9-1.8-0.9c-0.4,0-0.8,0.1-1.1,0.2c-0.3,0.2-0.6,0.4-0.8,0.8c-0.1-0.3-0.3-0.5-0.5-0.6c-0.3-0.3-0.7-0.4-1.2-0.4
		c-0.5,0-0.9,0.1-1.2,0.4c-0.2,0.1-0.4,0.4-0.7,0.7v-0.9h-1.1V23.6z M220.2,23.6h1.1v-3.7c0-0.5,0.1-0.9,0.4-1.2
		c0.3-0.3,0.7-0.5,1.2-0.5l0.2,0l0.2,0v-1.1c-0.1,0-0.2,0-0.2,0l-0.1,0c-0.4,0-0.8,0.2-1.1,0.5c-0.3,0.3-0.5,0.6-0.6,0.8v-1.1h-1
		V23.6z M215.9,17c-0.9,0-1.6,0.3-2.2,1c-0.5,0.6-0.8,1.5-0.8,2.6c0,1,0.3,1.8,0.8,2.4s1.2,0.9,2.1,0.9c1,0,1.8-0.3,2.3-1
		c0.5-0.7,0.7-1.5,0.7-2.6c0-1.1-0.3-1.9-0.8-2.4S216.8,17,215.9,17z M215.9,22.9c-0.6,0-1.1-0.2-1.4-0.7c-0.3-0.5-0.4-1-0.4-1.7
		c0-0.7,0.1-1.3,0.4-1.8c0.3-0.5,0.8-0.8,1.4-0.8c0.7,0,1.2,0.3,1.5,0.9c0.2,0.4,0.3,0.9,0.3,1.5c0,0.7-0.1,1.3-0.4,1.8
		C217.1,22.6,216.6,22.9,215.9,22.9z M210.2,16.2v1h-0.9V18h0.9v5.5h1.1V18h1.1v-0.8h-1.1c0-0.7,0-1.1,0.1-1.3
		c0.1-0.2,0.3-0.3,0.6-0.3l0.1,0c0.1,0,0.1,0,0.2,0v-1c-0.1,0-0.2,0-0.2,0l-0.2,0c-0.7,0-1.2,0.2-1.5,0.5
		C210.3,15.4,210.3,15.7,210.2,16.2z M205.9,23.6h1.1v-3.7c0-0.5,0.1-0.9,0.4-1.2c0.3-0.3,0.7-0.5,1.2-0.5l0.2,0l0.2,0v-1.1
		c-0.1,0-0.2,0-0.2,0l-0.1,0c-0.4,0-0.8,0.2-1.1,0.5c-0.3,0.3-0.5,0.6-0.6,0.8v-1.1h-1V23.6z M199.9,19.9c0-0.5,0.2-1,0.5-1.4
		s0.7-0.5,1.2-0.5c0.7,0,1.2,0.3,1.5,0.8c0.2,0.3,0.3,0.7,0.3,1.1H199.9z M201.7,17c-0.9,0-1.6,0.3-2.2,1c-0.6,0.6-0.8,1.5-0.8,2.5
		c0,1,0.3,1.9,0.8,2.4c0.6,0.6,1.2,0.9,2,0.9c0.3,0,0.6,0,0.9-0.1c0.5-0.1,0.9-0.3,1.2-0.6c0.2-0.2,0.4-0.4,0.5-0.7
		c0.2-0.3,0.3-0.6,0.3-0.8h-1.1c-0.1,0.3-0.2,0.5-0.4,0.8c-0.3,0.4-0.8,0.6-1.3,0.6c-0.6,0-1-0.2-1.3-0.6c-0.3-0.4-0.4-0.9-0.5-1.6
		h4.7c0-0.6,0-1.1-0.1-1.4c-0.1-0.4-0.2-0.8-0.4-1.1c-0.2-0.3-0.5-0.6-1-0.8C202.6,17.1,202.2,17,201.7,17z M196.5,17.3
		c0,0.6-0.2,1-0.5,1.2c-0.3,0.2-0.8,0.3-1.3,0.3h-2.4v-3h2.4c0.5,0,0.8,0.1,1.1,0.2C196.3,16.2,196.5,16.7,196.5,17.3z M191.2,23.6
		h1.2v-3.7h2.7c0.9,0,1.5-0.3,2-0.8c0.4-0.5,0.6-1.1,0.6-1.8c0-0.8-0.2-1.4-0.7-1.9c-0.5-0.4-1.1-0.7-1.9-0.7h-3.9V23.6z"/>
	<path class="st4" d="M258.4,423.8l-1.7-5.2h-1.2l2.4,6.6c-0.1,0.1-0.1,0.4-0.3,0.7c-0.1,0.3-0.2,0.5-0.2,0.5
		c-0.1,0.1-0.1,0.2-0.2,0.2c-0.1,0.1-0.2,0.1-0.4,0.1l-0.2,0c-0.1,0-0.2,0-0.4-0.1v1c0.1,0,0.2,0.1,0.3,0.1c0.1,0,0.2,0,0.3,0
		c0.6,0,1.1-0.2,1.3-0.5c0.3-0.4,0.7-1.4,1.3-3c0.3-0.7,0.6-1.6,1-2.7c0.5-1.5,0.9-2.4,1-2.8h-1.2L258.4,423.8z M253.5,421.7
		c0,0.5-0.1,1-0.3,1.4c-0.3,0.7-0.9,1-1.6,1c-0.5,0-0.9-0.2-1.2-0.6c-0.3-0.4-0.4-0.9-0.4-1.6c0-0.6,0.1-1.1,0.2-1.5
		c0.3-0.7,0.8-1.1,1.5-1.1c0.5,0,0.9,0.2,1.2,0.6C253.3,420.3,253.5,420.9,253.5,421.7z M251.6,418.4c-0.7,0-1.4,0.3-1.9,0.9
		c-0.5,0.6-0.8,1.4-0.8,2.5c0,1.1,0.3,2,0.8,2.4c0.5,0.5,1.1,0.7,1.8,0.7c0.5,0,0.9-0.1,1.2-0.2c0.3-0.2,0.6-0.4,0.8-0.7
		c0,0.9-0.1,1.5-0.2,1.8c-0.3,0.6-0.8,0.9-1.6,0.9c-0.5,0-0.9-0.1-1.1-0.4c-0.2-0.2-0.3-0.4-0.3-0.7h-1.1c0.1,0.7,0.3,1.1,0.8,1.5
		c0.5,0.3,1,0.5,1.7,0.5c1.2,0,2.1-0.4,2.5-1.3c0.2-0.5,0.4-1.1,0.4-1.9v-5.8h-1v0.8c-0.2-0.3-0.4-0.5-0.6-0.6
		C252.5,418.6,252.1,418.4,251.6,418.4z M243.3,421.2c0-0.5,0.2-1,0.5-1.4s0.7-0.5,1.2-0.5c0.7,0,1.2,0.3,1.5,0.8
		c0.2,0.3,0.3,0.7,0.3,1.1H243.3z M245.2,418.4c-0.9,0-1.6,0.3-2.2,1c-0.6,0.6-0.8,1.5-0.8,2.5c0,1,0.3,1.9,0.8,2.4
		c0.6,0.6,1.2,0.9,2,0.9c0.3,0,0.6,0,0.9-0.1c0.5-0.1,0.9-0.3,1.2-0.6c0.2-0.2,0.4-0.4,0.5-0.7c0.2-0.3,0.3-0.6,0.3-0.8h-1.1
		c-0.1,0.3-0.2,0.5-0.4,0.8c-0.3,0.4-0.8,0.6-1.3,0.6c-0.6,0-1-0.2-1.3-0.6c-0.3-0.4-0.4-0.9-0.5-1.6h4.7c0-0.6,0-1.1-0.1-1.4
		c-0.1-0.4-0.2-0.8-0.4-1.1c-0.2-0.3-0.5-0.6-1-0.8C246,418.5,245.6,418.4,245.2,418.4z M239.3,418.5h-0.9v0.9h0.9v4.2
		c0,0.4,0.1,0.7,0.3,1c0.2,0.3,0.5,0.4,1,0.4c0.2,0,0.3,0,0.4,0c0.1,0,0.3,0,0.4-0.1v-0.9l-0.2,0l-0.2,0c-0.2,0-0.3,0-0.4-0.1
		c-0.2-0.1-0.2-0.2-0.2-0.4v-4.2h1v-0.9h-1v-1.8h-1.1V418.5z M234,421.3c-0.6,0.1-1.1,0.3-1.5,0.6c-0.4,0.3-0.6,0.8-0.6,1.4
		c0,0.5,0.2,1,0.6,1.4s0.9,0.5,1.5,0.5c0.5,0,0.9-0.1,1.4-0.3s0.7-0.5,0.9-0.7c0,0.3,0.1,0.5,0.2,0.6c0.2,0.3,0.4,0.4,0.8,0.4
		c0.2,0,0.3,0,0.4,0c0.1,0,0.2,0,0.4-0.1v-0.8l-0.2,0l-0.2,0c-0.1,0-0.2,0-0.3-0.1s-0.1-0.2-0.1-0.3v-3.7c0-0.6-0.2-1.1-0.7-1.3
		c-0.5-0.3-1.1-0.4-1.8-0.4c-0.6,0-1.2,0.2-1.7,0.5c-0.5,0.3-0.7,0.9-0.8,1.7h1c0-0.3,0.1-0.6,0.3-0.8c0.2-0.3,0.6-0.5,1.2-0.5
		c0.5,0,0.9,0.1,1.1,0.2c0.3,0.2,0.4,0.4,0.4,0.8c0,0.2,0,0.3-0.1,0.4c-0.1,0.2-0.2,0.3-0.5,0.3L234,421.3z M233.1,423.2
		c0-0.4,0.2-0.7,0.5-0.9c0.2-0.1,0.5-0.2,0.9-0.2l0.7-0.1c0.2,0,0.4-0.1,0.6-0.1c0.2-0.1,0.4-0.1,0.5-0.2v0.9c0,0.7-0.3,1.1-0.9,1.4
		c-0.4,0.2-0.7,0.3-1.1,0.3c-0.3,0-0.6-0.1-0.8-0.3C233.2,423.8,233.1,423.6,233.1,423.2z M228.2,425h1.1v-3.7
		c0-0.5,0.1-0.9,0.4-1.2c0.3-0.3,0.7-0.5,1.2-0.5l0.2,0l0.2,0v-1.1c-0.1,0-0.2,0-0.2,0l-0.1,0c-0.4,0-0.8,0.2-1.1,0.5
		c-0.3,0.3-0.5,0.6-0.6,0.8v-1.1h-1V425z M225,418.5h-0.9v0.9h0.9v4.2c0,0.4,0.1,0.7,0.3,1c0.2,0.3,0.5,0.4,1,0.4c0.2,0,0.3,0,0.4,0
		c0.1,0,0.3,0,0.4-0.1v-0.9l-0.2,0l-0.2,0c-0.2,0-0.3,0-0.4-0.1c-0.2-0.1-0.2-0.2-0.2-0.4v-4.2h1v-0.9h-1v-1.8H225V418.5z
		 M216.4,422.1c0,0.9,0.3,1.7,0.9,2.3c0.6,0.6,1.4,0.8,2.5,0.8c0.9,0,1.7-0.2,2.4-0.6c0.7-0.4,1-1.1,1-2.1c0-0.8-0.3-1.4-0.8-1.8
		c-0.3-0.2-0.8-0.4-1.3-0.6l-1.2-0.3c-0.8-0.2-1.3-0.4-1.5-0.5c-0.3-0.2-0.5-0.5-0.5-0.9c0-0.4,0.1-0.7,0.4-1
		c0.3-0.3,0.8-0.4,1.5-0.4c0.8,0,1.4,0.2,1.8,0.7c0.2,0.3,0.3,0.6,0.4,1.1h1.1c0-1-0.3-1.7-0.9-2.1c-0.6-0.4-1.4-0.7-2.3-0.7
		c-1,0-1.7,0.3-2.3,0.8c-0.5,0.5-0.8,1.2-0.8,1.9c0,0.7,0.3,1.3,0.8,1.6c0.3,0.2,0.8,0.4,1.6,0.6l1.2,0.3c0.6,0.1,1.1,0.3,1.4,0.5
		c0.3,0.2,0.4,0.5,0.4,1c0,0.6-0.3,1.1-1,1.3c-0.4,0.1-0.7,0.2-1.2,0.2c-1,0-1.6-0.3-2-0.9c-0.2-0.3-0.3-0.7-0.3-1.2H216.4z"/>
	<path class="st4" d="M82.8,425h1v-2.4l0.9-0.9l2,3.3h1.4l-2.6-4l2.5-2.4h-1.4l-2.8,2.7v-5.1h-1V425z M77.8,421.3
		c-0.6,0.1-1.1,0.3-1.5,0.6c-0.4,0.3-0.6,0.8-0.6,1.4c0,0.5,0.2,1,0.6,1.4s0.9,0.5,1.5,0.5c0.5,0,0.9-0.1,1.4-0.3s0.7-0.5,0.9-0.7
		c0,0.3,0.1,0.5,0.2,0.6c0.2,0.3,0.4,0.4,0.8,0.4c0.2,0,0.3,0,0.4,0c0.1,0,0.2,0,0.4-0.1v-0.8l-0.2,0l-0.2,0c-0.1,0-0.2,0-0.3-0.1
		s-0.1-0.2-0.1-0.3v-3.7c0-0.6-0.2-1.1-0.7-1.3c-0.5-0.3-1.1-0.4-1.8-0.4c-0.6,0-1.2,0.2-1.7,0.5c-0.5,0.3-0.7,0.9-0.8,1.7h1
		c0-0.3,0.1-0.6,0.3-0.8c0.2-0.3,0.6-0.5,1.2-0.5c0.5,0,0.9,0.1,1.1,0.2c0.3,0.2,0.4,0.4,0.4,0.8c0,0.2,0,0.3-0.1,0.4
		c-0.1,0.2-0.2,0.3-0.5,0.3L77.8,421.3z M76.9,423.2c0-0.4,0.2-0.7,0.5-0.9c0.2-0.1,0.5-0.2,0.9-0.2l0.7-0.1c0.2,0,0.4-0.1,0.6-0.1
		c0.2-0.1,0.4-0.1,0.5-0.2v0.9c0,0.7-0.3,1.1-0.9,1.4c-0.4,0.2-0.7,0.3-1.1,0.3c-0.3,0-0.6-0.1-0.8-0.3
		C77,423.8,76.9,423.6,76.9,423.2z M70,421.2c0-0.5,0.2-1,0.5-1.4s0.7-0.5,1.2-0.5c0.7,0,1.2,0.3,1.5,0.8c0.2,0.3,0.3,0.7,0.3,1.1
		H70z M71.9,418.4c-0.9,0-1.6,0.3-2.2,1c-0.6,0.6-0.8,1.5-0.8,2.5c0,1,0.3,1.9,0.8,2.4c0.6,0.6,1.2,0.9,2,0.9c0.3,0,0.6,0,0.9-0.1
		c0.5-0.1,0.9-0.3,1.2-0.6c0.2-0.2,0.4-0.4,0.5-0.7c0.2-0.3,0.3-0.6,0.3-0.8h-1.1c-0.1,0.3-0.2,0.5-0.4,0.8
		c-0.3,0.4-0.8,0.6-1.3,0.6c-0.6,0-1-0.2-1.3-0.6c-0.3-0.4-0.4-0.9-0.5-1.6h4.7c0-0.6,0-1.1-0.1-1.4c-0.1-0.4-0.2-0.8-0.4-1.1
		c-0.2-0.3-0.5-0.6-1-0.8C72.8,418.5,72.3,418.4,71.9,418.4z M57.3,416.2l2.3,8.8h1.3l2-7.3l2,7.3h1.2l2.3-8.8h-1.3l-1.7,7.2l-2-7.2
		h-1.3l-2,7.1l-1.7-7.1H57.3z"/>
	<path class="st4" d="M418.1,421.7c0,0.5-0.1,1-0.3,1.4c-0.3,0.7-0.9,1-1.6,1c-0.5,0-0.9-0.2-1.2-0.6c-0.3-0.4-0.4-0.9-0.4-1.6
		c0-0.6,0.1-1.1,0.2-1.5c0.3-0.7,0.8-1.1,1.5-1.1c0.5,0,0.9,0.2,1.2,0.6C418,420.3,418.1,420.9,418.1,421.7z M416.2,418.4
		c-0.7,0-1.4,0.3-1.9,0.9c-0.5,0.6-0.8,1.4-0.8,2.5c0,1.1,0.3,2,0.8,2.4c0.5,0.5,1.1,0.7,1.8,0.7c0.5,0,0.9-0.1,1.2-0.2
		c0.3-0.2,0.6-0.4,0.8-0.7c0,0.9-0.1,1.5-0.2,1.8c-0.3,0.6-0.8,0.9-1.6,0.9c-0.5,0-0.9-0.1-1.1-0.4c-0.2-0.2-0.3-0.4-0.3-0.7h-1.1
		c0.1,0.7,0.3,1.1,0.8,1.5c0.5,0.3,1,0.5,1.7,0.5c1.2,0,2.1-0.4,2.5-1.3c0.2-0.5,0.4-1.1,0.4-1.9v-5.8h-1v0.8
		c-0.2-0.3-0.4-0.5-0.6-0.6C417.2,418.6,416.7,418.4,416.2,418.4z M407.2,425h1.1v-3.4c0-0.4,0-0.7,0.1-1c0.1-0.2,0.2-0.4,0.4-0.7
		c0.2-0.3,0.5-0.4,0.8-0.5c0.2-0.1,0.4-0.1,0.6-0.1c0.5,0,0.8,0.2,1,0.6c0.1,0.2,0.2,0.6,0.2,0.9v4h1.1v-4.1c0-0.6-0.1-1.1-0.3-1.5
		c-0.3-0.6-0.9-1-1.8-1c-0.4,0-0.8,0.1-1.1,0.2c-0.3,0.2-0.7,0.4-1,0.8v-0.9h-1V425z M402.9,418.4c-0.9,0-1.6,0.3-2.2,1
		c-0.5,0.6-0.8,1.5-0.8,2.6c0,1,0.3,1.8,0.8,2.4s1.2,0.9,2.1,0.9c1,0,1.8-0.3,2.3-1c0.5-0.7,0.7-1.5,0.7-2.6c0-1.1-0.3-1.9-0.8-2.4
		S403.7,418.4,402.9,418.4z M402.9,424.2c-0.6,0-1.1-0.2-1.4-0.7c-0.3-0.5-0.4-1-0.4-1.7c0-0.7,0.1-1.3,0.4-1.8
		c0.3-0.5,0.8-0.8,1.4-0.8c0.7,0,1.2,0.3,1.5,0.9c0.2,0.4,0.3,0.9,0.3,1.5c0,0.7-0.1,1.3-0.4,1.8C404.1,424,403.6,424.2,402.9,424.2
		z M396.3,425h1.1v-3.7c0-0.5,0.1-0.9,0.4-1.2c0.3-0.3,0.7-0.5,1.2-0.5l0.2,0l0.2,0v-1.1c-0.1,0-0.2,0-0.2,0l-0.1,0
		c-0.4,0-0.8,0.2-1.1,0.5c-0.3,0.3-0.5,0.6-0.6,0.8v-1.1h-1V425z M393.1,418.5h-0.9v0.9h0.9v4.2c0,0.4,0.1,0.7,0.3,1
		c0.2,0.3,0.5,0.4,1,0.4c0.2,0,0.3,0,0.4,0c0.1,0,0.3,0,0.4-0.1v-0.9l-0.2,0l-0.2,0c-0.2,0-0.3,0-0.4-0.1c-0.2-0.1-0.2-0.2-0.2-0.4
		v-4.2h1v-0.9h-1v-1.8h-1.1V418.5z M384.5,422.1c0,0.9,0.3,1.7,0.9,2.3c0.6,0.6,1.4,0.8,2.5,0.8c0.9,0,1.7-0.2,2.4-0.6
		c0.7-0.4,1-1.1,1-2.1c0-0.8-0.3-1.4-0.8-1.8c-0.3-0.2-0.8-0.4-1.3-0.6l-1.2-0.3c-0.8-0.2-1.3-0.4-1.5-0.5c-0.3-0.2-0.5-0.5-0.5-0.9
		c0-0.4,0.1-0.7,0.4-1c0.3-0.3,0.8-0.4,1.5-0.4c0.8,0,1.4,0.2,1.8,0.7c0.2,0.3,0.3,0.6,0.4,1.1h1.1c0-1-0.3-1.7-0.9-2.1
		c-0.6-0.4-1.4-0.7-2.3-0.7c-1,0-1.7,0.3-2.3,0.8c-0.5,0.5-0.8,1.2-0.8,1.9c0,0.7,0.3,1.3,0.8,1.6c0.3,0.2,0.8,0.4,1.6,0.6l1.2,0.3
		c0.6,0.1,1.1,0.3,1.4,0.5c0.3,0.2,0.4,0.5,0.4,1c0,0.6-0.3,1.1-1,1.3c-0.4,0.1-0.7,0.2-1.2,0.2c-1,0-1.6-0.3-2-0.9
		c-0.2-0.3-0.3-0.7-0.3-1.2H384.5z"/>
	<polyline class="st3" points="94.8,421.4 205.9,421.4 205.9,420.9 94.8,420.9 	"/>
	<polyline class="st3" points="270.1,421.4 372.1,421.4 372.1,420.9 270.1,420.9 	"/>
	<polygon class="st3" points="369.6,417.7 369.6,424.6 378.6,421.1 	"/>
	<polyline class="st3" points="21.9,383 21.9,237.4 21.4,237.4 21.4,383 	"/>
	<polyline class="st3" points="21.9,195.9 21.9,60.9 21.4,60.9 21.4,195.9 	"/>
	<polygon class="st3" points="18.2,63.5 25.1,63.5 21.7,54.5 	"/>
	<path class="st4" d="M39.6,209h-0.9v0.9h0.9v4.2c0,0.4,0.1,0.7,0.3,1c0.2,0.3,0.5,0.4,1,0.4c0.2,0,0.3,0,0.4,0c0.1,0,0.3,0,0.4-0.1
		v-0.9l-0.2,0l-0.2,0c-0.2,0-0.3,0-0.4-0.1c-0.2-0.1-0.2-0.2-0.2-0.4v-4.2h1V209h-1v-1.8h-1.1V209z M32.6,215.4h1.1V212
		c0-0.4,0-0.7,0.1-1c0.1-0.2,0.2-0.4,0.4-0.7c0.2-0.3,0.5-0.4,0.8-0.5c0.2-0.1,0.4-0.1,0.6-0.1c0.5,0,0.8,0.2,1,0.6
		c0.1,0.2,0.2,0.6,0.2,0.9v4h1.1v-4.1c0-0.6-0.1-1.1-0.3-1.5c-0.3-0.6-0.9-1-1.8-1c-0.4,0-0.8,0.1-1.1,0.2c-0.3,0.2-0.7,0.4-1,0.8
		V209h-1V215.4z M26.6,211.7c0-0.5,0.2-1,0.5-1.4s0.7-0.5,1.2-0.5c0.7,0,1.2,0.3,1.5,0.8c0.2,0.3,0.3,0.7,0.3,1.1H26.6z M28.4,208.9
		c-0.9,0-1.6,0.3-2.2,1c-0.6,0.6-0.8,1.5-0.8,2.5c0,1,0.3,1.9,0.8,2.4c0.6,0.6,1.2,0.9,2,0.9c0.3,0,0.6,0,0.9-0.1
		c0.5-0.1,0.9-0.3,1.2-0.6c0.2-0.2,0.4-0.4,0.5-0.7c0.2-0.3,0.3-0.6,0.3-0.8H30c-0.1,0.3-0.2,0.5-0.4,0.8c-0.3,0.4-0.8,0.6-1.3,0.6
		c-0.6,0-1-0.2-1.3-0.6c-0.3-0.4-0.4-0.9-0.5-1.6h4.7c0-0.6,0-1.1-0.1-1.4c-0.1-0.4-0.2-0.8-0.4-1.1c-0.2-0.3-0.5-0.6-1-0.8
		C29.3,209,28.8,208.9,28.4,208.9z M21.7,215.4h1.1v-3.7c0-0.5,0.1-0.9,0.4-1.2c0.3-0.3,0.7-0.5,1.2-0.5l0.2,0l0.2,0v-1.1
		c-0.1,0-0.2,0-0.2,0l-0.1,0c-0.4,0-0.8,0.2-1.1,0.5c-0.3,0.3-0.5,0.6-0.6,0.8V209h-1V215.4z M17.6,215.4h1.1v-3.7
		c0-0.5,0.1-0.9,0.4-1.2c0.3-0.3,0.7-0.5,1.2-0.5l0.2,0l0.2,0v-1.1c-0.1,0-0.2,0-0.2,0l-0.1,0c-0.4,0-0.8,0.2-1.1,0.5
		c-0.3,0.3-0.5,0.6-0.6,0.8V209h-1V215.4z M10.7,209v4.4c0,0.5,0.1,1,0.3,1.3c0.3,0.6,0.9,0.9,1.8,0.9c0.6,0,1.1-0.2,1.5-0.5
		c0.2-0.2,0.4-0.4,0.5-0.6l0,0.9h1V209h-1.1v3.1c0,0.6-0.1,1.1-0.2,1.5c-0.3,0.7-0.8,1-1.5,1c-0.5,0-0.9-0.2-1-0.6
		c-0.1-0.2-0.2-0.5-0.2-0.8V209H10.7z M5.7,206.4c-1.3,0-2.3,0.5-3,1.4c-0.7,0.8-1,1.9-1,3.2c0,1.7,0.5,3,1.4,3.8
		c0.7,0.6,1.5,0.9,2.5,0.9c1.2,0,2.1-0.4,2.8-1.1c0.6-0.6,0.9-1.4,1-2.3H8.2c-0.1,0.6-0.3,1-0.5,1.4c-0.5,0.7-1.1,1-2,1
		c-0.9,0-1.6-0.3-2.1-1c-0.5-0.6-0.7-1.5-0.7-2.5c0-1.3,0.3-2.2,0.8-2.8c0.5-0.6,1.2-0.9,2.1-0.9c0.7,0,1.2,0.2,1.6,0.5
		c0.4,0.3,0.6,0.8,0.8,1.3h1.2c-0.1-0.7-0.4-1.4-1-2S6.8,206.4,5.7,206.4z"/>
	<path class="st4" d="M39.7,224.7c0,0.5-0.1,1-0.3,1.4c-0.3,0.7-0.9,1-1.6,1c-0.5,0-0.9-0.2-1.2-0.6c-0.3-0.4-0.4-0.9-0.4-1.6
		c0-0.6,0.1-1.1,0.2-1.5c0.3-0.7,0.8-1.1,1.5-1.1c0.5,0,0.9,0.2,1.2,0.6C39.6,223.3,39.7,223.9,39.7,224.7z M37.8,221.4
		c-0.7,0-1.4,0.3-1.9,0.9c-0.5,0.6-0.8,1.4-0.8,2.5c0,1.1,0.3,2,0.8,2.4c0.5,0.5,1.1,0.7,1.8,0.7c0.5,0,0.9-0.1,1.2-0.2
		c0.3-0.2,0.6-0.4,0.8-0.7c0,0.9-0.1,1.5-0.2,1.8c-0.3,0.6-0.8,0.9-1.6,0.9c-0.5,0-0.9-0.1-1.1-0.4c-0.2-0.2-0.3-0.4-0.3-0.7h-1.1
		c0.1,0.7,0.3,1.1,0.8,1.5c0.5,0.3,1,0.5,1.7,0.5c1.2,0,2.1-0.4,2.5-1.3c0.2-0.5,0.4-1.1,0.4-1.9v-5.8h-1v0.8
		c-0.2-0.3-0.4-0.5-0.6-0.6C38.7,221.5,38.3,221.4,37.8,221.4z M28.7,227.9h1.1v-3.4c0-0.4,0-0.7,0.1-1c0.1-0.2,0.2-0.4,0.4-0.7
		c0.2-0.3,0.5-0.4,0.8-0.5c0.2-0.1,0.4-0.1,0.6-0.1c0.5,0,0.8,0.2,1,0.6c0.1,0.2,0.2,0.6,0.2,0.9v4h1.1v-4.1c0-0.6-0.1-1.1-0.3-1.5
		c-0.3-0.6-0.9-1-1.8-1c-0.4,0-0.8,0.1-1.1,0.2c-0.3,0.2-0.7,0.4-1,0.8v-0.9h-1V227.9z M26,220.4h1.1v-1.2H26V220.4z M26,227.9h1.1
		v-6.4H26V227.9z M22,227.9H23v-3.7c0-0.5,0.1-0.9,0.4-1.2c0.3-0.3,0.7-0.5,1.2-0.5l0.2,0l0.2,0v-1.1c-0.1,0-0.2,0-0.2,0l-0.1,0
		c-0.4,0-0.8,0.2-1.1,0.5c-0.3,0.3-0.5,0.6-0.6,0.8v-1.1h-1V227.9z M15.9,224.2c0-0.5,0.2-1,0.5-1.4s0.7-0.5,1.2-0.5
		c0.7,0,1.2,0.3,1.5,0.8c0.2,0.3,0.3,0.7,0.3,1.1H15.9z M17.8,221.4c-0.9,0-1.6,0.3-2.2,1c-0.6,0.6-0.8,1.5-0.8,2.5
		c0,1,0.3,1.9,0.8,2.4c0.6,0.6,1.2,0.9,2,0.9c0.3,0,0.6,0,0.9-0.1c0.5-0.1,0.9-0.3,1.2-0.6c0.2-0.2,0.4-0.4,0.5-0.7
		c0.2-0.3,0.3-0.6,0.3-0.8h-1.1c-0.1,0.3-0.2,0.5-0.4,0.8c-0.3,0.4-0.8,0.6-1.3,0.6c-0.6,0-1-0.2-1.3-0.6c-0.3-0.4-0.4-0.9-0.5-1.6
		h4.7c0-0.6,0-1.1-0.1-1.4c-0.1-0.4-0.2-0.8-0.4-1.1c-0.2-0.3-0.5-0.6-1-0.8C18.6,221.5,18.2,221.4,17.8,221.4z M12,220.6v1h-0.9
		v0.8H12v5.5H13v-5.5h1.1v-0.8H13c0-0.7,0-1.1,0.1-1.3c0.1-0.2,0.3-0.3,0.6-0.3l0.1,0c0.1,0,0.1,0,0.2,0v-1c-0.1,0-0.2,0-0.2,0
		l-0.2,0c-0.7,0-1.2,0.2-1.5,0.5C12.1,219.8,12,220.1,12,220.6z M8.8,220.6v1H7.9v0.8h0.9v5.5h1.1v-5.5h1.1v-0.8H9.9
		c0-0.7,0-1.1,0.1-1.3c0.1-0.2,0.3-0.3,0.6-0.3l0.1,0c0.1,0,0.1,0,0.2,0v-1c-0.1,0-0.2,0-0.2,0l-0.2,0c-0.7,0-1.2,0.2-1.5,0.5
		C8.9,219.8,8.8,220.1,8.8,220.6z M4.3,221.3c-0.9,0-1.6,0.3-2.2,1c-0.5,0.6-0.8,1.5-0.8,2.6c0,1,0.3,1.8,0.8,2.4s1.2,0.9,2.1,0.9
		c1,0,1.8-0.3,2.3-1c0.5-0.7,0.7-1.5,0.7-2.6c0-1.1-0.3-1.9-0.8-2.4S5.1,221.3,4.3,221.3z M4.2,227.2c-0.6,0-1.1-0.2-1.4-0.7
		c-0.3-0.5-0.4-1-0.4-1.7c0-0.7,0.1-1.3,0.4-1.8c0.3-0.5,0.8-0.8,1.4-0.8c0.7,0,1.2,0.3,1.5,0.9c0.2,0.4,0.3,0.9,0.3,1.5
		c0,0.7-0.1,1.3-0.4,1.8C5.4,227,4.9,227.2,4.2,227.2z"/>
	<path class="st4" d="M32,398.5h1v-2.4l0.9-0.9l2,3.3h1.4l-2.6-4l2.5-2.4h-1.4l-2.8,2.7v-5.1h-1V398.5z M26.9,394.8
		c-0.6,0.1-1.1,0.3-1.5,0.6c-0.4,0.3-0.6,0.8-0.6,1.4c0,0.5,0.2,1,0.6,1.4s0.9,0.5,1.5,0.5c0.5,0,0.9-0.1,1.4-0.3s0.7-0.5,0.9-0.7
		c0,0.3,0.1,0.5,0.2,0.6c0.2,0.3,0.4,0.4,0.8,0.4c0.2,0,0.3,0,0.4,0c0.1,0,0.2,0,0.4-0.1v-0.8l-0.2,0l-0.2,0c-0.1,0-0.2,0-0.3-0.1
		s-0.1-0.2-0.1-0.3v-3.7c0-0.6-0.2-1.1-0.7-1.3c-0.5-0.3-1.1-0.4-1.8-0.4c-0.6,0-1.2,0.2-1.7,0.5c-0.5,0.3-0.7,0.9-0.8,1.7h1
		c0-0.3,0.1-0.6,0.3-0.8c0.2-0.3,0.6-0.5,1.2-0.5c0.5,0,0.9,0.1,1.1,0.2c0.3,0.2,0.4,0.4,0.4,0.8c0,0.2,0,0.3-0.1,0.4
		c-0.1,0.2-0.2,0.3-0.5,0.3L26.9,394.8z M26,396.8c0-0.4,0.2-0.7,0.5-0.9c0.2-0.1,0.5-0.2,0.9-0.2l0.7-0.1c0.2,0,0.4-0.1,0.6-0.1
		c0.2-0.1,0.4-0.1,0.5-0.2v0.9c0,0.7-0.3,1.1-0.9,1.4c-0.4,0.2-0.7,0.3-1.1,0.3c-0.3,0-0.6-0.1-0.8-0.3
		C26.1,397.3,26,397.1,26,396.8z M19.2,394.8c0-0.5,0.2-1,0.5-1.4s0.7-0.5,1.2-0.5c0.7,0,1.2,0.3,1.5,0.8c0.2,0.3,0.3,0.7,0.3,1.1
		H19.2z M21,391.9c-0.9,0-1.6,0.3-2.2,1c-0.6,0.6-0.8,1.5-0.8,2.5c0,1,0.3,1.9,0.8,2.4c0.6,0.6,1.2,0.9,2,0.9c0.3,0,0.6,0,0.9-0.1
		c0.5-0.1,0.9-0.3,1.2-0.6c0.2-0.2,0.4-0.4,0.5-0.7c0.2-0.3,0.3-0.6,0.3-0.8h-1.1c-0.1,0.3-0.2,0.5-0.4,0.8
		c-0.3,0.4-0.8,0.6-1.3,0.6c-0.6,0-1-0.2-1.3-0.6c-0.3-0.4-0.4-0.9-0.5-1.6h4.7c0-0.6,0-1.1-0.1-1.4c-0.1-0.4-0.2-0.8-0.4-1.1
		c-0.2-0.3-0.5-0.6-1-0.8C21.9,392,21.5,391.9,21,391.9z M6.5,389.7l2.3,8.8H10l2-7.3l2,7.3h1.2l2.3-8.8h-1.3l-1.7,7.2l-2-7.2h-1.3
		l-2,7.1l-1.7-7.1H6.5z"/>
	<path class="st4" d="M37.5,43.8c0,0.5-0.1,1-0.3,1.4c-0.3,0.7-0.9,1-1.6,1c-0.5,0-0.9-0.2-1.2-0.6C34.2,45.3,34,44.7,34,44
		c0-0.6,0.1-1.1,0.2-1.5c0.3-0.7,0.8-1.1,1.5-1.1c0.5,0,0.9,0.2,1.2,0.6C37.4,42.4,37.5,43,37.5,43.8z M35.6,40.5
		c-0.7,0-1.4,0.3-1.9,0.9c-0.5,0.6-0.8,1.4-0.8,2.5c0,1.1,0.3,2,0.8,2.4c0.5,0.5,1.1,0.7,1.8,0.7c0.5,0,0.9-0.1,1.2-0.2
		c0.3-0.2,0.6-0.4,0.8-0.7c0,0.9-0.1,1.5-0.2,1.8c-0.3,0.6-0.8,0.9-1.6,0.9c-0.5,0-0.9-0.1-1.1-0.4c-0.2-0.2-0.3-0.4-0.3-0.7h-1.1
		c0.1,0.7,0.3,1.1,0.8,1.5c0.5,0.3,1,0.5,1.7,0.5c1.2,0,2.1-0.4,2.5-1.3c0.2-0.5,0.4-1.1,0.4-1.9v-5.8h-1v0.8
		c-0.2-0.3-0.4-0.5-0.6-0.6C36.5,40.6,36.1,40.5,35.6,40.5z M26.5,47h1.1v-3.4c0-0.4,0-0.7,0.1-1c0.1-0.2,0.2-0.4,0.4-0.7
		c0.2-0.3,0.5-0.4,0.8-0.5c0.2-0.1,0.4-0.1,0.6-0.1c0.5,0,0.8,0.2,1,0.6c0.1,0.2,0.2,0.6,0.2,0.9v4h1.1v-4.1c0-0.6-0.1-1.1-0.3-1.5
		c-0.3-0.6-0.9-1-1.8-1c-0.4,0-0.8,0.1-1.1,0.2c-0.3,0.2-0.7,0.4-1,0.8v-0.9h-1V47z M22.3,40.4c-0.9,0-1.6,0.3-2.2,1
		c-0.5,0.6-0.8,1.5-0.8,2.6c0,1,0.3,1.8,0.8,2.4s1.2,0.9,2.1,0.9c1,0,1.8-0.3,2.3-1c0.5-0.7,0.7-1.5,0.7-2.6c0-1.1-0.3-1.9-0.8-2.4
		S23.1,40.4,22.3,40.4z M22.3,46.3c-0.6,0-1.1-0.2-1.4-0.7c-0.3-0.5-0.4-1-0.4-1.7c0-0.7,0.1-1.3,0.4-1.8c0.3-0.5,0.8-0.8,1.4-0.8
		c0.7,0,1.2,0.3,1.5,0.9c0.2,0.4,0.3,0.9,0.3,1.5c0,0.7-0.1,1.3-0.4,1.8C23.4,46,23,46.3,22.3,46.3z M15.7,47h1.1v-3.7
		c0-0.5,0.1-0.9,0.4-1.2c0.3-0.3,0.7-0.5,1.2-0.5l0.2,0l0.2,0v-1.1c-0.1,0-0.2,0-0.2,0l-0.1,0c-0.4,0-0.8,0.2-1.1,0.5
		c-0.3,0.3-0.5,0.6-0.6,0.8v-1.1h-1V47z M12.5,40.6h-0.9v0.9h0.9v4.2c0,0.4,0.1,0.7,0.3,1c0.2,0.3,0.5,0.4,1,0.4c0.2,0,0.3,0,0.4,0
		c0.1,0,0.3,0,0.4-0.1v-0.9l-0.2,0l-0.2,0c-0.2,0-0.3,0-0.4-0.1c-0.2-0.1-0.2-0.2-0.2-0.4v-4.2h1v-0.9h-1v-1.8h-1.1V40.6z M3.9,44.2
		c0,0.9,0.3,1.7,0.9,2.3c0.6,0.6,1.4,0.8,2.5,0.8c0.9,0,1.7-0.2,2.4-0.6c0.7-0.4,1-1.1,1-2.1c0-0.8-0.3-1.4-0.8-1.8
		c-0.3-0.2-0.8-0.4-1.3-0.6l-1.2-0.3c-0.8-0.2-1.3-0.4-1.5-0.5c-0.3-0.2-0.5-0.5-0.5-0.9c0-0.4,0.1-0.7,0.4-1C6,39.2,6.5,39,7.2,39
		C8,39,8.6,39.3,9,39.7c0.2,0.3,0.3,0.6,0.4,1.1h1.1c0-1-0.3-1.7-0.9-2.1C8.9,38.2,8.1,38,7.2,38c-1,0-1.7,0.3-2.3,0.8
		c-0.5,0.5-0.8,1.2-0.8,1.9c0,0.7,0.3,1.3,0.8,1.6c0.3,0.2,0.8,0.4,1.6,0.6l1.2,0.3c0.6,0.1,1.1,0.3,1.4,0.5c0.3,0.2,0.4,0.5,0.4,1
		c0,0.6-0.3,1.1-1,1.3c-0.4,0.1-0.7,0.2-1.2,0.2c-1,0-1.6-0.3-2-0.9C5.1,45.1,5,44.7,5,44.2H3.9z"/>
	<polyline class="st3" points="57.3,344.1 143.3,344.1 143.3,343.6 57.3,343.6 	"/>
	<polygon class="st3" points="140.8,340.4 140.8,347.3 149.8,343.9 	"/>
	<path class="st4" d="M143.4,330c0-0.5,0.2-1,0.5-1.4s0.7-0.5,1.2-0.5c0.7,0,1.2,0.3,1.5,0.8c0.2,0.3,0.3,0.7,0.3,1.1H143.4z
		 M145.2,327.1c-0.9,0-1.6,0.3-2.2,1c-0.6,0.6-0.8,1.5-0.8,2.5c0,1,0.3,1.9,0.8,2.4c0.6,0.6,1.2,0.9,2,0.9c0.3,0,0.6,0,0.9-0.1
		c0.5-0.1,0.9-0.3,1.2-0.6c0.2-0.2,0.4-0.4,0.5-0.7c0.2-0.3,0.3-0.6,0.3-0.8h-1.1c-0.1,0.3-0.2,0.5-0.4,0.8
		c-0.3,0.4-0.8,0.6-1.3,0.6c-0.6,0-1-0.2-1.3-0.6c-0.3-0.4-0.4-0.9-0.5-1.6h4.7c0-0.6,0-1.1-0.1-1.4c-0.1-0.4-0.2-0.8-0.4-1.1
		c-0.2-0.3-0.5-0.6-1-0.8C146.1,327.2,145.6,327.1,145.2,327.1z M138.9,327.1c-0.8,0-1.5,0.3-2.1,0.9s-0.8,1.5-0.8,2.6
		c0,0.9,0.2,1.7,0.7,2.3s1.2,0.9,2,0.9c0.7,0,1.4-0.2,1.8-0.6c0.5-0.4,0.8-1,0.9-1.9h-1c-0.1,0.5-0.3,0.8-0.5,1.1
		c-0.3,0.3-0.6,0.4-1.1,0.4c-0.6,0-1-0.2-1.3-0.7c-0.3-0.4-0.4-1-0.4-1.6c0-0.6,0.1-1.2,0.3-1.6c0.3-0.7,0.8-1,1.5-1
		c0.5,0,0.9,0.1,1.1,0.4c0.2,0.3,0.4,0.6,0.4,1h1c-0.1-0.9-0.4-1.5-0.8-1.8C140.2,327.3,139.6,327.1,138.9,327.1z M129.6,333.7h1.1
		v-3.4c0-0.4,0-0.7,0.1-1c0.1-0.2,0.2-0.4,0.4-0.7c0.2-0.3,0.5-0.4,0.8-0.5c0.2-0.1,0.4-0.1,0.6-0.1c0.5,0,0.8,0.2,1,0.6
		c0.1,0.2,0.2,0.6,0.2,0.9v4h1.1v-4.1c0-0.6-0.1-1.1-0.3-1.5c-0.3-0.6-0.9-1-1.8-1c-0.4,0-0.8,0.1-1.1,0.2c-0.3,0.2-0.7,0.4-1,0.8
		v-0.9h-1V333.7z M123.6,330c0-0.5,0.2-1,0.5-1.4s0.7-0.5,1.2-0.5c0.7,0,1.2,0.3,1.5,0.8c0.2,0.3,0.3,0.7,0.3,1.1H123.6z
		 M125.4,327.1c-0.9,0-1.6,0.3-2.2,1c-0.6,0.6-0.8,1.5-0.8,2.5c0,1,0.3,1.9,0.8,2.4c0.6,0.6,1.2,0.9,2,0.9c0.3,0,0.6,0,0.9-0.1
		c0.5-0.1,0.9-0.3,1.2-0.6c0.2-0.2,0.4-0.4,0.5-0.7c0.2-0.3,0.3-0.6,0.3-0.8h-1.1c-0.1,0.3-0.2,0.5-0.4,0.8
		c-0.3,0.4-0.8,0.6-1.3,0.6c-0.6,0-1-0.2-1.3-0.6c-0.3-0.4-0.4-0.9-0.5-1.6h4.7c0-0.6,0-1.1-0.1-1.4c-0.1-0.4-0.2-0.8-0.4-1.1
		c-0.2-0.3-0.5-0.6-1-0.8C126.3,327.2,125.9,327.1,125.4,327.1z M116.3,331.7c0,0.6,0.2,1.2,0.6,1.6c0.4,0.4,1.1,0.6,2.1,0.6
		c0.9,0,1.6-0.2,2-0.6c0.4-0.4,0.7-0.9,0.7-1.5c0-0.6-0.2-1-0.6-1.3c-0.3-0.2-0.8-0.4-1.6-0.5l-0.7-0.2c-0.3-0.1-0.6-0.2-0.7-0.3
		c-0.3-0.2-0.4-0.4-0.4-0.7c0-0.3,0.1-0.5,0.3-0.6s0.5-0.2,0.9-0.2c0.6,0,1.1,0.1,1.3,0.4c0.2,0.2,0.2,0.4,0.3,0.7h1
		c0-0.4-0.1-0.8-0.4-1.2c-0.4-0.6-1.1-0.8-2.1-0.8c-0.7,0-1.3,0.2-1.8,0.6c-0.4,0.4-0.7,0.9-0.7,1.5c0,0.5,0.2,0.9,0.7,1.2
		c0.3,0.2,0.7,0.3,1.2,0.5l0.9,0.2c0.5,0.1,0.8,0.2,0.9,0.3c0.2,0.1,0.4,0.4,0.4,0.6c0,0.4-0.2,0.6-0.5,0.8
		c-0.3,0.2-0.7,0.3-1.1,0.3c-0.7,0-1.2-0.2-1.4-0.5c-0.2-0.2-0.2-0.5-0.3-0.8H116.3z M110.7,330c0-0.5,0.2-1,0.5-1.4
		s0.7-0.5,1.2-0.5c0.7,0,1.2,0.3,1.5,0.8c0.2,0.3,0.3,0.7,0.3,1.1H110.7z M112.5,327.1c-0.9,0-1.6,0.3-2.2,1
		c-0.6,0.6-0.8,1.5-0.8,2.5c0,1,0.3,1.9,0.8,2.4c0.6,0.6,1.2,0.9,2,0.9c0.3,0,0.6,0,0.9-0.1c0.5-0.1,0.9-0.3,1.2-0.6
		c0.2-0.2,0.4-0.4,0.5-0.7c0.2-0.3,0.3-0.6,0.3-0.8h-1.1c-0.1,0.3-0.2,0.5-0.4,0.8c-0.3,0.4-0.8,0.6-1.3,0.6c-0.6,0-1-0.2-1.3-0.6
		c-0.3-0.4-0.4-0.9-0.5-1.6h4.7c0-0.6,0-1.1-0.1-1.4c-0.1-0.4-0.2-0.8-0.4-1.1c-0.2-0.3-0.5-0.6-1-0.8
		C113.4,327.2,113,327.1,112.5,327.1z M105.8,333.7h1.1V330c0-0.5,0.1-0.9,0.4-1.2c0.3-0.3,0.7-0.5,1.2-0.5l0.2,0l0.2,0v-1.1
		c-0.1,0-0.2,0-0.2,0l-0.1,0c-0.4,0-0.8,0.2-1.1,0.5c-0.3,0.3-0.5,0.6-0.6,0.8v-1.1h-1V333.7z M98.9,336.2h1.1V333
		c0.2,0.3,0.5,0.5,0.6,0.6c0.3,0.2,0.7,0.3,1.2,0.3c0.6,0,1.2-0.2,1.6-0.6c0.7-0.6,1.1-1.6,1.1-3c0-1-0.3-1.8-0.8-2.4
		c-0.5-0.6-1.1-0.8-1.9-0.8c-0.5,0-0.9,0.1-1.3,0.4c-0.3,0.2-0.5,0.4-0.7,0.7v-0.8h-1.1V336.2z M101.7,333c-0.7,0-1.3-0.3-1.5-1
		c-0.1-0.3-0.2-0.8-0.2-1.3c0-0.6,0.1-1.1,0.2-1.5c0.3-0.7,0.8-1.1,1.5-1.1c0.7,0,1.3,0.4,1.5,1.1c0.1,0.4,0.2,0.8,0.2,1.3
		c0,0.8-0.2,1.5-0.5,1.9S102.2,333,101.7,333z M92.4,327.3h-0.9v0.9h0.9v4.2c0,0.4,0.1,0.7,0.3,1c0.2,0.3,0.5,0.4,1,0.4
		c0.2,0,0.3,0,0.4,0c0.1,0,0.3,0,0.4-0.1v-0.9l-0.2,0l-0.2,0c-0.2,0-0.3,0-0.4-0.1c-0.2-0.1-0.2-0.2-0.2-0.4v-4.2h1v-0.9h-1v-1.8
		h-1.1V327.3z M86.2,330c0-0.5,0.2-1,0.5-1.4s0.7-0.5,1.2-0.5c0.7,0,1.2,0.3,1.5,0.8c0.2,0.3,0.3,0.7,0.3,1.1H86.2z M88,327.1
		c-0.9,0-1.6,0.3-2.2,1c-0.6,0.6-0.8,1.5-0.8,2.5c0,1,0.3,1.9,0.8,2.4c0.6,0.6,1.2,0.9,2,0.9c0.3,0,0.6,0,0.9-0.1
		c0.5-0.1,0.9-0.3,1.2-0.6c0.2-0.2,0.4-0.4,0.5-0.7c0.2-0.3,0.3-0.6,0.3-0.8h-1.1c-0.1,0.3-0.2,0.5-0.4,0.8
		c-0.3,0.4-0.8,0.6-1.3,0.6c-0.6,0-1-0.2-1.3-0.6c-0.3-0.4-0.4-0.9-0.5-1.6h4.7c0-0.6,0-1.1-0.1-1.4c-0.1-0.4-0.2-0.8-0.4-1.1
		c-0.2-0.3-0.5-0.6-1-0.8C88.9,327.2,88.4,327.1,88,327.1z M79.2,333.7h1v-2.4l0.9-0.9l2,3.3h1.4l-2.6-4l2.5-2.4H83l-2.8,2.7v-5.1
		h-1V333.7z M75.2,333.7h1.1V330c0-0.5,0.1-0.9,0.4-1.2c0.3-0.3,0.7-0.5,1.2-0.5l0.2,0l0.2,0v-1.1c-0.1,0-0.2,0-0.2,0l-0.1,0
		c-0.4,0-0.8,0.2-1.1,0.5c-0.3,0.3-0.5,0.6-0.6,0.8v-1.1h-1V333.7z M70.1,330c-0.6,0.1-1.1,0.3-1.5,0.6c-0.4,0.3-0.6,0.8-0.6,1.4
		c0,0.5,0.2,1,0.6,1.4s0.9,0.5,1.5,0.5c0.5,0,0.9-0.1,1.4-0.3s0.7-0.5,0.9-0.7c0,0.3,0.1,0.5,0.2,0.6c0.2,0.3,0.4,0.4,0.8,0.4
		c0.2,0,0.3,0,0.4,0c0.1,0,0.2,0,0.4-0.1v-0.8l-0.2,0l-0.2,0c-0.1,0-0.2,0-0.3-0.1s-0.1-0.2-0.1-0.3v-3.7c0-0.6-0.2-1.1-0.7-1.3
		c-0.5-0.3-1.1-0.4-1.8-0.4c-0.6,0-1.2,0.2-1.7,0.5c-0.5,0.3-0.7,0.9-0.8,1.7h1c0-0.3,0.1-0.6,0.3-0.8c0.2-0.3,0.6-0.5,1.2-0.5
		c0.5,0,0.9,0.1,1.1,0.2c0.3,0.2,0.4,0.4,0.4,0.8c0,0.2,0,0.3-0.1,0.4c-0.1,0.2-0.2,0.3-0.5,0.3L70.1,330z M69.2,332
		c0-0.4,0.2-0.7,0.5-0.9c0.2-0.1,0.5-0.2,0.9-0.2l0.7-0.1c0.2,0,0.4-0.1,0.6-0.1c0.2-0.1,0.4-0.1,0.5-0.2v0.9c0,0.7-0.3,1.1-0.9,1.4
		c-0.4,0.2-0.7,0.3-1.1,0.3c-0.3,0-0.6-0.1-0.8-0.3C69.3,332.5,69.2,332.3,69.2,332z M58.2,333.7h1.1v-5.2c0-0.2,0-0.5,0-1
		c0-0.4,0-0.8,0-1v-0.3l2.5,7.4h1.2l2.5-7.4c0,0.5,0,0.9,0,1.3c0,0.4,0,0.7,0,0.9v5.2h1.1v-8.8H65l-2.5,7.4l-2.5-7.4h-1.7V333.7z"/>
	<path class="st4" d="M266,368.2h1.1v-3.4c0-0.4,0-0.7,0.1-1c0.1-0.2,0.2-0.4,0.4-0.7c0.2-0.3,0.5-0.4,0.8-0.5
		c0.2-0.1,0.4-0.1,0.6-0.1c0.5,0,0.8,0.2,1,0.6c0.1,0.2,0.2,0.6,0.2,0.9v4h1.1v-4.1c0-0.6-0.1-1.1-0.3-1.5c-0.3-0.6-0.9-1-1.8-1
		c-0.4,0-0.8,0.1-1.1,0.2c-0.3,0.2-0.7,0.4-1,0.8v-0.9h-1V368.2z M261.8,361.6c-0.9,0-1.6,0.3-2.2,1c-0.5,0.6-0.8,1.5-0.8,2.6
		c0,1,0.3,1.8,0.8,2.4s1.2,0.9,2.1,0.9c1,0,1.8-0.3,2.3-1c0.5-0.7,0.7-1.5,0.7-2.6c0-1.1-0.3-1.9-0.8-2.4S262.6,361.6,261.8,361.6z
		 M261.7,367.5c-0.6,0-1.1-0.2-1.4-0.7c-0.3-0.5-0.4-1-0.4-1.7c0-0.7,0.1-1.3,0.4-1.8c0.3-0.5,0.8-0.8,1.4-0.8
		c0.7,0,1.2,0.3,1.5,0.9c0.2,0.4,0.3,0.9,0.3,1.5c0,0.7-0.1,1.3-0.4,1.8C262.9,367.2,262.4,367.5,261.7,367.5z M256.5,360.6h1.1
		v-1.2h-1.1V360.6z M256.5,368.2h1.1v-6.4h-1.1V368.2z M253.3,361.8h-0.9v0.9h0.9v4.2c0,0.4,0.1,0.7,0.3,1c0.2,0.3,0.5,0.4,1,0.4
		c0.2,0,0.3,0,0.4,0c0.1,0,0.3,0,0.4-0.1v-0.9l-0.2,0l-0.2,0c-0.2,0-0.3,0-0.4-0.1c-0.2-0.1-0.2-0.2-0.2-0.4v-4.2h1v-0.9h-1V360
		h-1.1V361.8z M248,364.5c-0.6,0.1-1.1,0.3-1.5,0.6c-0.4,0.3-0.6,0.8-0.6,1.4c0,0.5,0.2,1,0.6,1.4s0.9,0.5,1.5,0.5
		c0.5,0,0.9-0.1,1.4-0.3s0.7-0.5,0.9-0.7c0,0.3,0.1,0.5,0.2,0.6c0.2,0.3,0.4,0.4,0.8,0.4c0.2,0,0.3,0,0.4,0c0.1,0,0.2,0,0.4-0.1
		v-0.8l-0.2,0l-0.2,0c-0.1,0-0.2,0-0.3-0.1s-0.1-0.2-0.1-0.3v-3.7c0-0.6-0.2-1.1-0.7-1.3c-0.5-0.3-1.1-0.4-1.8-0.4
		c-0.6,0-1.2,0.2-1.7,0.5c-0.5,0.3-0.7,0.9-0.8,1.7h1c0-0.3,0.1-0.6,0.3-0.8c0.2-0.3,0.6-0.5,1.2-0.5c0.5,0,0.9,0.1,1.1,0.2
		c0.3,0.2,0.4,0.4,0.4,0.8c0,0.2,0,0.3-0.1,0.4c-0.1,0.2-0.2,0.3-0.5,0.3L248,364.5z M247.1,366.5c0-0.4,0.2-0.7,0.5-0.9
		c0.2-0.1,0.5-0.2,0.9-0.2l0.7-0.1c0.2,0,0.4-0.1,0.6-0.1c0.2-0.1,0.4-0.1,0.5-0.2v0.9c0,0.7-0.3,1.1-0.9,1.4
		c-0.4,0.2-0.7,0.3-1.1,0.3c-0.3,0-0.6-0.1-0.8-0.3C247.2,367,247.1,366.8,247.1,366.5z M239.3,370.7h1.1v-3.3
		c0.2,0.3,0.5,0.5,0.6,0.6c0.3,0.2,0.7,0.3,1.2,0.3c0.6,0,1.2-0.2,1.6-0.6c0.7-0.6,1.1-1.6,1.1-3c0-1-0.3-1.8-0.8-2.4
		c-0.5-0.6-1.1-0.8-1.9-0.8c-0.5,0-0.9,0.1-1.3,0.4c-0.3,0.2-0.5,0.4-0.7,0.7v-0.8h-1.1V370.7z M242.1,367.4c-0.7,0-1.3-0.3-1.5-1
		c-0.1-0.3-0.2-0.8-0.2-1.3c0-0.6,0.1-1.1,0.2-1.5c0.3-0.7,0.8-1.1,1.5-1.1c0.7,0,1.3,0.4,1.5,1.1c0.1,0.4,0.2,0.8,0.2,1.3
		c0,0.8-0.2,1.5-0.5,1.9S242.6,367.4,242.1,367.4z M236.7,360.6h1.1v-1.2h-1.1V360.6z M236.7,368.2h1.1v-6.4h-1.1V368.2z
		 M233.1,361.6c-0.8,0-1.5,0.3-2.1,0.9s-0.8,1.5-0.8,2.6c0,0.9,0.2,1.7,0.7,2.3s1.2,0.9,2,0.9c0.7,0,1.4-0.2,1.8-0.6
		c0.5-0.4,0.8-1,0.9-1.9h-1c-0.1,0.5-0.3,0.8-0.5,1.1c-0.3,0.3-0.6,0.4-1.1,0.4c-0.6,0-1-0.2-1.3-0.7c-0.3-0.4-0.4-1-0.4-1.6
		c0-0.6,0.1-1.2,0.3-1.6c0.3-0.7,0.8-1,1.5-1c0.5,0,0.9,0.1,1.1,0.4c0.2,0.3,0.4,0.6,0.4,1h1c-0.1-0.9-0.4-1.5-0.8-1.8
		C234.4,361.8,233.8,361.6,233.1,361.6z M227.9,360.6h1.1v-1.2h-1.1V360.6z M227.9,368.2h1.1v-6.4h-1.1V368.2z M224.7,361.8h-0.9
		v0.9h0.9v4.2c0,0.4,0.1,0.7,0.3,1c0.2,0.3,0.5,0.4,1,0.4c0.2,0,0.3,0,0.4,0c0.1,0,0.3,0,0.4-0.1v-0.9l-0.2,0l-0.2,0
		c-0.2,0-0.3,0-0.4-0.1c-0.2-0.1-0.2-0.2-0.2-0.4v-4.2h1v-0.9h-1V360h-1.1V361.8z M220.4,368.2h1.1v-3.7c0-0.5,0.1-0.9,0.4-1.2
		c0.3-0.3,0.7-0.5,1.2-0.5l0.2,0l0.2,0v-1.1c-0.1,0-0.2,0-0.2,0l-0.1,0c-0.4,0-0.8,0.2-1.1,0.5c-0.3,0.3-0.5,0.6-0.6,0.8v-1.1h-1
		V368.2z M215.3,364.5c-0.6,0.1-1.1,0.3-1.5,0.6c-0.4,0.3-0.6,0.8-0.6,1.4c0,0.5,0.2,1,0.6,1.4s0.9,0.5,1.5,0.5
		c0.5,0,0.9-0.1,1.4-0.3s0.7-0.5,0.9-0.7c0,0.3,0.1,0.5,0.2,0.6c0.2,0.3,0.4,0.4,0.8,0.4c0.2,0,0.3,0,0.4,0c0.1,0,0.2,0,0.4-0.1
		v-0.8l-0.2,0l-0.2,0c-0.1,0-0.2,0-0.3-0.1s-0.1-0.2-0.1-0.3v-3.7c0-0.6-0.2-1.1-0.7-1.3c-0.5-0.3-1.1-0.4-1.8-0.4
		c-0.6,0-1.2,0.2-1.7,0.5c-0.5,0.3-0.7,0.9-0.8,1.7h1c0-0.3,0.1-0.6,0.3-0.8c0.2-0.3,0.6-0.5,1.2-0.5c0.5,0,0.9,0.1,1.1,0.2
		c0.3,0.2,0.4,0.4,0.4,0.8c0,0.2,0,0.3-0.1,0.4c-0.1,0.2-0.2,0.3-0.5,0.3L215.3,364.5z M214.4,366.5c0-0.4,0.2-0.7,0.5-0.9
		c0.2-0.1,0.5-0.2,0.9-0.2l0.7-0.1c0.2,0,0.4-0.1,0.6-0.1c0.2-0.1,0.4-0.1,0.5-0.2v0.9c0,0.7-0.3,1.1-0.9,1.4
		c-0.4,0.2-0.7,0.3-1.1,0.3c-0.3,0-0.6-0.1-0.8-0.3C214.5,367,214.4,366.8,214.4,366.5z M206.7,370.7h1.1v-3.3
		c0.2,0.3,0.5,0.5,0.6,0.6c0.3,0.2,0.7,0.3,1.2,0.3c0.6,0,1.2-0.2,1.6-0.6c0.7-0.6,1.1-1.6,1.1-3c0-1-0.3-1.8-0.8-2.4
		c-0.5-0.6-1.1-0.8-1.9-0.8c-0.5,0-0.9,0.1-1.3,0.4c-0.3,0.2-0.5,0.4-0.7,0.7v-0.8h-1.1V370.7z M209.5,367.4c-0.7,0-1.3-0.3-1.5-1
		c-0.1-0.3-0.2-0.8-0.2-1.3c0-0.6,0.1-1.1,0.2-1.5c0.3-0.7,0.8-1.1,1.5-1.1c0.7,0,1.3,0.4,1.5,1.1c0.1,0.4,0.2,0.8,0.2,1.3
		c0,0.8-0.2,1.5-0.5,1.9S210,367.4,209.5,367.4z M199.3,368.2h1.1v-3.7c0-0.5,0.1-0.9,0.4-1.2c0.3-0.3,0.7-0.5,1.2-0.5l0.2,0l0.2,0
		v-1.1c-0.1,0-0.2,0-0.2,0l-0.1,0c-0.4,0-0.8,0.2-1.1,0.5c-0.3,0.3-0.5,0.6-0.6,0.8v-1.1h-1V368.2z M195,361.6c-0.9,0-1.6,0.3-2.2,1
		c-0.5,0.6-0.8,1.5-0.8,2.6c0,1,0.3,1.8,0.8,2.4s1.2,0.9,2.1,0.9c1,0,1.8-0.3,2.3-1c0.5-0.7,0.7-1.5,0.7-2.6c0-1.1-0.3-1.9-0.8-2.4
		S195.8,361.6,195,361.6z M195,367.5c-0.6,0-1.1-0.2-1.4-0.7c-0.3-0.5-0.4-1-0.4-1.7c0-0.7,0.1-1.3,0.4-1.8c0.3-0.5,0.8-0.8,1.4-0.8
		c0.7,0,1.2,0.3,1.5,0.9c0.2,0.4,0.3,0.9,0.3,1.5c0,0.7-0.1,1.3-0.4,1.8C196.2,367.2,195.7,367.5,195,367.5z M187.9,361.7
		c-0.9,0-1.6,0.3-2,1c-0.5,0.7-0.7,1.5-0.7,2.4c0,1,0.3,1.8,0.8,2.4c0.5,0.6,1.1,0.9,1.8,0.9c0.4,0,0.8-0.1,1.2-0.3
		c0.3-0.2,0.6-0.5,0.9-0.9v0.9h1v-8.8h-1v3.2c-0.2-0.3-0.5-0.5-0.6-0.6C188.8,361.8,188.4,361.7,187.9,361.7z M186.3,365
		c0-0.8,0.2-1.4,0.5-1.8c0.3-0.4,0.8-0.6,1.3-0.6c0.5,0,0.9,0.2,1.2,0.6c0.3,0.4,0.5,1,0.5,1.8c0,0.8-0.2,1.4-0.5,1.8
		s-0.7,0.6-1.2,0.6c-0.6,0-1.1-0.2-1.4-0.7C186.5,366.3,186.3,365.7,186.3,365z M178.8,368.2h1.1v-3.4c0-0.4,0-0.7,0.1-1
		c0.1-0.2,0.2-0.4,0.4-0.7c0.2-0.3,0.5-0.4,0.8-0.5c0.2-0.1,0.4-0.1,0.6-0.1c0.5,0,0.8,0.2,1,0.6c0.1,0.2,0.2,0.6,0.2,0.9v4h1.1
		v-4.1c0-0.6-0.1-1.1-0.3-1.5c-0.3-0.6-0.9-1-1.8-1c-0.4,0-0.8,0.1-1.1,0.2c-0.3,0.2-0.7,0.4-1,0.8v-0.9h-1V368.2z M172.8,364.5
		c0-0.5,0.2-1,0.5-1.4s0.7-0.5,1.2-0.5c0.7,0,1.2,0.3,1.5,0.8c0.2,0.3,0.3,0.7,0.3,1.1H172.8z M174.7,361.6c-0.9,0-1.6,0.3-2.2,1
		c-0.6,0.6-0.8,1.5-0.8,2.5c0,1,0.3,1.9,0.8,2.4c0.6,0.6,1.2,0.9,2,0.9c0.3,0,0.6,0,0.9-0.1c0.5-0.1,0.9-0.3,1.2-0.6
		c0.2-0.2,0.4-0.4,0.5-0.7c0.2-0.3,0.3-0.6,0.3-0.8h-1.1c-0.1,0.3-0.2,0.5-0.4,0.8c-0.3,0.4-0.8,0.6-1.3,0.6c-0.6,0-1-0.2-1.3-0.6
		c-0.3-0.4-0.4-0.9-0.5-1.6h4.7c0-0.6,0-1.1-0.1-1.4c-0.1-0.4-0.2-0.8-0.4-1.1c-0.2-0.3-0.5-0.6-1-0.8
		C175.6,361.7,175.1,361.6,174.7,361.6z M165.2,361.8l2.4,6.4h1.1l2.4-6.4h-1.2l-1.8,5.2l-1.7-5.2H165.2z M159.8,368.2h1.1v-8.8
		h-1.1V368.2z M157.1,368.2h1.1v-8.8h-1.1V368.2z M150.2,361.8v4.4c0,0.5,0.1,1,0.3,1.3c0.3,0.6,0.9,0.9,1.8,0.9
		c0.6,0,1.1-0.2,1.5-0.5c0.2-0.2,0.4-0.4,0.5-0.6l0,0.9h1v-6.4h-1.1v3.1c0,0.6-0.1,1.1-0.2,1.5c-0.3,0.7-0.8,1-1.5,1
		c-0.5,0-0.9-0.2-1-0.6c-0.1-0.2-0.2-0.5-0.2-0.8v-4.3H150.2z M143,368.2h1.2v-4h4.3v-1h-4.3v-2.7h4.9v-1.1H143V368.2z"/>
	<path class="st5" d="M58.6,365.8c-0.7,0-1.3-0.6-1.3-1.3c0-0.7,0.6-1.3,1.3-1.3c0.7,0,1.3,0.6,1.3,1.3
		C59.8,365.2,59.3,365.8,58.6,365.8"/>
	<path class="st6" d="M73.6,364.5c0,2.8-2.2,5-5,5c-2.8,0-5-2.2-5-5s2.2-5,5-5C71.4,359.5,73.6,361.7,73.6,364.5z"/>
	<path class="st5" d="M73.6,364.5h-0.2c0,1.3-0.5,2.5-1.4,3.4c-0.9,0.9-2.1,1.4-3.4,1.4c-1.3,0-2.5-0.5-3.4-1.4
		c-0.9-0.9-1.4-2.1-1.4-3.4c0-1.3,0.5-2.5,1.4-3.4c0.9-0.9,2.1-1.4,3.4-1.4c2.6,0,4.8,2.1,4.8,4.8H73.6h0.2c0-2.9-2.4-5.3-5.3-5.3
		c-2.9,0-5.3,2.4-5.3,5.3c0,2.9,2.4,5.3,5.3,5.3c2.9,0,5.3-2.4,5.3-5.3H73.6z"/>
	<path class="st5" d="M69.9,364.5c0,0.7-0.6,1.3-1.3,1.3c-0.7,0-1.3-0.6-1.3-1.3c0-0.7,0.6-1.3,1.3-1.3
		C69.3,363.2,69.9,363.8,69.9,364.5"/>
	<path class="st6" d="M91.2,364.5c0,3.8-3.1,6.9-6.9,6.9s-6.9-3.1-6.9-6.9c0-3.8,3.1-6.9,6.9-6.9C88.1,357.6,91.2,360.7,91.2,364.5z
		"/>
	<path class="st5" d="M91.2,364.5h-0.2c0,1.8-0.7,3.5-1.9,4.7c-1.2,1.2-2.9,1.9-4.7,1.9c-1.8,0-3.5-0.7-4.7-1.9
		c-1.2-1.2-1.9-2.9-1.9-4.7c0-1.8,0.7-3.5,1.9-4.7c1.2-1.2,2.9-1.9,4.7-1.9c1.8,0,3.5,0.7,4.7,1.9c1.2,1.2,1.9,2.9,1.9,4.7H91.2h0.2
		c0-4-3.2-7.1-7.1-7.1c-3.9,0-7.1,3.2-7.1,7.1c0,3.9,3.2,7.1,7.1,7.1c3.9,0,7.1-3.2,7.1-7.1H91.2z"/>
	<path class="st5" d="M85.5,364.5c0,0.7-0.6,1.3-1.3,1.3c-0.7,0-1.3-0.6-1.3-1.3c0-0.7,0.6-1.3,1.3-1.3
		C85,363.2,85.5,363.8,85.5,364.5"/>
	
		<ellipse transform="matrix(0.1897 -0.9818 0.9818 0.1897 -274.313 396.5703)" class="st6" cx="103.1" cy="364.5" rx="8.8" ry="8.8"/>
	<path class="st5" d="M94.3,364.4l0.2,0c0-4.7,3.8-8.5,8.5-8.5l0,0h0c4.7,0,8.5,3.8,8.5,8.5l0,0v0c0,4.7-3.8,8.5-8.5,8.5l0,0
		c-4.7,0-8.5-3.8-8.5-8.5l0,0v0L94.3,364.4l-0.2,0l0,0c0,5,4,9,9,9l0,0c5,0,9-4,9-9v0l0,0c0-5-4-9-9-9h0l0,0c-5,0-9,4-9,9v0
		L94.3,364.4z"/>
	<circle class="st5" cx="103.1" cy="364.5" r="1.3"/>
	<path class="st6" d="M126.3,375.8c-6.2,0-11.3-5-11.3-11.3c0-6.2,5.1-11.3,11.3-11.3c6.2,0,11.3,5.1,11.3,11.3
		C137.6,370.7,132.5,375.8,126.3,375.8z"/>
	<path class="st5" d="M126.3,375.8v-0.2c-3,0-5.8-1.2-7.8-3.2c-2-2-3.2-4.8-3.2-7.8c0-3,1.2-5.8,3.2-7.8c2-2,4.8-3.2,7.8-3.2
		c3,0,5.8,1.2,7.8,3.2c2,2,3.2,4.8,3.2,7.8c0,3-1.2,5.8-3.2,7.8c-2,2-4.8,3.2-7.8,3.2V375.8v0.2c6.4,0,11.5-5.2,11.5-11.5
		c0-6.4-5.2-11.5-11.5-11.5c-6.4,0-11.5,5.2-11.5,11.5c0,6.4,5.2,11.5,11.5,11.5V375.8z"/>
	<path class="st5" d="M126.3,365.8c-0.7,0-1.3-0.6-1.3-1.3c0-0.7,0.6-1.3,1.3-1.3s1.3,0.6,1.3,1.3
		C127.6,365.2,127,365.8,126.3,365.8"/>
	<path class="st6" d="M58.6,391.8c-0.7,0-1.3-0.6-1.3-1.3c0-0.7,0.6-1.3,1.3-1.3c0.7,0,1.3,0.6,1.3,1.3
		C59.8,391.2,59.3,391.8,58.6,391.8z"/>
	<path class="st5" d="M58.6,391.8v-0.2c-0.6,0-1-0.5-1-1c0-0.6,0.4-1,1-1c0.6,0,1,0.4,1,1c0,0.6-0.4,1-1,1V391.8v0.2
		c0.8,0,1.5-0.7,1.5-1.5c0-0.8-0.7-1.5-1.5-1.5c-0.8,0-1.5,0.7-1.5,1.5c0,0.8,0.7,1.5,1.5,1.5V391.8z"/>
	<path class="st7" d="M73.6,390.5c0,2.8-2.2,5-5,5c-2.8,0-5-2.2-5-5c0-2.8,2.2-5,5-5C71.4,385.5,73.6,387.7,73.6,390.5z"/>
	<path class="st8" d="M73.6,390.5h-0.2c0,1.3-0.5,2.5-1.4,3.4c-0.9,0.9-2.1,1.4-3.4,1.4c-1.3,0-2.5-0.5-3.4-1.4
		c-0.9-0.9-1.4-2.1-1.4-3.4c0-1.3,0.5-2.5,1.4-3.4c0.9-0.9,2.1-1.4,3.4-1.4c2.6,0,4.8,2.1,4.8,4.8H73.6h0.2c0-2.9-2.4-5.3-5.3-5.3
		c-2.9,0-5.3,2.4-5.3,5.3c0,2.9,2.4,5.3,5.3,5.3c2.9,0,5.3-2.4,5.3-5.3H73.6z"/>
	<path class="st6" d="M69.9,390.5c0,0.7-0.6,1.3-1.3,1.3c-0.7,0-1.3-0.6-1.3-1.3s0.6-1.3,1.3-1.3C69.3,389.3,69.9,389.8,69.9,390.5z
		"/>
	<path class="st5" d="M69.9,390.5h-0.2c0,0.6-0.4,1-1,1c-0.6,0-1-0.4-1-1c0-0.6,0.5-1,1-1c0.6,0,1,0.4,1,1H69.9h0.2
		c0-0.8-0.7-1.5-1.5-1.5c-0.8,0-1.5,0.7-1.5,1.5c0,0.8,0.7,1.5,1.5,1.5c0.8,0,1.5-0.7,1.5-1.5H69.9z"/>
	<path class="st7" d="M91.2,390.5c0,3.8-3.1,6.9-6.9,6.9c-3.8,0-6.9-3.1-6.9-6.9c0-3.8,3.1-6.9,6.9-6.9
		C88.1,383.6,91.2,386.7,91.2,390.5z"/>
	<path class="st8" d="M91.2,390.5h-0.2c0,1.8-0.7,3.5-1.9,4.7c-1.2,1.2-2.9,1.9-4.7,1.9c-1.8,0-3.5-0.7-4.7-1.9
		c-1.2-1.2-1.9-2.9-1.9-4.7c0-1.8,0.7-3.5,1.9-4.7c1.2-1.2,2.9-1.9,4.7-1.9c1.8,0,3.5,0.7,4.7,1.9c1.2,1.2,1.9,2.9,1.9,4.7H91.2h0.2
		c0-3.9-3.2-7.1-7.1-7.1c-3.9,0-7.1,3.2-7.1,7.1c0,3.9,3.2,7.1,7.1,7.1c3.9,0,7.1-3.2,7.1-7.1H91.2z"/>
	<path class="st6" d="M85.5,390.5c0,0.7-0.6,1.3-1.3,1.3c-0.7,0-1.3-0.6-1.3-1.3s0.6-1.3,1.3-1.3C85,389.3,85.5,389.8,85.5,390.5z"
		/>
	<path class="st5" d="M85.5,390.5h-0.2c0,0.6-0.4,1-1,1c-0.6,0-1-0.4-1-1c0-0.6,0.5-1,1-1c0.6,0,1,0.4,1,1H85.5h0.2
		c0-0.8-0.7-1.5-1.5-1.5c-0.8,0-1.5,0.7-1.5,1.5c0,0.8,0.7,1.5,1.5,1.5c0.8,0,1.5-0.7,1.5-1.5H85.5z"/>
	<path class="st7" d="M94.3,390.5c0-4.8,4-8.8,8.8-8.7c4.8,0,8.8,4,8.7,8.8c0,4.8-4,8.8-8.8,8.7C98.2,399.3,94.3,395.3,94.3,390.5z"
		/>
	<path class="st8" d="M94.3,390.5l0.2,0c0-4.7,3.8-8.5,8.5-8.5l0,0c4.7,0,8.5,3.8,8.5,8.5l0,0v0c0,4.7-3.8,8.5-8.5,8.5l0,0
		c-4.7,0-8.5-3.8-8.5-8.5l0,0v0L94.3,390.5l-0.2,0l0,0c0,5,4,9,9,9l0,0c5,0,9-4,9-9v0l0,0c0-5-4-9-9-9l0,0c-5,0-9,4-9,9v0
		L94.3,390.5z"/>
	<path class="st6" d="M103.1,391.8c-0.7,0-1.3-0.6-1.3-1.3s0.6-1.3,1.3-1.3c0.7,0,1.3,0.6,1.3,1.3S103.8,391.8,103.1,391.8z"/>
	<path class="st5" d="M103.1,391.8v-0.2c-0.6,0-1-0.5-1-1c0-0.6,0.5-1,1-1c0.6,0,1,0.5,1,1c0,0.6-0.4,1-1,1V391.8v0.2
		c0.8,0,1.5-0.7,1.5-1.5c0-0.8-0.7-1.5-1.5-1.5c-0.8,0-1.5,0.7-1.5,1.5c0,0.8,0.7,1.5,1.5,1.5V391.8z"/>
	<path class="st7" d="M126.3,401.8c-6.2,0-11.3-5-11.3-11.3c0-6.2,5.1-11.3,11.3-11.3c6.2,0,11.3,5.1,11.3,11.3
		C137.6,396.8,132.5,401.8,126.3,401.8z"/>
	<path class="st8" d="M126.3,401.8v-0.2c-3,0-5.8-1.2-7.8-3.2c-2-2-3.2-4.8-3.2-7.8c0-3,1.2-5.8,3.2-7.8c2-2,4.8-3.2,7.8-3.2
		c3,0,5.8,1.2,7.8,3.2c2,2,3.2,4.8,3.2,7.8c0,3-1.2,5.8-3.2,7.8c-2,2-4.8,3.2-7.8,3.2V401.8v0.2c6.4,0,11.5-5.2,11.5-11.5
		c0-6.4-5.2-11.5-11.5-11.5c-6.4,0-11.5,5.2-11.5,11.5c0,6.4,5.2,11.5,11.5,11.5V401.8z"/>
	<path class="st6" d="M126.3,391.8c-0.7,0-1.3-0.6-1.3-1.3s0.6-1.3,1.3-1.3s1.3,0.6,1.3,1.3S127,391.8,126.3,391.8z"/>
	<path class="st5" d="M126.3,391.8v-0.2c-0.6,0-1-0.5-1-1c0-0.6,0.4-1,1-1c0.6,0,1,0.5,1,1c0,0.6-0.4,1-1,1V391.8v0.2
		c0.8,0,1.5-0.7,1.5-1.5c0-0.8-0.7-1.5-1.5-1.5c-0.8,0-1.5,0.7-1.5,1.5c0,0.8,0.7,1.5,1.5,1.5V391.8z"/>
	<path class="st4" d="M306.2,394.2h1.1v-3.4c0-0.4,0-0.7,0.1-1c0.1-0.2,0.2-0.4,0.4-0.7c0.2-0.3,0.5-0.4,0.8-0.5
		c0.2-0.1,0.4-0.1,0.6-0.1c0.5,0,0.8,0.2,1,0.6c0.1,0.2,0.2,0.6,0.2,0.9v4h1.1v-4.1c0-0.6-0.1-1.1-0.3-1.5c-0.3-0.6-0.9-1-1.8-1
		c-0.4,0-0.8,0.1-1.1,0.2c-0.3,0.2-0.7,0.4-1,0.8v-0.9h-1V394.2z M301.9,387.6c-0.9,0-1.6,0.3-2.2,1c-0.5,0.6-0.8,1.5-0.8,2.6
		c0,1,0.3,1.8,0.8,2.4s1.2,0.9,2.1,0.9c1,0,1.8-0.3,2.3-1c0.5-0.7,0.7-1.5,0.7-2.6c0-1.1-0.3-1.9-0.8-2.4S302.8,387.6,301.9,387.6z
		 M301.9,393.5c-0.6,0-1.1-0.2-1.4-0.7c-0.3-0.5-0.4-1-0.4-1.7c0-0.7,0.1-1.3,0.4-1.8c0.3-0.5,0.8-0.8,1.4-0.8
		c0.7,0,1.2,0.3,1.5,0.9c0.2,0.4,0.3,0.9,0.3,1.5c0,0.7-0.1,1.3-0.4,1.8C303.1,393.2,302.6,393.5,301.9,393.5z M296.7,386.6h1.1
		v-1.2h-1.1V386.6z M296.7,394.2h1.1v-6.4h-1.1V394.2z M293.5,387.8h-0.9v0.9h0.9v4.2c0,0.4,0.1,0.7,0.3,1c0.2,0.3,0.5,0.4,1,0.4
		c0.2,0,0.3,0,0.4,0c0.1,0,0.3,0,0.4-0.1v-0.9l-0.2,0l-0.2,0c-0.2,0-0.3,0-0.4-0.1c-0.2-0.1-0.2-0.2-0.2-0.4v-4.2h1v-0.9h-1V386
		h-1.1V387.8z M288.2,390.5c-0.6,0.1-1.1,0.3-1.5,0.6c-0.4,0.3-0.6,0.8-0.6,1.4c0,0.5,0.2,1,0.6,1.4s0.9,0.5,1.5,0.5
		c0.5,0,0.9-0.1,1.4-0.3s0.7-0.5,0.9-0.7c0,0.3,0.1,0.5,0.2,0.6c0.2,0.3,0.4,0.4,0.8,0.4c0.2,0,0.3,0,0.4,0c0.1,0,0.2,0,0.4-0.1
		v-0.8l-0.2,0l-0.2,0c-0.1,0-0.2,0-0.3-0.1s-0.1-0.2-0.1-0.3v-3.7c0-0.6-0.2-1.1-0.7-1.3c-0.5-0.3-1.1-0.4-1.8-0.4
		c-0.6,0-1.2,0.2-1.7,0.5c-0.5,0.3-0.7,0.9-0.8,1.7h1c0-0.3,0.1-0.6,0.3-0.8c0.2-0.3,0.6-0.5,1.2-0.5c0.5,0,0.9,0.1,1.1,0.2
		c0.3,0.2,0.4,0.4,0.4,0.8c0,0.2,0,0.3-0.1,0.4c-0.1,0.2-0.2,0.3-0.5,0.3L288.2,390.5z M287.3,392.5c0-0.4,0.2-0.7,0.5-0.9
		c0.2-0.1,0.5-0.2,0.9-0.2l0.7-0.1c0.2,0,0.4-0.1,0.6-0.1c0.2-0.1,0.4-0.1,0.5-0.2v0.9c0,0.7-0.3,1.1-0.9,1.4
		c-0.4,0.2-0.7,0.3-1.1,0.3c-0.3,0-0.6-0.1-0.8-0.3C287.4,393.1,287.3,392.8,287.3,392.5z M279.5,396.8h1.1v-3.3
		c0.2,0.3,0.5,0.5,0.6,0.6c0.3,0.2,0.7,0.3,1.2,0.3c0.6,0,1.2-0.2,1.6-0.6c0.7-0.6,1.1-1.6,1.1-3c0-1-0.3-1.8-0.8-2.4
		c-0.5-0.6-1.1-0.8-1.9-0.8c-0.5,0-0.9,0.1-1.3,0.4c-0.3,0.2-0.5,0.4-0.7,0.7v-0.8h-1.1V396.8z M282.3,393.5c-0.7,0-1.3-0.3-1.5-1
		c-0.1-0.3-0.2-0.8-0.2-1.3c0-0.6,0.1-1.1,0.2-1.5c0.3-0.7,0.8-1.1,1.5-1.1c0.7,0,1.3,0.4,1.5,1.1c0.1,0.4,0.2,0.8,0.2,1.3
		c0,0.8-0.2,1.5-0.5,1.9S282.8,393.5,282.3,393.5z M276.9,386.6h1.1v-1.2h-1.1V386.6z M276.9,394.2h1.1v-6.4h-1.1V394.2z
		 M273.2,387.6c-0.8,0-1.5,0.3-2.1,0.9s-0.8,1.5-0.8,2.6c0,0.9,0.2,1.7,0.7,2.3s1.2,0.9,2,0.9c0.7,0,1.4-0.2,1.8-0.6
		c0.5-0.4,0.8-1,0.9-1.9h-1c-0.1,0.5-0.3,0.8-0.5,1.1c-0.3,0.3-0.6,0.4-1.1,0.4c-0.6,0-1-0.2-1.3-0.7c-0.3-0.4-0.4-1-0.4-1.6
		c0-0.6,0.1-1.2,0.3-1.6c0.3-0.7,0.8-1,1.5-1c0.5,0,0.9,0.1,1.1,0.4c0.2,0.3,0.4,0.6,0.4,1h1c-0.1-0.9-0.4-1.5-0.8-1.8
		C274.6,387.8,274,387.6,273.2,387.6z M268.1,386.6h1.1v-1.2h-1.1V386.6z M268.1,394.2h1.1v-6.4h-1.1V394.2z M264.9,387.8H264v0.9
		h0.9v4.2c0,0.4,0.1,0.7,0.3,1c0.2,0.3,0.5,0.4,1,0.4c0.2,0,0.3,0,0.4,0c0.1,0,0.3,0,0.4-0.1v-0.9l-0.2,0l-0.2,0
		c-0.2,0-0.3,0-0.4-0.1c-0.2-0.1-0.2-0.2-0.2-0.4v-4.2h1v-0.9h-1V386h-1.1V387.8z M260.6,394.2h1.1v-3.7c0-0.5,0.1-0.9,0.4-1.2
		c0.3-0.3,0.7-0.5,1.2-0.5l0.2,0l0.2,0v-1.1c-0.1,0-0.2,0-0.2,0l-0.1,0c-0.4,0-0.8,0.2-1.1,0.5c-0.3,0.3-0.5,0.6-0.6,0.8v-1.1h-1
		V394.2z M255.5,390.5c-0.6,0.1-1.1,0.3-1.5,0.6c-0.4,0.3-0.6,0.8-0.6,1.4c0,0.5,0.2,1,0.6,1.4s0.9,0.5,1.5,0.5
		c0.5,0,0.9-0.1,1.4-0.3s0.7-0.5,0.9-0.7c0,0.3,0.1,0.5,0.2,0.6c0.2,0.3,0.4,0.4,0.8,0.4c0.2,0,0.3,0,0.4,0c0.1,0,0.2,0,0.4-0.1
		v-0.8l-0.2,0l-0.2,0c-0.1,0-0.2,0-0.3-0.1s-0.1-0.2-0.1-0.3v-3.7c0-0.6-0.2-1.1-0.7-1.3c-0.5-0.3-1.1-0.4-1.8-0.4
		c-0.6,0-1.2,0.2-1.7,0.5c-0.5,0.3-0.7,0.9-0.8,1.7h1c0-0.3,0.1-0.6,0.3-0.8c0.2-0.3,0.6-0.5,1.2-0.5c0.5,0,0.9,0.1,1.1,0.2
		c0.3,0.2,0.4,0.4,0.4,0.8c0,0.2,0,0.3-0.1,0.4c-0.1,0.2-0.2,0.3-0.5,0.3L255.5,390.5z M254.6,392.5c0-0.4,0.2-0.7,0.5-0.9
		c0.2-0.1,0.5-0.2,0.9-0.2l0.7-0.1c0.2,0,0.4-0.1,0.6-0.1c0.2-0.1,0.4-0.1,0.5-0.2v0.9c0,0.7-0.3,1.1-0.9,1.4
		c-0.4,0.2-0.7,0.3-1.1,0.3c-0.3,0-0.6-0.1-0.8-0.3C254.7,393.1,254.6,392.8,254.6,392.5z M246.9,396.8h1.1v-3.3
		c0.2,0.3,0.5,0.5,0.6,0.6c0.3,0.2,0.7,0.3,1.2,0.3c0.6,0,1.2-0.2,1.6-0.6c0.7-0.6,1.1-1.6,1.1-3c0-1-0.3-1.8-0.8-2.4
		c-0.5-0.6-1.1-0.8-1.9-0.8c-0.5,0-0.9,0.1-1.3,0.4c-0.3,0.2-0.5,0.4-0.7,0.7v-0.8h-1.1V396.8z M249.6,393.5c-0.7,0-1.3-0.3-1.5-1
		c-0.1-0.3-0.2-0.8-0.2-1.3c0-0.6,0.1-1.1,0.2-1.5c0.3-0.7,0.8-1.1,1.5-1.1c0.7,0,1.3,0.4,1.5,1.1c0.1,0.4,0.2,0.8,0.2,1.3
		c0,0.8-0.2,1.5-0.5,1.9S250.2,393.5,249.6,393.5z M239.5,394.2h1.1v-3.7c0-0.5,0.1-0.9,0.4-1.2c0.3-0.3,0.7-0.5,1.2-0.5l0.2,0
		l0.2,0v-1.1c-0.1,0-0.2,0-0.2,0l-0.1,0c-0.4,0-0.8,0.2-1.1,0.5c-0.3,0.3-0.5,0.6-0.6,0.8v-1.1h-1V394.2z M235.2,387.6
		c-0.9,0-1.6,0.3-2.2,1c-0.5,0.6-0.8,1.5-0.8,2.6c0,1,0.3,1.8,0.8,2.4s1.2,0.9,2.1,0.9c1,0,1.8-0.3,2.3-1c0.5-0.7,0.7-1.5,0.7-2.6
		c0-1.1-0.3-1.9-0.8-2.4S236,387.6,235.2,387.6z M235.2,393.5c-0.6,0-1.1-0.2-1.4-0.7c-0.3-0.5-0.4-1-0.4-1.7c0-0.7,0.1-1.3,0.4-1.8
		c0.3-0.5,0.8-0.8,1.4-0.8c0.7,0,1.2,0.3,1.5,0.9c0.2,0.4,0.3,0.9,0.3,1.5c0,0.7-0.1,1.3-0.4,1.8
		C236.4,393.2,235.9,393.5,235.2,393.5z M228.1,387.7c-0.9,0-1.6,0.3-2,1c-0.5,0.7-0.7,1.5-0.7,2.4c0,1,0.3,1.8,0.8,2.4
		c0.5,0.6,1.1,0.9,1.8,0.9c0.4,0,0.8-0.1,1.2-0.3c0.3-0.2,0.6-0.5,0.9-0.9v0.9h1v-8.8h-1v3.2c-0.2-0.3-0.5-0.5-0.6-0.6
		C229,387.8,228.6,387.7,228.1,387.7z M226.5,391.1c0-0.8,0.2-1.4,0.5-1.8c0.3-0.4,0.8-0.6,1.3-0.6c0.5,0,0.9,0.2,1.2,0.6
		c0.3,0.4,0.5,1,0.5,1.8c0,0.8-0.2,1.4-0.5,1.8s-0.7,0.6-1.2,0.6c-0.6,0-1.1-0.2-1.4-0.7C226.7,392.3,226.5,391.8,226.5,391.1z
		 M219,394.2h1.1v-3.4c0-0.4,0-0.7,0.1-1c0.1-0.2,0.2-0.4,0.4-0.7c0.2-0.3,0.5-0.4,0.8-0.5c0.2-0.1,0.4-0.1,0.6-0.1
		c0.5,0,0.8,0.2,1,0.6c0.1,0.2,0.2,0.6,0.2,0.9v4h1.1v-4.1c0-0.6-0.1-1.1-0.3-1.5c-0.3-0.6-0.9-1-1.8-1c-0.4,0-0.8,0.1-1.1,0.2
		c-0.3,0.2-0.7,0.4-1,0.8v-0.9h-1V394.2z M213,390.5c0-0.5,0.2-1,0.5-1.4s0.7-0.5,1.2-0.5c0.7,0,1.2,0.3,1.5,0.8
		c0.2,0.3,0.3,0.7,0.3,1.1H213z M214.9,387.7c-0.9,0-1.6,0.3-2.2,1c-0.6,0.6-0.8,1.5-0.8,2.5c0,1,0.3,1.9,0.8,2.4
		c0.6,0.6,1.2,0.9,2,0.9c0.3,0,0.6,0,0.9-0.1c0.5-0.1,0.9-0.3,1.2-0.6c0.2-0.2,0.4-0.4,0.5-0.7c0.2-0.3,0.3-0.6,0.3-0.8h-1.1
		c-0.1,0.3-0.2,0.5-0.4,0.8c-0.3,0.4-0.8,0.6-1.3,0.6c-0.6,0-1-0.2-1.3-0.6c-0.3-0.4-0.4-0.9-0.5-1.6h4.7c0-0.6,0-1.1-0.1-1.4
		c-0.1-0.4-0.2-0.8-0.4-1.1c-0.2-0.3-0.5-0.6-1-0.8C215.7,387.8,215.3,387.7,214.9,387.7z M205.4,387.8l2.4,6.4h1.1l2.4-6.4h-1.2
		l-1.8,5.2l-1.7-5.2H205.4z M196.7,390.5c0-0.5,0.2-1,0.5-1.4s0.7-0.5,1.2-0.5c0.7,0,1.2,0.3,1.5,0.8c0.2,0.3,0.3,0.7,0.3,1.1H196.7
		z M198.5,387.7c-0.9,0-1.6,0.3-2.2,1c-0.6,0.6-0.8,1.5-0.8,2.5c0,1,0.3,1.9,0.8,2.4c0.6,0.6,1.2,0.9,2,0.9c0.3,0,0.6,0,0.9-0.1
		c0.5-0.1,0.9-0.3,1.2-0.6c0.2-0.2,0.4-0.4,0.5-0.7c0.2-0.3,0.3-0.6,0.3-0.8h-1.1c-0.1,0.3-0.2,0.5-0.4,0.8
		c-0.3,0.4-0.8,0.6-1.3,0.6c-0.6,0-1-0.2-1.3-0.6c-0.3-0.4-0.4-0.9-0.5-1.6h4.7c0-0.6,0-1.1-0.1-1.4c-0.1-0.4-0.2-0.8-0.4-1.1
		c-0.2-0.3-0.5-0.6-1-0.8C199.4,387.8,199,387.7,198.5,387.7z M192.7,387.8h-0.9v0.9h0.9v4.2c0,0.4,0.1,0.7,0.3,1
		c0.2,0.3,0.5,0.4,1,0.4c0.2,0,0.3,0,0.4,0c0.1,0,0.3,0,0.4-0.1v-0.9l-0.2,0l-0.2,0c-0.2,0-0.3,0-0.4-0.1c-0.2-0.1-0.2-0.2-0.2-0.4
		v-4.2h1v-0.9h-1V386h-1.1V387.8z M186.5,390.5c0-0.5,0.2-1,0.5-1.4s0.7-0.5,1.2-0.5c0.7,0,1.2,0.3,1.5,0.8c0.2,0.3,0.3,0.7,0.3,1.1
		H186.5z M188.3,387.7c-0.9,0-1.6,0.3-2.2,1c-0.6,0.6-0.8,1.5-0.8,2.5c0,1,0.3,1.9,0.8,2.4c0.6,0.6,1.2,0.9,2,0.9
		c0.3,0,0.6,0,0.9-0.1c0.5-0.1,0.9-0.3,1.2-0.6c0.2-0.2,0.4-0.4,0.5-0.7c0.2-0.3,0.3-0.6,0.3-0.8H190c-0.1,0.3-0.2,0.5-0.4,0.8
		c-0.3,0.4-0.8,0.6-1.3,0.6c-0.6,0-1-0.2-1.3-0.6c-0.3-0.4-0.4-0.9-0.5-1.6h4.7c0-0.6,0-1.1-0.1-1.4c-0.1-0.4-0.2-0.8-0.4-1.1
		c-0.2-0.3-0.5-0.6-1-0.8C189.2,387.8,188.7,387.7,188.3,387.7z M183,394.2h1.1v-8.8H183V394.2z M176,396.8h1.1v-3.3
		c0.2,0.3,0.5,0.5,0.6,0.6c0.3,0.2,0.7,0.3,1.2,0.3c0.6,0,1.2-0.2,1.6-0.6c0.7-0.6,1.1-1.6,1.1-3c0-1-0.3-1.8-0.8-2.4
		c-0.5-0.6-1.1-0.8-1.9-0.8c-0.5,0-0.9,0.1-1.3,0.4c-0.3,0.2-0.5,0.4-0.7,0.7v-0.8H176V396.8z M178.8,393.5c-0.7,0-1.3-0.3-1.5-1
		c-0.1-0.3-0.2-0.8-0.2-1.3c0-0.6,0.1-1.1,0.2-1.5c0.3-0.7,0.8-1.1,1.5-1.1c0.7,0,1.3,0.4,1.5,1.1c0.1,0.4,0.2,0.8,0.2,1.3
		c0,0.8-0.2,1.5-0.5,1.9S179.3,393.5,178.8,393.5z M165.9,394.2h1.1v-3.4c0-0.8,0.2-1.4,0.5-1.7c0.3-0.3,0.7-0.5,1.1-0.5
		c0.4,0,0.8,0.1,0.9,0.4c0.1,0.2,0.2,0.5,0.2,1v4.2h1.1v-3.7c0-0.7,0.2-1.1,0.5-1.4c0.3-0.3,0.7-0.4,1.1-0.4c0.3,0,0.6,0.1,0.8,0.2
		c0.2,0.2,0.3,0.5,0.3,0.9v4.5h1.1v-4.3c0-0.6-0.1-1-0.3-1.4c-0.3-0.6-0.9-0.9-1.8-0.9c-0.4,0-0.8,0.1-1.1,0.2
		c-0.3,0.2-0.6,0.4-0.8,0.8c-0.1-0.3-0.3-0.5-0.5-0.6c-0.3-0.3-0.7-0.4-1.2-0.4c-0.5,0-0.9,0.1-1.2,0.4c-0.2,0.1-0.4,0.4-0.7,0.7
		v-0.9h-1.1V394.2z M161.7,387.6c-0.9,0-1.6,0.3-2.2,1c-0.5,0.6-0.8,1.5-0.8,2.6c0,1,0.3,1.8,0.8,2.4s1.2,0.9,2.1,0.9
		c1,0,1.8-0.3,2.3-1c0.5-0.7,0.7-1.5,0.7-2.6c0-1.1-0.3-1.9-0.8-2.4S162.5,387.6,161.7,387.6z M161.6,393.5c-0.6,0-1.1-0.2-1.4-0.7
		c-0.3-0.5-0.4-1-0.4-1.7c0-0.7,0.1-1.3,0.4-1.8c0.3-0.5,0.8-0.8,1.4-0.8c0.7,0,1.2,0.3,1.5,0.9c0.2,0.4,0.3,0.9,0.3,1.5
		c0,0.7-0.1,1.3-0.4,1.8C162.8,393.2,162.3,393.5,161.6,393.5z M155.4,387.6c-0.8,0-1.5,0.3-2.1,0.9s-0.8,1.5-0.8,2.6
		c0,0.9,0.2,1.7,0.7,2.3s1.2,0.9,2,0.9c0.7,0,1.4-0.2,1.8-0.6c0.5-0.4,0.8-1,0.9-1.9h-1c-0.1,0.5-0.3,0.8-0.5,1.1
		c-0.3,0.3-0.6,0.4-1.1,0.4c-0.6,0-1-0.2-1.3-0.7c-0.3-0.4-0.4-1-0.4-1.6c0-0.6,0.1-1.2,0.3-1.6c0.3-0.7,0.8-1,1.5-1
		c0.5,0,0.9,0.1,1.1,0.4c0.2,0.3,0.4,0.6,0.4,1h1c-0.1-0.9-0.4-1.5-0.8-1.8C156.8,387.8,156.2,387.6,155.4,387.6z M146.2,394.2h1.1
		v-3.4c0-0.4,0-0.7,0.1-1c0.1-0.2,0.2-0.4,0.4-0.7c0.2-0.3,0.5-0.4,0.8-0.5c0.2-0.1,0.4-0.1,0.6-0.1c0.5,0,0.8,0.2,1,0.6
		c0.1,0.2,0.2,0.6,0.2,0.9v4h1.1v-4.1c0-0.6-0.1-1.1-0.3-1.5c-0.3-0.6-0.9-1-1.8-1c-0.4,0-0.8,0.1-1.1,0.2c-0.3,0.2-0.7,0.4-1,0.8
		v-0.9h-1V394.2z M143.2,394.2h1.2v-8.8h-1.2V394.2z"/>
	<path class="st4" d="M163.2,158.2h1.1v-3.4c0-0.4,0-0.7,0.1-1c0.1-0.2,0.2-0.4,0.4-0.7c0.2-0.3,0.5-0.4,0.8-0.5
		c0.2-0.1,0.4-0.1,0.6-0.1c0.5,0,0.8,0.2,1,0.6c0.1,0.2,0.2,0.6,0.2,0.9v4h1.1v-4.1c0-0.6-0.1-1.1-0.3-1.5c-0.3-0.6-0.9-1-1.8-1
		c-0.4,0-0.8,0.1-1.1,0.2c-0.3,0.2-0.7,0.4-1,0.8v-0.9h-1V158.2z M158.1,154.5c-0.6,0.1-1.1,0.3-1.5,0.6c-0.4,0.3-0.6,0.8-0.6,1.4
		c0,0.5,0.2,1,0.6,1.4s0.9,0.5,1.5,0.5c0.5,0,0.9-0.1,1.4-0.3s0.7-0.5,0.9-0.7c0,0.3,0.1,0.5,0.2,0.6c0.2,0.3,0.4,0.4,0.8,0.4
		c0.2,0,0.3,0,0.4,0c0.1,0,0.2,0,0.4-0.1v-0.8l-0.2,0l-0.2,0c-0.1,0-0.2,0-0.3-0.1s-0.1-0.2-0.1-0.3v-3.7c0-0.6-0.2-1.1-0.7-1.3
		c-0.5-0.3-1.1-0.4-1.8-0.4c-0.6,0-1.2,0.2-1.7,0.5c-0.5,0.3-0.7,0.9-0.8,1.7h1c0-0.3,0.1-0.6,0.3-0.8c0.2-0.3,0.6-0.5,1.2-0.5
		c0.5,0,0.9,0.1,1.1,0.2c0.3,0.2,0.4,0.4,0.4,0.8c0,0.2,0,0.3-0.1,0.4c-0.1,0.2-0.2,0.3-0.5,0.3L158.1,154.5z M157.2,156.5
		c0-0.4,0.2-0.7,0.5-0.9c0.2-0.1,0.5-0.2,0.9-0.2l0.7-0.1c0.2,0,0.4-0.1,0.6-0.1c0.2-0.1,0.4-0.1,0.5-0.2v0.9c0,0.7-0.3,1.1-0.9,1.4
		c-0.4,0.2-0.7,0.3-1.1,0.3c-0.3,0-0.6-0.1-0.8-0.3C157.3,157,157.2,156.8,157.2,156.5z M153.6,150.6h1.1v-1.2h-1.1V150.6z
		 M153.6,158.2h1.1v-6.4h-1.1V158.2z M147.1,156.2c0,0.6,0.2,1.2,0.6,1.6c0.4,0.4,1.1,0.6,2.1,0.6c0.9,0,1.6-0.2,2-0.6
		c0.4-0.4,0.7-0.9,0.7-1.5c0-0.6-0.2-1-0.6-1.3c-0.3-0.2-0.8-0.4-1.6-0.5l-0.7-0.2c-0.3-0.1-0.6-0.2-0.7-0.3
		c-0.3-0.2-0.4-0.4-0.4-0.7c0-0.3,0.1-0.5,0.3-0.6s0.5-0.2,0.9-0.2c0.6,0,1.1,0.1,1.3,0.4c0.2,0.2,0.2,0.4,0.3,0.7h1
		c0-0.4-0.1-0.8-0.4-1.2c-0.4-0.6-1.1-0.8-2.1-0.8c-0.7,0-1.3,0.2-1.8,0.6c-0.4,0.4-0.7,0.9-0.7,1.5c0,0.5,0.2,0.9,0.7,1.2
		c0.3,0.2,0.7,0.3,1.2,0.5l0.9,0.2c0.5,0.1,0.8,0.2,0.9,0.3c0.2,0.1,0.4,0.4,0.4,0.6c0,0.4-0.2,0.6-0.5,0.8
		c-0.3,0.2-0.7,0.3-1.1,0.3c-0.7,0-1.2-0.2-1.4-0.5c-0.2-0.2-0.2-0.5-0.3-0.8H147.1z M141,156.2c0,0.6,0.2,1.2,0.6,1.6
		c0.4,0.4,1.1,0.6,2.1,0.6c0.9,0,1.6-0.2,2-0.6c0.4-0.4,0.7-0.9,0.7-1.5c0-0.6-0.2-1-0.6-1.3c-0.3-0.2-0.8-0.4-1.6-0.5l-0.7-0.2
		c-0.3-0.1-0.6-0.2-0.7-0.3c-0.3-0.2-0.4-0.4-0.4-0.7c0-0.3,0.1-0.5,0.3-0.6s0.5-0.2,0.9-0.2c0.6,0,1.1,0.1,1.3,0.4
		c0.2,0.2,0.2,0.4,0.3,0.7h1c0-0.4-0.1-0.8-0.4-1.2c-0.4-0.6-1.1-0.8-2.1-0.8c-0.7,0-1.3,0.2-1.8,0.6c-0.4,0.4-0.7,0.9-0.7,1.5
		c0,0.5,0.2,0.9,0.7,1.2c0.3,0.2,0.7,0.3,1.2,0.5l0.9,0.2c0.5,0.1,0.8,0.2,0.9,0.3c0.2,0.1,0.4,0.4,0.4,0.6c0,0.4-0.2,0.6-0.5,0.8
		c-0.3,0.2-0.7,0.3-1.1,0.3c-0.7,0-1.2-0.2-1.4-0.5c-0.2-0.2-0.2-0.5-0.3-0.8H141z M136.3,154.5c-0.6,0.1-1.1,0.3-1.5,0.6
		c-0.4,0.3-0.6,0.8-0.6,1.4c0,0.5,0.2,1,0.6,1.4s0.9,0.5,1.5,0.5c0.5,0,0.9-0.1,1.4-0.3s0.7-0.5,0.9-0.7c0,0.3,0.1,0.5,0.2,0.6
		c0.2,0.3,0.4,0.4,0.8,0.4c0.2,0,0.3,0,0.4,0c0.1,0,0.2,0,0.4-0.1v-0.8l-0.2,0l-0.2,0c-0.1,0-0.2,0-0.3-0.1s-0.1-0.2-0.1-0.3v-3.7
		c0-0.6-0.2-1.1-0.7-1.3c-0.5-0.3-1.1-0.4-1.8-0.4c-0.6,0-1.2,0.2-1.7,0.5c-0.5,0.3-0.7,0.9-0.8,1.7h1c0-0.3,0.1-0.6,0.3-0.8
		c0.2-0.3,0.6-0.5,1.2-0.5c0.5,0,0.9,0.1,1.1,0.2c0.3,0.2,0.4,0.4,0.4,0.8c0,0.2,0,0.3-0.1,0.4c-0.1,0.2-0.2,0.3-0.5,0.3
		L136.3,154.5z M135.4,156.5c0-0.4,0.2-0.7,0.5-0.9c0.2-0.1,0.5-0.2,0.9-0.2l0.7-0.1c0.2,0,0.4-0.1,0.6-0.1c0.2-0.1,0.4-0.1,0.5-0.2
		v0.9c0,0.7-0.3,1.1-0.9,1.4c-0.4,0.2-0.7,0.3-1.1,0.3c-0.3,0-0.6-0.1-0.8-0.3C135.5,157,135.4,156.8,135.4,156.5z M131.9,158.2h1.1
		v-8.8h-1.1V158.2z M128.6,151.8h-0.9v0.9h0.9v4.2c0,0.4,0.1,0.7,0.3,1c0.2,0.3,0.5,0.4,1,0.4c0.2,0,0.3,0,0.4,0
		c0.1,0,0.3,0,0.4-0.1v-0.9l-0.2,0l-0.2,0c-0.2,0-0.3,0-0.4-0.1c-0.2-0.1-0.2-0.2-0.2-0.4v-4.2h1v-0.9h-1V150h-1.1V151.8z
		 M119.7,158.2h1.2l1-2.6h3.4l0.9,2.6h1.3l-3.2-8.8H123L119.7,158.2z M122.2,154.6l1.4-3.9l1.4,3.9H122.2z"/>
	<path class="st4" d="M314,151.4c0,0.9,0.3,1.7,0.9,2.3c0.6,0.6,1.4,0.8,2.5,0.8c0.9,0,1.7-0.2,2.4-0.6c0.7-0.4,1-1.1,1-2.1
		c0-0.8-0.3-1.4-0.8-1.8c-0.3-0.2-0.8-0.4-1.3-0.6l-1.2-0.3c-0.8-0.2-1.3-0.4-1.5-0.5c-0.3-0.2-0.5-0.5-0.5-0.9c0-0.4,0.1-0.7,0.4-1
		c0.3-0.3,0.8-0.4,1.5-0.4c0.8,0,1.4,0.2,1.8,0.7c0.2,0.3,0.3,0.6,0.4,1.1h1.1c0-1-0.3-1.7-0.9-2.1c-0.6-0.4-1.4-0.7-2.3-0.7
		c-1,0-1.7,0.3-2.3,0.8c-0.5,0.5-0.8,1.2-0.8,1.9c0,0.7,0.3,1.3,0.8,1.6c0.3,0.2,0.8,0.4,1.6,0.6l1.2,0.3c0.6,0.1,1.1,0.3,1.4,0.5
		c0.3,0.2,0.4,0.5,0.4,1c0,0.6-0.3,1.1-1,1.3c-0.4,0.1-0.7,0.2-1.2,0.2c-1,0-1.6-0.3-2-0.9c-0.2-0.3-0.3-0.7-0.3-1.2H314z
		 M302.1,145.4l2.3,8.8h1.3l2-7.3l2,7.3h1.2l2.3-8.8h-1.3l-1.7,7.2l-2-7.2H307l-2,7.1l-1.7-7.1H302.1z M294.3,154.2h1.2l1-2.6h3.4
		l0.9,2.6h1.3l-3.2-8.8h-1.3L294.3,154.2z M296.8,150.6l1.4-3.9l1.4,3.9H296.8z"/>
	<path class="st4" d="M395.5,123.5h1.2v-8.8h-1.2V123.5z M390.1,114.5c-1.3,0-2.3,0.5-3,1.4c-0.7,0.8-1,1.9-1,3.2
		c0,1.7,0.5,3,1.4,3.8c0.7,0.6,1.5,0.9,2.5,0.9c1.2,0,2.1-0.4,2.8-1.1c0.6-0.6,0.9-1.4,1-2.3h-1.2c-0.1,0.6-0.3,1-0.5,1.4
		c-0.5,0.7-1.1,1-2,1c-0.9,0-1.6-0.3-2.1-1c-0.5-0.6-0.7-1.5-0.7-2.5c0-1.3,0.3-2.2,0.8-2.8c0.5-0.6,1.2-0.9,2.1-0.9
		c0.7,0,1.2,0.2,1.6,0.5c0.4,0.3,0.6,0.8,0.8,1.3h1.2c-0.1-0.7-0.4-1.4-1-2S391.2,114.5,390.1,114.5z M380.3,119.8
		c0-0.5,0.2-1,0.5-1.4s0.7-0.5,1.2-0.5c0.7,0,1.2,0.3,1.5,0.8c0.2,0.3,0.3,0.7,0.3,1.1H380.3z M382.1,116.9c-0.9,0-1.6,0.3-2.2,1
		c-0.6,0.6-0.8,1.5-0.8,2.5c0,1,0.3,1.9,0.8,2.4c0.6,0.6,1.2,0.9,2,0.9c0.3,0,0.6,0,0.9-0.1c0.5-0.1,0.9-0.3,1.2-0.6
		c0.2-0.2,0.4-0.4,0.5-0.7c0.2-0.3,0.3-0.6,0.3-0.8h-1.1c-0.1,0.3-0.2,0.5-0.4,0.8c-0.3,0.4-0.8,0.6-1.3,0.6c-0.6,0-1-0.2-1.3-0.6
		c-0.3-0.4-0.4-0.9-0.5-1.6h4.7c0-0.6,0-1.1-0.1-1.4c-0.1-0.4-0.2-0.8-0.4-1.1c-0.2-0.3-0.5-0.6-1-0.8
		C383,117,382.6,116.9,382.1,116.9z M376.8,123.5h1.1v-8.8h-1.1V123.5z M373.1,116.9c-0.8,0-1.5,0.3-2.1,0.9s-0.8,1.5-0.8,2.6
		c0,0.9,0.2,1.7,0.7,2.3s1.2,0.9,2,0.9c0.7,0,1.4-0.2,1.8-0.6c0.5-0.4,0.8-1,0.9-1.9h-1c-0.1,0.5-0.3,0.8-0.5,1.1
		c-0.3,0.3-0.6,0.4-1.1,0.4c-0.6,0-1-0.2-1.3-0.7c-0.3-0.4-0.4-1-0.4-1.6c0-0.6,0.1-1.2,0.3-1.6c0.3-0.7,0.8-1,1.5-1
		c0.5,0,0.9,0.1,1.1,0.4c0.2,0.3,0.4,0.6,0.4,1h1c-0.1-0.9-0.4-1.5-0.8-1.8C374.4,117.1,373.8,116.9,373.1,116.9z M366.6,123.5h1.1
		v-3.7c0-0.5,0.1-0.9,0.4-1.2c0.3-0.3,0.7-0.5,1.2-0.5l0.2,0l0.2,0V117c-0.1,0-0.2,0-0.2,0l-0.1,0c-0.4,0-0.8,0.2-1.1,0.5
		c-0.3,0.3-0.5,0.6-0.6,0.8v-1.1h-1V123.5z M363.8,115.9h1.1v-1.2h-1.1V115.9z M363.8,123.5h1.1v-6.4h-1.1V123.5z M358.8,114.5
		c-1.3,0-2.3,0.5-3,1.4c-0.7,0.8-1,1.9-1,3.2c0,1.7,0.5,3,1.4,3.8c0.7,0.6,1.5,0.9,2.5,0.9c1.2,0,2.1-0.4,2.8-1.1
		c0.6-0.6,0.9-1.4,1-2.3h-1.2c-0.1,0.6-0.3,1-0.5,1.4c-0.5,0.7-1.1,1-2,1c-0.9,0-1.6-0.3-2.1-1c-0.5-0.6-0.7-1.5-0.7-2.5
		c0-1.3,0.3-2.2,0.8-2.8c0.5-0.6,1.2-0.9,2.1-0.9c0.7,0,1.2,0.2,1.6,0.5c0.4,0.3,0.6,0.8,0.8,1.3h1.2c-0.1-0.7-0.4-1.4-1-2
		S359.9,114.5,358.8,114.5z"/>
	<path class="st4" d="M305.2,100.5c0,0.6,0.2,1.2,0.6,1.6c0.4,0.4,1.1,0.6,2.1,0.6c0.9,0,1.6-0.2,2-0.6c0.4-0.4,0.7-0.9,0.7-1.5
		c0-0.6-0.2-1-0.6-1.3c-0.3-0.2-0.8-0.4-1.6-0.5l-0.7-0.2c-0.3-0.1-0.6-0.2-0.7-0.3c-0.3-0.2-0.4-0.4-0.4-0.7c0-0.3,0.1-0.5,0.3-0.6
		s0.5-0.2,0.9-0.2c0.6,0,1.1,0.1,1.3,0.4c0.2,0.2,0.2,0.4,0.3,0.7h1c0-0.4-0.1-0.8-0.4-1.2c-0.4-0.6-1.1-0.8-2.1-0.8
		c-0.7,0-1.3,0.2-1.8,0.6c-0.4,0.4-0.7,0.9-0.7,1.5c0,0.5,0.2,0.9,0.7,1.2c0.3,0.2,0.7,0.3,1.2,0.5l0.9,0.2c0.5,0.1,0.8,0.2,0.9,0.3
		c0.2,0.1,0.4,0.4,0.4,0.6c0,0.4-0.2,0.6-0.5,0.8c-0.3,0.2-0.7,0.3-1.1,0.3c-0.7,0-1.2-0.2-1.4-0.5c-0.2-0.2-0.2-0.5-0.3-0.8H305.2z
		 M299.6,98.8c0-0.5,0.2-1,0.5-1.4s0.7-0.5,1.2-0.5c0.7,0,1.2,0.3,1.5,0.8c0.2,0.3,0.3,0.7,0.3,1.1H299.6z M301.4,96
		c-0.9,0-1.6,0.3-2.2,1c-0.6,0.6-0.8,1.5-0.8,2.5c0,1,0.3,1.9,0.8,2.4c0.6,0.6,1.2,0.9,2,0.9c0.3,0,0.6,0,0.9-0.1
		c0.5-0.1,0.9-0.3,1.2-0.6c0.2-0.2,0.4-0.4,0.5-0.7c0.2-0.3,0.3-0.6,0.3-0.8h-1.1c-0.1,0.3-0.2,0.5-0.4,0.8
		c-0.3,0.4-0.8,0.6-1.3,0.6c-0.6,0-1-0.2-1.3-0.6c-0.3-0.4-0.4-0.9-0.5-1.6h4.7c0-0.6,0-1.1-0.1-1.4c-0.1-0.4-0.2-0.8-0.4-1.1
		c-0.2-0.3-0.5-0.6-1-0.8C302.3,96.1,301.9,96,301.4,96z M292.8,98.8c0-0.5,0.2-1,0.5-1.4s0.7-0.5,1.2-0.5c0.7,0,1.2,0.3,1.5,0.8
		c0.2,0.3,0.3,0.7,0.3,1.1H292.8z M294.6,96c-0.9,0-1.6,0.3-2.2,1c-0.6,0.6-0.8,1.5-0.8,2.5c0,1,0.3,1.9,0.8,2.4
		c0.6,0.6,1.2,0.9,2,0.9c0.3,0,0.6,0,0.9-0.1c0.5-0.1,0.9-0.3,1.2-0.6c0.2-0.2,0.4-0.4,0.5-0.7c0.2-0.3,0.3-0.6,0.3-0.8h-1.1
		c-0.1,0.3-0.2,0.5-0.4,0.8c-0.3,0.4-0.8,0.6-1.3,0.6c-0.6,0-1-0.2-1.3-0.6c-0.3-0.4-0.4-0.9-0.5-1.6h4.7c0-0.6,0-1.1-0.1-1.4
		c-0.1-0.4-0.2-0.8-0.4-1.1c-0.2-0.3-0.5-0.6-1-0.8C295.5,96.1,295,96,294.6,96z M283.9,102.5h3.7c1.2,0,2-0.3,2.5-1
		c0.4-0.5,0.5-1,0.5-1.5c0-0.7-0.2-1.2-0.6-1.6c-0.2-0.2-0.6-0.4-1-0.6c0.3-0.2,0.5-0.3,0.7-0.5c0.3-0.4,0.5-0.8,0.5-1.4
		c0-0.5-0.1-0.9-0.4-1.3c-0.4-0.6-1.2-0.9-2.2-0.9h-3.8V102.5z M285.1,101.5v-3.1h2.4c0.5,0,0.9,0.1,1.2,0.2
		c0.6,0.2,0.9,0.7,0.9,1.3c0,0.4-0.1,0.7-0.3,1c-0.3,0.4-0.8,0.6-1.6,0.6H285.1z M285.1,97.5v-2.7h2.1c0.5,0,0.9,0.1,1.2,0.2
		c0.5,0.2,0.7,0.6,0.7,1.2c0,0.6-0.2,1-0.7,1.2c-0.3,0.1-0.7,0.2-1.2,0.2H285.1z M279.3,96c-0.9,0-1.6,0.3-2,1
		c-0.5,0.7-0.7,1.5-0.7,2.4c0,1,0.3,1.8,0.8,2.4c0.5,0.6,1.1,0.9,1.8,0.9c0.4,0,0.8-0.1,1.2-0.3c0.3-0.2,0.6-0.5,0.9-0.9v0.9h1v-8.8
		h-1V97c-0.2-0.3-0.5-0.5-0.6-0.6C280.2,96.1,279.7,96,279.3,96z M277.6,99.4c0-0.8,0.2-1.4,0.5-1.8c0.3-0.4,0.8-0.6,1.3-0.6
		c0.5,0,0.9,0.2,1.2,0.6c0.3,0.4,0.5,1,0.5,1.8c0,0.8-0.2,1.4-0.5,1.8s-0.7,0.6-1.2,0.6c-0.6,0-1.1-0.2-1.4-0.7
		C277.8,100.7,277.6,100.1,277.6,99.4z M270.1,96.1v4.4c0,0.5,0.1,1,0.3,1.3c0.3,0.6,0.9,0.9,1.8,0.9c0.6,0,1.1-0.2,1.5-0.5
		c0.2-0.2,0.4-0.4,0.5-0.6l0,0.9h1v-6.4h-1.1v3.1c0,0.6-0.1,1.1-0.2,1.5c-0.3,0.7-0.8,1-1.5,1c-0.5,0-0.9-0.2-1-0.6
		c-0.1-0.2-0.2-0.5-0.2-0.8v-4.3H270.1z M265.9,96c-0.9,0-1.6,0.3-2.2,1c-0.5,0.6-0.8,1.5-0.8,2.6c0,1,0.3,1.8,0.8,2.4
		s1.2,0.9,2.1,0.9c1,0,1.8-0.3,2.3-1c0.5-0.7,0.7-1.5,0.7-2.6c0-1.1-0.3-1.9-0.8-2.4S266.7,96,265.9,96z M265.9,101.8
		c-0.6,0-1.1-0.2-1.4-0.7c-0.3-0.5-0.4-1-0.4-1.7c0-0.7,0.1-1.3,0.4-1.8c0.3-0.5,0.8-0.8,1.4-0.8c0.7,0,1.2,0.3,1.5,0.9
		c0.2,0.4,0.3,0.9,0.3,1.5c0,0.7-0.1,1.3-0.4,1.8C267,101.6,266.6,101.8,265.9,101.8z M260.6,102.5h1.1v-8.8h-1.1V102.5z
		 M255.6,93.5c-1.3,0-2.3,0.5-3,1.4c-0.7,0.8-1,1.9-1,3.2c0,1.7,0.5,3,1.4,3.8c0.7,0.6,1.5,0.9,2.5,0.9c1.2,0,2.1-0.4,2.8-1.1
		c0.6-0.6,0.9-1.4,1-2.3h-1.2c-0.1,0.6-0.3,1-0.5,1.4c-0.5,0.7-1.1,1-2,1c-0.9,0-1.6-0.3-2.1-1c-0.5-0.6-0.7-1.5-0.7-2.5
		c0-1.3,0.3-2.2,0.8-2.8c0.5-0.6,1.2-0.9,2.1-0.9c0.7,0,1.2,0.2,1.6,0.5c0.4,0.3,0.6,0.8,0.8,1.3h1.2c-0.1-0.7-0.4-1.4-1-2
		S256.7,93.5,255.6,93.5z"/>
	<path class="st4" d="M360.5,192.3h1.1v-3.3c0.2,0.3,0.5,0.5,0.6,0.6c0.3,0.2,0.7,0.3,1.2,0.3c0.6,0,1.2-0.2,1.6-0.6
		c0.7-0.6,1.1-1.6,1.1-3c0-1-0.3-1.8-0.8-2.4c-0.5-0.6-1.1-0.8-1.9-0.8c-0.5,0-0.9,0.1-1.3,0.4c-0.3,0.2-0.5,0.4-0.7,0.7v-0.8h-1.1
		V192.3z M363.3,189.1c-0.7,0-1.3-0.3-1.5-1c-0.1-0.3-0.2-0.8-0.2-1.3c0-0.6,0.1-1.1,0.2-1.5c0.3-0.7,0.8-1.1,1.5-1.1
		c0.7,0,1.3,0.4,1.5,1.1c0.1,0.4,0.2,0.8,0.2,1.3c0,0.8-0.2,1.5-0.5,1.9S363.8,189.1,363.3,189.1z M357.8,182.2h1.1V181h-1.1V182.2z
		 M357.8,189.8h1.1v-6.4h-1.1V189.8z M351,189.8h1.1v-3.4c0-0.9,0.2-1.4,0.5-1.7c0.4-0.3,0.8-0.5,1.2-0.5c0.5,0,0.9,0.2,1.1,0.5
		c0.1,0.2,0.2,0.6,0.2,1v4h1.1v-4.1c0-0.6-0.1-1.1-0.3-1.5c-0.3-0.6-1-1-1.9-1c-0.5,0-1,0.1-1.3,0.3c-0.2,0.1-0.4,0.4-0.7,0.7V181
		H351V189.8z M344.5,187.8c0,0.6,0.2,1.2,0.6,1.6c0.4,0.4,1.1,0.6,2.1,0.6c0.9,0,1.6-0.2,2-0.6c0.4-0.4,0.7-0.9,0.7-1.5
		c0-0.6-0.2-1-0.6-1.3c-0.3-0.2-0.8-0.4-1.6-0.5l-0.7-0.2c-0.3-0.1-0.6-0.2-0.7-0.3c-0.3-0.2-0.4-0.4-0.4-0.7c0-0.3,0.1-0.5,0.3-0.6
		s0.5-0.2,0.9-0.2c0.6,0,1.1,0.1,1.3,0.4c0.2,0.2,0.2,0.4,0.3,0.7h1c0-0.4-0.1-0.8-0.4-1.2c-0.4-0.6-1.1-0.8-2.1-0.8
		c-0.7,0-1.3,0.2-1.8,0.6c-0.4,0.4-0.7,0.9-0.7,1.5c0,0.5,0.2,0.9,0.7,1.2c0.3,0.2,0.7,0.3,1.2,0.5l0.9,0.2c0.5,0.1,0.8,0.2,0.9,0.3
		c0.2,0.1,0.4,0.4,0.4,0.6c0,0.4-0.2,0.6-0.5,0.8c-0.3,0.2-0.7,0.3-1.1,0.3c-0.7,0-1.2-0.2-1.4-0.5c-0.2-0.2-0.2-0.5-0.3-0.8H344.5z
		 M338.9,186.1c0-0.5,0.2-1,0.5-1.4s0.7-0.5,1.2-0.5c0.7,0,1.2,0.3,1.5,0.8c0.2,0.3,0.3,0.7,0.3,1.1H338.9z M340.7,183.2
		c-0.9,0-1.6,0.3-2.2,1c-0.6,0.6-0.8,1.5-0.8,2.5c0,1,0.3,1.9,0.8,2.4c0.6,0.6,1.2,0.9,2,0.9c0.3,0,0.6,0,0.9-0.1
		c0.5-0.1,0.9-0.3,1.2-0.6c0.2-0.2,0.4-0.4,0.5-0.7c0.2-0.3,0.3-0.6,0.3-0.8h-1.1c-0.1,0.3-0.2,0.5-0.4,0.8
		c-0.3,0.4-0.8,0.6-1.3,0.6c-0.6,0-1-0.2-1.3-0.6c-0.3-0.4-0.4-0.9-0.5-1.6h4.7c0-0.6,0-1.1-0.1-1.4c-0.1-0.4-0.2-0.8-0.4-1.1
		c-0.2-0.3-0.5-0.6-1-0.8C341.6,183.3,341.2,183.2,340.7,183.2z M333.6,183.3c-0.9,0-1.6,0.3-2,1c-0.5,0.7-0.7,1.5-0.7,2.4
		c0,1,0.3,1.8,0.8,2.4c0.5,0.6,1.1,0.9,1.8,0.9c0.4,0,0.8-0.1,1.2-0.3c0.3-0.2,0.6-0.5,0.9-0.9v0.9h1V181h-1v3.2
		c-0.2-0.3-0.5-0.5-0.6-0.6C334.5,183.4,334.1,183.3,333.6,183.3z M332,186.7c0-0.8,0.2-1.4,0.5-1.8c0.3-0.4,0.8-0.6,1.3-0.6
		c0.5,0,0.9,0.2,1.2,0.6c0.3,0.4,0.5,1,0.5,1.8c0,0.8-0.2,1.4-0.5,1.8s-0.7,0.6-1.2,0.6c-0.6,0-1.1-0.2-1.4-0.7
		C332.1,187.9,332,187.3,332,186.7z M327,183.2c-0.9,0-1.6,0.3-2.2,1c-0.5,0.6-0.8,1.5-0.8,2.6c0,1,0.3,1.8,0.8,2.4s1.2,0.9,2.1,0.9
		c1,0,1.8-0.3,2.3-1c0.5-0.7,0.7-1.5,0.7-2.6c0-1.1-0.3-1.9-0.8-2.4S327.8,183.2,327,183.2z M327,189.1c-0.6,0-1.1-0.2-1.4-0.7
		c-0.3-0.5-0.4-1-0.4-1.7c0-0.7,0.1-1.3,0.4-1.8c0.3-0.5,0.8-0.8,1.4-0.8c0.7,0,1.2,0.3,1.5,0.9c0.2,0.4,0.3,0.9,0.3,1.5
		c0,0.7-0.1,1.3-0.4,1.8C328.2,188.8,327.7,189.1,327,189.1z M319.4,180.8c-1.3,0-2.3,0.5-3,1.4c-0.7,0.8-1,1.9-1,3.2
		c0,1.7,0.5,3,1.4,3.8c0.7,0.6,1.5,0.9,2.5,0.9c1.2,0,2.1-0.4,2.8-1.1c0.6-0.6,0.9-1.4,1-2.3h-1.2c-0.1,0.6-0.3,1-0.5,1.4
		c-0.5,0.7-1.1,1-2,1c-0.9,0-1.6-0.3-2.1-1c-0.5-0.6-0.7-1.5-0.7-2.5c0-1.3,0.3-2.2,0.8-2.8c0.5-0.6,1.2-0.9,2.1-0.9
		c0.7,0,1.2,0.2,1.6,0.5c0.4,0.3,0.6,0.8,0.8,1.3h1.2c-0.1-0.7-0.4-1.4-1-2S320.5,180.8,319.4,180.8z"/>
	<path class="st4" d="M410.4,67.6c-0.8,0-1.3-0.4-1.6-1.1c-0.2-0.4-0.2-0.9-0.2-1.5c0-0.8,0.2-1.4,0.6-1.8c0.4-0.4,0.8-0.5,1.3-0.5
		c0.6,0,1,0.2,1.3,0.7c0.3,0.4,0.4,1,0.4,1.7c0,0.8-0.1,1.4-0.4,1.8S411,67.6,410.4,67.6z M407.6,68.4h1v-0.8
		c0.2,0.3,0.4,0.5,0.6,0.7c0.3,0.2,0.7,0.4,1.2,0.4c0.9,0,1.6-0.3,2-1s0.7-1.5,0.7-2.5c0-1.1-0.2-1.9-0.7-2.4
		c-0.5-0.5-1.1-0.8-1.9-0.8c-0.4,0-0.7,0.1-1.1,0.2c-0.3,0.2-0.6,0.4-0.8,0.7v-3.2h-1V68.4z M402.6,64.7c-0.6,0.1-1.1,0.3-1.5,0.6
		c-0.4,0.3-0.6,0.8-0.6,1.4c0,0.5,0.2,1,0.6,1.4s0.9,0.5,1.5,0.5c0.5,0,0.9-0.1,1.4-0.3s0.7-0.5,0.9-0.7c0,0.3,0.1,0.5,0.2,0.6
		c0.2,0.3,0.4,0.4,0.8,0.4c0.2,0,0.3,0,0.4,0c0.1,0,0.2,0,0.4-0.1v-0.8l-0.2,0l-0.2,0c-0.1,0-0.2,0-0.3-0.1s-0.1-0.2-0.1-0.3v-3.7
		c0-0.6-0.2-1.1-0.7-1.3c-0.5-0.3-1.1-0.4-1.8-0.4c-0.6,0-1.2,0.2-1.7,0.5c-0.5,0.3-0.7,0.9-0.8,1.7h1c0-0.3,0.1-0.6,0.3-0.8
		c0.2-0.3,0.6-0.5,1.2-0.5c0.5,0,0.9,0.1,1.1,0.2c0.3,0.2,0.4,0.4,0.4,0.8c0,0.2,0,0.3-0.1,0.4c-0.1,0.2-0.2,0.3-0.5,0.3L402.6,64.7
		z M401.7,66.7c0-0.4,0.2-0.7,0.5-0.9c0.2-0.1,0.5-0.2,0.9-0.2l0.7-0.1c0.2,0,0.4-0.1,0.6-0.1c0.2-0.1,0.4-0.1,0.5-0.2V66
		c0,0.7-0.3,1.1-0.9,1.4c-0.4,0.2-0.7,0.3-1.1,0.3c-0.3,0-0.6-0.1-0.8-0.3C401.8,67.2,401.7,67,401.7,66.7z M394.2,68.4h5.6v-1h-4.4
		v-7.7h-1.2V68.4z M390.9,62H390v0.9h0.9v4.2c0,0.4,0.1,0.7,0.3,1c0.2,0.3,0.5,0.4,1,0.4c0.2,0,0.3,0,0.4,0c0.1,0,0.3,0,0.4-0.1
		v-0.9l-0.2,0l-0.2,0c-0.2,0-0.3,0-0.4-0.1c-0.2-0.1-0.2-0.2-0.2-0.4v-4.2h1V62h-1v-1.8h-1.1V62z M388,60.8h1.1v-1.2H388V60.8z
		 M388,68.4h1.1V62H388V68.4z M382.3,59.3c-1.2,0-2.2,0.4-2.9,1.2c-0.8,0.9-1.2,2-1.2,3.5c0,1.5,0.4,2.6,1.2,3.5
		c0.7,0.7,1.6,1,2.6,1c0.8,0,1.4-0.1,2-0.4c0.3-0.2,0.7-0.5,1.1-0.9l0.3,1.1h0.8v-4.7h-3.9v1h2.8c0,1-0.3,1.8-0.8,2.2
		c-0.5,0.5-1.2,0.7-1.9,0.7c-1,0-1.7-0.3-2.2-1c-0.4-0.7-0.7-1.5-0.7-2.6c0-1.2,0.3-2.1,0.8-2.7c0.5-0.6,1.2-0.9,2-0.9
		c0.7,0,1.2,0.1,1.7,0.4s0.7,0.8,0.9,1.4h1.2c-0.2-1.1-0.7-2-1.6-2.4C383.8,59.5,383.1,59.3,382.3,59.3z"/>
	<path class="st4" d="M114.2,223.1h1.1v-5.2c0-0.2,0-0.5,0-1c0-0.4,0-0.8,0-1v-0.3l2.5,7.4h1.2l2.5-7.4c0,0.5,0,0.9,0,1.3
		c0,0.4,0,0.7,0,0.9v5.2h1.1v-8.8h-1.7l-2.5,7.4l-2.5-7.4h-1.7V223.1z M106,223.1h3.7c1.2,0,2-0.3,2.5-1c0.4-0.5,0.5-1,0.5-1.5
		c0-0.7-0.2-1.2-0.6-1.6c-0.2-0.2-0.6-0.4-1-0.6c0.3-0.2,0.5-0.3,0.7-0.5c0.3-0.4,0.5-0.8,0.5-1.4c0-0.5-0.1-0.9-0.4-1.3
		c-0.4-0.6-1.2-0.9-2.2-0.9H106V223.1z M107.2,222.1V219h2.4c0.5,0,0.9,0.1,1.2,0.2c0.6,0.2,0.9,0.7,0.9,1.3c0,0.4-0.1,0.7-0.3,1
		c-0.3,0.4-0.8,0.6-1.6,0.6H107.2z M107.2,218.1v-2.7h2.1c0.5,0,0.9,0.1,1.2,0.2c0.5,0.2,0.7,0.6,0.7,1.2c0,0.6-0.2,1-0.7,1.2
		c-0.3,0.1-0.7,0.2-1.2,0.2H107.2z M102.9,223.1h1.2v-8.8h-1.2V223.1z"/>
	<path class="st4" d="M229.7,191.3c0,0.6,0.2,1.2,0.6,1.6c0.4,0.4,1.1,0.6,2.1,0.6c0.9,0,1.6-0.2,2-0.6c0.4-0.4,0.7-0.9,0.7-1.5
		c0-0.6-0.2-1-0.6-1.3c-0.3-0.2-0.8-0.4-1.6-0.5l-0.7-0.2c-0.3-0.1-0.6-0.2-0.7-0.3c-0.3-0.2-0.4-0.4-0.4-0.7c0-0.3,0.1-0.5,0.3-0.6
		s0.5-0.2,0.9-0.2c0.6,0,1.1,0.1,1.3,0.4c0.2,0.2,0.2,0.4,0.3,0.7h1c0-0.4-0.1-0.8-0.4-1.2c-0.4-0.6-1.1-0.8-2.1-0.8
		c-0.7,0-1.3,0.2-1.8,0.6c-0.4,0.4-0.7,0.9-0.7,1.5c0,0.5,0.2,0.9,0.7,1.2c0.3,0.2,0.7,0.3,1.2,0.5l0.9,0.2c0.5,0.1,0.8,0.2,0.9,0.3
		c0.2,0.1,0.4,0.4,0.4,0.6c0,0.4-0.2,0.6-0.5,0.8c-0.3,0.2-0.7,0.3-1.1,0.3c-0.7,0-1.2-0.2-1.4-0.5c-0.2-0.2-0.2-0.5-0.3-0.8H229.7z
		 M223.3,193.3h1.1V190c0-0.4,0-0.7,0.1-1c0.1-0.2,0.2-0.4,0.4-0.7c0.2-0.3,0.5-0.4,0.8-0.5c0.2-0.1,0.4-0.1,0.6-0.1
		c0.5,0,0.8,0.2,1,0.6c0.1,0.2,0.2,0.6,0.2,0.9v4h1.1v-4.1c0-0.6-0.1-1.1-0.3-1.5c-0.3-0.6-0.9-1-1.8-1c-0.4,0-0.8,0.1-1.1,0.2
		c-0.3,0.2-0.7,0.4-1,0.8v-0.9h-1V193.3z M220.6,185.8h1.1v-1.2h-1.1V185.8z M220.6,193.3h1.1V187h-1.1V193.3z M215.5,189.7
		c-0.6,0.1-1.1,0.3-1.5,0.6c-0.4,0.3-0.6,0.8-0.6,1.4c0,0.5,0.2,1,0.6,1.4s0.9,0.5,1.5,0.5c0.5,0,0.9-0.1,1.4-0.3s0.7-0.5,0.9-0.7
		c0,0.3,0.1,0.5,0.2,0.6c0.2,0.3,0.4,0.4,0.8,0.4c0.2,0,0.3,0,0.4,0c0.1,0,0.2,0,0.4-0.1v-0.8l-0.2,0l-0.2,0c-0.1,0-0.2,0-0.3-0.1
		s-0.1-0.2-0.1-0.3v-3.7c0-0.6-0.2-1.1-0.7-1.3c-0.5-0.3-1.1-0.4-1.8-0.4c-0.6,0-1.2,0.2-1.7,0.5c-0.5,0.3-0.7,0.9-0.8,1.7h1
		c0-0.3,0.1-0.6,0.3-0.8c0.2-0.3,0.6-0.5,1.2-0.5c0.5,0,0.9,0.1,1.1,0.2c0.3,0.2,0.4,0.4,0.4,0.8c0,0.2,0,0.3-0.1,0.4
		c-0.1,0.2-0.2,0.3-0.5,0.3L215.5,189.7z M214.6,191.6c0-0.4,0.2-0.7,0.5-0.9c0.2-0.1,0.5-0.2,0.9-0.2l0.7-0.1
		c0.2,0,0.4-0.1,0.6-0.1c0.2-0.1,0.4-0.1,0.5-0.2v0.9c0,0.7-0.3,1.1-0.9,1.4c-0.4,0.2-0.7,0.3-1.1,0.3c-0.3,0-0.6-0.1-0.8-0.3
		C214.7,192.2,214.6,191.9,214.6,191.6z M209.7,193.3h1.1v-3.7c0-0.5,0.1-0.9,0.4-1.2c0.3-0.3,0.7-0.5,1.2-0.5l0.2,0l0.2,0v-1.1
		c-0.1,0-0.2,0-0.2,0l-0.1,0c-0.4,0-0.8,0.2-1.1,0.5c-0.3,0.3-0.5,0.6-0.6,0.8v-1.1h-1V193.3z M201.6,193.3h3.7c1.2,0,2-0.3,2.5-1
		c0.4-0.5,0.5-1,0.5-1.5c0-0.7-0.2-1.2-0.6-1.6c-0.2-0.2-0.6-0.4-1-0.6c0.3-0.2,0.5-0.3,0.7-0.5c0.3-0.4,0.5-0.8,0.5-1.4
		c0-0.5-0.1-0.9-0.4-1.3c-0.4-0.6-1.2-0.9-2.2-0.9h-3.8V193.3z M202.8,192.3v-3.1h2.4c0.5,0,0.9,0.1,1.2,0.2
		c0.6,0.2,0.9,0.7,0.9,1.3c0,0.4-0.1,0.7-0.3,1c-0.3,0.4-0.8,0.6-1.6,0.6H202.8z M202.8,188.3v-2.7h2.1c0.5,0,0.9,0.1,1.2,0.2
		c0.5,0.2,0.7,0.6,0.7,1.2c0,0.6-0.2,1-0.7,1.2c-0.3,0.1-0.7,0.2-1.2,0.2H202.8z M198.3,186.9h-0.9v0.9h0.9v4.2c0,0.4,0.1,0.7,0.3,1
		c0.2,0.3,0.5,0.4,1,0.4c0.2,0,0.3,0,0.4,0c0.1,0,0.3,0,0.4-0.1v-0.9l-0.2,0l-0.2,0c-0.2,0-0.3,0-0.4-0.1c-0.2-0.1-0.2-0.2-0.2-0.4
		v-4.2h1v-0.9h-1v-1.8h-1.1V186.9z M192.1,189.6c0-0.5,0.2-1,0.5-1.4s0.7-0.5,1.2-0.5c0.7,0,1.2,0.3,1.5,0.8
		c0.2,0.3,0.3,0.7,0.3,1.1H192.1z M193.9,186.8c-0.9,0-1.6,0.3-2.2,1c-0.6,0.6-0.8,1.5-0.8,2.5c0,1,0.3,1.9,0.8,2.4
		c0.6,0.6,1.2,0.9,2,0.9c0.3,0,0.6,0,0.9-0.1c0.5-0.1,0.9-0.3,1.2-0.6c0.2-0.2,0.4-0.4,0.5-0.7c0.2-0.3,0.3-0.6,0.3-0.8h-1.1
		c-0.1,0.3-0.2,0.5-0.4,0.8c-0.3,0.4-0.8,0.6-1.3,0.6c-0.6,0-1-0.2-1.3-0.6c-0.3-0.4-0.4-0.9-0.5-1.6h4.7c0-0.6,0-1.1-0.1-1.4
		c-0.1-0.4-0.2-0.8-0.4-1.1c-0.2-0.3-0.5-0.6-1-0.8C194.8,186.9,194.4,186.8,193.9,186.8z M189.6,184.6h-1.2v5.9
		c0,0.7-0.1,1.2-0.2,1.5c-0.2,0.4-0.6,0.7-1.2,0.7c-0.5,0-0.8-0.1-1-0.4c-0.2-0.2-0.3-0.6-0.3-1.1v-0.6h-1.1v0.6
		c0,0.9,0.2,1.5,0.7,1.9c0.5,0.4,1,0.5,1.7,0.5c1.1,0,1.9-0.4,2.3-1.1c0.2-0.4,0.3-1,0.3-1.7V184.6z"/>
	<path class="st6" d="M279.9,159.2c-4.8,0-8.8-3.9-8.8-8.8c0-4.8,3.9-8.8,8.8-8.8c4.8,0,8.8,3.9,8.8,8.8
		C288.7,155.3,284.8,159.2,279.9,159.2z"/>
	<path class="st5" d="M279.9,159.2v-0.2c-2.4,0-4.5-1-6-2.5c-1.5-1.5-2.5-3.7-2.5-6c0-2.4,1-4.5,2.5-6c1.5-1.5,3.7-2.5,6-2.5
		c2.4,0,4.5,1,6,2.5c1.5,1.5,2.5,3.7,2.5,6c0,2.4-1,4.5-2.5,6c-1.5,1.5-3.7,2.5-6,2.5V159.2v0.2c5,0,9-4,9-9c0-5-4-9-9-9
		c-5,0-9,4-9,9c0,5,4,9,9,9V159.2z"/>
	<path class="st5" d="M279.9,151.7c-0.7,0-1.3-0.6-1.3-1.3c0-0.7,0.6-1.3,1.3-1.3c0.7,0,1.3,0.6,1.3,1.3
		C281.2,151.1,280.6,151.7,279.9,151.7"/>
	<path class="st6" d="M334.1,113.2c3.4-3.4,9-3.4,12.4,0c3.4,3.4,3.4,9,0,12.4c-3.4,3.4-9,3.4-12.4,0
		C330.7,122.2,330.7,116.7,334.1,113.2z"/>
	<path class="st5" d="M334.1,113.2l0.2,0.2c1.7-1.7,3.8-2.5,6-2.5c2.2,0,4.4,0.8,6,2.5c1.7,1.7,2.5,3.8,2.5,6c0,2.2-0.8,4.4-2.5,6
		c-1.7,1.7-3.8,2.5-6,2.5c-2.2,0-4.4-0.8-6-2.5c-1.7-1.7-2.5-3.8-2.5-6c0-2.2,0.8-4.4,2.5-6L334.1,113.2l-0.2-0.2
		c-1.8,1.8-2.6,4.1-2.6,6.4c0,2.3,0.9,4.6,2.6,6.4c1.8,1.8,4.1,2.6,6.4,2.6c2.3,0,4.6-0.9,6.4-2.6c1.8-1.8,2.6-4.1,2.6-6.4
		c0-2.3-0.9-4.6-2.6-6.4c-1.8-1.8-4.1-2.6-6.4-2.6c-2.3,0-4.6,0.9-6.4,2.6L334.1,113.2z"/>
	<path class="st5" d="M340.3,120.7c-0.7,0-1.3-0.6-1.3-1.3c0-0.7,0.6-1.3,1.3-1.3c0.7,0,1.3,0.6,1.3,1.3
		C341.6,120.1,341,120.7,340.3,120.7"/>
	<path class="st6" d="M419.2,64.2c0.1-4.8,4.1-8.7,8.9-8.6c4.8,0.1,8.7,4.1,8.6,8.9c-0.1,4.8-4.1,8.7-8.9,8.6
		C423,73,419.1,69,419.2,64.2z"/>
	<path class="st5" d="M419.2,64.2l0.2,0c0.1-4.7,3.9-8.4,8.5-8.4l0.1,0c4.7,0.1,8.4,3.9,8.4,8.5l0,0.1c-0.1,4.7-3.9,8.4-8.5,8.4
		l-0.1,0c-4.7-0.1-8.4-3.9-8.4-8.5l0-0.1L419.2,64.2l-0.2,0l0,0.1c0,4.9,3.9,8.9,8.9,9l0.1,0c4.9,0,8.9-3.9,9-8.9l0-0.1
		c0-4.9-3.9-8.9-8.9-9l-0.1,0c-4.9,0-8.9,3.9-9,8.9L419.2,64.2z"/>
	<path class="st5" d="M427.9,65.6c-0.7,0-1.3-0.6-1.3-1.3c0-0.7,0.6-1.3,1.3-1.3c0.7,0,1.3,0.6,1.3,1.3
		C429.2,65,428.6,65.6,427.9,65.6"/>
	<path class="st6" d="M243.5,183.5c3.4-3.4,9-3.4,12.4,0s3.4,9,0,12.4c-3.4,3.4-9,3.4-12.4,0C240.1,192.5,240.1,186.9,243.5,183.5z"
		/>
	<path class="st5" d="M243.5,183.5l0.2,0.2c1.7-1.7,3.8-2.5,6-2.5c2.2,0,4.4,0.8,6,2.5c1.7,1.7,2.5,3.8,2.5,6c0,2.2-0.8,4.4-2.5,6
		c-1.7,1.7-3.8,2.5-6,2.5c-2.2,0-4.4-0.8-6-2.5c-1.7-1.7-2.5-3.8-2.5-6c0-2.2,0.8-4.4,2.5-6L243.5,183.5l-0.2-0.2
		c-1.8,1.8-2.6,4.1-2.6,6.4c0,2.3,0.9,4.6,2.6,6.4c1.8,1.8,4.1,2.6,6.4,2.6c2.3,0,4.6-0.9,6.4-2.6c1.8-1.8,2.6-4.1,2.6-6.4
		c0-2.3-0.9-4.6-2.6-6.4c-1.8-1.8-4.1-2.6-6.4-2.6c-2.3,0-4.6,0.9-6.4,2.6L243.5,183.5z"/>
	<path class="st5" d="M249.7,190.9c-0.7,0-1.3-0.6-1.3-1.3c0-0.7,0.6-1.3,1.3-1.3s1.3,0.6,1.3,1.3
		C251,190.4,250.4,190.9,249.7,190.9"/>
	<path class="st6" d="M186.3,166.2c-6.2,0-11.3-5.1-11.3-11.3c0-6.2,5.1-11.3,11.3-11.3c6.2,0,11.3,5.1,11.3,11.3
		C197.6,161.2,192.5,166.2,186.3,166.2z"/>
	<path class="st5" d="M186.3,166.2V166c-3,0-5.8-1.2-7.8-3.2c-2-2-3.2-4.8-3.2-7.8c0-3,1.2-5.8,3.2-7.8c2-2,4.8-3.2,7.8-3.2
		c3,0,5.8,1.2,7.8,3.2c2,2,3.2,4.8,3.2,7.8c0,3-1.2,5.8-3.2,7.8c-2,2-4.8,3.2-7.8,3.2V166.2v0.2c6.4,0,11.5-5.2,11.5-11.5
		c0-6.4-5.2-11.5-11.5-11.5c-6.4,0-11.5,5.2-11.5,11.5c0,6.4,5.2,11.5,11.5,11.5V166.2z"/>
	<path class="st5" d="M186.3,156.2c-0.7,0-1.3-0.6-1.3-1.3c0-0.7,0.6-1.3,1.3-1.3c0.7,0,1.3,0.6,1.3,1.3
		C187.6,155.6,187,156.2,186.3,156.2"/>
	<path class="st6" d="M347.2,170c0,3.8-3.1,6.9-6.9,6.9s-6.9-3.1-6.9-6.9c0-3.8,3.1-6.9,6.9-6.9S347.2,166.2,347.2,170z"/>
	<path class="st5" d="M347.2,170H347c0,1.8-0.7,3.5-1.9,4.7c-1.2,1.2-2.9,1.9-4.7,1.9c-1.8,0-3.5-0.7-4.7-1.9
		c-1.2-1.2-1.9-2.9-1.9-4.7c0-1.8,0.7-3.5,1.9-4.7c1.2-1.2,2.9-1.9,4.7-1.9c1.8,0,3.5,0.7,4.7,1.9c1.2,1.2,1.9,2.9,1.9,4.7H347.2
		h0.2c0-4-3.2-7.1-7.1-7.1c-3.9,0-7.1,3.2-7.1,7.1c0,3.9,3.2,7.1,7.1,7.1c3.9,0,7.1-3.2,7.1-7.1H347.2z"/>
	<path class="st5" d="M341.6,170c0,0.7-0.6,1.3-1.3,1.3s-1.3-0.6-1.3-1.3s0.6-1.3,1.3-1.3S341.6,169.3,341.6,170"/>
	<path class="st4" d="M254.2,139.6h1.2v-8.8h-1.2V139.6z M248.7,130.6c-1.3,0-2.3,0.5-3,1.4c-0.7,0.8-1,1.9-1,3.2
		c0,1.7,0.5,3,1.4,3.8c0.7,0.6,1.5,0.9,2.5,0.9c1.2,0,2.1-0.4,2.8-1.1c0.6-0.6,0.9-1.4,1-2.3h-1.2c-0.1,0.6-0.3,1-0.5,1.4
		c-0.5,0.7-1.1,1-2,1c-0.9,0-1.6-0.3-2.1-1c-0.5-0.6-0.7-1.5-0.7-2.5c0-1.3,0.3-2.2,0.8-2.8c0.5-0.6,1.2-0.9,2.1-0.9
		c0.7,0,1.2,0.2,1.6,0.5c0.4,0.3,0.6,0.8,0.8,1.3h1.2c-0.1-0.7-0.4-1.4-1-2S249.8,130.6,248.7,130.6z M235,137.6
		c0,0.6,0.2,1.2,0.6,1.6c0.4,0.4,1.1,0.6,2.1,0.6c0.9,0,1.6-0.2,2-0.6c0.4-0.4,0.7-0.9,0.7-1.5c0-0.6-0.2-1-0.6-1.3
		c-0.3-0.2-0.8-0.4-1.6-0.5l-0.7-0.2c-0.3-0.1-0.6-0.2-0.7-0.3c-0.3-0.2-0.4-0.4-0.4-0.7c0-0.3,0.1-0.5,0.3-0.6s0.5-0.2,0.9-0.2
		c0.6,0,1.1,0.1,1.3,0.4c0.2,0.2,0.2,0.4,0.3,0.7h1c0-0.4-0.1-0.8-0.4-1.2c-0.4-0.6-1.1-0.8-2.1-0.8c-0.7,0-1.3,0.2-1.8,0.6
		c-0.4,0.4-0.7,0.9-0.7,1.5c0,0.5,0.2,0.9,0.7,1.2c0.3,0.2,0.7,0.3,1.2,0.5l0.9,0.2c0.5,0.1,0.8,0.2,0.9,0.3
		c0.2,0.1,0.4,0.4,0.4,0.6c0,0.4-0.2,0.6-0.5,0.8c-0.3,0.2-0.7,0.3-1.1,0.3c-0.7,0-1.2-0.2-1.4-0.5c-0.2-0.2-0.2-0.5-0.3-0.8H235z
		 M232.7,132.1h1.1v-1.2h-1.1V132.1z M232.7,139.6h1.1v-6.4h-1.1V139.6z M225.8,133.2l2.4,6.4h1.1l2.4-6.4h-1.2l-1.8,5.2l-1.7-5.2
		H225.8z M221.4,136c-0.6,0.1-1.1,0.3-1.5,0.6c-0.4,0.3-0.6,0.8-0.6,1.4c0,0.5,0.2,1,0.6,1.4s0.9,0.5,1.5,0.5c0.5,0,0.9-0.1,1.4-0.3
		s0.7-0.5,0.9-0.7c0,0.3,0.1,0.5,0.2,0.6c0.2,0.3,0.4,0.4,0.8,0.4c0.2,0,0.3,0,0.4,0c0.1,0,0.2,0,0.4-0.1v-0.8l-0.2,0l-0.2,0
		c-0.1,0-0.2,0-0.3-0.1s-0.1-0.2-0.1-0.3v-3.7c0-0.6-0.2-1.1-0.7-1.3c-0.5-0.3-1.1-0.4-1.8-0.4c-0.6,0-1.2,0.2-1.7,0.5
		c-0.5,0.3-0.7,0.9-0.8,1.7h1c0-0.3,0.1-0.6,0.3-0.8c0.2-0.3,0.6-0.5,1.2-0.5c0.5,0,0.9,0.1,1.1,0.2c0.3,0.2,0.4,0.4,0.4,0.8
		c0,0.2,0,0.3-0.1,0.4c-0.1,0.2-0.2,0.3-0.5,0.3L221.4,136z M220.6,137.9c0-0.4,0.2-0.7,0.5-0.9c0.2-0.1,0.5-0.2,0.9-0.2l0.7-0.1
		c0.2,0,0.4-0.1,0.6-0.1c0.2-0.1,0.4-0.1,0.5-0.2v0.9c0,0.7-0.3,1.1-0.9,1.4c-0.4,0.2-0.7,0.3-1.1,0.3c-0.3,0-0.6-0.1-0.8-0.3
		C220.7,138.5,220.6,138.2,220.6,137.9z M215.7,139.6h1.1v-3.7c0-0.5,0.1-0.9,0.4-1.2c0.3-0.3,0.7-0.5,1.2-0.5l0.2,0l0.2,0v-1.1
		c-0.1,0-0.2,0-0.2,0l-0.1,0c-0.4,0-0.8,0.2-1.1,0.5c-0.3,0.3-0.5,0.6-0.6,0.8v-1.1h-1V139.6z M208,130.8v1h3v7.7h1.2v-7.7h3v-1H208
		z"/>
	<path class="st4" d="M407.2,149.3h-0.9v0.9h0.9v4.2c0,0.4,0.1,0.7,0.3,1c0.2,0.3,0.5,0.4,1,0.4c0.2,0,0.3,0,0.4,0
		c0.1,0,0.3,0,0.4-0.1v-0.9l-0.2,0l-0.2,0c-0.2,0-0.3,0-0.4-0.1c-0.2-0.1-0.2-0.2-0.2-0.4v-4.2h1v-0.9h-1v-1.8h-1.1V149.3z
		 M403.8,148.3v1H403v0.8h0.9v5.5h1.1v-5.5h1.1v-0.8h-1.1c0-0.7,0-1.1,0.1-1.3c0.1-0.2,0.3-0.3,0.6-0.3l0.1,0c0.1,0,0.1,0,0.2,0v-1
		c-0.1,0-0.2,0-0.2,0l-0.2,0c-0.7,0-1.2,0.2-1.5,0.5C403.9,147.5,403.9,147.8,403.8,148.3z M399.3,149.1c-0.9,0-1.6,0.3-2.2,1
		c-0.5,0.6-0.8,1.5-0.8,2.6c0,1,0.3,1.8,0.8,2.4s1.2,0.9,2.1,0.9c1,0,1.8-0.3,2.3-1c0.5-0.7,0.7-1.5,0.7-2.6c0-1.1-0.3-1.9-0.8-2.4
		S400.2,149.1,399.3,149.1z M399.3,155c-0.6,0-1.1-0.2-1.4-0.7c-0.3-0.5-0.4-1-0.4-1.7c0-0.7,0.1-1.3,0.4-1.8
		c0.3-0.5,0.8-0.8,1.4-0.8c0.7,0,1.2,0.3,1.5,0.9c0.2,0.4,0.3,0.9,0.3,1.5c0,0.7-0.1,1.3-0.4,1.8C400.5,154.7,400,155,399.3,155z
		 M390.2,153.7c0,0.6,0.2,1.2,0.6,1.6c0.4,0.4,1.1,0.6,2.1,0.6c0.9,0,1.6-0.2,2-0.6c0.4-0.4,0.7-0.9,0.7-1.5c0-0.6-0.2-1-0.6-1.3
		c-0.3-0.2-0.8-0.4-1.6-0.5l-0.7-0.2c-0.3-0.1-0.6-0.2-0.7-0.3c-0.3-0.2-0.4-0.4-0.4-0.7c0-0.3,0.1-0.5,0.3-0.6s0.5-0.2,0.9-0.2
		c0.6,0,1.1,0.1,1.3,0.4c0.2,0.2,0.2,0.4,0.3,0.7h1c0-0.4-0.1-0.8-0.4-1.2c-0.4-0.6-1.1-0.8-2.1-0.8c-0.7,0-1.3,0.2-1.8,0.6
		c-0.4,0.4-0.7,0.9-0.7,1.5c0,0.5,0.2,0.9,0.7,1.2c0.3,0.2,0.7,0.3,1.2,0.5l0.9,0.2c0.5,0.1,0.8,0.2,0.9,0.3
		c0.2,0.1,0.4,0.4,0.4,0.6c0,0.4-0.2,0.6-0.5,0.8c-0.3,0.2-0.7,0.3-1.1,0.3c-0.7,0-1.2-0.2-1.4-0.5c-0.2-0.2-0.2-0.5-0.3-0.8H390.2z
		 M386.4,149.1c-0.9,0-1.6,0.3-2.2,1c-0.5,0.6-0.8,1.5-0.8,2.6c0,1,0.3,1.8,0.8,2.4s1.2,0.9,2.1,0.9c1,0,1.8-0.3,2.3-1
		c0.5-0.7,0.7-1.5,0.7-2.6c0-1.1-0.3-1.9-0.8-2.4S387.2,149.1,386.4,149.1z M386.4,155c-0.6,0-1.1-0.2-1.4-0.7
		c-0.3-0.5-0.4-1-0.4-1.7c0-0.7,0.1-1.3,0.4-1.8c0.3-0.5,0.8-0.8,1.4-0.8c0.7,0,1.2,0.3,1.5,0.9c0.2,0.4,0.3,0.9,0.3,1.5
		c0,0.7-0.1,1.3-0.4,1.8C387.5,154.7,387.1,155,386.4,155z M379.8,155.7h1.1V152c0-0.5,0.1-0.9,0.4-1.2c0.3-0.3,0.7-0.5,1.2-0.5
		l0.2,0l0.2,0v-1.1c-0.1,0-0.2,0-0.2,0l-0.1,0c-0.4,0-0.8,0.2-1.1,0.5c-0.3,0.3-0.5,0.6-0.6,0.8v-1.1h-1V155.7z M376.1,149.1
		c-0.8,0-1.5,0.3-2.1,0.9s-0.8,1.5-0.8,2.6c0,0.9,0.2,1.7,0.7,2.3s1.2,0.9,2,0.9c0.7,0,1.4-0.2,1.8-0.6c0.5-0.4,0.8-1,0.9-1.9h-1
		c-0.1,0.5-0.3,0.8-0.5,1.1c-0.3,0.3-0.6,0.4-1.1,0.4c-0.6,0-1-0.2-1.3-0.7c-0.3-0.4-0.4-1-0.4-1.6c0-0.6,0.1-1.2,0.3-1.6
		c0.3-0.7,0.8-1,1.5-1c0.5,0,0.9,0.1,1.1,0.4c0.2,0.3,0.4,0.6,0.4,1h1c-0.1-0.9-0.4-1.5-0.8-1.8
		C377.4,149.3,376.8,149.1,376.1,149.1z M370.9,148.1h1.1v-1.2h-1.1V148.1z M370.9,155.7h1.1v-6.4h-1.1V155.7z M360.8,155.7h1.1
		v-5.2c0-0.2,0-0.5,0-1c0-0.4,0-0.8,0-1v-0.3l2.5,7.4h1.2l2.5-7.4c0,0.5,0,0.9,0,1.3c0,0.4,0,0.7,0,0.9v5.2h1.1v-8.8h-1.7l-2.5,7.4
		l-2.5-7.4h-1.7V155.7z"/>
	<path class="st6" d="M427.9,162.7c-6.2,0-11.3-5.1-11.3-11.3c0-6.2,5.1-11.3,11.3-11.3c6.2,0,11.3,5,11.3,11.3
		C439.2,157.7,434.2,162.7,427.9,162.7z"/>
	<path class="st5" d="M427.9,162.7v-0.2c-3,0-5.8-1.2-7.8-3.2c-2-2-3.2-4.8-3.2-7.8c0-3,1.2-5.8,3.2-7.8c2-2,4.8-3.2,7.8-3.2
		c3,0,5.8,1.2,7.8,3.2c2,2,3.2,4.8,3.2,7.8c0,3-1.2,5.8-3.2,7.8c-2,2-4.8,3.2-7.8,3.2V162.7v0.2c6.4,0,11.5-5.2,11.5-11.5
		c0-6.4-5.2-11.5-11.5-11.5c-6.4,0-11.5,5.2-11.5,11.5c0,6.4,5.2,11.5,11.5,11.5V162.7z"/>
	<path class="st5" d="M427.9,152.7c-0.7,0-1.3-0.6-1.3-1.3c0-0.7,0.6-1.3,1.3-1.3s1.3,0.6,1.3,1.3
		C429.2,152.1,428.6,152.7,427.9,152.7"/>
	<path class="st6" d="M308.4,123.2c-4.8,0-8.8-3.9-8.8-8.8c0-4.8,3.9-8.8,8.8-8.8c4.8,0,8.8,3.9,8.8,8.8
		C317.1,119.3,313.2,123.2,308.4,123.2z"/>
	<path class="st5" d="M308.4,123.2V123c-2.4,0-4.5-1-6-2.5c-1.5-1.5-2.5-3.7-2.5-6c0-2.4,1-4.5,2.5-6c1.5-1.5,3.7-2.5,6-2.5
		c2.4,0,4.5,1,6,2.5c1.5,1.5,2.5,3.7,2.5,6c0,2.4-1,4.5-2.5,6c-1.5,1.5-3.7,2.5-6,2.5V123.2v0.2c5,0,9-4,9-9c0-5-4-9-9-9
		c-5,0-9,4-9,9c0,5,4,9,9,9V123.2z"/>
	<path class="st5" d="M308.4,115.7c-0.7,0-1.3-0.6-1.3-1.3c0-0.7,0.6-1.3,1.3-1.3c0.7,0,1.3,0.6,1.3,1.3
		C309.6,115.1,309.1,115.7,308.4,115.7"/>
	<path class="st7" d="M141,230.4c-6.2,0-11.3-5-11.3-11.3c0-6.2,5.1-11.3,11.3-11.3c6.2,0,11.3,5.1,11.3,11.3
		C152.3,225.4,147.2,230.4,141,230.4z"/>
	<path class="st8" d="M141,230.4v-0.2c-3,0-5.8-1.2-7.8-3.2c-2-2-3.2-4.8-3.2-7.8c0-3,1.2-5.8,3.2-7.8c2-2,4.8-3.2,7.8-3.2
		c3,0,5.8,1.2,7.8,3.2c2,2,3.2,4.8,3.2,7.8c0,3-1.2,5.8-3.2,7.8c-2,2-4.8,3.2-7.8,3.2V230.4v0.2c6.4,0,11.5-5.2,11.5-11.5
		c0-6.4-5.2-11.5-11.5-11.5c-6.4,0-11.5,5.2-11.5,11.5c0,6.4,5.2,11.5,11.5,11.5V230.4z"/>
	<path class="st6" d="M141,220.4c-0.7,0-1.3-0.6-1.3-1.3c0-0.7,0.6-1.3,1.3-1.3c0.7,0,1.3,0.6,1.3,1.3
		C142.2,219.8,141.7,220.4,141,220.4z"/>
	<path class="st5" d="M141,220.4v-0.2c-0.6,0-1-0.4-1-1c0-0.6,0.4-1,1-1c0.6,0,1,0.4,1,1c0,0.6-0.4,1-1,1V220.4v0.2
		c0.8,0,1.5-0.7,1.5-1.5c0-0.8-0.7-1.5-1.5-1.5c-0.8,0-1.5,0.7-1.5,1.5c0,0.8,0.7,1.5,1.5,1.5V220.4z"/>
	<path class="st7" d="M256.6,152.7c0,3.8-3.1,6.9-6.9,6.9c-3.8,0-6.9-3.1-6.9-6.9c0-3.8,3.1-6.9,6.9-6.9
		C253.5,145.8,256.6,148.9,256.6,152.7z"/>
	<path class="st8" d="M256.6,152.7h-0.2c0,1.8-0.7,3.5-1.9,4.7c-1.2,1.2-2.9,1.9-4.7,1.9c-1.8,0-3.5-0.7-4.7-1.9
		c-1.2-1.2-1.9-2.9-1.9-4.7c0-1.8,0.7-3.5,1.9-4.7c1.2-1.2,2.9-1.9,4.7-1.9h0l0,0l0-0.2l0,0.2l0,0l0-0.2l0,0.2
		c1.8,0,3.5,0.7,4.7,1.9c1.2,1.2,1.9,2.9,1.9,4.7H256.6h0.2c0-3.9-3.2-7.1-7.1-7.1l0,0l0,0.2v-0.2c-3.9,0-7.1,3.2-7.1,7.1
		c0,3.9,3.2,7.1,7.1,7.1c3.9,0,7.1-3.2,7.1-7.1H256.6z"/>
	<path class="st6" d="M251,152.7c0,0.7-0.6,1.3-1.3,1.3c-0.7,0-1.3-0.6-1.3-1.3c0-0.7,0.6-1.3,1.3-1.3
		C250.4,151.4,251,152,251,152.7z"/>
	<path class="st5" d="M251,152.7h-0.2c0,0.6-0.5,1-1,1c-0.5,0-1-0.5-1-1c0-0.6,0.5-1,1-1c0.6,0,1,0.5,1,1H251h0.2
		c0-0.8-0.7-1.5-1.5-1.5c-0.8,0-1.5,0.7-1.5,1.5c0,0.8,0.7,1.5,1.5,1.5c0.8,0,1.5-0.7,1.5-1.5H251z"/>
</g>
</svg>
