<svg xmlns="http://www.w3.org/2000/svg" width="288" height="288" fill="none" viewBox="0 0 288 288"><path d="M287.941 181.184c0 22.411-15.768 42.89-41.676 57.824-25.882 14.917-61.703 24.176-101.324 24.176-39.622 0-75.443-9.259-101.324-24.176C17.709 224.074 1.94 203.595 1.94 181.184v-18h286v18Z" fill="#AEA5D6" stroke="#171321" stroke-width="2"/><ellipse cx="144.941" cy="161.184" rx="144" ry="83" fill="#E7E4F2"/><path d="M54.573 225.626C22.45 210.498 1.94 187.473 1.94 161.684c0-45.563 64.023-82.5 143-82.5 78.976 0 143 36.937 143 82.5 0 45.564-64.024 82.5-143 82.5-29.827 0-57.52-5.268-80.438-14.279" stroke="#171321" stroke-width="2"/><path d="m203.076 53.6 47-27.416v16.5l-13.231 21.5-2.769 4.5c5.712-.714 9.895-.153 13.094 1.5 1.281.662 2.405 1.5 3.406 2.5 3.335 3.335 3.5 14.5 2.5 23.5s-5.334 16-9 21.5c-3.21 4.815-18 20.5-32 20.5-2.695 0-4.826-.617-6.5-1.629-5.283-3.195-6.007-10.321-5.5-14.371l16-9c1.5 8 7.5 5.5 11 3.5s7-5.5 8.5-9.5c.841-2.244.5-15 .5-15 0-6-7-5-9.5-3.5l-7.52 4.25-3.98 2.25v-14l17.5-28-29.5 17V53.601Z" fill="#fff"/><path d="m203.076 53.6 47-27.416-17-10-47 27.417 17 10ZM200.076 122.184l16-9-8.769-5.158-8.231-4.842-16 9 17 10ZM234.076 68.684c5.712-.714 9.895-.153 13.094 1.5l-10.325-6-2.769 4.5Z" fill="#C5F4EC"/><path d="m232.576 53.184-29.5 17-3.199-1.882-1.801 2.882 17 10 17.5-28ZM227.076 116.684c3.5-2 7-5.5 8.5-9.5 0 0-5.5.5-13 .5s-12.5-1-12.5-1c-.817.467-1.769.961-2.769 1.342l8.769 5.158c1.5 8 7.5 5.5 11 3.5Z" fill="#6FDAC9"/><path d="M203.076 70.184V53.601l-17-10v16.583l13.801 8.119 3.199 1.881ZM215.076 81.184v14l3.98-2.25 7.52-4.25c2.5-1.5 9.5-2.5 9.5 3.5 0 0 .341 12.756-.5 15 0 0-5.5.5-13 .5s-12.5-1-12.5-1c3.5-2 7-5.5 8.5-9.5.253-.675.399-2.304.48-4.25l-3.98 2.25-17-10v-14l17 10ZM205.576 136.555c-5.283-3.195-6.007-10.321-5.5-14.371l-17-10c-.522 4.175.263 11.617 6 14.654l16.5 9.717Z" fill="#10B1B1"/><path d="M203.076 53.6v16.584m0-16.583-17-10m17 10 38.865-22.672m-38.865 39.255 29.5-17-17.5 28m-12-11-3.199-1.882m15.199 12.882v14m0-14-17-10m17 24-17-10v-14m17 24 3.98-2.25m-2.98 20.25c1.5 8 7.5 5.5 11 3.5s7-5.5 8.5-9.5c.841-2.244.5-15 .5-15 0-6-7-5-9.5-3.5l-7.52 4.25m-2.98 20.25-16 9m16-9-8.769-5.158m-7.231 14.158c-.507 4.05.217 11.176 5.5 14.371m-5.5-14.371-17-10m3-68.583 47-27.417 17 10v16.5l-13.231 21.5m-50.769-20.583v16.583l13.801 8.118m-1.801 2.882 1.801-2.882m-16.801 43.882 16-9 8.231 4.842m-24.231 4.158c-.522 4.175.263 11.617 6 14.653l16.5 9.718m41.594-66.37c1.282.661 2.405 1.498 3.406 2.5 3.335 3.334 3.5 14.5 2.5 23.5-1 8.999-5.334 15.999-9 21.499-3.21 4.815-18 20.5-32 20.5-2.695 0-4.826-.617-6.5-1.629m41.594-66.37c-3.199-1.654-7.382-2.215-13.094-1.5l2.769-4.5m10.325 6-10.325-6m-29.538 43.841c1-.381 1.952-.875 2.769-1.342 3.5-2 7-5.5 8.5-9.5.253-.675.399-2.304.48-4.25" stroke="#171321" stroke-width="2"/><path d="M133.85 184.184c27.778 0 59.091-48.352 59.091-83.773 0-18.452-5.875-27.7-12.627-31.876-3.534-2.186-7.308-2.983-10.606-2.983-24.747 0-59.09 44.417-59.091 87.147 0 13.552 4.312 23.372 11.617 28.172 3.301 2.169 7.214 3.313 11.616 3.313Z" fill="#FFC2A8"/><path d="M110.617 152.576c0 13.552 4.312 23.372 11.617 28.171l-17.448-11.096c-7.443-4.744-11.845-14.626-11.845-28.32 0-13.253 3.303-26.668 8.6-38.871l17.658 11.289c-5.286 12.19-8.582 25.59-8.582 38.827Z" fill="#FF7B42"/><path d="M180.315 68.412c-3.535-2.187-7.309-2.983-10.606-2.983-17.081 0-38.734 21.16-50.51 48.32l-17.658-11.289c11.781-27.139 33.419-48.276 50.491-48.276 3.297 0 7.072.797 10.606 2.983l17.677 11.245Z" fill="#FF9D73"/><path d="m171.345 94.025-13.932 27.378c4.325 2.772 12.527 8.057 13.064 8.399 1.945 1.237 1.76 4.67.198 7.282-1.549 2.592-3.766 3.587-5.261 2.702l-13.244-8.465c-4.474 8.61-13.5 25.969-13.807 26.524-.763 1.381-2.791 4.188-5.034 3.042-1.644-.84-1.258-4.139-.431-5.604l13.903-27.378c-4.379-2.9-12.669-8.21-13.163-8.624-1.681-1.409-1.906-4.062-.644-6.586 1.573-3.148 3.947-4.499 5.755-3.425l13.469 8.602L166.36 90.44c1.031-1.81 3.036-3.237 4.647-2.212 1.611 1.025 1.302 3.811.338 5.797Z" fill="#171321"/><path d="M180.314 68.535c-3.534-2.186-7.308-2.983-10.606-2.983-17.093 0-38.763 21.19-50.534 48.377m61.14-45.394c6.752 4.176 12.627 13.424 12.627 31.876 0 35.421-31.313 83.773-59.091 83.773-4.402 0-8.315-1.144-11.616-3.314m58.08-112.335L162.638 57.29c-3.535-2.186-7.309-2.983-10.606-2.983-17.057 0-38.673 21.1-50.46 48.205m20.662 78.358c-7.305-4.8-11.617-14.619-11.617-28.171 0-13.217 3.286-26.595 8.557-38.77m3.06 66.941-17.448-11.096c-7.443-4.745-11.845-14.627-11.845-28.32 0-13.279 3.316-26.721 8.631-38.942m17.602 11.417-17.602-11.417" stroke="#171321" stroke-width="2"/><path d="m55.975 135.576 47-27.211v17l-23.739 13.784-7.261 4.216v16c4.5-4 12.5-9 18.5-10 4.178-.696 7.25-.27 9.5.9 5.129 2.666 6 9.193 6 15.1v9.5c0 25.5-28 44.5-41 44.5-2.44 0-4.412-.586-6-1.553-5.183-3.156-6.256-10.364-6-14.447l16-9c1.5 4.5 4 7 10.5 4 4.122-1.903 7.401-5.911 9.138-10 .878-2.066 1.362-4.154 1.362-6v-7c0-8.5-5.5-7.5-8-6l-9.228 5.324-16.772 9.676v-48.789Z" fill="#fff"/><path d="m56.006 135.395 47-27.211-17-10-47 27.211 17 10ZM72.006 159.184c4.5-4 12.5-9 18.5-10 4.178-.696 7.25-.27 9.501.9l-17-10c-1.056-.549-2.293-.934-3.74-1.116l-7.26 4.216v16ZM52.975 204.684l-17-10 15.997-9.5 7 4.174 10.61 6.326-16.607 9Z" fill="#C5F4EC"/><path d="M68.975 194.365c1.5 4.5 4 7 10.5 4 4.122-1.903 7.401-5.911 9.138-10 0 0-4.138.866-12.638.866s-13-1.109-13-1.109a17.767 17.767 0 0 1-2.729 1.109l8.729 5.134Z" fill="#6FDAC9"/><path d="M55.974 135.575v48.79l16.773-9.677 9.228-5.323c2.5-1.5 8-2.5 8 6v7c0 1.846-.484 3.933-1.362 6 0 0-4.138.866-12.638.866s-13-1.109-13-1.109c5.113-2.613 8.838-8.446 9.772-13.434l-16.773 9.677-16.999-10v-48.79l17 10ZM52.974 203.365l-16.999-10c-.255 4.082.818 11.29 6 14.446l17 10.001c-5.183-3.156-6.256-10.364-6-14.447Z" fill="#10B1B1"/><path d="m103.006 108.184-47 27.211m47-27.211v17l-23.738 13.784m23.738-30.784-17-10-47 27.211m17 10v48.789m0-48.789-17-10m17 58.789-17-10v-48.789m17 58.789 16.773-9.676m-13.772 43.123c1.587.967 3.56 1.553 6 1.553 13 0 40.999-19 40.999-44.5v-9.5c0-5.907-.871-12.433-5.999-15.1m-41 67.547-17-10.001c-4.594-2.798-5.959-8.78-6.032-12.946m23.032 22.947c-4.595-2.798-5.96-8.781-6.032-12.947m47.032-54.6c-2.251-1.17-5.323-1.596-9.5-.9-6 1-14 6-18.5 10v-16l7.26-4.216m20.74 11.116-17-10c-1.056-.549-2.293-.934-3.74-1.116m-6.488 35.54 9.227-5.324c2.5-1.5 8-2.5 8 6v7c0 1.846-.484 3.934-1.362 6-1.737 4.089-5.015 8.097-9.138 10-5.735 2.647-8.356 1.012-9.924-2.5m3.197-21.176c-.934 4.987-4.659 10.82-9.772 13.433-.165.084-.332.166-.5.243-1.15.531-2.308.885-3.535 1.174m10.61 6.326-16.607 9m16.607-9-10.61-6.326m-5.997 15.326-17-10m0 0 15.997-9.5 7 4.174" stroke="#171321" stroke-width="2"/></svg>