<svg xmlns="http://www.w3.org/2000/svg" width="288" height="288" fill="none" viewBox="0 0 288 288"><path d="M287 181c0 22.41-15.768 42.89-41.676 57.823C219.443 253.741 183.621 263 144 263c-39.621 0-75.443-9.259-101.324-24.177C16.768 223.89 1 203.41 1 181v-18h286v18Z" fill="#AEA5D6" stroke="#171321" stroke-width="2"/><ellipse cx="144" cy="161" rx="144" ry="83" fill="#E7E4F2"/><path d="M53.632 225.442C21.51 210.314 1 187.289 1 161.5 1 115.937 65.023 79 144 79s143 36.937 143 82.5S222.977 244 144 244c-29.826 0-57.52-5.268-80.438-14.28" stroke="#171321" stroke-width="2"/><path d="m243 111.181-52 30v-16.5l30.5-52.5a71.622 71.622 0 0 0 2-4.307c.927-2.213 1.737-4.592 2-6.693.5-4 1-12.5-6.5-11.5-6 .8-13 10-13 19.5l-2.685 1.5-5.557 3.106L189 78.68c0-4.085 1.501-12.902 6-22.126 4.864-9.972 13.233-20.42 27-25.874 5.467-2.166 9.774-2.13 13-.516 5.103 2.553 7.5 9.05 7.5 17.016 0 10.4-6.333 24-9.5 29.5l-5.127 8.666L212 112.181l31-18v17Z" fill="#fff"/><path d="m212 112.181 31-18-15.127-8.834L212 112.181ZM222 30.68c5.467-2.165 9.774-2.129 13-.515l-16.5-9.732c-3.276-1.871-7.746-2.032-13.5.248-13.767 5.455-22.136 15.902-27 25.874l17 10c4.864-9.972 13.233-20.42 27-25.874Z" fill="#C5F4EC"/><path d="m221.5 72.18-30.5 52.5-17-9.999 23.758-40.894 5.557-3.106 20.185-2.808a71.622 71.622 0 0 1-2 4.307ZM172 68.68l17 10c0-4.084 1.501-12.901 6-22.125l-17-10c-4.499 9.224-6 18.042-6 22.126Z" fill="#6FDAC9"/><path d="M191 124.68v16.5l-17-9.999v-16.5l17 9.999ZM219 49.68c7.5-1 7 7.5 6.5 11.5-.263 2.102-1.073 4.48-2 6.693l-20.185 2.808 2.685-1.5c0-9.5 7-18.7 13-19.5Z" fill="#10B1B1"/><path d="m191 141.181 52-30v-17m-52 47v-16.5m0 16.5-17-10v-16.5m69-20.5-31 18 15.873-26.834M243 94.181l-15.127-8.834M242.5 47.181c0-7.965-2.397-14.463-7.5-17.016m-46 48.516-17-10c0-4.084 1.501-12.902 6-22.126 4.864-9.972 13.233-20.42 27-25.874 5.754-2.28 10.224-2.12 13.5-.248l16.5 9.732m-46 48.516 8.758-4.894M189 78.68c0-4.085 1.501-12.902 6-22.126 4.864-9.972 13.233-20.42 27-25.874 5.467-2.166 9.774-2.13 13-.516m-44 94.516 30.5-52.5a71.622 71.622 0 0 0 2-4.307c.927-2.213 1.737-4.592 2-6.693.5-4 1-12.5-6.5-11.5-6 .8-13 10-13 19.5l-2.685 1.5-5.557 3.106M191 124.68l-17-10m0 0 23.758-40.894m30.115 11.56L233 76.681c2.413-4.191 6.664-13.084 8.551-21.681" stroke="#171321" stroke-width="2"/><path d="M176.619 151.097s-57.5 33.5-59.5 34.5c-1.756.878-3.899 1.371-5.749.123a5.102 5.102 0 0 1-.751-.623c-1.649-1.649-1.166-6.833-.5-9.5.667-2.667 29.5-91.5 29.5-91.5.22-.659.56-1.438.999-2.274 1.562-2.973 4.38-6.665 7.501-8.226 1.797-.898 3.325-.687 4.539 0 1.487.842 2.502 2.399 2.961 3.5l27.5 54c1 2 2.278 5 1.5 8.5-1.388 6.248-5.166 9.667-8 11.5Z" fill="#FFC2A8"/><path d="M110.119 175.597c.667-2.666 29.5-91.5 29.5-91.5.22-.659.56-1.438.999-2.274l-17.38-10.226c-.498.922-.88 1.782-1.12 2.5 0 0-28.833 88.833-29.5 91.5-.666 2.667-1.149 7.851.5 9.5.189.188.381.355.578.5l17.674 10.123a5.102 5.102 0 0 1-.751-.623c-1.649-1.649-1.166-6.833-.5-9.5Z" fill="#FF7B42"/><path d="M148.119 73.597c1.797-.898 3.325-.687 4.539 0l-18.04-10.263c-1.116-.462-2.459-.507-4 .263-3.043 1.522-5.797 5.07-7.38 8l17.38 10.226c1.562-2.973 4.38-6.665 7.501-8.226Z" fill="#FF9D73"/><path d="M111.37 185.72a5.102 5.102 0 0 1-.751-.623c-1.649-1.649-1.167-6.833-.5-9.5.667-2.666 29.5-91.5 29.5-91.5.22-.659.56-1.438.999-2.274M111.37 185.72c1.85 1.248 3.993.755 5.749-.123 2-1 59.5-34.5 59.5-34.5 2.834-1.833 6.612-5.252 8-11.5.778-3.5-.5-6.5-1.5-8.5l-27.5-54c-.459-1.101-1.474-2.658-2.961-3.5M111.37 185.72l-17.674-10.123a5.156 5.156 0 0 1-.578-.5c-1.649-1.649-1.166-6.833-.5-9.5.667-2.667 29.5-91.5 29.5-91.5.24-.718.622-1.578 1.12-2.5m29.42 2c-1.214-.687-2.742-.898-4.539 0-3.121 1.561-5.939 5.253-7.501 8.226m12.04-8.226-18.04-10.263c-1.116-.462-2.459-.507-4 .263-3.043 1.522-5.797 5.07-7.38 8m17.38 10.226-17.38-10.226" stroke="#171321" stroke-width="2"/><path d="m142.618 102.897 10.5-5.8-1 38-8.5 4.5-1-36.7ZM150.118 143.597c2-1 4 .5 4 2.5 0 2.5-1.5 6-4 7.5-1.724 1.034-4.5 2.5-4.5 2.5-1 .5-3.1.6-3.5-3-.4-3.6 2.167-6.166 3.5-7 .833-.5 2.9-1.7 4.5-2.5Z" fill="#171321"/><path d="M102 192.788 86 202v-16.2l-14 8.08L51 206v-25.643L81 114l17.662-10L67 175v5.357L86 169.5V150l16-9v51.788Z" fill="#fff"/><path d="m102 141-16 9-6.212-3.675 6.518-14.617L98.662 104 81 114l-17-10 17.662-10 17 10-12.356 27.708L102 141ZM67 180.357 86 169.5 70.568 167 67 175v5.357Z" fill="#C5F4EC"/><path d="M51 180.357 81 114l-17-10-30 66.357 17 10Z" fill="#6FDAC9"/><path d="M86 150v19.5L70.568 167l2.332-5.23 6.888-15.445L86 150ZM51 206v-25.643l-17-10V196l17 10ZM86 202v-16.2l-14 8.08L86 202Z" fill="#10B1B1"/><path d="m86 202 16-9.212V141m-16 61v-16.2l-14 8.08M86 202l-14-8.12M102 141l-16 9m16-9-15.694-9.292M86 150v19.5m0-19.5-6.212-3.675M86 169.5l-19 10.857V175l3.568-8 2.332-5.231M86 169.5l-13.1-7.731M98.662 104 81 114m17.662-10-12.356 27.708M98.662 104l-17-10L64 104m17 10-30 66.357M81 114l-17-10m-13 76.357V206m0-25.643-17-10M51 206l21-12.12M51 206l-17-10v-25.643M64 104l-30 66.357m38.9-8.588 6.888-15.444m0 0 6.518-14.617" stroke="#171321" stroke-width="2"/></svg>