<svg xmlns="http://www.w3.org/2000/svg" width="288" height="288" fill="none" viewBox="0 0 288 288"><path d="M287.941 181.184c0 22.411-15.768 42.89-41.676 57.824-25.882 14.917-61.703 24.176-101.324 24.176-39.622 0-75.443-9.259-101.324-24.176C17.709 224.074 1.94 203.595 1.94 181.184v-18h286v18Z" fill="#AEA5D6" stroke="#171321" stroke-width="2"/><ellipse cx="144.941" cy="161.184" rx="144" ry="83" fill="#E7E4F2"/><path d="M54.573 225.626C22.45 210.498 1.94 187.473 1.94 161.684c0-45.563 64.023-82.5 143-82.5 78.976 0 143 36.937 143 82.5 0 45.564-64.024 82.5-143 82.5-29.827 0-57.52-5.268-80.438-14.279" stroke="#171321" stroke-width="2"/><path fill-rule="evenodd" clip-rule="evenodd" d="M200.941 78.407v39c0 4.429.981 11.038 6 14.195 1.78 1.119 4.068 1.805 7 1.805 6.5 0 14.9-3.936 24-12.5 8.5-8 15-18.5 15-31.5v-43c0-3.996-.639-10.547-6-14.038-1.347-.877-2.992-1.56-5-1.962-10.5-2.1-25.62 11.02-33 22.5a54.428 54.428 0 0 0-2.598 4.5c-3.18 6.177-5.402 13.43-5.402 21Zm37-20v36c0 1.78-.337 4.787-1.486 8-1.433 4.008-4.13 8.336-9.014 11-8.8 4.8-11.5 0-11.5-3v-39.5c0-4.15 1.291-9.783 5-14.318a19.693 19.693 0 0 1 6.5-5.182c8.8-4.4 10.5 0 10.5 7Z" fill="#fff"/><path d="M241.941 30.407c-10.5-2.1-25.62 11.02-33 22.5a54.428 54.428 0 0 0-2.598 4.5l-16.999-10a54.147 54.147 0 0 1 2.597-4.5c7.38-11.48 22.5-24.6 33-22.5 1.536.308 2.859.78 4 1.378l17.046 10.023c.334.177.651.364.954.561l-.954-.56c-1.151-.61-2.489-1.09-4.046-1.402ZM215.941 110.407c0 3 2.7 7.8 11.5 3 4.884-2.664 7.581-6.992 9.014-11 0 0-3.514 1-10.014 1s-10.5-.5-10.5-.5v7.5Z" fill="#C5F4EC"/><path d="M200.941 117.407v-39c0-7.57 2.222-14.823 5.402-21l-16.999-10c-3.181 6.177-5.403 13.43-5.403 21v39c0 4.573 1.045 11.468 6.5 14.491l16.5 9.704c-5.019-3.157-6-9.766-6-14.195ZM237.941 94.407v-36c0-7-1.7-11.4-10.5-7a19.693 19.693 0 0 0-6.5 5.182v27.818c0 2.965-.934 9.335-5 14.389v4.111s4 .5 10.5.5 10.014-1 10.014-1c1.149-3.213 1.486-6.22 1.486-8Z" fill="#10B1B1"/><path d="M252.941 89.407c0 13-6.5 23.5-15 31.5-9.1 8.564-17.5 12.5-24 12.5-2.932 0-5.22-.686-7-1.805m0 0c-5.019-3.157-6-9.766-6-14.195v-39c0-7.57 2.222-14.823 5.402-21a54.428 54.428 0 0 1 2.598-4.5c7.38-11.48 22.5-24.6 33-22.5 2.008.401 3.653 1.085 5 1.962m-40 99.233-16.5-9.704c-5.455-3.023-6.5-9.918-6.5-14.491v-39c0-7.57 2.222-14.823 5.403-21a54.147 54.147 0 0 1 2.597-4.5c7.38-11.48 22.5-24.6 33-22.5 1.536.308 2.859.78 4 1.378l18 10.584m0 0c5.361 3.49 6 10.042 6 14.038v34.777m-37 17.612c4.066-5.054 5-11.424 5-14.389V56.59m-5 42.207v-27.89c0-4.149 1.291-9.782 5-14.317m-5 42.207v11.611c0 3 2.7 7.8 11.5 3 4.884-2.664 7.581-6.992 9.014-11 1.149-3.213 1.486-6.22 1.486-8v-36c0-7-1.7-11.4-10.5-7a19.691 19.691 0 0 0-6.5 5.182" stroke="#171321" stroke-width="2"/><path d="M133.85 184.184c27.778 0 59.091-48.352 59.091-83.773 0-18.452-5.875-27.7-12.627-31.876-3.534-2.186-7.308-2.983-10.606-2.983-24.747 0-59.09 44.417-59.091 87.147 0 13.552 4.312 23.372 11.617 28.172 3.301 2.169 7.214 3.313 11.616 3.313Z" fill="#FFC2A8"/><path d="M110.617 152.576c0 13.552 4.312 23.372 11.617 28.171l-17.448-11.096c-7.443-4.744-11.845-14.626-11.845-28.32 0-13.253 3.303-26.668 8.6-38.871l17.658 11.289c-5.286 12.19-8.582 25.59-8.582 38.827Z" fill="#FF7B42"/><path d="M180.315 68.412c-3.535-2.187-7.309-2.983-10.606-2.983-17.081 0-38.734 21.16-50.51 48.32l-17.658-11.289c11.781-27.139 33.419-48.276 50.491-48.276 3.297 0 7.072.797 10.606 2.983l17.677 11.245Z" fill="#FF9D73"/><path d="m171.345 94.025-13.932 27.378c4.325 2.772 12.527 8.057 13.064 8.399 1.945 1.237 1.76 4.67.198 7.282-1.549 2.592-3.766 3.587-5.261 2.702l-13.244-8.465c-4.474 8.61-13.5 25.969-13.807 26.524-.763 1.381-2.791 4.188-5.034 3.042-1.644-.84-1.258-4.139-.431-5.604l13.903-27.378c-4.379-2.9-12.669-8.21-13.163-8.624-1.681-1.409-1.906-4.062-.644-6.586 1.573-3.148 3.947-4.499 5.755-3.425l13.469 8.602L166.36 90.44c1.031-1.81 3.036-3.237 4.647-2.212 1.611 1.025 1.302 3.811.338 5.797Z" fill="#171321"/><path d="M180.314 68.535c-3.534-2.186-7.308-2.983-10.606-2.983-17.093 0-38.763 21.19-50.534 48.377m61.14-45.394c6.752 4.176 12.627 13.424 12.627 31.876 0 35.421-31.313 83.773-59.091 83.773-4.402 0-8.315-1.144-11.616-3.314m58.08-112.335L162.638 57.29c-3.535-2.186-7.309-2.983-10.606-2.983-17.057 0-38.673 21.1-50.46 48.205m20.662 78.358c-7.305-4.8-11.617-14.619-11.617-28.171 0-13.217 3.286-26.595 8.557-38.77m3.06 66.941-17.448-11.096c-7.443-4.745-11.845-14.627-11.845-28.32 0-13.279 3.316-26.721 8.631-38.942m17.602 11.417-17.602-11.417" stroke="#171321" stroke-width="2"/><path d="m55.975 135.576 47-27.211v17l-23.739 13.784-7.261 4.216v16c4.5-4 12.5-9 18.5-10 4.178-.696 7.25-.27 9.5.9 5.129 2.666 6 9.193 6 15.1v9.5c0 25.5-28 44.5-41 44.5-2.439 0-4.412-.586-6-1.553-5.182-3.156-6.256-10.364-6-14.447l16-9c1.5 4.5 4 7 10.5 4 4.122-1.903 7.401-5.911 9.138-10 .878-2.066 1.362-4.154 1.362-6v-7c0-8.5-5.5-7.5-8-6l-9.228 5.324-16.772 9.676v-48.789Z" fill="#fff"/><path d="m56.006 135.395 47-27.211-17-10-47 27.211 17 10ZM72.006 159.184c4.5-4 12.5-9 18.5-10 4.178-.696 7.25-.27 9.501.9l-17-10c-1.056-.549-2.293-.934-3.74-1.116l-7.26 4.216v16ZM52.975 204.684l-17-10 15.997-9.5 7 4.174 10.61 6.326-16.607 9Z" fill="#C5F4EC"/><path d="M68.975 194.365c1.5 4.5 4 7 10.5 4 4.122-1.903 7.401-5.911 9.138-10 0 0-4.138.866-12.638.866s-13-1.109-13-1.109a17.767 17.767 0 0 1-2.729 1.109l8.729 5.134Z" fill="#6FDAC9"/><path d="M55.975 135.575v48.79l16.772-9.677 9.228-5.323c2.5-1.5 8-2.5 8 6v7c0 1.846-.484 3.933-1.362 6 0 0-4.138.866-12.638.866s-13-1.109-13-1.109c5.113-2.613 8.838-8.446 9.772-13.434l-16.772 9.677-17-10v-48.79l17 10ZM52.975 203.365l-17-10c-.255 4.082.818 11.29 6 14.446l17 10.001c-5.182-3.156-6.256-10.364-6-14.447Z" fill="#10B1B1"/><path d="m103.006 108.184-47 27.211m47-27.211v17l-23.738 13.784m23.738-30.784-17-10-47 27.211m17 10v48.789m0-48.789-17-10m17 58.789-17-10v-48.789m17 58.789 16.773-9.676m-13.772 43.123c1.587.967 3.56 1.553 6 1.553 13 0 40.999-19 40.999-44.5v-9.5c0-5.907-.871-12.433-5.999-15.1m-41 67.547-17-10.001c-4.594-2.798-5.959-8.78-6.032-12.946m23.032 22.947c-4.595-2.798-5.96-8.781-6.032-12.947m47.032-54.6c-2.251-1.17-5.323-1.596-9.5-.9-6 1-14 6-18.5 10v-16l7.26-4.216m20.74 11.116-17-10c-1.056-.549-2.293-.934-3.74-1.116m-6.488 35.54 9.227-5.324c2.5-1.5 8-2.5 8 6v7c0 1.846-.484 3.934-1.362 6-1.737 4.089-5.015 8.097-9.138 10-5.735 2.647-8.356 1.012-9.924-2.5m3.197-21.176c-.934 4.987-4.659 10.82-9.772 13.433-.165.084-.332.166-.5.243-1.15.531-2.308.885-3.535 1.174m10.61 6.326-16.607 9m16.607-9-10.61-6.326m-5.997 15.326-17-10m0 0 15.997-9.5 7 4.174" stroke="#171321" stroke-width="2"/></svg>