<svg xmlns="http://www.w3.org/2000/svg" width="288" height="288" fill="none" viewBox="0 0 288 288"><path d="M287 181c0 22.41-15.768 42.89-41.676 57.823C219.443 253.741 183.621 263 144 263c-39.621 0-75.443-9.259-101.324-24.177C16.768 223.89 1 203.41 1 181v-18h286v18Z" fill="#AEA5D6" stroke="#171321" stroke-width="2"/><ellipse cx="144" cy="161" rx="144" ry="83" fill="#E7E4F2"/><path d="M53.632 225.442C21.51 210.314 1 187.289 1 161.5 1 115.937 65.023 79 144 79s143 36.937 143 82.5S222.977 244 144 244c-29.826 0-57.52-5.268-80.438-14.28" stroke="#171321" stroke-width="2"/><path d="m202.135 53.417 47-27.417v16.5L235.904 64l-2.769 4.5c5.712-.714 9.895-.153 13.095 1.5a13.64 13.64 0 0 1 3.405 2.5c3.335 3.335 3.5 14.5 2.5 23.5s-5.334 16-9 21.5c-3.21 4.815-18 20.5-32 20.5-2.695 0-4.826-.617-6.5-1.63-5.283-3.194-6.007-10.32-5.5-14.37l16-9c1.5 8 7.5 5.5 11 3.5s7-5.5 8.5-9.5c.841-2.244.5-15 .5-15 0-6-7-5-9.5-3.5l-7.52 4.25-3.98 2.25V81l17.5-28-29.5 17V53.417Z" fill="#fff"/><path d="m202.135 53.417 47-27.417-17-10-47 27.417 17 10ZM199.135 122l16-9-8.769-5.158-8.231-4.842-16 9 17 10ZM233.135 68.5c5.713-.714 9.895-.153 13.095 1.5l-10.326-6-2.769 4.5Z" fill="#C5F4EC"/><path d="m231.635 53-29.5 17-3.199-1.882L197.135 71l17 10 17.5-28ZM226.135 116.5c3.5-2 7-5.5 8.5-9.5 0 0-5.5.5-13 .5s-12.5-1-12.5-1c-.816.467-1.769.96-2.769 1.342l8.769 5.158c1.5 8 7.5 5.5 11 3.5Z" fill="#6FDAC9"/><path d="M202.135 70V53.417l-17-10V60l13.801 8.118L202.135 70ZM214.135 81v14l3.98-2.25 7.52-4.25c2.5-1.5 9.5-2.5 9.5 3.5 0 0 .341 12.756-.5 15 0 0-5.5.5-13 .5s-12.5-1-12.5-1c3.5-2 7-5.5 8.5-9.5.254-.675.4-2.304.48-4.25l-3.98 2.25-17-10V71l17 10ZM204.635 136.37c-5.282-3.194-6.006-10.32-5.5-14.37l-17-10c-.522 4.175.264 11.617 6 14.653l16.5 9.717Z" fill="#10B1B1"/><path d="M202.135 53.417V70m0-16.583-17-10m17 10L241 30.745M202.135 70l29.5-17-17.5 28m-12-11-3.199-1.882M214.135 81v14m0-14-17-10m17 24-17-10V71m17 24 3.98-2.25m-2.98 20.25c1.5 8 7.5 5.5 11 3.5s7-5.5 8.5-9.5c.841-2.244.5-15 .5-15 0-6-7-5-9.5-3.5l-7.52 4.25m-2.98 20.25-16 9m16-9-8.769-5.158M199.135 122c-.506 4.05.218 11.176 5.5 14.37m-5.5-14.37-17-10m3-68.583 47-27.417 17 10v16.5L235.904 64m-50.769-20.583V60l13.801 8.118M197.135 71l1.801-2.882M182.135 112l16-9 8.231 4.842M182.135 112c-.522 4.175.264 11.616 6 14.653l16.5 9.717M246.23 70a13.64 13.64 0 0 1 3.405 2.5c3.335 3.335 3.5 14.5 2.5 23.5s-5.333 16-9 21.5c-3.21 4.815-18 20.5-32 20.5-2.695 0-4.826-.617-6.5-1.63M246.23 70c-3.2-1.653-7.382-2.214-13.095-1.5l2.769-4.5m10.326 6-10.326-6m-29.538 43.842c1-.382 1.953-.875 2.769-1.342 3.5-2 7-5.5 8.5-9.5.254-.675.4-2.304.48-4.25" stroke="#171321" stroke-width="2"/><path d="M132.909 184C160.687 184 192 135.648 192 100.227c0-18.453-5.875-27.7-12.626-31.876-3.535-2.186-7.309-2.983-10.606-2.983-24.748 0-59.091 44.417-59.091 87.147 0 13.552 4.312 23.371 11.616 28.171 3.301 2.17 7.214 3.314 11.616 3.314Z" fill="#FFC2A8"/><path d="M109.677 152.392c0 13.552 4.312 23.371 11.616 28.171l-17.448-11.096C96.402 164.722 92 154.84 92 141.147c0-13.253 3.304-26.669 8.6-38.871l17.658 11.289c-5.285 12.19-8.581 25.589-8.581 38.827Z" fill="#FF7B42"/><path d="M179.374 68.228c-3.534-2.187-7.309-2.983-10.606-2.983-17.081 0-38.734 21.16-50.51 48.32l-17.657-11.289C112.381 75.137 134.019 54 151.091 54c3.297 0 7.072.797 10.606 2.983l17.677 11.245Z" fill="#FF9D73"/><path d="m170.404 93.841-13.932 27.378c4.325 2.772 12.528 8.057 13.064 8.399 1.945 1.237 1.76 4.67.199 7.283-1.55 2.591-3.767 3.586-5.261 2.701l-13.245-8.465c-4.474 8.61-13.5 25.969-13.807 26.524-.763 1.381-2.791 4.188-5.033 3.042-1.645-.84-1.259-4.139-.432-5.604l13.903-27.378c-4.379-2.9-12.668-8.21-13.162-8.624-1.681-1.409-1.906-4.062-.645-6.586 1.574-3.148 3.948-4.499 5.756-3.425l13.468 8.602 14.143-27.432c1.03-1.81 3.036-3.237 4.647-2.212 1.611 1.025 1.302 3.811.337 5.797Z" fill="#171321"/><path d="M179.374 68.35c-3.535-2.185-7.309-2.982-10.606-2.982-17.093 0-38.764 21.19-50.534 48.377m61.14-45.394C186.125 72.527 192 81.775 192 100.227 192 135.648 160.687 184 132.909 184c-4.402 0-8.315-1.144-11.616-3.314m58.081-112.335-17.677-11.245c-3.534-2.186-7.309-2.983-10.606-2.983-17.057 0-38.672 21.1-50.46 48.205m20.662 78.358c-7.304-4.8-11.616-14.619-11.616-28.171 0-13.217 3.285-26.595 8.557-38.77m3.059 66.941-17.448-11.096C96.402 164.845 92 154.963 92 141.27c0-13.279 3.317-26.721 8.631-38.942m17.603 11.417-17.603-11.417" stroke="#171321" stroke-width="2"/><path d="m55.034 135.391 47-27.21v17l-23.738 13.783-7.262 4.217v16c4.5-4 12.5-9 18.5-10 4.178-.696 7.25-.27 9.5.9 5.129 2.666 6 9.193 6 15.1v9.5c0 25.5-28 44.5-41 44.5-2.439 0-4.412-.587-6-1.553-5.182-3.156-6.255-10.364-6-14.447l16-9c1.5 4.5 4 7 10.5 4 4.123-1.903 7.402-5.911 9.138-10 .878-2.067 1.362-4.154 1.362-6v-7c0-8.5-5.5-7.5-8-6l-9.227 5.323-16.773 9.677v-48.79Z" fill="#fff"/><path d="m55.065 135.211 47-27.211-16.999-10-47 27.211 17 10ZM71.066 159c4.5-4 12.5-9 18.5-10 4.178-.696 7.249-.27 9.5.9l-17-10c-1.056-.549-2.292-.934-3.739-1.116L71.066 143v16ZM52.034 204.5l-17-10 15.998-9.5 7 4.174 10.61 6.326-16.608 9Z" fill="#C5F4EC"/><path d="M68.034 194.181c1.5 4.5 4 7 10.5 4 4.123-1.903 7.401-5.911 9.138-10 0 0-4.137.866-12.637.866s-13-1.109-13-1.109a17.772 17.772 0 0 1-2.729 1.109l8.728 5.134Z" fill="#6FDAC9"/><path d="M55.034 135.391v48.79l16.772-9.677 9.228-5.323c2.5-1.5 8-2.5 8 6v7c0 1.846-.484 3.933-1.362 6 0 0-4.137.866-12.637.866s-13-1.109-13-1.109c5.113-2.613 8.838-8.447 9.771-13.434l-16.772 9.677-17-10v-48.79l17 10ZM52.034 203.181l-17-10c-.255 4.082.819 11.29 6 14.446l17 10.001c-5.182-3.156-6.255-10.364-6-14.447Z" fill="#10B1B1"/><path d="m102.065 108-47 27.211m47-27.211v17l-23.738 13.784M102.065 108 85.066 98l-47 27.211m17 10V184m0-48.789-17-10m17 58.789-17-10v-48.789m17 58.789 16.772-9.676m-13.772 43.123c1.588.967 3.56 1.553 6 1.553 13 0 41-19 41-44.5V165c0-5.907-.872-12.434-6-15.1m-41 67.547-17-10.001c-4.594-2.798-5.959-8.78-6.031-12.946m23.031 22.947c-4.595-2.798-5.96-8.781-6.032-12.947m47.032-54.6c-2.251-1.17-5.322-1.596-9.5-.9-6 1-14 6-18.5 10v-16l7.261-4.216m20.74 11.116-17-10c-1.057-.549-2.293-.934-3.74-1.116m-6.489 35.54L81.065 169c2.5-1.5 8-2.5 8 6v7c0 1.846-.483 3.934-1.361 6-1.737 4.089-5.016 8.097-9.139 10-5.735 2.647-8.356 1.012-9.924-2.5m3.197-21.176c-.934 4.987-4.659 10.82-9.772 13.433-.165.084-.332.165-.5.243-1.15.531-2.308.884-3.535 1.174m10.61 6.326-16.607 9m16.607-9-10.61-6.326M52.035 204.5l-17-10m0 0 15.998-9.5 7 4.174" stroke="#171321" stroke-width="2"/></svg>
