<svg xmlns="http://www.w3.org/2000/svg" width="288" height="288" fill="none" viewBox="0 0 288 288"><path d="M287 181c0 22.41-15.768 42.89-41.676 57.823C219.443 253.741 183.621 263 144 263c-39.621 0-75.443-9.259-101.324-24.177C16.768 223.89 1 203.41 1 181v-18h286v18Z" fill="#AEA5D6" stroke="#171321" stroke-width="2"/><ellipse cx="144" cy="161" rx="144" ry="83" fill="#E7E4F2"/><path d="M53.632 225.442C21.51 210.314 1 187.289 1 161.5 1 115.937 65.023 79 144 79s143 36.937 143 82.5S222.977 244 144 244c-29.826 0-57.52-5.268-80.438-14.28" stroke="#171321" stroke-width="2"/><path d="m253 108.181-52 30v-16.5l30.5-52.5a71.622 71.622 0 0 0 2-4.307c.927-2.213 1.737-4.592 2-6.693.5-4 1-12.5-6.5-11.5-6 .8-13 10-13 19.5l-2.685 1.5-5.557 3.106L199 75.68c0-4.085 1.501-12.902 6-22.126 4.864-9.972 13.233-20.42 27-25.874 5.467-2.166 9.774-2.13 13-.516 5.103 2.553 7.5 9.05 7.5 17.016 0 10.4-6.333 24-9.5 29.5l-5.127 8.666L222 109.181l31-18v17Z" fill="#fff"/><path d="m222 109.181 31-18-15.127-8.834L222 109.181ZM232 27.68c5.467-2.165 9.774-2.129 13-.515l-16.5-9.732c-3.276-1.871-7.746-2.032-13.5.248-13.767 5.455-22.136 15.902-27 25.874l17 10c4.864-9.972 13.233-20.42 27-25.874Z" fill="#C5F4EC"/><path d="M231.5 69.18 201 121.682l-17-10 23.758-40.894 5.557-3.106 20.185-2.807a71.622 71.622 0 0 1-2 4.307ZM182 65.68l17 10c0-4.084 1.501-12.901 6-22.125l-17-10c-4.499 9.224-6 18.042-6 22.126Z" fill="#6FDAC9"/><path d="M201 121.681v16.5l-17-10v-16.5l17 10ZM229 46.68c7.5-1 7 7.5 6.5 11.5-.263 2.102-1.073 4.48-2 6.694l-20.185 2.807 2.685-1.5c0-9.5 7-18.7 13-19.5Z" fill="#10B1B1"/><path d="m201 138.181 52-30v-17m-52 47v-16.5m0 16.5-17-10v-16.5m69-20.5-31 18 15.873-26.834M253 91.181l-15.127-8.834M252.5 44.181c0-7.965-2.397-14.463-7.5-17.016m-46 48.516-17-10c0-4.084 1.501-12.902 6-22.126 4.864-9.972 13.233-20.42 27-25.874 5.754-2.28 10.224-2.12 13.5-.248l16.5 9.732m-46 48.516 8.758-4.894M199 75.68c0-4.085 1.501-12.902 6-22.126 4.864-9.972 13.233-20.42 27-25.874 5.467-2.166 9.774-2.13 13-.516m-44 94.516 30.5-52.5a71.622 71.622 0 0 0 2-4.307c.927-2.213 1.737-4.592 2-6.693.5-4 1-12.5-6.5-11.5-6 .8-13 10-13 19.5l-2.685 1.5-5.557 3.106M201 121.68l-17-10m0 0 23.758-40.894m30.115 11.56L243 73.681c2.413-4.191 6.664-13.084 8.551-21.681" stroke="#171321" stroke-width="2"/><path d="M132.909 180C160.687 180 192 131.602 192 96.147c0-18.47-5.875-27.725-12.626-31.906-3.535-2.188-7.309-2.986-10.606-2.986-24.748 0-59.091 44.459-59.091 87.23 0 13.565 4.312 23.394 11.616 28.198 3.301 2.172 7.214 3.317 11.616 3.317Z" fill="#FFC2A8"/><path fill-rule="evenodd" clip-rule="evenodd" d="M168.768 61.255c3.297 0 7.072.798 10.606 2.986l-17.677-11.255C158.163 50.797 154.388 50 151.091 50c-17.072 0-38.71 21.157-50.49 48.322l17.657 11.299c11.776-27.186 33.429-48.366 50.51-48.366Zm-36.457 105.801c-2.313 0-4.463-.386-6.421-1.132 2.895 2.21 6.428 3.383 10.462 3.383 12.777 0 26.464-12.495 36.043-28.624l-5.895.747c-9.442 14.653-22.215 25.626-34.189 25.626Z" fill="#FF9D73"/><path d="M171.788 72.478c4.993 3.798 9.101 11.383 9.101 25.43 0 13.906-5.824 30.228-14.389 43.521l5.895-.746c7.54-12.697 12.535-27.646 12.535-40.524 0-17.72-6.538-25.156-13.142-27.681ZM121.293 176.683c-7.304-4.804-11.616-14.633-11.616-28.198 0-13.25 3.296-26.662 8.581-38.864L100.6 98.322c-5.296 12.214-8.6 25.642-8.6 38.907 0 13.707 4.402 23.598 11.845 28.347l17.448 11.107Z" fill="#FF7B42"/><path d="M165.83 71.385c-20.344 0-48.577 36.663-48.578 71.934 0 10.607 3.188 18.444 8.637 22.605 1.959.746 4.108 1.132 6.422 1.132 12.486 0 25.84-11.931 35.381-27.525 7.909-12.927 13.197-28.372 13.197-41.624 0-14.046-4.108-21.63-9.101-25.43a16.72 16.72 0 0 0-5.958-1.092Z" fill="#fff"/><path d="M179.374 64.241c-3.535-2.188-7.309-2.986-10.606-2.986-17.086 0-38.746 21.192-50.519 48.389m61.125-45.403C186.125 68.421 192 77.678 192 96.147 192 131.602 160.687 180 132.909 180c-4.402 0-8.315-1.145-11.616-3.317m58.081-112.442-17.677-11.255C158.163 50.797 154.388 50 151.091 50c-16.985 0-38.49 20.942-50.31 47.907m20.512 78.776c-7.304-4.804-11.616-14.633-11.616-28.198 0-13.242 3.292-26.645 8.572-38.841m3.044 67.039-17.448-11.107C96.402 160.827 92 150.936 92 137.229c0-13.415 3.38-26.998 8.781-39.322m71.007-25.43c4.993 3.8 9.101 11.383 9.101 25.43 0 13.252-5.288 28.697-13.197 41.624m4.096-67.053a16.72 16.72 0 0 0-5.958-1.093c-20.344 0-48.577 36.663-48.577 71.934 0 10.607 3.187 18.444 8.636 22.605m45.899-93.446c6.604 2.525 13.141 9.96 13.141 27.681 0 13.22-5.263 28.623-13.141 41.531m-45.899 24.234c1.959.746 4.108 1.132 6.422 1.132 12.486 0 25.84-11.931 35.381-27.525m-41.803 26.393c2.896 2.21 6.429 3.383 10.462 3.383 12.511 0 25.893-11.978 35.437-27.617m-53.539-32.046-17.468-11.737m71.007 43.783-4.096-2.159" stroke="#171321" stroke-width="2"/><path d="M147.343 94.965v24.393l-12.723 30.881c-.622 1.659-.517 4.003.757 4.824l.041.026-.041-.026-3.697-2.315c-1.158-.888-1.237-3.133-.635-4.738l12.724-30.881V92.737c0-1.719.226-3.266.642-4.59l3.655 1.982c-.467 1.377-.723 3.01-.723 4.836Z" fill="#2B2838"/><path d="M152.107 85.62a1.666 1.666 0 0 1 1.15.086l-3.539-2.213a1.672 1.672 0 0 0-1.185-.102c-1.886.565-3.34 2.266-4.122 4.756l3.655 1.982c.799-2.355 2.218-3.963 4.041-4.509Z" fill="#45424D"/><path d="M154.626 88.147v29.385l-13.595 33.33c-.727 1.869-2.317 4.5-4.578 4.5-.405 0-.749-.099-1.035-.273-1.312-.797-1.427-3.173-.798-4.85l12.723-30.881V94.965c0-4.95 1.876-8.48 4.765-9.345a1.667 1.667 0 0 1 1.15.086c.744.327 1.368 1.174 1.368 2.44Z" fill="#74717A"/><path d="M135.418 155.089c-1.312-.797-1.427-3.173-.798-4.85l12.724-30.881V94.965c0-1.869.267-3.535.755-4.932m-12.681 65.056c.286.174.63.273 1.035.273 2.261 0 3.851-2.631 4.578-4.5l13.595-33.33V88.147c0-1.267-.624-2.114-1.368-2.441m-17.84 69.383-3.738-2.34c-1.158-.889-1.237-3.134-.635-4.739l12.724-30.881V92.737c0-1.719.226-3.266.642-4.59m8.847-2.441a1.667 1.667 0 0 0-1.15-.086c-1.798.539-3.204 2.11-4.009 4.413m5.159-4.327-3.54-2.213a1.672 1.672 0 0 0-1.185-.102c-1.886.565-3.34 2.266-4.122 4.756m3.688 1.886-3.688-1.886" stroke="#171321" stroke-width="2"/><path d="m55.034 130.391 47-27.21v17l-23.738 13.783-7.262 4.217v16c4.5-4 12.5-9 18.5-10 4.178-.696 7.25-.27 9.5.9 5.129 2.666 6 9.193 6 15.1v9.5c0 25.5-28 44.5-41 44.5-2.439 0-4.412-.587-6-1.553-5.182-3.156-6.255-10.364-6-14.447l16-9c1.5 4.5 4 7 10.5 4 4.123-1.903 7.402-5.911 9.138-10 .878-2.067 1.362-4.154 1.362-6v-7c0-8.5-5.5-7.5-8-6l-9.227 5.323-16.773 9.677v-48.79Z" fill="#fff"/><path d="m55.065 130.211 47-27.211-16.999-10-47 27.211 17 10ZM71.066 154c4.5-4 12.5-9 18.5-10 4.178-.696 7.249-.27 9.5.9l-17-10c-1.056-.549-2.292-.934-3.739-1.116L71.066 138v16ZM52.034 199.5l-17-10 15.998-9.5 7 4.174 10.61 6.326-16.608 9Z" fill="#C5F4EC"/><path d="M68.034 189.181c1.5 4.5 4 7 10.5 4 4.123-1.903 7.401-5.911 9.138-10 0 0-4.137.866-12.637.866s-13-1.109-13-1.109a17.772 17.772 0 0 1-2.729 1.109l8.728 5.134Z" fill="#6FDAC9"/><path d="M55.034 130.391v48.79l16.772-9.677 9.228-5.323c2.5-1.5 8-2.5 8 6v7c0 1.846-.484 3.933-1.362 6 0 0-4.137.866-12.637.866s-13-1.109-13-1.109c5.113-2.613 8.838-8.447 9.771-13.434l-16.772 9.677-17-10v-48.79l17 10ZM52.034 198.181l-17-10c-.255 4.082.819 11.29 6 14.446l17 10.001c-5.182-3.156-6.255-10.364-6-14.447Z" fill="#10B1B1"/><path d="m102.065 103-47 27.211m47-27.211v17l-23.738 13.784M102.065 103 85.066 93l-47 27.211m17 10V179m0-48.789-17-10m17 58.789-17-10v-48.789m17 58.789 16.772-9.676m-13.772 43.123c1.588.967 3.56 1.553 6 1.553 13 0 41-19 41-44.5V160c0-5.907-.872-12.434-6-15.1m-41 67.547-17-10.001c-4.594-2.798-5.959-8.78-6.031-12.946m23.031 22.947c-4.595-2.798-5.96-8.781-6.032-12.947m47.032-54.6c-2.251-1.17-5.322-1.596-9.5-.9-6 1-14 6-18.5 10v-16l7.261-4.216m20.74 11.116-17-10c-1.057-.549-2.293-.934-3.74-1.116m-6.489 35.54L81.065 164c2.5-1.5 8-2.5 8 6v7c0 1.846-.483 3.934-1.361 6-1.737 4.089-5.016 8.097-9.139 10-5.735 2.647-8.356 1.012-9.924-2.5m3.197-21.176c-.934 4.987-4.659 10.82-9.772 13.433-.165.084-.332.165-.5.243-1.15.531-2.308.884-3.535 1.174m10.61 6.326-16.607 9m16.607-9-10.61-6.326M52.035 199.5l-17-10m0 0 15.998-9.5 7 4.174" stroke="#171321" stroke-width="2"/></svg>
