<svg xmlns="http://www.w3.org/2000/svg" width="288" height="288" fill="none" viewBox="0 0 288 288"><path d="M287.941 181.184c0 22.411-15.768 42.89-41.676 57.824-25.882 14.917-61.703 24.176-101.324 24.176-39.622 0-75.443-9.259-101.324-24.176C17.709 224.074 1.94 203.595 1.94 181.184v-18h286v18Z" fill="#AEA5D6" stroke="#171321" stroke-width="2"/><ellipse cx="144.941" cy="161.184" rx="144" ry="83" fill="#E7E4F2"/><path d="M54.573 225.626C22.45 210.498 1.94 187.473 1.94 161.684c0-45.563 64.023-82.5 143-82.5 78.976 0 143 36.937 143 82.5 0 45.564-64.024 82.5-143 82.5-29.827 0-57.52-5.268-80.438-14.279" stroke="#171321" stroke-width="2"/><path d="m253.941 108.365-52 30v-16.5l30.5-52.5a71.65 71.65 0 0 0 2-4.307c.927-2.213 1.737-4.592 2-6.693.5-4 1-12.5-6.5-11.5-6 .8-13 10-13 19.5l-2.685 1.5-5.558 3.106-8.757 4.894c0-4.085 1.5-12.902 6-22.126 4.864-9.972 13.233-20.42 27-25.874 5.466-2.166 9.774-2.13 13-.516 5.103 2.553 7.5 9.05 7.5 17.016 0 10.4-6.334 24-9.5 29.5l-5.127 8.666-15.873 26.834 31-18v17Z" fill="#fff"/><path d="m222.941 109.365 31-18-15.127-8.834-15.873 26.834ZM232.941 27.865c5.466-2.166 9.774-2.13 13-.516l-16.5-9.732c-3.276-1.871-7.746-2.032-13.5.248-13.767 5.455-22.136 15.902-27 25.874l17 10c4.864-9.972 13.233-20.42 27-25.874Z" fill="#C5F4EC"/><path d="m232.441 69.365-30.5 52.5-17-10 23.757-40.894 5.558-3.106 20.185-2.807a71.622 71.622 0 0 1-2 4.307ZM182.941 65.865l17 10c0-4.085 1.5-12.902 6-22.126l-17-10c-4.5 9.224-6 18.042-6 22.126Z" fill="#6FDAC9"/><path d="M201.941 121.865v16.5l-17-10v-16.5l17 10ZM229.941 46.865c7.5-1 7 7.5 6.5 11.5-.263 2.1-1.073 4.48-2 6.693l-20.185 2.807 2.685-1.5c0-9.5 7-18.7 13-19.5Z" fill="#10B1B1"/><path d="m201.941 138.365 52-30v-17m-52 47v-16.5m0 16.5-17-10v-16.5m69-20.5-31 18 15.873-26.834m15.127 8.834-15.127-8.834m14.627-38.166c0-7.965-2.397-14.463-7.5-17.016m-46 48.516-17-10c0-4.084 1.5-12.902 6-22.126 4.864-9.972 13.233-20.42 27-25.874 5.754-2.28 10.224-2.12 13.5-.248l16.5 9.732m-46 48.516 8.757-4.894m-8.757 4.894c0-4.085 1.5-12.902 6-22.126 4.864-9.972 13.233-20.42 27-25.874 5.466-2.166 9.774-2.13 13-.516m-44 94.516 30.5-52.5a71.622 71.622 0 0 0 2-4.307c.927-2.213 1.737-4.592 2-6.693.5-4 1-12.5-6.5-11.5-6 .8-13 10-13 19.5l-2.685 1.5-5.558 3.106m-6.757 50.894-17-10m0 0 23.757-40.894m30.116 11.56 5.127-8.666c2.412-4.19 6.664-13.084 8.551-21.68" stroke="#171321" stroke-width="2"/><path d="M133.85 180.184c27.778 0 59.091-48.398 59.091-83.853 0-18.47-5.875-27.725-12.627-31.906-3.534-2.188-7.308-2.985-10.606-2.985-24.747 0-59.09 44.458-59.091 87.229 0 13.565 4.312 23.394 11.617 28.198 3.301 2.172 7.214 3.317 11.616 3.317Z" fill="#FFC2A8"/><path fill-rule="evenodd" clip-rule="evenodd" d="M169.709 61.44c3.297 0 7.071.797 10.606 2.985L162.638 53.17c-3.534-2.189-7.309-2.986-10.606-2.986-17.072 0-38.71 21.157-50.491 48.322l17.658 11.299c11.776-27.186 33.429-48.366 50.51-48.366Zm-36.457 105.8c-2.314 0-4.463-.386-6.422-1.132 2.896 2.21 6.429 3.384 10.462 3.384 12.778 0 26.465-12.496 36.044-28.625l-5.895.747c-9.442 14.653-22.215 25.626-34.189 25.626Z" fill="#FF9D73"/><path d="M172.729 72.662c4.993 3.798 9.101 11.383 9.101 25.43 0 13.907-5.824 30.229-14.389 43.522l5.895-.747c7.54-12.697 12.534-27.646 12.534-40.524 0-17.72-6.537-25.156-13.141-27.681ZM122.234 176.867c-7.305-4.804-11.617-14.632-11.617-28.198 0-13.25 3.296-26.662 8.582-38.863l-17.658-11.3c-5.296 12.214-8.6 25.642-8.6 38.908 0 13.706 4.402 23.597 11.845 28.346l17.448 11.107Z" fill="#FF7B42"/><path d="M166.771 71.57c-20.345 0-48.578 36.662-48.578 71.933 0 10.607 3.188 18.444 8.637 22.605 1.959.746 4.108 1.132 6.422 1.132 12.485 0 25.84-11.931 35.38-27.525 7.909-12.927 13.198-28.372 13.198-41.623 0-14.047-4.109-21.632-9.101-25.43a16.727 16.727 0 0 0-5.958-1.093Z" fill="#fff"/><path d="M180.314 64.425c-3.534-2.188-7.308-2.985-10.606-2.985-17.085 0-38.745 21.191-50.519 48.388m61.125-45.403c6.752 4.18 12.627 13.437 12.627 31.906 0 35.455-31.313 83.853-59.091 83.853-4.402 0-8.315-1.145-11.616-3.317m58.08-112.442L162.638 53.17c-3.535-2.189-7.309-2.986-10.606-2.986-16.985 0-38.49 20.942-50.31 47.908m20.512 78.775c-7.305-4.804-11.617-14.633-11.617-28.198 0-13.242 3.292-26.645 8.572-38.841m3.045 67.039-17.448-11.107c-7.443-4.749-11.845-14.64-11.845-28.346 0-13.416 3.379-26.998 8.781-39.322m71.007-25.43c4.992 3.798 9.101 11.383 9.101 25.43 0 13.251-5.289 28.696-13.198 41.623m4.097-67.053a16.727 16.727 0 0 0-5.958-1.093c-20.345 0-48.578 36.663-48.578 71.934 0 10.607 3.188 18.444 8.637 22.605m45.899-93.446c6.603 2.525 13.141 9.96 13.141 27.681 0 13.22-5.263 28.623-13.141 41.531m-45.899 24.234c1.959.746 4.108 1.132 6.422 1.132 12.485 0 25.84-11.931 35.38-27.525m-41.802 26.393c2.895 2.21 6.429 3.383 10.462 3.383 12.51 0 25.892-11.978 35.437-27.617m-53.54-32.046-17.467-11.736m71.007 43.782-4.097-2.159" stroke="#171321" stroke-width="2"/><path d="M148.284 95.15v24.392l-12.723 30.881c-.623 1.66-.517 4.003.756 4.824l.041.026a2.542 2.542 0 0 1-.041-.026l-3.696-2.314c-1.158-.889-1.237-3.134-.635-4.738l12.723-30.882V92.921c0-1.719.227-3.266.643-4.59l3.655 1.982c-.468 1.378-.723 3.01-.723 4.836Z" fill="#2B2838"/><path d="M153.048 85.804a1.666 1.666 0 0 1 1.15.086l-3.539-2.213a1.675 1.675 0 0 0-1.186-.102c-1.885.565-3.339 2.266-4.122 4.756l3.656 1.982c.799-2.355 2.218-3.963 4.041-4.509Z" fill="#45424D"/><path d="M155.567 88.33v29.386l-13.596 33.33c-.726 1.869-2.316 4.5-4.578 4.5-.405 0-.748-.099-1.034-.273-1.313-.797-1.427-3.173-.798-4.85l12.723-30.881V95.149c0-4.95 1.876-8.48 4.764-9.345a1.666 1.666 0 0 1 1.15.086c.745.327 1.369 1.174 1.369 2.44Z" fill="#74717A"/><path d="M136.358 155.273c-1.312-.797-1.426-3.173-.797-4.85l12.723-30.881V95.149c0-1.868.268-3.535.756-4.932m-12.682 65.056c.287.174.63.273 1.035.273 2.262 0 3.852-2.631 4.578-4.5l13.596-33.329V88.331c0-1.267-.624-2.114-1.369-2.44m-17.84 69.382-3.737-2.34c-1.158-.889-1.237-3.134-.635-4.738l12.723-30.882V92.921c0-1.719.227-3.266.643-4.59m8.846-2.44a1.667 1.667 0 0 0-1.15-.087c-1.798.539-3.203 2.11-4.008 4.413m5.158-4.327-3.539-2.213a1.672 1.672 0 0 0-1.185-.102c-1.886.565-3.34 2.266-4.122 4.756m3.688 1.886-3.688-1.886" stroke="#171321" stroke-width="2"/><path d="m55.975 130.576 47-27.211v17l-23.739 13.784-7.261 4.216v16c4.5-4 12.5-9 18.5-10 4.178-.696 7.25-.27 9.5.9 5.129 2.666 6 9.193 6 15.1v9.5c0 25.5-28 44.5-41 44.5-2.44 0-4.412-.586-6-1.553-5.183-3.156-6.256-10.364-6-14.447l16-9c1.5 4.5 4 7 10.5 4 4.122-1.903 7.401-5.911 9.138-10 .878-2.066 1.362-4.154 1.362-6v-7c0-8.5-5.5-7.5-8-6l-9.228 5.324-16.772 9.676v-48.789Z" fill="#fff"/><path d="m56.006 130.395 47-27.211-17-10-47 27.211 17 10ZM72.006 154.184c4.5-4 12.5-9 18.5-10 4.178-.696 7.25-.27 9.501.9l-17-10c-1.056-.549-2.293-.934-3.74-1.116l-7.26 4.216v16ZM52.975 199.684l-17-10 15.997-9.5 7 4.174 10.61 6.326-16.607 9Z" fill="#C5F4EC"/><path d="M68.975 189.365c1.5 4.5 4 7 10.5 4 4.122-1.903 7.401-5.911 9.138-10 0 0-4.138.866-12.638.866s-13-1.109-13-1.109a17.767 17.767 0 0 1-2.729 1.109l8.729 5.134Z" fill="#6FDAC9"/><path d="M55.974 130.575v48.79l16.773-9.677 9.228-5.323c2.5-1.5 8-2.5 8 6v7c0 1.846-.484 3.933-1.362 6 0 0-4.138.866-12.638.866s-13-1.109-13-1.109c5.113-2.613 8.838-8.446 9.772-13.434l-16.773 9.677-16.999-10v-48.79l17 10ZM52.974 198.365l-16.999-10c-.255 4.082.818 11.29 6 14.446l17 10.001c-5.183-3.156-6.256-10.364-6-14.447Z" fill="#10B1B1"/><path d="m103.006 103.184-47 27.211m47-27.211v17l-23.738 13.784m23.738-30.784-17-10-47 27.211m17 10v48.789m0-48.789-17-10m17 58.789-17-10v-48.789m17 58.789 16.773-9.676m-13.772 43.123c1.587.967 3.56 1.553 6 1.553 13 0 40.999-19 40.999-44.5v-9.5c0-5.907-.871-12.433-5.999-15.1m-41 67.547-17-10.001c-4.594-2.798-5.959-8.78-6.032-12.946m23.032 22.947c-4.595-2.798-5.96-8.781-6.032-12.947m47.032-54.6c-2.251-1.17-5.323-1.596-9.5-.9-6 1-14 6-18.5 10v-16l7.26-4.216m20.74 11.116-17-10c-1.056-.549-2.293-.934-3.74-1.116m-6.488 35.54 9.227-5.324c2.5-1.5 8-2.5 8 6v7c0 1.846-.484 3.934-1.362 6-1.737 4.089-5.015 8.097-9.138 10-5.735 2.647-8.356 1.012-9.924-2.5m3.197-21.176c-.934 4.987-4.659 10.82-9.772 13.433-.165.084-.332.166-.5.243-1.15.531-2.308.885-3.535 1.174m10.61 6.326-16.607 9m16.607-9-10.61-6.326m-5.997 15.326-17-10m0 0 15.997-9.5 7 4.174" stroke="#171321" stroke-width="2"/></svg>