<svg width="16" height="16" xmlns="http://www.w3.org/2000/svg"><g clip-path="url(#gitlab-code-suggestions-loading__a)" fill="#000"><path d="M2.686.75a.686.686 0 0 0-1.372 0v.564H.75a.686.686 0 1 0 0 1.372h.564v.564a.686.686 0 1 0 1.372 0v-.564h.564a.686.686 0 1 0 0-1.372h-.564V.75Z"/><path d="m14.515 6.823.003.008a1.686 1.686 0 0 1-.553 1.938l-.008.006-.005.004-2.492 1.873-.005.004-1.17.888a5.699 5.699 0 0 1-.332 1.81l.044.001c.11 0 .218-.036.306-.102l1.98-1.504 2.503-1.881.007-.006A3.057 3.057 0 0 0 15.8 6.343l-.016-.043-1.633-4.278a.425.425 0 0 0-.357-.27.43.43 0 0 0-.46.314l-1.102 3.39H7.768l-1.103-3.39a.435.435 0 0 0-.46-.313.431.431 0 0 0-.355.269L4.44 5.716a5.818 5.818 0 0 1 1.414.143l.325-.854.342 1.05a5.7 5.7 0 0 1 1.439.772h5.269l.592-1.823.68 1.78.014.04Z"/><path d="M7.113 12v-1.143H5.97V12h1.143Z"/><path d="M5.143 12v-1.143H4V12h1.143Z"/><path d="M3.173 12v-1.143H2.03V12h1.143Z"/><path d="M4.571 14.629a3.2 3.2 0 1 0 0-6.4 3.2 3.2 0 0 0 0 6.4Zm0 1.371a4.572 4.572 0 1 1 0-9.143 4.572 4.572 0 0 1 0 9.143Z"/></g><defs><clipPath id="gitlab-code-suggestions-loading__a"><path fill="#fff" d="M0 0h16v16H0z"/></clipPath></defs></svg>
