<svg xmlns="http://www.w3.org/2000/svg" width="330" height="132" viewBox="0 0 330 132">
  <g fill="none" fill-rule="evenodd">
    <path fill="#000" fill-opacity=".03" d="M174.12 42c-.08 1-.12 2-.12 3 0 20.43 16.57 37 37 37s37-16.57 37-37c0-1-.04-2-.12-3-1.53 19.03-17.46 34-36.88 34s-35.35-14.97-36.88-34z"/>
    <path fill="#EEE" fill-rule="nonzero" d="M211 78c-21.54 0-39-17.46-39-39s17.46-39 39-39 39 17.46 39 39-17.46 39-39 39zm0-4c19.33 0 35-15.67 35-35S230.33 4 211 4s-35 15.67-35 35 15.67 35 35 35z"/>
    <g fill-rule="nonzero">
      <path fill="#FEE1D3" d="M211.5 51c-6.42 0-12.26-2.84-17.43-8.4-1.32-1.43-1.43-3.58-.27-5.13C199 30.57 204.92 27 211.5 27s12.5 3.56 17.7 10.47c1.16 1.55 1.05 3.7-.27 5.12-5.17 5.53-11 8.4-17.43 8.4zm0-4c5.25 0 10.05-2.34 14.5-7.13-4.5-5.98-9.3-8.87-14.5-8.87-5.2 0-10 2.9-14.5 8.87 4.45 4.8 9.25 7.13 14.5 7.13z"/>
      <path fill="#FC6D26" d="M211 47c-4.42 0-8-3.58-8-8s3.58-8 8-8 8 3.58 8 8-3.58 8-8 8zm0-4c2.2 0 4-1.8 4-4s-1.8-4-4-4-4 1.8-4 4 1.8 4 4 4zm0-1c-1.66 0-3-1.34-3-3s1.34-3 3-3 3 1.34 3 3-1.34 3-3 3z"/>
    </g>
    <path fill="#000" fill-opacity=".03" d="M88.12 83c-.08 1-.12 2-.12 3 0 20.43 16.57 37 37 37s37-16.57 37-37c0-1-.04-2-.12-3-1.53 19.03-17.46 34-36.88 34s-35.35-14.97-36.88-34z"/>
    <path fill="#EEE" fill-rule="nonzero" d="M125 119c-21.54 0-39-17.46-39-39s17.46-39 39-39 39 17.46 39 39-17.46 39-39 39zm0-4c19.33 0 35-15.67 35-35s-15.67-35-35-35-35 15.67-35 35 15.67 35 35 35z"/>
    <path fill="#FEE1D3" fill-rule="nonzero" d="M116 86.34c2.33.83 4 3.05 4 5.66 0 3.3-2.7 6-6 6s-6-2.7-6-6c0-2.6 1.67-4.83 4-5.66V72h4v14.34zM128 66c5.52 0 10 4.48 10 10v12h-4V76c0-3.3-2.7-6-6-6v1.83c0 .55-.45 1-1 1-.24 0-.47-.1-.65-.24l-4.46-3.87c-.46-.36-.5-1-.15-1.4.03-.05.07-.1.1-.12l4.47-3.82c.42-.35 1.05-.3 1.4.1.16.2.25.43.25.66V66zm-14 28c1.1 0 2-.9 2-2s-.9-2-2-2-2 .9-2 2 .9 2 2 2z"/>
    <path fill="#FC6D26" fill-rule="nonzero" d="M114 74c-3.3 0-6-2.7-6-6s2.7-6 6-6 6 2.7 6 6-2.7 6-6 6zm0-4c1.1 0 2-.9 2-2s-.9-2-2-2-2 .9-2 2 .9 2 2 2zm22 28c-3.3 0-6-2.7-6-6s2.7-6 6-6 6 2.7 6 6-2.7 6-6 6zm0-4c1.1 0 2-.9 2-2s-.9-2-2-2-2 .9-2 2 .9 2 2 2z"/>
    <path fill="#000" fill-opacity=".03" d="M2.12 52C2.04 53 2 54 2 55c0 20.43 16.57 37 37 37s37-16.57 37-37c0-1-.04-2-.12-3C74.35 71.03 58.42 86 39 86S3.65 71.03 2.12 52z"/>
    <path fill="#EEE" fill-rule="nonzero" d="M39 88C17.46 88 0 70.54 0 49s17.46-39 39-39 39 17.46 39 39-17.46 39-39 39zm0-4c19.33 0 35-15.67 35-35S58.33 14 39 14 4 29.67 4 49s15.67 35 35 35z"/>
    <path fill="#6B4FBB" fill-rule="nonzero" d="M48 41h-4c0-2.76-2.24-5-5-5s-5 2.24-5 5h-4c0-4.97 4.03-9 9-9s9 4.03 9 9zm-18 0h4v3h-4v-3zm14 0h4v3h-4v-3z"/>
    <path fill="#E1DBF2" fill-rule="nonzero" d="M30 47c-.55 0-1 .45-1 1v12c0 .55.45 1 1 1h18c.55 0 1-.45 1-1V48c0-.55-.45-1-1-1H30zm0-4h18c2.76 0 5 2.24 5 5v12c0 2.76-2.24 5-5 5H30c-2.76 0-5-2.24-5-5V48c0-2.76 2.24-5 5-5z"/>
    <path fill="#6B4FBB" d="M38 53.73c-.6-.34-1-1-1-1.73 0-1.1.9-2 2-2s2 .9 2 2c0 .74-.4 1.4-1 1.73V55c0 .55-.45 1-1 1s-1-.45-1-1v-1.27z"/>
    <path fill="#000" fill-opacity=".03" d="M254.12 92c-.08 1-.12 2-.12 3 0 20.43 16.57 37 37 37s37-16.57 37-37c0-1-.04-2-.12-3-1.53 19.03-17.46 34-36.88 34s-35.35-14.97-36.88-34z"/>
    <path fill="#EEE" fill-rule="nonzero" d="M291 128c-21.54 0-39-17.46-39-39s17.46-39 39-39 39 17.46 39 39-17.46 39-39 39zm0-4c19.33 0 35-15.67 35-35s-15.67-35-35-35-35 15.67-35 35 15.67 35 35 35z"/>
    <path fill="#6B4BBE" fill-rule="nonzero" d="M292 78c5.52 0 10 4.48 10 10 0 2.28-.76 4.43-2.14 6.18-1.03 1.3-.8 3.2.5 4.22 1.3 1.02 3.2.8 4.2-.5 2.22-2.8 3.44-6.26 3.44-9.9 0-8.84-7.16-16-16-16v-3.13c0-.2-.06-.4-.17-.56-.3-.42-.93-.54-1.38-.23l-9.2 6.13c-.1.06-.2.16-.28.27-.3.45-.18 1.08.28 1.38l9.2 6.13c.16.1.35.17.55.17.55 0 1-.45 1-1V78z"/>
    <path fill="#E1DBF2" fill-rule="nonzero" d="M290 100c-5.52 0-10-4.48-10-10 0-2.25.74-4.38 2.1-6.12 1-1.3.77-3.2-.54-4.2-1.3-1.02-3.2-.78-4.2.53C275.18 83 274 86.4 274 90c0 8.84 7.16 16 16 16v3.13c0 .55.45 1 1 1 .2 0 .4-.06.55-.17l9.2-6.13c.46-.3.6-.93.28-1.38-.07-.1-.17-.2-.28-.28l-9.2-6.13c-.45-.3-1.08-.2-1.38.27-.1.2-.17.4-.17.6v3.1z"/>
  </g>
</svg>
