<svg xmlns="http://www.w3.org/2000/svg" width="42" height="42" viewBox="0 0 42 42"><g fill="none" fill-rule="evenodd"><path fill="#E5E5E5" fill-rule="nonzero" d="M21 41.5C9.678 41.5.5 32.322.5 21S9.678.5 21 .5 41.5 9.678 41.5 21 32.322 41.5 21 41.5zm0-1c10.77 0 19.5-8.73 19.5-19.5S31.77 1.5 21 1.5 1.5 10.23 1.5 21 10.23 40.5 21 40.5z"/><path fill="#E1DBF2" d="M20.396 22.846a4 4 0 1 0-2.07-7.727l2.07 7.727z"/><path fill="#6B4FBB" fill-rule="nonzero" d="M23.6 26.43a8.5 8.5 0 1 1 2.828-2.828l3.35 3.348a2 2 0 1 1-2.828 2.828L23.6 26.43zm-.54-3.37a5.5 5.5 0 1 0-7.778-7.777 5.5 5.5 0 0 0 7.779 7.778z"/></g></svg>