<svg xmlns="http://www.w3.org/2000/svg" width="78" height="82" viewBox="0 0 78 82"><g fill="none" fill-rule="evenodd"><path fill="#F9F9F9" d="M2.12 42c-.08.99-.12 1.99-.12 3 0 20.435 16.565 37 37 37s37-16.565 37-37c0-1.01-.04-2.01-.12-3C74.353 61.032 58.425 76 39 76 19.575 76 3.647 61.032 2.12 42z"/><path fill="#EEE" fill-rule="nonzero" d="M39 78C17.46 78 0 60.54 0 39S17.46 0 39 0s39 17.46 39 39-17.46 39-39 39zm0-4c19.33 0 35-15.67 35-35S58.33 4 39 4 4 19.67 4 39s15.67 35 35 35z"/><path fill="#E1DBF2" d="M25 50a6 6 0 1 0 12 0V38h4v12a6 6 0 1 0 12 0h-2a1 1 0 0 1-.8-1.6l4-5.333a1 1 0 0 1 1.6 0l4 5.333A1 1 0 0 1 59 50h-2c0 5.523-4.477 10-10 10a9.985 9.985 0 0 1-8-3.999A9.985 9.985 0 0 1 31 60c-5.523 0-10-4.477-10-10h-2a1 1 0 0 1-.8-1.6l4-5.333a1 1 0 0 1 1.6 0l4 5.333A1 1 0 0 1 27 50h-2z"/><path fill="#6B4FBB" d="M42 19h1a6 6 0 0 1 6 6v9a6 6 0 0 1-6 6h-8a6 6 0 0 1-6-6v-9a6 6 0 0 1 6-6h1v-1a3 3 0 0 1 6 0v1zm-7 4a2 2 0 0 0-2 2v9a2 2 0 0 0 2 2h8a2 2 0 0 0 2-2v-9a2 2 0 0 0-2-2h-8z"/></g></svg>