<svg xmlns="http://www.w3.org/2000/svg" width="78" height="82" viewBox="0 0 78 82"><g fill="none" fill-rule="evenodd"><path fill="#F9F9F9" d="M2.12 42c-.08.99-.12 1.99-.12 3 0 20.435 16.565 37 37 37s37-16.565 37-37c0-1.01-.04-2.01-.12-3C74.353 61.032 58.425 76 39 76 19.575 76 3.647 61.032 2.12 42z"/><path fill="#EEE" fill-rule="nonzero" d="M39 78C17.46 78 0 60.54 0 39S17.46 0 39 0s39 17.46 39 39-17.46 39-39 39zm0-4c19.33 0 35-15.67 35-35S58.33 4 39 4 4 19.67 4 39s15.67 35 35 35z"/><path fill="#E1DBF2" fill-rule="nonzero" d="M45 23c-1.312 0-2.593.23-3.795.673A10.982 10.982 0 0 0 33 20c-5.8 0-10.553 4.49-10.97 10.184A11.003 11.003 0 0 0 16 40c0 6.075 4.925 11 11 11h1.042a2 2 0 1 0 0-4H27a7 7 0 0 1-2.323-13.606 2 2 0 0 0 1.334-1.998 7 7 0 0 1 12.89-4.163 2 2 0 0 0 2.667.664A7.004 7.004 0 0 1 51.7 31.966a2 2 0 0 0 1.334 1.334A7 7 0 0 1 51 47h-.94a2 2 0 1 0 0 4H51c6.075 0 11-4.925 11-11 0-4.524-2.754-8.51-6.822-10.178A11.005 11.005 0 0 0 45 23z"/><path fill="#6B4FBB" d="M41 53V43a2 2 0 1 0-4 0v10h-2.796a1 1 0 0 0-.753 1.659l4.796 5.48a1 1 0 0 0 1.506 0l4.796-5.48A1 1 0 0 0 43.796 53H41z"/></g></svg>