<svg xmlns="http://www.w3.org/2000/svg" width="74" height="78" viewBox="0 0 74 78"><g fill="none" fill-rule="evenodd"><path fill="#F9F9F9" d="M.053 39A37.599 37.599 0 0 0 0 41c0 20.435 16.565 37 37 37s37-16.565 37-37c0-.671-.018-1.338-.053-2C72.907 58.505 56.764 74 37 74 17.236 74 1.092 58.505.053 39z"/><path fill="#EEE" fill-rule="nonzero" d="M37 70c18.225 0 33-14.775 33-33S55.225 4 37 4 4 18.775 4 37s14.775 33 33 33zm0 4C16.565 74 0 57.435 0 37S16.565 0 37 0s37 16.565 37 37-16.565 37-37 37z"/><g fill-rule="nonzero"><path fill="#E1DBF2" d="M37 49c-6.406 0-12.228-2.843-17.38-8.412a4 4 0 0 1-.267-5.113C24.53 28.559 30.434 25 37 25c6.566 0 12.47 3.56 17.647 10.475a4 4 0 0 1-.266 5.113C49.228 46.158 43.406 49 37 49zm0-4c5.225 0 10.012-2.337 14.445-7.128C46.966 31.89 42.173 29 37 29s-9.966 2.89-14.445 8.872C26.988 42.662 31.775 45 37 45z"/><path fill="#6B4FBB" d="M37 45a8 8 0 1 1 0-16 8 8 0 0 1 0 16zm0-4a4 4 0 1 0 0-8 4 4 0 0 0 0 8zm0-1a3 3 0 1 1 0-6 3 3 0 0 1 0 6z"/></g></g></svg>