<svg xmlns="http://www.w3.org/2000/svg" width="16" height="16" viewBox="0 0 16 16"><path d="M11.295 8.845l-.659-1.664a1.78 1.78 0 0 0 .04-.04l1.415-1.414c.586-.586.654-1.468.152-1.97s-1.384-.434-1.97.152L8.859 5.323a1.781 1.781 0 0 0-.04.04l-1.664-.658c.141-.208.305-.408.491-.594l1.415-1.414c1.366-1.367 3.424-1.525 4.596-.354 1.171 1.172 1.013 3.23-.354 4.596L11.89 8.354c-.186.186-.386.35-.594.491zm-2.45 2.45a4.075 4.075 0 0 1-.491.594l-1.415 1.414c-1.366 1.367-3.424 1.525-4.596.354-1.171-1.172-1.013-3.23.354-4.596L4.11 7.646c.186-.186.386-.35.594-.491l.659 1.664a1.781 1.781 0 0 0-.04.04l-1.415 1.414c-.586.586-.654 1.468-.152 1.97s1.384.434 1.97-.152l1.414-1.414a1.78 1.78 0 0 0 .04-.04l1.664.658zm3.812-2.088h2a.5.5 0 0 1 .5.5v.05a.5.5 0 0 1-.5.5h-2a.5.5 0 0 1-.5-.5v-.05a.5.5 0 0 1 .5-.5zm-.384 2.116l1.415 1.414a.5.5 0 0 1 0 .708l-.037.036a.5.5 0 0 1-.707 0l-1.414-1.414a.5.5 0 0 1 0-.707l.036-.037a.5.5 0 0 1 .707 0zm-2.823 1.09a.5.5 0 0 1 .5-.5h.052a.5.5 0 0 1 .5.5v2a.5.5 0 0 1-.5.5H9.95a.5.5 0 0 1-.5-.5v-2zm-2.748-9.16a.5.5 0 0 1-.5.5h-.05a.5.5 0 0 1-.5-.5v-2a.5.5 0 0 1 .5-.5h.05a.5.5 0 0 1 .5.5v2zm-2.116.383a.5.5 0 0 1 0 .707l-.036.036a.5.5 0 0 1-.707 0L2.428 2.965a.5.5 0 0 1 0-.707l.037-.036a.5.5 0 0 1 .707 0l1.414 1.414zm-1.09 2.823h-2a.5.5 0 0 1-.5-.5v-.051a.5.5 0 0 1 .5-.5h2a.5.5 0 0 1 .5.5v.05a.5.5 0 0 1-.5.5z"/></svg>

