<svg xmlns="http://www.w3.org/2000/svg" width="78" height="82" viewBox="0 0 78 82">
  <g fill="none" fill-rule="evenodd" transform="translate(2 2)">
    <path fill="#F9F9F9" d="M0.119863464,40 C0.0404654401,40.9895269 0,41.9900378 0,43 C0,63.4345357 16.5654643,80 37,80 C57.4345357,80 74,63.4345357 74,43 C74,41.9900378 73.9595346,40.9895269 73.8801365,40 C72.3530766,59.0315425 56.4245736,74 37,74 C17.5754264,74 1.64692341,59.0315425 0.119863464,40 Z"/>
    <path fill="#EEEEEE" fill-rule="nonzero" d="M37,76 C15.4608948,76 -2,58.5391052 -2,37 C-2,15.4608948 15.4608948,-2 37,-2 C58.5391052,-2 76,15.4608948 76,37 C76,58.5391052 58.5391052,76 37,76 Z M37,72 C56.3299662,72 72,56.3299662 72,37 C72,17.6700338 56.3299662,2 37,2 C17.6700338,2 2,17.6700338 2,37 C2,56.3299662 17.6700338,72 37,72 Z"/>
    <rect width="16" height="4" x="41" y="35" fill="#E1DBF1" rx="2"/>
    <rect width="16" height="4" x="17" y="35" fill="#E1DBF1" rx="2"/>
    <path fill="#6B4FBB" fill-rule="nonzero" d="M37,45 C32.581722,45 29,41.418278 29,37 C29,32.581722 32.581722,29 37,29 C41.418278,29 45,32.581722 45,37 C45,41.418278 41.418278,45 37,45 Z M37,41 C39.209139,41 41,39.209139 41,37 C41,34.790861 39.209139,33 37,33 C34.790861,33 33,34.790861 33,37 C33,39.209139 34.790861,41 37,41 Z"/>
  </g>
</svg>
