<svg xmlns="http://www.w3.org/2000/svg" width="418" height="260" viewBox="0 0 418 260">
  <g fill="none" fill-rule="evenodd">
    <g transform="translate(120 123)">
      <path fill="#E5E5E5" fill-rule="nonzero" d="M149.583956 3L152.24163 3C160.152584 3 166.875974 8.78143126 168.061078 16.6031139L172.666667 47 168.621014 47 164.106216 17.2023354C163.217388 11.3360734 158.174845 7 152.24163 7L150 7 150 5C150 4.28889529 149.851552 3.61246235 149.583956 3zM126.416044 3L51.5839563 3C51.8515525 3.61246235 52 4.28889529 52 5L52 7 126 7 126 5C126 4.28889529 126.148448 3.61246235 126.416044 3zM5.33333333 47L9.93892213 16.6031139C11.1240256 8.78143126 17.8474164 3 25.7583702 3L28.4160437 3C28.1484475 3.61246235 28 4.28889529 28 5L28 5 28 7 25.7583702 7C19.8251549 7 14.7826117 11.3360734 13.8937841 17.2023354L9.37898649 47 5.33333333 47zM173 71L173 127C173 132.522847 168.522847 137 163 137L15 137C9.4771525 137 5 132.522847 5 127L5 71 9 71 9 127C9 130.313708 11.6862915 133 15 133L163 133C166.313708 133 169 130.313708 169 127L169 71 173 71z"/>
      <g transform="translate(126 67)">
        <path fill="#E5E5E5" fill-rule="nonzero" d="M5,0 C4.44771525,0 4,0.44771525 4,1 L4,65 C4,65.5522847 4.44771525,66 5,66 L19,66 C19.5522847,66 20,65.5522847 20,65 L20,1 C20,0.44771525 19.5522847,0 19,0 L5,0 Z M24,4 L24,65 C24,67.7614237 21.7614237,70 19,70 L5,70 C2.23857625,70 1.2263553e-15,67.7614237 8.8817842e-16,65 L4.16333634e-17,4 L24,4 Z"/>
        <circle cx="12" cy="12" r="3" fill="#FC6D26"/>
        <circle cx="12" cy="26" r="3" fill="#FDC4A8"/>
        <circle cx="12" cy="40" r="3" fill="#FEE1D3"/>
        <circle cx="12" cy="54" r="3" fill="#FEF0E8"/>
      </g>
      <g transform="translate(126)">
        <path fill="#E5E5E5" fill-rule="nonzero" d="M24,47 L24,5 C24,2.23857625 21.7614237,-5.07265313e-16 19,0 L5,0 C2.23857625,5.07265313e-16 -3.38176876e-16,2.23857625 0,5 L6.90805438e-16,47 L4,47 L4,5 C4,4.44771525 4.44771525,4 5,4 L19,4 C19.5522847,4 20,4.44771525 20,5 L20,47 L24,47 Z"/>
        <circle cx="12" cy="12" r="3" fill="#FEF0E8"/>
        <circle cx="12" cy="26" r="3" fill="#FEE1D3"/>
        <circle cx="12" cy="40" r="3" fill="#FDC4A8"/>
      </g>
      <g transform="translate(28)">
        <path fill="#E5E5E5" fill-rule="nonzero" d="M24,47 L24,5 C24,2.23857625 21.7614237,-5.07265313e-16 19,0 L5,0 C2.23857625,5.07265313e-16 -3.38176876e-16,2.23857625 0,5 L6.90805438e-16,47 L4,47 L4,5 C4,4.44771525 4.44771525,4 5,4 L19,4 C19.5522847,4 20,4.44771525 20,5 L20,47 L24,47 Z"/>
        <circle cx="12" cy="12" r="3" fill="#FEE1D3"/>
        <circle cx="12" cy="26" r="3" fill="#FDC4A8"/>
        <circle cx="12" cy="40" r="3" fill="#FC6D26"/>
      </g>
      <g transform="translate(28 67)">
        <path fill="#E5E5E5" fill-rule="nonzero" d="M5,0 C4.44771525,0 4,0.44771525 4,1 L4,65 C4,65.5522847 4.44771525,66 5,66 L19,66 C19.5522847,66 20,65.5522847 20,65 L20,1 C20,0.44771525 19.5522847,0 19,0 L5,0 Z M24,4 L24,65 C24,67.7614237 21.7614237,70 19,70 L5,70 C2.23857625,70 1.2263553e-15,67.7614237 8.8817842e-16,65 L4.16333634e-17,4 L24,4 Z"/>
        <circle cx="12" cy="12" r="3" fill="#FDC4A8"/>
        <circle cx="12" cy="26" r="3" fill="#FEE1D3"/>
        <circle cx="12" cy="40" r="3" fill="#FEF0E8"/>
        <circle cx="12" cy="54" r="3" fill="#FC6D26"/>
      </g>
      <path fill="#E5E5E5" fill-rule="nonzero" d="M81,47 L5,47 C2.23857625,47 -3.38176876e-16,49.2385763 0,52 L0,66 C3.38176876e-16,68.7614237 2.23857625,71 5,71 L81,71 L81,67 L5,67 C4.44771525,67 4,66.5522847 4,66 L4,52 C4,51.4477153 4.44771525,51 5,51 L81,51 L81,47 Z M97,47 L173,47 C175.761424,47 178,49.2385763 178,52 L178,66 C178,68.7614237 175.761424,71 173,71 L97,71 L97,67 L173,67 C173.552285,67 174,66.5522847 174,66 L174,52 C174,51.4477153 173.552285,51 173,51 L97,51 L97,47 Z"/>
      <path fill="#C3B8E3" fill-rule="nonzero" d="M105,79.1000181 L105,71 C105,65.077743 101.782413,59.9069937 97.0000045,57.1405177 L97,64.9990251 C98.255821,66.6705132 99,68.7483504 99,71 L99,79 L104,79 C104.342466,79 104.67689,79.0344303 105,79.1000181 Z M73,79.1000181 L73,71 C73,65.077743 76.217587,59.9069937 80.9999955,57.1405177 L81,64.9990251 C79.744179,66.6705132 79,68.7483504 79,71 L79,79 L74,79 L74,79 C73.6575342,79 73.3231099,79.0344303 73,79.1000181 Z"/>
      <g transform="matrix(1 0 0 -1 69 115)">
        <path fill="#E1DBF1" fill-rule="nonzero" d="M18,4 C10.2680135,4 4,10.2680135 4,18 L4,31 C4,31.5522847 4.44771525,32 5,32 L35,32 C35.5522847,32 36,31.5522847 36,31 L36,18 C36,10.2680135 29.7319865,4 22,4 L18,4 Z M18,-1.2888887e-14 L22,-1.2888887e-14 C31.9411255,-1.24842628e-14 40,8.0588745 40,18 L40,31 C40,33.7614237 37.7614237,36 35,36 L5,36 C2.23857625,36 -9.43169154e-15,33.7614237 -9.76996262e-15,31 L-6.02859776e-15,18 C-8.32276956e-15,8.0588745 8.0588745,-1.2384733e-14 18,-1.2888887e-14 Z"/>
        <path fill="#6B4FBB" d="M18,19.4648712 C16.8043973,18.7732524 16,17.4805647 16,16 C16,13.790861 17.790861,12 20,12 C22.209139,12 24,13.790861 24,16 C24,17.4805647 23.1956027,18.7732524 22,19.4648712 L22,22 C22,23.1045695 21.1045695,24 20,24 C18.8954305,24 18,23.1045695 18,22 L18,19.4648712 Z" transform="matrix(1 0 0 -1 0 36)"/>
      </g>
      <path fill="#E5E5E5" fill-rule="nonzero" d="M86,45 C85.4477153,45 85,45.4477153 85,46 L85,72 C85,72.5522847 85.4477153,73 86,73 L92,73 C92.5522847,73 93,72.5522847 93,72 L93,46 C93,45.4477153 92.5522847,45 92,45 L86,45 Z M86,41 L92,41 C94.7614237,41 97,43.2385763 97,46 L97,72 C97,74.7614237 94.7614237,77 92,77 L86,77 C83.2385763,77 81,74.7614237 81,72 L81,46 C81,43.2385763 83.2385763,41 86,41 Z"/>
    </g>
    <g transform="translate(259 23)">
      <path fill="#F9F9F9" d="M2.11986346,42 C2.04046544,42.9895269 2,43.9900378 2,45 C2,65.4345357 18.5654643,82 39,82 C59.4345357,82 76,65.4345357 76,45 C76,43.9900378 75.9595346,42.9895269 75.8801365,42 C74.3530766,61.0315425 58.4245736,76 39,76 C19.5754264,76 3.64692341,61.0315425 2.11986346,42 Z"/>
      <path fill="#EEEEEE" fill-rule="nonzero" d="M39,78 C17.4608948,78 0,60.5391052 0,39 C0,17.4608948 17.4608948,0 39,0 C60.5391052,0 78,17.4608948 78,39 C78,60.5391052 60.5391052,78 39,78 Z M39,74 C58.3299662,74 74,58.3299662 74,39 C74,19.6700338 58.3299662,4 39,4 C19.6700338,4 4,19.6700338 4,39 C4,58.3299662 19.6700338,74 39,74 Z"/>
      <g fill-rule="nonzero" transform="translate(21 27)">
        <path fill="#FEE1D3" d="M18.5,24 C12.0765212,24 6.23859593,21.1594661 1.07030642,15.5932931 C-0.246808341,14.1747796 -0.3591904,12.016684 0.803462625,10.4690375 C5.99618499,3.55683003 11.9169941,0 18.5,0 C25.0830059,0 31.003815,3.55683003 36.1965373,10.4690375 C37.3591903,12.016684 37.2468083,14.1747794 35.9296936,15.5932931 C30.7614041,21.1594661 24.9234788,24 18.5,24 Z M18.5,20 C23.7455145,20 28.5503007,17.6621561 32.9984408,12.8715735 C28.5048777,6.8900403 23.6940274,4 18.5,4 C13.3059726,4 8.49512227,6.8900403 4.00155907,12.8715735 C8.44969929,17.6621561 13.2544855,20 18.5,20 Z"/>
        <path fill="#FC6D26" d="M18,20 C13.581722,20 10,16.418278 10,12 C10,7.581722 13.581722,4 18,4 C22.418278,4 26,7.581722 26,12 C26,16.418278 22.418278,20 18,20 Z M18,16 C20.209139,16 22,14.209139 22,12 C22,9.790861 20.209139,8 18,8 C15.790861,8 14,9.790861 14,12 C14,14.209139 15.790861,16 18,16 Z M18,15 C16.3431458,15 15,13.6568542 15,12 C15,10.3431458 16.3431458,9 18,9 C19.6568542,9 21,10.3431458 21,12 C21,13.6568542 19.6568542,15 18,15 Z"/>
      </g>
    </g>
    <g transform="translate(0 113)">
      <path fill="#F9F9F9" d="M2.11986346,42 C2.04046544,42.9895269 2,43.9900378 2,45 C2,65.4345357 18.5654643,82 39,82 C59.4345357,82 76,65.4345357 76,45 C76,43.9900378 75.9595346,42.9895269 75.8801365,42 C74.3530766,61.0315425 58.4245736,76 39,76 C19.5754264,76 3.64692341,61.0315425 2.11986346,42 Z"/>
      <path fill="#EEEEEE" fill-rule="nonzero" d="M39,78 C17.4608948,78 0,60.5391052 0,39 C0,17.4608948 17.4608948,0 39,0 C60.5391052,0 78,17.4608948 78,39 C78,60.5391052 60.5391052,78 39,78 Z M39,74 C58.3299662,74 74,58.3299662 74,39 C74,19.6700338 58.3299662,4 39,4 C19.6700338,4 4,19.6700338 4,39 C4,58.3299662 19.6700338,74 39,74 Z"/>
      <path fill="#FEE1D3" fill-rule="nonzero" d="M42,25 C47.5228475,25 52,29.4771525 52,35 L52,47 L48,47 L48,35 C48,31.6862915 45.3137085,29 42,29 L42,30.8257794 L42,30.8257794 C42,31.3780641 41.5522847,31.8257794 41,31.8257794 C40.7612887,31.8257794 40.5304517,31.7403872 40.3492086,31.585036 L35.8857994,27.7592566 L35.8857994,27.7592566 C35.4664735,27.3998345 35.417912,26.7685345 35.7773341,26.3492086 C35.8106588,26.3103298 35.8469206,26.2740681 35.8857994,26.2407434 L35.8857994,26.2407434 L40.3492086,22.414964 L40.3492086,22.414964 C40.7685345,22.0555419 41.3998345,22.1041034 41.7592566,22.5234293 C41.9146078,22.7046724 42,22.9355094 42,23.1742206 L42,25 Z"/>
      <path fill="#FEE1D3" d="M30,45.3414114 C32.3303847,46.1650842 34,48.3875623 34,51 C34,54.3137085 31.3137085,57 28,57 C24.6862915,57 22,54.3137085 22,51 C22,48.3875623 23.6696153,46.1650842 26,45.3414114 L26,31 L30,31 L30,45.3414114 Z M28,53 C29.1045695,53 30,52.1045695 30,51 C30,49.8954305 29.1045695,49 28,49 C26.8954305,49 26,49.8954305 26,51 C26,52.1045695 26.8954305,53 28,53 Z"/>
      <path fill="#FC6D26" fill-rule="nonzero" d="M28 33C24.6862915 33 22 30.3137085 22 27 22 23.6862915 24.6862915 21 28 21 31.3137085 21 34 23.6862915 34 27 34 30.3137085 31.3137085 33 28 33zM28 29C29.1045695 29 30 28.1045695 30 27 30 25.8954305 29.1045695 25 28 25 26.8954305 25 26 25.8954305 26 27 26 28.1045695 26.8954305 29 28 29zM50 57C46.6862915 57 44 54.3137085 44 51 44 47.6862915 46.6862915 45 50 45 53.3137085 45 56 47.6862915 56 51 56 54.3137085 53.3137085 57 50 57zM50 53C51.1045695 53 52 52.1045695 52 51 52 49.8954305 51.1045695 49 50 49 48.8954305 49 48 49.8954305 48 51 48 52.1045695 48.8954305 53 50 53z"/>
    </g>
    <g transform="translate(104)">
      <path fill="#F9F9F9" d="M2.11986346,42 C2.04046544,42.9895269 2,43.9900378 2,45 C2,65.4345357 18.5654643,82 39,82 C59.4345357,82 76,65.4345357 76,45 C76,43.9900378 75.9595346,42.9895269 75.8801365,42 C74.3530766,61.0315425 58.4245736,76 39,76 C19.5754264,76 3.64692341,61.0315425 2.11986346,42 Z"/>
      <path fill="#EEEEEE" fill-rule="nonzero" d="M39,78 C17.4608948,78 0,60.5391052 0,39 C0,17.4608948 17.4608948,0 39,0 C60.5391052,0 78,17.4608948 78,39 C78,60.5391052 60.5391052,78 39,78 Z M39,74 C58.3299662,74 74,58.3299662 74,39 C74,19.6700338 58.3299662,4 39,4 C19.6700338,4 4,19.6700338 4,39 C4,58.3299662 19.6700338,74 39,74 Z"/>
      <g transform="translate(25 22)">
        <path fill="#6B4FBB" fill-rule="nonzero" d="M23,9 L19,9 C19,6.23857625 16.7614237,4 14,4 C11.2385763,4 9,6.23857625 9,9 L5,9 C5,4.02943725 9.02943725,0 14,0 C18.9705627,0 23,4.02943725 23,9 Z M5,9 L9,9 L9,12 L5,12 L5,9 Z M19,9 L23,9 L23,12 L19,12 L19,9 Z"/>
        <path fill="#E1DBF2" fill-rule="nonzero" d="M5,15 C4.44771525,15 4,15.4477153 4,16 L4,28 C4,28.5522847 4.44771525,29 5,29 L23,29 C23.5522847,29 24,28.5522847 24,28 L24,16 C24,15.4477153 23.5522847,15 23,15 L5,15 Z M5,11 L23,11 C25.7614237,11 28,13.2385763 28,16 L28,28 C28,30.7614237 25.7614237,33 23,33 L5,33 C2.23857625,33 3.38176876e-16,30.7614237 0,28 L0,16 C-3.38176876e-16,13.2385763 2.23857625,11 5,11 Z"/>
        <path fill="#6B4FBB" d="M13,21.7324356 C12.4021986,21.3866262 12,20.7402824 12,20 C12,18.8954305 12.8954305,18 14,18 C15.1045695,18 16,18.8954305 16,20 C16,20.7402824 15.5978014,21.3866262 15,21.7324356 L15,23 C15,23.5522847 14.5522847,24 14,24 C13.4477153,24 13,23.5522847 13,23 L13,21.7324356 Z"/>
      </g>
    </g>
    <g transform="translate(340 138)">
      <path fill="#F9F9F9" d="M2.11986346,42 C2.04046544,42.9895269 2,43.9900378 2,45 C2,65.4345357 18.5654643,82 39,82 C59.4345357,82 76,65.4345357 76,45 C76,43.9900378 75.9595346,42.9895269 75.8801365,42 C74.3530766,61.0315425 58.4245736,76 39,76 C19.5754264,76 3.64692341,61.0315425 2.11986346,42 Z"/>
      <path fill="#EEEEEE" fill-rule="nonzero" d="M39,78 C17.4608948,78 0,60.5391052 0,39 C0,17.4608948 17.4608948,0 39,0 C60.5391052,0 78,17.4608948 78,39 C78,60.5391052 60.5391052,78 39,78 Z M39,74 C58.3299662,74 74,58.3299662 74,39 C74,19.6700338 58.3299662,4 39,4 C19.6700338,4 4,19.6700338 4,39 C4,58.3299662 19.6700338,74 39,74 Z"/>
      <path fill="#6B4BBE" fill-rule="nonzero" d="M40,28 C45.5228475,28 50,32.4771525 50,38 C50,40.2789647 49.2390936,42.433801 47.8589333,44.1844992 C46.8331752,45.4856473 47.0564228,47.3719774 48.3575709,48.3977356 C49.658719,49.4234937 51.5450491,49.200246 52.5708072,47.899098 C54.7780762,45.0992335 56,41.6388267 56,38 C56,29.163444 48.836556,22 40,22 L40,18.8685171 C40,18.6710921 39.941562,18.4780844 39.8320503,18.3138169 C39.5256978,17.8542882 38.9048285,17.7301143 38.4452998,18.0364668 L38.4452998,18.0364668 L29.2480754,24.1679497 L29.2480754,24.1679497 C29.1382232,24.2411846 29.0439602,24.3354475 28.9707253,24.4452998 C28.6643729,24.9048285 28.7885468,25.5256978 29.2480754,25.8320503 L29.2480754,25.8320503 L38.4452998,31.9635332 C38.6095673,32.0730449 38.802575,32.1314829 39,32.1314829 C39.5522847,32.1314829 40,31.6837677 40,31.1314829 L40,28 Z"/>
      <path fill="#E1DBF2" fill-rule="nonzero" d="M38,50 C32.4771525,50 28,45.5228475 28,40 C28,37.7497044 28.7417573,35.6203161 30.0900571,33.8807561 C31.1050652,32.5712049 30.8662909,30.6867771 29.5567397,29.671769 C28.2471884,28.6567608 26.3627607,28.8955351 25.3477525,30.2050864 C23.1912083,32.9874336 22,36.4070765 22,40 C22,48.836556 29.163444,56 38,56 L38,59.1314829 C38,59.6837677 38.4477153,60.1314829 39,60.1314829 C39.197425,60.1314829 39.3904327,60.0730449 39.5547002,59.9635332 L48.7519246,53.8320503 C49.2114532,53.5256978 49.3356271,52.9048285 49.0292747,52.4452998 C48.9560398,52.3354475 48.8617768,52.2411846 48.7519246,52.1679497 L39.5547002,46.0364668 L39.5547002,46.0364668 C39.0951715,45.7301143 38.4743022,45.8542882 38.1679497,46.3138169 C38.058438,46.4780844 38,46.6710921 38,46.8685171 L38,50 Z"/>
    </g>
  </g>
</svg>
