<svg xmlns="http://www.w3.org/2000/svg" width="16" height="16" viewBox="0 0 16 16"><path fill-rule="evenodd" d="M5.268 9a2 2 0 0 1 3.464 0H10a1 1 0 0 1 0 2H8.732a2 2 0 0 1-3.464 0H4a1 1 0 0 1 0-2h1.268zM6 2H3a1 1 0 0 0-1 1v10a1 1 0 0 0 1 1h8a1 1 0 0 0 1-1V3a1 1 0 0 0-1-1h-1v3.515a.3.3 0 0 1-.434.268l-1.432-.716a.3.3 0 0 0-.268 0l-1.432.716A.3.3 0 0 1 6 5.515V2zM13.749.094A3.001 3.001 0 0 1 16 3v10a3.001 3.001 0 0 1-2.251 2.906A3.989 3.989 0 0 0 15 13V3c0-1.144-.48-2.177-1.251-2.906zM3 0h8a3 3 0 0 1 3 3v10a3 3 0 0 1-3 3H3a3 3 0 0 1-3-3V3a3 3 0 0 1 3-3zm4 11a1 1 0 1 0 0-2 1 1 0 0 0 0 2z"/></svg>
