<svg xmlns="http://www.w3.org/2000/svg" width="80" height="80" viewBox="0 0 80 80"><g fill="none" fill-rule="evenodd"><path fill="#F9F9F9" d="M10 71.092a3 3 0 0 0 3.413-1.047L22.308 58H66a6 6 0 0 0 6-6V19.528A5.985 5.985 0 0 1 74 24v33a6 6 0 0 1-6 6H24.308l-8.895 12.045A3 3 0 0 1 10 73.263v-2.17z"/><path fill="#EEE" fill-rule="nonzero" d="M20.699 56.812A2 2 0 0 1 22.308 56H66a4 4 0 0 0 4-4V19a4 4 0 0 0-4-4H14a4 4 0 0 0-4 4v49.263a1 1 0 0 0 1.804.594L20.7 56.812zM23.317 60l-8.295 11.233A5 5 0 0 1 6 68.263V19a8 8 0 0 1 8-8h52a8 8 0 0 1 8 8v33a8 8 0 0 1-8 8H23.317z"/><rect width="26" height="4" x="27" y="26" fill="#6B4FBB" rx="2"/><rect width="26" height="4" x="27" y="34" fill="#C3B8E3" rx="2"/><rect width="26" height="4" x="27" y="42" fill="#E1DBF1" rx="2"/></g></svg>