<svg xmlns="http://www.w3.org/2000/svg" width="80" height="80" viewBox="0 0 80 80"><g fill="none" fill-rule="evenodd"><path fill="#F9F9F9" d="M31.526 21.774c.152.38.266.78.339 1.198l.005.028h-.13l-.214-1.226zM69 30.682c.632.95 1 2.091 1 3.318v6.08c2.86 5.48 2.867 12.028 0 17.41v3.267l7.255 7.255a3 3 0 0 1 0 4.243l-1.414 1.414a3 3 0 0 1-4.243 0l-4.519-4.518c-.9.539-1.953.849-3.079.849H12a6 6 0 0 1-6-6v-1.682A5.994 5.994 0 0 0 11 65h52a6 6 0 0 0 6-6V30.682z"/><path fill="#EEE" fill-rule="nonzero" d="M31.74 25a2 2 0 0 1-1.971-1.657l-.875-5.028A4 4 0 0 0 24.954 15H11a4 4 0 0 0-4 4v40a4 4 0 0 0 4 4h52a4 4 0 0 0 4-4V29a4 4 0 0 0-4-4H31.74zm1.681-4H63a8 8 0 0 1 8 8v30a8 8 0 0 1-8 8H11a8 8 0 0 1-8-8V19a8 8 0 0 1 8-8h13.953a8 8 0 0 1 7.882 6.63l.586 3.37z"/><path fill="#E1DBF1" d="M60.991 56.82l1.414-1.414a3 3 0 0 1 4.243 0l9.9 9.9a3 3 0 0 1 0 4.242l-1.415 1.414a3 3 0 0 1-4.242 0l-9.9-9.9a3 3 0 0 1 0-4.242z"/><path fill="#6B4FBB" fill-rule="nonzero" d="M66.294 59.295c-7.224 7.225-18.938 7.225-26.163 0-7.224-7.225-7.224-18.938 0-26.163 7.225-7.225 18.939-7.225 26.163 0 7.225 7.225 7.225 18.938 0 26.163zm-4.95-4.95c4.492-4.49 4.492-11.772 0-16.263-4.49-4.491-11.772-4.491-16.263 0-4.49 4.49-4.49 11.772 0 16.263 4.491 4.491 11.773 4.491 16.264 0z"/></g></svg>