<svg xmlns="http://www.w3.org/2000/svg" width="80" height="80" viewBox="0 0 80 80"><g fill="none" fill-rule="evenodd"><path fill="#F9F9F9" d="M67 66v5a6 6 0 0 1-6 6H19a6 6 0 0 1-6-6v-5a6 6 0 0 0 6 6h42a6 6 0 0 0 6-6z"/><path fill="#EEE" fill-rule="nonzero" d="M44 6v4H19a4 4 0 0 0-4 4v52a4 4 0 0 0 4 4h42a4 4 0 0 0 4-4V14a4.002 4.002 0 0 0-3-3.874V6.062c3.946.492 7 3.858 7 7.938v52a8 8 0 0 1-8 8H19a8 8 0 0 1-8-8V14a8 8 0 0 1 8-8h25z"/><path fill="#E1DBF1" d="M55.142 41.9l-5.657-5.657a2 2 0 1 1 2.829-2.829l7.07 7.071a2 2 0 0 1 0 2.829l-7.07 7.07a2 2 0 1 1-2.829-2.828l5.657-5.657zm-29.485 0l5.657 5.656a2 2 0 1 1-2.829 2.829l-7.07-7.071a2 2 0 0 1 0-2.829l7.07-7.07a2 2 0 1 1 2.829 2.828l-5.657 5.656z"/><path fill="#6B4FBB" d="M35 44a2 2 0 1 1 0-4 2 2 0 0 1 0 4zm6 0a2 2 0 1 1 0-4 2 2 0 0 1 0 4zm6 0a2 2 0 1 1 0-4 2 2 0 0 1 0 4z"/><path fill="#EFEDF8" d="M47 2h12a3 3 0 0 1 3 3v19.91a1.5 1.5 0 0 1-2.308 1.265l-5.81-3.714a1.5 1.5 0 0 0-1.605-.006l-5.98 3.753A1.5 1.5 0 0 1 44 24.937V5a3 3 0 0 1 3-3z"/><path fill="#6B4FBB" fill-rule="nonzero" d="M48 20.416l2.15-1.35a5.5 5.5 0 0 1 5.886.025L58 20.346V6H48v14.416zM47 2h12a3 3 0 0 1 3 3v19.91a1.5 1.5 0 0 1-2.308 1.265l-5.81-3.714a1.5 1.5 0 0 0-1.605-.006l-5.98 3.753A1.5 1.5 0 0 1 44 24.937V5a3 3 0 0 1 3-3z"/></g></svg>