<svg xmlns="http://www.w3.org/2000/svg" width="80" height="80" viewBox="0 0 80 80"><g fill="none" fill-rule="evenodd"><path fill="#EEE" fill-rule="nonzero" d="M23 12a2 2 0 1 1 0-4h3a2 2 0 1 1 0 4h-3zm11 0a2 2 0 1 1 0-4h3a2 2 0 1 1 0 4h-3zm11 0a2 2 0 1 1 0-4h3a2 2 0 1 1 0 4h-3zm11 0a2 2 0 1 1 0-4h3a2 2 0 1 1 0 4h-3zm11 0a2 2 0 1 1 0-4c1.576 0 3.061.613 4.172 1.688a2 2 0 1 1-2.782 2.874A1.986 1.986 0 0 0 67 12zm2 6.877a2 2 0 1 1 4 0v3a2 2 0 1 1-4 0v-3zm0 11a2 2 0 1 1 4 0v3a2 2 0 1 1-4 0v-3zm0 11a2 2 0 1 1 4 0v3a2 2 0 1 1-4 0v-3zm0 11a2 2 0 1 1 4 0v3a2 2 0 1 1-4 0v-3zm-1.348 8.015a2 2 0 0 1 1.303 3.782 6.042 6.042 0 0 1-1.877.325L65.247 64a2 2 0 1 1-.002-4h1.794a1.99 1.99 0 0 0 .613-.108zM57.246 60a2 2 0 1 1 0 4h-3a2 2 0 1 1 0-4h3zm-11 0a2 2 0 1 1 0 4h-3a2 2 0 1 1 0-4h3zM21 32.369a2 2 0 1 1-4 0v-3a2 2 0 1 1 4 0v3zm0-11a2 2 0 1 1-4 0v-3a2 2 0 1 1 4 0v3z"/><g transform="rotate(30 -8.776 48.352)"><path fill="#E1DBF1" fill-rule="nonzero" d="M31.021 27.176l-1.732-3 4.365-7.561c2.01-3.48 2.455-6.572 1.81-9.285a9.09 9.09 0 0 0-.962-2.446c-.231-.4-.419-.655-.508-.756L25.85 18.222l-1.735-3.006 7.38-12.782c1.164-2.016 3.6-2.128 4.842-.18.205.25.472.628.761 1.129.542.937.99 2.024 1.283 3.252.823 3.457.264 7.335-2.13 11.48l-5.231 9.06zm-6.905 11.96L20.55 45.31l-10.357-5.98 7.018-12.155 1.733 3.002-4.653 8.055 5.161 2.98 2.932-5.077 1.732 3z"/><path fill="#6B4FBB" d="M8.282 54.601a8.96 8.96 0 1 1 8.96-15.519 8.96 8.96 0 0 1-8.96 15.52zm2.24-3.88a4.48 4.48 0 1 0 4.48-7.759 4.48 4.48 0 0 0-4.48 7.76z"/><path fill="#E1DBF1" fill-rule="nonzero" d="M33.94 38.233L14.239 4.128c-.09.1-.277.357-.508.756a9.09 9.09 0 0 0-.962 2.446c-.646 2.713-.2 5.805 1.81 9.285l14.201 24.598 5.162-2.98zM11.134 3.383c.289-.501.555-.879.761-1.13 1.241-1.947 3.678-1.835 4.843.181l21.302 36.897-10.358 5.98L11.98 18.115c-2.393-4.145-2.952-8.023-2.13-11.48a12.075 12.075 0 0 1 1.284-3.252z"/><circle cx="24.39" cy="27.383" r="2.24" fill="#6B4FBB" transform="scale(-1 1) rotate(30 0 -63.642)"/><path fill="#6B4FBB" d="M39.95 54.602a8.96 8.96 0 1 1-8.96-15.52 8.96 8.96 0 0 1 8.96 15.52zm-2.24-3.88a4.48 4.48 0 1 0-4.48-7.76 4.48 4.48 0 0 0 4.48 7.76z"/></g></g></svg>