<svg width="819" height="415" fill="none" xmlns="http://www.w3.org/2000/svg"><rect y="3" width="816" height="412" rx="8" fill="url(#layout-external-names__a)"/><rect x="108.5" y="37.5" width="332" height="369" rx="7.5" fill="#fff"/><rect x="108.5" y="37.5" width="332" height="369" rx="7.5" stroke="#BFBFC3"/><circle cx="274.5" cy="222" r="16" fill="#7B58CF"/><circle cx="274.5" cy="222" r="18" stroke="#7B58CF" stroke-opacity=".3" stroke-width="4"/><path d="M274.306 228.18c-1.212 0-2.172-.336-2.88-1.008-.708-.684-1.062-1.608-1.062-2.772h1.62c0 .72.21 1.29.63 1.71.42.42.99.63 1.71.63s1.29-.21 1.71-.63c.42-.42.63-.99.63-1.71v-.9c0-.72-.21-1.29-.63-1.71-.42-.42-.99-.63-1.71-.63h-1.422v-1.404l3.222-3.42h-5.4v-1.476h7.236v1.512l-3.6 3.834v-.486c1.212 0 2.166.342 2.862 1.026.708.672 1.062 1.59 1.062 2.754v.9c0 1.164-.36 2.088-1.08 2.772-.708.672-1.674 1.008-2.898 1.008Z" fill="#fff"/><rect x="449.5" y="37.5" width="199" height="369" rx="7.5" fill="#fff"/><rect x="449.5" y="37.5" width="199" height="369" rx="7.5" stroke="#BFBFC3"/><circle cx="549" cy="222" r="16" fill="#7B58CF"/><circle cx="549" cy="222" r="18" stroke="#7B58CF" stroke-opacity=".3" stroke-width="4"/><path d="M550.804 228v-2.88h-5.94v-2.538l4.788-7.722h1.836l-5.004 8.082v.702h4.32v-3.204h1.62V228h-1.62Z" fill="#fff"/><rect x="657.5" y="37.5" width="124" height="369" rx="7.5" fill="#fff"/><rect x="657.5" y="37.5" width="124" height="369" rx="7.5" stroke="#BFBFC3"/><circle cx="719.5" cy="222" r="16" fill="#7B58CF"/><circle cx="719.5" cy="222" r="18" stroke="#7B58CF" stroke-opacity=".3" stroke-width="4"/><path d="M719.396 228.18c-1.212 0-2.172-.336-2.88-1.008-.708-.684-1.062-1.608-1.062-2.772h1.62c0 .72.21 1.29.63 1.71.42.42.99.63 1.71.63s1.29-.21 1.71-.63c.42-.42.63-.99.63-1.71v-.81c0-.72-.204-1.29-.612-1.71-.408-.42-.96-.63-1.656-.63h-3.582v-6.39h7.002v1.476h-5.49l.036 3.438h2.124c1.212 0 2.148.336 2.808 1.008.66.66.99 1.596.99 2.808v.81c0 1.164-.36 2.088-1.08 2.772-.708.672-1.674 1.008-2.898 1.008Z" fill="#fff"/><g clip-path="url(#layout-external-names__b)" fill="#DCDCDE"><rect x="8" y="45" width="52" height="8" rx="2"/><rect x="8" y="61" width="44" height="8" rx="2"/><rect x="8" y="77" width="52" height="8" rx="2"/><rect x="8" y="93" width="44" height="8" rx="2"/><rect x="8" y="109" width="52" height="8" rx="2"/><rect x="8" y="125" width="44" height="8" rx="2"/><rect x="8" y="141" width="52" height="8" rx="2"/><rect x="8" y="157" width="44" height="8" rx="2"/><path d="M8 359a2 2 0 0 1 2-2h48a2 2 0 0 1 2 2v4a2 2 0 0 1-2 2H10a2 2 0 0 1-2-2v-4Zm0 16a2 2 0 0 1 2-2h40a2 2 0 0 1 2 2v4a2 2 0 0 1-2 2H10a2 2 0 0 1-2-2v-4Zm0 16a2 2 0 0 1 2-2h14a2 2 0 0 1 2 2v14a2 2 0 0 1-2 2H10a2 2 0 0 1-2-2v-14ZM738 17a2 2 0 0 1 2-2h5.333a2 2 0 0 1 2 2v4a2 2 0 0 1-2 2H740a2 2 0 0 1-2-2v-4Zm17.333 0a2 2 0 0 1 2-2h5.334a2 2 0 0 1 2 2v4a2 2 0 0 1-2 2h-5.334a2 2 0 0 1-2-2v-4Zm17.334 0a2 2 0 0 1 2-2H780a2 2 0 0 1 2 2v4a2 2 0 0 1-2 2h-5.333a2 2 0 0 1-2-2v-4Z"/><rect x="790" y="11" width="16" height="16" rx="8"/><path d="M788 39a2 2 0 0 1 2-2h14a2 2 0 0 1 2 2v14a2 2 0 0 1-2 2h-14a2 2 0 0 1-2-2V39ZM34 13a2 2 0 0 1 2-2h54a2 2 0 0 1 2 2v14a2 2 0 0 1-2 2H36a2 2 0 0 1-2-2V13Zm260 0a2 2 0 0 1 2-2h224a2 2 0 0 1 2 2v14a2 2 0 0 1-2 2H296a2 2 0 0 1-2-2V13Z"/><rect x="8" y="11" width="18" height="18" rx="2"/></g><circle cx="54" cy="222" r="16" fill="#7B58CF"/><circle cx="54" cy="222" r="18" stroke="#7B58CF" stroke-opacity=".3" stroke-width="4"/><path d="M50.151 228v-1.494l4.374-4.68c.636-.672 1.087-1.272 1.35-1.8.264-.528.397-1.044.397-1.548 0-.72-.21-1.29-.63-1.71-.409-.432-.967-.648-1.675-.648-.731 0-1.313.222-1.745.666-.42.432-.63 1.02-.63 1.764h-1.62c.023-.792.203-1.476.54-2.052a3.41 3.41 0 0 1 1.386-1.35c.587-.312 1.277-.468 2.07-.468.815 0 1.517.156 2.105.468a3.325 3.325 0 0 1 1.368 1.332c.325.564.486 1.236.486 2.016 0 .624-.173 1.284-.521 1.98-.337.696-.919 1.476-1.746 2.34l-3.546 3.708h5.976V228h-7.94Z" fill="#fff"/><circle cx="799" cy="222" r="16" fill="#7B58CF"/><circle cx="799" cy="222" r="18" stroke="#7B58CF" stroke-opacity=".3" stroke-width="4"/><path d="M799.022 228.18c-.84 0-1.584-.174-2.232-.522a3.922 3.922 0 0 1-1.494-1.476c-.36-.636-.54-1.368-.54-2.196 0-.576.108-1.164.324-1.764.216-.612.51-1.248.882-1.908l3.042-5.454h1.8l-3.24 5.634.054.036c.156-.204.39-.36.702-.468a3.118 3.118 0 0 1 1.026-.162c.78 0 1.458.174 2.034.522a3.501 3.501 0 0 1 1.368 1.404c.336.6.504 1.296.504 2.088 0 .84-.18 1.584-.54 2.232a3.885 3.885 0 0 1-1.494 1.494c-.624.36-1.356.54-2.196.54Zm-.018-1.44c.528 0 .984-.114 1.368-.342.396-.24.702-.57.918-.99.228-.42.342-.906.342-1.458 0-.552-.114-1.038-.342-1.458a2.317 2.317 0 0 0-.918-.972c-.384-.24-.84-.36-1.368-.36-.516 0-.972.12-1.368.36a2.435 2.435 0 0 0-.936.972c-.216.42-.324.906-.324 1.458 0 .552.108 1.038.324 1.458.228.42.54.75.936.99.396.228.852.342 1.368.342Z" fill="#fff"/><circle cx="148" cy="20" r="16" fill="#7B58CF"/><circle cx="148" cy="20" r="18" stroke="#7B58CF" stroke-opacity=".3" stroke-width="4"/><path d="M144.224 26v-1.476h3.564v-10.26l-3.564 2.664v-1.854l2.97-2.214h2.214v11.664h2.916V26h-8.1Z" fill="#fff"/><defs><radialGradient id="layout-external-names__a" cx="0" cy="0" r="1" gradientUnits="userSpaceOnUse" gradientTransform="matrix(0 412 -816 0 408 3)"><stop stop-color="#FBFAFD"/><stop offset="1" stop-color="#ECECEF"/></radialGradient><clipPath id="layout-external-names__b"><path fill="#fff" transform="translate(8 11)" d="M0 0h798v396H0z"/></clipPath></defs></svg>