<svg width="210" height="210" viewBox="0 0 210 210" xmlns="http://www.w3.org/2000/svg">
  <path d="M105.0614 203.655l38.64-118.921h-77.28l38.64 118.921z" fill="#e24329"/>
  <path d="M105.0614 203.6548l-38.64-118.921h-54.153l92.793 118.921z" fill="#fc6d26"/>
  <path d="M12.2685 84.7341l-11.742 36.139c-1.071 3.296.102 6.907 2.906 8.944l101.629 73.838-92.793-118.921z" fill="#fca326"/>
  <path d="M12.2685 84.7342h54.153l-23.273-71.625c-1.197-3.686-6.411-3.685-7.608 0l-23.272 71.625z" fill="#e24329"/>
  <path d="M105.0614 203.6548l38.64-118.921h54.153l-92.793 118.921z" fill="#fc6d26"/>
  <path d="M197.8544 84.7341l11.742 36.139c1.071 3.296-.102 6.907-2.906 8.944l-101.629 73.838 92.793-118.921z" fill="#fca326"/>
  <path d="M197.8544 84.7342h-54.153l23.273-71.625c1.197-3.686 6.411-3.685 7.608 0l23.272 71.625z" fill="#e24329"/>
</svg>
