<svg width="566" height="213" fill="none" xmlns="http://www.w3.org/2000/svg"><path d="M5 .5h166c2.467 0 4.5 2.084 4.5 4.695v202.61c0 2.611-2.033 4.695-4.5 4.695H5c-2.467 0-4.5-2.084-4.5-4.695V5.195C.5 2.584 2.533.5 5 .5z" fill="#F2F2F2" stroke="#DFDFDF"/><g filter="url(#filter0_i)"><path d="M366 0H200c-2.761 0-5 2.326-5 5.195v202.61c0 2.869 2.239 5.195 5 5.195h166c2.761 0 5-2.326 5-5.195V5.195C371 2.325 368.761 0 366 0z" fill="#F2F2F2"/></g><path d="M200 .5h166c2.467 0 4.5 2.084 4.5 4.695v202.61c0 2.611-2.033 4.695-4.5 4.695H200c-2.467 0-4.5-2.084-4.5-4.695V5.195C195.5 2.584 197.533.5 200 .5z" stroke="#DFDFDF"/><path d="M395 .5h166c2.467 0 4.5 2.084 4.5 4.695v202.61c0 2.611-2.033 4.695-4.5 4.695H395c-2.467 0-4.5-2.084-4.5-4.695V5.195C390.5 2.584 392.533.5 395 .5z" fill="#F2F2F2" stroke="#DFDFDF"/><rect x="210" y="15.585" width="40" height="13.507" rx="6.754" fill="#D9534F"/><path d="M17.73 20.826c0-.456.047-.897.14-1.323.103-.427.261-.805.476-1.135.215-.34.495-.606.84-.8.346-.204.765-.306 1.26-.306s.915.102 1.26.306c.346.194.625.46.84.8.215.33.369.708.462 1.135.103.426.154.867.154 1.323 0 .437-.051.863-.154 1.28a3.397 3.397 0 01-.462 1.106c-.215.33-.494.596-.84.8-.345.194-.765.29-1.26.29s-.915-.096-1.26-.29a2.507 2.507 0 01-.84-.8 3.64 3.64 0 01-.476-1.106 5.845 5.845 0 01-.14-1.28zm-2.198 0c0 .757.112 1.465.336 2.124.224.65.546 1.217.966 1.702.42.485.933.868 1.54 1.149.616.272 1.307.407 2.072.407.775 0 1.465-.135 2.072-.407a4.528 4.528 0 001.54-1.15c.42-.484.742-1.051.966-1.701a6.56 6.56 0 00.336-2.124c0-.776-.112-1.493-.336-2.153a5.228 5.228 0 00-.966-1.745 4.444 4.444 0 00-1.54-1.164c-.607-.281-1.297-.422-2.072-.422-.765 0-1.456.14-2.072.422-.607.281-1.12.67-1.54 1.164a5.228 5.228 0 00-.966 1.745 6.655 6.655 0 00-.336 2.153zm14.775 3.797c-.318 0-.588-.068-.812-.204a1.694 1.694 0 01-.546-.524 2.674 2.674 0 01-.294-.77 4.761 4.761 0 010-1.79c.056-.29.149-.548.28-.77.14-.224.317-.403.532-.539.224-.145.499-.218.826-.218.317 0 .583.073.798.218.224.136.406.32.546.553.14.223.238.48.294.77.065.292.098.588.098.888 0 .3-.028.597-.084.888-.056.29-.154.547-.294.77-.131.214-.308.388-.532.524-.215.136-.486.204-.812.204zm-3.654-6.168V28.61h1.988v-3.564h.028c.242.368.55.65.924.843.382.184.798.277 1.246.277.532 0 .994-.107 1.386-.32.401-.214.732-.5.994-.859.27-.358.471-.77.602-1.236.13-.465.196-.95.196-1.455 0-.533-.066-1.042-.196-1.527a3.803 3.803 0 00-.602-1.295 3.065 3.065 0 00-1.022-.887c-.411-.223-.901-.334-1.47-.334-.448 0-.859.092-1.232.276-.374.184-.682.48-.924.887h-.028v-.96h-1.89zm13.43 2.953H36.85c.01-.145.038-.31.084-.495.056-.184.145-.358.266-.523.13-.165.299-.3.504-.407.215-.117.48-.175.798-.175.486 0 .845.136 1.078.407.243.272.41.67.504 1.193zm-3.234 1.31h5.222a5.512 5.512 0 00-.14-1.674 4.097 4.097 0 00-.644-1.425 3.121 3.121 0 00-1.12-.99c-.457-.252-.994-.378-1.61-.378-.55 0-1.054.102-1.512.306a3.528 3.528 0 00-1.162.844 3.63 3.63 0 00-.756 1.25 4.539 4.539 0 00-.266 1.572c0 .582.084 1.115.252 1.6.178.485.425.902.742 1.25.318.35.705.621 1.162.815.458.184.97.277 1.54.277.822 0 1.522-.194 2.1-.582.579-.388 1.008-1.033 1.288-1.935h-1.75c-.065.233-.242.456-.532.67-.29.203-.634.305-1.036.305-.56 0-.99-.15-1.288-.451-.298-.3-.462-.786-.49-1.455zm6.401-4.263v7.52h1.988v-3.942c0-.766.122-1.314.364-1.643.243-.34.635-.51 1.176-.51.476 0 .808.156.994.466.187.3.28.762.28 1.382v4.248h1.988V21.35a5.85 5.85 0 00-.126-1.266 2.34 2.34 0 00-.406-.974 1.868 1.868 0 00-.812-.626c-.336-.155-.77-.233-1.302-.233-.42 0-.83.102-1.232.306-.401.194-.728.51-.98.946h-.042v-1.048h-1.89z" fill="#2E2E2E"/><g filter="url(#filter1_d)"><path d="M352 46.756H214c-2.209 0-4 1.86-4 4.156v30.132c0 2.295 1.791 4.156 4 4.156h138c2.209 0 4-1.86 4-4.156V50.912c0-2.295-1.791-4.156-4-4.156z" fill="#fff"/><path d="M352 46.756H214c-2.209 0-4 1.86-4 4.156v30.132c0 2.295 1.791 4.156 4 4.156h138c2.209 0 4-1.86 4-4.156V50.912c0-2.295-1.791-4.156-4-4.156z" stroke="#D6D6D6"/></g><path d="M332 57.146H222v6.234h110v-6.234zM300 68.576h-78v6.234h78v-6.234z" fill="#D8D8D8"/><g filter="url(#filter2_d)"><path d="M157 98.707H19c-2.21 0-4 1.861-4 4.156v30.132c0 2.295 1.79 4.156 4 4.156h138c2.209 0 4-1.861 4-4.156v-30.132c0-2.295-1.791-4.156-4-4.156z" fill="#fff"/><path d="M157 98.707H19c-2.21 0-4 1.861-4 4.156v30.132c0 2.295 1.79 4.156 4 4.156h138c2.209 0 4-1.861 4-4.156v-30.132c0-2.295-1.791-4.156-4-4.156z" stroke="#D6D6D6"/></g><path d="M137 109.098H27v6.234h110v-6.234zM105 120.527H27v6.234h78v-6.234z" fill="#D8D8D8"/><g filter="url(#filter3_d)"><path d="M352 96.63H214c-2.209 0-4 1.86-4 4.155v30.132c0 2.295 1.791 4.156 4 4.156h138c2.209 0 4-1.861 4-4.156v-30.132c0-2.295-1.791-4.156-4-4.156z" fill="#fff"/><path d="M352 96.63H214c-2.209 0-4 1.86-4 4.155v30.132c0 2.295 1.791 4.156 4 4.156h138c2.209 0 4-1.861 4-4.156v-30.132c0-2.295-1.791-4.156-4-4.156z" stroke="#D6D6D6"/></g><path d="M316 107.02h-94v6.234h94v-6.234zM292 118.449h-70v6.234h70v-6.234z" fill="#D8D8D8"/><g filter="url(#filter4_d)"><path d="M157 46.756H19c-2.21 0-4 1.86-4 4.156v30.132c0 2.295 1.79 4.156 4 4.156h138c2.209 0 4-1.86 4-4.156V50.912c0-2.295-1.791-4.156-4-4.156z" fill="#fff"/><path d="M157 46.756H19c-2.21 0-4 1.86-4 4.156v30.132c0 2.295 1.79 4.156 4 4.156h138c2.209 0 4-1.86 4-4.156V50.912c0-2.295-1.791-4.156-4-4.156z" stroke="#D6D6D6"/></g><path d="M121 57.146H27v6.234h94v-6.234zM97 68.576H27v6.234h70v-6.234z" fill="#D8D8D8"/><g filter="url(#filter5_d)"><path d="M157 148.581H19c-2.21 0-4 1.86-4 4.156v30.131c0 2.296 1.79 4.156 4 4.156h138c2.209 0 4-1.86 4-4.156v-30.131c0-2.296-1.791-4.156-4-4.156z" fill="#fff"/><path d="M157 148.581H19c-2.21 0-4 1.86-4 4.156v30.131c0 2.296 1.79 4.156 4 4.156h138c2.209 0 4-1.86 4-4.156v-30.131c0-2.296-1.791-4.156-4-4.156z" stroke="#D6D6D6"/></g><path d="M145 158.971H27v6.234h118v-6.234zM121 170.4H27v6.234h94V170.4z" fill="#D8D8D8"/><path d="M547 46.756H409c-2.209 0-4 1.86-4 4.156v30.132c0 2.295 1.791 4.156 4 4.156h138c2.209 0 4-1.86 4-4.156V50.912c0-2.295-1.791-4.156-4-4.156z" fill="#fff" stroke="#D6D6D6" stroke-dasharray="4 2"/><path d="M414.63 19.08h2.128a4.299 4.299 0 00-.476-1.6 3.726 3.726 0 00-.966-1.163 4.003 4.003 0 00-1.316-.728 4.796 4.796 0 00-1.554-.247c-.765 0-1.456.14-2.072.422-.607.281-1.12.67-1.54 1.164a5.228 5.228 0 00-.966 1.745 6.655 6.655 0 00-.336 2.153c0 .757.112 1.465.336 2.124.224.65.546 1.217.966 1.702.42.485.933.868 1.54 1.149.616.272 1.307.407 2.072.407.616 0 1.181-.097 1.694-.29a3.909 3.909 0 001.344-.844c.383-.369.691-.815.924-1.339.233-.523.378-1.11.434-1.76h-2.128c-.084.699-.317 1.261-.7 1.688-.373.427-.896.64-1.568.64-.495 0-.915-.097-1.26-.291a2.512 2.512 0 01-.84-.8 3.64 3.64 0 01-.476-1.106 5.863 5.863 0 01-.14-1.28c0-.456.047-.897.14-1.323.103-.427.261-.805.476-1.135.215-.34.495-.606.84-.8.345-.204.765-.306 1.26-.306.271 0 .527.049.77.146.252.087.476.213.672.378.196.165.359.359.49.582.131.213.215.45.252.713zm3.559-3.49v10.386h1.988V15.59h-1.988zm5.317 6.633c0-.3.028-.597.084-.888.056-.29.15-.548.28-.77a1.64 1.64 0 01.546-.539c.224-.145.504-.218.84-.218.336 0 .616.073.84.218.234.136.416.315.546.538.14.223.238.48.294.771a4.684 4.684 0 010 1.775 2.387 2.387 0 01-.294.77c-.13.224-.312.403-.546.54-.224.135-.504.203-.84.203-.336 0-.616-.068-.84-.204a1.64 1.64 0 01-.546-.538 2.62 2.62 0 01-.28-.771 4.685 4.685 0 01-.084-.887zm-1.988 0c0 .6.089 1.144.266 1.629.178.485.43.902.756 1.25.327.34.719.602 1.176.786.458.184.971.277 1.54.277.57 0 1.083-.092 1.54-.277a3.307 3.307 0 001.19-.785c.327-.35.579-.766.756-1.251a4.701 4.701 0 00.266-1.63c0-.6-.088-1.144-.266-1.629a3.45 3.45 0 00-.756-1.25 3.22 3.22 0 00-1.19-.8 3.904 3.904 0 00-1.54-.291c-.569 0-1.082.096-1.54.29a3.259 3.259 0 00-1.176.8c-.326.34-.578.757-.756 1.252a4.725 4.725 0 00-.266 1.629zm10.323 1.309h-1.89c.019.504.126.926.322 1.265.205.33.462.597.77.8.317.204.677.35 1.078.437a5.777 5.777 0 002.436 0 2.909 2.909 0 001.064-.422c.308-.204.555-.47.742-.8.196-.34.294-.757.294-1.251 0-.35-.065-.64-.196-.873a1.747 1.747 0 00-.518-.596 2.611 2.611 0 00-.742-.393 7.729 7.729 0 00-.84-.247c-.28-.068-.555-.131-.826-.19a8.052 8.052 0 01-.728-.189 1.609 1.609 0 01-.504-.29.575.575 0 01-.196-.451.54.54 0 01.112-.364.724.724 0 01.266-.218c.112-.049.233-.078.364-.087.131-.02.252-.03.364-.03.355 0 .663.073.924.219.261.135.406.402.434.8h1.89c-.037-.466-.154-.849-.35-1.15a2.225 2.225 0 00-.714-.741 2.95 2.95 0 00-.994-.393 5.617 5.617 0 00-2.282 0 2.885 2.885 0 00-1.008.378 2.046 2.046 0 00-.728.727c-.177.31-.266.708-.266 1.193 0 .33.065.611.196.844.131.223.303.412.518.567.215.146.457.267.728.364.28.087.565.165.854.233.709.155 1.26.31 1.652.465.401.155.602.388.602.698 0 .184-.042.34-.126.466a1.053 1.053 0 01-.322.29 1.658 1.658 0 01-.42.16 2.265 2.265 0 01-1.008-.028 1.546 1.546 0 01-.476-.219 1.383 1.383 0 01-.35-.392 1.266 1.266 0 01-.126-.582zm10.851-2.124h-3.234c.01-.145.038-.31.084-.495.056-.184.145-.358.266-.523.131-.165.299-.3.504-.407.215-.117.481-.175.798-.175.486 0 .845.136 1.078.407.243.272.411.67.504 1.193zm-3.234 1.31h5.222a5.478 5.478 0 00-.14-1.674 4.077 4.077 0 00-.644-1.425 3.112 3.112 0 00-1.12-.99c-.457-.252-.994-.378-1.61-.378-.55 0-1.054.102-1.512.306a3.532 3.532 0 00-1.162.844c-.326.349-.578.766-.756 1.25a4.548 4.548 0 00-.266 1.572c0 .582.084 1.115.252 1.6.178.485.425.902.742 1.25.318.35.705.621 1.162.815.458.184.971.277 1.54.277.822 0 1.522-.194 2.1-.582.579-.388 1.008-1.033 1.288-1.935h-1.75c-.065.233-.242.456-.532.67-.289.203-.634.305-1.036.305-.56 0-.989-.15-1.288-.451-.298-.3-.462-.786-.49-1.455zm11.54-.524c0 .31-.028.61-.084.901-.056.291-.15.553-.28.786a1.521 1.521 0 01-.532.538c-.215.136-.486.204-.812.204a1.51 1.51 0 01-.798-.204 2 2 0 01-.546-.553 2.622 2.622 0 01-.308-.785 3.933 3.933 0 01-.098-.873c0-.31.028-.606.084-.887.065-.291.163-.548.294-.771a1.64 1.64 0 01.546-.538c.224-.136.499-.204.826-.204.326 0 .597.068.812.204.214.135.387.315.518.538.14.213.238.465.294.756.056.281.084.577.084.888zm.028 2.822v.96h1.89V15.59h-1.988v3.782h-.028a2.106 2.106 0 00-.924-.83 2.66 2.66 0 00-1.218-.29c-.532 0-.999.111-1.4.334-.402.213-.738.5-1.008.858a4.032 4.032 0 00-.602 1.251c-.131.466-.196.95-.196 1.455 0 .524.065 1.028.196 1.513.14.485.34.916.602 1.294.27.369.611.665 1.022.888.41.213.886.32 1.428.32.476 0 .9-.088 1.274-.262.382-.184.69-.48.924-.887h.028z" fill="#2E2E2E"/><path d="M340.093 89.04a.976.976 0 00-1.398.22 1.065 1.065 0 00.212 1.452l1.186-1.673zm85.907.836l-11.413 1.82 7.224 9.36L426 89.876zm-85.395 2.116a.975.975 0 001.394-.243 1.066 1.066 0 00-.233-1.45l-1.161 1.693zm5.465 1.342a.978.978 0 00-1.382.312 1.064 1.064 0 00.3 1.436l1.082-1.748zm2.533 4.049a.98.98 0 001.367-.375 1.062 1.062 0 00-.36-1.42l-1.007 1.795zm5.555.775a.982.982 0 00-1.343.459c-.249.512-.052 1.137.441 1.396l.902-1.855zm2.941 3.746c.505.232 1.095-.005 1.319-.53.223-.525-.005-1.138-.51-1.37l-.809 1.9zm5.608.104c-.52-.195-1.093.084-1.281.624-.188.539.081 1.135.601 1.33l.68-1.954zm3.356 3.332c.529.163 1.086-.151 1.242-.702.157-.551-.146-1.128-.675-1.291l-.567 1.993zm5.57-.676c-.54-.118-1.071.241-1.185.802-.114.562.232 1.113.772 1.231l.413-2.033zm3.788 2.803c.547.081 1.053-.314 1.13-.882.078-.568-.303-1.094-.85-1.175l-.28 2.057zm5.405-1.537c-.552-.031-1.023.409-1.052.981-.029.574.394 1.063.946 1.094l.106-2.075zm4.164 2.15c.552-.011.991-.485.98-1.058-.011-.575-.467-1.031-1.019-1.02l.039 2.078zm5.093-2.424c-.549.063-.945.577-.884 1.147.061.571.556.981 1.105.918l-.221-2.065zm4.447 1.414c.543-.105.902-.647.801-1.211-.101-.564-.623-.937-1.166-.832l.365 2.043zm4.642-3.252c-.531.155-.842.728-.694 1.28.149.553.701.876 1.233.721l-.539-2.001zm4.601.664c.521-.192.793-.786.608-1.327a.991.991 0 00-1.277-.632l.669 1.959zm4.128-3.961c-.503.235-.728.85-.502 1.374a.986.986 0 001.322.522l-.82-1.896zm4.641-.036a1.06 1.06 0 00.421-1.403.982.982 0 00-1.35-.438l.929 1.841zm3.552-4.497c-.47.301-.616.941-.326 1.43a.98.98 0 001.377.338l-1.051-1.768zm4.602-.647c.454-.327.568-.974.254-1.446a.978.978 0 00-1.392-.263l1.138 1.709zm3.031-4.903a1.067 1.067 0 00-.171 1.459.975.975 0 001.404.177l-1.233-1.636zm-84.82.274c.527.404 1.094.832 1.698 1.28l1.161-1.692c-.594-.44-1.152-.862-1.673-1.26l-1.186 1.672zm6.081 4.37a96.649 96.649 0 003.615 2.3l1.007-1.795a93.481 93.481 0 01-3.54-2.253l-1.082 1.748zm8.268 4.931a80.434 80.434 0 003.843 1.891l.809-1.9a79.08 79.08 0 01-3.75-1.846l-.902 1.855zm8.771 3.949c1.309.492 2.655.953 4.036 1.378l.567-1.993a67.852 67.852 0 01-3.923-1.339l-.68 1.954zm9.193 2.735c1.373.302 2.773.56 4.201.77l.28-2.057a59.56 59.56 0 01-4.068-.746l-.413 2.033zm9.5 1.308c1.402.077 2.826.104 4.27.075l-.039-2.078a55.27 55.27 0 01-4.125-.072l-.106 2.075zm9.584-.284a56.47 56.47 0 004.226-.651l-.365-2.043a54.612 54.612 0 01-4.082.629l.221 2.065zm9.407-1.902a59.941 59.941 0 004.062-1.337l-.669-1.959a57.797 57.797 0 01-3.932 1.295l.539 2.001zm9.01-3.402a70.301 70.301 0 003.821-1.932l-.929-1.84a66.75 66.75 0 01-3.712 1.876l.82 1.896zm8.424-4.661a81.532 81.532 0 003.551-2.415l-1.138-1.71a79.562 79.562 0 01-3.464 2.357l1.051 1.768z" fill="#5398AD"/><path d="M216.724 19.523v6.984h1.884v-6.984h2.568V17.94h-7.02v1.584h2.568zm5.436 3.888c0-.248.024-.492.072-.732.048-.24.128-.452.24-.636.12-.184.276-.332.468-.444.192-.12.432-.18.72-.18s.528.06.72.18c.2.112.356.26.468.444.12.184.204.396.252.636a3.723 3.723 0 010 1.464 1.925 1.925 0 01-.252.636 1.25 1.25 0 01-.468.444c-.192.112-.432.168-.72.168s-.528-.056-.72-.168a1.382 1.382 0 01-.468-.444 2.095 2.095 0 01-.24-.636 3.723 3.723 0 01-.072-.732zm-1.704 0c0 .496.076.944.228 1.344.152.4.368.744.648 1.032.28.28.616.496 1.008.648.392.152.832.228 1.32.228.488 0 .928-.076 1.32-.228.4-.152.74-.368 1.02-.648.28-.288.496-.632.648-1.032.152-.4.228-.848.228-1.344a3.76 3.76 0 00-.228-1.344 2.836 2.836 0 00-.648-1.032 2.776 2.776 0 00-1.02-.66 3.465 3.465 0 00-1.32-.24c-.488 0-.928.08-1.32.24a2.836 2.836 0 00-1.656 1.692 3.76 3.76 0 00-.228 1.344zm15.272-.024c0 .256-.024.504-.072.744-.048.24-.128.456-.24.648a1.277 1.277 0 01-.456.444c-.184.112-.416.168-.696.168-.264 0-.492-.056-.684-.168a1.692 1.692 0 01-.468-.456 2.123 2.123 0 01-.264-.648 3.16 3.16 0 01-.084-.72c0-.256.024-.5.072-.732.056-.24.14-.452.252-.636.12-.184.276-.332.468-.444.192-.112.428-.168.708-.168.28 0 .512.056.696.168.184.112.332.26.444.444.12.176.204.384.252.624.048.232.072.476.072.732zm.024 2.328v.792h1.62V17.94h-1.704v3.12h-.024a1.784 1.784 0 00-.792-.684 2.35 2.35 0 00-1.044-.24c-.456 0-.856.092-1.2.276a2.57 2.57 0 00-.864.708c-.224.296-.396.64-.516 1.032a4.264 4.264 0 00-.168 1.2c0 .432.056.848.168 1.248.12.4.292.756.516 1.068.232.304.524.548.876.732.352.176.76.264 1.224.264.408 0 .772-.072 1.092-.216.328-.152.592-.396.792-.732h.024zm4.42-2.304c0-.248.024-.492.072-.732.048-.24.128-.452.24-.636.12-.184.276-.332.468-.444.192-.12.432-.18.72-.18s.528.06.72.18c.2.112.356.26.468.444.12.184.204.396.252.636a3.723 3.723 0 010 1.464 1.925 1.925 0 01-.252.636 1.25 1.25 0 01-.468.444c-.192.112-.432.168-.72.168s-.528-.056-.72-.168a1.382 1.382 0 01-.468-.444 2.095 2.095 0 01-.24-.636 3.723 3.723 0 01-.072-.732zm-1.704 0c0 .496.076.944.228 1.344.152.4.368.744.648 1.032.28.28.616.496 1.008.648.392.152.832.228 1.32.228.488 0 .928-.076 1.32-.228.4-.152.74-.368 1.02-.648.28-.288.496-.632.648-1.032.152-.4.228-.848.228-1.344a3.76 3.76 0 00-.228-1.344 2.836 2.836 0 00-.648-1.032 2.776 2.776 0 00-1.02-.66 3.465 3.465 0 00-1.32-.24c-.488 0-.928.08-1.32.24a2.836 2.836 0 00-1.656 1.692 3.76 3.76 0 00-.228 1.344z" fill="#fff"/><defs><filter id="filter0_i" x="195" y="0" width="176" height="213" filterUnits="userSpaceOnUse" color-interpolation-filters="sRGB"><feFlood flood-opacity="0" result="BackgroundImageFix"/><feBlend in="SourceGraphic" in2="BackgroundImageFix" result="shape"/><feColorMatrix in="SourceAlpha" values="0 0 0 0 0 0 0 0 0 0 0 0 0 0 0 0 0 0 127 0" result="hardAlpha"/><feOffset dy="3"/><feComposite in2="hardAlpha" operator="arithmetic" k2="-1" k3="1"/><feColorMatrix values="0 0 0 0 0.85098 0 0 0 0 0.32549 0 0 0 0 0.309804 0 0 0 1 0"/><feBlend in2="shape" result="effect1_innerShadow"/></filter><filter id="filter1_d" x="208.5" y="46.256" width="149" height="41.444" filterUnits="userSpaceOnUse" color-interpolation-filters="sRGB"><feFlood flood-opacity="0" result="BackgroundImageFix"/><feColorMatrix in="SourceAlpha" values="0 0 0 0 0 0 0 0 0 0 0 0 0 0 0 0 0 0 127 0"/><feOffset dy="1"/><feGaussianBlur stdDeviation=".5"/><feColorMatrix values="0 0 0 0 0 0 0 0 0 0 0 0 0 0 0 0 0 0 0.0791084 0"/><feBlend in2="BackgroundImageFix" result="effect1_dropShadow"/><feBlend in="SourceGraphic" in2="effect1_dropShadow" result="shape"/></filter><filter id="filter2_d" x="13.5" y="98.207" width="149" height="41.444" filterUnits="userSpaceOnUse" color-interpolation-filters="sRGB"><feFlood flood-opacity="0" result="BackgroundImageFix"/><feColorMatrix in="SourceAlpha" values="0 0 0 0 0 0 0 0 0 0 0 0 0 0 0 0 0 0 127 0"/><feOffset dy="1"/><feGaussianBlur stdDeviation=".5"/><feColorMatrix values="0 0 0 0 0 0 0 0 0 0 0 0 0 0 0 0 0 0 0.0791084 0"/><feBlend in2="BackgroundImageFix" result="effect1_dropShadow"/><feBlend in="SourceGraphic" in2="effect1_dropShadow" result="shape"/></filter><filter id="filter3_d" x="208.5" y="96.129" width="149" height="41.444" filterUnits="userSpaceOnUse" color-interpolation-filters="sRGB"><feFlood flood-opacity="0" result="BackgroundImageFix"/><feColorMatrix in="SourceAlpha" values="0 0 0 0 0 0 0 0 0 0 0 0 0 0 0 0 0 0 127 0"/><feOffset dy="1"/><feGaussianBlur stdDeviation=".5"/><feColorMatrix values="0 0 0 0 0 0 0 0 0 0 0 0 0 0 0 0 0 0 0.0791084 0"/><feBlend in2="BackgroundImageFix" result="effect1_dropShadow"/><feBlend in="SourceGraphic" in2="effect1_dropShadow" result="shape"/></filter><filter id="filter4_d" x="13.5" y="46.256" width="149" height="41.444" filterUnits="userSpaceOnUse" color-interpolation-filters="sRGB"><feFlood flood-opacity="0" result="BackgroundImageFix"/><feColorMatrix in="SourceAlpha" values="0 0 0 0 0 0 0 0 0 0 0 0 0 0 0 0 0 0 127 0"/><feOffset dy="1"/><feGaussianBlur stdDeviation=".5"/><feColorMatrix values="0 0 0 0 0 0 0 0 0 0 0 0 0 0 0 0 0 0 0.0791084 0"/><feBlend in2="BackgroundImageFix" result="effect1_dropShadow"/><feBlend in="SourceGraphic" in2="effect1_dropShadow" result="shape"/></filter><filter id="filter5_d" x="13.5" y="148.081" width="149" height="41.444" filterUnits="userSpaceOnUse" color-interpolation-filters="sRGB"><feFlood flood-opacity="0" result="BackgroundImageFix"/><feColorMatrix in="SourceAlpha" values="0 0 0 0 0 0 0 0 0 0 0 0 0 0 0 0 0 0 127 0"/><feOffset dy="1"/><feGaussianBlur stdDeviation=".5"/><feColorMatrix values="0 0 0 0 0 0 0 0 0 0 0 0 0 0 0 0 0 0 0.0791084 0"/><feBlend in2="BackgroundImageFix" result="effect1_dropShadow"/><feBlend in="SourceGraphic" in2="effect1_dropShadow" result="shape"/></filter></defs></svg>
