<svg width="452" height="116" viewBox="0 0 452 116" fill="none" xmlns="http://www.w3.org/2000/svg">
<g clip-path="url(#clip0_672_30462)">
<rect width="452" height="116" rx="12" fill="transparent"/>
<mask id="mask0_672_30462" style="mask-type:alpha" maskUnits="userSpaceOnUse" x="0" y="0" width="452" height="116">
<rect width="452" height="116" fill="url(#paint0_linear_672_30462)"/>
</mask>
<g mask="url(#mask0_672_30462)">
<mask id="mask1_672_30462" style="mask-type:alpha" maskUnits="userSpaceOnUse" x="-31" y="-167" width="556" height="429">
<g opacity="0.6">
<rect width="2" height="2" rx="1" transform="matrix(0.886581 0.462573 -0.538382 0.842701 452.225 98.3582)" fill="#A989F5"/>
<rect width="2" height="2" rx="1" transform="matrix(0.886581 0.462573 -0.538382 0.842701 442.534 113.527)" fill="#A989F5"/>
<rect width="2" height="2" rx="1" transform="matrix(0.886581 0.462573 -0.538382 0.842701 448.532 85.9031)" fill="#A989F5"/>
<rect width="2" height="2" rx="1" transform="matrix(0.886581 0.462573 -0.538382 0.842701 438.841 101.072)" fill="#A989F5"/>
<rect width="2" height="2" rx="1" transform="matrix(0.886581 0.462573 -0.538382 0.842701 444.441 74.0719)" fill="#A989F5"/>
<rect width="2" height="2" rx="1" transform="matrix(0.886581 0.462573 -0.538382 0.842701 434.75 89.2405)" fill="#A989F5"/>
<rect width="2" height="2" rx="1" transform="matrix(0.886581 0.462573 -0.538382 0.842701 425.059 104.409)" fill="#A989F5"/>
<rect width="2" height="2" rx="1" transform="matrix(0.886581 0.462573 -0.538382 0.842701 450.438 46.4482)" fill="#A989F5"/>
<rect width="2" height="2" rx="1" transform="matrix(0.886581 0.462573 -0.538382 0.842701 440.748 61.6168)" fill="#A989F5"/>
<rect width="2" height="2" rx="1" transform="matrix(0.886581 0.462573 -0.538382 0.842701 431.057 76.7854)" fill="#A989F5"/>
<rect width="2" height="2" rx="1" transform="matrix(0.886581 0.462573 -0.538382 0.842701 421.366 91.954)" fill="#A989F5"/>
<rect width="2" height="2" rx="1" transform="matrix(0.886581 0.462573 -0.538382 0.842701 411.675 107.123)" fill="#A989F5"/>
<rect width="2" height="2" rx="1" transform="matrix(0.886581 0.462573 -0.538382 0.842701 446.347 34.617)" fill="#A989F5"/>
<rect width="2" height="2" rx="1" transform="matrix(0.886581 0.462573 -0.538382 0.842701 436.656 49.7856)" fill="#A989F5"/>
<rect width="2" height="2" rx="1" transform="matrix(0.886581 0.462573 -0.538382 0.842701 426.965 64.9542)" fill="#A989F5"/>
<rect width="2" height="2" rx="1" transform="matrix(0.886581 0.462573 -0.538382 0.842701 417.275 80.1228)" fill="#A989F5"/>
<rect width="2" height="2" rx="1" transform="matrix(0.886581 0.462573 -0.538382 0.842701 407.584 95.2914)" fill="#A989F5"/>
<rect width="2" height="2" rx="1" transform="matrix(0.886581 0.462573 -0.538382 0.842701 397.893 110.46)" fill="#A989F5"/>
<rect width="2" height="2" rx="1" transform="matrix(0.886581 0.462573 -0.538382 0.842701 452.345 6.99329)" fill="#A989F5"/>
<rect width="2" height="2" rx="1" transform="matrix(0.886581 0.462573 -0.538382 0.842701 442.654 22.1619)" fill="#A989F5"/>
<rect width="2" height="2" rx="1" transform="matrix(0.886581 0.462573 -0.538382 0.842701 432.963 37.3305)" fill="#A989F5"/>
<rect width="2" height="2" rx="1" transform="matrix(0.886581 0.462573 -0.538382 0.842701 423.272 52.4991)" fill="#A989F5"/>
<rect width="2" height="2" rx="1" transform="matrix(0.886581 0.462573 -0.538382 0.842701 413.582 67.6678)" fill="#A989F5"/>
<rect width="2" height="2" rx="1" transform="matrix(0.886581 0.462573 -0.538382 0.842701 403.891 82.8364)" fill="#A989F5"/>
<rect width="2" height="2" rx="1" transform="matrix(0.886581 0.462573 -0.538382 0.842701 394.2 98.005)" fill="#A989F5"/>
<rect width="2" height="2" rx="1" transform="matrix(0.886581 0.462573 -0.538382 0.842701 384.509 113.174)" fill="#A989F5"/>
<rect width="2" height="2" rx="1" transform="matrix(0.886581 0.462573 -0.538382 0.842701 438.563 10.3307)" fill="#A989F5"/>
<rect width="2" height="2" rx="1" transform="matrix(0.886581 0.462573 -0.538382 0.842701 428.872 25.4993)" fill="#A989F5"/>
<rect width="2" height="2" rx="1" transform="matrix(0.886581 0.462573 -0.538382 0.842701 419.181 40.6679)" fill="#A989F5"/>
<rect width="2" height="2" rx="1" transform="matrix(0.886581 0.462573 -0.538382 0.842701 409.49 55.8365)" fill="#A989F5"/>
<rect width="2" height="2" rx="1" transform="matrix(0.886581 0.462573 -0.538382 0.842701 399.8 71.0052)" fill="#A989F5"/>
<rect width="2" height="2" rx="1" transform="matrix(0.886581 0.462573 -0.538382 0.842701 390.109 86.1738)" fill="#A989F5"/>
<rect width="2" height="2" rx="1" transform="matrix(0.886581 0.462573 -0.538382 0.842701 380.418 101.342)" fill="#A989F5"/>
<rect width="2" height="2" rx="1" transform="matrix(0.886581 0.462573 -0.538382 0.842701 434.87 -2.12439)" fill="#A989F5"/>
<rect width="2" height="2" rx="1" transform="matrix(0.886581 0.462573 -0.538382 0.842701 425.179 13.0442)" fill="#A989F5"/>
<rect width="2" height="2" rx="1" transform="matrix(0.886581 0.462573 -0.538382 0.842701 415.488 28.2128)" fill="#A989F5"/>
<rect width="2" height="2" rx="1" transform="matrix(0.886581 0.462573 -0.538382 0.842701 405.797 43.3815)" fill="#A989F5"/>
<rect width="2" height="2" rx="1" transform="matrix(0.886581 0.462573 -0.538382 0.842701 396.107 58.5501)" fill="#A989F5"/>
<rect width="2" height="2" rx="1" transform="matrix(0.886581 0.462573 -0.538382 0.842701 386.416 73.7187)" fill="#A989F5"/>
<rect width="2" height="2" rx="1" transform="matrix(0.886581 0.462573 -0.538382 0.842701 376.725 88.8873)" fill="#A989F5"/>
<rect width="2" height="2" rx="1" transform="matrix(0.886581 0.462573 -0.538382 0.842701 367.034 104.056)" fill="#A989F5"/>
<rect width="2" height="2" rx="1" transform="matrix(0.886581 0.462573 -0.538382 0.842701 421.088 1.21301)" fill="#A989F5"/>
<rect width="2" height="2" rx="1" transform="matrix(0.886581 0.462573 -0.538382 0.842701 411.397 16.3816)" fill="#A989F5"/>
<rect width="2" height="2" rx="1" transform="matrix(0.886581 0.462573 -0.538382 0.842701 401.706 31.5502)" fill="#A989F5"/>
<rect width="2" height="2" rx="1" transform="matrix(0.886581 0.462573 -0.538382 0.842701 392.015 46.7189)" fill="#A989F5"/>
<rect width="2" height="2" rx="1" transform="matrix(0.886581 0.462573 -0.538382 0.842701 382.324 61.8875)" fill="#A989F5"/>
<rect width="2" height="2" rx="1" transform="matrix(0.886581 0.462573 -0.538382 0.842701 372.634 77.0561)" fill="#A989F5"/>
<rect width="2" height="2" rx="1" transform="matrix(0.886581 0.462573 -0.538382 0.842701 362.943 92.2247)" fill="#A989F5"/>
<rect width="2" height="2" rx="1" transform="matrix(0.886581 0.462573 -0.538382 0.842701 353.252 107.393)" fill="#A989F5"/>
<rect width="2" height="2" rx="1" transform="matrix(0.886581 0.462573 -0.538382 0.842701 407.704 3.92654)" fill="#A989F5"/>
<rect width="2" height="2" rx="1" transform="matrix(0.886581 0.462573 -0.538382 0.842701 398.013 19.0952)" fill="#A989F5"/>
<rect width="2" height="2" rx="1" transform="matrix(0.886581 0.462573 -0.538382 0.842701 388.322 34.2638)" fill="#A989F5"/>
<rect width="2" height="2" rx="1" transform="matrix(0.886581 0.462573 -0.538382 0.842701 378.632 49.4324)" fill="#A989F5"/>
<rect width="2" height="2" rx="1" transform="matrix(0.886581 0.462573 -0.538382 0.842701 368.941 64.601)" fill="#A989F5"/>
<rect width="2" height="2" rx="1" transform="matrix(0.886581 0.462573 -0.538382 0.842701 359.25 79.7696)" fill="#A989F5"/>
<rect width="2" height="2" rx="1" transform="matrix(0.886581 0.462573 -0.538382 0.842701 349.559 94.9382)" fill="#A989F5"/>
<rect width="2" height="2" rx="1" transform="matrix(0.886581 0.462573 -0.538382 0.842701 339.868 110.107)" fill="#A989F5"/>
<rect width="2" height="2" rx="1" transform="matrix(0.886581 0.462573 -0.538382 0.842701 393.922 7.26419)" fill="#A989F5"/>
<rect width="2" height="2" rx="1" transform="matrix(0.886581 0.462573 -0.538382 0.842701 384.231 22.4328)" fill="#A989F5"/>
<rect width="2" height="2" rx="1" transform="matrix(0.886581 0.462573 -0.538382 0.842701 374.54 37.6014)" fill="#A989F5"/>
<rect width="2" height="2" rx="1" transform="matrix(0.886581 0.462573 -0.538382 0.842701 364.849 52.7701)" fill="#A989F5"/>
<rect width="2" height="2" rx="1" transform="matrix(0.886581 0.462573 -0.538382 0.842701 355.158 67.9387)" fill="#A989F5"/>
<rect width="2" height="2" rx="1" transform="matrix(0.886581 0.462573 -0.538382 0.842701 345.468 83.1073)" fill="#A989F5"/>
<rect width="2" height="2" rx="1" transform="matrix(0.886581 0.462573 -0.538382 0.842701 335.777 98.2759)" fill="#A989F5"/>
<rect width="2" height="2" rx="1" transform="matrix(0.886581 0.462573 -0.538382 0.842701 326.086 113.444)" fill="#A989F5"/>
<rect width="2" height="2" rx="1" transform="matrix(0.886581 0.462573 -0.538382 0.842701 380.538 9.97772)" fill="#A989F5"/>
<rect width="2" height="2" rx="1" transform="matrix(0.886581 0.462573 -0.538382 0.842701 370.847 25.1464)" fill="#A989F5"/>
<rect width="2" height="2" rx="1" transform="matrix(0.886581 0.462573 -0.538382 0.842701 361.156 40.315)" fill="#A989F5"/>
<rect width="2" height="2" rx="1" transform="matrix(0.886581 0.462573 -0.538382 0.842701 351.465 55.4836)" fill="#A989F5"/>
<rect width="2" height="2" rx="1" transform="matrix(0.886581 0.462573 -0.538382 0.842701 341.774 70.6522)" fill="#A989F5"/>
<rect width="2" height="2" rx="1" transform="matrix(0.886581 0.462573 -0.538382 0.842701 332.083 85.8208)" fill="#A989F5"/>
<rect width="2" height="2" rx="1" transform="matrix(0.886581 0.462573 -0.538382 0.842701 322.393 100.989)" fill="#A989F5"/>
<rect width="2" height="2" rx="1" transform="matrix(0.886581 0.462573 -0.538382 0.842701 376.447 -1.85349)" fill="#A989F5"/>
<rect width="2" height="2" rx="1" transform="matrix(0.886581 0.462573 -0.538382 0.842701 366.756 13.3151)" fill="#A989F5"/>
<rect width="2" height="2" rx="1" transform="matrix(0.886581 0.462573 -0.538382 0.842701 357.065 28.4838)" fill="#A989F5"/>
<rect width="2" height="2" rx="1" transform="matrix(0.886581 0.462573 -0.538382 0.842701 347.374 43.6524)" fill="#A989F5"/>
<rect width="2" height="2" rx="1" transform="matrix(0.886581 0.462573 -0.538382 0.842701 337.683 58.821)" fill="#A989F5"/>
<rect width="2" height="2" rx="1" transform="matrix(0.886581 0.462573 -0.538382 0.842701 327.992 73.9896)" fill="#A989F5"/>
<rect width="2" height="2" rx="1" transform="matrix(0.886581 0.462573 -0.538382 0.842701 318.302 89.1582)" fill="#A989F5"/>
<rect width="2" height="2" rx="1" transform="matrix(0.886581 0.462573 -0.538382 0.842701 308.611 104.327)" fill="#A989F5"/>
<rect width="2" height="2" rx="1" transform="matrix(0.886581 0.462573 -0.538382 0.842701 363.063 0.860046)" fill="#A989F5"/>
<rect width="2" height="2" rx="1" transform="matrix(0.886581 0.462573 -0.538382 0.842701 353.372 16.0287)" fill="#A989F5"/>
<rect width="2" height="2" rx="1" transform="matrix(0.886581 0.462573 -0.538382 0.842701 343.681 31.1973)" fill="#A989F5"/>
<rect width="2" height="2" rx="1" transform="matrix(0.886581 0.462573 -0.538382 0.842701 333.99 46.3659)" fill="#A989F5"/>
<rect width="2" height="2" rx="1" transform="matrix(0.886581 0.462573 -0.538382 0.842701 324.299 61.5345)" fill="#A989F5"/>
<rect width="2" height="2" rx="1" transform="matrix(0.886581 0.462573 -0.538382 0.842701 314.608 76.7031)" fill="#A989F5"/>
<rect width="2" height="2" rx="1" transform="matrix(0.886581 0.462573 -0.538382 0.842701 304.917 91.8717)" fill="#A989F5"/>
<rect width="2" height="2" rx="1" transform="matrix(0.886581 0.462573 -0.538382 0.842701 295.227 107.04)" fill="#A989F5"/>
<rect width="2" height="2" rx="1" transform="matrix(0.886581 0.462573 -0.538382 0.842701 349.281 4.19745)" fill="#A989F5"/>
<rect width="2" height="2" rx="1" transform="matrix(0.886581 0.462573 -0.538382 0.842701 339.59 19.3661)" fill="#A989F5"/>
<rect width="2" height="2" rx="1" transform="matrix(0.886581 0.462573 -0.538382 0.842701 329.899 34.5347)" fill="#A989F5"/>
<rect width="2" height="2" rx="1" transform="matrix(0.886581 0.462573 -0.538382 0.842701 320.208 49.7033)" fill="#A989F5"/>
<rect width="2" height="2" rx="1" transform="matrix(0.886581 0.462573 -0.538382 0.842701 310.517 64.8719)" fill="#A989F5"/>
<rect width="2" height="2" rx="1" transform="matrix(0.886581 0.462573 -0.538382 0.842701 300.826 80.0405)" fill="#A989F5"/>
<rect width="2" height="2" rx="1" transform="matrix(0.886581 0.462573 -0.538382 0.842701 291.135 95.2091)" fill="#A989F5"/>
<rect width="2" height="2" rx="1" transform="matrix(0.886581 0.462573 -0.538382 0.842701 281.444 110.378)" fill="#A989F5"/>
<rect width="2" height="2" rx="1" transform="matrix(0.886581 0.462573 -0.538382 0.842701 335.897 6.91101)" fill="#A989F5"/>
<rect width="2" height="2" rx="1" transform="matrix(0.886581 0.462573 -0.538382 0.842701 326.206 22.0796)" fill="#A989F5"/>
<rect width="2" height="2" rx="1" transform="matrix(0.886581 0.462573 -0.538382 0.842701 316.515 37.2482)" fill="#A989F5"/>
<rect width="2" height="2" rx="1" transform="matrix(0.886581 0.462573 -0.538382 0.842701 306.824 52.4168)" fill="#A989F5"/>
<rect width="2" height="2" rx="1" transform="matrix(0.886581 0.462573 -0.538382 0.842701 297.133 67.5854)" fill="#A989F5"/>
<rect width="2" height="2" rx="1" transform="matrix(0.886581 0.462573 -0.538382 0.842701 287.442 82.7541)" fill="#A989F5"/>
<rect width="2" height="2" rx="1" transform="matrix(0.886581 0.462573 -0.538382 0.842701 277.751 97.9227)" fill="#A989F5"/>
<rect width="2" height="2" rx="1" transform="matrix(0.886581 0.462573 -0.538382 0.842701 268.061 113.091)" fill="#A989F5"/>
<rect width="2" height="2" rx="1" transform="matrix(0.886581 0.462573 -0.538382 0.842701 322.115 10.2484)" fill="#A989F5"/>
<rect width="2" height="2" rx="1" transform="matrix(0.886581 0.462573 -0.538382 0.842701 312.424 25.417)" fill="#A989F5"/>
<rect width="2" height="2" rx="1" transform="matrix(0.886581 0.462573 -0.538382 0.842701 302.733 40.5856)" fill="#A989F5"/>
<rect width="2" height="2" rx="1" transform="matrix(0.886581 0.462573 -0.538382 0.842701 293.042 55.7542)" fill="#A989F5"/>
<rect width="2" height="2" rx="1" transform="matrix(0.886581 0.462573 -0.538382 0.842701 283.351 70.9229)" fill="#A989F5"/>
<rect width="2" height="2" rx="1" transform="matrix(0.886581 0.462573 -0.538382 0.842701 273.66 86.0915)" fill="#A989F5"/>
<rect width="2" height="2" rx="1" transform="matrix(0.886581 0.462573 -0.538382 0.842701 263.969 101.26)" fill="#A989F5"/>
<rect width="2" height="2" rx="1" transform="matrix(0.886581 0.462573 -0.538382 0.842701 318.422 -2.20667)" fill="#A989F5"/>
<rect width="2" height="2" rx="1" transform="matrix(0.886581 0.462573 -0.538382 0.842701 308.731 12.9619)" fill="#A989F5"/>
<rect width="2" height="2" rx="1" transform="matrix(0.886581 0.462573 -0.538382 0.842701 299.04 28.1306)" fill="#A989F5"/>
<rect width="2" height="2" rx="1" transform="matrix(0.886581 0.462573 -0.538382 0.842701 289.349 43.2992)" fill="#A989F5"/>
<rect width="2" height="2" rx="1" transform="matrix(0.886581 0.462573 -0.538382 0.842701 279.658 58.4678)" fill="#A989F5"/>
<rect width="2" height="2" rx="1" transform="matrix(0.886581 0.462573 -0.538382 0.842701 269.967 73.6364)" fill="#A989F5"/>
<rect width="2" height="2" rx="1" transform="matrix(0.886581 0.462573 -0.538382 0.842701 260.276 88.805)" fill="#A989F5"/>
<rect width="2" height="2" rx="1" transform="matrix(0.886581 0.462573 -0.538382 0.842701 250.586 103.974)" fill="#A989F5"/>
<rect width="2" height="2" rx="1" transform="matrix(0.886581 0.462573 -0.538382 0.842701 304.639 1.13074)" fill="#A989F5"/>
<rect width="2" height="2" rx="1" transform="matrix(0.886581 0.462573 -0.538382 0.842701 294.949 16.2993)" fill="#A989F5"/>
<rect width="2" height="2" rx="1" transform="matrix(0.886581 0.462573 -0.538382 0.842701 285.258 31.468)" fill="#A989F5"/>
<rect width="2" height="2" rx="1" transform="matrix(0.886581 0.462573 -0.538382 0.842701 275.567 46.6366)" fill="#A989F5"/>
<rect width="2" height="2" rx="1" transform="matrix(0.886581 0.462573 -0.538382 0.842701 265.876 61.8052)" fill="#A989F5"/>
<rect width="2" height="2" rx="1" transform="matrix(0.886581 0.462573 -0.538382 0.842701 256.185 76.9738)" fill="#A989F5"/>
<rect width="2" height="2" rx="1" transform="matrix(0.886581 0.462573 -0.538382 0.842701 246.494 92.1424)" fill="#A989F5"/>
<rect width="2" height="2" rx="1" transform="matrix(0.886581 0.462573 -0.538382 0.842701 236.803 107.311)" fill="#A989F5"/>
<rect width="2" height="2" rx="1" transform="matrix(0.886581 0.462573 -0.538382 0.842701 291.256 3.84424)" fill="#A989F5"/>
<rect width="2" height="2" rx="1" transform="matrix(0.886581 0.462573 -0.538382 0.842701 281.565 19.0128)" fill="#A989F5"/>
<rect width="2" height="2" rx="1" transform="matrix(0.886581 0.462573 -0.538382 0.842701 271.874 34.1815)" fill="#A989F5"/>
<rect width="2" height="2" rx="1" transform="matrix(0.886581 0.462573 -0.538382 0.842701 262.183 49.3501)" fill="#A989F5"/>
<rect width="2" height="2" rx="1" transform="matrix(0.886581 0.462573 -0.538382 0.842701 252.492 64.5187)" fill="#A989F5"/>
<rect width="2" height="2" rx="1" transform="matrix(0.886581 0.462573 -0.538382 0.842701 242.801 79.6873)" fill="#A989F5"/>
<rect width="2" height="2" rx="1" transform="matrix(0.886581 0.462573 -0.538382 0.842701 233.111 94.8559)" fill="#A989F5"/>
<rect width="2" height="2" rx="1" transform="matrix(0.886581 0.462573 -0.538382 0.842701 223.42 110.025)" fill="#A989F5"/>
<rect width="2" height="2" rx="1" transform="matrix(0.886581 0.462573 -0.538382 0.842701 277.473 7.18164)" fill="#A989F5"/>
<rect width="2" height="2" rx="1" transform="matrix(0.886581 0.462573 -0.538382 0.842701 267.782 22.3503)" fill="#A989F5"/>
<rect width="2" height="2" rx="1" transform="matrix(0.886581 0.462573 -0.538382 0.842701 258.092 37.5189)" fill="#A989F5"/>
<rect width="2" height="2" rx="1" transform="matrix(0.886581 0.462573 -0.538382 0.842701 248.401 52.6875)" fill="#A989F5"/>
<rect width="2" height="2" rx="1" transform="matrix(0.886581 0.462573 -0.538382 0.842701 238.71 67.8561)" fill="#A989F5"/>
<rect width="2" height="2" rx="1" transform="matrix(0.886581 0.462573 -0.538382 0.842701 229.019 83.0247)" fill="#A989F5"/>
<rect width="2" height="2" rx="1" transform="matrix(0.886581 0.462573 -0.538382 0.842701 219.328 98.1933)" fill="#A989F5"/>
<rect width="2" height="2" rx="1" transform="matrix(0.886581 0.462573 -0.538382 0.842701 209.637 113.362)" fill="#A989F5"/>
<rect width="2" height="2" rx="1" transform="matrix(0.886581 0.462573 -0.538382 0.842701 264.09 9.89517)" fill="#A989F5"/>
<rect width="2" height="2" rx="1" transform="matrix(0.886581 0.462573 -0.538382 0.842701 254.399 25.0638)" fill="#A989F5"/>
<rect width="2" height="2" rx="1" transform="matrix(0.886581 0.462573 -0.538382 0.842701 244.708 40.2324)" fill="#A989F5"/>
<rect width="2" height="2" rx="1" transform="matrix(0.886581 0.462573 -0.538382 0.842701 235.017 55.401)" fill="#A989F5"/>
<rect width="2" height="2" rx="1" transform="matrix(0.886581 0.462573 -0.538382 0.842701 225.326 70.5696)" fill="#A989F5"/>
<rect width="2" height="2" rx="1" transform="matrix(0.886581 0.462573 -0.538382 0.842701 215.635 85.7383)" fill="#A989F5"/>
<rect width="2" height="2" rx="1" transform="matrix(0.886581 0.462573 -0.538382 0.842701 205.944 100.907)" fill="#A989F5"/>
<rect width="2" height="2" rx="1" transform="matrix(0.886581 0.462573 -0.538382 0.842701 259.998 -1.93604)" fill="#A989F5"/>
<rect width="2" height="2" rx="1" transform="matrix(0.886581 0.462573 -0.538382 0.842701 250.307 13.2326)" fill="#A989F5"/>
<rect width="2" height="2" rx="1" transform="matrix(0.886581 0.462573 -0.538382 0.842701 240.616 28.4012)" fill="#A989F5"/>
<rect width="2" height="2" rx="1" transform="matrix(0.886581 0.462573 -0.538382 0.842701 230.926 43.5698)" fill="#A989F5"/>
<rect width="2" height="2" rx="1" transform="matrix(0.886581 0.462573 -0.538382 0.842701 221.235 58.7384)" fill="#A989F5"/>
<rect width="2" height="2" rx="1" transform="matrix(0.886581 0.462573 -0.538382 0.842701 211.544 73.907)" fill="#A989F5"/>
<rect width="2" height="2" rx="1" transform="matrix(0.886581 0.462573 -0.538382 0.842701 201.853 89.0757)" fill="#A989F5"/>
<rect width="2" height="2" rx="1" transform="matrix(0.886581 0.462573 -0.538382 0.842701 192.162 104.244)" fill="#A989F5"/>
<rect width="2" height="2" rx="1" transform="matrix(0.886581 0.462573 -0.538382 0.842701 246.615 0.777496)" fill="#A989F5"/>
<rect width="2" height="2" rx="1" transform="matrix(0.886581 0.462573 -0.538382 0.842701 236.924 15.9461)" fill="#A989F5"/>
<rect width="2" height="2" rx="1" transform="matrix(0.886581 0.462573 -0.538382 0.842701 227.233 31.1147)" fill="#A989F5"/>
<rect width="2" height="2" rx="1" transform="matrix(0.886581 0.462573 -0.538382 0.842701 217.542 46.2833)" fill="#A989F5"/>
<rect width="2" height="2" rx="1" transform="matrix(0.886581 0.462573 -0.538382 0.842701 207.851 61.452)" fill="#A989F5"/>
<rect width="2" height="2" rx="1" transform="matrix(0.886581 0.462573 -0.538382 0.842701 198.16 76.6206)" fill="#A989F5"/>
<rect width="2" height="2" rx="1" transform="matrix(0.886581 0.462573 -0.538382 0.842701 188.469 91.7892)" fill="#A989F5"/>
<rect width="2" height="2" rx="1" transform="matrix(0.886581 0.462573 -0.538382 0.842701 178.778 106.958)" fill="#A989F5"/>
<rect width="2" height="2" rx="1" transform="matrix(0.886581 0.462573 -0.538382 0.842701 232.832 4.1149)" fill="#A989F5"/>
<rect width="2" height="2" rx="1" transform="matrix(0.886581 0.462573 -0.538382 0.842701 223.141 19.2835)" fill="#A989F5"/>
<rect width="2" height="2" rx="1" transform="matrix(0.886581 0.462573 -0.538382 0.842701 213.45 34.4521)" fill="#A989F5"/>
<rect width="2" height="2" rx="1" transform="matrix(0.886581 0.462573 -0.538382 0.842701 203.76 49.6207)" fill="#A989F5"/>
<rect width="2" height="2" rx="1" transform="matrix(0.886581 0.462573 -0.538382 0.842701 194.069 64.7894)" fill="#A989F5"/>
<rect width="2" height="2" rx="1" transform="matrix(0.886581 0.462573 -0.538382 0.842701 184.378 79.958)" fill="#A989F5"/>
<rect width="2" height="2" rx="1" transform="matrix(0.886581 0.462573 -0.538382 0.842701 174.687 95.1266)" fill="#A989F5"/>
<rect width="2" height="2" rx="1" transform="matrix(0.886581 0.462573 -0.538382 0.842701 164.996 110.295)" fill="#A989F5"/>
<rect width="2" height="2" rx="1" transform="matrix(0.886581 0.462573 -0.538382 0.842701 219.448 6.82843)" fill="#A989F5"/>
<rect width="2" height="2" rx="1" transform="matrix(0.886581 0.462573 -0.538382 0.842701 209.758 21.997)" fill="#A989F5"/>
<rect width="2" height="2" rx="1" transform="matrix(0.886581 0.462573 -0.538382 0.842701 200.067 37.1656)" fill="#A989F5"/>
<rect width="2" height="2" rx="1" transform="matrix(0.886581 0.462573 -0.538382 0.842701 190.376 52.3343)" fill="#A989F5"/>
<rect width="2" height="2" rx="1" transform="matrix(0.886581 0.462573 -0.538382 0.842701 180.685 67.5029)" fill="#A989F5"/>
<rect width="2" height="2" rx="1" transform="matrix(0.886581 0.462573 -0.538382 0.842701 170.994 82.6715)" fill="#A989F5"/>
<rect width="2" height="2" rx="1" transform="matrix(0.886581 0.462573 -0.538382 0.842701 161.303 97.8401)" fill="#A989F5"/>
<rect width="2" height="2" rx="1" transform="matrix(0.886581 0.462573 -0.538382 0.842701 151.612 113.009)" fill="#A989F5"/>
<rect width="2" height="2" rx="1" transform="matrix(0.886581 0.462573 -0.538382 0.842701 205.666 10.1661)" fill="#A989F5"/>
<rect width="2" height="2" rx="1" transform="matrix(0.886581 0.462573 -0.538382 0.842701 195.975 25.3347)" fill="#A989F5"/>
<rect width="2" height="2" rx="1" transform="matrix(0.886581 0.462573 -0.538382 0.842701 186.284 40.5033)" fill="#A989F5"/>
<rect width="2" height="2" rx="1" transform="matrix(0.886581 0.462573 -0.538382 0.842701 176.594 55.6719)" fill="#A989F5"/>
<rect width="2" height="2" rx="1" transform="matrix(0.886581 0.462573 -0.538382 0.842701 166.903 70.8405)" fill="#A989F5"/>
<rect width="2" height="2" rx="1" transform="matrix(0.886581 0.462573 -0.538382 0.842701 157.212 86.0092)" fill="#A989F5"/>
<rect width="2" height="2" rx="1" transform="matrix(0.886581 0.462573 -0.538382 0.842701 147.521 101.178)" fill="#A989F5"/>
<rect width="2" height="2" rx="1" transform="matrix(0.886581 0.462573 -0.538382 0.842701 201.973 -2.289)" fill="#A989F5"/>
<rect width="2" height="2" rx="1" transform="matrix(0.886581 0.462573 -0.538382 0.842701 192.282 12.8796)" fill="#A989F5"/>
<rect width="2" height="2" rx="1" transform="matrix(0.886581 0.462573 -0.538382 0.842701 182.592 28.0482)" fill="#A989F5"/>
<rect width="2" height="2" rx="1" transform="matrix(0.886581 0.462573 -0.538382 0.842701 172.901 43.2169)" fill="#A989F5"/>
<rect width="2" height="2" rx="1" transform="matrix(0.886581 0.462573 -0.538382 0.842701 163.21 58.3855)" fill="#A989F5"/>
<rect width="2" height="2" rx="1" transform="matrix(0.886581 0.462573 -0.538382 0.842701 153.519 73.5541)" fill="#A989F5"/>
<rect width="2" height="2" rx="1" transform="matrix(0.886581 0.462573 -0.538382 0.842701 143.828 88.7227)" fill="#A989F5"/>
<rect width="2" height="2" rx="1" transform="matrix(0.886581 0.462573 -0.538382 0.842701 134.137 103.891)" fill="#A989F5"/>
<rect width="2" height="2" rx="1" transform="matrix(0.886581 0.462573 -0.538382 0.842701 188.191 1.0484)" fill="#A989F5"/>
<rect width="2" height="2" rx="1" transform="matrix(0.886581 0.462573 -0.538382 0.842701 178.5 16.217)" fill="#A989F5"/>
<rect width="2" height="2" rx="1" transform="matrix(0.886581 0.462573 -0.538382 0.842701 168.809 31.3856)" fill="#A989F5"/>
<rect width="2" height="2" rx="1" transform="matrix(0.886581 0.462573 -0.538382 0.842701 159.118 46.5543)" fill="#A989F5"/>
<rect width="2" height="2" rx="1" transform="matrix(0.886581 0.462573 -0.538382 0.842701 149.428 61.7229)" fill="#A989F5"/>
<rect width="2" height="2" rx="1" transform="matrix(0.886581 0.462573 -0.538382 0.842701 139.737 76.8915)" fill="#A989F5"/>
<rect width="2" height="2" rx="1" transform="matrix(0.886581 0.462573 -0.538382 0.842701 130.046 92.0601)" fill="#A989F5"/>
<rect width="2" height="2" rx="1" transform="matrix(0.886581 0.462573 -0.538382 0.842701 120.355 107.229)" fill="#A989F5"/>
<rect width="2" height="2" rx="1" transform="matrix(0.886581 0.462573 -0.538382 0.842701 174.807 3.76193)" fill="#A989F5"/>
<rect width="2" height="2" rx="1" transform="matrix(0.886581 0.462573 -0.538382 0.842701 165.116 18.9305)" fill="#A989F5"/>
<rect width="2" height="2" rx="1" transform="matrix(0.886581 0.462573 -0.538382 0.842701 155.426 34.0992)" fill="#A989F5"/>
<rect width="2" height="2" rx="1" transform="matrix(0.886581 0.462573 -0.538382 0.842701 145.735 49.2678)" fill="#A989F5"/>
<rect width="2" height="2" rx="1" transform="matrix(0.886581 0.462573 -0.538382 0.842701 136.044 64.4364)" fill="#A989F5"/>
<rect width="2" height="2" rx="1" transform="matrix(0.886581 0.462573 -0.538382 0.842701 126.353 79.605)" fill="#A989F5"/>
<rect width="2" height="2" rx="1" transform="matrix(0.886581 0.462573 -0.538382 0.842701 116.662 94.7736)" fill="#A989F5"/>
<rect width="2" height="2" rx="1" transform="matrix(0.886581 0.462573 -0.538382 0.842701 106.971 109.942)" fill="#A989F5"/>
<rect width="2" height="2" rx="1" transform="matrix(0.886581 0.462573 -0.538382 0.842701 161.025 7.09909)" fill="#A989F5"/>
<rect width="2" height="2" rx="1" transform="matrix(0.886581 0.462573 -0.538382 0.842701 151.334 22.2677)" fill="#A989F5"/>
<rect width="2" height="2" rx="1" transform="matrix(0.886581 0.462573 -0.538382 0.842701 141.643 37.4363)" fill="#A989F5"/>
<rect width="2" height="2" rx="1" transform="matrix(0.886581 0.462573 -0.538382 0.842701 131.953 52.6049)" fill="#A989F5"/>
<rect width="2" height="2" rx="1" transform="matrix(0.886581 0.462573 -0.538382 0.842701 122.262 67.7736)" fill="#A989F5"/>
<rect width="2" height="2" rx="1" transform="matrix(0.886581 0.462573 -0.538382 0.842701 112.571 82.9422)" fill="#A989F5"/>
<rect width="2" height="2" rx="1" transform="matrix(0.886581 0.462573 -0.538382 0.842701 102.88 98.1108)" fill="#A989F5"/>
<rect width="2" height="2" rx="1" transform="matrix(0.886581 0.462573 -0.538382 0.842701 93.189 113.279)" fill="#A989F5"/>
<rect width="2" height="2" rx="1" transform="matrix(0.886581 0.462573 -0.538382 0.842701 147.641 9.81284)" fill="#A989F5"/>
<rect width="2" height="2" rx="1" transform="matrix(0.886581 0.462573 -0.538382 0.842701 137.95 24.9815)" fill="#A989F5"/>
<rect width="2" height="2" rx="1" transform="matrix(0.886581 0.462573 -0.538382 0.842701 128.26 40.1501)" fill="#A989F5"/>
<rect width="2" height="2" rx="1" transform="matrix(0.886581 0.462573 -0.538382 0.842701 118.569 55.3187)" fill="#A989F5"/>
<rect width="2" height="2" rx="1" transform="matrix(0.886581 0.462573 -0.538382 0.842701 108.878 70.4873)" fill="#A989F5"/>
<rect width="2" height="2" rx="1" transform="matrix(0.886581 0.462573 -0.538382 0.842701 99.1868 85.6559)" fill="#A989F5"/>
<rect width="2" height="2" rx="1" transform="matrix(0.886581 0.462573 -0.538382 0.842701 89.4958 100.825)" fill="#A989F5"/>
<rect width="2" height="2" rx="1" transform="matrix(0.886581 0.462573 -0.538382 0.842701 143.55 -2.01862)" fill="#A989F5"/>
<rect width="2" height="2" rx="1" transform="matrix(0.886581 0.462573 -0.538382 0.842701 133.859 13.15)" fill="#A989F5"/>
<rect width="2" height="2" rx="1" transform="matrix(0.886581 0.462573 -0.538382 0.842701 124.168 28.3186)" fill="#A989F5"/>
<rect width="2" height="2" rx="1" transform="matrix(0.886581 0.462573 -0.538382 0.842701 114.478 43.4872)" fill="#A989F5"/>
<rect width="2" height="2" rx="1" transform="matrix(0.886581 0.462573 -0.538382 0.842701 104.787 58.6559)" fill="#A989F5"/>
<rect width="2" height="2" rx="1" transform="matrix(0.886581 0.462573 -0.538382 0.842701 95.0957 73.8245)" fill="#A989F5"/>
<rect width="2" height="2" rx="1" transform="matrix(0.886581 0.462573 -0.538382 0.842701 85.4048 88.9931)" fill="#A989F5"/>
<rect width="2" height="2" rx="1" transform="matrix(0.886581 0.462573 -0.538382 0.842701 75.7139 104.162)" fill="#A989F5"/>
<rect width="2" height="2" rx="1" transform="matrix(0.886581 0.462573 -0.538382 0.842701 130.166 0.69516)" fill="#A989F5"/>
<rect width="2" height="2" rx="1" transform="matrix(0.886581 0.462573 -0.538382 0.842701 120.475 15.8638)" fill="#A989F5"/>
<rect width="2" height="2" rx="1" transform="matrix(0.886581 0.462573 -0.538382 0.842701 110.784 31.0324)" fill="#A989F5"/>
<rect width="2" height="2" rx="1" transform="matrix(0.886581 0.462573 -0.538382 0.842701 101.094 46.201)" fill="#A989F5"/>
<rect width="2" height="2" rx="1" transform="matrix(0.886581 0.462573 -0.538382 0.842701 91.4026 61.3696)" fill="#A989F5"/>
<rect width="2" height="2" rx="1" transform="matrix(0.886581 0.462573 -0.538382 0.842701 81.7117 76.5382)" fill="#A989F5"/>
<rect width="2" height="2" rx="1" transform="matrix(0.886581 0.462573 -0.538382 0.842701 72.0208 91.7069)" fill="#A989F5"/>
<rect width="2" height="2" rx="1" transform="matrix(0.886581 0.462573 -0.538382 0.842701 116.384 4.03232)" fill="#A989F5"/>
<rect width="2" height="2" rx="1" transform="matrix(0.886581 0.462573 -0.538382 0.842701 106.693 19.201)" fill="#A989F5"/>
<rect width="2" height="2" rx="1" transform="matrix(0.886581 0.462573 -0.538382 0.842701 97.0022 34.3696)" fill="#A989F5"/>
<rect width="2" height="2" rx="1" transform="matrix(0.886581 0.462573 -0.538382 0.842701 87.3113 49.5382)" fill="#A989F5"/>
<rect width="2" height="2" rx="1" transform="matrix(0.886581 0.462573 -0.538382 0.842701 77.6204 64.7068)" fill="#A989F5"/>
<rect width="2" height="2" rx="1" transform="matrix(0.886581 0.462573 -0.538382 0.842701 67.9294 79.8754)" fill="#A989F5"/>
<rect width="2" height="2" rx="1" transform="matrix(0.886581 0.462573 -0.538382 0.842701 58.2385 95.044)" fill="#A989F5"/>
<rect width="2" height="2" rx="1" transform="matrix(0.886581 0.462573 -0.538382 0.842701 103 6.74612)" fill="#A989F5"/>
<rect width="2" height="2" rx="1" transform="matrix(0.886581 0.462573 -0.538382 0.842701 93.3093 21.9147)" fill="#A989F5"/>
<rect width="2" height="2" rx="1" transform="matrix(0.886581 0.462573 -0.538382 0.842701 83.6184 37.0833)" fill="#A989F5"/>
<rect width="2" height="2" rx="1" transform="matrix(0.886581 0.462573 -0.538382 0.842701 73.9275 52.252)" fill="#A989F5"/>
<rect width="2" height="2" rx="1" transform="matrix(0.886581 0.462573 -0.538382 0.842701 64.2366 67.4206)" fill="#A989F5"/>
<rect width="2" height="2" rx="1" transform="matrix(0.886581 0.462573 -0.538382 0.842701 54.5457 82.5892)" fill="#A989F5"/>
<rect width="2" height="2" rx="1" transform="matrix(0.886581 0.462573 -0.538382 0.842701 89.2178 10.0833)" fill="#A989F5"/>
<rect width="2" height="2" rx="1" transform="matrix(0.886581 0.462573 -0.538382 0.842701 79.5271 25.2519)" fill="#A989F5"/>
<rect width="2" height="2" rx="1" transform="matrix(0.886581 0.462573 -0.538382 0.842701 69.8362 40.4205)" fill="#A989F5"/>
<rect width="2" height="2" rx="1" transform="matrix(0.886581 0.462573 -0.538382 0.842701 60.1453 55.5891)" fill="#A989F5"/>
<rect width="2" height="2" rx="1" transform="matrix(0.886581 0.462573 -0.538382 0.842701 50.4543 70.7577)" fill="#A989F5"/>
<rect width="2" height="2" rx="1" transform="matrix(0.886581 0.462573 -0.538382 0.842701 40.7634 85.9264)" fill="#A989F5"/>
<rect width="2" height="2" rx="1" transform="matrix(0.886581 0.462573 -0.538382 0.842701 85.5249 -2.37155)" fill="#A989F5"/>
<rect width="2" height="2" rx="1" transform="matrix(0.886581 0.462573 -0.538382 0.842701 75.8342 12.7971)" fill="#A989F5"/>
<rect width="2" height="2" rx="1" transform="matrix(0.886581 0.462573 -0.538382 0.842701 66.1433 27.9657)" fill="#A989F5"/>
<rect width="2" height="2" rx="1" transform="matrix(0.886581 0.462573 -0.538382 0.842701 56.4524 43.1343)" fill="#A989F5"/>
<rect width="2" height="2" rx="1" transform="matrix(0.886581 0.462573 -0.538382 0.842701 46.7615 58.3029)" fill="#A989F5"/>
<rect width="2" height="2" rx="1" transform="matrix(0.886581 0.462573 -0.538382 0.842701 37.0706 73.4715)" fill="#A989F5"/>
<rect width="2" height="2" rx="1" transform="matrix(0.886581 0.462573 -0.538382 0.842701 71.7427 0.965668)" fill="#A989F5"/>
<rect width="2" height="2" rx="1" transform="matrix(0.886581 0.462573 -0.538382 0.842701 62.052 16.1343)" fill="#A989F5"/>
<rect width="2" height="2" rx="1" transform="matrix(0.886581 0.462573 -0.538382 0.842701 52.3611 31.3029)" fill="#A989F5"/>
<rect width="2" height="2" rx="1" transform="matrix(0.886581 0.462573 -0.538382 0.842701 42.6702 46.4715)" fill="#A989F5"/>
<rect width="2" height="2" rx="1" transform="matrix(0.886581 0.462573 -0.538382 0.842701 32.9792 61.6401)" fill="#A989F5"/>
<rect width="2" height="2" rx="1" transform="matrix(0.886581 0.462573 -0.538382 0.842701 23.2883 76.8087)" fill="#A989F5"/>
<rect width="2" height="2" rx="1" transform="matrix(0.886581 0.462573 -0.538382 0.842701 58.3591 3.67944)" fill="#A989F5"/>
<rect width="2" height="2" rx="1" transform="matrix(0.886581 0.462573 -0.538382 0.842701 48.6682 18.8481)" fill="#A989F5"/>
<rect width="2" height="2" rx="1" transform="matrix(0.886581 0.462573 -0.538382 0.842701 38.9773 34.0167)" fill="#A989F5"/>
<rect width="2" height="2" rx="1" transform="matrix(0.886581 0.462573 -0.538382 0.842701 29.2864 49.1853)" fill="#A989F5"/>
<rect width="2" height="2" rx="1" transform="matrix(0.886581 0.462573 -0.538382 0.842701 19.5955 64.3539)" fill="#A989F5"/>
<rect width="2" height="2" rx="1" transform="matrix(0.886581 0.462573 -0.538382 0.842701 44.5767 7.01685)" fill="#A989F5"/>
<rect width="2" height="2" rx="1" transform="matrix(0.886581 0.462573 -0.538382 0.842701 34.8857 22.1855)" fill="#A989F5"/>
<rect width="2" height="2" rx="1" transform="matrix(0.886581 0.462573 -0.538382 0.842701 25.1948 37.3541)" fill="#A989F5"/>
<rect width="2" height="2" rx="1" transform="matrix(0.886581 0.462573 -0.538382 0.842701 15.5039 52.5227)" fill="#A989F5"/>
<rect width="2" height="2" rx="1" transform="matrix(0.886581 0.462573 -0.538382 0.842701 5.81299 67.6913)" fill="#A989F5"/>
<rect width="2" height="2" rx="1" transform="matrix(0.886581 0.462573 -0.538382 0.842701 31.1929 9.73038)" fill="#A989F5"/>
<rect width="2" height="2" rx="1" transform="matrix(0.886581 0.462573 -0.538382 0.842701 21.502 24.899)" fill="#A989F5"/>
<rect width="2" height="2" rx="1" transform="matrix(0.886581 0.462573 -0.538382 0.842701 11.811 40.0676)" fill="#A989F5"/>
<rect width="2" height="2" rx="1" transform="matrix(0.886581 0.462573 -0.538382 0.842701 2.12012 55.2362)" fill="#A989F5"/>
<rect width="2" height="2" rx="1" transform="matrix(0.886581 0.462573 -0.538382 0.842701 27.1018 -2.10083)" fill="#A989F5"/>
<rect width="2" height="2" rx="1" transform="matrix(0.886581 0.462573 -0.538382 0.842701 17.4109 13.0678)" fill="#A989F5"/>
<rect width="2" height="2" rx="1" transform="matrix(0.886581 0.462573 -0.538382 0.842701 7.71997 28.2364)" fill="#A989F5"/>
<rect width="2" height="2" rx="1" transform="matrix(0.886581 0.462573 -0.538382 0.842701 13.7178 0.612946)" fill="#A989F5"/>
<rect width="2" height="2" rx="1" transform="matrix(0.886581 0.462573 -0.538382 0.842701 4.02686 15.7816)" fill="#A989F5"/>
<rect width="2" height="2" rx="1" transform="matrix(0.886581 0.462573 -0.538382 0.842701 -0.0644531 3.9501)" fill="#A989F5"/>
</g>
</mask>
<g mask="url(#mask1_672_30462)">
<rect width="452" height="124" fill="url(#paint1_linear_672_30462)"/>
</g>
</g>
</g>
<rect x="1.5" y="1.5" width="449" height="113" rx="10.5" stroke="url(#paint2_linear_672_30462)" stroke-width="3"/>
<defs>
<linearGradient id="paint0_linear_672_30462" x1="0" y1="0" x2="437.27" y2="157.019" gradientUnits="userSpaceOnUse">
<stop offset="0.399038" stop-opacity="0"/>
<stop offset="1"/>
</linearGradient>
<linearGradient id="paint1_linear_672_30462" x1="0" y1="0" x2="458.842" y2="88.5461" gradientUnits="userSpaceOnUse">
<stop stop-color="#2F2A6B"/>
<stop offset="1" stop-color="#A989F5"/>
</linearGradient>
<linearGradient id="paint2_linear_672_30462" x1="0" y1="0" x2="456.503" y2="94.1703" gradientUnits="userSpaceOnUse">
<stop stop-color="#5943B6"/>
<stop offset="1" stop-color="#A989F5"/>
</linearGradient>
<clipPath id="clip0_672_30462">
<rect width="452" height="116" rx="12" fill="white"/>
</clipPath>
</defs>
</svg>
