<svg width="452" height="116" viewBox="0 0 452 116" fill="none" xmlns="http://www.w3.org/2000/svg">
<g clip-path="url(#clip0_672_31240)">
<rect width="452" height="116" rx="12" fill="transparent"/>
<mask id="mask0_672_31240" style="mask-type:alpha" maskUnits="userSpaceOnUse" x="0" y="0" width="452" height="116">
<rect width="452" height="116" fill="url(#paint0_linear_672_31240)"/>
</mask>
<g mask="url(#mask0_672_31240)">
<mask id="mask1_672_31240" style="mask-type:alpha" maskUnits="userSpaceOnUse" x="-49" y="-206" width="582" height="469">
<g opacity="0.6">
<rect x="0.1741" y="0.652637" width="4" height="4" rx="0.5" transform="matrix(0.886581 0.462573 -0.538382 0.842701 446.46 114.019)" stroke="#A989F5"/>
<rect x="0.1741" y="0.652637" width="4" height="4" rx="0.5" transform="matrix(0.886581 0.462573 -0.538382 0.842701 454.073 83.8672)" stroke="#A989F5"/>
<rect x="0.1741" y="0.652637" width="4" height="4" rx="0.5" transform="matrix(0.886581 0.462573 -0.538382 0.842701 442.767 101.564)" stroke="#A989F5"/>
<rect x="0.1741" y="0.652637" width="4" height="4" rx="0.5" transform="matrix(0.886581 0.462573 -0.538382 0.842701 451.597 69.5076)" stroke="#A989F5"/>
<rect x="0.1741" y="0.652637" width="4" height="4" rx="0.5" transform="matrix(0.886581 0.462573 -0.538382 0.842701 440.291 87.2043)" stroke="#A989F5"/>
<rect x="0.1741" y="0.652637" width="4" height="4" rx="0.5" transform="matrix(0.886581 0.462573 -0.538382 0.842701 428.985 104.901)" stroke="#A989F5"/>
<rect x="0.1741" y="0.652637" width="4" height="4" rx="0.5" transform="matrix(0.886581 0.462573 -0.538382 0.842701 447.904 57.0528)" stroke="#A989F5"/>
<rect x="0.1741" y="0.652637" width="4" height="4" rx="0.5" transform="matrix(0.886581 0.462573 -0.538382 0.842701 436.598 74.7495)" stroke="#A989F5"/>
<rect x="0.1741" y="0.652637" width="4" height="4" rx="0.5" transform="matrix(0.886581 0.462573 -0.538382 0.842701 425.292 92.4462)" stroke="#A989F5"/>
<rect x="0.1741" y="0.652637" width="4" height="4" rx="0.5" transform="matrix(0.886581 0.462573 -0.538382 0.842701 413.986 110.143)" stroke="#A989F5"/>
<rect x="0.1741" y="0.652637" width="4" height="4" rx="0.5" transform="matrix(0.886581 0.462573 -0.538382 0.842701 445.428 42.6932)" stroke="#A989F5"/>
<rect x="0.1741" y="0.652637" width="4" height="4" rx="0.5" transform="matrix(0.886581 0.462573 -0.538382 0.842701 434.122 60.3899)" stroke="#A989F5"/>
<rect x="0.1741" y="0.652637" width="4" height="4" rx="0.5" transform="matrix(0.886581 0.462573 -0.538382 0.842701 422.816 78.0867)" stroke="#A989F5"/>
<rect x="0.1741" y="0.652637" width="4" height="4" rx="0.5" transform="matrix(0.886581 0.462573 -0.538382 0.842701 411.51 95.7834)" stroke="#A989F5"/>
<rect x="0.1741" y="0.652637" width="4" height="4" rx="0.5" transform="matrix(0.886581 0.462573 -0.538382 0.842701 400.204 113.48)" stroke="#A989F5"/>
<rect x="0.1741" y="0.652637" width="4" height="4" rx="0.5" transform="matrix(0.886581 0.462573 -0.538382 0.842701 453.041 12.5417)" stroke="#A989F5"/>
<rect x="0.1741" y="0.652637" width="4" height="4" rx="0.5" transform="matrix(0.886581 0.462573 -0.538382 0.842701 441.735 30.2384)" stroke="#A989F5"/>
<rect x="0.1741" y="0.652637" width="4" height="4" rx="0.5" transform="matrix(0.886581 0.462573 -0.538382 0.842701 430.429 47.9351)" stroke="#A989F5"/>
<rect x="0.1741" y="0.652637" width="4" height="4" rx="0.5" transform="matrix(0.886581 0.462573 -0.538382 0.842701 419.123 65.6318)" stroke="#A989F5"/>
<rect x="0.1741" y="0.652637" width="4" height="4" rx="0.5" transform="matrix(0.886581 0.462573 -0.538382 0.842701 407.817 83.3286)" stroke="#A989F5"/>
<rect x="0.1741" y="0.652637" width="4" height="4" rx="0.5" transform="matrix(0.886581 0.462573 -0.538382 0.842701 396.511 101.025)" stroke="#A989F5"/>
<rect x="0.1741" y="0.652637" width="4" height="4" rx="0.5" transform="matrix(0.886581 0.462573 -0.538382 0.842701 450.565 -1.8179)" stroke="#A989F5"/>
<rect x="0.1741" y="0.652637" width="4" height="4" rx="0.5" transform="matrix(0.886581 0.462573 -0.538382 0.842701 439.259 15.8788)" stroke="#A989F5"/>
<rect x="0.1741" y="0.652637" width="4" height="4" rx="0.5" transform="matrix(0.886581 0.462573 -0.538382 0.842701 427.953 33.5755)" stroke="#A989F5"/>
<rect x="0.1741" y="0.652637" width="4" height="4" rx="0.5" transform="matrix(0.886581 0.462573 -0.538382 0.842701 416.647 51.2723)" stroke="#A989F5"/>
<rect x="0.1741" y="0.652637" width="4" height="4" rx="0.5" transform="matrix(0.886581 0.462573 -0.538382 0.842701 405.341 68.969)" stroke="#A989F5"/>
<rect x="0.1741" y="0.652637" width="4" height="4" rx="0.5" transform="matrix(0.886581 0.462573 -0.538382 0.842701 394.034 86.6657)" stroke="#A989F5"/>
<rect x="0.1741" y="0.652637" width="4" height="4" rx="0.5" transform="matrix(0.886581 0.462573 -0.538382 0.842701 382.729 104.362)" stroke="#A989F5"/>
<rect x="0.1741" y="0.652637" width="4" height="4" rx="0.5" transform="matrix(0.886581 0.462573 -0.538382 0.842701 435.566 3.42398)" stroke="#A989F5"/>
<rect x="0.1741" y="0.652637" width="4" height="4" rx="0.5" transform="matrix(0.886581 0.462573 -0.538382 0.842701 424.26 21.1207)" stroke="#A989F5"/>
<rect x="0.1741" y="0.652637" width="4" height="4" rx="0.5" transform="matrix(0.886581 0.462573 -0.538382 0.842701 412.954 38.8174)" stroke="#A989F5"/>
<rect x="0.1741" y="0.652637" width="4" height="4" rx="0.5" transform="matrix(0.886581 0.462573 -0.538382 0.842701 401.648 56.5141)" stroke="#A989F5"/>
<rect x="0.1741" y="0.652637" width="4" height="4" rx="0.5" transform="matrix(0.886581 0.462573 -0.538382 0.842701 390.342 74.2109)" stroke="#A989F5"/>
<rect x="0.1741" y="0.652637" width="4" height="4" rx="0.5" transform="matrix(0.886581 0.462573 -0.538382 0.842701 379.036 91.9076)" stroke="#A989F5"/>
<rect x="0.1741" y="0.652637" width="4" height="4" rx="0.5" transform="matrix(0.886581 0.462573 -0.538382 0.842701 367.73 109.604)" stroke="#A989F5"/>
<rect x="0.1741" y="0.652637" width="4" height="4" rx="0.5" transform="matrix(0.886581 0.462573 -0.538382 0.842701 421.783 6.76114)" stroke="#A989F5"/>
<rect x="0.1741" y="0.652637" width="4" height="4" rx="0.5" transform="matrix(0.886581 0.462573 -0.538382 0.842701 410.478 24.4579)" stroke="#A989F5"/>
<rect x="0.1741" y="0.652637" width="4" height="4" rx="0.5" transform="matrix(0.886581 0.462573 -0.538382 0.842701 399.171 42.1546)" stroke="#A989F5"/>
<rect x="0.1741" y="0.652637" width="4" height="4" rx="0.5" transform="matrix(0.886581 0.462573 -0.538382 0.842701 387.865 59.8513)" stroke="#A989F5"/>
<rect x="0.1741" y="0.652637" width="4" height="4" rx="0.5" transform="matrix(0.886581 0.462573 -0.538382 0.842701 376.559 77.548)" stroke="#A989F5"/>
<rect x="0.1741" y="0.652637" width="4" height="4" rx="0.5" transform="matrix(0.886581 0.462573 -0.538382 0.842701 365.253 95.2448)" stroke="#A989F5"/>
<rect x="0.1741" y="0.652637" width="4" height="4" rx="0.5" transform="matrix(0.886581 0.462573 -0.538382 0.842701 353.947 112.941)" stroke="#A989F5"/>
<rect x="0.1741" y="0.652637" width="4" height="4" rx="0.5" transform="matrix(0.886581 0.462573 -0.538382 0.842701 418.09 -5.69369)" stroke="#A989F5"/>
<rect x="0.1741" y="0.652637" width="4" height="4" rx="0.5" transform="matrix(0.886581 0.462573 -0.538382 0.842701 406.784 12.003)" stroke="#A989F5"/>
<rect x="0.1741" y="0.652637" width="4" height="4" rx="0.5" transform="matrix(0.886581 0.462573 -0.538382 0.842701 395.478 29.6998)" stroke="#A989F5"/>
<rect x="0.1741" y="0.652637" width="4" height="4" rx="0.5" transform="matrix(0.886581 0.462573 -0.538382 0.842701 384.172 47.3965)" stroke="#A989F5"/>
<rect x="0.1741" y="0.652637" width="4" height="4" rx="0.5" transform="matrix(0.886581 0.462573 -0.538382 0.842701 372.866 65.0932)" stroke="#A989F5"/>
<rect x="0.1741" y="0.652637" width="4" height="4" rx="0.5" transform="matrix(0.886581 0.462573 -0.538382 0.842701 361.56 82.7899)" stroke="#A989F5"/>
<rect x="0.1741" y="0.652637" width="4" height="4" rx="0.5" transform="matrix(0.886581 0.462573 -0.538382 0.842701 350.254 100.487)" stroke="#A989F5"/>
<rect x="0.1741" y="0.652637" width="4" height="4" rx="0.5" transform="matrix(0.886581 0.462573 -0.538382 0.842701 404.308 -2.35629)" stroke="#A989F5"/>
<rect x="0.1741" y="0.652637" width="4" height="4" rx="0.5" transform="matrix(0.886581 0.462573 -0.538382 0.842701 393.002 15.3404)" stroke="#A989F5"/>
<rect x="0.1741" y="0.652637" width="4" height="4" rx="0.5" transform="matrix(0.886581 0.462573 -0.538382 0.842701 381.696 33.0372)" stroke="#A989F5"/>
<rect x="0.1741" y="0.652637" width="4" height="4" rx="0.5" transform="matrix(0.886581 0.462573 -0.538382 0.842701 370.39 50.7339)" stroke="#A989F5"/>
<rect x="0.1741" y="0.652637" width="4" height="4" rx="0.5" transform="matrix(0.886581 0.462573 -0.538382 0.842701 359.084 68.4306)" stroke="#A989F5"/>
<rect x="0.1741" y="0.652637" width="4" height="4" rx="0.5" transform="matrix(0.886581 0.462573 -0.538382 0.842701 347.778 86.1273)" stroke="#A989F5"/>
<rect x="0.1741" y="0.652637" width="4" height="4" rx="0.5" transform="matrix(0.886581 0.462573 -0.538382 0.842701 336.472 103.824)" stroke="#A989F5"/>
<rect x="0.1741" y="0.652637" width="4" height="4" rx="0.5" transform="matrix(0.886581 0.462573 -0.538382 0.842701 389.309 2.88561)" stroke="#A989F5"/>
<rect x="0.1741" y="0.652637" width="4" height="4" rx="0.5" transform="matrix(0.886581 0.462573 -0.538382 0.842701 378.003 20.5823)" stroke="#A989F5"/>
<rect x="0.1741" y="0.652637" width="4" height="4" rx="0.5" transform="matrix(0.886581 0.462573 -0.538382 0.842701 366.697 38.279)" stroke="#A989F5"/>
<rect x="0.1741" y="0.652637" width="4" height="4" rx="0.5" transform="matrix(0.886581 0.462573 -0.538382 0.842701 355.391 55.9758)" stroke="#A989F5"/>
<rect x="0.1741" y="0.652637" width="4" height="4" rx="0.5" transform="matrix(0.886581 0.462573 -0.538382 0.842701 344.085 73.6725)" stroke="#A989F5"/>
<rect x="0.1741" y="0.652637" width="4" height="4" rx="0.5" transform="matrix(0.886581 0.462573 -0.538382 0.842701 332.779 91.3692)" stroke="#A989F5"/>
<rect x="0.1741" y="0.652637" width="4" height="4" rx="0.5" transform="matrix(0.886581 0.462573 -0.538382 0.842701 321.473 109.066)" stroke="#A989F5"/>
<rect x="0.1741" y="0.652637" width="4" height="4" rx="0.5" transform="matrix(0.886581 0.462573 -0.538382 0.842701 375.527 6.22276)" stroke="#A989F5"/>
<rect x="0.1741" y="0.652637" width="4" height="4" rx="0.5" transform="matrix(0.886581 0.462573 -0.538382 0.842701 364.221 23.9195)" stroke="#A989F5"/>
<rect x="0.1741" y="0.652637" width="4" height="4" rx="0.5" transform="matrix(0.886581 0.462573 -0.538382 0.842701 352.915 41.6162)" stroke="#A989F5"/>
<rect x="0.1741" y="0.652637" width="4" height="4" rx="0.5" transform="matrix(0.886581 0.462573 -0.538382 0.842701 341.609 59.3129)" stroke="#A989F5"/>
<rect x="0.1741" y="0.652637" width="4" height="4" rx="0.5" transform="matrix(0.886581 0.462573 -0.538382 0.842701 330.303 77.0096)" stroke="#A989F5"/>
<rect x="0.1741" y="0.652637" width="4" height="4" rx="0.5" transform="matrix(0.886581 0.462573 -0.538382 0.842701 318.997 94.7064)" stroke="#A989F5"/>
<rect x="0.1741" y="0.652637" width="4" height="4" rx="0.5" transform="matrix(0.886581 0.462573 -0.538382 0.842701 307.691 112.403)" stroke="#A989F5"/>
<rect x="0.1741" y="0.652637" width="4" height="4" rx="0.5" transform="matrix(0.886581 0.462573 -0.538382 0.842701 371.834 -6.23209)" stroke="#A989F5"/>
<rect x="0.1741" y="0.652637" width="4" height="4" rx="0.5" transform="matrix(0.886581 0.462573 -0.538382 0.842701 360.528 11.4646)" stroke="#A989F5"/>
<rect x="0.1741" y="0.652637" width="4" height="4" rx="0.5" transform="matrix(0.886581 0.462573 -0.538382 0.842701 349.222 29.1614)" stroke="#A989F5"/>
<rect x="0.1741" y="0.652637" width="4" height="4" rx="0.5" transform="matrix(0.886581 0.462573 -0.538382 0.842701 337.916 46.8581)" stroke="#A989F5"/>
<rect x="0.1741" y="0.652637" width="4" height="4" rx="0.5" transform="matrix(0.886581 0.462573 -0.538382 0.842701 326.61 64.5548)" stroke="#A989F5"/>
<rect x="0.1741" y="0.652637" width="4" height="4" rx="0.5" transform="matrix(0.886581 0.462573 -0.538382 0.842701 315.304 82.2515)" stroke="#A989F5"/>
<rect x="0.1741" y="0.652637" width="4" height="4" rx="0.5" transform="matrix(0.886581 0.462573 -0.538382 0.842701 303.998 99.9482)" stroke="#A989F5"/>
<rect x="0.1741" y="0.652637" width="4" height="4" rx="0.5" transform="matrix(0.886581 0.462573 -0.538382 0.842701 358.052 -2.89491)" stroke="#A989F5"/>
<rect x="0.1741" y="0.652637" width="4" height="4" rx="0.5" transform="matrix(0.886581 0.462573 -0.538382 0.842701 346.746 14.8018)" stroke="#A989F5"/>
<rect x="0.1741" y="0.652637" width="4" height="4" rx="0.5" transform="matrix(0.886581 0.462573 -0.538382 0.842701 335.44 32.4985)" stroke="#A989F5"/>
<rect x="0.1741" y="0.652637" width="4" height="4" rx="0.5" transform="matrix(0.886581 0.462573 -0.538382 0.842701 324.134 50.1953)" stroke="#A989F5"/>
<rect x="0.1741" y="0.652637" width="4" height="4" rx="0.5" transform="matrix(0.886581 0.462573 -0.538382 0.842701 312.828 67.892)" stroke="#A989F5"/>
<rect x="0.1741" y="0.652637" width="4" height="4" rx="0.5" transform="matrix(0.886581 0.462573 -0.538382 0.842701 301.522 85.5887)" stroke="#A989F5"/>
<rect x="0.1741" y="0.652637" width="4" height="4" rx="0.5" transform="matrix(0.886581 0.462573 -0.538382 0.842701 290.216 103.285)" stroke="#A989F5"/>
<rect x="0.1741" y="0.652637" width="4" height="4" rx="0.5" transform="matrix(0.886581 0.462573 -0.538382 0.842701 343.053 2.34697)" stroke="#A989F5"/>
<rect x="0.1741" y="0.652637" width="4" height="4" rx="0.5" transform="matrix(0.886581 0.462573 -0.538382 0.842701 331.747 20.0437)" stroke="#A989F5"/>
<rect x="0.1741" y="0.652637" width="4" height="4" rx="0.5" transform="matrix(0.886581 0.462573 -0.538382 0.842701 320.441 37.7404)" stroke="#A989F5"/>
<rect x="0.1741" y="0.652637" width="4" height="4" rx="0.5" transform="matrix(0.886581 0.462573 -0.538382 0.842701 309.135 55.4371)" stroke="#A989F5"/>
<rect x="0.1741" y="0.652637" width="4" height="4" rx="0.5" transform="matrix(0.886581 0.462573 -0.538382 0.842701 297.829 73.1339)" stroke="#A989F5"/>
<rect x="0.1741" y="0.652637" width="4" height="4" rx="0.5" transform="matrix(0.886581 0.462573 -0.538382 0.842701 286.523 90.8306)" stroke="#A989F5"/>
<rect x="0.1741" y="0.652637" width="4" height="4" rx="0.5" transform="matrix(0.886581 0.462573 -0.538382 0.842701 275.217 108.527)" stroke="#A989F5"/>
<rect x="0.1741" y="0.652637" width="4" height="4" rx="0.5" transform="matrix(0.886581 0.462573 -0.538382 0.842701 329.271 5.68413)" stroke="#A989F5"/>
<rect x="0.1741" y="0.652637" width="4" height="4" rx="0.5" transform="matrix(0.886581 0.462573 -0.538382 0.842701 317.965 23.3808)" stroke="#A989F5"/>
<rect x="0.1741" y="0.652637" width="4" height="4" rx="0.5" transform="matrix(0.886581 0.462573 -0.538382 0.842701 306.659 41.0776)" stroke="#A989F5"/>
<rect x="0.1741" y="0.652637" width="4" height="4" rx="0.5" transform="matrix(0.886581 0.462573 -0.538382 0.842701 295.353 58.7743)" stroke="#A989F5"/>
<rect x="0.1741" y="0.652637" width="4" height="4" rx="0.5" transform="matrix(0.886581 0.462573 -0.538382 0.842701 284.047 76.471)" stroke="#A989F5"/>
<rect x="0.1741" y="0.652637" width="4" height="4" rx="0.5" transform="matrix(0.886581 0.462573 -0.538382 0.842701 272.741 94.1677)" stroke="#A989F5"/>
<rect x="0.1741" y="0.652637" width="4" height="4" rx="0.5" transform="matrix(0.886581 0.462573 -0.538382 0.842701 261.435 111.864)" stroke="#A989F5"/>
<rect x="0.1741" y="0.652637" width="4" height="4" rx="0.5" transform="matrix(0.886581 0.462573 -0.538382 0.842701 314.272 10.926)" stroke="#A989F5"/>
<rect x="0.1741" y="0.652637" width="4" height="4" rx="0.5" transform="matrix(0.886581 0.462573 -0.538382 0.842701 302.966 28.6227)" stroke="#A989F5"/>
<rect x="0.1741" y="0.652637" width="4" height="4" rx="0.5" transform="matrix(0.886581 0.462573 -0.538382 0.842701 291.66 46.3195)" stroke="#A989F5"/>
<rect x="0.1741" y="0.652637" width="4" height="4" rx="0.5" transform="matrix(0.886581 0.462573 -0.538382 0.842701 280.354 64.0162)" stroke="#A989F5"/>
<rect x="0.1741" y="0.652637" width="4" height="4" rx="0.5" transform="matrix(0.886581 0.462573 -0.538382 0.842701 269.048 81.7129)" stroke="#A989F5"/>
<rect x="0.1741" y="0.652637" width="4" height="4" rx="0.5" transform="matrix(0.886581 0.462573 -0.538382 0.842701 257.741 99.4096)" stroke="#A989F5"/>
<rect x="0.1741" y="0.652637" width="4" height="4" rx="0.5" transform="matrix(0.886581 0.462573 -0.538382 0.842701 311.796 -3.43355)" stroke="#A989F5"/>
<rect x="0.1741" y="0.652637" width="4" height="4" rx="0.5" transform="matrix(0.886581 0.462573 -0.538382 0.842701 300.49 14.2632)" stroke="#A989F5"/>
<rect x="0.1741" y="0.652637" width="4" height="4" rx="0.5" transform="matrix(0.886581 0.462573 -0.538382 0.842701 289.184 31.9599)" stroke="#A989F5"/>
<rect x="0.1741" y="0.652637" width="4" height="4" rx="0.5" transform="matrix(0.886581 0.462573 -0.538382 0.842701 277.878 49.6566)" stroke="#A989F5"/>
<rect x="0.1741" y="0.652637" width="4" height="4" rx="0.5" transform="matrix(0.886581 0.462573 -0.538382 0.842701 266.572 67.3533)" stroke="#A989F5"/>
<rect x="0.1741" y="0.652637" width="4" height="4" rx="0.5" transform="matrix(0.886581 0.462573 -0.538382 0.842701 255.266 85.05)" stroke="#A989F5"/>
<rect x="0.1741" y="0.652637" width="4" height="4" rx="0.5" transform="matrix(0.886581 0.462573 -0.538382 0.842701 243.959 102.747)" stroke="#A989F5"/>
<rect x="0.1741" y="0.652637" width="4" height="4" rx="0.5" transform="matrix(0.886581 0.462573 -0.538382 0.842701 296.797 1.80833)" stroke="#A989F5"/>
<rect x="0.1741" y="0.652637" width="4" height="4" rx="0.5" transform="matrix(0.886581 0.462573 -0.538382 0.842701 285.49 19.5051)" stroke="#A989F5"/>
<rect x="0.1741" y="0.652637" width="4" height="4" rx="0.5" transform="matrix(0.886581 0.462573 -0.538382 0.842701 274.185 37.2018)" stroke="#A989F5"/>
<rect x="0.1741" y="0.652637" width="4" height="4" rx="0.5" transform="matrix(0.886581 0.462573 -0.538382 0.842701 262.878 54.8985)" stroke="#A989F5"/>
<rect x="0.1741" y="0.652637" width="4" height="4" rx="0.5" transform="matrix(0.886581 0.462573 -0.538382 0.842701 251.573 72.5952)" stroke="#A989F5"/>
<rect x="0.1741" y="0.652637" width="4" height="4" rx="0.5" transform="matrix(0.886581 0.462573 -0.538382 0.842701 240.266 90.2919)" stroke="#A989F5"/>
<rect x="0.1741" y="0.652637" width="4" height="4" rx="0.5" transform="matrix(0.886581 0.462573 -0.538382 0.842701 228.96 107.989)" stroke="#A989F5"/>
<rect x="0.1741" y="0.652637" width="4" height="4" rx="0.5" transform="matrix(0.886581 0.462573 -0.538382 0.842701 283.014 5.14549)" stroke="#A989F5"/>
<rect x="0.1741" y="0.652637" width="4" height="4" rx="0.5" transform="matrix(0.886581 0.462573 -0.538382 0.842701 271.708 22.8422)" stroke="#A989F5"/>
<rect x="0.1741" y="0.652637" width="4" height="4" rx="0.5" transform="matrix(0.886581 0.462573 -0.538382 0.842701 260.402 40.5389)" stroke="#A989F5"/>
<rect x="0.1741" y="0.652637" width="4" height="4" rx="0.5" transform="matrix(0.886581 0.462573 -0.538382 0.842701 249.096 58.2357)" stroke="#A989F5"/>
<rect x="0.1741" y="0.652637" width="4" height="4" rx="0.5" transform="matrix(0.886581 0.462573 -0.538382 0.842701 237.79 75.9324)" stroke="#A989F5"/>
<rect x="0.1741" y="0.652637" width="4" height="4" rx="0.5" transform="matrix(0.886581 0.462573 -0.538382 0.842701 226.484 93.6291)" stroke="#A989F5"/>
<rect x="0.1741" y="0.652637" width="4" height="4" rx="0.5" transform="matrix(0.886581 0.462573 -0.538382 0.842701 215.178 111.326)" stroke="#A989F5"/>
<rect x="0.1741" y="0.652637" width="4" height="4" rx="0.5" transform="matrix(0.886581 0.462573 -0.538382 0.842701 268.015 10.3874)" stroke="#A989F5"/>
<rect x="0.1741" y="0.652637" width="4" height="4" rx="0.5" transform="matrix(0.886581 0.462573 -0.538382 0.842701 256.709 28.0841)" stroke="#A989F5"/>
<rect x="0.1741" y="0.652637" width="4" height="4" rx="0.5" transform="matrix(0.886581 0.462573 -0.538382 0.842701 245.403 45.7808)" stroke="#A989F5"/>
<rect x="0.1741" y="0.652637" width="4" height="4" rx="0.5" transform="matrix(0.886581 0.462573 -0.538382 0.842701 234.097 63.4775)" stroke="#A989F5"/>
<rect x="0.1741" y="0.652637" width="4" height="4" rx="0.5" transform="matrix(0.886581 0.462573 -0.538382 0.842701 222.791 81.1742)" stroke="#A989F5"/>
<rect x="0.1741" y="0.652637" width="4" height="4" rx="0.5" transform="matrix(0.886581 0.462573 -0.538382 0.842701 211.485 98.871)" stroke="#A989F5"/>
<rect x="0.1741" y="0.652637" width="4" height="4" rx="0.5" transform="matrix(0.886581 0.462573 -0.538382 0.842701 265.539 -3.97221)" stroke="#A989F5"/>
<rect x="0.1741" y="0.652637" width="4" height="4" rx="0.5" transform="matrix(0.886581 0.462573 -0.538382 0.842701 254.233 13.7245)" stroke="#A989F5"/>
<rect x="0.1741" y="0.652637" width="4" height="4" rx="0.5" transform="matrix(0.886581 0.462573 -0.538382 0.842701 242.927 31.4212)" stroke="#A989F5"/>
<rect x="0.1741" y="0.652637" width="4" height="4" rx="0.5" transform="matrix(0.886581 0.462573 -0.538382 0.842701 231.621 49.118)" stroke="#A989F5"/>
<rect x="0.1741" y="0.652637" width="4" height="4" rx="0.5" transform="matrix(0.886581 0.462573 -0.538382 0.842701 220.315 66.8147)" stroke="#A989F5"/>
<rect x="0.1741" y="0.652637" width="4" height="4" rx="0.5" transform="matrix(0.886581 0.462573 -0.538382 0.842701 209.009 84.5114)" stroke="#A989F5"/>
<rect x="0.1741" y="0.652637" width="4" height="4" rx="0.5" transform="matrix(0.886581 0.462573 -0.538382 0.842701 197.703 102.208)" stroke="#A989F5"/>
<rect x="0.1741" y="0.652637" width="4" height="4" rx="0.5" transform="matrix(0.886581 0.462573 -0.538382 0.842701 250.54 1.26968)" stroke="#A989F5"/>
<rect x="0.1741" y="0.652637" width="4" height="4" rx="0.5" transform="matrix(0.886581 0.462573 -0.538382 0.842701 239.234 18.9664)" stroke="#A989F5"/>
<rect x="0.1741" y="0.652637" width="4" height="4" rx="0.5" transform="matrix(0.886581 0.462573 -0.538382 0.842701 227.928 36.6631)" stroke="#A989F5"/>
<rect x="0.1741" y="0.652637" width="4" height="4" rx="0.5" transform="matrix(0.886581 0.462573 -0.538382 0.842701 216.622 54.3598)" stroke="#A989F5"/>
<rect x="0.1741" y="0.652637" width="4" height="4" rx="0.5" transform="matrix(0.886581 0.462573 -0.538382 0.842701 205.316 72.0565)" stroke="#A989F5"/>
<rect x="0.1741" y="0.652637" width="4" height="4" rx="0.5" transform="matrix(0.886581 0.462573 -0.538382 0.842701 194.01 89.7533)" stroke="#A989F5"/>
<rect x="0.1741" y="0.652637" width="4" height="4" rx="0.5" transform="matrix(0.886581 0.462573 -0.538382 0.842701 182.704 107.45)" stroke="#A989F5"/>
<rect x="0.1741" y="0.652637" width="4" height="4" rx="0.5" transform="matrix(0.886581 0.462573 -0.538382 0.842701 236.758 4.60684)" stroke="#A989F5"/>
<rect x="0.1741" y="0.652637" width="4" height="4" rx="0.5" transform="matrix(0.886581 0.462573 -0.538382 0.842701 225.452 22.3036)" stroke="#A989F5"/>
<rect x="0.1741" y="0.652637" width="4" height="4" rx="0.5" transform="matrix(0.886581 0.462573 -0.538382 0.842701 214.146 40.0003)" stroke="#A989F5"/>
<rect x="0.1741" y="0.652637" width="4" height="4" rx="0.5" transform="matrix(0.886581 0.462573 -0.538382 0.842701 202.84 57.697)" stroke="#A989F5"/>
<rect x="0.1741" y="0.652637" width="4" height="4" rx="0.5" transform="matrix(0.886581 0.462573 -0.538382 0.842701 191.534 75.3937)" stroke="#A989F5"/>
<rect x="0.1741" y="0.652637" width="4" height="4" rx="0.5" transform="matrix(0.886581 0.462573 -0.538382 0.842701 180.228 93.0904)" stroke="#A989F5"/>
<rect x="0.1741" y="0.652637" width="4" height="4" rx="0.5" transform="matrix(0.886581 0.462573 -0.538382 0.842701 168.922 110.787)" stroke="#A989F5"/>
<rect x="0.1741" y="0.652637" width="4" height="4" rx="0.5" transform="matrix(0.886581 0.462573 -0.538382 0.842701 221.759 9.84872)" stroke="#A989F5"/>
<rect x="0.1741" y="0.652637" width="4" height="4" rx="0.5" transform="matrix(0.886581 0.462573 -0.538382 0.842701 210.453 27.5454)" stroke="#A989F5"/>
<rect x="0.1741" y="0.652637" width="4" height="4" rx="0.5" transform="matrix(0.886581 0.462573 -0.538382 0.842701 199.147 45.2422)" stroke="#A989F5"/>
<rect x="0.1741" y="0.652637" width="4" height="4" rx="0.5" transform="matrix(0.886581 0.462573 -0.538382 0.842701 187.841 62.9389)" stroke="#A989F5"/>
<rect x="0.1741" y="0.652637" width="4" height="4" rx="0.5" transform="matrix(0.886581 0.462573 -0.538382 0.842701 176.535 80.6356)" stroke="#A989F5"/>
<rect x="0.1741" y="0.652637" width="4" height="4" rx="0.5" transform="matrix(0.886581 0.462573 -0.538382 0.842701 165.229 98.3323)" stroke="#A989F5"/>
<rect x="0.1741" y="0.652637" width="4" height="4" rx="0.5" transform="matrix(0.886581 0.462573 -0.538382 0.842701 219.283 -4.51059)" stroke="#A989F5"/>
<rect x="0.1741" y="0.652637" width="4" height="4" rx="0.5" transform="matrix(0.886581 0.462573 -0.538382 0.842701 207.977 13.1861)" stroke="#A989F5"/>
<rect x="0.1741" y="0.652637" width="4" height="4" rx="0.5" transform="matrix(0.886581 0.462573 -0.538382 0.842701 196.671 30.8828)" stroke="#A989F5"/>
<rect x="0.1741" y="0.652637" width="4" height="4" rx="0.5" transform="matrix(0.886581 0.462573 -0.538382 0.842701 185.365 48.5796)" stroke="#A989F5"/>
<rect x="0.1741" y="0.652637" width="4" height="4" rx="0.5" transform="matrix(0.886581 0.462573 -0.538382 0.842701 174.059 66.2763)" stroke="#A989F5"/>
<rect x="0.1741" y="0.652637" width="4" height="4" rx="0.5" transform="matrix(0.886581 0.462573 -0.538382 0.842701 162.753 83.973)" stroke="#A989F5"/>
<rect x="0.1741" y="0.652637" width="4" height="4" rx="0.5" transform="matrix(0.886581 0.462573 -0.538382 0.842701 151.447 101.67)" stroke="#A989F5"/>
<rect x="0.1741" y="0.652637" width="4" height="4" rx="0.5" transform="matrix(0.886581 0.462573 -0.538382 0.842701 204.284 0.731293)" stroke="#A989F5"/>
<rect x="0.1741" y="0.652637" width="4" height="4" rx="0.5" transform="matrix(0.886581 0.462573 -0.538382 0.842701 192.978 18.428)" stroke="#A989F5"/>
<rect x="0.1741" y="0.652637" width="4" height="4" rx="0.5" transform="matrix(0.886581 0.462573 -0.538382 0.842701 181.672 36.1247)" stroke="#A989F5"/>
<rect x="0.1741" y="0.652637" width="4" height="4" rx="0.5" transform="matrix(0.886581 0.462573 -0.538382 0.842701 170.366 53.8214)" stroke="#A989F5"/>
<rect x="0.1741" y="0.652637" width="4" height="4" rx="0.5" transform="matrix(0.886581 0.462573 -0.538382 0.842701 159.06 71.5182)" stroke="#A989F5"/>
<rect x="0.1741" y="0.652637" width="4" height="4" rx="0.5" transform="matrix(0.886581 0.462573 -0.538382 0.842701 147.754 89.2149)" stroke="#A989F5"/>
<rect x="0.1741" y="0.652637" width="4" height="4" rx="0.5" transform="matrix(0.886581 0.462573 -0.538382 0.842701 136.448 106.912)" stroke="#A989F5"/>
<rect x="0.1741" y="0.652637" width="4" height="4" rx="0.5" transform="matrix(0.886581 0.462573 -0.538382 0.842701 190.502 4.06845)" stroke="#A989F5"/>
<rect x="0.1741" y="0.652637" width="4" height="4" rx="0.5" transform="matrix(0.886581 0.462573 -0.538382 0.842701 179.196 21.7652)" stroke="#A989F5"/>
<rect x="0.1741" y="0.652637" width="4" height="4" rx="0.5" transform="matrix(0.886581 0.462573 -0.538382 0.842701 167.89 39.4619)" stroke="#A989F5"/>
<rect x="0.1741" y="0.652637" width="4" height="4" rx="0.5" transform="matrix(0.886581 0.462573 -0.538382 0.842701 156.584 57.1586)" stroke="#A989F5"/>
<rect x="0.1741" y="0.652637" width="4" height="4" rx="0.5" transform="matrix(0.886581 0.462573 -0.538382 0.842701 145.278 74.8553)" stroke="#A989F5"/>
<rect x="0.1741" y="0.652637" width="4" height="4" rx="0.5" transform="matrix(0.886581 0.462573 -0.538382 0.842701 133.971 92.552)" stroke="#A989F5"/>
<rect x="0.1741" y="0.652637" width="4" height="4" rx="0.5" transform="matrix(0.886581 0.462573 -0.538382 0.842701 122.666 110.249)" stroke="#A989F5"/>
<rect x="0.1741" y="0.652637" width="4" height="4" rx="0.5" transform="matrix(0.886581 0.462573 -0.538382 0.842701 175.503 9.31033)" stroke="#A989F5"/>
<rect x="0.1741" y="0.652637" width="4" height="4" rx="0.5" transform="matrix(0.886581 0.462573 -0.538382 0.842701 164.197 27.007)" stroke="#A989F5"/>
<rect x="0.1741" y="0.652637" width="4" height="4" rx="0.5" transform="matrix(0.886581 0.462573 -0.538382 0.842701 152.891 44.7038)" stroke="#A989F5"/>
<rect x="0.1741" y="0.652637" width="4" height="4" rx="0.5" transform="matrix(0.886581 0.462573 -0.538382 0.842701 141.585 62.4005)" stroke="#A989F5"/>
<rect x="0.1741" y="0.652637" width="4" height="4" rx="0.5" transform="matrix(0.886581 0.462573 -0.538382 0.842701 130.279 80.0972)" stroke="#A989F5"/>
<rect x="0.1741" y="0.652637" width="4" height="4" rx="0.5" transform="matrix(0.886581 0.462573 -0.538382 0.842701 118.973 97.7939)" stroke="#A989F5"/>
<rect x="0.1741" y="0.652637" width="4" height="4" rx="0.5" transform="matrix(0.886581 0.462573 -0.538382 0.842701 107.667 115.491)" stroke="#A989F5"/>
<rect x="0.1741" y="0.652637" width="4" height="4" rx="0.5" transform="matrix(0.886581 0.462573 -0.538382 0.842701 173.027 -5.04922)" stroke="#A989F5"/>
<rect x="0.1741" y="0.652637" width="4" height="4" rx="0.5" transform="matrix(0.886581 0.462573 -0.538382 0.842701 161.72 12.6475)" stroke="#A989F5"/>
<rect x="0.1741" y="0.652637" width="4" height="4" rx="0.5" transform="matrix(0.886581 0.462573 -0.538382 0.842701 150.415 30.3442)" stroke="#A989F5"/>
<rect x="0.1741" y="0.652637" width="4" height="4" rx="0.5" transform="matrix(0.886581 0.462573 -0.538382 0.842701 139.108 48.0409)" stroke="#A989F5"/>
<rect x="0.1741" y="0.652637" width="4" height="4" rx="0.5" transform="matrix(0.886581 0.462573 -0.538382 0.842701 127.803 65.7377)" stroke="#A989F5"/>
<rect x="0.1741" y="0.652637" width="4" height="4" rx="0.5" transform="matrix(0.886581 0.462573 -0.538382 0.842701 116.496 83.4344)" stroke="#A989F5"/>
<rect x="0.1741" y="0.652637" width="4" height="4" rx="0.5" transform="matrix(0.886581 0.462573 -0.538382 0.842701 105.19 101.131)" stroke="#A989F5"/>
<rect x="0.1741" y="0.652637" width="4" height="4" rx="0.5" transform="matrix(0.886581 0.462573 -0.538382 0.842701 158.027 0.192658)" stroke="#A989F5"/>
<rect x="0.1741" y="0.652637" width="4" height="4" rx="0.5" transform="matrix(0.886581 0.462573 -0.538382 0.842701 146.721 17.8894)" stroke="#A989F5"/>
<rect x="0.1741" y="0.652637" width="4" height="4" rx="0.5" transform="matrix(0.886581 0.462573 -0.538382 0.842701 135.415 35.5861)" stroke="#A989F5"/>
<rect x="0.1741" y="0.652637" width="4" height="4" rx="0.5" transform="matrix(0.886581 0.462573 -0.538382 0.842701 124.109 53.2828)" stroke="#A989F5"/>
<rect x="0.1741" y="0.652637" width="4" height="4" rx="0.5" transform="matrix(0.886581 0.462573 -0.538382 0.842701 112.803 70.9795)" stroke="#A989F5"/>
<rect x="0.1741" y="0.652637" width="4" height="4" rx="0.5" transform="matrix(0.886581 0.462573 -0.538382 0.842701 101.497 88.6763)" stroke="#A989F5"/>
<rect x="0.1741" y="0.652637" width="4" height="4" rx="0.5" transform="matrix(0.886581 0.462573 -0.538382 0.842701 90.1914 106.373)" stroke="#A989F5"/>
<rect x="0.1741" y="0.652637" width="4" height="4" rx="0.5" transform="matrix(0.886581 0.462573 -0.538382 0.842701 144.245 3.52982)" stroke="#A989F5"/>
<rect x="0.1741" y="0.652637" width="4" height="4" rx="0.5" transform="matrix(0.886581 0.462573 -0.538382 0.842701 132.939 21.2265)" stroke="#A989F5"/>
<rect x="0.1741" y="0.652637" width="4" height="4" rx="0.5" transform="matrix(0.886581 0.462573 -0.538382 0.842701 121.633 38.9232)" stroke="#A989F5"/>
<rect x="0.1741" y="0.652637" width="4" height="4" rx="0.5" transform="matrix(0.886581 0.462573 -0.538382 0.842701 110.327 56.62)" stroke="#A989F5"/>
<rect x="0.1741" y="0.652637" width="4" height="4" rx="0.5" transform="matrix(0.886581 0.462573 -0.538382 0.842701 99.021 74.3167)" stroke="#A989F5"/>
<rect x="0.1741" y="0.652637" width="4" height="4" rx="0.5" transform="matrix(0.886581 0.462573 -0.538382 0.842701 87.7151 92.0134)" stroke="#A989F5"/>
<rect x="0.1741" y="0.652637" width="4" height="4" rx="0.5" transform="matrix(0.886581 0.462573 -0.538382 0.842701 76.4092 109.71)" stroke="#A989F5"/>
<rect x="0.1741" y="0.652637" width="4" height="4" rx="0.5" transform="matrix(0.886581 0.462573 -0.538382 0.842701 129.246 8.7717)" stroke="#A989F5"/>
<rect x="0.1741" y="0.652637" width="4" height="4" rx="0.5" transform="matrix(0.886581 0.462573 -0.538382 0.842701 117.94 26.4684)" stroke="#A989F5"/>
<rect x="0.1741" y="0.652637" width="4" height="4" rx="0.5" transform="matrix(0.886581 0.462573 -0.538382 0.842701 106.634 44.1651)" stroke="#A989F5"/>
<rect x="0.1741" y="0.652637" width="4" height="4" rx="0.5" transform="matrix(0.886581 0.462573 -0.538382 0.842701 95.3281 61.8619)" stroke="#A989F5"/>
<rect x="0.1741" y="0.652637" width="4" height="4" rx="0.5" transform="matrix(0.886581 0.462573 -0.538382 0.842701 84.0222 79.5586)" stroke="#A989F5"/>
<rect x="0.1741" y="0.652637" width="4" height="4" rx="0.5" transform="matrix(0.886581 0.462573 -0.538382 0.842701 72.7163 97.2553)" stroke="#A989F5"/>
<rect x="0.1741" y="0.652637" width="4" height="4" rx="0.5" transform="matrix(0.886581 0.462573 -0.538382 0.842701 126.77 -5.58786)" stroke="#A989F5"/>
<rect x="0.1741" y="0.652637" width="4" height="4" rx="0.5" transform="matrix(0.886581 0.462573 -0.538382 0.842701 115.464 12.1089)" stroke="#A989F5"/>
<rect x="0.1741" y="0.652637" width="4" height="4" rx="0.5" transform="matrix(0.886581 0.462573 -0.538382 0.842701 104.158 29.8056)" stroke="#A989F5"/>
<rect x="0.1741" y="0.652637" width="4" height="4" rx="0.5" transform="matrix(0.886581 0.462573 -0.538382 0.842701 92.8523 47.5023)" stroke="#A989F5"/>
<rect x="0.1741" y="0.652637" width="4" height="4" rx="0.5" transform="matrix(0.886581 0.462573 -0.538382 0.842701 81.5462 65.199)" stroke="#A989F5"/>
<rect x="0.1741" y="0.652637" width="4" height="4" rx="0.5" transform="matrix(0.886581 0.462573 -0.538382 0.842701 70.2403 82.8957)" stroke="#A989F5"/>
<rect x="0.1741" y="0.652637" width="4" height="4" rx="0.5" transform="matrix(0.886581 0.462573 -0.538382 0.842701 58.9343 100.592)" stroke="#A989F5"/>
<rect x="0.1741" y="0.652637" width="4" height="4" rx="0.5" transform="matrix(0.886581 0.462573 -0.538382 0.842701 111.771 -0.345978)" stroke="#A989F5"/>
<rect x="0.1741" y="0.652637" width="4" height="4" rx="0.5" transform="matrix(0.886581 0.462573 -0.538382 0.842701 100.465 17.3507)" stroke="#A989F5"/>
<rect x="0.1741" y="0.652637" width="4" height="4" rx="0.5" transform="matrix(0.886581 0.462573 -0.538382 0.842701 89.1592 35.0475)" stroke="#A989F5"/>
<rect x="0.1741" y="0.652637" width="4" height="4" rx="0.5" transform="matrix(0.886581 0.462573 -0.538382 0.842701 77.853 52.7442)" stroke="#A989F5"/>
<rect x="0.1741" y="0.652637" width="4" height="4" rx="0.5" transform="matrix(0.886581 0.462573 -0.538382 0.842701 66.5471 70.4409)" stroke="#A989F5"/>
<rect x="0.1741" y="0.652637" width="4" height="4" rx="0.5" transform="matrix(0.886581 0.462573 -0.538382 0.842701 55.2412 88.1376)" stroke="#A989F5"/>
<rect x="0.1741" y="0.652637" width="4" height="4" rx="0.5" transform="matrix(0.886581 0.462573 -0.538382 0.842701 97.989 2.99118)" stroke="#A989F5"/>
<rect x="0.1741" y="0.652637" width="4" height="4" rx="0.5" transform="matrix(0.886581 0.462573 -0.538382 0.842701 86.6829 20.6879)" stroke="#A989F5"/>
<rect x="0.1741" y="0.652637" width="4" height="4" rx="0.5" transform="matrix(0.886581 0.462573 -0.538382 0.842701 75.377 38.3846)" stroke="#A989F5"/>
<rect x="0.1741" y="0.652637" width="4" height="4" rx="0.5" transform="matrix(0.886581 0.462573 -0.538382 0.842701 64.0708 56.0813)" stroke="#A989F5"/>
<rect x="0.1741" y="0.652637" width="4" height="4" rx="0.5" transform="matrix(0.886581 0.462573 -0.538382 0.842701 52.7649 73.7781)" stroke="#A989F5"/>
<rect x="0.1741" y="0.652637" width="4" height="4" rx="0.5" transform="matrix(0.886581 0.462573 -0.538382 0.842701 41.459 91.4748)" stroke="#A989F5"/>
<rect x="0.1741" y="0.652637" width="4" height="4" rx="0.5" transform="matrix(0.886581 0.462573 -0.538382 0.842701 82.9898 8.23306)" stroke="#A989F5"/>
<rect x="0.1741" y="0.652637" width="4" height="4" rx="0.5" transform="matrix(0.886581 0.462573 -0.538382 0.842701 71.6839 25.9298)" stroke="#A989F5"/>
<rect x="0.1741" y="0.652637" width="4" height="4" rx="0.5" transform="matrix(0.886581 0.462573 -0.538382 0.842701 60.3777 43.6265)" stroke="#A989F5"/>
<rect x="0.1741" y="0.652637" width="4" height="4" rx="0.5" transform="matrix(0.886581 0.462573 -0.538382 0.842701 49.0718 61.3232)" stroke="#A989F5"/>
<rect x="0.1741" y="0.652637" width="4" height="4" rx="0.5" transform="matrix(0.886581 0.462573 -0.538382 0.842701 37.7659 79.02)" stroke="#A989F5"/>
<rect x="0.1741" y="0.652637" width="4" height="4" rx="0.5" transform="matrix(0.886581 0.462573 -0.538382 0.842701 80.5137 -6.1265)" stroke="#A989F5"/>
<rect x="0.1741" y="0.652637" width="4" height="4" rx="0.5" transform="matrix(0.886581 0.462573 -0.538382 0.842701 69.2075 11.5702)" stroke="#A989F5"/>
<rect x="0.1741" y="0.652637" width="4" height="4" rx="0.5" transform="matrix(0.886581 0.462573 -0.538382 0.842701 57.9016 29.267)" stroke="#A989F5"/>
<rect x="0.1741" y="0.652637" width="4" height="4" rx="0.5" transform="matrix(0.886581 0.462573 -0.538382 0.842701 46.5955 46.9637)" stroke="#A989F5"/>
<rect x="0.1741" y="0.652637" width="4" height="4" rx="0.5" transform="matrix(0.886581 0.462573 -0.538382 0.842701 35.2896 64.6604)" stroke="#A989F5"/>
<rect x="0.1741" y="0.652637" width="4" height="4" rx="0.5" transform="matrix(0.886581 0.462573 -0.538382 0.842701 23.9837 82.3571)" stroke="#A989F5"/>
<rect x="0.1741" y="0.652637" width="4" height="4" rx="0.5" transform="matrix(0.886581 0.462573 -0.538382 0.842701 65.5149 -0.884613)" stroke="#A989F5"/>
<rect x="0.1741" y="0.652637" width="4" height="4" rx="0.5" transform="matrix(0.886581 0.462573 -0.538382 0.842701 54.209 16.8121)" stroke="#A989F5"/>
<rect x="0.1741" y="0.652637" width="4" height="4" rx="0.5" transform="matrix(0.886581 0.462573 -0.538382 0.842701 42.9029 34.5088)" stroke="#A989F5"/>
<rect x="0.1741" y="0.652637" width="4" height="4" rx="0.5" transform="matrix(0.886581 0.462573 -0.538382 0.842701 31.5969 52.2056)" stroke="#A989F5"/>
<rect x="0.1741" y="0.652637" width="4" height="4" rx="0.5" transform="matrix(0.886581 0.462573 -0.538382 0.842701 20.291 69.9023)" stroke="#A989F5"/>
<rect x="0.1741" y="0.652637" width="4" height="4" rx="0.5" transform="matrix(0.886581 0.462573 -0.538382 0.842701 51.7327 2.45255)" stroke="#A989F5"/>
<rect x="0.1741" y="0.652637" width="4" height="4" rx="0.5" transform="matrix(0.886581 0.462573 -0.538382 0.842701 40.4268 20.1493)" stroke="#A989F5"/>
<rect x="0.1741" y="0.652637" width="4" height="4" rx="0.5" transform="matrix(0.886581 0.462573 -0.538382 0.842701 29.1206 37.846)" stroke="#A989F5"/>
<rect x="0.1741" y="0.652637" width="4" height="4" rx="0.5" transform="matrix(0.886581 0.462573 -0.538382 0.842701 17.8147 55.5427)" stroke="#A989F5"/>
<rect x="0.1741" y="0.652637" width="4" height="4" rx="0.5" transform="matrix(0.886581 0.462573 -0.538382 0.842701 6.50881 73.2394)" stroke="#A989F5"/>
<rect x="0.1741" y="0.652637" width="4" height="4" rx="0.5" transform="matrix(0.886581 0.462573 -0.538382 0.842701 36.7339 7.69444)" stroke="#A989F5"/>
<rect x="0.1741" y="0.652637" width="4" height="4" rx="0.5" transform="matrix(0.886581 0.462573 -0.538382 0.842701 25.4278 25.3912)" stroke="#A989F5"/>
<rect x="0.1741" y="0.652637" width="4" height="4" rx="0.5" transform="matrix(0.886581 0.462573 -0.538382 0.842701 14.1218 43.0879)" stroke="#A989F5"/>
<rect x="0.1741" y="0.652637" width="4" height="4" rx="0.5" transform="matrix(0.886581 0.462573 -0.538382 0.842701 2.81594 60.7846)" stroke="#A989F5"/>
<rect x="0.1741" y="0.652637" width="4" height="4" rx="0.5" transform="matrix(0.886581 0.462573 -0.538382 0.842701 22.9517 11.0318)" stroke="#A989F5"/>
<rect x="0.1741" y="0.652637" width="4" height="4" rx="0.5" transform="matrix(0.886581 0.462573 -0.538382 0.842701 11.6455 28.7286)" stroke="#A989F5"/>
<rect x="0.1741" y="0.652637" width="4" height="4" rx="0.5" transform="matrix(0.886581 0.462573 -0.538382 0.842701 0.33962 46.4253)" stroke="#A989F5"/>
<rect x="0.1741" y="0.652637" width="4" height="4" rx="0.5" transform="matrix(0.886581 0.462573 -0.538382 0.842701 19.2586 -1.42323)" stroke="#A989F5"/>
<rect x="0.1741" y="0.652637" width="4" height="4" rx="0.5" transform="matrix(0.886581 0.462573 -0.538382 0.842701 7.95241 16.2735)" stroke="#A989F5"/>
<rect x="0.1741" y="0.652637" width="4" height="4" rx="0.5" transform="matrix(0.886581 0.462573 -0.538382 0.842701 -3.3535 33.9702)" stroke="#A989F5"/>
<rect x="0.1741" y="0.652637" width="4" height="4" rx="0.5" transform="matrix(0.886581 0.462573 -0.538382 0.842701 5.47658 1.91417)" stroke="#A989F5"/>
</g>
</mask>
<g mask="url(#mask1_672_31240)">
<rect width="452" height="124" fill="url(#paint1_linear_672_31240)"/>
</g>
</g>
</g>
<rect x="1.5" y="1.5" width="449" height="113" rx="10.5" stroke="url(#paint2_linear_672_31240)" stroke-width="3"/>
<defs>
<linearGradient id="paint0_linear_672_31240" x1="0" y1="0" x2="437.27" y2="157.019" gradientUnits="userSpaceOnUse">
<stop offset="0.399038" stop-opacity="0"/>
<stop offset="1"/>
</linearGradient>
<linearGradient id="paint1_linear_672_31240" x1="0" y1="0" x2="458.842" y2="88.5461" gradientUnits="userSpaceOnUse">
<stop stop-color="#E24329"/>
<stop offset="1" stop-color="#A989F5"/>
</linearGradient>
<linearGradient id="paint2_linear_672_31240" x1="0" y1="0" x2="456.503" y2="94.1703" gradientUnits="userSpaceOnUse">
<stop stop-color="#E24329"/>
<stop offset="1" stop-color="#A989F5"/>
</linearGradient>
<clipPath id="clip0_672_31240">
<rect width="452" height="116" rx="12" fill="white"/>
</clipPath>
</defs>
</svg>
