<svg width="23" height="29" viewBox="0 0 23 29" xmlns="http://www.w3.org/2000/svg" xmlns:xlink="http://www.w3.org/1999/xlink"><title>cursor</title><desc>Created using Figma</desc><g transform="translate(867 -30)"><use xlink:href="#a" transform="translate(-867 30)" fill="#1F78D1"/><use xlink:href="#a" transform="translate(-867 30)" fill="#FFF"/><mask id="b"><use xlink:href="#a" fill="#fff" transform="translate(-867 30)"/></mask><g mask="url(#b)"><use xlink:href="#c" transform="translate(-867 30)" fill="#1F78D1"/></g><mask id="e"><use xlink:href="#d" transform="translate(-862.5 35)" fill="#C4C4C4"/></mask><g mask="url(#e)"><use xlink:href="#f" transform="translate(-861 36.429)" fill="#1F78D1"/></g></g><defs><path id="a" d="M23 11.5c0 6.351-5.5 11-11.5 17-6-6-11.5-10.649-11.5-17C0 5.149 5.149 0 11.5 0S23 5.149 23 11.5z"/><path id="c" d="M11.5 28.5l-.707.707.707.707.707-.707-.707-.707zm10.5-17c0 2.86-1.23 5.396-3.287 8.014-2.073 2.646-4.906 5.265-7.92 8.279l1.414 1.414c2.986-2.986 5.903-5.691 8.08-8.458C22.48 17.955 24 14.99 24 11.5h-2zm-9.793 16.293c-3.014-3.014-5.847-5.633-7.92-8.279C2.23 16.896 1 14.361 1 11.5h-2c0 3.49 1.52 6.455 3.714 9.25 2.176 2.766 5.093 5.47 8.079 8.457l1.414-1.414zM1 11.5C1 5.701 5.701 1 11.5 1v-2C4.596-1-1 4.596-1 11.5h2zM11.5 1C17.299 1 22 5.701 22 11.5h2C24 4.596 18.404-1 11.5-1v2z"/><path id="d" d="M0 0h15v13.5H0V0z"/><path id="f" d="M8.551 1.326A6.874 6.874 0 0 0 6 .857c-.91 0-1.763.156-2.558.469-.79.308-1.42.725-1.888 1.252-.465.527-.697 1.096-.697 1.708 0 .5.159.977.476 1.433.321.45.772.841 1.352 1.172l.583.334-.18.643c-.108.407-.264.79-.47 1.152A6.604 6.604 0 0 0 4.46 7.875l.288-.254.381.04c.309.035.599.053.871.053.91 0 1.761-.154 2.551-.462.795-.312 1.424-.732 1.889-1.259.469-.526.703-1.096.703-1.707 0-.612-.235-1.181-.703-1.708-.465-.527-1.094-.944-1.889-1.252zm2.645.81c.536.656.804 1.373.804 2.15 0 .777-.268 1.495-.804 2.156-.535.656-1.263 1.176-2.183 1.56-.92.38-1.924.57-3.013.57a9.16 9.16 0 0 1-.971-.054 7.32 7.32 0 0 1-3.08 1.62 5.044 5.044 0 0 1-.764.148h-.033a.26.26 0 0 1-.181-.074.324.324 0 0 1-.107-.18v-.007c-.014-.018-.016-.045-.007-.08.014-.037.018-.059.014-.068 0-.009.01-.031.033-.067a.645.645 0 0 0 .04-.06 1.73 1.73 0 0 0 .047-.054l.054-.06a53.034 53.034 0 0 1 .435-.489c.049-.049.118-.136.208-.26.093-.126.167-.24.22-.342.054-.103.114-.235.181-.395.067-.161.125-.33.174-.51-.7-.397-1.254-.888-1.66-1.473A3.261 3.261 0 0 1 0 4.286c0-.777.268-1.494.804-2.15.535-.66 1.263-1.18 2.183-1.56C3.907.192 4.91 0 6 0c1.09 0 2.094.192 3.013.576.92.38 1.648.9 2.183 1.56z"/></defs></svg>
