<?xml version="1.0" encoding="utf-8"?><svg xmlns="http://www.w3.org/2000/svg" xmlns:xlink="http://www.w3.org/1999/xlink"><symbol viewBox="0 0 16 16" id="abuse" xmlns="http://www.w3.org/2000/svg"><path d="M11.408.328l4.029 3.222A1.5 1.5 0 0 1 16 4.72v6.555a1.5 1.5 0 0 1-.563 1.171l-4.026 3.224a1.5 1.5 0 0 1-.937.329H5.529a1.5 1.5 0 0 1-.937-.328L.563 12.45A1.5 1.5 0 0 1 0 11.28V4.724a1.5 1.5 0 0 1 .563-1.171L4.589.329A1.5 1.5 0 0 1 5.526 0h4.945c.34 0 .67.116.937.328zM10.296 2H5.702L2 4.964v6.074L5.704 14h4.594L14 11.036V4.962L10.296 2zM8 4a1 1 0 0 1 1 1v3a1 1 0 1 1-2 0V5a1 1 0 0 1 1-1zm0 8a1 1 0 1 1 0-2 1 1 0 0 1 0 2z"/></symbol><symbol viewBox="0 0 16 16" id="account" xmlns="http://www.w3.org/2000/svg"><path fill-rule="evenodd" d="M9.195 9.965l-.568-.875a.25.25 0 0 1 .015-.294l.405-.5a.25.25 0 0 1 .283-.075l.938.36c.257-.183.543-.325.851-.42l.322-.988A.25.25 0 0 1 11.679 7h.642a.25.25 0 0 1 .238.173l.322.988c.308.095.594.237.851.42l.938-.36a.25.25 0 0 1 .283.076l.405.5a.25.25 0 0 1 .015.293l-.568.875c.113.297.18.616.193.95l.898.54a.25.25 0 0 1 .115.27l-.144.626a.25.25 0 0 1-.222.193l-1.115.098a3.015 3.015 0 0 1-.512.608l.165 1.18a.25.25 0 0 1-.138.259l-.577.281a.25.25 0 0 1-.29-.05l-.874-.905a3.035 3.035 0 0 1-.608 0l-.875.904a.25.25 0 0 1-.289.051l-.577-.281a.25.25 0 0 1-.138-.26l.165-1.18a3.015 3.015 0 0 1-.512-.607l-1.115-.098a.25.25 0 0 1-.222-.193l-.144-.626a.25.25 0 0 1 .115-.27l.898-.54c.013-.334.08-.653.193-.95zM6.789 8.023A12.845 12.845 0 0 0 6 8c-5.036 0-6 2.74-6 4.48C0 14.22.076 15 6 15c.553 0 1.055-.006 1.51-.02A5.977 5.977 0 0 1 6 11c0-1.083.287-2.1.79-2.977zM5.976 7a3 3 0 1 1 0-6 3 3 0 0 1 0 6zM12 12a1 1 0 1 0 0-2 1 1 0 0 0 0 2z"/></symbol><symbol viewBox="0 0 16 16" id="admin" xmlns="http://www.w3.org/2000/svg"><path fill-rule="evenodd" d="M13.162 2.5a3.5 3.5 0 0 1-3.163 5.479L6.08 14.766a1.5 1.5 0 0 1-2.598-1.5L7.4 6.479A3.5 3.5 0 0 1 10.564 1L8.9 3.88l2.599 1.5 1.663-2.88zm-8.63 11.949a.5.5 0 1 0 .5-.866.5.5 0 0 0-.5.866z"/></symbol><symbol viewBox="0 0 16 16" id="angle-double-left" xmlns="http://www.w3.org/2000/svg"><path fill-rule="evenodd" d="M10.414 7.95l4.243-4.243a1 1 0 0 0-1.414-1.414l-4.95 4.95a.997.997 0 0 0 0 1.414l4.95 4.95a1 1 0 1 0 1.414-1.415L10.414 7.95zm-7 0l4.243-4.243a1 1 0 0 0-1.414-1.414l-4.95 4.95a.997.997 0 0 0 0 1.414l4.95 4.95a1 1 0 0 0 1.414-1.415L3.414 7.95z"/></symbol><symbol viewBox="0 0 16 16" id="angle-down" xmlns="http://www.w3.org/2000/svg"><path fill-rule="evenodd" d="M8 10.243l-4.95-4.95a1 1 0 0 0-1.414 1.414l5.657 5.657a.997.997 0 0 0 1.414 0l5.657-5.657a1 1 0 0 0-1.414-1.414L8 10.243z"/></symbol><symbol viewBox="0 0 16 16" id="angle-left" xmlns="http://www.w3.org/2000/svg"><path fill-rule="evenodd" d="M5.757 8l4.95-4.95a1 1 0 1 0-1.414-1.414L3.636 7.293a.997.997 0 0 0 0 1.414l5.657 5.657a1 1 0 0 0 1.414-1.414L5.757 8z"/></symbol><symbol viewBox="0 0 16 16" id="angle-right" xmlns="http://www.w3.org/2000/svg"><path fill-rule="evenodd" d="M10.243 8l-4.95-4.95a1 1 0 0 1 1.414-1.414l5.657 5.657a.997.997 0 0 1 0 1.414l-5.657 5.657a1 1 0 0 1-1.414-1.414L10.243 8z"/></symbol><symbol viewBox="0 0 16 16" id="angle-up" xmlns="http://www.w3.org/2000/svg"><path fill-rule="evenodd" d="M8 6.757l-4.95 4.95a1 1 0 1 1-1.414-1.414l5.657-5.657a.997.997 0 0 1 1.414 0l5.657 5.657a1 1 0 0 1-1.414 1.414L8 6.757z"/></symbol><symbol viewBox="0 0 16 16" id="appearance" xmlns="http://www.w3.org/2000/svg"><path d="M11.161 12.456l.232.121c.1.053.175.094.249.137.53.318.844.75.857 1.402.012 1.397-1.116 1.756-3.12 1.858a23.85 23.85 0 0 1-1.38.026A8 8 0 0 1 0 8a8 8 0 0 1 8-8c4.417 0 7.998 3.582 7.998 7.977.06 2.621-1.312 3.586-4.48 3.648-.602.008-1.068.043-1.4.104.228.192.598.47 1.043.727zm-3.287-.943c-.019-1.495 1.228-1.856 3.611-1.888C13.67 9.582 14.028 9.33 13.998 8A6 6 0 1 0 8 14c.603 0 .91-.004 1.277-.023a9.7 9.7 0 0 0 .478-.035c-1.172-.738-1.868-1.47-1.88-2.43zM6 5a1 1 0 1 1 0-2 1 1 0 0 1 0 2zm6 3a1 1 0 1 1 0-2 1 1 0 0 1 0 2zm-2-3a1 1 0 1 1 0-2 1 1 0 0 1 0 2zM4 8a1 1 0 1 1 0-2 1 1 0 0 1 0 2z"/></symbol><symbol viewBox="0 0 16 16" id="applications" xmlns="http://www.w3.org/2000/svg"><path fill-rule="evenodd" d="M1 0h2a1 1 0 0 1 1 1v2a1 1 0 0 1-1 1H1a1 1 0 0 1-1-1V1a1 1 0 0 1 1-1zm0 6h2a1 1 0 0 1 1 1v2a1 1 0 0 1-1 1H1a1 1 0 0 1-1-1V7a1 1 0 0 1 1-1zm6-6h2a1 1 0 0 1 1 1v2a1 1 0 0 1-1 1H7a1 1 0 0 1-1-1V1a1 1 0 0 1 1-1zm0 1v2h2V1H7zm0 5h2a1 1 0 0 1 1 1v2a1 1 0 0 1-1 1H7a1 1 0 0 1-1-1V7a1 1 0 0 1 1-1zm6-6h2a1 1 0 0 1 1 1v2a1 1 0 0 1-1 1h-2a1 1 0 0 1-1-1V1a1 1 0 0 1 1-1zm0 6h2a1 1 0 0 1 1 1v2a1 1 0 0 1-1 1h-2a1 1 0 0 1-1-1V7a1 1 0 0 1 1-1zm0 1v2h2V7h-2zM1 12h2a1 1 0 0 1 1 1v2a1 1 0 0 1-1 1H1a1 1 0 0 1-1-1v-2a1 1 0 0 1 1-1zm0 1v2h2v-2H1zm6-1h2a1 1 0 0 1 1 1v2a1 1 0 0 1-1 1H7a1 1 0 0 1-1-1v-2a1 1 0 0 1 1-1zm6 0h2a1 1 0 0 1 1 1v2a1 1 0 0 1-1 1h-2a1 1 0 0 1-1-1v-2a1 1 0 0 1 1-1z"/></symbol><symbol viewBox="0 0 16 16" id="approval" xmlns="http://www.w3.org/2000/svg"><path fill-rule="evenodd" d="M10.536 10.657l2.828-2.829a1 1 0 0 1 1.414 1.415l-3.535 3.535a.997.997 0 0 1-1.415 0l-2.12-2.121A1 1 0 1 1 9.12 9.243l1.415 1.414zM7.632 8.109A2 2 0 0 0 7 11.364l2.121 2.121a1.996 1.996 0 0 0 2.807.021C11.686 14.554 10.627 15 6 15c-5.924 0-6-.78-6-2.52S.964 8 6 8c.6 0 1.142.038 1.632.109zM5.976 7a3 3 0 1 1 0-6 3 3 0 0 1 0 6z"/></symbol><symbol viewBox="0 0 16 16" id="arrow-right" xmlns="http://www.w3.org/2000/svg"><path fill-rule="evenodd" d="M9 6H2a2 2 0 1 0 0 4h7v2.586a1 1 0 0 0 1.707.707l4.586-4.586a1 1 0 0 0 0-1.414l-4.586-4.586A1 1 0 0 0 9 3.414V6z"/></symbol><symbol viewBox="0 0 16 16" id="assignee" xmlns="http://www.w3.org/2000/svg"><path fill-rule="evenodd" d="M12 5V4a1 1 0 0 1 2 0v1h1a1 1 0 0 1 0 2h-1v1a1 1 0 0 1-2 0V7h-1a1 1 0 0 1 0-2h1zM5.976 7a3 3 0 1 1 0-6 3 3 0 0 1 0 6zM6 15c-5.924 0-6-.78-6-2.52S.964 8 6 8s6 2.692 6 4.48c0 1.788-.076 2.52-6 2.52z"/></symbol><symbol viewBox="0 0 16 16" id="bold" xmlns="http://www.w3.org/2000/svg"><path fill-rule="evenodd" d="M2 15V1a1 1 0 0 1 1-1h4.604c.93 0 1.762.088 2.495.264.733.176 1.353.445 1.863.807.509.363.897.82 1.164 1.369.268.549.401 1.197.401 1.945 0 .366-.045.718-.137 1.055-.091.337-.23.652-.417.945a3.453 3.453 0 0 1-.71.796 3.645 3.645 0 0 1-1.021.588c.469.117.87.295 1.203.533.333.238.608.515.824.83.216.315.374.657.473 1.027.099.37.148.75.148 1.138 0 1.553-.5 2.725-1.5 3.516-1 .791-2.423 1.187-4.27 1.187H3a1 1 0 0 1-1-1zm3.297-5.967v4.319H8.12c.425 0 .791-.053 1.099-.16.307-.106.564-.252.769-.44.205-.186.357-.406.456-.659.099-.252.148-.529.148-.83a3.04 3.04 0 0 0-.131-.928 1.78 1.78 0 0 0-.413-.703 1.8 1.8 0 0 0-.73-.445c-.3-.103-.66-.154-1.077-.154H5.297zm0-2.33h2.44c.842-.014 1.468-.192 1.878-.533.41-.34.616-.826.616-1.456 0-.725-.21-1.247-.632-1.566-.421-.318-1.086-.478-1.995-.478H5.297v4.033z"/></symbol><symbol viewBox="0 0 16 16" id="book" xmlns="http://www.w3.org/2000/svg"><path d="M7 2H5a2 2 0 0 0-2 2v8a2 2 0 0 0 2 2h6a2 2 0 0 0 2-2V4a2 2 0 0 0-2-2v4.191a.5.5 0 0 1-.724.447l-1.052-.526a.5.5 0 0 0-.448 0l-1.052.526A.5.5 0 0 1 7 6.191V2zM5 0h6a4 4 0 0 1 4 4v8a4 4 0 0 1-4 4H5a4 4 0 0 1-4-4V4a4 4 0 0 1 4-4z"/></symbol><symbol viewBox="0 0 16 16" id="branch" xmlns="http://www.w3.org/2000/svg"><path d="M6 11.978v.29a2 2 0 1 1-2 0V3.732a2 2 0 1 1 2 0v3.849c.592-.491 1.31-.854 2.15-1.081 1.308-.353 1.875-.882 1.893-1.743a2 2 0 1 1 2.002-.051C12.053 6.54 10.857 7.84 8.67 8.43 7.056 8.867 6.195 9.98 6 11.978zM5 3a1 1 0 1 0 0-2 1 1 0 0 0 0 2zm6 1a1 1 0 1 0 0-2 1 1 0 0 0 0 2zM5 15a1 1 0 1 0 0-2 1 1 0 0 0 0 2z"/></symbol><symbol viewBox="0 0 16 16" id="calendar" xmlns="http://www.w3.org/2000/svg"><path fill-rule="evenodd" d="M12 2h2a2 2 0 0 1 2 2H0a2 2 0 0 1 2-2h2V1a1 1 0 1 1 2 0v1h4V1a1 1 0 1 1 2 0v1zM0 4h16v9a3 3 0 0 1-3 3H3a3 3 0 0 1-3-3V4zm2 2.5V13a1 1 0 0 0 1 1h10a1 1 0 0 0 1-1V6.5a.5.5 0 0 0-.5-.5h-11a.5.5 0 0 0-.5.5zM5 8h2a1 1 0 1 1 0 2H5a1 1 0 1 1 0-2z"/></symbol><symbol viewBox="0 0 16 16" id="cancel" xmlns="http://www.w3.org/2000/svg"><path d="M3.11 4.523a6 6 0 0 0 8.367 8.367L3.109 4.524zM4.522 3.11l8.368 8.368A6 6 0 0 0 4.524 3.11zM8 16A8 8 0 1 1 8 0a8 8 0 0 1 0 16z"/></symbol><symbol viewBox="0 0 16 16" id="chevron-down" xmlns="http://www.w3.org/2000/svg"><path fill-rule="evenodd" d="M8.078 8.2l3.535-3.536a2 2 0 0 1 2.828 2.828l-4.949 4.95c-.39.39-.902.586-1.414.586a1.994 1.994 0 0 1-1.414-.586l-4.95-4.95a2 2 0 1 1 2.828-2.828l3.536 3.535z"/></symbol><symbol viewBox="0 0 16 16" id="chevron-left" xmlns="http://www.w3.org/2000/svg"><path fill-rule="evenodd" d="M7.977 7.998l3.535-3.535a2 2 0 1 0-2.828-2.828l-4.95 4.949c-.39.39-.586.902-.586 1.414 0 .512.196 1.024.586 1.414l4.95 4.95a2 2 0 1 0 2.828-2.828L7.977 7.998z"/></symbol><symbol viewBox="0 0 16 16" id="chevron-right" xmlns="http://www.w3.org/2000/svg"><path fill-rule="evenodd" d="M8.22 7.998L4.683 4.463a2 2 0 0 1 2.828-2.828l4.95 4.949c.39.39.586.902.586 1.414a1.99 1.99 0 0 1-.586 1.414l-4.95 4.95a2 2 0 0 1-2.828-2.828l3.535-3.536z"/></symbol><symbol viewBox="0 0 16 16" id="chevron-up" xmlns="http://www.w3.org/2000/svg"><path fill-rule="evenodd" d="M7.778 8.957l3.535 3.535a2 2 0 1 0 2.828-2.828l-4.949-4.95a1.994 1.994 0 0 0-1.414-.586c-.512 0-1.024.196-1.414.586l-4.95 4.95a2 2 0 1 0 2.828 2.828l3.536-3.535z"/></symbol><symbol viewBox="0 0 16 16" id="clock" xmlns="http://www.w3.org/2000/svg"><path d="M9 7h1a1 1 0 0 1 0 2H8a.997.997 0 0 1-1-1V5a1 1 0 1 1 2 0v2zm-1 9A8 8 0 1 1 8 0a8 8 0 0 1 0 16zm0-2A6 6 0 1 0 8 2a6 6 0 0 0 0 12z"/></symbol><symbol viewBox="0 0 16 16" id="code" xmlns="http://www.w3.org/2000/svg"><path fill-rule="evenodd" d="M15.871 8.243a.997.997 0 0 0-.293-.707L12.75 4.707a1 1 0 0 0-1.414 1.414l2.12 2.122-2.12 2.121a1 1 0 0 0 1.414 1.414l2.828-2.828a.997.997 0 0 0 .293-.707zm-13.243 0L4.75 6.12a1 1 0 1 0-1.414-1.414L.507 7.536a.997.997 0 0 0 0 1.414l2.829 2.828a1 1 0 1 0 1.414-1.414L2.628 8.243zm6.407-4.107a1 1 0 0 1 .707 1.225L8.19 11.157a1 1 0 1 1-1.931-.518L7.81 4.843a1 1 0 0 1 1.224-.707z"/></symbol><symbol viewBox="0 0 16 16" id="comment" xmlns="http://www.w3.org/2000/svg"><path d="M1.707 15.707C1.077 16.337 0 15.891 0 15V3a3 3 0 0 1 3-3h10a3 3 0 0 1 3 3v6a3 3 0 0 1-3 3H5.414l-3.707 3.707zM2 12.586l2.293-2.293A1 1 0 0 1 5 10h8a1 1 0 0 0 1-1V3a1 1 0 0 0-1-1H3a1 1 0 0 0-1 1v9.586z"/></symbol><symbol viewBox="0 0 16 16" id="comment-dots" xmlns="http://www.w3.org/2000/svg"><path d="M1.707 15.707C1.077 16.337 0 15.891 0 15V3a3 3 0 0 1 3-3h10a3 3 0 0 1 3 3v6a3 3 0 0 1-3 3H5.414l-3.707 3.707zM2 12.586l2.293-2.293A1 1 0 0 1 5 10h8a1 1 0 0 0 1-1V3a1 1 0 0 0-1-1H3a1 1 0 0 0-1 1v9.586zM5 7a1 1 0 1 1 0-2 1 1 0 0 1 0 2zm3 0a1 1 0 1 1 0-2 1 1 0 0 1 0 2zm3 0a1 1 0 1 1 0-2 1 1 0 0 1 0 2z"/></symbol><symbol viewBox="0 0 16 16" id="comment-next" xmlns="http://www.w3.org/2000/svg"><path d="M8 5V4a.5.5 0 0 1 .8-.4l2.667 2a.5.5 0 0 1 0 .8L8.8 8.4A.5.5 0 0 1 8 8V7H6a1 1 0 1 1 0-2h2zM1.707 15.707C1.077 16.337 0 15.891 0 15V3a3 3 0 0 1 3-3h10a3 3 0 0 1 3 3v6a3 3 0 0 1-3 3H5.414l-3.707 3.707zM2 12.586l2.293-2.293A1 1 0 0 1 5 10h8a1 1 0 0 0 1-1V3a1 1 0 0 0-1-1H3a1 1 0 0 0-1 1v9.586z"/></symbol><symbol viewBox="0 0 16 16" id="comments" xmlns="http://www.w3.org/2000/svg"><path fill-rule="evenodd" d="M3.75 10L0 13V3a2 2 0 0 1 2-2h8a2 2 0 0 1 2 2v5a2 2 0 0 1-2 2H3.75zM13 5h1a2 2 0 0 1 2 2v8l-2.667-2H8a2 2 0 0 1-2-2h4a3 3 0 0 0 3-3V5z"/></symbol><symbol viewBox="0 0 16 16" id="commit" xmlns="http://www.w3.org/2000/svg"><path d="M8 10a2 2 0 1 0 0-4 2 2 0 0 0 0 4zm3.876-1.008a4.002 4.002 0 0 1-7.752 0A1.01 1.01 0 0 1 4 9H1a1 1 0 1 1 0-2h3c.042 0 .083.003.124.008a4.002 4.002 0 0 1 7.752 0A1.01 1.01 0 0 1 12 7h3a1 1 0 0 1 0 2h-3a1.01 1.01 0 0 1-.124-.008z"/></symbol><symbol viewBox="0 0 16 16" id="credit-card" xmlns="http://www.w3.org/2000/svg"><path d="M14 5a1 1 0 0 0-1-1H3a1 1 0 0 0-1 1h12zm0 3H2v3a1 1 0 0 0 1 1h10a1 1 0 0 0 1-1V8zM3 2h10a3 3 0 0 1 3 3v6a3 3 0 0 1-3 3H3a3 3 0 0 1-3-3V5a3 3 0 0 1 3-3zm6.5 8h3a.5.5 0 1 1 0 1h-3a.5.5 0 1 1 0-1z"/></symbol><symbol viewBox="0 0 16 16" id="disk" xmlns="http://www.w3.org/2000/svg"><path d="M16 11.764V3a3 3 0 0 0-3-3H3a3 3 0 0 0-3 3v8.764A2.989 2.989 0 0 1 2 11V3a1 1 0 0 1 1-1h10a1 1 0 0 1 1 1v8c.768 0 1.47.289 2 .764zM2 12h12a2 2 0 1 1 0 4H2a2 2 0 1 1 0-4zm10 1a1 1 0 1 0 0 2 1 1 0 0 0 0-2z"/></symbol><symbol viewBox="0 0 16 16" id="doc_code" xmlns="http://www.w3.org/2000/svg"><path d="M8 2H5a2 2 0 0 0-2 2v8a2 2 0 0 0 2 2h6a2 2 0 0 0 2-2V7h-3a2 2 0 0 1-2-2V2zm2 .414V5h2.586L10 2.414zm1.036 7.607a.498.498 0 0 1-.147.354l-1.414 1.414a.5.5 0 0 1-.707-.707l1.06-1.06-1.06-1.061a.5.5 0 0 1 .707-.707l1.414 1.414a.498.498 0 0 1 .147.353zm-4.822 0l1.06 1.061a.5.5 0 0 1-.706.707l-1.414-1.414a.498.498 0 0 1 0-.707l1.414-1.414a.5.5 0 1 1 .707.707l-1.06 1.06zM5 0h4.586A2 2 0 0 1 11 .586L14.414 4A2 2 0 0 1 15 5.414V12a4 4 0 0 1-4 4H5a4 4 0 0 1-4-4V4a4 4 0 0 1 4-4z"/></symbol><symbol viewBox="0 0 16 16" id="doc_image" xmlns="http://www.w3.org/2000/svg"><path d="M8 2H5a2 2 0 0 0-2 2v8a2 2 0 0 0 2 2h6a2 2 0 0 0 2-2V7h-3a2 2 0 0 1-2-2V2zm2 .414V5h2.586L10 2.414zM7.333 9.667l1.313-1.313a.5.5 0 0 1 .708 0L12 11H4l2.188-1.75a.5.5 0 0 1 .624 0l.521.417zM5 0h4.586A2 2 0 0 1 11 .586L14.414 4A2 2 0 0 1 15 5.414V12a4 4 0 0 1-4 4H5a4 4 0 0 1-4-4V4a4 4 0 0 1 4-4zm.5 8a1.5 1.5 0 1 1 0-3 1.5 1.5 0 0 1 0 3zM4 11h8v.7a.3.3 0 0 1-.3.3H4.3a.3.3 0 0 1-.3-.3V11z"/></symbol><symbol viewBox="0 0 16 16" id="doc_text" xmlns="http://www.w3.org/2000/svg"><path d="M8 2H5a2 2 0 0 0-2 2v8a2 2 0 0 0 2 2h6a2 2 0 0 0 2-2V7h-3a2 2 0 0 1-2-2V2zm2 .414V5h2.586L10 2.414zM5 0h4.586A2 2 0 0 1 11 .586L14.414 4A2 2 0 0 1 15 5.414V12a4 4 0 0 1-4 4H5a4 4 0 0 1-4-4V4a4 4 0 0 1 4-4zm.5 11h5a.5.5 0 1 1 0 1h-5a.5.5 0 1 1 0-1zm0-2h5a.5.5 0 1 1 0 1h-5a.5.5 0 0 1 0-1zm0-2h2a.5.5 0 0 1 0 1h-2a.5.5 0 0 1 0-1z"/></symbol><symbol viewBox="0 0 16 16" id="download" xmlns="http://www.w3.org/2000/svg"><path d="M9 12h1a.5.5 0 0 1 .4.8l-2 2.667a.5.5 0 0 1-.8 0l-2-2.667A.5.5 0 0 1 6 12h1V8a1 1 0 1 1 2 0v4zM4 9a1 1 0 1 1 0 2 4 4 0 0 1-1.971-7.481 4 4 0 0 1 6.633-2.505 3.999 3.999 0 0 1 3.82 2.014A4 4 0 0 1 12 11a1 1 0 0 1 0-2 2 2 0 1 0 0-4h-1a2 2 0 0 0-3.112-1.662A2 2 0 1 0 4.268 5H4a2 2 0 1 0 0 4z"/></symbol><symbol viewBox="0 0 16 16" id="duplicate" xmlns="http://www.w3.org/2000/svg"><path d="M14 10h-3a1 1 0 0 1-1-1V6H8.527A.527.527 0 0 0 8 6.527V13a1 1 0 0 0 1 1h4a1 1 0 0 0 1-1v-3zm-4-7H8.527c-.18 0-.355.013-.527.04V3a1 1 0 0 0-1-1H3a1 1 0 0 0-1 1v6a1 1 0 0 0 1 1h2v2H3a3 3 0 0 1-3-3V3a3 3 0 0 1 3-3h4a3 3 0 0 1 3 3zM8.527 4h2.323a.5.5 0 0 1 .35.143l4.65 4.551a.5.5 0 0 1 .15.357V13a3 3 0 0 1-3 3H9a3 3 0 0 1-3-3V6.527A2.527 2.527 0 0 1 8.527 4z"/></symbol><symbol viewBox="0 0 16 16" id="earth" xmlns="http://www.w3.org/2000/svg"><path d="M8.7 2.04l-.082.177c.283.223.422.413.417.571-.008.237-.311.057-.444.274-.133.218.038.542-.112.637-.15.096-.398-.386-.479-.46-.054-.049-.166-.257-.336-.625l-.216-.225a.844.844 0 0 0-.418-.035c-.177.038-.075.1-.035.132.04.032.32.037.452.2.132.164.03.224-.05.298-.054.05-.157.062-.31.035H5.952l-.402.398.03.325.229.455.324-.463c.008-.206.058-.342.15-.41.14-.1.342-.15.534-.085.191.066-.057.218.011.271.068.053.204-.098.313-.02.11.08.07.155.104.322.036.167.254.114.398.328.144.215.19.29.147.483-.043.195-.168.26-.305.232-.138-.028-.107-.246-.275-.348-.168-.102-.266-.114-.386-.054-.12.06-.016.129.023.235.04.106.274.321.224.43-.05.107-.108.116-.42 0-.21-.077-.414-.007-.615.212l-.76.722c-.153.715-.3 1.13-.44 1.243-.211.17-.177-.483-.483-.656-.306-.174-.494-.047-.8-.07-.307-.023-.42.65-.38.873a.434.434 0 0 0 .221.321c.236-.141.39-.184.465-.128.11.084-.144.267-.074.425.07.158.314.069.386.283.073.213.084.48-.05.706-.135.227-.275.178-.4.053-.127-.126-.033-.375-.255-.704-.223-.329-.381-.337-.63-.787-.158-.287-.35-.743-.575-1.366a6 6 0 0 0 3.21 7.198l.001-.075c0-.577-.004-.944-.012-1.102-.011-.236-.95-.945-1.104-1.2-.154-.256-.34-.595-.355-.746-.016-.151.185-.232.344-.325.16-.093-.11-.367.028-.626.137-.258.395-.438.496-.356.101.081.058.228.267.333.209.104.077-.213.456-.178.38.035.143.201.252.216.11.016.113-.127.299-.143.186-.015.282.445.471.622.19.178.452.008.611.043.159.034.267.09.402.255.136.166-.03.352.073.557.103.205 1.07.22 1.433.255.364.034.371.011.371.324s-.166.314-.453.507c-.286.193-.166.462-.38.762-.212.3-.316.062-.622.14-.306.077-.413.382-.452.568-.039.186-.386.094-.877.232-.29.082-.429.144-.569.204a6.002 6.002 0 0 0 7.682-4.3c-.094-.384-.18-.63-.258-.74-.213-.297-.36.21-.924.49-.564.278-.57-.288-.81-.49-.16-.133-.212-.44-.158-.92-.005-.478.02-.828.077-1.049.057-.221.126-.543.207-.965.351-.373.606-.572.764-.595.237-.034.336.374.658.3a.315.315 0 0 0 .035-.01 5.993 5.993 0 0 0-.475-.824l-.309-.043a.646.646 0 0 0-.332-.117c-.205-.02-.025.128-.089.24-.064.112-.235.724-.437.685-.201-.039-.204-.374-.17-.668.036-.294-.077-.35-.2-.412-.124-.062-.325-.213-.556-.295-.232-.082-.123-.175-.093-.274.03-.1.208-.015.193-.058-.014-.044-.313-.135-.266-.167.03-.02.2-.02.506.003l.216-.012.293-.163a.58.58 0 0 0-.376-.22c-.233-.036-.513-.034-.73-.142-.205-.103-.458-.36-.643-.638A5.965 5.965 0 0 0 8.7 2.04zM8 16A8 8 0 1 1 8 0a8 8 0 0 1 0 16z"/></symbol><symbol viewBox="0 0 16 16" id="eye" xmlns="http://www.w3.org/2000/svg"><path d="M8 14C4.816 14 2.253 12.284.393 8.981a2 2 0 0 1 0-1.962C2.253 3.716 4.816 2 8 2s5.747 1.716 7.607 5.019a2 2 0 0 1 0 1.962C13.747 12.284 11.184 14 8 14zm0-2c2.41 0 4.338-1.29 5.864-4C12.338 5.29 10.411 4 8 4 5.59 4 3.662 5.29 2.136 8 3.662 10.71 5.589 12 8 12zm0-1a3 3 0 1 1 0-6 3 3 0 0 1 0 6zm1-3a1 1 0 1 0 0-2 1 1 0 0 0 0 2z"/></symbol><symbol viewBox="0 0 16 16" id="eye-slash" xmlns="http://www.w3.org/2000/svg"><path d="M13.618 2.62L1.62 14.619a1 1 0 0 1-.985-1.668l1.525-1.526C1.516 10.742.926 9.927.393 8.981a2 2 0 0 1 0-1.962C2.253 3.716 4.816 2 8 2c1.074 0 2.076.195 3.006.58l.944-.944a1 1 0 0 1 1.668.985zM8.068 11a3 3 0 0 0 2.931-2.932l-2.931 2.931zm-3.02-2.462a3 3 0 0 1 3.49-3.49l.884-.884A6.044 6.044 0 0 0 8 4C5.59 4 3.662 5.29 2.136 8c.445.79.924 1.46 1.439 2.011l1.473-1.473zm.421 5.06l1.658-1.658c.283.04.575.06.873.06 2.41 0 4.338-1.29 5.864-4a11.023 11.023 0 0 0-1.133-1.664l1.418-1.418a12.799 12.799 0 0 1 1.458 2.1 2 2 0 0 1 0 1.963C13.747 12.284 11.184 14 8 14a7.883 7.883 0 0 1-2.53-.402z"/></symbol><symbol viewBox="0 0 16 16" id="file-additions" xmlns="http://www.w3.org/2000/svg"><path d="M7 7V5a1 1 0 1 1 2 0v2h2a1 1 0 0 1 0 2H9v2a1 1 0 0 1-2 0V9H5a1 1 0 1 1 0-2h2zM3 0h10a3 3 0 0 1 3 3v10a3 3 0 0 1-3 3H3a3 3 0 0 1-3-3V3a3 3 0 0 1 3-3zm0 1a2 2 0 0 0-2 2v10a2 2 0 0 0 2 2h10a2 2 0 0 0 2-2V3a2 2 0 0 0-2-2H3z"/></symbol><symbol viewBox="0 0 16 16" id="file-deletion" xmlns="http://www.w3.org/2000/svg"><path d="M3 0h10a3 3 0 0 1 3 3v10a3 3 0 0 1-3 3H3a3 3 0 0 1-3-3V3a3 3 0 0 1 3-3zm0 1a2 2 0 0 0-2 2v10a2 2 0 0 0 2 2h10a2 2 0 0 0 2-2V3a2 2 0 0 0-2-2H3zm2 6h6a1 1 0 0 1 0 2H5a1 1 0 1 1 0-2z"/></symbol><symbol viewBox="0 0 16 16" id="file-modified" xmlns="http://www.w3.org/2000/svg"><path d="M3 0h10a3 3 0 0 1 3 3v10a3 3 0 0 1-3 3H3a3 3 0 0 1-3-3V3a3 3 0 0 1 3-3zm0 1a2 2 0 0 0-2 2v10a2 2 0 0 0 2 2h10a2 2 0 0 0 2-2V3a2 2 0 0 0-2-2H3zm5 4a3 3 0 1 1 0 6 3 3 0 0 1 0-6z"/></symbol><symbol viewBox="0 0 16 16" id="filter" xmlns="http://www.w3.org/2000/svg"><path fill-rule="evenodd" d="M10 6v9l-3.724-1.862A.5.5 0 0 1 6 12.691V6L1.854 1.854A.5.5 0 0 1 2.207 1h11.586a.5.5 0 0 1 .353.854L10 6z"/></symbol><symbol viewBox="0 0 16 16" id="folder" xmlns="http://www.w3.org/2000/svg"><path d="M7.228 5l-.475-1.335A1 1 0 0 0 5.81 3H2v9a1 1 0 0 0 1 1h10a1 1 0 0 0 1-1V6a1 1 0 0 0-1-1H7.228zM13 3a3 3 0 0 1 3 3v6a3 3 0 0 1-3 3H3a3 3 0 0 1-3-3V3a2 2 0 0 1 2-2h3.81a3 3 0 0 1 2.827 1.995L13 3z"/></symbol><symbol viewBox="0 0 16 16" id="fork" xmlns="http://www.w3.org/2000/svg"><path d="M9 12.268a2 2 0 1 1-2 0V8.874A4.002 4.002 0 0 1 4 5V3.732a2 2 0 1 1 2 0V5a2 2 0 1 0 4 0V3.732a2 2 0 1 1 2 0V5a4.002 4.002 0 0 1-3 3.874v3.394zM11 3a1 1 0 1 0 0-2 1 1 0 0 0 0 2zM5 3a1 1 0 1 0 0-2 1 1 0 0 0 0 2zm3 12a1 1 0 1 0 0-2 1 1 0 0 0 0 2z"/></symbol><symbol viewBox="0 0 16 16" id="geo-nodes" xmlns="http://www.w3.org/2000/svg"><path d="M9.7 13.1l-.2.2c-.7.8-2 .9-2.8.1-.1 0-.1-.1-.1-.1l-.2-.2c-2 .2-3.4.7-3.4 1.4 0 .8 2.2 1.5 5 1.5s5-.7 5-1.5c0-.7-1.4-1.2-3.3-1.4M7.3 12.7c.4.4 1 .3 1.4-.1C11.6 9.5 13 7 13 5.3 13 2.4 10.8 0 8 0S3 2.4 3 5.3C3 7 4.4 9.5 7.3 12.7M8 2c1.6 0 3 1.4 3 3.3 0 1-1 2.8-3 5.2-2-2.4-3-4.2-3-5.2C5 3.4 6.4 2 8 2"/><circle cx="8" cy="5" r="1"/></symbol><symbol viewBox="0 0 16 16" id="git-merge" xmlns="http://www.w3.org/2000/svg"><path d="M11 12.268V5a1 1 0 0 0-1-1v1a.5.5 0 0 1-.8.4l-2.667-2a.5.5 0 0 1 0-.8L9.2.6a.5.5 0 0 1 .8.4v1a3 3 0 0 1 3 3v7.268a2 2 0 1 1-2 0zm-6 0a2 2 0 1 1-2 0V4.732a2 2 0 1 1 2 0v7.536zM4 4a1 1 0 1 0 0-2 1 1 0 0 0 0 2zm0 11a1 1 0 1 0 0-2 1 1 0 0 0 0 2zm8 0a1 1 0 1 0 0-2 1 1 0 0 0 0 2z"/></symbol><symbol viewBox="0 0 16 16" id="group" xmlns="http://www.w3.org/2000/svg"><path fill-rule="evenodd" d="M3.048 11.997C-.377 11.975.013 11.782.013 10.56.013 9.235.653 8 4 8c.444 0 .84.022 1.194.062.164.435.426.82.76 1.132-1.786.389-2.721 1.353-2.906 2.803zm2.94-7.222a2.993 2.993 0 0 0-.976 1.95 2 2 0 1 1 .975-1.95zm6.964 7.222c-.185-1.45-1.12-2.414-2.906-2.803.334-.311.596-.697.76-1.132C11.16 8.022 11.556 8 12 8c3.346 0 3.987 1.235 3.987 2.56 0 1.222.39 1.415-3.035 1.437zm-1.964-5.272a2.993 2.993 0 0 0-.976-1.95 2 2 0 1 1 .976 1.95zM8 9a2 2 0 1 1 0-4 2 2 0 0 1 0 4zm0 5c-2.177 0-3.987-.115-3.987-1.44S4.653 10 8 10c3.346 0 3.987 1.235 3.987 2.56S10.177 14 8 14z"/></symbol><symbol viewBox="0 0 16 16" id="history" xmlns="http://www.w3.org/2000/svg"><path d="M2.868 3.24a7 7 0 1 1-.043 9.475 1 1 0 0 1 1.478-1.348 5 5 0 1 0 .124-6.865l.796.645a.5.5 0 0 1-.193.873l-3.232.814a.5.5 0 0 1-.622-.504L1.3 3a.5.5 0 0 1 .814-.37l.754.61zM9 8h1a1 1 0 0 1 0 2H8a.997.997 0 0 1-1-1V6a1 1 0 1 1 2 0v2z"/></symbol><symbol viewBox="0 0 16 16" id="home" xmlns="http://www.w3.org/2000/svg"><path d="M8.462 2.177a.505.505 0 0 1-.038.044l.038-.044zm-.787 0l.038.043a.5.5 0 0 1-.038-.043zM3.706 7h8.725L8.069 2.585 3.706 7zM7 13.369V12a1 1 0 0 1 2 0v1.369h3V9H4v4.369h3zM14 9v4.836c0 .833-.657 1.533-1.5 1.533h-9c-.843 0-1.5-.7-1.5-1.533V9h-.448a1.1 1.1 0 0 1-.783-1.873L6.934.887a1.5 1.5 0 0 1 2.269 0l6.165 6.24A1.1 1.1 0 0 1 14.585 9H14z"/></symbol><symbol viewBox="0 0 16 16" id="hook" xmlns="http://www.w3.org/2000/svg"><path fill-rule="evenodd" d="M10 3a1 1 0 0 0-1-1H7a1 1 0 0 0-1 1h4zm0 1H6v1a1 1 0 0 0 1 1h2a1 1 0 0 0 1-1V4zM7 8a3 3 0 0 1-3-3V3a3 3 0 0 1 3-3h2a3 3 0 0 1 3 3v2a3 3 0 0 1-3 3v4a2 2 0 1 0 4 0h-.44a.3.3 0 0 1-.25-.466l1.44-2.16a.3.3 0 0 1 .5 0l1.44 2.16a.3.3 0 0 1-.25.466H15a4 4 0 0 1-7 2.646A4 4 0 0 1 1 12H.56a.3.3 0 0 1-.25-.466l1.44-2.16a.3.3 0 0 1 .5 0l1.44 2.16a.3.3 0 0 1-.25.466H3a2 2 0 1 0 4 0V8z"/></symbol><symbol viewBox="0 0 16 16" id="issue-block" xmlns="http://www.w3.org/2000/svg"><path fill-rule="evenodd" d="M5.803 8a5.97 5.97 0 0 0-.462 1H4.5a.5.5 0 0 1 0-1h1.303zM4.5 5h3a.5.5 0 0 1 0 1h-3a.5.5 0 0 1 0-1zm7.5.083a6.04 6.04 0 0 0-2 0V3a1 1 0 0 0-1-1H3a1 1 0 0 0-1 1v8a1 1 0 0 0 1 1h2.083a5.96 5.96 0 0 0 .72 2H3a3 3 0 0 1-3-3V3a3 3 0 0 1 3-3h6a3 3 0 0 1 3 3v2.083zm1.121 3.796zM11 16a5 5 0 1 1 0-10 5 5 0 0 1 0 10zm-1.293-2.292a3 3 0 0 0 4.001-4.001l-4.001 4zm-1.415-1.415l4.001-4a3 3 0 0 0-4.001 4.001z"/></symbol><symbol viewBox="0 0 16 16" id="issue-child" xmlns="http://www.w3.org/2000/svg"><path d="M11 8H5v1h1a1 1 0 0 1 1 1v4a1 1 0 0 1-1 1H1a1 1 0 0 1-1-1v-4a1 1 0 0 1 1-1h2V7a.997.997 0 0 1 1-1h3V4H4.5a.5.5 0 0 1-.5-.5v-2a.5.5 0 0 1 .5-.5h7a.5.5 0 0 1 .5.5v2a.5.5 0 0 1-.5.5H9v2h3a.997.997 0 0 1 1 1v2h2a1 1 0 0 1 1 1v4a1 1 0 0 1-1 1h-5a1 1 0 0 1-1-1v-4a1 1 0 0 1 1-1h1V8zm-9 3v2h3v-2H2zm9 0v2h3v-2h-3z"/></symbol><symbol viewBox="0 0 16 16" id="issue-close" xmlns="http://www.w3.org/2000/svg"><path d="M7.536 8.657l2.828-2.829a1 1 0 0 1 1.414 1.415l-3.535 3.535a.997.997 0 0 1-1.415 0l-2.12-2.121A1 1 0 0 1 6.12 7.243l1.415 1.414zM8 16A8 8 0 1 1 8 0a8 8 0 0 1 0 16zm0-2A6 6 0 1 0 8 2a6 6 0 0 0 0 12z"/></symbol><symbol viewBox="0 0 16 16" id="issue-duplicate" xmlns="http://www.w3.org/2000/svg"><path d="M10.874 2H12a3 3 0 0 1 3 3v8a3 3 0 0 1-3 3h-2c-.918 0-1.74-.413-2.29-1.063a3.987 3.987 0 0 0 1.988-.984A1 1 0 0 0 10 14h2a1 1 0 0 0 1-1V5a1 1 0 0 0-1-1h-1V3c0-.345-.044-.68-.126-1zM4 0h3a3 3 0 0 1 3 3v8a3 3 0 0 1-3 3H4a3 3 0 0 1-3-3V3a3 3 0 0 1 3-3zm0 2a1 1 0 0 0-1 1v8a1 1 0 0 0 1 1h3a1 1 0 0 0 1-1V3a1 1 0 0 0-1-1H4z"/></symbol><symbol viewBox="0 0 16 16" id="issue-new" xmlns="http://www.w3.org/2000/svg"><path d="M10 2V1a1 1 0 0 1 2 0v1h1a1 1 0 0 1 0 2h-1v1a1 1 0 0 1-2 0V4H9a1 1 0 1 1 0-2h1zm0 6a1 1 0 0 1 2 0v5a3 3 0 0 1-3 3H5a3 3 0 0 1-3-3V5a3 3 0 0 1 3-3h1a1 1 0 1 1 0 2H5a1 1 0 0 0-1 1v8a1 1 0 0 0 1 1h4a1 1 0 0 0 1-1V8z"/></symbol><symbol viewBox="0 0 16 16" id="issue-open" xmlns="http://www.w3.org/2000/svg"><path d="M8 16A8 8 0 1 1 8 0a8 8 0 0 1 0 16zm0-2A6 6 0 1 0 8 2a6 6 0 0 0 0 12zm0-2a4 4 0 1 1 0-8 4 4 0 0 1 0 8zm0-2a2 2 0 1 0 0-4 2 2 0 0 0 0 4z"/></symbol><symbol viewBox="0 0 16 16" id="issue-open-m" xmlns="http://www.w3.org/2000/svg"><path d="M8 16A8 8 0 1 1 8 0a8 8 0 0 1 0 16zm0-2A6 6 0 1 0 8 2a6 6 0 0 0 0 12z"/></symbol><symbol viewBox="0 0 16 16" id="issue-parent" xmlns="http://www.w3.org/2000/svg"><path d="M11 11H5v1h1.5a.5.5 0 0 1 .5.5v2a.5.5 0 0 1-.5.5h-6a.5.5 0 0 1-.5-.5v-2a.5.5 0 0 1 .5-.5H3v-2a.997.997 0 0 1 1-1h3V7H5a1 1 0 0 1-1-1V2a1 1 0 0 1 1-1h6a1 1 0 0 1 1 1v4a1 1 0 0 1-1 1H9v2h3a.997.997 0 0 1 1 1v2h2.5a.5.5 0 0 1 .5.5v2a.5.5 0 0 1-.5.5h-6a.5.5 0 0 1-.5-.5v-2a.5.5 0 0 1 .5-.5H11v-1zM6 3v2h4V3H6z"/></symbol><symbol viewBox="0 0 16 16" id="issues" xmlns="http://www.w3.org/2000/svg"><path d="M10.458 15.012l.311.055a3 3 0 0 0 3.476-2.433l1.389-7.879A3 3 0 0 0 13.2 1.28L11.23.933a3.002 3.002 0 0 0-.824-.031c.364.59.58 1.28.593 2.02l1.854.328a1 1 0 0 1 .811 1.158l-1.389 7.879a1 1 0 0 1-1.158.81l-.118-.02a3.98 3.98 0 0 1-.541 1.935zM3 0h4a3 3 0 0 1 3 3v10a3 3 0 0 1-3 3H3a3 3 0 0 1-3-3V3a3 3 0 0 1 3-3zm0 2a1 1 0 0 0-1 1v10a1 1 0 0 0 1 1h4a1 1 0 0 0 1-1V3a1 1 0 0 0-1-1H3z"/></symbol><symbol viewBox="0 0 16 16" id="key" xmlns="http://www.w3.org/2000/svg"><path d="M7.575 6.689a4.002 4.002 0 0 1 6.274-4.86 4 4 0 0 1-4.86 6.274l-2.21 2.21.706.708a1 1 0 1 1-1.414 1.414l-.707-.707-.707.707.707.707a1 1 0 1 1-1.414 1.414l-.707-.707a1 1 0 0 1-1.414-1.414l5.746-5.746zm2.032-.618a2 2 0 1 0 2.828-2.828A2 2 0 0 0 9.607 6.07z"/></symbol><symbol viewBox="0 0 16 16" id="key-2" xmlns="http://www.w3.org/2000/svg"><path d="M5.172 14.157l-.344.344-2.485.133a.462.462 0 0 1-.497-.503l.14-2.24a.599.599 0 0 1 .177-.382l5.155-5.155a4 4 0 1 1 2.828 2.828l-1.439 1.44-1.06-.354-.708.707.354 1.06-.707.708-1.06-.354-.708.707.354 1.06zm6.01-8.839a1 1 0 1 0 1.414-1.414 1 1 0 0 0-1.414 1.414z"/></symbol><symbol viewBox="0 0 16 16" id="label" xmlns="http://www.w3.org/2000/svg"><path d="M11.782 14.718a3 3 0 0 1-4.242 0L1.652 8.829a2 2 0 0 1-.565-1.702l.54-3.703a2 2 0 0 1 1.69-1.69l3.703-.54a2 2 0 0 1 1.703.564l5.888 5.888a3 3 0 0 1 0 4.243l-2.829 2.829zm1.415-5.657L7.309 3.173l-3.703.54-.54 3.702 5.888 5.888a1 1 0 0 0 1.414 0l2.829-2.828a1 1 0 0 0 0-1.414zM5.732 5.525A1 1 0 1 1 7.146 6.94a1 1 0 0 1-1.414-1.414z"/></symbol><symbol viewBox="0 0 16 16" id="labels" xmlns="http://www.w3.org/2000/svg"><path d="M9.424 2.254l2.08-.905a1 1 0 0 1 1.206.326l3.013 4.12a1 1 0 0 1 .16.849l-1.947 7.264a3 3 0 0 1-3.675 2.122l-.5-.135a3.999 3.999 0 0 0 1.082-1.782 1 1 0 0 0 1.16-.722l1.823-6.802-2.258-3.087-.687.299a2 2 0 0 0-.628-.88l-.829-.667zM.377 3.7L4.4.498a1 1 0 0 1 1.25.003L9.627 3.7a1 1 0 0 1 .373.78V13a3 3 0 0 1-3 3H3a3 3 0 0 1-3-3V4.482A1 1 0 0 1 .377 3.7zM2 13a1 1 0 0 0 1 1h4a1 1 0 0 0 1-1V4.958L5.02 2.561 2 4.964V13zm3-6a1 1 0 1 1 0-2 1 1 0 0 1 0 2z"/></symbol><symbol viewBox="0 0 16 16" id="leave" xmlns="http://www.w3.org/2000/svg"><path d="M11 7V5.883a.5.5 0 0 1 .757-.429l3.528 2.117a.5.5 0 0 1 0 .858l-3.528 2.117a.5.5 0 0 1-.757-.43V9H7a1 1 0 1 1 0-2h4zm-2 6.256a1 1 0 0 1 2 0A2.744 2.744 0 0 1 8.256 16H3a3 3 0 0 1-3-3V3a3 3 0 0 1 3-3h5.19A2.81 2.81 0 0 1 11 2.81a1 1 0 0 1-2 0A.81.81 0 0 0 8.19 2H3a1 1 0 0 0-1 1v10a1 1 0 0 0 1 1h5.256c.41 0 .744-.333.744-.744z"/></symbol><symbol viewBox="0 0 16 16" id="level-up" xmlns="http://www.w3.org/2000/svg"><path fill="#2E2E2E" fill-rule="evenodd" d="M7 6h3.489a.5.5 0 0 0 .373-.832L6.374.117a.5.5 0 0 0-.748 0l-4.488 5.05A.5.5 0 0 0 1.51 6H5v7a3 3 0 0 0 3 3h6a1 1 0 0 0 0-2H8a1 1 0 0 1-1-1V6z"/></symbol><symbol viewBox="0 0 16 16" id="license" xmlns="http://www.w3.org/2000/svg"><path fill-rule="evenodd" d="M12.56 8.9l2.66 4.606a.3.3 0 0 1-.243.45l-1.678.094a.1.1 0 0 0-.078.044l-.953 1.432a.3.3 0 0 1-.51-.016L9.097 10.9a5.994 5.994 0 0 0 3.464-2zm-5.23 2.063L4.707 15.51a.3.3 0 0 1-.51.016l-.953-1.432a.1.1 0 0 0-.078-.044l-1.678-.094a.3.3 0 0 1-.243-.45l2.48-4.297a5.983 5.983 0 0 0 3.607 1.754zM8 10A5 5 0 1 1 8 0a5 5 0 0 1 0 10zm0-2a3 3 0 1 0 0-6 3 3 0 0 0 0 6zm0-1a2 2 0 1 1 0-4 2 2 0 0 1 0 4z"/></symbol><symbol viewBox="0 0 16 16" id="link" xmlns="http://www.w3.org/2000/svg"><path d="M6.986 3.35l2.12-2.122a4 4 0 0 1 5.657 5.657l-2.828 2.829a4 4 0 0 1-5.657 0 1 1 0 0 1 1.414-1.415 2 2 0 0 0 2.829 0l2.828-2.828a2 2 0 1 0-2.828-2.828l-1.001 1a5.018 5.018 0 0 0-2.534-.294zm2.12 9.192l-2.12 2.121a4 4 0 1 1-5.658-5.656l2.829-2.829a4 4 0 0 1 5.657 0 1 1 0 1 1-1.415 1.414 2 2 0 0 0-2.828 0l-2.828 2.829a2 2 0 1 0 2.828 2.828l1.001-1.001a5.018 5.018 0 0 0 2.534.294z"/></symbol><symbol viewBox="0 0 16 16" id="list-bulleted" xmlns="http://www.w3.org/2000/svg"><path fill-rule="evenodd" d="M1 4a1 1 0 1 1 0-2 1 1 0 0 1 0 2zm0 5a1 1 0 1 1 0-2 1 1 0 0 1 0 2zm4-7h10a1 1 0 0 1 0 2H5a1 1 0 1 1 0-2zm0 5h10a1 1 0 0 1 0 2H5a1 1 0 1 1 0-2zm-4 7a1 1 0 1 1 0-2 1 1 0 0 1 0 2zm4-2h10a1 1 0 0 1 0 2H5a1 1 0 0 1 0-2z"/></symbol><symbol viewBox="0 0 16 16" id="list-numbered" xmlns="http://www.w3.org/2000/svg"><path fill-rule="evenodd" d="M6 2h8a1 1 0 0 1 0 2H6a1 1 0 1 1 0-2zm0 5h8a1 1 0 0 1 0 2H6a1 1 0 1 1 0-2zm0 5h8a1 1 0 0 1 0 2H6a1 1 0 0 1 0-2zM1.156 5v-.828h.816V2.204h-.72v-.636c.432-.084.708-.192.996-.372h.756v2.976h.684V5H1.156zm-.18 5v-.588c.9-.828 1.596-1.464 1.596-1.98 0-.342-.192-.504-.468-.504-.252 0-.444.18-.624.36l-.552-.552c.396-.42.756-.612 1.32-.612.768 0 1.308.492 1.308 1.248 0 .612-.576 1.284-1.092 1.812.192-.024.468-.048.636-.048h.636V10H.976zm1.26 5.072c-.618 0-1.068-.204-1.356-.54l.468-.648c.234.216.51.36.78.36.336 0 .552-.12.552-.36 0-.288-.15-.456-.948-.456v-.72c.636 0 .828-.168.828-.432 0-.228-.138-.348-.396-.348-.252 0-.432.108-.672.312l-.516-.624c.372-.312.768-.492 1.236-.492.84 0 1.38.384 1.38 1.074 0 .366-.204.642-.612.822v.024c.432.132.732.432.732.912 0 .72-.684 1.116-1.476 1.116z"/></symbol><symbol viewBox="0 0 16 16" id="location" xmlns="http://www.w3.org/2000/svg"><path d="M8.755 15.144a1 1 0 0 1-1.51 0C3.748 11.114 2 8.065 2 6a6 6 0 1 1 12 0c0 2.065-1.748 5.113-5.245 9.144zM12 6a4 4 0 1 0-8 0c0 1.314 1.312 3.71 4 6.944C10.688 9.71 12 7.314 12 6zM8 8a2 2 0 1 1 0-4 2 2 0 0 1 0 4z"/></symbol><symbol viewBox="0 0 16 16" id="location-dot" xmlns="http://www.w3.org/2000/svg"><path fill-rule="evenodd" d="M6.314 13.087C4.382 13.295 3 13.85 3 14.5c0 .828 2.239 1.5 5 1.5s5-.672 5-1.5c0-.65-1.382-1.205-3.314-1.413l-.202.225a2 2 0 0 1-2.968 0l-.202-.225zm2.428-.445a1 1 0 0 1-1.484 0C4.419 9.5 3 7.037 3 5.252 3 2.353 5.239 0 8 0s5 2.352 5 5.253c0 1.784-1.42 4.247-4.258 7.389zM11 5.252C11 3.436 9.634 2 8 2S5 3.435 5 5.253c0 1.027.974 2.824 3 5.203 2.026-2.38 3-4.176 3-5.203zM8 6a1 1 0 1 1 0-2 1 1 0 0 1 0 2z"/></symbol><symbol viewBox="0 0 16 16" id="lock" xmlns="http://www.w3.org/2000/svg"><path d="M10 5V4h2v1a3 3 0 0 1 3 3v5a3 3 0 0 1-3 3H4a3 3 0 0 1-3-3V8a3 3 0 0 1 3-3V4h2v1h4zM4 7a1 1 0 0 0-1 1v5a1 1 0 0 0 1 1h8a1 1 0 0 0 1-1V8a1 1 0 0 0-1-1H4zm0-3a4 4 0 1 1 8 0h-2a2 2 0 1 0-4 0H4z"/></symbol><symbol viewBox="0 0 16 16" id="lock-open" xmlns="http://www.w3.org/2000/svg"><path d="M4.044 4a4 4 0 0 1 6.99-2.658 1 1 0 1 1-1.495 1.33A2 2 0 0 0 6.044 4a.998.998 0 0 1-.07.367v.701H12a3 3 0 0 1 3 3v5a3 3 0 0 1-3 3H4a3 3 0 0 1-3-3v-5a3 3 0 0 1 2.974-3V4h.07zM4 7.07a1 1 0 0 0-1 1v5a1 1 0 0 0 1 1h8a1 1 0 0 0 1-1v-5a1 1 0 0 0-1-1H4z"/></symbol><symbol viewBox="0 0 16 16" id="log" xmlns="http://www.w3.org/2000/svg"><path d="M4 0h8a3 3 0 0 1 3 3v10a3 3 0 0 1-3 3H4a3 3 0 0 1-3-3V3a3 3 0 0 1 3-3zm0 2a1 1 0 0 0-1 1v10a1 1 0 0 0 1 1h8a1 1 0 0 0 1-1V3a1 1 0 0 0-1-1H4zm1 4a1 1 0 1 1 0-2 1 1 0 0 1 0 2zm0 3a1 1 0 1 1 0-2 1 1 0 0 1 0 2zm3-5h3a1 1 0 0 1 0 2H8a1 1 0 1 1 0-2zm0 3h3a1 1 0 0 1 0 2H8a1 1 0 1 1 0-2zm-3 5a1 1 0 1 1 0-2 1 1 0 0 1 0 2zm3-2h3a1 1 0 0 1 0 2H8a1 1 0 0 1 0-2z"/></symbol><symbol viewBox="0 0 16 16" id="mail" xmlns="http://www.w3.org/2000/svg"><path d="M14 5.6L9.338 9.796a2 2 0 0 1-2.676 0L2 5.6V11a1 1 0 0 0 1 1h10a1 1 0 0 0 1-1V5.6zM3 2h10a3 3 0 0 1 3 3v6a3 3 0 0 1-3 3H3a3 3 0 0 1-3-3V5a3 3 0 0 1 3-3zm.212 2L8 8.31 12.788 4H3.212z"/></symbol><symbol viewBox="0 0 16 16" id="merge-request-close" xmlns="http://www.w3.org/2000/svg"><path d="M9.414 8l1.414 1.414a1 1 0 1 1-1.414 1.414L8 9.414l-1.414 1.414a1 1 0 1 1-1.414-1.414L6.586 8 5.172 6.586a1 1 0 1 1 1.414-1.414L8 6.586l1.414-1.414a1 1 0 1 1 1.414 1.414L9.414 8zM8 16A8 8 0 1 1 8 0a8 8 0 0 1 0 16zm0-2A6 6 0 1 0 8 2a6 6 0 0 0 0 12z"/></symbol><symbol viewBox="0 0 16 16" id="merge-request-close-m" xmlns="http://www.w3.org/2000/svg"><path fill-rule="evenodd" d="M9.414 8l4.95-4.95a1 1 0 0 0-1.414-1.414L8 6.586l-4.95-4.95A1 1 0 0 0 1.636 3.05L6.586 8l-4.95 4.95a1 1 0 1 0 1.414 1.414L8 9.414l4.95 4.95a1 1 0 1 0 1.414-1.414L9.414 8z"/></symbol><symbol viewBox="0 0 16 16" id="messages" xmlns="http://www.w3.org/2000/svg"><path fill-rule="evenodd" d="M8.588 8.942l1.173 5.862A1 1 0 0 1 8.78 16H7.22a1 1 0 0 1-.98-1.196l1.172-5.862a3.014 3.014 0 0 0 1.176 0zM8 8a2 2 0 1 1 0-4 2 2 0 0 1 0 4zM4.464 2.464L5.88 3.88a3 3 0 0 0 0 4.242L4.464 9.536a5 5 0 0 1 0-7.072zm7.072 7.072L10.12 8.12a3 3 0 0 0 0-4.242l1.415-1.415a5 5 0 0 1 0 7.072zM2.343.343l1.414 1.414a6 6 0 0 0 0 8.486l-1.414 1.414a8 8 0 0 1 0-11.314zm11.314 11.314l-1.414-1.414a6 6 0 0 0 0-8.486L13.657.343a8 8 0 0 1 0 11.314z"/></symbol><symbol viewBox="0 0 16 16" id="mobile-issue-close" xmlns="http://www.w3.org/2000/svg"><path fill-rule="evenodd" d="M5.657 10.728L2.12 7.192A1 1 0 1 0 .707 8.607l4.243 4.242a.997.997 0 0 0 1.414 0l8.485-8.485a1 1 0 1 0-1.414-1.414l-7.778 7.778z"/></symbol><symbol viewBox="0 0 16 16" id="monitor" xmlns="http://www.w3.org/2000/svg"><path fill-rule="evenodd" d="M10 13v1h3a1 1 0 0 1 0 2H3a1 1 0 0 1 0-2h3v-1H3a3 3 0 0 1-3-3V3a3 3 0 0 1 3-3h10a3 3 0 0 1 3 3v7a3 3 0 0 1-3 3h-3zM3 2a1 1 0 0 0-1 1v7a1 1 0 0 0 1 1h10a1 1 0 0 0 1-1V3a1 1 0 0 0-1-1H3zm5.723 6.416l-2.66-1.773-1.71 1.71a.5.5 0 1 1-.707-.707l2-2a.5.5 0 0 1 .631-.062l2.66 1.773 2.71-2.71a.5.5 0 0 1 .707.707l-3 3a.5.5 0 0 1-.631.062z"/></symbol><symbol viewBox="0 0 16 16" id="more" xmlns="http://www.w3.org/2000/svg"><path fill-rule="evenodd" d="M8 4a2 2 0 1 1 0-4 2 2 0 0 1 0 4zm0 6a2 2 0 1 1 0-4 2 2 0 0 1 0 4zm0 6a2 2 0 1 1 0-4 2 2 0 0 1 0 4z"/></symbol><symbol viewBox="0 0 16 16" id="notifications" xmlns="http://www.w3.org/2000/svg"><path fill-rule="evenodd" d="M6 14H2.435a2 2 0 0 1-1.761-2.947c.962-1.788 1.521-3.065 1.68-3.832.322-1.566.947-5.501 4.65-6.134a1 1 0 1 1 1.994-.024c3.755.528 4.375 4.27 4.761 6.043.188.86.742 2.188 1.661 3.982A2 2 0 0 1 13.64 14H10a2 2 0 1 1-4 0zm5.805-6.468c-.325-1.492-.37-1.674-.61-2.288C10.6 3.716 9.742 3 8.07 3c-1.608 0-2.49.718-3.103 2.197-.28.676-.356.982-.654 2.428-.208 1.012-.827 2.424-1.877 4.375H13.64c-.993-1.937-1.6-3.396-1.835-4.468z"/></symbol><symbol viewBox="0 0 16 16" id="notifications-off" xmlns="http://www.w3.org/2000/svg"><path fill-rule="evenodd" d="M13.26 5.089c.243.757.382 1.478.5 2.017.187.86.74 2.188 1.66 3.982A2 2 0 0 1 13.64 14H10a2 2 0 1 1-4 0H4.35l2-2h7.29c-.993-1.937-1.6-3.396-1.835-4.468-.07-.326-.129-.59-.178-.81l1.634-1.633zM10.943 1.75l-1.48 1.48C9.07 3.076 8.612 3 8.069 3c-1.608 0-2.49.718-3.103 2.197-.28.676-.356.982-.654 2.428-.065.317-.17.673-.317 1.073L.45 12.242a1.99 1.99 0 0 1 .224-1.19c.962-1.787 1.521-3.064 1.68-3.831.322-1.566.947-5.501 4.65-6.134a1 1 0 1 1 1.994-.024 4.867 4.867 0 0 1 1.944.688zm2.932-.105a1 1 0 0 1 0 1.415L2.561 14.374a1 1 0 1 1-1.415-1.414L12.46 1.646a1 1 0 0 1 1.414 0z"/></symbol><symbol viewBox="0 0 16 16" id="overview" xmlns="http://www.w3.org/2000/svg"><path d="M2 0h3a2 2 0 0 1 2 2v3a2 2 0 0 1-2 2H2a2 2 0 0 1-2-2V2a2 2 0 0 1 2-2zm0 2v3h3V2H2zm9-2h3a2 2 0 0 1 2 2v3a2 2 0 0 1-2 2h-3a2 2 0 0 1-2-2V2a2 2 0 0 1 2-2zm0 2v3h3V2h-3zM2 9h3a2 2 0 0 1 2 2v3a2 2 0 0 1-2 2H2a2 2 0 0 1-2-2v-3a2 2 0 0 1 2-2zm0 2v3h3v-3H2zm9-2h3a2 2 0 0 1 2 2v3a2 2 0 0 1-2 2h-3a2 2 0 0 1-2-2v-3a2 2 0 0 1 2-2zm0 2v3h3v-3h-3z"/></symbol><symbol viewBox="0 0 16 16" id="pencil" xmlns="http://www.w3.org/2000/svg"><path d="M13.02 1.293l1.414 1.414a1 1 0 0 1 0 1.414L4.119 14.436a1 1 0 0 1-.704.293l-2.407.008L1 12.316a1 1 0 0 1 .293-.71L11.605 1.292a1 1 0 0 1 1.414 0zm-1.416 1.415l-.707.707L12.31 4.83l.707-.707-1.414-1.415zM3.411 13.73l1.123-1.122H3.12v-1.415L2 12.312l.005 1.422 1.406-.005z"/></symbol><symbol viewBox="0 0 16 16" id="pipeline" xmlns="http://www.w3.org/2000/svg"><path d="M8.969 7.25a2 2 0 1 1-1.938 0A1.002 1.002 0 0 1 7 7V5.083a.2.2 0 0 1 .06-.142l.877-.87a.1.1 0 0 1 .141 0l.864.87A.2.2 0 0 1 9 5.083V7c0 .086-.01.17-.031.25zM8 16A8 8 0 1 1 8 0a8 8 0 0 1 0 16zm0-2A6 6 0 1 0 8 2a6 6 0 0 0 0 12zm4.5-4a.5.5 0 1 1 0-1 .5.5 0 0 1 0 1zm0-3a.5.5 0 1 1 0-1 .5.5 0 0 1 0 1zm-2 6a.5.5 0 1 1 0-1 .5.5 0 0 1 0 1zm0-9a.5.5 0 1 1 0-1 .5.5 0 0 1 0 1zm-5 9a.5.5 0 1 1 0-1 .5.5 0 0 1 0 1zm0-9a.5.5 0 1 1 0-1 .5.5 0 0 1 0 1zm-2 6a.5.5 0 1 1 0-1 .5.5 0 0 1 0 1zm0-3a.5.5 0 1 1 0-1 .5.5 0 0 1 0 1zM8 10a1 1 0 1 0 0-2 1 1 0 0 0 0 2z"/></symbol><symbol viewBox="0 0 16 16" id="play" xmlns="http://www.w3.org/2000/svg"><path fill-rule="evenodd" d="M2.765 15.835c-.545.321-1.258.159-1.593-.363A1.075 1.075 0 0 1 1 14.89V1.11C1 .496 1.518 0 2.158 0c.214 0 .424.057.607.165l11.684 6.89c.544.321.714 1.005.38 1.526a1.135 1.135 0 0 1-.38.364l-11.684 6.89z"/></symbol><symbol viewBox="0 0 16 16" id="plus" xmlns="http://www.w3.org/2000/svg"><path fill-rule="evenodd" d="M7 7V1a1 1 0 1 1 2 0v6h6a1 1 0 0 1 0 2H9v6a1 1 0 0 1-2 0V9H1a1 1 0 1 1 0-2h6z"/></symbol><symbol viewBox="0 0 16 16" id="plus-square" xmlns="http://www.w3.org/2000/svg"><path fill-rule="evenodd" d="M9 7V4a1 1 0 1 0-2 0v3H4a1 1 0 1 0 0 2h3v3a1 1 0 0 0 2 0V9h3a1 1 0 0 0 0-2H9zM3 0h10a3 3 0 0 1 3 3v10a3 3 0 0 1-3 3H3a3 3 0 0 1-3-3V3a3 3 0 0 1 3-3z"/></symbol><symbol viewBox="0 0 16 16" id="plus-square-o" xmlns="http://www.w3.org/2000/svg"><path fill-rule="evenodd" d="M7 7V5a1 1 0 1 1 2 0v2h2a1 1 0 0 1 0 2H9v2a1 1 0 0 1-2 0V9H5a1 1 0 1 1 0-2h2zM3 0h10a3 3 0 0 1 3 3v10a3 3 0 0 1-3 3H3a3 3 0 0 1-3-3V3a3 3 0 0 1 3-3zm0 2a1 1 0 0 0-1 1v10a1 1 0 0 0 1 1h10a1 1 0 0 0 1-1V3a1 1 0 0 0-1-1H3z"/></symbol><symbol viewBox="0 0 16 16" id="preferences" xmlns="http://www.w3.org/2000/svg"><path fill-rule="evenodd" d="M5 12h10a1 1 0 0 1 0 2H5a1 1 0 0 1-2 0v-2a1 1 0 0 1 2 0zm-3 0H1a1 1 0 0 0 0 2h1v-2zm11-5h2a1 1 0 0 1 0 2h-2a1 1 0 0 1-2 0V7a1 1 0 0 1 2 0zm-3 0H1a1 1 0 1 0 0 2h9V7zM6 2h9a1 1 0 0 1 0 2H6a1 1 0 1 1-2 0V2a1 1 0 1 1 2 0zM3 2H1a1 1 0 1 0 0 2h2V2z"/></symbol><symbol viewBox="0 0 16 16" id="profile" xmlns="http://www.w3.org/2000/svg"><path d="M8 16A8 8 0 1 1 8 0a8 8 0 0 1 0 16zm0-2A6 6 0 1 0 8 2a6 6 0 0 0 0 12zm-4.274-3.404C4.412 9.709 5.694 9 8 9c2.313 0 3.595.7 4.28 1.586A4.997 4.997 0 0 1 8 13a4.997 4.997 0 0 1-4.274-2.404zM8 8a2 2 0 1 1 0-4 2 2 0 0 1 0 4z"/></symbol><symbol viewBox="0 0 16 16" id="project" xmlns="http://www.w3.org/2000/svg"><path d="M8.462 2.177l-.038.044a.505.505 0 0 0 .038-.044zm-.787 0a.5.5 0 0 0 .038.043l-.038-.043zM3.706 7h8.725L8.069 2.585 3.706 7zM7 13.369V12a1 1 0 0 1 2 0v1.369h3V9H4v4.369h3zM14 9v4.836c0 .833-.657 1.533-1.5 1.533h-9c-.843 0-1.5-.7-1.5-1.533V9h-.448a1.1 1.1 0 0 1-.783-1.873L6.934.887a1.5 1.5 0 0 1 2.269 0l6.165 6.24A1.1 1.1 0 0 1 14.585 9H14z"/></symbol><symbol viewBox="0 0 16 16" id="push-rules" xmlns="http://www.w3.org/2000/svg"><path d="M6.268 9a2 2 0 0 1 3.464 0H11a1 1 0 0 1 0 2H9.732a2 2 0 0 1-3.464 0H5a1 1 0 0 1 0-2h1.268zM7 2H4a1 1 0 0 0-1 1v10a1 1 0 0 0 1 1h8a1 1 0 0 0 1-1V3a1 1 0 0 0-1-1h-1v3.515a.3.3 0 0 1-.434.268l-1.432-.716a.3.3 0 0 0-.268 0l-1.432.716A.3.3 0 0 1 7 5.515V2zM4 0h8a3 3 0 0 1 3 3v10a3 3 0 0 1-3 3H4a3 3 0 0 1-3-3V3a3 3 0 0 1 3-3zm4 11a1 1 0 1 0 0-2 1 1 0 0 0 0 2z"/></symbol><symbol viewBox="0 0 16 16" id="question" xmlns="http://www.w3.org/2000/svg"><path fill-rule="evenodd" d="M8 16A8 8 0 1 1 8 0a8 8 0 0 1 0 16zm-1.46-5.602h2.233a3.97 3.97 0 0 1 .051-.558c.029-.17.073-.326.133-.469.06-.143.14-.28.242-.41.102-.13.228-.263.38-.399.26-.24.504-.467.733-.683a5.03 5.03 0 0 0 .598-.668c.17-.23.302-.477.399-.742a2.66 2.66 0 0 0 .144-.907c0-.505-.083-.95-.25-1.335a2.55 2.55 0 0 0-.723-.97 3.2 3.2 0 0 0-1.152-.589 5.441 5.441 0 0 0-1.531-.2c-.516 0-.998.063-1.445.188a3.19 3.19 0 0 0-1.168.59c-.331.268-.594.61-.79 1.027-.195.417-.295.917-.3 1.5h2.64c.006-.224.04-.416.102-.578.062-.161.142-.293.238-.394a.921.921 0 0 1 .332-.227 1.04 1.04 0 0 1 .39-.074c.34 0 .593.095.763.285.169.19.254.488.254.895 0 .328-.106.63-.317.906-.21.276-.499.565-.863.867-.214.182-.39.374-.531.574-.141.2-.253.42-.336.657a3.656 3.656 0 0 0-.176.777 7.89 7.89 0 0 0-.05.937zm-.321 2.375c0 .188.035.362.105.524.07.161.17.3.301.418.13.117.284.21.46.277.178.068.376.102.595.102.218 0 .416-.034.593-.102.178-.068.331-.16.461-.277a1.2 1.2 0 0 0 .301-.418c.07-.162.106-.336.106-.524a1.3 1.3 0 0 0-.106-.523 1.2 1.2 0 0 0-.3-.418 1.461 1.461 0 0 0-.462-.277 1.651 1.651 0 0 0-.593-.102c-.22 0-.417.034-.594.102a1.46 1.46 0 0 0-.461.277 1.2 1.2 0 0 0-.3.418 1.284 1.284 0 0 0-.106.523z"/></symbol><symbol viewBox="0 0 16 16" id="question-o" xmlns="http://www.w3.org/2000/svg"><path d="M8 16A8 8 0 1 1 8 0a8 8 0 0 1 0 16zm0-2A6 6 0 1 0 8 2a6 6 0 0 0 0 12zm-.778-4.151c0-.301.014-.575.044-.82a3.2 3.2 0 0 1 .154-.68c.073-.208.17-.4.294-.575.123-.176.278-.343.465-.503a4.81 4.81 0 0 0 .755-.758c.185-.242.277-.506.277-.793 0-.356-.074-.617-.222-.783-.148-.166-.37-.25-.667-.25a.92.92 0 0 0-.342.065.806.806 0 0 0-.29.199 1.04 1.04 0 0 0-.209.345 1.5 1.5 0 0 0-.088.506H5.082c.005-.51.092-.948.263-1.313.171-.364.401-.664.69-.899.29-.234.63-.406 1.023-.516a4.66 4.66 0 0 1 1.264-.164c.497 0 .944.058 1.34.174.397.117.733.289 1.008.517.276.227.487.51.633.847.146.337.218.727.218 1.17 0 .295-.042.56-.126.792a2.52 2.52 0 0 1-.349.65 4.4 4.4 0 0 1-.523.584c-.2.19-.414.389-.642.598a2.73 2.73 0 0 0-.332.349c-.089.114-.16.233-.212.359a1.868 1.868 0 0 0-.116.41 3.39 3.39 0 0 0-.044.489H7.222zm-.28 2.078c0-.164.03-.317.092-.458a1.05 1.05 0 0 1 .263-.366c.114-.103.248-.183.403-.243a1.45 1.45 0 0 1 .52-.089c.191 0 .364.03.52.09.154.059.289.14.403.242.114.103.201.224.263.366.061.141.092.294.092.458 0 .164-.03.316-.092.458a1.05 1.05 0 0 1-.263.365 1.278 1.278 0 0 1-.404.243 1.43 1.43 0 0 1-.52.089c-.19 0-.364-.03-.519-.089-.155-.06-.29-.14-.403-.243a1.05 1.05 0 0 1-.263-.365 1.135 1.135 0 0 1-.093-.458z"/></symbol><symbol viewBox="0 0 16 16" id="quote" xmlns="http://www.w3.org/2000/svg"><path d="M15 3v8a3 3 0 0 1-3 3 1 1 0 0 1 0-2 1 1 0 0 0 1-1V9h-2a2 2 0 0 1-2-2V4a2 2 0 0 1 2-2h3a1 1 0 0 1 1 1zM7 3v8a3 3 0 0 1-3 3 1 1 0 0 1 0-2 1 1 0 0 0 1-1V9H3a2 2 0 0 1-2-2V4a2 2 0 0 1 2-2h3a1 1 0 0 1 1 1z"/></symbol><symbol viewBox="0 0 16 16" id="redo" xmlns="http://www.w3.org/2000/svg"><path d="M4.666 4.423a5 5 0 1 1-.203 6.944 1 1 0 1 0-1.478 1.347 7 7 0 1 0 .12-9.556L1.842 2.137a.5.5 0 0 0-.815.385L1 7.26a.5.5 0 0 0 .607.492l4.629-1.013a.5.5 0 0 0 .207-.877L4.666 4.423z"/></symbol><symbol viewBox="0 0 16 16" id="remove" xmlns="http://www.w3.org/2000/svg"><path fill-rule="evenodd" d="M2 3a1 1 0 1 1 0-2h12a1 1 0 0 1 0 2v10a3 3 0 0 1-3 3H5a3 3 0 0 1-3-3V3zm3-2a1 1 0 0 1 1-1h4a1 1 0 0 1 1 1H5zM4 3v10a1 1 0 0 0 1 1h6a1 1 0 0 0 1-1V3H4zm2.5 2a.5.5 0 0 1 .5.5v6a.5.5 0 1 1-1 0v-6a.5.5 0 0 1 .5-.5zm3 0a.5.5 0 0 1 .5.5v6a.5.5 0 1 1-1 0v-6a.5.5 0 0 1 .5-.5z"/></symbol><symbol viewBox="0 0 16 16" id="repeat" xmlns="http://www.w3.org/2000/svg"><path d="M11.494 4.423a5 5 0 1 0 .203 6.944 1 1 0 1 1 1.478 1.347 7 7 0 1 1-.12-9.556l1.262-1.021a.5.5 0 0 1 .815.385l.028 4.738a.5.5 0 0 1-.607.492L9.924 6.739a.5.5 0 0 1-.207-.877l1.777-1.439z"/></symbol><symbol viewBox="0 0 16 16" id="retry" xmlns="http://www.w3.org/2000/svg"><path d="M4.009 6.958a4 4 0 0 0 5.283 4.775 1 1 0 0 1 .712 1.87A6 6 0 0 1 2.077 6.44l-.741-.2a.5.5 0 0 1-.12-.915L3.41 4.058a.5.5 0 0 1 .683.183l1.268 2.196a.5.5 0 0 1-.563.733l-.79-.212zm7.777 2.084a4 4 0 0 0-5.284-4.775 1 1 0 0 1-.711-1.87 6 6 0 0 1 7.927 7.162l.74.2a.5.5 0 0 1 .121.915l-2.196 1.268a.5.5 0 0 1-.683-.183l-1.267-2.196a.5.5 0 0 1 .562-.733l.79.212z"/></symbol><symbol viewBox="0 0 16 16" id="scale" xmlns="http://www.w3.org/2000/svg"><path fill-rule="evenodd" d="M13.99 9a.792.792 0 0 0-.078-.231L13 7l-.912 1.769a.791.791 0 0 0-.077.231h1.978zm-10 0a.792.792 0 0 0-.078-.231L3 7l-.912 1.769A.791.791 0 0 0 2.011 9h1.978zM2 0h12a1 1 0 0 1 0 2H2a1 1 0 1 1 0-2zm3 14h6a1 1 0 0 1 0 2H5a1 1 0 0 1 0-2zM8 4a1 1 0 0 1 1 1v9H7V5a1 1 0 0 1 1-1zm-4.53-.714l2.265 4.735c.68 1.42.006 3.091-1.504 3.73A3.161 3.161 0 0 1 3 12c-1.657 0-3-1.263-3-2.821 0-.4.09-.794.264-1.158L2.53 3.286a.53.53 0 0 1 .94 0zm10 0l2.265 4.735c.68 1.42.006 3.091-1.504 3.73A3.161 3.161 0 0 1 13 12c-1.657 0-3-1.263-3-2.821 0-.4.09-.794.264-1.158l2.266-4.735a.53.53 0 0 1 .94 0z"/></symbol><symbol viewBox="0 0 16 16" id="screen-full" xmlns="http://www.w3.org/2000/svg"><path fill-rule="evenodd" d="M14 14v-2a1 1 0 0 1 2 0v3a.997.997 0 0 1-1 1h-3a1 1 0 0 1 0-2h2zM2 14v-2a1 1 0 0 0-2 0v3a1 1 0 0 0 1 1h3a1 1 0 0 0 0-2H2zM15.707.293A.997.997 0 0 1 16 1v3a1 1 0 0 1-2 0V2h-2a1 1 0 0 1 0-2h3c.276 0 .526.112.707.293zM2 2v2a1 1 0 1 1-2 0V1a.997.997 0 0 1 1-1h3a1 1 0 1 1 0 2H2zm4 4h4a1 1 0 0 1 1 1v2a1 1 0 0 1-1 1H6a1 1 0 0 1-1-1V7a1 1 0 0 1 1-1z"/></symbol><symbol viewBox="0 0 16 16" id="screen-normal" xmlns="http://www.w3.org/2000/svg"><path fill-rule="evenodd" d="M3 3V1a1 1 0 1 1 2 0v3a.997.997 0 0 1-1 1H1a1 1 0 1 1 0-2h2zm10 0h2a1 1 0 0 1 0 2h-3a.997.997 0 0 1-1-1V1a1 1 0 0 1 2 0v2zM3 13H1a1 1 0 0 1 0-2h3a.997.997 0 0 1 1 1v3a1 1 0 0 1-2 0v-2zm10 0v2a1 1 0 0 1-2 0v-3a.997.997 0 0 1 1-1h3a1 1 0 0 1 0 2h-2zM6.5 7h3a.5.5 0 0 1 .5.5v1a.5.5 0 0 1-.5.5h-3a.5.5 0 0 1-.5-.5v-1a.5.5 0 0 1 .5-.5z"/></symbol><symbol viewBox="0 0 16 16" id="search" xmlns="http://www.w3.org/2000/svg"><path d="M8.853 8.854a3.5 3.5 0 1 0-4.95-4.95 3.5 3.5 0 0 0 4.95 4.95zm.207 2.328a5.5 5.5 0 1 1 2.121-2.121l3.329 3.328a1.5 1.5 0 0 1-2.121 2.121L9.06 11.182z"/></symbol><symbol viewBox="0 0 16 16" id="settings" xmlns="http://www.w3.org/2000/svg"><path fill-rule="evenodd" d="M2.415 5.803L1.317 4.084A.5.5 0 0 1 1.35 3.5l.805-.994a.5.5 0 0 1 .564-.153l1.878.704a5.975 5.975 0 0 1 1.65-.797L6.885.342A.5.5 0 0 1 7.36 0h1.28a.5.5 0 0 1 .474.342l.639 1.918a5.97 5.97 0 0 1 1.65.797l1.877-.704a.5.5 0 0 1 .565.153l.805.994a.5.5 0 0 1 .032.584l-1.097 1.719c.217.551.354 1.143.399 1.76l1.731 1.058a.5.5 0 0 1 .227.54l-.288 1.246a.5.5 0 0 1-.44.385l-2.008.19a6.026 6.026 0 0 1-1.142 1.431l.265 1.995a.5.5 0 0 1-.277.516l-1.15.56a.5.5 0 0 1-.576-.1l-1.424-1.452a6.047 6.047 0 0 1-1.804 0l-1.425 1.453a.5.5 0 0 1-.576.1l-1.15-.561a.5.5 0 0 1-.276-.516l.265-1.995a6.026 6.026 0 0 1-1.143-1.43l-2.008-.191a.5.5 0 0 1-.44-.385L.058 9.16a.5.5 0 0 1 .226-.539l1.732-1.058a5.968 5.968 0 0 1 .399-1.76zM8 11a3 3 0 1 0 0-6 3 3 0 0 0 0 6z"/></symbol><symbol viewBox="0 0 16 16" id="shield" xmlns="http://www.w3.org/2000/svg"><path d="M4 0h8a3 3 0 0 1 3 3v7.186a3 3 0 0 1-1.426 2.554l-4 2.465a3 3 0 0 1-3.148 0l-4-2.465A3 3 0 0 1 1 10.186V3a3 3 0 0 1 3-3zm0 2a1 1 0 0 0-1 1v7.186a1 1 0 0 0 .475.852l4 2.464a1 1 0 0 0 1.05 0l4-2.464a1 1 0 0 0 .475-.852V3a1 1 0 0 0-1-1H4zm0 1.5a.5.5 0 0 1 .5-.5h4v8.837a.5.5 0 0 1-.753.431l-3.5-2.052A.5.5 0 0 1 4 9.785V3.5z"/></symbol><symbol viewBox="0 0 16 16" id="slight-frown" xmlns="http://www.w3.org/2000/svg"><path d="M8 16A8 8 0 1 1 8 0a8 8 0 0 1 0 16zm0-2A6 6 0 1 0 8 2a6 6 0 0 0 0 12zm-2.163-3.275a2.499 2.499 0 0 1 4.343.03.5.5 0 0 1-.871.49 1.5 1.5 0 0 0-2.607-.018.5.5 0 1 1-.865-.502zM5 8a1 1 0 1 1 0-2 1 1 0 0 1 0 2zm6 0a1 1 0 1 1 0-2 1 1 0 0 1 0 2z"/></symbol><symbol viewBox="0 0 16 16" id="slight-smile" xmlns="http://www.w3.org/2000/svg"><path d="M8 16A8 8 0 1 1 8 0a8 8 0 0 1 0 16zm0-2A6 6 0 1 0 8 2a6 6 0 0 0 0 12zM5 8a1 1 0 1 1 0-2 1 1 0 0 1 0 2zm6 0a1 1 0 1 1 0-2 1 1 0 0 1 0 2zm-5.163 2.254a.5.5 0 1 1 .865-.502 1.499 1.499 0 0 0 2.607-.018.5.5 0 1 1 .871.49 2.499 2.499 0 0 1-4.343.03z"/></symbol><symbol viewBox="0 0 16 16" id="smile" xmlns="http://www.w3.org/2000/svg"><path d="M8 16A8 8 0 1 1 8 0a8 8 0 0 1 0 16zm0-2A6 6 0 1 0 8 2a6 6 0 0 0 0 12zM6.18 6.27a.5.5 0 0 1-.873.487.5.5 0 0 0-.872-.003.5.5 0 1 1-.87-.495 1.5 1.5 0 0 1 2.616.012zm6 0a.5.5 0 1 1-.873.487.5.5 0 0 0-.872-.003.5.5 0 1 1-.87-.495 1.5 1.5 0 0 1 2.616.012zM5 9a3 3 0 0 0 6 0H5z"/></symbol><symbol viewBox="0 0 16 16" id="smiley" xmlns="http://www.w3.org/2000/svg"><path d="M8 16A8 8 0 1 1 8 0a8 8 0 0 1 0 16zm0-2A6 6 0 1 0 8 2a6 6 0 0 0 0 12zM5 8a1 1 0 1 1 0-2 1 1 0 0 1 0 2zm6 0a1 1 0 1 1 0-2 1 1 0 0 1 0 2zM5 9h6a3 3 0 0 1-6 0z"/></symbol><symbol viewBox="0 0 16 16" id="snippet" xmlns="http://www.w3.org/2000/svg"><path d="M10.67 9.31a3.001 3.001 0 0 1 2.062 5.546 3 3 0 0 1-3.771-4.559 1.007 1.007 0 0 1-.095-.137l-4.5-7.794a1 1 0 0 1 1.732-1l4.5 7.794c.028.05.052.1.071.15zm-3.283.35l-.289.5c-.028.05-.06.095-.095.137a3.001 3.001 0 0 1-3.77 4.56A3 3 0 0 1 5.294 9.31c.02-.051.043-.102.071-.15l.866-1.5 1.155 2zm2.31-4l-1.156-2 1.325-2.294a1 1 0 0 1 1.732 1L9.696 5.66zm-5.465 7.464a1 1 0 1 0 1-1.732 1 1 0 0 0-1 1.732zm7.5 0a1 1 0 1 0-1-1.732 1 1 0 0 0 1 1.732z"/></symbol><symbol viewBox="0 0 16 16" id="spam" xmlns="http://www.w3.org/2000/svg"><path d="M8.75.433l5.428 3.134a1.5 1.5 0 0 1 .75 1.299v6.268a1.5 1.5 0 0 1-.75 1.299L8.75 15.567a1.5 1.5 0 0 1-1.5 0l-5.428-3.134a1.5 1.5 0 0 1-.75-1.299V4.866a1.5 1.5 0 0 1 .75-1.299L7.25.433a1.5 1.5 0 0 1 1.5 0zM3.072 5.155v5.69L8 13.691l4.928-2.846v-5.69L8 2.309 3.072 5.155zM8 4a1 1 0 0 1 1 1v3a1 1 0 1 1-2 0V5a1 1 0 0 1 1-1zm0 8a1 1 0 1 1 0-2 1 1 0 0 1 0 2z"/></symbol><symbol viewBox="0 0 16 16" id="star" xmlns="http://www.w3.org/2000/svg"><path fill-rule="evenodd" d="M7.609 14.394l-3.465 1.473a1 1 0 0 1-1.39-.989l.276-4.024a1 1 0 0 0-.219-.694L.303 7.037A1 1 0 0 1 .83 5.443l3.715-.964a1 1 0 0 0 .609-.457L7.14.682a1 1 0 0 1 1.72 0l1.985 3.34a1 1 0 0 0 .609.457l3.715.964a1 1 0 0 1 .528 1.594L13.19 10.16a1 1 0 0 0-.219.694l.275 4.024a1 1 0 0 1-1.389.989l-3.465-1.473a1 1 0 0 0-.782 0z"/></symbol><symbol viewBox="0 0 16 16" id="star-o" xmlns="http://www.w3.org/2000/svg"><path d="M10.975 10.99a3 3 0 0 1 .655-2.083l1.54-1.916-2.219-.576a3 3 0 0 1-1.825-1.37L8 3.15 6.874 5.044a3 3 0 0 1-1.825 1.371l-2.218.576 1.54 1.916a3 3 0 0 1 .654 2.083l-.165 2.4 1.965-.836a3 3 0 0 1 2.348 0l1.965.836-.164-2.399zM7.61 14.394l-3.465 1.473a1 1 0 0 1-1.39-.989l.276-4.024a1 1 0 0 0-.219-.694L.303 7.037A1 1 0 0 1 .83 5.443l3.715-.964a1 1 0 0 0 .609-.457L7.14.682a1 1 0 0 1 1.72 0l1.985 3.34a1 1 0 0 0 .609.457l3.715.964a1 1 0 0 1 .528 1.594L13.19 10.16a1 1 0 0 0-.219.694l.275 4.024a1 1 0 0 1-1.389.989l-3.465-1.473a1 1 0 0 0-.782 0z"/></symbol><symbol viewBox="0 0 16 16" id="stop" xmlns="http://www.w3.org/2000/svg"><path fill-rule="evenodd" d="M2 0h12a2 2 0 0 1 2 2v12a2 2 0 0 1-2 2H2a2 2 0 0 1-2-2V2a2 2 0 0 1 2-2z"/></symbol><symbol viewBox="0 0 16 16" id="talic" xmlns="http://www.w3.org/2000/svg"><path fill-rule="evenodd" d="M6 0h7a1 1 0 0 1 0 2H6a1 1 0 1 1 0-2zm2 2h3L8 14H5L8 2zM3 14h7a1 1 0 0 1 0 2H3a1 1 0 0 1 0-2z"/></symbol><symbol viewBox="0 0 16 16" id="task-done" xmlns="http://www.w3.org/2000/svg"><path d="M7.536 8.657l2.828-2.829a1 1 0 0 1 1.414 1.415l-3.535 3.535a.997.997 0 0 1-1.415 0l-2.12-2.121A1 1 0 0 1 6.12 7.243l1.415 1.414zM3 0h10a3 3 0 0 1 3 3v10a3 3 0 0 1-3 3H3a3 3 0 0 1-3-3V3a3 3 0 0 1 3-3zm0 2a1 1 0 0 0-1 1v10a1 1 0 0 0 1 1h10a1 1 0 0 0 1-1V3a1 1 0 0 0-1-1H3z"/></symbol><symbol viewBox="0 0 16 16" id="template" xmlns="http://www.w3.org/2000/svg"><path d="M3 0h10a3 3 0 0 1 3 3v10a3 3 0 0 1-3 3H3a3 3 0 0 1-3-3V3a3 3 0 0 1 3-3zm0 2a1 1 0 0 0-1 1v10a1 1 0 0 0 1 1h10a1 1 0 0 0 1-1V3a1 1 0 0 0-1-1H3zm.8 2h2.4a.8.8 0 0 1 .8.8v1.4a.8.8 0 0 1-.8.8H3.8a.8.8 0 0 1-.8-.8V4.8a.8.8 0 0 1 .8-.8zm4.7 0h4a.5.5 0 1 1 0 1h-4a.5.5 0 0 1 0-1zm0 2h4a.5.5 0 1 1 0 1h-4a.5.5 0 0 1 0-1zm-5 3h9a.5.5 0 1 1 0 1h-9a.5.5 0 0 1 0-1zm0 2h9a.5.5 0 1 1 0 1h-9a.5.5 0 1 1 0-1z"/></symbol><symbol viewBox="0 0 16 16" id="thump-down" xmlns="http://www.w3.org/2000/svg"><path fill-rule="evenodd" d="M8.33 11h5.282a2 2 0 0 0 1.963-2.38l-.563-2.905a3 3 0 0 0-.243-.732l-1.103-2.286A3 3 0 0 0 10.964 1H7a3 3 0 0 0-3 3v6.3a2 2 0 0 0 .436 1.247l3.11 3.9a.632.632 0 0 0 .941.053l.137-.137a1 1 0 0 0 .28-.87L8.329 11zM1 10h2V3H1a1 1 0 0 0-1 1v5a1 1 0 0 0 1 1z"/></symbol><symbol viewBox="0 0 16 16" id="thump-up" xmlns="http://www.w3.org/2000/svg"><path fill-rule="evenodd" d="M8.33 5h5.282a2 2 0 0 1 1.963 2.38l-.563 2.905a3 3 0 0 1-.243.732l-1.103 2.286A3 3 0 0 1 10.964 15H7a3 3 0 0 1-3-3V5.7a2 2 0 0 1 .436-1.247l3.11-3.9A.632.632 0 0 1 8.487.5l.137.137a1 1 0 0 1 .28.87L8.329 5zM1 6h2v7H1a1 1 0 0 1-1-1V7a1 1 0 0 1 1-1z"/></symbol><symbol viewBox="0 0 16 16" id="timer" xmlns="http://www.w3.org/2000/svg"><path d="M12.022 3.27l.77-.77a1 1 0 0 1 1.415 1.414l-.728.729a7 7 0 1 1-1.456-1.372zM8 14A5 5 0 1 0 8 4a5 5 0 0 0 0 10zm0-9a1 1 0 0 1 1 1v2a1 1 0 1 1-2 0V6a1 1 0 0 1 1-1zM6 0h4a1 1 0 0 1 0 2H6a1 1 0 1 1 0-2z"/></symbol><symbol viewBox="0 0 16 16" id="todo-add" xmlns="http://www.w3.org/2000/svg"><path fill-rule="evenodd" d="M10 4V2a1 1 0 0 1 2 0v2h2a1 1 0 0 1 0 2h-2v2a1 1 0 0 1-2 0V6H8a1 1 0 1 1 0-2h2zm2 7a1 1 0 0 1 2 0v2a3 3 0 0 1-3 3H3a3 3 0 0 1-3-3V5a3 3 0 0 1 3-3h2a1 1 0 1 1 0 2H3a1 1 0 0 0-1 1v8a1 1 0 0 0 1 1h8a1 1 0 0 0 1-1v-2z"/></symbol><symbol viewBox="0 0 16 16" id="todo-done" xmlns="http://www.w3.org/2000/svg"><path d="M8.243 7.485l4.95-4.95a1 1 0 1 1 1.414 1.415L8.95 9.607a.997.997 0 0 1-1.414 0L4.707 6.778a1 1 0 0 1 1.414-1.414l2.122 2.121zM12 11a1 1 0 0 1 2 0v2a3 3 0 0 1-3 3H3a3 3 0 0 1-3-3V5a3 3 0 0 1 3-3h2a1 1 0 1 1 0 2H3a1 1 0 0 0-1 1v8a1 1 0 0 0 1 1h8a1 1 0 0 0 1-1v-2z"/></symbol><symbol viewBox="0 0 16 16" id="token" xmlns="http://www.w3.org/2000/svg"><path d="M3 2h10a3 3 0 0 1 3 3v6a3 3 0 0 1-3 3H3a3 3 0 0 1-3-3V5a3 3 0 0 1 3-3zm0 2a1 1 0 0 0-1 1v6a1 1 0 0 0 1 1h10a1 1 0 0 0 1-1V5a1 1 0 0 0-1-1H3zm1 5a1 1 0 1 1 0-2 1 1 0 0 1 0 2zm4 0a1 1 0 1 1 0-2 1 1 0 0 1 0 2zm4 0a1 1 0 1 1 0-2 1 1 0 0 1 0 2z"/></symbol><symbol viewBox="0 0 16 16" id="unapproval" xmlns="http://www.w3.org/2000/svg"><path fill-rule="evenodd" d="M11.95 8.536l1.06-1.061a1 1 0 0 1 1.415 1.414l-1.061 1.06 1.06 1.061a1 1 0 0 1-1.414 1.415l-1.06-1.061-1.06 1.06a1 1 0 1 1-1.415-1.414l1.06-1.06-1.06-1.06a1 1 0 0 1 1.414-1.415l1.06 1.06zm-3.768-.33c.006.503.201 1.006.586 1.39l.353.354-.353.353a2 2 0 1 0 2.828 2.829l.354-.354.047.048C11.964 14.363 11.527 15 6 15c-5.924 0-6-.78-6-2.52S.964 8 6 8c.834 0 1.557.074 2.182.205zM5.976 7a3 3 0 1 1 0-6 3 3 0 0 1 0 6z"/></symbol><symbol viewBox="0 0 16 16" id="unassignee" xmlns="http://www.w3.org/2000/svg"><path fill-rule="evenodd" d="M11 5h4a1 1 0 0 1 0 2h-4a1 1 0 0 1 0-2zM5.976 7a3 3 0 1 1 0-6 3 3 0 0 1 0 6zM6 15c-5.924 0-6-.78-6-2.52S.964 8 6 8s6 2.692 6 4.48c0 1.788-.076 2.52-6 2.52z"/></symbol><symbol viewBox="0 0 16 16" id="unlink" xmlns="http://www.w3.org/2000/svg"><path d="M11.295 8.845l-.659-1.664a1.78 1.78 0 0 0 .04-.04l1.415-1.414c.586-.586.654-1.468.152-1.97s-1.384-.434-1.97.152L8.859 5.323a1.781 1.781 0 0 0-.04.04l-1.664-.658c.141-.208.305-.408.491-.594l1.415-1.414c1.366-1.367 3.424-1.525 4.596-.354 1.171 1.172 1.013 3.23-.354 4.596L11.89 8.354c-.186.186-.386.35-.594.491zm-2.45 2.45a4.075 4.075 0 0 1-.491.594l-1.415 1.414c-1.366 1.367-3.424 1.525-4.596.354-1.171-1.172-1.013-3.23.354-4.596L4.11 7.646c.186-.186.386-.35.594-.491l.659 1.664a1.781 1.781 0 0 0-.04.04l-1.415 1.414c-.586.586-.654 1.468-.152 1.97s1.384.434 1.97-.152l1.414-1.414a1.78 1.78 0 0 0 .04-.04l1.664.658zm3.812-2.088h2a.5.5 0 0 1 .5.5v.05a.5.5 0 0 1-.5.5h-2a.5.5 0 0 1-.5-.5v-.05a.5.5 0 0 1 .5-.5zm-.384 2.116l1.415 1.414a.5.5 0 0 1 0 .708l-.037.036a.5.5 0 0 1-.707 0l-1.414-1.414a.5.5 0 0 1 0-.707l.036-.037a.5.5 0 0 1 .707 0zm-2.823 1.09a.5.5 0 0 1 .5-.5h.052a.5.5 0 0 1 .5.5v2a.5.5 0 0 1-.5.5H9.95a.5.5 0 0 1-.5-.5v-2zm-2.748-9.16a.5.5 0 0 1-.5.5h-.05a.5.5 0 0 1-.5-.5v-2a.5.5 0 0 1 .5-.5h.05a.5.5 0 0 1 .5.5v2zm-2.116.383a.5.5 0 0 1 0 .707l-.036.036a.5.5 0 0 1-.707 0L2.428 2.965a.5.5 0 0 1 0-.707l.037-.036a.5.5 0 0 1 .707 0l1.414 1.414zm-1.09 2.823h-2a.5.5 0 0 1-.5-.5v-.051a.5.5 0 0 1 .5-.5h2a.5.5 0 0 1 .5.5v.05a.5.5 0 0 1-.5.5z"/></symbol><symbol viewBox="0 0 16 16" id="user" xmlns="http://www.w3.org/2000/svg"><path fill-rule="evenodd" d="M8 7a3 3 0 1 1 0-6 3 3 0 0 1 0 6zm0 8c-6.888 0-6.976-.78-6.976-2.52S2.144 8 8 8s6.976 2.692 6.976 4.48c0 1.788-.088 2.52-6.976 2.52z"/></symbol><symbol viewBox="0 0 16 16" id="users" xmlns="http://www.w3.org/2000/svg"><path fill-rule="evenodd" d="M10.521 8.01C15.103 8.19 16 10.755 16 12.48c0 1.533-.056 2.29-3.808 2.475.609-.54.808-1.331.808-2.475 0-1.911-.804-3.503-2.479-4.47zm-1.67-1.228A3.987 3.987 0 0 0 9.976 4a3.987 3.987 0 0 0-1.125-2.782 3 3 0 1 1 0 5.563zM5.976 7a3 3 0 1 1 0-6 3 3 0 0 1 0 6zM6 15c-5.924 0-6-.78-6-2.52S.964 8 6 8s6 2.692 6 4.48c0 1.788-.076 2.52-6 2.52z"/></symbol><symbol viewBox="0 0 16 16" id="volume-up" xmlns="http://www.w3.org/2000/svg"><path fill-rule="evenodd" d="M1 5h1v6H1a1 1 0 0 1-1-1V6a1 1 0 0 1 1-1zm2 0l4.445-2.964A1 1 0 0 1 9 2.87v10.26a1 1 0 0 1-1.555.833L3 11V5zm10.283 7.89a.5.5 0 0 1-.66-.752A5.485 5.485 0 0 0 14.5 8c0-1.601-.687-3.09-1.865-4.128a.5.5 0 0 1 .661-.75A6.484 6.484 0 0 1 15.5 8a6.485 6.485 0 0 1-2.217 4.89zm-2.002-2.236a.5.5 0 1 1-.652-.758c.55-.472.871-1.157.871-1.896 0-.732-.315-1.411-.856-1.883a.5.5 0 0 1 .658-.753A3.492 3.492 0 0 1 12.5 8c0 1.033-.45 1.994-1.219 2.654z"/></symbol><symbol viewBox="0 0 16 16" id="warning" xmlns="http://www.w3.org/2000/svg"><path d="M15.34 10.479A3 3 0 0 1 12.756 15h-9.51A3 3 0 0 1 .66 10.479l4.755-8.083a3 3 0 0 1 5.172 0l4.755 8.083zm-6.478-7.07a1 1 0 0 0-1.724 0l-4.755 8.084A1 1 0 0 0 3.245 13h9.51a1 1 0 0 0 .862-1.507L8.862 3.41zM8 5a1 1 0 0 1 1 1v2a1 1 0 1 1-2 0V6a1 1 0 0 1 1-1zm0 7a1 1 0 1 1 0-2 1 1 0 0 1 0 2z"/></symbol><symbol viewBox="0 0 16 16" id="work" xmlns="http://www.w3.org/2000/svg"><path d="M12 3h1a3 3 0 0 1 3 3v7a3 3 0 0 1-3 3H3a3 3 0 0 1-3-3V6a3 3 0 0 1 3-3h1V2a2 2 0 0 1 2-2h4a2 2 0 0 1 2 2v1zM6 2v1h4V2H6zM3 5a1 1 0 0 0-1 1v7a1 1 0 0 0 1 1h10a1 1 0 0 0 1-1V6a1 1 0 0 0-1-1H3zm1.5 1a.5.5 0 0 1 .5.5v6a.5.5 0 1 1-1 0v-6a.5.5 0 0 1 .5-.5zm7 0a.5.5 0 0 1 .5.5v6a.5.5 0 1 1-1 0v-6a.5.5 0 0 1 .5-.5z"/></symbol></svg>