<svg width="12" height="15" viewBox="0 0 12 15" xmlns="http://www.w3.org/2000/svg"><path d="M10.267 11.028V5.167c-.028-.728-.318-1.372-.878-1.923-.56-.55-1.194-.85-1.922-.877h-.934V.5l-2.8 2.8 2.8 2.8V4.233h.934a.976.976 0 0 1 .644.29.88.88 0 0 1 .289.644v5.861a1.86 1.86 0 0 0 .933 3.472 1.86 1.86 0 0 0 .934-3.472zM3.733 3.3a1.86 1.86 0 0 0-1.866-1.867 1.86 1.86 0 0 0-.934 3.472v6.123a1.86 1.86 0 0 0 .933 3.472 1.86 1.86 0 0 0 .934-3.472V4.905c.55-.317.933-.914.933-1.605z" fill-rule="nonzero"/></svg>
