<svg width="24" height="30" viewBox="0 0 24 30" xmlns="http://www.w3.org/2000/svg"><title>cursor</title><g fill="none" fill-rule="evenodd"><path d="M24 12.105c0 6.686-5.74 11.58-12 17.895C5.74 23.684 0 18.79 0 12.105 0 5.42 5.373 0 12 0s12 5.42 12 12.105z" fill="#1F78D1" fill-rule="nonzero"/><path d="M15.28 25.249c1.458-1.475 2.539-2.635 3.474-3.747 2.851-3.394 4.203-6.265 4.203-9.397 0-6.111-4.908-11.062-10.957-11.062-6.05 0-10.957 4.951-10.957 11.062 0 3.132 1.352 6.003 4.203 9.397.935 1.112 2.016 2.272 3.474 3.747.511.517 2.216 2.213 3.28 3.275 1.064-1.062 2.769-2.758 3.28-3.275z" fill="#FFF"/><path d="M14.551 8.256A6.874 6.874 0 0 0 12 7.787c-.91 0-1.763.156-2.558.469-.79.308-1.42.725-1.888 1.252-.465.527-.697 1.096-.697 1.708 0 .5.159.977.476 1.433.321.45.772.841 1.352 1.172l.583.334-.181.643c-.107.407-.263.79-.469 1.152a6.604 6.604 0 0 0 1.842-1.145l.288-.254.381.04c.309.035.599.053.871.053.91 0 1.761-.154 2.551-.462.795-.312 1.424-.732 1.889-1.259.468-.526.703-1.096.703-1.707 0-.612-.235-1.181-.703-1.708-.465-.527-1.094-.944-1.889-1.252zm2.645.81c.536.656.804 1.373.804 2.15 0 .776-.268 1.495-.804 2.156-.535.656-1.263 1.176-2.183 1.56-.92.38-1.924.57-3.013.57a9.16 9.16 0 0 1-.971-.054 7.32 7.32 0 0 1-3.08 1.62 5.044 5.044 0 0 1-.764.148h-.033a.26.26 0 0 1-.181-.074.324.324 0 0 1-.107-.18v-.007c-.014-.018-.016-.045-.007-.08.014-.037.018-.059.014-.068 0-.009.01-.031.033-.067a.645.645 0 0 0 .04-.06 1.73 1.73 0 0 0 .047-.054l.054-.06a53.034 53.034 0 0 1 .435-.489c.049-.049.118-.136.207-.26.094-.126.168-.24.221-.342.054-.103.114-.235.181-.395.067-.161.125-.33.174-.51-.7-.397-1.254-.888-1.66-1.473A3.261 3.261 0 0 1 6 11.216c0-.777.268-1.494.804-2.15.535-.66 1.263-1.18 2.183-1.56.92-.384 1.924-.576 3.013-.576 1.09 0 2.094.192 3.013.576.92.38 1.648.9 2.183 1.56z" fill="#1F78D1" fill-rule="nonzero"/></g></svg>
