<?xml version="1.0" encoding="utf-8"?><svg xmlns="http://www.w3.org/2000/svg" xmlns:xlink="http://www.w3.org/1999/xlink"><symbol viewBox="0 0 16 16" id="abuse" xmlns="http://www.w3.org/2000/svg"><path d="M11.408.328l4.029 3.222A1.5 1.5 0 0 1 16 4.72v6.555a1.5 1.5 0 0 1-.563 1.171l-4.026 3.224a1.5 1.5 0 0 1-.937.329H5.529a1.5 1.5 0 0 1-.937-.328L.563 12.45A1.5 1.5 0 0 1 0 11.28V4.724a1.5 1.5 0 0 1 .563-1.171L4.589.329A1.5 1.5 0 0 1 5.526 0h4.945c.34 0 .67.116.937.328zM10.296 2H5.702L2 4.964v6.074L5.704 14h4.594L14 11.036V4.962L10.296 2zM8 4a1 1 0 0 1 1 1v3a1 1 0 1 1-2 0V5a1 1 0 0 1 1-1zm0 8a1 1 0 1 1 0-2 1 1 0 0 1 0 2z"/></symbol><symbol viewBox="0 0 16 16" id="account" xmlns="http://www.w3.org/2000/svg"><path fill-rule="evenodd" d="M9.195 9.965l-.568-.875a.25.25 0 0 1 .015-.294l.405-.5a.25.25 0 0 1 .283-.075l.938.36c.257-.183.543-.325.851-.42l.322-.988A.25.25 0 0 1 11.679 7h.642a.25.25 0 0 1 .238.173l.322.988c.308.095.594.237.851.42l.938-.36a.25.25 0 0 1 .283.076l.405.5a.25.25 0 0 1 .015.293l-.568.875c.113.297.18.616.193.95l.898.54a.25.25 0 0 1 .115.27l-.144.626a.25.25 0 0 1-.222.193l-1.115.098a3.015 3.015 0 0 1-.512.608l.165 1.18a.25.25 0 0 1-.138.259l-.577.281a.25.25 0 0 1-.29-.05l-.874-.905a3.035 3.035 0 0 1-.608 0l-.875.904a.25.25 0 0 1-.289.051l-.577-.281a.25.25 0 0 1-.138-.26l.165-1.18a3.015 3.015 0 0 1-.512-.607l-1.115-.098a.25.25 0 0 1-.222-.193l-.144-.626a.25.25 0 0 1 .115-.27l.898-.54c.013-.334.08-.653.193-.95zM6.789 8.023A12.845 12.845 0 0 0 6 8c-5.036 0-6 2.74-6 4.48C0 14.22.076 15 6 15c.553 0 1.055-.006 1.51-.02A5.977 5.977 0 0 1 6 11c0-1.083.287-2.1.79-2.977zM5.976 7a3 3 0 1 1 0-6 3 3 0 0 1 0 6zM12 12a1 1 0 1 0 0-2 1 1 0 0 0 0 2z"/></symbol><symbol viewBox="0 0 16 16" id="admin" xmlns="http://www.w3.org/2000/svg"><path fill-rule="evenodd" d="M13.162 2.5a3.5 3.5 0 0 1-3.163 5.479L6.08 14.766a1.5 1.5 0 0 1-2.598-1.5L7.4 6.479A3.5 3.5 0 0 1 10.564 1L8.9 3.88l2.599 1.5 1.663-2.88zm-8.63 11.949a.5.5 0 1 0 .5-.866.5.5 0 0 0-.5.866z"/></symbol><symbol viewBox="0 0 16 16" id="angle-double-left" xmlns="http://www.w3.org/2000/svg"><path fill-rule="evenodd" d="M10.414 7.95l4.243-4.243a1 1 0 0 0-1.414-1.414l-4.95 4.95a.997.997 0 0 0 0 1.414l4.95 4.95a1 1 0 1 0 1.414-1.415L10.414 7.95zm-7 0l4.243-4.243a1 1 0 0 0-1.414-1.414l-4.95 4.95a.997.997 0 0 0 0 1.414l4.95 4.95a1 1 0 0 0 1.414-1.415L3.414 7.95z"/></symbol><symbol viewBox="0 0 16 16" id="angle-double-right" xmlns="http://www.w3.org/2000/svg"><path fill-rule="evenodd" d="M5.536 7.95L1.293 3.707a1 1 0 0 1 1.414-1.414l4.95 4.95a.997.997 0 0 1 0 1.414l-4.95 4.95a1 1 0 1 1-1.414-1.415L5.536 7.95zm7 0L8.293 3.707a1 1 0 0 1 1.414-1.414l4.95 4.95a.997.997 0 0 1 0 1.414l-4.95 4.95a1 1 0 0 1-1.414-1.415l4.243-4.242z"/></symbol><symbol viewBox="0 0 16 16" id="angle-down" xmlns="http://www.w3.org/2000/svg"><path fill-rule="evenodd" d="M8 10.243l-4.95-4.95a1 1 0 0 0-1.414 1.414l5.657 5.657a.997.997 0 0 0 1.414 0l5.657-5.657a1 1 0 0 0-1.414-1.414L8 10.243z"/></symbol><symbol viewBox="0 0 16 16" id="angle-left" xmlns="http://www.w3.org/2000/svg"><path fill-rule="evenodd" d="M5.757 8l4.95-4.95a1 1 0 1 0-1.414-1.414L3.636 7.293a.997.997 0 0 0 0 1.414l5.657 5.657a1 1 0 0 0 1.414-1.414L5.757 8z"/></symbol><symbol viewBox="0 0 16 16" id="angle-right" xmlns="http://www.w3.org/2000/svg"><path fill-rule="evenodd" d="M10.243 8l-4.95-4.95a1 1 0 0 1 1.414-1.414l5.657 5.657a.997.997 0 0 1 0 1.414l-5.657 5.657a1 1 0 0 1-1.414-1.414L10.243 8z"/></symbol><symbol viewBox="0 0 16 16" id="angle-up" xmlns="http://www.w3.org/2000/svg"><path fill-rule="evenodd" d="M8 6.757l-4.95 4.95a1 1 0 1 1-1.414-1.414l5.657-5.657a.997.997 0 0 1 1.414 0l5.657 5.657a1 1 0 0 1-1.414 1.414L8 6.757z"/></symbol><symbol viewBox="0 0 16 16" id="appearance" xmlns="http://www.w3.org/2000/svg"><path d="M11.161 12.456l.232.121c.1.053.175.094.249.137.53.318.844.75.857 1.402.012 1.397-1.116 1.756-3.12 1.858a23.85 23.85 0 0 1-1.38.026A8 8 0 0 1 0 8a8 8 0 0 1 8-8c4.417 0 7.998 3.582 7.998 7.977.06 2.621-1.312 3.586-4.48 3.648-.602.008-1.068.043-1.4.104.228.192.598.47 1.043.727zm-3.287-.943c-.019-1.495 1.228-1.856 3.611-1.888C13.67 9.582 14.028 9.33 13.998 8A6 6 0 1 0 8 14c.603 0 .91-.004 1.277-.023a9.7 9.7 0 0 0 .478-.035c-1.172-.738-1.868-1.47-1.88-2.43zM6 5a1 1 0 1 1 0-2 1 1 0 0 1 0 2zm6 3a1 1 0 1 1 0-2 1 1 0 0 1 0 2zm-2-3a1 1 0 1 1 0-2 1 1 0 0 1 0 2zM4 8a1 1 0 1 1 0-2 1 1 0 0 1 0 2z"/></symbol><symbol viewBox="0 0 16 16" id="applications" xmlns="http://www.w3.org/2000/svg"><path fill-rule="evenodd" d="M1 0h2a1 1 0 0 1 1 1v2a1 1 0 0 1-1 1H1a1 1 0 0 1-1-1V1a1 1 0 0 1 1-1zm0 6h2a1 1 0 0 1 1 1v2a1 1 0 0 1-1 1H1a1 1 0 0 1-1-1V7a1 1 0 0 1 1-1zm6-6h2a1 1 0 0 1 1 1v2a1 1 0 0 1-1 1H7a1 1 0 0 1-1-1V1a1 1 0 0 1 1-1zm0 1v2h2V1H7zm0 5h2a1 1 0 0 1 1 1v2a1 1 0 0 1-1 1H7a1 1 0 0 1-1-1V7a1 1 0 0 1 1-1zm6-6h2a1 1 0 0 1 1 1v2a1 1 0 0 1-1 1h-2a1 1 0 0 1-1-1V1a1 1 0 0 1 1-1zm0 6h2a1 1 0 0 1 1 1v2a1 1 0 0 1-1 1h-2a1 1 0 0 1-1-1V7a1 1 0 0 1 1-1zm0 1v2h2V7h-2zM1 12h2a1 1 0 0 1 1 1v2a1 1 0 0 1-1 1H1a1 1 0 0 1-1-1v-2a1 1 0 0 1 1-1zm0 1v2h2v-2H1zm6-1h2a1 1 0 0 1 1 1v2a1 1 0 0 1-1 1H7a1 1 0 0 1-1-1v-2a1 1 0 0 1 1-1zm6 0h2a1 1 0 0 1 1 1v2a1 1 0 0 1-1 1h-2a1 1 0 0 1-1-1v-2a1 1 0 0 1 1-1z"/></symbol><symbol viewBox="0 0 16 16" id="approval" xmlns="http://www.w3.org/2000/svg"><path fill-rule="evenodd" d="M10.536 10.657l2.828-2.829a1 1 0 0 1 1.414 1.415l-3.535 3.535a.997.997 0 0 1-1.415 0l-2.12-2.121A1 1 0 1 1 9.12 9.243l1.415 1.414zM7.632 8.109A2 2 0 0 0 7 11.364l2.121 2.121a1.996 1.996 0 0 0 2.807.021C11.686 14.554 10.627 15 6 15c-5.924 0-6-.78-6-2.52S.964 8 6 8c.6 0 1.142.038 1.632.109zM5.976 7a3 3 0 1 1 0-6 3 3 0 0 1 0 6z"/></symbol><symbol viewBox="0 0 16 16" id="arrow-down" xmlns="http://www.w3.org/2000/svg"><path d="M10.472 7.282a.862.862 0 0 1 1.26-.006c.357.364.357.958 0 1.285L8.627 11.73A.886.886 0 0 1 8 12a.849.849 0 0 1-.627-.27L4.275 8.561a.904.904 0 0 1-.013-1.285.861.861 0 0 1 1.26-.007l2.486 2.527z"/></symbol><symbol viewBox="0 0 16 16" id="arrow-right" xmlns="http://www.w3.org/2000/svg"><path fill-rule="evenodd" d="M9 6H2a2 2 0 1 0 0 4h7v2.586a1 1 0 0 0 1.707.707l4.586-4.586a1 1 0 0 0 0-1.414l-4.586-4.586A1 1 0 0 0 9 3.414V6z"/></symbol><symbol viewBox="0 0 16 16" id="assignee" xmlns="http://www.w3.org/2000/svg"><path fill-rule="evenodd" d="M12 5V4a1 1 0 0 1 2 0v1h1a1 1 0 0 1 0 2h-1v1a1 1 0 0 1-2 0V7h-1a1 1 0 0 1 0-2h1zM5.976 7a3 3 0 1 1 0-6 3 3 0 0 1 0 6zM6 15c-5.924 0-6-.78-6-2.52S.964 8 6 8s6 2.692 6 4.48c0 1.788-.076 2.52-6 2.52z"/></symbol><symbol viewBox="0 0 16 16" id="blame" xmlns="http://www.w3.org/2000/svg"><path fill-rule="evenodd" d="M2 4h3a1 1 0 1 1 0 2H2a1 1 0 1 1 0-2zm9 3h3a1 1 0 0 1 0 2h-3a1 1 0 0 1 0-2zm-9 3h3a1 1 0 0 1 0 2H2a1 1 0 0 1 0-2zm9 0h3a1 1 0 0 1 0 2h-3a1 1 0 0 1 0-2zm0-6h3a1 1 0 0 1 0 2h-3a1 1 0 0 1 0-2zM2 7h3a1 1 0 1 1 0 2H2a1 1 0 1 1 0-2zm6-6a1 1 0 0 1 1 1v12a1 1 0 0 1-2 0V2a1 1 0 0 1 1-1z"/></symbol><symbol viewBox="0 0 16 16" id="bold" xmlns="http://www.w3.org/2000/svg"><path fill-rule="evenodd" d="M4 12.5v-9A1.5 1.5 0 0 1 5.5 2h2.104c2.182 0 3.879.681 3.879 2.982 0 1.067-.517 2.227-1.374 2.595v.073C11.176 7.963 12 8.865 12 10.466 12 12.914 10.19 14 7.911 14H5.5A1.5 1.5 0 0 1 4 12.5zm2.376-5.696H7.49c1.164 0 1.665-.552 1.665-1.417 0-.94-.534-1.289-1.649-1.289h-1.13v2.706zm0 5.098h1.341c1.293 0 1.956-.515 1.956-1.62 0-1.049-.647-1.472-1.956-1.472H6.376v3.092z"/></symbol><symbol viewBox="0 0 16 16" id="book" xmlns="http://www.w3.org/2000/svg"><path d="M7 2H5a2 2 0 0 0-2 2v8a2 2 0 0 0 2 2h6a2 2 0 0 0 2-2V4a2 2 0 0 0-2-2v4.191a.5.5 0 0 1-.724.447l-1.052-.526a.5.5 0 0 0-.448 0l-1.052.526A.5.5 0 0 1 7 6.191V2zM5 0h6a4 4 0 0 1 4 4v8a4 4 0 0 1-4 4H5a4 4 0 0 1-4-4V4a4 4 0 0 1 4-4z"/></symbol><symbol viewBox="0 0 16 16" id="bookmark" xmlns="http://www.w3.org/2000/svg"><path d="M6.746 10.505a2 2 0 0 1 2.508 0L11 11.911V3H5v8.91l1.746-1.405zM5 1h6a2 2 0 0 1 2 2v10.999a1 1 0 0 1-1.627.779L8 12.064l-3.373 2.714A1 1 0 0 1 3 13.998V3a2 2 0 0 1 2-2z"/></symbol><symbol viewBox="0 0 16 16" id="branch" xmlns="http://www.w3.org/2000/svg"><path d="M6 11.978v.29a2 2 0 1 1-2 0V3.732a2 2 0 1 1 2 0v3.849c.592-.491 1.31-.854 2.15-1.081 1.308-.353 1.875-.882 1.893-1.743a2 2 0 1 1 2.002-.051C12.053 6.54 10.857 7.84 8.67 8.43 7.056 8.867 6.195 9.98 6 11.978zM5 3a1 1 0 1 0 0-2 1 1 0 0 0 0 2zm6 1a1 1 0 1 0 0-2 1 1 0 0 0 0 2zM5 15a1 1 0 1 0 0-2 1 1 0 0 0 0 2z"/></symbol><symbol viewBox="0 0 16 16" id="bullhorn" xmlns="http://www.w3.org/2000/svg"><path fill-rule="evenodd" d="M6.143 10H7V4H3a3 3 0 1 0 0 6h.143l.734 5.141a1 1 0 0 0 .99.859h1.556a.5.5 0 0 0 .495-.57L6.143 10zM8 4c1.034.02 2.039-.274 3.014-.883.727-.455 1.836-1.334 3.328-2.637A1 1 0 0 1 16 1.233v10.764a1 1 0 0 1-1.595.803c-1.658-1.227-2.788-1.992-3.392-2.294-.781-.39-1.785-.559-3.013-.506V4z"/></symbol><symbol viewBox="0 0 16 16" id="calendar" xmlns="http://www.w3.org/2000/svg"><path fill-rule="evenodd" d="M12 2h2a2 2 0 0 1 2 2H0a2 2 0 0 1 2-2h2V1a1 1 0 1 1 2 0v1h4V1a1 1 0 1 1 2 0v1zM0 4h16v9a3 3 0 0 1-3 3H3a3 3 0 0 1-3-3V4zm2 2.5V13a1 1 0 0 0 1 1h10a1 1 0 0 0 1-1V6.5a.5.5 0 0 0-.5-.5h-11a.5.5 0 0 0-.5.5zM5 8h2a1 1 0 1 1 0 2H5a1 1 0 1 1 0-2z"/></symbol><symbol viewBox="0 0 16 16" id="cancel" xmlns="http://www.w3.org/2000/svg"><path d="M3.11 4.523a6 6 0 0 0 8.367 8.367L3.109 4.524zM4.522 3.11l8.368 8.368A6 6 0 0 0 4.524 3.11zM8 16A8 8 0 1 1 8 0a8 8 0 0 1 0 16z"/></symbol><symbol viewBox="0 0 16 16" id="chart" xmlns="http://www.w3.org/2000/svg"><path d="M15 14a1 1 0 0 1 0 2H2a2 2 0 0 1-2-2V1a1 1 0 1 1 2 0v13h13zM3.142 8.735l2.502-2.561a.5.5 0 0 1 .714-.003L8 7.833l3.592-4.553a.5.5 0 0 1 .796.015l2.516 3.454a.5.5 0 0 1 .096.295V12.5a.5.5 0 0 1-.5.5h-11a.5.5 0 0 1-.5-.5V9.085a.5.5 0 0 1 .142-.35z"/></symbol><symbol viewBox="0 0 16 16" id="chevron-down" xmlns="http://www.w3.org/2000/svg"><path fill-rule="evenodd" d="M8.078 8.2l3.535-3.536a2 2 0 0 1 2.828 2.828l-4.949 4.95c-.39.39-.902.586-1.414.586a1.994 1.994 0 0 1-1.414-.586l-4.95-4.95a2 2 0 1 1 2.828-2.828l3.536 3.535z"/></symbol><symbol viewBox="0 0 16 16" id="chevron-left" xmlns="http://www.w3.org/2000/svg"><path fill-rule="evenodd" d="M7.977 7.998l3.535-3.535a2 2 0 1 0-2.828-2.828l-4.95 4.949c-.39.39-.586.902-.586 1.414 0 .512.196 1.024.586 1.414l4.95 4.95a2 2 0 1 0 2.828-2.828L7.977 7.998z"/></symbol><symbol viewBox="0 0 16 16" id="chevron-right" xmlns="http://www.w3.org/2000/svg"><path fill-rule="evenodd" d="M8.22 7.998L4.683 4.463a2 2 0 0 1 2.828-2.828l4.95 4.949c.39.39.586.902.586 1.414a1.99 1.99 0 0 1-.586 1.414l-4.95 4.95a2 2 0 0 1-2.828-2.828l3.535-3.536z"/></symbol><symbol viewBox="0 0 16 16" id="chevron-up" xmlns="http://www.w3.org/2000/svg"><path fill-rule="evenodd" d="M7.778 8.957l3.535 3.535a2 2 0 1 0 2.828-2.828l-4.949-4.95a1.994 1.994 0 0 0-1.414-.586c-.512 0-1.024.196-1.414.586l-4.95 4.95a2 2 0 1 0 2.828 2.828l3.536-3.535z"/></symbol><symbol viewBox="0 0 16 16" id="clock" xmlns="http://www.w3.org/2000/svg"><path d="M9 7h1a1 1 0 0 1 0 2H8a.997.997 0 0 1-1-1V5a1 1 0 1 1 2 0v2zm-1 9A8 8 0 1 1 8 0a8 8 0 0 1 0 16zm0-2A6 6 0 1 0 8 2a6 6 0 0 0 0 12z"/></symbol><symbol viewBox="0 0 16 16" id="close" xmlns="http://www.w3.org/2000/svg"><path fill-rule="evenodd" d="M9.414 8l4.95-4.95a1 1 0 0 0-1.414-1.414L8 6.586l-4.95-4.95A1 1 0 0 0 1.636 3.05L6.586 8l-4.95 4.95a1 1 0 1 0 1.414 1.414L8 9.414l4.95 4.95a1 1 0 1 0 1.414-1.414L9.414 8z"/></symbol><symbol viewBox="0 0 16 16" id="code" xmlns="http://www.w3.org/2000/svg"><path fill-rule="evenodd" d="M15.871 8.243a.997.997 0 0 0-.293-.707L12.75 4.707a1 1 0 0 0-1.414 1.414l2.12 2.122-2.12 2.121a1 1 0 0 0 1.414 1.414l2.828-2.828a.997.997 0 0 0 .293-.707zm-13.243 0L4.75 6.12a1 1 0 1 0-1.414-1.414L.507 7.536a.997.997 0 0 0 0 1.414l2.829 2.828a1 1 0 1 0 1.414-1.414L2.628 8.243zm6.407-4.107a1 1 0 0 1 .707 1.225L8.19 11.157a1 1 0 1 1-1.931-.518L7.81 4.843a1 1 0 0 1 1.224-.707z"/></symbol><symbol viewBox="0 0 9 13" id="collapse"><path d="M.084.25C.01.18-.015.12.008.071.031.024.093 0 .194 0h8.521c.1 0 .162.024.185.072.023.048-.002.107-.075.177l-4.11 3.935a.372.372 0 0 1-.11.072h-.301a.508.508 0 0 1-.11-.072L.084.249zM.377 6.88a.364.364 0 0 1-.26-.105.334.334 0 0 1-.11-.25v-.709c0-.096.036-.179.11-.249a.364.364 0 0 1 .26-.105h8.15c.101 0 .188.035.261.105.074.07.11.153.11.25v.709c0 .096-.036.179-.11.249a.364.364 0 0 1-.26.105H.377zM.084 12.132c-.074.07-.099.129-.076.177.023.048.085.072.186.072h8.521c.1 0 .162-.024.185-.072.023-.048-.002-.107-.075-.177l-4.11-3.935a.372.372 0 0 0-.11-.072h-.301a.508.508 0 0 0-.11.072l-4.11 3.935z"/></symbol><symbol viewBox="0 0 16 16" id="comment" xmlns="http://www.w3.org/2000/svg"><path d="M1.707 15.707C1.077 16.337 0 15.891 0 15V3a3 3 0 0 1 3-3h10a3 3 0 0 1 3 3v6a3 3 0 0 1-3 3H5.414l-3.707 3.707zM2 12.586l2.293-2.293A1 1 0 0 1 5 10h8a1 1 0 0 0 1-1V3a1 1 0 0 0-1-1H3a1 1 0 0 0-1 1v9.586z"/></symbol><symbol viewBox="0 0 16 16" id="comment-dots" xmlns="http://www.w3.org/2000/svg"><path d="M1.707 15.707C1.077 16.337 0 15.891 0 15V3a3 3 0 0 1 3-3h10a3 3 0 0 1 3 3v6a3 3 0 0 1-3 3H5.414l-3.707 3.707zM2 12.586l2.293-2.293A1 1 0 0 1 5 10h8a1 1 0 0 0 1-1V3a1 1 0 0 0-1-1H3a1 1 0 0 0-1 1v9.586zM5 7a1 1 0 1 1 0-2 1 1 0 0 1 0 2zm3 0a1 1 0 1 1 0-2 1 1 0 0 1 0 2zm3 0a1 1 0 1 1 0-2 1 1 0 0 1 0 2z"/></symbol><symbol viewBox="0 0 16 16" id="comment-next" xmlns="http://www.w3.org/2000/svg"><path d="M8 5V4a.5.5 0 0 1 .8-.4l2.667 2a.5.5 0 0 1 0 .8L8.8 8.4A.5.5 0 0 1 8 8V7H6a1 1 0 1 1 0-2h2zM1.707 15.707C1.077 16.337 0 15.891 0 15V3a3 3 0 0 1 3-3h10a3 3 0 0 1 3 3v6a3 3 0 0 1-3 3H5.414l-3.707 3.707zM2 12.586l2.293-2.293A1 1 0 0 1 5 10h8a1 1 0 0 0 1-1V3a1 1 0 0 0-1-1H3a1 1 0 0 0-1 1v9.586z"/></symbol><symbol viewBox="0 0 16 16" id="comments" xmlns="http://www.w3.org/2000/svg"><path fill-rule="evenodd" d="M3.75 10L0 13V3a2 2 0 0 1 2-2h8a2 2 0 0 1 2 2v5a2 2 0 0 1-2 2H3.75zM13 5h1a2 2 0 0 1 2 2v8l-2.667-2H8a2 2 0 0 1-2-2h4a3 3 0 0 0 3-3V5z"/></symbol><symbol viewBox="0 0 16 16" id="commit" xmlns="http://www.w3.org/2000/svg"><path d="M8 10a2 2 0 1 0 0-4 2 2 0 0 0 0 4zm3.876-1.008a4.002 4.002 0 0 1-7.752 0A1.01 1.01 0 0 1 4 9H1a1 1 0 1 1 0-2h3c.042 0 .083.003.124.008a4.002 4.002 0 0 1 7.752 0A1.01 1.01 0 0 1 12 7h3a1 1 0 0 1 0 2h-3a1.01 1.01 0 0 1-.124-.008z"/></symbol><symbol viewBox="0 0 16 16" id="compress" xmlns="http://www.w3.org/2000/svg"><path fill-rule="evenodd" d="M4.587 12.707l-1.414 1.415a1 1 0 0 1-1.414-1.415l1.414-1.414-1.386-1.386a.5.5 0 0 1 .299-.85l4.708-.523a.5.5 0 0 1 .553.552l-.524 4.709a.5.5 0 0 1-.85.298l-1.386-1.386zm6.859-9.687l1.414-1.414a1 1 0 0 1 1.414 1.414L12.86 4.434l1.386 1.386a.5.5 0 0 1-.299.85l-4.708.524a.5.5 0 0 1-.553-.552l.524-4.71a.5.5 0 0 1 .85-.297l1.386 1.385z"/></symbol><symbol viewBox="0 0 16 16" id="credit-card" xmlns="http://www.w3.org/2000/svg"><path d="M14 5a1 1 0 0 0-1-1H3a1 1 0 0 0-1 1h12zm0 3H2v3a1 1 0 0 0 1 1h10a1 1 0 0 0 1-1V8zM3 2h10a3 3 0 0 1 3 3v6a3 3 0 0 1-3 3H3a3 3 0 0 1-3-3V5a3 3 0 0 1 3-3zm6.5 8h3a.5.5 0 1 1 0 1h-3a.5.5 0 1 1 0-1z"/></symbol><symbol viewBox="0 0 16 16" id="cut" xmlns="http://www.w3.org/2000/svg"><rect width="16" height="2" y="7" fill-rule="evenodd" rx="1"/></symbol><symbol viewBox="0 0 16 16" id="dashboard" xmlns="http://www.w3.org/2000/svg"><path d="M7.709 10.021l.696-2.6a.5.5 0 0 1 .966.26l-.657 2.45A2 2 0 0 1 10 12H6a2 2 0 0 1 1.709-1.979zM0 8.9a8 8 0 0 1 15.998 0H16v3.6a2.5 2.5 0 0 1-2.5 2.5h-11A2.5 2.5 0 0 1 0 12.5V8.9zM14 9A6 6 0 1 0 2 9v3.5a.5.5 0 0 0 .5.5h11a.5.5 0 0 0 .5-.5V9zM3.5 9a.5.5 0 1 1 0-1 .5.5 0 0 1 0 1zm9 0a.5.5 0 1 1 0-1 .5.5 0 0 1 0 1zm-7-3a.5.5 0 1 1 0-1 .5.5 0 0 1 0 1zm5 0a.5.5 0 1 1 0-1 .5.5 0 0 1 0 1z"/></symbol><symbol viewBox="0 0 16 16" id="disk" xmlns="http://www.w3.org/2000/svg"><path d="M16 11.764V3a3 3 0 0 0-3-3H3a3 3 0 0 0-3 3v8.764A2.989 2.989 0 0 1 2 11V3a1 1 0 0 1 1-1h10a1 1 0 0 1 1 1v8c.768 0 1.47.289 2 .764zM2 12h12a2 2 0 1 1 0 4H2a2 2 0 1 1 0-4zm10 1a1 1 0 1 0 0 2 1 1 0 0 0 0-2z"/></symbol><symbol viewBox="0 0 16 16" id="doc_code" xmlns="http://www.w3.org/2000/svg"><path d="M8 2H5a2 2 0 0 0-2 2v8a2 2 0 0 0 2 2h6a2 2 0 0 0 2-2V7h-3a2 2 0 0 1-2-2V2zm2 .414V5h2.586L10 2.414zm1.036 7.607a.498.498 0 0 1-.147.354l-1.414 1.414a.5.5 0 0 1-.707-.707l1.06-1.06-1.06-1.061a.5.5 0 0 1 .707-.707l1.414 1.414a.498.498 0 0 1 .147.353zm-4.822 0l1.06 1.061a.5.5 0 0 1-.706.707l-1.414-1.414a.498.498 0 0 1 0-.707l1.414-1.414a.5.5 0 1 1 .707.707l-1.06 1.06zM5 0h4.586A2 2 0 0 1 11 .586L14.414 4A2 2 0 0 1 15 5.414V12a4 4 0 0 1-4 4H5a4 4 0 0 1-4-4V4a4 4 0 0 1 4-4z"/></symbol><symbol viewBox="0 0 16 16" id="doc_image" xmlns="http://www.w3.org/2000/svg"><path d="M8 2H5a2 2 0 0 0-2 2v8a2 2 0 0 0 2 2h6a2 2 0 0 0 2-2V7h-3a2 2 0 0 1-2-2V2zm2 .414V5h2.586L10 2.414zM7.333 9.667l1.313-1.313a.5.5 0 0 1 .708 0L12 11H4l2.188-1.75a.5.5 0 0 1 .624 0l.521.417zM5 0h4.586A2 2 0 0 1 11 .586L14.414 4A2 2 0 0 1 15 5.414V12a4 4 0 0 1-4 4H5a4 4 0 0 1-4-4V4a4 4 0 0 1 4-4zm.5 8a1.5 1.5 0 1 1 0-3 1.5 1.5 0 0 1 0 3zM4 11h8v.7a.3.3 0 0 1-.3.3H4.3a.3.3 0 0 1-.3-.3V11z"/></symbol><symbol viewBox="0 0 16 16" id="doc_text" xmlns="http://www.w3.org/2000/svg"><path d="M8 2H5a2 2 0 0 0-2 2v8a2 2 0 0 0 2 2h6a2 2 0 0 0 2-2V7h-3a2 2 0 0 1-2-2V2zm2 .414V5h2.586L10 2.414zM5 0h4.586A2 2 0 0 1 11 .586L14.414 4A2 2 0 0 1 15 5.414V12a4 4 0 0 1-4 4H5a4 4 0 0 1-4-4V4a4 4 0 0 1 4-4zm.5 11h5a.5.5 0 1 1 0 1h-5a.5.5 0 1 1 0-1zm0-2h5a.5.5 0 1 1 0 1h-5a.5.5 0 0 1 0-1zm0-2h2a.5.5 0 0 1 0 1h-2a.5.5 0 0 1 0-1z"/></symbol><symbol viewBox="0 0 105 26" id="double-headed-arrow" xmlns="http://www.w3.org/2000/svg"><path fill-rule="evenodd" d="M1.018 11.089L15.138.614c1.23-.911 3.086-.795 4.147.26.461.46.715 1.045.715 1.651v20.95C20 24.869 18.684 26 17.06 26a3.238 3.238 0 0 1-1.921-.614L1.019 14.911C-.212 14-.347 12.405.714 11.35c.094-.094.195-.18.303-.261zm102.964 0c.108.08.21.167.303.26 1.061 1.056.925 2.65-.303 3.562l-14.12 10.475A3.238 3.238 0 0 1 87.94 26C86.316 26 85 24.87 85 23.475V2.525c0-.606.254-1.192.715-1.65 1.061-1.056 2.917-1.172 4.146-.26l14.12 10.474zM35 17a4 4 0 1 1 0-8 4 4 0 0 1 0 8zm18 0a4 4 0 1 1 0-8 4 4 0 0 1 0 8zm18 0a4 4 0 1 1 0-8 4 4 0 0 1 0 8z"/></symbol><symbol viewBox="0 0 16 16" id="download" xmlns="http://www.w3.org/2000/svg"><path d="M9 12h1a.5.5 0 0 1 .4.8l-2 2.667a.5.5 0 0 1-.8 0l-2-2.667A.5.5 0 0 1 6 12h1V8a1 1 0 1 1 2 0v4zM4 9a1 1 0 1 1 0 2 4 4 0 0 1-1.971-7.481 4 4 0 0 1 6.633-2.505 3.999 3.999 0 0 1 3.82 2.014A4 4 0 0 1 12 11a1 1 0 0 1 0-2 2 2 0 1 0 0-4h-1a2 2 0 0 0-3.112-1.662A2 2 0 1 0 4.268 5H4a2 2 0 1 0 0 4z"/></symbol><symbol viewBox="0 0 16 16" id="duplicate" xmlns="http://www.w3.org/2000/svg"><path d="M14 10h-3a1 1 0 0 1-1-1V6H8.527A.527.527 0 0 0 8 6.527V13a1 1 0 0 0 1 1h4a1 1 0 0 0 1-1v-3zm-4-7H8.527c-.18 0-.355.013-.527.04V3a1 1 0 0 0-1-1H3a1 1 0 0 0-1 1v6a1 1 0 0 0 1 1h2v2H3a3 3 0 0 1-3-3V3a3 3 0 0 1 3-3h4a3 3 0 0 1 3 3zM8.527 4h2.323a.5.5 0 0 1 .35.143l4.65 4.551a.5.5 0 0 1 .15.357V13a3 3 0 0 1-3 3H9a3 3 0 0 1-3-3V6.527A2.527 2.527 0 0 1 8.527 4z"/></symbol><symbol viewBox="0 0 16 16" id="earth" xmlns="http://www.w3.org/2000/svg"><path d="M8.7 2.04l-.082.177c.283.223.422.413.417.571-.008.237-.311.057-.444.274-.133.218.038.542-.112.637-.15.096-.398-.386-.479-.46-.054-.049-.166-.257-.336-.625l-.216-.225a.844.844 0 0 0-.418-.035c-.177.038-.075.1-.035.132.04.032.32.037.452.2.132.164.03.224-.05.298-.054.05-.157.062-.31.035H5.952l-.402.398.03.325.229.455.324-.463c.008-.206.058-.342.15-.41.14-.1.342-.15.534-.085.191.066-.057.218.011.271.068.053.204-.098.313-.02.11.08.07.155.104.322.036.167.254.114.398.328.144.215.19.29.147.483-.043.195-.168.26-.305.232-.138-.028-.107-.246-.275-.348-.168-.102-.266-.114-.386-.054-.12.06-.016.129.023.235.04.106.274.321.224.43-.05.107-.108.116-.42 0-.21-.077-.414-.007-.615.212l-.76.722c-.153.715-.3 1.13-.44 1.243-.211.17-.177-.483-.483-.656-.306-.174-.494-.047-.8-.07-.307-.023-.42.65-.38.873a.434.434 0 0 0 .221.321c.236-.141.39-.184.465-.128.11.084-.144.267-.074.425.07.158.314.069.386.283.073.213.084.48-.05.706-.135.227-.275.178-.4.053-.127-.126-.033-.375-.255-.704-.223-.329-.381-.337-.63-.787-.158-.287-.35-.743-.575-1.366a6 6 0 0 0 3.21 7.198l.001-.075c0-.577-.004-.944-.012-1.102-.011-.236-.95-.945-1.104-1.2-.154-.256-.34-.595-.355-.746-.016-.151.185-.232.344-.325.16-.093-.11-.367.028-.626.137-.258.395-.438.496-.356.101.081.058.228.267.333.209.104.077-.213.456-.178.38.035.143.201.252.216.11.016.113-.127.299-.143.186-.015.282.445.471.622.19.178.452.008.611.043.159.034.267.09.402.255.136.166-.03.352.073.557.103.205 1.07.22 1.433.255.364.034.371.011.371.324s-.166.314-.453.507c-.286.193-.166.462-.38.762-.212.3-.316.062-.622.14-.306.077-.413.382-.452.568-.039.186-.386.094-.877.232-.29.082-.429.144-.569.204a6.002 6.002 0 0 0 7.682-4.3c-.094-.384-.18-.63-.258-.74-.213-.297-.36.21-.924.49-.564.278-.57-.288-.81-.49-.16-.133-.212-.44-.158-.92-.005-.478.02-.828.077-1.049.057-.221.126-.543.207-.965.351-.373.606-.572.764-.595.237-.034.336.374.658.3a.315.315 0 0 0 .035-.01 5.993 5.993 0 0 0-.475-.824l-.309-.043a.646.646 0 0 0-.332-.117c-.205-.02-.025.128-.089.24-.064.112-.235.724-.437.685-.201-.039-.204-.374-.17-.668.036-.294-.077-.35-.2-.412-.124-.062-.325-.213-.556-.295-.232-.082-.123-.175-.093-.274.03-.1.208-.015.193-.058-.014-.044-.313-.135-.266-.167.03-.02.2-.02.506.003l.216-.012.293-.163a.58.58 0 0 0-.376-.22c-.233-.036-.513-.034-.73-.142-.205-.103-.458-.36-.643-.638A5.965 5.965 0 0 0 8.7 2.04zM8 16A8 8 0 1 1 8 0a8 8 0 0 1 0 16z"/></symbol><symbol viewBox="0 0 1600 1600" id="ellipsis_v" xmlns="http://www.w3.org/2000/svg"><path d="M1088 1248v192q0 40-28 68t-68 28H800q-40 0-68-28t-28-68v-192q0-40 28-68t68-28h192q40 0 68 28t28 68zm0-512v192q0 40-28 68t-68 28H800q-40 0-68-28t-28-68V736q0-40 28-68t68-28h192q40 0 68 28t28 68zm0-512v192q0 40-28 68t-68 28H800q-40 0-68-28t-28-68V224q0-40 28-68t68-28h192q40 0 68 28t28 68z"/></symbol><symbol viewBox="0 0 18 18" id="emoji_slightly_smiling_face" xmlns="http://www.w3.org/2000/svg"><path d="M13.29 11.098a4.328 4.328 0 0 1-1.618 2.285c-.79.578-1.68.867-2.672.867-.992 0-1.883-.29-2.672-.867a4.328 4.328 0 0 1-1.617-2.285.721.721 0 0 1 .047-.569.715.715 0 0 1 .445-.369.721.721 0 0 1 .568.047.715.715 0 0 1 .37.445 2.91 2.91 0 0 0 1.084 1.518A2.93 2.93 0 0 0 9 12.75a2.93 2.93 0 0 0 1.775-.58 2.913 2.913 0 0 0 1.084-1.518.711.711 0 0 1 .375-.445.737.737 0 0 1 .575-.047c.195.063.34.186.433.37.094.183.11.372.047.568zM7.5 6c0 .414-.146.768-.44 1.06A1.44 1.44 0 0 1 6 7.5a1.44 1.44 0 0 1-1.06-.44A1.445 1.445 0 0 1 4.5 6c0-.414.146-.768.44-1.06A1.44 1.44 0 0 1 6 4.5c.414 0 .768.146 1.06.44.294.292.44.646.44 1.06zm6 0c0 .414-.146.768-.44 1.06A1.44 1.44 0 0 1 12 7.5a1.44 1.44 0 0 1-1.06-.44A1.445 1.445 0 0 1 10.5 6c0-.414.146-.768.44-1.06A1.44 1.44 0 0 1 12 4.5c.414 0 .768.146 1.06.44.294.292.44.646.44 1.06zm3 3a7.29 7.29 0 0 0-.598-2.912 7.574 7.574 0 0 0-1.6-2.39 7.574 7.574 0 0 0-2.39-1.6A7.29 7.29 0 0 0 9 1.5a7.29 7.29 0 0 0-2.912.598 7.574 7.574 0 0 0-2.39 1.6 7.574 7.574 0 0 0-1.6 2.39A7.29 7.29 0 0 0 1.5 9c0 1.016.2 1.986.598 2.912a7.574 7.574 0 0 0 1.6 2.39 7.574 7.574 0 0 0 2.39 1.6A7.29 7.29 0 0 0 9 16.5a7.29 7.29 0 0 0 2.912-.598 7.574 7.574 0 0 0 2.39-1.6 7.574 7.574 0 0 0 1.6-2.39A7.29 7.29 0 0 0 16.5 9zM18 9a8.804 8.804 0 0 1-1.207 4.518 8.96 8.96 0 0 1-3.275 3.275A8.804 8.804 0 0 1 9 18a8.804 8.804 0 0 1-4.518-1.207 8.96 8.96 0 0 1-3.275-3.275A8.804 8.804 0 0 1 0 9c0-1.633.402-3.139 1.207-4.518a8.96 8.96 0 0 1 3.275-3.275A8.804 8.804 0 0 1 9 0c1.633 0 3.139.402 4.518 1.207a8.96 8.96 0 0 1 3.275 3.275A8.804 8.804 0 0 1 18 9z" fill-rule="evenodd"/></symbol><symbol viewBox="0 0 18 18" id="emoji_smile" xmlns="http://www.w3.org/2000/svg"><path d="M13.29 11.098a4.328 4.328 0 0 1-1.618 2.285c-.79.578-1.68.867-2.672.867-.992 0-1.883-.29-2.672-.867a4.328 4.328 0 0 1-1.617-2.285.721.721 0 0 1 .047-.569.715.715 0 0 1 .445-.369c.195-.062 7.41-.062 7.606 0 .195.063.34.186.433.37.094.183.11.372.047.568zM14 6.37c0 .398-.04.755-.513.755-.473 0-.498-.272-1.237-.272-.74 0-.74.215-1.165.215-.425 0-.585-.3-.585-.698 0-.397.17-.736.513-1.017.341-.281.754-.422 1.237-.422.483 0 .896.14 1.237.422.342.28.513.62.513 1.017zm-6.5 0c0 .398-.04.755-.513.755-.473 0-.498-.272-1.237-.272-.74 0-.74.215-1.165.215-.425 0-.585-.3-.585-.698 0-.397.17-.736.513-1.017.341-.281.754-.422 1.237-.422.483 0 .896.14 1.237.422.342.28.513.62.513 1.017zm9 2.63a7.29 7.29 0 0 0-.598-2.912 7.574 7.574 0 0 0-1.6-2.39 7.574 7.574 0 0 0-2.39-1.6A7.29 7.29 0 0 0 9 1.5a7.29 7.29 0 0 0-2.912.598 7.574 7.574 0 0 0-2.39 1.6 7.574 7.574 0 0 0-1.6 2.39A7.29 7.29 0 0 0 1.5 9c0 1.016.2 1.986.598 2.912a7.574 7.574 0 0 0 1.6 2.39 7.574 7.574 0 0 0 2.39 1.6A7.29 7.29 0 0 0 9 16.5a7.29 7.29 0 0 0 2.912-.598 7.574 7.574 0 0 0 2.39-1.6 7.574 7.574 0 0 0 1.6-2.39A7.29 7.29 0 0 0 16.5 9zM18 9a8.804 8.804 0 0 1-1.207 4.518 8.96 8.96 0 0 1-3.275 3.275A8.804 8.804 0 0 1 9 18a8.804 8.804 0 0 1-4.518-1.207 8.96 8.96 0 0 1-3.275-3.275A8.804 8.804 0 0 1 0 9c0-1.633.402-3.139 1.207-4.518a8.96 8.96 0 0 1 3.275-3.275A8.804 8.804 0 0 1 9 0c1.633 0 3.139.402 4.518 1.207a8.96 8.96 0 0 1 3.275 3.275A8.804 8.804 0 0 1 18 9z" fill-rule="evenodd"/></symbol><symbol viewBox="0 0 18 18" id="emoji_smiley" xmlns="http://www.w3.org/2000/svg"><path d="M13.29 11.098a4.328 4.328 0 0 1-1.618 2.285c-.79.578-1.68.867-2.672.867-.992 0-1.883-.29-2.672-.867a4.328 4.328 0 0 1-1.617-2.285.721.721 0 0 1 .047-.569.715.715 0 0 1 .445-.369c.195-.062 7.41-.062 7.606 0 .195.063.34.186.433.37.094.183.11.372.047.568h.001zM7.5 6c0 .414-.146.768-.44 1.06A1.44 1.44 0 0 1 6 7.5a1.44 1.44 0 0 1-1.06-.44A1.445 1.445 0 0 1 4.5 6c0-.414.146-.768.44-1.06A1.44 1.44 0 0 1 6 4.5c.414 0 .768.146 1.06.44.294.292.44.646.44 1.06zm6 0c0 .414-.146.768-.44 1.06A1.44 1.44 0 0 1 12 7.5a1.44 1.44 0 0 1-1.06-.44A1.445 1.445 0 0 1 10.5 6c0-.414.146-.768.44-1.06A1.44 1.44 0 0 1 12 4.5c.414 0 .768.146 1.06.44.294.292.44.646.44 1.06zm3 3a7.29 7.29 0 0 0-.598-2.912 7.574 7.574 0 0 0-1.6-2.39 7.574 7.574 0 0 0-2.39-1.6A7.29 7.29 0 0 0 9 1.5a7.29 7.29 0 0 0-2.912.598 7.574 7.574 0 0 0-2.39 1.6 7.574 7.574 0 0 0-1.6 2.39A7.29 7.29 0 0 0 1.5 9c0 1.016.2 1.986.598 2.912a7.574 7.574 0 0 0 1.6 2.39 7.574 7.574 0 0 0 2.39 1.6c.92.397 1.91.6 2.912.598a7.29 7.29 0 0 0 2.912-.598 7.574 7.574 0 0 0 2.39-1.6 7.574 7.574 0 0 0 1.6-2.39c.397-.92.6-1.91.598-2.912zM18 9a8.804 8.804 0 0 1-1.207 4.518 8.96 8.96 0 0 1-3.275 3.275A8.804 8.804 0 0 1 9 18a8.804 8.804 0 0 1-4.518-1.207 8.96 8.96 0 0 1-3.275-3.275A8.804 8.804 0 0 1 0 9c0-1.633.402-3.139 1.207-4.518a8.96 8.96 0 0 1 3.275-3.275A8.804 8.804 0 0 1 9 0c1.633 0 3.139.402 4.518 1.207a8.96 8.96 0 0 1 3.275 3.275A8.804 8.804 0 0 1 18 9z"/></symbol><symbol viewBox="0 0 16 16" id="epic" xmlns="http://www.w3.org/2000/svg"><path fill-rule="evenodd" d="M14.985 8.044l-.757 2.272a1 1 0 0 1-.949.684H1.618a1 1 0 0 1-.894-1.447l.318-.637A2 2 0 0 0 1.618 9h11.661a2 2 0 0 0 1.706-.956zm0 3l-.757 2.272a1 1 0 0 1-.949.684H1.618a1 1 0 0 1-.894-1.447l.318-.637a2 2 0 0 0 .576.084h11.661a2 2 0 0 0 1.706-.956zM3.618 2h10.995a1 1 0 0 1 .948 1.316l-1.333 4a1 1 0 0 1-.949.684H1.618a1 1 0 0 1-.894-1.447l2-4A1 1 0 0 1 3.618 2zm-.382 4h9.322l.667-2H4.236l-1 2z"/></symbol><symbol viewBox="0 0 16 16" id="error" xmlns="http://www.w3.org/2000/svg"><title>error</title><path d="M8 15A7 7 0 1 1 8 1a7 7 0 0 1 0 14zm0-2A5 5 0 1 0 8 3a5 5 0 0 0 0 10zm0-9a1 1 0 0 1 1 1v3a1 1 0 1 1-2 0V5a1 1 0 0 1 1-1zm0 8a1 1 0 1 1 0-2 1 1 0 0 1 0 2z"/></symbol><symbol viewBox="0 0 16 16" id="expand" xmlns="http://www.w3.org/2000/svg"><path fill-rule="evenodd" d="M4.435 10.092l1.414-1.414a1 1 0 1 1 1.414 1.414L5.85 11.507l1.386 1.385a.5.5 0 0 1-.299.85l-4.709.524a.5.5 0 0 1-.552-.552L2.2 9.005a.5.5 0 0 1 .85-.298l1.386 1.385zm7.283-4.455l-1.414 1.415A1 1 0 1 1 8.89 5.637l1.414-1.414-1.386-1.386a.5.5 0 0 1 .299-.85l4.708-.523a.5.5 0 0 1 .553.552l-.524 4.709a.5.5 0 0 1-.85.298l-1.386-1.386z"/></symbol><symbol viewBox="0 0 16 16" id="external-link" xmlns="http://www.w3.org/2000/svg"><path d="M13.121 4.177l-4.95 4.95a1 1 0 1 1-1.414-1.414l4.95-4.95-1.386-1.386a.5.5 0 0 1 .299-.85l4.709-.524a.5.5 0 0 1 .552.552l-.523 4.71a.5.5 0 0 1-.851.297l-1.386-1.385zM12 8.884a1 1 0 0 1 2 0v4a3 3 0 0 1-3 3H3a3 3 0 0 1-3-3v-8a3 3 0 0 1 3-3h4a1 1 0 1 1 0 2H3a1 1 0 0 0-1 1v8a1 1 0 0 0 1 1h8a1 1 0 0 0 1-1v-4z"/></symbol><symbol viewBox="0 0 16 16" id="eye" xmlns="http://www.w3.org/2000/svg"><path d="M8 14C4.816 14 2.253 12.284.393 8.981a2 2 0 0 1 0-1.962C2.253 3.716 4.816 2 8 2s5.747 1.716 7.607 5.019a2 2 0 0 1 0 1.962C13.747 12.284 11.184 14 8 14zm0-2c2.41 0 4.338-1.29 5.864-4C12.338 5.29 10.411 4 8 4 5.59 4 3.662 5.29 2.136 8 3.662 10.71 5.589 12 8 12zm0-1a3 3 0 1 1 0-6 3 3 0 0 1 0 6zm1-3a1 1 0 1 0 0-2 1 1 0 0 0 0 2z"/></symbol><symbol viewBox="0 0 16 16" id="eye-slash" xmlns="http://www.w3.org/2000/svg"><path d="M13.618 2.62L1.62 14.619a1 1 0 0 1-.985-1.668l1.525-1.526C1.516 10.742.926 9.927.393 8.981a2 2 0 0 1 0-1.962C2.253 3.716 4.816 2 8 2c1.074 0 2.076.195 3.006.58l.944-.944a1 1 0 0 1 1.668.985zM8.068 11a3 3 0 0 0 2.931-2.932l-2.931 2.931zm-3.02-2.462a3 3 0 0 1 3.49-3.49l.884-.884A6.044 6.044 0 0 0 8 4C5.59 4 3.662 5.29 2.136 8c.445.79.924 1.46 1.439 2.011l1.473-1.473zm.421 5.06l1.658-1.658c.283.04.575.06.873.06 2.41 0 4.338-1.29 5.864-4a11.023 11.023 0 0 0-1.133-1.664l1.418-1.418a12.799 12.799 0 0 1 1.458 2.1 2 2 0 0 1 0 1.963C13.747 12.284 11.184 14 8 14a7.883 7.883 0 0 1-2.53-.402z"/></symbol><symbol viewBox="0 0 16 16" id="file-addition" xmlns="http://www.w3.org/2000/svg"><path d="M7 7V5a1 1 0 1 1 2 0v2h2a1 1 0 0 1 0 2H9v2a1 1 0 0 1-2 0V9H5a1 1 0 1 1 0-2h2zM3 0h10a3 3 0 0 1 3 3v10a3 3 0 0 1-3 3H3a3 3 0 0 1-3-3V3a3 3 0 0 1 3-3zm0 1a2 2 0 0 0-2 2v10a2 2 0 0 0 2 2h10a2 2 0 0 0 2-2V3a2 2 0 0 0-2-2H3z"/></symbol><symbol viewBox="0 0 16 16" id="file-deletion" xmlns="http://www.w3.org/2000/svg"><path d="M3 0h10a3 3 0 0 1 3 3v10a3 3 0 0 1-3 3H3a3 3 0 0 1-3-3V3a3 3 0 0 1 3-3zm0 1a2 2 0 0 0-2 2v10a2 2 0 0 0 2 2h10a2 2 0 0 0 2-2V3a2 2 0 0 0-2-2H3zm2 6h6a1 1 0 0 1 0 2H5a1 1 0 1 1 0-2z"/></symbol><symbol viewBox="0 0 16 16" id="file-modified" xmlns="http://www.w3.org/2000/svg"><path d="M3 0h10a3 3 0 0 1 3 3v10a3 3 0 0 1-3 3H3a3 3 0 0 1-3-3V3a3 3 0 0 1 3-3zm0 1a2 2 0 0 0-2 2v10a2 2 0 0 0 2 2h10a2 2 0 0 0 2-2V3a2 2 0 0 0-2-2H3zm5 4a3 3 0 1 1 0 6 3 3 0 0 1 0-6z"/></symbol><symbol viewBox="0 0 16 16" id="filter" xmlns="http://www.w3.org/2000/svg"><path fill-rule="evenodd" d="M10 6v9l-3.724-1.862A.5.5 0 0 1 6 12.691V6L1.854 1.854A.5.5 0 0 1 2.207 1h11.586a.5.5 0 0 1 .353.854L10 6z"/></symbol><symbol viewBox="0 0 16 16" id="folder" xmlns="http://www.w3.org/2000/svg"><path d="M13 3a3 3 0 0 1 3 3v6a3 3 0 0 1-3 3H3a3 3 0 0 1-3-3V3a2 2 0 0 1 2-2h3.81a3 3 0 0 1 2.827 1.995L13 3z"/></symbol><symbol viewBox="0 0 16 16" id="folder-o" xmlns="http://www.w3.org/2000/svg"><path d="M13 5l-4.365-.005a2 2 0 0 1-1.882-1.33A1 1 0 0 0 5.81 3H2v9a1 1 0 0 0 1 1h10a1 1 0 0 0 1-1V6a1 1 0 0 0-1-1zm0-2a3 3 0 0 1 3 3v6a3 3 0 0 1-3 3H3a3 3 0 0 1-3-3V3a2 2 0 0 1 2-2h3.81a3 3 0 0 1 2.827 1.995L13 3z"/></symbol><symbol viewBox="0 0 16 16" id="folder-open" xmlns="http://www.w3.org/2000/svg"><path fill-rule="evenodd" d="M14.59 5.464a2.998 2.998 0 0 1 1.096 3.845l-1.666 3.436A4 4 0 0 1 10.46 15H3a3 3 0 0 1-3-3V3a2 2 0 0 1 2-2h3.558a2 2 0 0 1 1.898 1.368l.21.632h4.973a2 2 0 0 1 2 2 2 2 0 0 1-.027.329l-.023.135zM5.285 7a1 1 0 0 0-.9.564l-1.939 4a1 1 0 0 0 .9 1.436h7.074a2 2 0 0 0 1.8-1.128l1.665-3.436a1 1 0 0 0-.9-1.436h-7.7z"/></symbol><symbol viewBox="0 0 16 16" id="fork" xmlns="http://www.w3.org/2000/svg"><path d="M9 12.268a2 2 0 1 1-2 0V8.874A4.002 4.002 0 0 1 4 5V3.732a2 2 0 1 1 2 0V5a2 2 0 1 0 4 0V3.732a2 2 0 1 1 2 0V5a4.002 4.002 0 0 1-3 3.874v3.394zM11 3a1 1 0 1 0 0-2 1 1 0 0 0 0 2zM5 3a1 1 0 1 0 0-2 1 1 0 0 0 0 2zm3 12a1 1 0 1 0 0-2 1 1 0 0 0 0 2z"/></symbol><symbol viewBox="0 0 16 16" id="geo-nodes" xmlns="http://www.w3.org/2000/svg"><path d="M9.7 13.1l-.2.2c-.7.8-2 .9-2.8.1-.1 0-.1-.1-.1-.1l-.2-.2c-2 .2-3.4.7-3.4 1.4 0 .8 2.2 1.5 5 1.5s5-.7 5-1.5c0-.7-1.4-1.2-3.3-1.4M7.3 12.7c.4.4 1 .3 1.4-.1C11.6 9.5 13 7 13 5.3 13 2.4 10.8 0 8 0S3 2.4 3 5.3C3 7 4.4 9.5 7.3 12.7M8 2c1.6 0 3 1.4 3 3.3 0 1-1 2.8-3 5.2-2-2.4-3-4.2-3-5.2C5 3.4 6.4 2 8 2"/><circle cx="8" cy="5" r="1"/></symbol><symbol viewBox="0 0 16 16" id="git-merge" xmlns="http://www.w3.org/2000/svg"><path d="M11 12.268V5a1 1 0 0 0-1-1v1a.5.5 0 0 1-.8.4l-2.667-2a.5.5 0 0 1 0-.8L9.2.6a.5.5 0 0 1 .8.4v1a3 3 0 0 1 3 3v7.268a2 2 0 1 1-2 0zm-6 0a2 2 0 1 1-2 0V4.732a2 2 0 1 1 2 0v7.536zM4 4a1 1 0 1 0 0-2 1 1 0 0 0 0 2zm0 11a1 1 0 1 0 0-2 1 1 0 0 0 0 2zm8 0a1 1 0 1 0 0-2 1 1 0 0 0 0 2z"/></symbol><symbol viewBox="0 0 16 16" id="go-back" xmlns="http://www.w3.org/2000/svg"><path d="M4.9 7V6a.5.5 0 0 0-.8-.4l-2.667 2a.5.5 0 0 0 0 .8l2.667 2a.5.5 0 0 0 .8-.4V9h4a1 1 0 1 0 0-2h-4zM7 12a1 1 0 0 0-2 0 3 3 0 0 0 3 3h3a4 4 0 0 0 4-4V5a4 4 0 0 0-4-4H8a3 3 0 0 0-3 3 1 1 0 1 0 2 0 1 1 0 0 1 1-1h3a2 2 0 0 1 2 2v6a2 2 0 0 1-2 2H8a1 1 0 0 1-1-1z"/></symbol><symbol viewBox="0 0 16 16" id="group" xmlns="http://www.w3.org/2000/svg"><path fill-rule="evenodd" d="M3.048 11.997C-.377 11.975.013 11.782.013 10.56.013 9.235.653 8 4 8c.444 0 .84.022 1.194.062.164.435.426.82.76 1.132-1.786.389-2.721 1.353-2.906 2.803zm2.94-7.222a2.993 2.993 0 0 0-.976 1.95 2 2 0 1 1 .975-1.95zm6.964 7.222c-.185-1.45-1.12-2.414-2.906-2.803.334-.311.596-.697.76-1.132C11.16 8.022 11.556 8 12 8c3.346 0 3.987 1.235 3.987 2.56 0 1.222.39 1.415-3.035 1.437zm-1.964-5.272a2.993 2.993 0 0 0-.976-1.95 2 2 0 1 1 .976 1.95zM8 9a2 2 0 1 1 0-4 2 2 0 0 1 0 4zm0 5c-2.177 0-3.987-.115-3.987-1.44S4.653 10 8 10c3.346 0 3.987 1.235 3.987 2.56S10.177 14 8 14z"/></symbol><symbol viewBox="0 0 16 16" id="history" xmlns="http://www.w3.org/2000/svg"><path d="M2.868 3.24a7 7 0 1 1-.043 9.475 1 1 0 0 1 1.478-1.348 5 5 0 1 0 .124-6.865l.796.645a.5.5 0 0 1-.193.873l-3.232.814a.5.5 0 0 1-.622-.504L1.3 3a.5.5 0 0 1 .814-.37l.754.61zM9 8h1a1 1 0 0 1 0 2H8a.997.997 0 0 1-1-1V6a1 1 0 1 1 2 0v2z"/></symbol><symbol viewBox="0 0 16 16" id="home" xmlns="http://www.w3.org/2000/svg"><path d="M9 13h3v-3H4v3h3v-1a1 1 0 0 1 2 0v1zm5-3v3.659c0 .729-.657 1.341-1.5 1.341h-9c-.843 0-1.5-.612-1.5-1.341V10h-.88C.502 10 0 9.486 0 8.853c0-.307.12-.601.333-.816l6.405-6.463a1.56 1.56 0 0 1 2.374-.052L15.66 8.03c.444.441.455 1.167.024 1.622a1.108 1.108 0 0 1-.804.348H14zM7.95 3.273l-4.595 4.64h9.264l-4.67-4.64z"/></symbol><symbol viewBox="0 0 16 16" id="hook" xmlns="http://www.w3.org/2000/svg"><path fill-rule="evenodd" d="M10 3a1 1 0 0 0-1-1H7a1 1 0 0 0-1 1h4zm0 1H6v1a1 1 0 0 0 1 1h2a1 1 0 0 0 1-1V4zM7 8a3 3 0 0 1-3-3V3a3 3 0 0 1 3-3h2a3 3 0 0 1 3 3v2a3 3 0 0 1-3 3v4a2 2 0 1 0 4 0h-.44a.3.3 0 0 1-.25-.466l1.44-2.16a.3.3 0 0 1 .5 0l1.44 2.16a.3.3 0 0 1-.25.466H15a4 4 0 0 1-7 2.646A4 4 0 0 1 1 12H.56a.3.3 0 0 1-.25-.466l1.44-2.16a.3.3 0 0 1 .5 0l1.44 2.16a.3.3 0 0 1-.25.466H3a2 2 0 1 0 4 0V8z"/></symbol><symbol viewBox="0 0 16 16" id="hourglass" xmlns="http://www.w3.org/2000/svg"><path d="M10.331 4.889A2.988 2.988 0 0 0 11 3V2H5v1c0 .362.064.709.182 1.03l5.15.859zM3 14v-1c0-1.78.93-3.342 2.33-4.228.447-.327.67-.582.67-.764 0-.19-.242-.46-.725-.815A4.996 4.996 0 0 1 3 3V2H2a1 1 0 1 1 0-2h12a1 1 0 0 1 0 2h-1v1a4.997 4.997 0 0 1-2.39 4.266c-.407.3-.61.545-.61.734 0 .19.203.434.61.734A4.997 4.997 0 0 1 13 13v1h1a1 1 0 0 1 0 2H2a1 1 0 0 1 0-2h1zm8 0v-1a3 3 0 0 0-6 0v1h6z"/></symbol><symbol viewBox="0 0 38 38" id="image-comment-dark" xmlns="http://www.w3.org/2000/svg"><g fill="none" fill-rule="evenodd"><circle cx="19" cy="19" r="18" fill="#1F78D1"/><path fill="#FFF" fill-rule="nonzero" d="M19 38C8.507 38 0 29.493 0 19S8.507 0 19 0s19 8.507 19 19-8.507 19-19 19zm0-2c9.389 0 17-7.611 17-17S28.389 2 19 2 2 9.611 2 19s7.611 17 17 17zm-6.293-8.293c-.63.63-1.707.184-1.707-.707V15a3 3 0 0 1 3-3h10a3 3 0 0 1 3 3v6a3 3 0 0 1-3 3h-7.586l-3.707 3.707zM13 24.586l2.293-2.293A1 1 0 0 1 16 22h8a1 1 0 0 0 1-1v-6a1 1 0 0 0-1-1H14a1 1 0 0 0-1 1v9.586z"/></g></symbol><symbol viewBox="0 0 38 38" id="image-comment-light" xmlns="http://www.w3.org/2000/svg"><g fill="none" fill-rule="evenodd"><circle cx="19" cy="19" r="18" fill="#FFF"/><path fill="#1F78D1" fill-rule="nonzero" d="M19 38C8.507 38 0 29.493 0 19S8.507 0 19 0s19 8.507 19 19-8.507 19-19 19zm0-2c9.389 0 17-7.611 17-17S28.389 2 19 2 2 9.611 2 19s7.611 17 17 17zm-6.293-8.293c-.63.63-1.707.184-1.707-.707V15a3 3 0 0 1 3-3h10a3 3 0 0 1 3 3v6a3 3 0 0 1-3 3h-7.586l-3.707 3.707zM13 24.586l2.293-2.293A1 1 0 0 1 16 22h8a1 1 0 0 0 1-1v-6a1 1 0 0 0-1-1H14a1 1 0 0 0-1 1v9.586z"/></g></symbol><symbol viewBox="0 0 16 16" id="import" xmlns="http://www.w3.org/2000/svg"><path d="M9 8h1a.5.5 0 0 1 .4.8l-2 2.667a.5.5 0 0 1-.8 0L5.6 8.8A.5.5 0 0 1 6 8h1V1a1 1 0 1 1 2 0v7zM0 8a1 1 0 1 1 2 0 6 6 0 1 0 12 0 1 1 0 0 1 2 0A8 8 0 1 1 0 8z"/></symbol><symbol viewBox="0 0 16 16" id="issue-block" xmlns="http://www.w3.org/2000/svg"><path fill-rule="evenodd" d="M5.803 8a5.97 5.97 0 0 0-.462 1H4.5a.5.5 0 0 1 0-1h1.303zM4.5 5h3a.5.5 0 0 1 0 1h-3a.5.5 0 0 1 0-1zm7.5.083a6.04 6.04 0 0 0-2 0V3a1 1 0 0 0-1-1H3a1 1 0 0 0-1 1v8a1 1 0 0 0 1 1h2.083a5.96 5.96 0 0 0 .72 2H3a3 3 0 0 1-3-3V3a3 3 0 0 1 3-3h6a3 3 0 0 1 3 3v2.083zm1.121 3.796zM11 16a5 5 0 1 1 0-10 5 5 0 0 1 0 10zm-1.293-2.292a3 3 0 0 0 4.001-4.001l-4.001 4zm-1.415-1.415l4.001-4a3 3 0 0 0-4.001 4.001z"/></symbol><symbol viewBox="0 0 16 16" id="issue-child" xmlns="http://www.w3.org/2000/svg"><path d="M11 8H5v1h1a1 1 0 0 1 1 1v4a1 1 0 0 1-1 1H1a1 1 0 0 1-1-1v-4a1 1 0 0 1 1-1h2V7a.997.997 0 0 1 1-1h3V4H4.5a.5.5 0 0 1-.5-.5v-2a.5.5 0 0 1 .5-.5h7a.5.5 0 0 1 .5.5v2a.5.5 0 0 1-.5.5H9v2h3a.997.997 0 0 1 1 1v2h2a1 1 0 0 1 1 1v4a1 1 0 0 1-1 1h-5a1 1 0 0 1-1-1v-4a1 1 0 0 1 1-1h1V8zm-9 3v2h3v-2H2zm9 0v2h3v-2h-3z"/></symbol><symbol viewBox="0 0 16 16" id="issue-close" xmlns="http://www.w3.org/2000/svg"><path d="M7.536 8.657l2.828-2.829a1 1 0 0 1 1.414 1.415l-3.535 3.535a.997.997 0 0 1-1.415 0l-2.12-2.121A1 1 0 0 1 6.12 7.243l1.415 1.414zM8 16A8 8 0 1 1 8 0a8 8 0 0 1 0 16zm0-2A6 6 0 1 0 8 2a6 6 0 0 0 0 12z"/></symbol><symbol viewBox="0 0 16 16" id="issue-duplicate" xmlns="http://www.w3.org/2000/svg"><path d="M10.874 2H12a3 3 0 0 1 3 3v8a3 3 0 0 1-3 3h-2c-.918 0-1.74-.413-2.29-1.063a3.987 3.987 0 0 0 1.988-.984A1 1 0 0 0 10 14h2a1 1 0 0 0 1-1V5a1 1 0 0 0-1-1h-1V3c0-.345-.044-.68-.126-1zM4 0h3a3 3 0 0 1 3 3v8a3 3 0 0 1-3 3H4a3 3 0 0 1-3-3V3a3 3 0 0 1 3-3zm0 2a1 1 0 0 0-1 1v8a1 1 0 0 0 1 1h3a1 1 0 0 0 1-1V3a1 1 0 0 0-1-1H4z"/></symbol><symbol viewBox="0 0 16 16" id="issue-external" xmlns="http://www.w3.org/2000/svg"><path d="M11 4a5.99 5.99 0 0 0-2 .341V3a1 1 0 0 0-1-1H4a1 1 0 0 0-1 1v10a1 1 0 0 0 1 1h2.528a6.003 6.003 0 0 0 2.705 1.736A2.99 2.99 0 0 1 8 16H4a3 3 0 0 1-3-3V3a3 3 0 0 1 3-3h4a3 3 0 0 1 3 3v1zM8.212 8.97l-.568-.876A.25.25 0 0 1 7.66 7.8l.404-.5a.25.25 0 0 1 .284-.076l.938.36c.256-.182.543-.325.85-.42l.323-.988a.25.25 0 0 1 .237-.173h.643a.25.25 0 0 1 .238.173l.321.989c.308.094.595.237.852.418l.937-.359a.25.25 0 0 1 .284.076l.404.5a.25.25 0 0 1 .016.293l-.568.875c.113.297.18.616.192.95l.9.54a.25.25 0 0 1 .114.27l-.145.627a.25.25 0 0 1-.221.192l-1.115.098a3.015 3.015 0 0 1-.512.608l.165 1.18a.25.25 0 0 1-.138.259l-.577.282a.25.25 0 0 1-.29-.051l-.874-.905a3.035 3.035 0 0 1-.608 0l-.875.905a.25.25 0 0 1-.29.05l-.577-.281a.25.25 0 0 1-.138-.26L9 12.254a3.015 3.015 0 0 1-.512-.607l-1.114-.098a.25.25 0 0 1-.222-.192l-.145-.627a.25.25 0 0 1 .115-.27l.899-.54c.012-.334.08-.653.192-.95zm2.806 2.034a1 1 0 1 0 0-2 1 1 0 0 0 0 2z"/></symbol><symbol viewBox="0 0 16 16" id="issue-new" xmlns="http://www.w3.org/2000/svg"><path d="M10 2V1a1 1 0 0 1 2 0v1h1a1 1 0 0 1 0 2h-1v1a1 1 0 0 1-2 0V4H9a1 1 0 1 1 0-2h1zm0 6a1 1 0 0 1 2 0v5a3 3 0 0 1-3 3H5a3 3 0 0 1-3-3V5a3 3 0 0 1 3-3h1a1 1 0 1 1 0 2H5a1 1 0 0 0-1 1v8a1 1 0 0 0 1 1h4a1 1 0 0 0 1-1V8z"/></symbol><symbol viewBox="0 0 16 16" id="issue-open" xmlns="http://www.w3.org/2000/svg"><path d="M8 16A8 8 0 1 1 8 0a8 8 0 0 1 0 16zm0-2A6 6 0 1 0 8 2a6 6 0 0 0 0 12zm0-2a4 4 0 1 1 0-8 4 4 0 0 1 0 8zm0-2a2 2 0 1 0 0-4 2 2 0 0 0 0 4z"/></symbol><symbol viewBox="0 0 16 16" id="issue-open-m" xmlns="http://www.w3.org/2000/svg"><path d="M8 16A8 8 0 1 1 8 0a8 8 0 0 1 0 16zm0-2A6 6 0 1 0 8 2a6 6 0 0 0 0 12z"/></symbol><symbol viewBox="0 0 16 16" id="issue-parent" xmlns="http://www.w3.org/2000/svg"><path d="M11 11H5v1h1.5a.5.5 0 0 1 .5.5v2a.5.5 0 0 1-.5.5h-6a.5.5 0 0 1-.5-.5v-2a.5.5 0 0 1 .5-.5H3v-2a.997.997 0 0 1 1-1h3V7H5a1 1 0 0 1-1-1V2a1 1 0 0 1 1-1h6a1 1 0 0 1 1 1v4a1 1 0 0 1-1 1H9v2h3a.997.997 0 0 1 1 1v2h2.5a.5.5 0 0 1 .5.5v2a.5.5 0 0 1-.5.5h-6a.5.5 0 0 1-.5-.5v-2a.5.5 0 0 1 .5-.5H11v-1zM6 3v2h4V3H6z"/></symbol><symbol viewBox="0 0 16 16" id="issues" xmlns="http://www.w3.org/2000/svg"><path d="M10.458 15.012l.311.055a3 3 0 0 0 3.476-2.433l1.389-7.879A3 3 0 0 0 13.2 1.28L11.23.933a3.002 3.002 0 0 0-.824-.031c.364.59.58 1.28.593 2.02l1.854.328a1 1 0 0 1 .811 1.158l-1.389 7.879a1 1 0 0 1-1.158.81l-.118-.02a3.98 3.98 0 0 1-.541 1.935zM3 0h4a3 3 0 0 1 3 3v10a3 3 0 0 1-3 3H3a3 3 0 0 1-3-3V3a3 3 0 0 1 3-3zm0 2a1 1 0 0 0-1 1v10a1 1 0 0 0 1 1h4a1 1 0 0 0 1-1V3a1 1 0 0 0-1-1H3z"/></symbol><symbol viewBox="0 0 16 16" id="italic" xmlns="http://www.w3.org/2000/svg"><path fill-rule="evenodd" d="M5.5 12l2-8H6a1 1 0 1 1 0-2h6a1 1 0 0 1 0 2h-1.5l-2 8H10a1 1 0 0 1 0 2H4a1 1 0 0 1 0-2h1.5z"/></symbol><symbol viewBox="0 0 16 16" id="key" xmlns="http://www.w3.org/2000/svg"><path d="M7.575 6.689a4.002 4.002 0 0 1 6.274-4.86 4 4 0 0 1-4.86 6.274l-2.21 2.21.706.708a1 1 0 1 1-1.414 1.414l-.707-.707-.707.707.707.707a1 1 0 1 1-1.414 1.414l-.707-.707a1 1 0 0 1-1.414-1.414l5.746-5.746zm2.032-.618a2 2 0 1 0 2.828-2.828A2 2 0 0 0 9.607 6.07z"/></symbol><symbol viewBox="0 0 16 16" id="key-2" xmlns="http://www.w3.org/2000/svg"><path d="M5.172 14.157l-.344.344-2.485.133a.462.462 0 0 1-.497-.503l.14-2.24a.599.599 0 0 1 .177-.382l5.155-5.155a4 4 0 1 1 2.828 2.828l-1.439 1.44-1.06-.354-.708.707.354 1.06-.707.708-1.06-.354-.708.707.354 1.06zm6.01-8.839a1 1 0 1 0 1.414-1.414 1 1 0 0 0-1.414 1.414z"/></symbol><symbol viewBox="0 0 16 16" id="label" xmlns="http://www.w3.org/2000/svg"><path d="M11.782 14.718a3 3 0 0 1-4.242 0L1.652 8.829a2 2 0 0 1-.565-1.702l.54-3.703a2 2 0 0 1 1.69-1.69l3.703-.54a2 2 0 0 1 1.703.564l5.888 5.888a3 3 0 0 1 0 4.243l-2.829 2.829zm1.415-5.657L7.309 3.173l-3.703.54-.54 3.702 5.888 5.888a1 1 0 0 0 1.414 0l2.829-2.828a1 1 0 0 0 0-1.414zM5.732 5.525A1 1 0 1 1 7.146 6.94a1 1 0 0 1-1.414-1.414z"/></symbol><symbol viewBox="0 0 16 16" id="labels" xmlns="http://www.w3.org/2000/svg"><path d="M9.424 2.254l2.08-.905a1 1 0 0 1 1.206.326l3.013 4.12a1 1 0 0 1 .16.849l-1.947 7.264a3 3 0 0 1-3.675 2.122l-.5-.135a3.999 3.999 0 0 0 1.082-1.782 1 1 0 0 0 1.16-.722l1.823-6.802-2.258-3.087-.687.299a2 2 0 0 0-.628-.88l-.829-.667zM.377 3.7L4.4.498a1 1 0 0 1 1.25.003L9.627 3.7a1 1 0 0 1 .373.78V13a3 3 0 0 1-3 3H3a3 3 0 0 1-3-3V4.482A1 1 0 0 1 .377 3.7zM2 13a1 1 0 0 0 1 1h4a1 1 0 0 0 1-1V4.958L5.02 2.561 2 4.964V13zm3-6a1 1 0 1 1 0-2 1 1 0 0 1 0 2z"/></symbol><symbol viewBox="0 0 16 16" id="leave" xmlns="http://www.w3.org/2000/svg"><path d="M11 7V5.883a.5.5 0 0 1 .757-.429l3.528 2.117a.5.5 0 0 1 0 .858l-3.528 2.117a.5.5 0 0 1-.757-.43V9H7a1 1 0 1 1 0-2h4zm-2 6.256a1 1 0 0 1 2 0A2.744 2.744 0 0 1 8.256 16H3a3 3 0 0 1-3-3V3a3 3 0 0 1 3-3h5.19A2.81 2.81 0 0 1 11 2.81a1 1 0 0 1-2 0A.81.81 0 0 0 8.19 2H3a1 1 0 0 0-1 1v10a1 1 0 0 0 1 1h5.256c.41 0 .744-.333.744-.744z"/></symbol><symbol viewBox="0 0 16 16" id="level-up" xmlns="http://www.w3.org/2000/svg"><path fill="#2E2E2E" fill-rule="evenodd" d="M7 6h3.489a.5.5 0 0 0 .373-.832L6.374.117a.5.5 0 0 0-.748 0l-4.488 5.05A.5.5 0 0 0 1.51 6H5v7a3 3 0 0 0 3 3h6a1 1 0 0 0 0-2H8a1 1 0 0 1-1-1V6z"/></symbol><symbol viewBox="0 0 16 16" id="license" xmlns="http://www.w3.org/2000/svg"><path fill-rule="evenodd" d="M12.56 8.9l2.66 4.606a.3.3 0 0 1-.243.45l-1.678.094a.1.1 0 0 0-.078.044l-.953 1.432a.3.3 0 0 1-.51-.016L9.097 10.9a5.994 5.994 0 0 0 3.464-2zm-5.23 2.063L4.707 15.51a.3.3 0 0 1-.51.016l-.953-1.432a.1.1 0 0 0-.078-.044l-1.678-.094a.3.3 0 0 1-.243-.45l2.48-4.297a5.983 5.983 0 0 0 3.607 1.754zM8 10A5 5 0 1 1 8 0a5 5 0 0 1 0 10zm0-2a3 3 0 1 0 0-6 3 3 0 0 0 0 6zm0-1a2 2 0 1 1 0-4 2 2 0 0 1 0 4z"/></symbol><symbol viewBox="0 0 16 16" id="link" xmlns="http://www.w3.org/2000/svg"><path d="M6.986 3.35l2.12-2.122a4 4 0 0 1 5.657 5.657l-2.828 2.829a4 4 0 0 1-5.657 0 1 1 0 0 1 1.414-1.415 2 2 0 0 0 2.829 0l2.828-2.828a2 2 0 1 0-2.828-2.828l-1.001 1a5.018 5.018 0 0 0-2.534-.294zm2.12 9.192l-2.12 2.121a4 4 0 1 1-5.658-5.656l2.829-2.829a4 4 0 0 1 5.657 0 1 1 0 1 1-1.415 1.414 2 2 0 0 0-2.828 0l-2.828 2.829a2 2 0 1 0 2.828 2.828l1.001-1.001a5.018 5.018 0 0 0 2.534.294z"/></symbol><symbol viewBox="0 0 16 16" id="list-bulleted" xmlns="http://www.w3.org/2000/svg"><path fill-rule="evenodd" d="M1 4a1 1 0 1 1 0-2 1 1 0 0 1 0 2zm0 5a1 1 0 1 1 0-2 1 1 0 0 1 0 2zm4-7h10a1 1 0 0 1 0 2H5a1 1 0 1 1 0-2zm0 5h10a1 1 0 0 1 0 2H5a1 1 0 1 1 0-2zm-4 7a1 1 0 1 1 0-2 1 1 0 0 1 0 2zm4-2h10a1 1 0 0 1 0 2H5a1 1 0 0 1 0-2z"/></symbol><symbol viewBox="0 0 16 16" id="list-numbered" xmlns="http://www.w3.org/2000/svg"><path fill-rule="evenodd" d="M6 2h8a1 1 0 0 1 0 2H6a1 1 0 1 1 0-2zm0 5h8a1 1 0 0 1 0 2H6a1 1 0 1 1 0-2zm0 5h8a1 1 0 0 1 0 2H6a1 1 0 0 1 0-2zM1.156 5v-.828h.816V2.204h-.72v-.636c.432-.084.708-.192.996-.372h.756v2.976h.684V5H1.156zm-.18 5v-.588c.9-.828 1.596-1.464 1.596-1.98 0-.342-.192-.504-.468-.504-.252 0-.444.18-.624.36l-.552-.552c.396-.42.756-.612 1.32-.612.768 0 1.308.492 1.308 1.248 0 .612-.576 1.284-1.092 1.812.192-.024.468-.048.636-.048h.636V10H.976zm1.26 5.072c-.618 0-1.068-.204-1.356-.54l.468-.648c.234.216.51.36.78.36.336 0 .552-.12.552-.36 0-.288-.15-.456-.948-.456v-.72c.636 0 .828-.168.828-.432 0-.228-.138-.348-.396-.348-.252 0-.432.108-.672.312l-.516-.624c.372-.312.768-.492 1.236-.492.84 0 1.38.384 1.38 1.074 0 .366-.204.642-.612.822v.024c.432.132.732.432.732.912 0 .72-.684 1.116-1.476 1.116z"/></symbol><symbol viewBox="0 0 16 16" id="location" xmlns="http://www.w3.org/2000/svg"><path d="M8.755 15.144a1 1 0 0 1-1.51 0C3.748 11.114 2 8.065 2 6a6 6 0 1 1 12 0c0 2.065-1.748 5.113-5.245 9.144zM12 6a4 4 0 1 0-8 0c0 1.314 1.312 3.71 4 6.944C10.688 9.71 12 7.314 12 6zM8 8a2 2 0 1 1 0-4 2 2 0 0 1 0 4z"/></symbol><symbol viewBox="0 0 16 16" id="location-dot" xmlns="http://www.w3.org/2000/svg"><path fill-rule="evenodd" d="M6.314 13.087C4.382 13.295 3 13.85 3 14.5c0 .828 2.239 1.5 5 1.5s5-.672 5-1.5c0-.65-1.382-1.205-3.314-1.413l-.202.225a2 2 0 0 1-2.968 0l-.202-.225zm2.428-.445a1 1 0 0 1-1.484 0C4.419 9.5 3 7.037 3 5.252 3 2.353 5.239 0 8 0s5 2.352 5 5.253c0 1.784-1.42 4.247-4.258 7.389zM11 5.252C11 3.436 9.634 2 8 2S5 3.435 5 5.253c0 1.027.974 2.824 3 5.203 2.026-2.38 3-4.176 3-5.203zM8 6a1 1 0 1 1 0-2 1 1 0 0 1 0 2z"/></symbol><symbol viewBox="0 0 16 16" id="lock" xmlns="http://www.w3.org/2000/svg"><path d="M10 5V4h2v1a3 3 0 0 1 3 3v5a3 3 0 0 1-3 3H4a3 3 0 0 1-3-3V8a3 3 0 0 1 3-3V4h2v1h4zM4 7a1 1 0 0 0-1 1v5a1 1 0 0 0 1 1h8a1 1 0 0 0 1-1V8a1 1 0 0 0-1-1H4zm0-3a4 4 0 1 1 8 0h-2a2 2 0 1 0-4 0H4z"/></symbol><symbol viewBox="0 0 16 16" id="lock-open" xmlns="http://www.w3.org/2000/svg"><path d="M4.044 4a4 4 0 0 1 6.99-2.658 1 1 0 1 1-1.495 1.33A2 2 0 0 0 6.044 4a.998.998 0 0 1-.07.367v.701H12a3 3 0 0 1 3 3v5a3 3 0 0 1-3 3H4a3 3 0 0 1-3-3v-5a3 3 0 0 1 2.974-3V4h.07zM4 7.07a1 1 0 0 0-1 1v5a1 1 0 0 0 1 1h8a1 1 0 0 0 1-1v-5a1 1 0 0 0-1-1H4z"/></symbol><symbol viewBox="0 0 16 16" id="log" xmlns="http://www.w3.org/2000/svg"><path d="M4 0h8a3 3 0 0 1 3 3v10a3 3 0 0 1-3 3H4a3 3 0 0 1-3-3V3a3 3 0 0 1 3-3zm0 2a1 1 0 0 0-1 1v10a1 1 0 0 0 1 1h8a1 1 0 0 0 1-1V3a1 1 0 0 0-1-1H4zm1 4a1 1 0 1 1 0-2 1 1 0 0 1 0 2zm0 3a1 1 0 1 1 0-2 1 1 0 0 1 0 2zm3-5h3a1 1 0 0 1 0 2H8a1 1 0 1 1 0-2zm0 3h3a1 1 0 0 1 0 2H8a1 1 0 1 1 0-2zm-3 5a1 1 0 1 1 0-2 1 1 0 0 1 0 2zm3-2h3a1 1 0 0 1 0 2H8a1 1 0 0 1 0-2z"/></symbol><symbol viewBox="0 0 16 16" id="mail" xmlns="http://www.w3.org/2000/svg"><path d="M14 5.6L9.338 9.796a2 2 0 0 1-2.676 0L2 5.6V11a1 1 0 0 0 1 1h10a1 1 0 0 0 1-1V5.6zM3 2h10a3 3 0 0 1 3 3v6a3 3 0 0 1-3 3H3a3 3 0 0 1-3-3V5a3 3 0 0 1 3-3zm.212 2L8 8.31 12.788 4H3.212z"/></symbol><symbol viewBox="0 0 16 16" id="menu" xmlns="http://www.w3.org/2000/svg"><path fill-rule="evenodd" d="M1.143 2h13.714C15.488 2 16 2.448 16 3s-.512 1-1.143 1H1.143C.512 4 0 3.552 0 3s.512-1 1.143-1zm0 5h13.714C15.488 7 16 7.448 16 8s-.512 1-1.143 1H1.143C.512 9 0 8.552 0 8s.512-1 1.143-1zm0 5h13.714c.631 0 1.143.448 1.143 1s-.512 1-1.143 1H1.143C.512 14 0 13.552 0 13s.512-1 1.143-1z"/></symbol><symbol viewBox="0 0 16 16" id="merge-request-close" xmlns="http://www.w3.org/2000/svg"><path d="M9.414 8l1.414 1.414a1 1 0 1 1-1.414 1.414L8 9.414l-1.414 1.414a1 1 0 1 1-1.414-1.414L6.586 8 5.172 6.586a1 1 0 1 1 1.414-1.414L8 6.586l1.414-1.414a1 1 0 1 1 1.414 1.414L9.414 8zM8 16A8 8 0 1 1 8 0a8 8 0 0 1 0 16zm0-2A6 6 0 1 0 8 2a6 6 0 0 0 0 12z"/></symbol><symbol viewBox="0 0 16 16" id="messages" xmlns="http://www.w3.org/2000/svg"><path fill-rule="evenodd" d="M8.588 8.942l1.173 5.862A1 1 0 0 1 8.78 16H7.22a1 1 0 0 1-.98-1.196l1.172-5.862a3.014 3.014 0 0 0 1.176 0zM8 8a2 2 0 1 1 0-4 2 2 0 0 1 0 4zM4.464 2.464L5.88 3.88a3 3 0 0 0 0 4.242L4.464 9.536a5 5 0 0 1 0-7.072zm7.072 7.072L10.12 8.12a3 3 0 0 0 0-4.242l1.415-1.415a5 5 0 0 1 0 7.072zM2.343.343l1.414 1.414a6 6 0 0 0 0 8.486l-1.414 1.414a8 8 0 0 1 0-11.314zm11.314 11.314l-1.414-1.414a6 6 0 0 0 0-8.486L13.657.343a8 8 0 0 1 0 11.314z"/></symbol><symbol viewBox="0 0 16 16" id="mobile-issue-close" xmlns="http://www.w3.org/2000/svg"><path fill-rule="evenodd" d="M5.657 10.728L2.12 7.192A1 1 0 1 0 .707 8.607l4.243 4.242a.997.997 0 0 0 1.414 0l8.485-8.485a1 1 0 1 0-1.414-1.414l-7.778 7.778z"/></symbol><symbol viewBox="0 0 16 16" id="monitor" xmlns="http://www.w3.org/2000/svg"><path fill-rule="evenodd" d="M10 13v1h3a1 1 0 0 1 0 2H3a1 1 0 0 1 0-2h3v-1H3a3 3 0 0 1-3-3V3a3 3 0 0 1 3-3h10a3 3 0 0 1 3 3v7a3 3 0 0 1-3 3h-3zM3 2a1 1 0 0 0-1 1v7a1 1 0 0 0 1 1h10a1 1 0 0 0 1-1V3a1 1 0 0 0-1-1H3zm5.723 6.416l-2.66-1.773-1.71 1.71a.5.5 0 1 1-.707-.707l2-2a.5.5 0 0 1 .631-.062l2.66 1.773 2.71-2.71a.5.5 0 0 1 .707.707l-3 3a.5.5 0 0 1-.631.062z"/></symbol><symbol viewBox="0 0 16 16" id="monitor-lines" xmlns="http://www.w3.org/2000/svg"><path fill-rule="evenodd" d="M10 12v1h3a1 1 0 0 1 0 2H3a1 1 0 0 1 0-2h3v-1H4a3 3 0 0 1-3-3V4a3 3 0 0 1 3-3h8a3 3 0 0 1 3 3v5a3 3 0 0 1-3 3h-2zM4 3a1 1 0 0 0-1 1v5a1 1 0 0 0 1 1h8a1 1 0 0 0 1-1V4a1 1 0 0 0-1-1H4zm1.5 2h5a.5.5 0 1 1 0 1h-5a.5.5 0 0 1 0-1zm0 2h3a.5.5 0 0 1 0 1h-3a.5.5 0 0 1 0-1z"/></symbol><symbol viewBox="0 0 16 16" id="more" xmlns="http://www.w3.org/2000/svg"><path fill-rule="evenodd" d="M8 4a2 2 0 1 1 0-4 2 2 0 0 1 0 4zm0 6a2 2 0 1 1 0-4 2 2 0 0 1 0 4zm0 6a2 2 0 1 1 0-4 2 2 0 0 1 0 4z"/></symbol><symbol viewBox="0 0 16 16" id="notifications" xmlns="http://www.w3.org/2000/svg"><path fill-rule="evenodd" d="M6 14H2.435a2 2 0 0 1-1.761-2.947c.962-1.788 1.521-3.065 1.68-3.832.322-1.566.947-5.501 4.65-6.134a1 1 0 1 1 1.994-.024c3.755.528 4.375 4.27 4.761 6.043.188.86.742 2.188 1.661 3.982A2 2 0 0 1 13.64 14H10a2 2 0 1 1-4 0zm5.805-6.468c-.325-1.492-.37-1.674-.61-2.288C10.6 3.716 9.742 3 8.07 3c-1.608 0-2.49.718-3.103 2.197-.28.676-.356.982-.654 2.428-.208 1.012-.827 2.424-1.877 4.375H13.64c-.993-1.937-1.6-3.396-1.835-4.468z"/></symbol><symbol viewBox="0 0 16 16" id="notifications-off" xmlns="http://www.w3.org/2000/svg"><path fill-rule="evenodd" d="M13.26 5.089c.243.757.382 1.478.5 2.017.187.86.74 2.188 1.66 3.982A2 2 0 0 1 13.64 14H10a2 2 0 1 1-4 0H4.35l2-2h7.29c-.993-1.937-1.6-3.396-1.835-4.468-.07-.326-.129-.59-.178-.81l1.634-1.633zM10.943 1.75l-1.48 1.48C9.07 3.076 8.612 3 8.069 3c-1.608 0-2.49.718-3.103 2.197-.28.676-.356.982-.654 2.428-.065.317-.17.673-.317 1.073L.45 12.242a1.99 1.99 0 0 1 .224-1.19c.962-1.787 1.521-3.064 1.68-3.831.322-1.566.947-5.501 4.65-6.134a1 1 0 1 1 1.994-.024 4.867 4.867 0 0 1 1.944.688zm2.932-.105a1 1 0 0 1 0 1.415L2.561 14.374a1 1 0 1 1-1.415-1.414L12.46 1.646a1 1 0 0 1 1.414 0z"/></symbol><symbol viewBox="0 0 16 16" id="overview" xmlns="http://www.w3.org/2000/svg"><path d="M2 0h3a2 2 0 0 1 2 2v3a2 2 0 0 1-2 2H2a2 2 0 0 1-2-2V2a2 2 0 0 1 2-2zm0 2v3h3V2H2zm9-2h3a2 2 0 0 1 2 2v3a2 2 0 0 1-2 2h-3a2 2 0 0 1-2-2V2a2 2 0 0 1 2-2zm0 2v3h3V2h-3zM2 9h3a2 2 0 0 1 2 2v3a2 2 0 0 1-2 2H2a2 2 0 0 1-2-2v-3a2 2 0 0 1 2-2zm0 2v3h3v-3H2zm9-2h3a2 2 0 0 1 2 2v3a2 2 0 0 1-2 2h-3a2 2 0 0 1-2-2v-3a2 2 0 0 1 2-2zm0 2v3h3v-3h-3z"/></symbol><symbol viewBox="0 0 16 16" id="pencil" xmlns="http://www.w3.org/2000/svg"><path d="M13.02 1.293l1.414 1.414a1 1 0 0 1 0 1.414L4.119 14.436a1 1 0 0 1-.704.293l-2.407.008L1 12.316a1 1 0 0 1 .293-.71L11.605 1.292a1 1 0 0 1 1.414 0zm-1.416 1.415l-.707.707L12.31 4.83l.707-.707-1.414-1.415zM3.411 13.73l1.123-1.122H3.12v-1.415L2 12.312l.005 1.422 1.406-.005z"/></symbol><symbol viewBox="0 0 16 16" id="pencil-square" xmlns="http://www.w3.org/2000/svg"><path d="M12 9a1 1 0 0 1 2 0v4a3 3 0 0 1-3 3H3a3 3 0 0 1-3-3V5a3 3 0 0 1 3-3h4a1 1 0 1 1 0 2H3a1 1 0 0 0-1 1v8a1 1 0 0 0 1 1h8a1 1 0 0 0 1-1V9zm.778-7.179l1.414 1.415-6.476 6.476a1 1 0 0 1-.498.27l-1.51.325.323-1.512a1 1 0 0 1 .27-.497l6.477-6.477zM15.607.407a1 1 0 0 1 0 1.414l-.708.707-1.414-1.414.707-.707a1 1 0 0 1 1.415 0z"/></symbol><symbol viewBox="0 0 16 16" id="pipeline" xmlns="http://www.w3.org/2000/svg"><path d="M8.969 7.25a2 2 0 1 1-1.938 0A1.002 1.002 0 0 1 7 7V5.083a.2.2 0 0 1 .06-.142l.877-.87a.1.1 0 0 1 .141 0l.864.87A.2.2 0 0 1 9 5.083V7c0 .086-.01.17-.031.25zM8 16A8 8 0 1 1 8 0a8 8 0 0 1 0 16zm0-2A6 6 0 1 0 8 2a6 6 0 0 0 0 12zm4.5-4a.5.5 0 1 1 0-1 .5.5 0 0 1 0 1zm0-3a.5.5 0 1 1 0-1 .5.5 0 0 1 0 1zm-2 6a.5.5 0 1 1 0-1 .5.5 0 0 1 0 1zm0-9a.5.5 0 1 1 0-1 .5.5 0 0 1 0 1zm-5 9a.5.5 0 1 1 0-1 .5.5 0 0 1 0 1zm0-9a.5.5 0 1 1 0-1 .5.5 0 0 1 0 1zm-2 6a.5.5 0 1 1 0-1 .5.5 0 0 1 0 1zm0-3a.5.5 0 1 1 0-1 .5.5 0 0 1 0 1zM8 10a1 1 0 1 0 0-2 1 1 0 0 0 0 2z"/></symbol><symbol viewBox="0 0 16 16" id="play" xmlns="http://www.w3.org/2000/svg"><path fill-rule="evenodd" d="M2.765 15.835c-.545.321-1.258.159-1.593-.363A1.075 1.075 0 0 1 1 14.89V1.11C1 .496 1.518 0 2.158 0c.214 0 .424.057.607.165l11.684 6.89c.544.321.714 1.005.38 1.526a1.135 1.135 0 0 1-.38.364l-11.684 6.89z"/></symbol><symbol viewBox="0 0 16 16" id="plus" xmlns="http://www.w3.org/2000/svg"><path fill-rule="evenodd" d="M7 7H2a1 1 0 1 0 0 2h5v5a1 1 0 0 0 2 0V9h5a1 1 0 0 0 0-2H9V2a1 1 0 1 0-2 0v5z"/></symbol><symbol viewBox="0 0 16 16" id="plus-square" xmlns="http://www.w3.org/2000/svg"><path fill-rule="evenodd" d="M9 7V4a1 1 0 1 0-2 0v3H4a1 1 0 1 0 0 2h3v3a1 1 0 0 0 2 0V9h3a1 1 0 0 0 0-2H9zM3 0h10a3 3 0 0 1 3 3v10a3 3 0 0 1-3 3H3a3 3 0 0 1-3-3V3a3 3 0 0 1 3-3z"/></symbol><symbol viewBox="0 0 16 16" id="plus-square-o" xmlns="http://www.w3.org/2000/svg"><path fill-rule="evenodd" d="M7 7V5a1 1 0 1 1 2 0v2h2a1 1 0 0 1 0 2H9v2a1 1 0 0 1-2 0V9H5a1 1 0 1 1 0-2h2zM3 0h10a3 3 0 0 1 3 3v10a3 3 0 0 1-3 3H3a3 3 0 0 1-3-3V3a3 3 0 0 1 3-3zm0 2a1 1 0 0 0-1 1v10a1 1 0 0 0 1 1h10a1 1 0 0 0 1-1V3a1 1 0 0 0-1-1H3z"/></symbol><symbol viewBox="0 0 16 16" id="podcast" xmlns="http://www.w3.org/2000/svg"><path fill-rule="evenodd" d="M8.588 8.942l1.173 5.862a1 1 0 0 1-.785 1.177A1 1 0 0 1 8.78 16H7.22a1 1 0 0 1-1-1 1 1 0 0 1 .02-.196l1.172-5.862a3.014 3.014 0 0 0 1.176 0zM8 7.5a1.5 1.5 0 1 1 0-3 1.5 1.5 0 0 1 0 3zM4.464 2.464A1 1 0 0 1 5.88 3.88a3 3 0 0 0 0 4.242 1 1 0 0 1-1.415 1.415 5 5 0 0 1 0-7.072zm7.072 7.072A1 1 0 0 1 10.12 8.12a3 3 0 0 0 0-4.242 1 1 0 0 1 1.415-1.415 5 5 0 0 1 0 7.072zM2.343.343a1 1 0 1 1 1.414 1.414 6 6 0 0 0 0 8.486 1 1 0 1 1-1.414 1.414 8 8 0 0 1 0-11.314zm11.314 11.314a1 1 0 1 1-1.414-1.414 6 6 0 0 0 0-8.486A1 1 0 0 1 13.657.343a8 8 0 0 1 0 11.314z"/></symbol><symbol viewBox="0 0 16 16" id="preferences" xmlns="http://www.w3.org/2000/svg"><path fill-rule="evenodd" d="M5 12h10a1 1 0 0 1 0 2H5a1 1 0 0 1-2 0v-2a1 1 0 0 1 2 0zm-3 0H1a1 1 0 0 0 0 2h1v-2zm11-5h2a1 1 0 0 1 0 2h-2a1 1 0 0 1-2 0V7a1 1 0 0 1 2 0zm-3 0H1a1 1 0 1 0 0 2h9V7zM6 2h9a1 1 0 0 1 0 2H6a1 1 0 1 1-2 0V2a1 1 0 1 1 2 0zM3 2H1a1 1 0 1 0 0 2h2V2z"/></symbol><symbol viewBox="0 0 16 16" id="profile" xmlns="http://www.w3.org/2000/svg"><path d="M8 16A8 8 0 1 1 8 0a8 8 0 0 1 0 16zm0-2A6 6 0 1 0 8 2a6 6 0 0 0 0 12zm-4.274-3.404C4.412 9.709 5.694 9 8 9c2.313 0 3.595.7 4.28 1.586A4.997 4.997 0 0 1 8 13a4.997 4.997 0 0 1-4.274-2.404zM8 8a2 2 0 1 1 0-4 2 2 0 0 1 0 4z"/></symbol><symbol viewBox="0 0 16 16" id="project" xmlns="http://www.w3.org/2000/svg"><path d="M8.462 2.177l-.038.044a.505.505 0 0 0 .038-.044zm-.787 0a.5.5 0 0 0 .038.043l-.038-.043zM3.706 7h8.725L8.069 2.585 3.706 7zM7 13.369V12a1 1 0 0 1 2 0v1.369h3V9H4v4.369h3zM14 9v4.836c0 .833-.657 1.533-1.5 1.533h-9c-.843 0-1.5-.7-1.5-1.533V9h-.448a1.1 1.1 0 0 1-.783-1.873L6.934.887a1.5 1.5 0 0 1 2.269 0l6.165 6.24A1.1 1.1 0 0 1 14.585 9H14z"/></symbol><symbol viewBox="0 0 16 16" id="push-rules" xmlns="http://www.w3.org/2000/svg"><path d="M6.268 9a2 2 0 0 1 3.464 0H11a1 1 0 0 1 0 2H9.732a2 2 0 0 1-3.464 0H5a1 1 0 0 1 0-2h1.268zM7 2H4a1 1 0 0 0-1 1v10a1 1 0 0 0 1 1h8a1 1 0 0 0 1-1V3a1 1 0 0 0-1-1h-1v3.515a.3.3 0 0 1-.434.268l-1.432-.716a.3.3 0 0 0-.268 0l-1.432.716A.3.3 0 0 1 7 5.515V2zM4 0h8a3 3 0 0 1 3 3v10a3 3 0 0 1-3 3H4a3 3 0 0 1-3-3V3a3 3 0 0 1 3-3zm4 11a1 1 0 1 0 0-2 1 1 0 0 0 0 2z"/></symbol><symbol viewBox="0 0 16 16" id="question" xmlns="http://www.w3.org/2000/svg"><path fill-rule="evenodd" d="M8 16A8 8 0 1 1 8 0a8 8 0 0 1 0 16zm-1.46-5.602h2.233a3.97 3.97 0 0 1 .051-.558c.029-.17.073-.326.133-.469.06-.143.14-.28.242-.41.102-.13.228-.263.38-.399.26-.24.504-.467.733-.683a5.03 5.03 0 0 0 .598-.668c.17-.23.302-.477.399-.742a2.66 2.66 0 0 0 .144-.907c0-.505-.083-.95-.25-1.335a2.55 2.55 0 0 0-.723-.97 3.2 3.2 0 0 0-1.152-.589 5.441 5.441 0 0 0-1.531-.2c-.516 0-.998.063-1.445.188a3.19 3.19 0 0 0-1.168.59c-.331.268-.594.61-.79 1.027-.195.417-.295.917-.3 1.5h2.64c.006-.224.04-.416.102-.578.062-.161.142-.293.238-.394a.921.921 0 0 1 .332-.227 1.04 1.04 0 0 1 .39-.074c.34 0 .593.095.763.285.169.19.254.488.254.895 0 .328-.106.63-.317.906-.21.276-.499.565-.863.867-.214.182-.39.374-.531.574-.141.2-.253.42-.336.657a3.656 3.656 0 0 0-.176.777 7.89 7.89 0 0 0-.05.937zm-.321 2.375c0 .188.035.362.105.524.07.161.17.3.301.418.13.117.284.21.46.277.178.068.376.102.595.102.218 0 .416-.034.593-.102.178-.068.331-.16.461-.277a1.2 1.2 0 0 0 .301-.418c.07-.162.106-.336.106-.524a1.3 1.3 0 0 0-.106-.523 1.2 1.2 0 0 0-.3-.418 1.461 1.461 0 0 0-.462-.277 1.651 1.651 0 0 0-.593-.102c-.22 0-.417.034-.594.102a1.46 1.46 0 0 0-.461.277 1.2 1.2 0 0 0-.3.418 1.284 1.284 0 0 0-.106.523z"/></symbol><symbol viewBox="0 0 16 16" id="question-o" xmlns="http://www.w3.org/2000/svg"><path d="M8 16A8 8 0 1 1 8 0a8 8 0 0 1 0 16zm0-2A6 6 0 1 0 8 2a6 6 0 0 0 0 12zm-.778-4.151c0-.301.014-.575.044-.82a3.2 3.2 0 0 1 .154-.68c.073-.208.17-.4.294-.575.123-.176.278-.343.465-.503a4.81 4.81 0 0 0 .755-.758c.185-.242.277-.506.277-.793 0-.356-.074-.617-.222-.783-.148-.166-.37-.25-.667-.25a.92.92 0 0 0-.342.065.806.806 0 0 0-.29.199 1.04 1.04 0 0 0-.209.345 1.5 1.5 0 0 0-.088.506H5.082c.005-.51.092-.948.263-1.313.171-.364.401-.664.69-.899.29-.234.63-.406 1.023-.516a4.66 4.66 0 0 1 1.264-.164c.497 0 .944.058 1.34.174.397.117.733.289 1.008.517.276.227.487.51.633.847.146.337.218.727.218 1.17 0 .295-.042.56-.126.792a2.52 2.52 0 0 1-.349.65 4.4 4.4 0 0 1-.523.584c-.2.19-.414.389-.642.598a2.73 2.73 0 0 0-.332.349c-.089.114-.16.233-.212.359a1.868 1.868 0 0 0-.116.41 3.39 3.39 0 0 0-.044.489H7.222zm-.28 2.078c0-.164.03-.317.092-.458a1.05 1.05 0 0 1 .263-.366c.114-.103.248-.183.403-.243a1.45 1.45 0 0 1 .52-.089c.191 0 .364.03.52.09.154.059.289.14.403.242.114.103.201.224.263.366.061.141.092.294.092.458 0 .164-.03.316-.092.458a1.05 1.05 0 0 1-.263.365 1.278 1.278 0 0 1-.404.243 1.43 1.43 0 0 1-.52.089c-.19 0-.364-.03-.519-.089-.155-.06-.29-.14-.403-.243a1.05 1.05 0 0 1-.263-.365 1.135 1.135 0 0 1-.093-.458z"/></symbol><symbol viewBox="0 0 16 16" id="quote" xmlns="http://www.w3.org/2000/svg"><path d="M15 3v8a3 3 0 0 1-3 3 1 1 0 0 1 0-2 1 1 0 0 0 1-1V9h-2a2 2 0 0 1-2-2V4a2 2 0 0 1 2-2h3a1 1 0 0 1 1 1zM7 3v8a3 3 0 0 1-3 3 1 1 0 0 1 0-2 1 1 0 0 0 1-1V9H3a2 2 0 0 1-2-2V4a2 2 0 0 1 2-2h3a1 1 0 0 1 1 1z"/></symbol><symbol viewBox="0 0 16 16" id="redo" xmlns="http://www.w3.org/2000/svg"><path d="M4.625 4.423A4.897 4.897 0 0 1 8.079 3c2.73 0 4.944 2.239 4.944 5s-2.214 5-4.944 5c-1.41 0-2.723-.6-3.655-1.633a.98.98 0 0 0-1.397-.066 1.008 1.008 0 0 0-.064 1.413A6.87 6.87 0 0 0 8.079 15C11.9 15 15 11.866 15 8s-3.099-7-6.921-7A6.866 6.866 0 0 0 3.08 3.158L1.833 2.137a.49.49 0 0 0-.695.074.504.504 0 0 0-.11.311L1 7.26a.497.497 0 0 0 .6.492l4.576-1.013a.5.5 0 0 0 .206-.877L4.625 4.423z"/></symbol><symbol viewBox="0 0 16 16" id="remove" xmlns="http://www.w3.org/2000/svg"><path fill-rule="evenodd" d="M2 3a1 1 0 1 1 0-2h12a1 1 0 0 1 0 2v10a3 3 0 0 1-3 3H5a3 3 0 0 1-3-3V3zm3-2a1 1 0 0 1 1-1h4a1 1 0 0 1 1 1H5zM4 3v10a1 1 0 0 0 1 1h6a1 1 0 0 0 1-1V3H4zm2.5 2a.5.5 0 0 1 .5.5v6a.5.5 0 1 1-1 0v-6a.5.5 0 0 1 .5-.5zm3 0a.5.5 0 0 1 .5.5v6a.5.5 0 1 1-1 0v-6a.5.5 0 0 1 .5-.5z"/></symbol><symbol viewBox="0 0 16 16" id="repeat" xmlns="http://www.w3.org/2000/svg"><path d="M11.375 4.423A4.897 4.897 0 0 0 7.921 3c-2.73 0-4.944 2.239-4.944 5s2.214 5 4.944 5c1.41 0 2.723-.6 3.655-1.633a.98.98 0 0 1 1.397-.066c.403.373.432 1.005.064 1.413A6.87 6.87 0 0 1 7.921 15C4.1 15 1 11.866 1 8s3.099-7 6.921-7c1.915 0 3.706.792 4.999 2.158l1.247-1.021a.49.49 0 0 1 .695.074c.07.088.11.198.11.311L15 7.26a.497.497 0 0 1-.6.492L9.824 6.739a.5.5 0 0 1-.206-.877l1.757-1.439z"/></symbol><symbol viewBox="0 0 16 16" id="retry" xmlns="http://www.w3.org/2000/svg"><path d="M4.114 6.958a4 4 0 0 0 5.283 4.775 1 1 0 1 1 .712 1.87A6 6 0 0 1 2.182 6.44l-.741-.2a.5.5 0 0 1-.12-.915l2.195-1.268a.5.5 0 0 1 .683.183l1.268 2.196a.5.5 0 0 1-.563.733l-.79-.212zm7.777 2.084a4 4 0 0 0-5.284-4.775 1 1 0 0 1-.712-1.87 6 6 0 0 1 7.927 7.162l.742.2a.5.5 0 0 1 .12.915l-2.196 1.268a.5.5 0 0 1-.683-.183l-1.267-2.196a.5.5 0 0 1 .562-.733l.79.212z"/></symbol><symbol viewBox="0 0 16 16" id="scale" xmlns="http://www.w3.org/2000/svg"><path fill-rule="evenodd" d="M13.99 9a.792.792 0 0 0-.078-.231L13 7l-.912 1.769a.791.791 0 0 0-.077.231h1.978zm-10 0a.792.792 0 0 0-.078-.231L3 7l-.912 1.769A.791.791 0 0 0 2.011 9h1.978zM2 0h12a1 1 0 0 1 0 2H2a1 1 0 1 1 0-2zm3 14h6a1 1 0 0 1 0 2H5a1 1 0 0 1 0-2zM8 4a1 1 0 0 1 1 1v9H7V5a1 1 0 0 1 1-1zm-4.53-.714l2.265 4.735c.68 1.42.006 3.091-1.504 3.73A3.161 3.161 0 0 1 3 12c-1.657 0-3-1.263-3-2.821 0-.4.09-.794.264-1.158L2.53 3.286a.53.53 0 0 1 .94 0zm10 0l2.265 4.735c.68 1.42.006 3.091-1.504 3.73A3.161 3.161 0 0 1 13 12c-1.657 0-3-1.263-3-2.821 0-.4.09-.794.264-1.158l2.266-4.735a.53.53 0 0 1 .94 0z"/></symbol><symbol viewBox="0 0 16 16" id="screen-full" xmlns="http://www.w3.org/2000/svg"><path fill-rule="evenodd" d="M14 14v-2a1 1 0 0 1 2 0v3a.997.997 0 0 1-1 1h-3a1 1 0 0 1 0-2h2zM2 14v-2a1 1 0 0 0-2 0v3a1 1 0 0 0 1 1h3a1 1 0 0 0 0-2H2zM15.707.293A.997.997 0 0 1 16 1v3a1 1 0 0 1-2 0V2h-2a1 1 0 0 1 0-2h3c.276 0 .526.112.707.293zM2 2v2a1 1 0 1 1-2 0V1a.997.997 0 0 1 1-1h3a1 1 0 1 1 0 2H2zm4 4h4a1 1 0 0 1 1 1v2a1 1 0 0 1-1 1H6a1 1 0 0 1-1-1V7a1 1 0 0 1 1-1z"/></symbol><symbol viewBox="0 0 16 16" id="screen-normal" xmlns="http://www.w3.org/2000/svg"><path fill-rule="evenodd" d="M3 3V1a1 1 0 1 1 2 0v3a.997.997 0 0 1-1 1H1a1 1 0 1 1 0-2h2zm10 0h2a1 1 0 0 1 0 2h-3a.997.997 0 0 1-1-1V1a1 1 0 0 1 2 0v2zM3 13H1a1 1 0 0 1 0-2h3a.997.997 0 0 1 1 1v3a1 1 0 0 1-2 0v-2zm10 0v2a1 1 0 0 1-2 0v-3a.997.997 0 0 1 1-1h3a1 1 0 0 1 0 2h-2zM6.5 7h3a.5.5 0 0 1 .5.5v1a.5.5 0 0 1-.5.5h-3a.5.5 0 0 1-.5-.5v-1a.5.5 0 0 1 .5-.5z"/></symbol><symbol viewBox="0 0 12 16" id="scroll_down" xmlns="http://www.w3.org/2000/svg"><path class="fhfirst-triangle" d="M1.048 14.155a.508.508 0 0 0-.32.105c-.091.07-.136.154-.136.25v.71c0 .095.045.178.135.249.09.07.197.105.321.105h10.043a.51.51 0 0 0 .321-.105c.09-.07.136-.154.136-.25v-.71c0-.095-.045-.178-.136-.249a.508.508 0 0 0-.32-.105"/><path class="fhsecond-triangle" d="M.687 8.027c-.09-.087-.122-.16-.093-.22.028-.06.104-.09.228-.09h10.5c.123 0 .2.03.228.09.029.06-.002.133-.093.22L6.393 12.91a.458.458 0 0 1-.136.089h-.37a.626.626 0 0 1-.136-.09"/><path class="fhthird-triangle" d="M.687 1.027C.597.94.565.867.594.807c.028-.06.104-.09.228-.09h10.5c.123 0 .2.03.228.09.029.06-.002.133-.093.22L6.393 5.91a.458.458 0 0 1-.136.09h-.37a.626.626 0 0 1-.136-.09"/></symbol><symbol viewBox="0 0 12 16" id="scroll_up" xmlns="http://www.w3.org/2000/svg"><path d="M1.048 1.845a.508.508 0 0 1-.32-.105c-.091-.07-.136-.154-.136-.25V.78c0-.095.045-.178.135-.249a.508.508 0 0 1 .321-.105h10.043a.51.51 0 0 1 .321.105c.09.07.136.154.136.25v.71c0 .095-.045.178-.136.249a.508.508 0 0 1-.32.105M.687 7.973c-.09.087-.122.16-.093.22.028.06.104.09.228.09h10.5c.123 0 .2-.03.228-.09.029-.06-.002-.133-.093-.22L6.393 3.09A.458.458 0 0 0 6.257 3h-.37a.626.626 0 0 0-.136.09M.687 14.973c-.09.087-.122.16-.093.22.028.06.104.09.228.09h10.5c.123 0 .2-.03.228-.09.029-.06-.002-.133-.093-.22L6.393 10.09a.458.458 0 0 0-.136-.09h-.37a.626.626 0 0 0-.136.09"/></symbol><symbol viewBox="0 0 16 16" id="search" xmlns="http://www.w3.org/2000/svg"><path d="M8.853 8.854a3.5 3.5 0 1 0-4.95-4.95 3.5 3.5 0 0 0 4.95 4.95zm.207 2.328a5.5 5.5 0 1 1 2.121-2.121l3.329 3.328a1.5 1.5 0 0 1-2.121 2.121L9.06 11.182z"/></symbol><symbol viewBox="0 0 16 16" id="settings" xmlns="http://www.w3.org/2000/svg"><path fill-rule="evenodd" d="M2.415 5.803L1.317 4.084A.5.5 0 0 1 1.35 3.5l.805-.994a.5.5 0 0 1 .564-.153l1.878.704a5.975 5.975 0 0 1 1.65-.797L6.885.342A.5.5 0 0 1 7.36 0h1.28a.5.5 0 0 1 .474.342l.639 1.918a5.97 5.97 0 0 1 1.65.797l1.877-.704a.5.5 0 0 1 .565.153l.805.994a.5.5 0 0 1 .032.584l-1.097 1.719c.217.551.354 1.143.399 1.76l1.731 1.058a.5.5 0 0 1 .227.54l-.288 1.246a.5.5 0 0 1-.44.385l-2.008.19a6.026 6.026 0 0 1-1.142 1.431l.265 1.995a.5.5 0 0 1-.277.516l-1.15.56a.5.5 0 0 1-.576-.1l-1.424-1.452a6.047 6.047 0 0 1-1.804 0l-1.425 1.453a.5.5 0 0 1-.576.1l-1.15-.561a.5.5 0 0 1-.276-.516l.265-1.995a6.026 6.026 0 0 1-1.143-1.43l-2.008-.191a.5.5 0 0 1-.44-.385L.058 9.16a.5.5 0 0 1 .226-.539l1.732-1.058a5.968 5.968 0 0 1 .399-1.76zM8 11a3 3 0 1 0 0-6 3 3 0 0 0 0 6z"/></symbol><symbol viewBox="0 0 16 16" id="shield" xmlns="http://www.w3.org/2000/svg"><path d="M4 0h8c1.657 0 3 1.373 3 3.067v7.346c0 1.065-.54 2.053-1.426 2.611l-4 2.52a2.944 2.944 0 0 1-3.148 0l-4-2.52A3.083 3.083 0 0 1 1 10.414V3.066C1 1.373 2.343 0 4 0zm0 2.045c-.552 0-1 .457-1 1.022v7.346c0 .355.18.685.475.87l4 2.52a.981.981 0 0 0 1.05 0l4-2.52c.295-.185.475-.515.475-.87V3.067c0-.565-.448-1.022-1-1.022H4zm0 1.533c0-.282.224-.511.5-.511h4V12.1a.52.52 0 0 1-.069.258.494.494 0 0 1-.684.183l-3.5-2.098a.513.513 0 0 1-.247-.44V3.577z"/></symbol><symbol viewBox="0 0 16 16" id="slight-frown" xmlns="http://www.w3.org/2000/svg"><path d="M8 16A8 8 0 1 1 8 0a8 8 0 0 1 0 16zm0-2A6 6 0 1 0 8 2a6 6 0 0 0 0 12zm-2.163-3.275a2.499 2.499 0 0 1 4.343.03.5.5 0 0 1-.871.49 1.5 1.5 0 0 0-2.607-.018.5.5 0 1 1-.865-.502zM5 8a1 1 0 1 1 0-2 1 1 0 0 1 0 2zm6 0a1 1 0 1 1 0-2 1 1 0 0 1 0 2z"/></symbol><symbol viewBox="0 0 16 16" id="slight-smile" xmlns="http://www.w3.org/2000/svg"><path d="M8 16A8 8 0 1 1 8 0a8 8 0 0 1 0 16zm0-2A6 6 0 1 0 8 2a6 6 0 0 0 0 12zM5 8a1 1 0 1 1 0-2 1 1 0 0 1 0 2zm6 0a1 1 0 1 1 0-2 1 1 0 0 1 0 2zm-5.163 2.254a.5.5 0 1 1 .865-.502 1.499 1.499 0 0 0 2.607-.018.5.5 0 1 1 .871.49 2.499 2.499 0 0 1-4.343.03z"/></symbol><symbol viewBox="0 0 16 16" id="smile" xmlns="http://www.w3.org/2000/svg"><path d="M8 16A8 8 0 1 1 8 0a8 8 0 0 1 0 16zm0-2A6 6 0 1 0 8 2a6 6 0 0 0 0 12zM6.18 6.27a.5.5 0 0 1-.873.487.5.5 0 0 0-.872-.003.5.5 0 1 1-.87-.495 1.5 1.5 0 0 1 2.616.012zm6 0a.5.5 0 1 1-.873.487.5.5 0 0 0-.872-.003.5.5 0 1 1-.87-.495 1.5 1.5 0 0 1 2.616.012zM5 9a3 3 0 0 0 6 0H5z"/></symbol><symbol viewBox="0 0 16 16" id="smiley" xmlns="http://www.w3.org/2000/svg"><path d="M8 16A8 8 0 1 1 8 0a8 8 0 0 1 0 16zm0-2A6 6 0 1 0 8 2a6 6 0 0 0 0 12zM5 8a1 1 0 1 1 0-2 1 1 0 0 1 0 2zm6 0a1 1 0 1 1 0-2 1 1 0 0 1 0 2zM5 9h6a3 3 0 0 1-6 0z"/></symbol><symbol viewBox="0 0 16 16" id="snippet" xmlns="http://www.w3.org/2000/svg"><path d="M10.67 9.31a3.001 3.001 0 0 1 2.062 5.546 3 3 0 0 1-3.771-4.559 1.007 1.007 0 0 1-.095-.137l-4.5-7.794a1 1 0 0 1 1.732-1l4.5 7.794c.028.05.052.1.071.15zm-3.283.35l-.289.5c-.028.05-.06.095-.095.137a3.001 3.001 0 0 1-3.77 4.56A3 3 0 0 1 5.294 9.31c.02-.051.043-.102.071-.15l.866-1.5 1.155 2zm2.31-4l-1.156-2 1.325-2.294a1 1 0 0 1 1.732 1L9.696 5.66zm-5.465 7.464a1 1 0 1 0 1-1.732 1 1 0 0 0-1 1.732zm7.5 0a1 1 0 1 0-1-1.732 1 1 0 0 0 1 1.732z"/></symbol><symbol viewBox="0 0 16 16" id="soft-unwrap" xmlns="http://www.w3.org/2000/svg"><path fill-rule="evenodd" d="M6.5 11v-.598a.5.5 0 0 1 .765-.424l2.557 1.598a.5.5 0 0 1 0 .848l-2.557 1.598a.5.5 0 0 1-.765-.424V13H2a1 1 0 0 1 0-2h4.5zM2 3h12a1 1 0 0 1 0 2H2a1 1 0 1 1 0-2zm0 4h12a1 1 0 0 1 0 2H2a1 1 0 1 1 0-2zm10 4h2a1 1 0 0 1 0 2h-2a1 1 0 0 1 0-2z"/></symbol><symbol viewBox="0 0 16 16" id="soft-wrap" xmlns="http://www.w3.org/2000/svg"><path fill-rule="evenodd" d="M10.5 13v.598a.5.5 0 0 1-.765.424l-2.557-1.598a.5.5 0 0 1 0-.848l2.557-1.598a.5.5 0 0 1 .765.424V11H12a1 1 0 0 0 0-2H2a1 1 0 1 1 0-2h10a3 3 0 0 1 0 6h-1.5zM2 3h12a1 1 0 0 1 0 2H2a1 1 0 1 1 0-2zm0 8h3a1 1 0 0 1 0 2H2a1 1 0 0 1 0-2z"/></symbol><symbol viewBox="0 0 16 16" id="spam" xmlns="http://www.w3.org/2000/svg"><path d="M8.75.433l5.428 3.134a1.5 1.5 0 0 1 .75 1.299v6.268a1.5 1.5 0 0 1-.75 1.299L8.75 15.567a1.5 1.5 0 0 1-1.5 0l-5.428-3.134a1.5 1.5 0 0 1-.75-1.299V4.866a1.5 1.5 0 0 1 .75-1.299L7.25.433a1.5 1.5 0 0 1 1.5 0zM3.072 5.155v5.69L8 13.691l4.928-2.846v-5.69L8 2.309 3.072 5.155zM8 4a1 1 0 0 1 1 1v3a1 1 0 1 1-2 0V5a1 1 0 0 1 1-1zm0 8a1 1 0 1 1 0-2 1 1 0 0 1 0 2z"/></symbol><symbol viewBox="0 0 14 14" id="spinner" xmlns="http://www.w3.org/2000/svg"><g fill="none" fill-rule="evenodd"><circle cx="7" cy="7" r="6" stroke="#000" stroke-opacity=".1" stroke-width="2"/><path fill="#000" fill-opacity=".1" fill-rule="nonzero" d="M7 0a7 7 0 0 1 7 7h-2a5 5 0 0 0-5-5V0z"/></g></symbol><symbol viewBox="0 0 16 16" id="staged" xmlns="http://www.w3.org/2000/svg"><path fill-rule="evenodd" d="M2 3h4a1 1 0 1 1 0 2H2a1 1 0 1 1 0-2zm9 6a3 3 0 1 1 0-6 3 3 0 0 1 0 6zM2 7h4a1 1 0 1 1 0 2H2a1 1 0 1 1 0-2zm0 4h12a1 1 0 0 1 0 2H2a1 1 0 0 1 0-2z"/></symbol><symbol viewBox="0 0 16 16" id="star" xmlns="http://www.w3.org/2000/svg"><path fill-rule="evenodd" d="M7.609 14.394l-3.465 1.473a1 1 0 0 1-1.39-.989l.276-4.024a1 1 0 0 0-.219-.694L.303 7.037A1 1 0 0 1 .83 5.443l3.715-.964a1 1 0 0 0 .609-.457L7.14.682a1 1 0 0 1 1.72 0l1.985 3.34a1 1 0 0 0 .609.457l3.715.964a1 1 0 0 1 .528 1.594L13.19 10.16a1 1 0 0 0-.219.694l.275 4.024a1 1 0 0 1-1.389.989l-3.465-1.473a1 1 0 0 0-.782 0z"/></symbol><symbol viewBox="0 0 16 16" id="star-o" xmlns="http://www.w3.org/2000/svg"><path d="M10.975 10.99a3 3 0 0 1 .655-2.083l1.54-1.916-2.219-.576a3 3 0 0 1-1.825-1.37L8 3.15 6.874 5.044a3 3 0 0 1-1.825 1.371l-2.218.576 1.54 1.916a3 3 0 0 1 .654 2.083l-.165 2.4 1.965-.836a3 3 0 0 1 2.348 0l1.965.836-.164-2.399zM7.61 14.394l-3.465 1.473a1 1 0 0 1-1.39-.989l.276-4.024a1 1 0 0 0-.219-.694L.303 7.037A1 1 0 0 1 .83 5.443l3.715-.964a1 1 0 0 0 .609-.457L7.14.682a1 1 0 0 1 1.72 0l1.985 3.34a1 1 0 0 0 .609.457l3.715.964a1 1 0 0 1 .528 1.594L13.19 10.16a1 1 0 0 0-.219.694l.275 4.024a1 1 0 0 1-1.389.989l-3.465-1.473a1 1 0 0 0-.782 0z"/></symbol><symbol viewBox="0 0 14 14" id="status_canceled" xmlns="http://www.w3.org/2000/svg"><g fill-rule="evenodd"><path d="M0 7a7 7 0 1 1 14 0A7 7 0 0 1 0 7z"/><path d="M13 7A6 6 0 1 0 1 7a6 6 0 0 0 12 0z" fill="#FFF"/><path d="M5.2 3.8l4.9 4.9c.2.2.2.5 0 .7l-.7.7c-.2.2-.5.2-.7 0L3.8 5.2c-.2-.2-.2-.5 0-.7l.7-.7c.2-.2.5-.2.7 0"/></g></symbol><symbol viewBox="0 0 22 22" id="status_canceled_borderless" xmlns="http://www.w3.org/2000/svg"><path d="M8.171 5.971l7.7 7.7a.76.76 0 0 1 0 1.1l-1.1 1.1a.76.76 0 0 1-1.1 0l-7.7-7.7a.76.76 0 0 1 0-1.1l1.1-1.1a.76.76 0 0 1 1.1 0"/></symbol><symbol viewBox="0 0 16 16" id="status_closed" xmlns="http://www.w3.org/2000/svg"><path d="M7.536 8.657l2.828-2.83a1 1 0 0 1 1.414 1.416l-3.535 3.535a1 1 0 0 1-1.415.001l-2.12-2.12a1 1 0 1 1 1.413-1.415zM8 16A8 8 0 1 1 8 0a8 8 0 0 1 0 16zm0-2A6 6 0 1 0 8 2a6 6 0 0 0 0 12z"/></symbol><symbol viewBox="0 0 14 14" id="status_created" xmlns="http://www.w3.org/2000/svg"><g fill-rule="evenodd"><path d="M0 7a7 7 0 1 1 14 0A7 7 0 0 1 0 7z"/><path d="M13 7A6 6 0 1 0 1 7a6 6 0 0 0 12 0z" fill="#FFF"/><circle cx="7" cy="7" r="3.25"/></g></symbol><symbol viewBox="0 0 22 22" id="status_created_borderless" xmlns="http://www.w3.org/2000/svg"><circle cx="11" cy="11" r="5.107"/></symbol><symbol viewBox="0 0 14 14" id="status_failed" xmlns="http://www.w3.org/2000/svg"><g fill-rule="evenodd"><path d="M0 7a7 7 0 1 1 14 0A7 7 0 0 1 0 7z"/><path d="M13 7A6 6 0 1 0 1 7a6 6 0 0 0 12 0z" fill="#FFF"/><path d="M7 5.969L5.599 4.568a.29.29 0 0 0-.413.004l-.614.614a.294.294 0 0 0-.004.413L5.968 7l-1.4 1.401a.29.29 0 0 0 .004.413l.614.614c.113.114.3.117.413.004L7 8.032l1.401 1.4a.29.29 0 0 0 .413-.004l.614-.614a.294.294 0 0 0 .004-.413L8.032 7l1.4-1.401a.29.29 0 0 0-.004-.413l-.614-.614a.294.294 0 0 0-.413-.004L7 5.968z"/></g></symbol><symbol viewBox="0 0 22 22" id="status_failed_borderless" xmlns="http://www.w3.org/2000/svg"><path d="M11 9.38L8.798 7.178a.455.455 0 0 0-.65.006l-.964.965a.462.462 0 0 0-.006.65L9.38 11l-2.202 2.202a.455.455 0 0 0 .006.65l.965.964a.462.462 0 0 0 .65.006L11 12.62l2.202 2.202a.455.455 0 0 0 .65-.006l.964-.965a.462.462 0 0 0 .006-.65L12.62 11l2.202-2.202a.455.455 0 0 0-.006-.65l-.965-.964a.462.462 0 0 0-.65-.006L11 9.38z"/></symbol><symbol viewBox="0 0 14 14" id="status_manual" xmlns="http://www.w3.org/2000/svg"><g fill-rule="evenodd"><path d="M0 7a7 7 0 1 1 14 0A7 7 0 0 1 0 7z"/><path d="M13 7A6 6 0 1 0 1 7a6 6 0 0 0 12 0z" fill="#FFF"/><path d="M10.5 7.63V6.37l-.787-.13c-.044-.175-.132-.349-.263-.61l.481-.652-.918-.913-.657.478a2.346 2.346 0 0 0-.612-.26L7.656 3.5H6.388l-.132.783c-.219.043-.394.13-.612.26l-.657-.478-.918.913.437.652c-.131.218-.175.392-.262.61l-.744.086v1.261l.787.13c.044.218.132.392.263.61l-.438.651.92.913.655-.434c.175.086.394.173.613.26l.131.783h1.313l.131-.783c.219-.043.394-.13.613-.26l.656.478.918-.913-.48-.652c.13-.218.218-.435.262-.61l.656-.13zM7 8.283a1.285 1.285 0 0 1-1.313-1.305c0-.739.57-1.304 1.313-1.304.744 0 1.313.565 1.313 1.304 0 .74-.57 1.305-1.313 1.305z"/></g></symbol><symbol viewBox="0 0 22 22" id="status_manual_borderless" xmlns="http://www.w3.org/2000/svg"><path d="M16.5 11.99v-1.98l-1.238-.206c-.068-.273-.206-.546-.412-.956l.756-1.025-1.444-1.435-1.03.752a3.686 3.686 0 0 0-.963-.41L12.03 5.5h-1.994l-.206 1.23c-.343.068-.618.205-.962.41l-1.031-.752-1.444 1.435.687 1.025c-.206.341-.275.615-.412.956L5.5 9.941v1.981l1.237.205c.07.342.207.615.413.957l-.688 1.025 1.444 1.434 1.032-.683c.274.137.618.274.962.41l.206 1.23h2.063l.206-1.23c.344-.068.619-.205.963-.41l1.03.752 1.444-1.435-.756-1.025c.207-.341.344-.683.413-.956l1.031-.205zM11 13.017c-1.169 0-2.063-.889-2.063-2.05 0-1.162.894-2.05 2.063-2.05s2.063.888 2.063 2.05c0 1.161-.894 2.05-2.063 2.05z"/></symbol><symbol viewBox="0 0 14 14" id="status_notfound" xmlns="http://www.w3.org/2000/svg"><path d="M7 14A7 7 0 1 1 7 0a7 7 0 0 1 0 14z"/><path d="M7 13A6 6 0 1 0 7 1a6 6 0 0 0 0 12z" fill="#FFF"/><path d="M8.16 7.184c.519-.37.904-.857 1.07-1.477.384-1.427-.619-2.897-2.246-2.897-.732 0-1.327.26-1.766.692a2.163 2.163 0 0 0-.509.743.75.75 0 0 0 1.4.54.78.78 0 0 1 .16-.213c.168-.165.39-.262.715-.262.597 0 .936.496.798 1.007-.067.249-.235.462-.492.644-.231.165-.47.264-.601.3a.75.75 0 0 0-.556.724v1.421a.75.75 0 0 0 1.5 0v-.909a3.74 3.74 0 0 0 .526-.313z"/><ellipse cx="6.889" cy="10.634" rx="1" ry="1"/></symbol><symbol viewBox="0 0 22 22" id="status_notfound_borderless" xmlns="http://www.w3.org/2000/svg"><path d="M12.822 11.29c.816-.581 1.421-1.348 1.683-2.322.603-2.243-.973-4.553-3.53-4.553-1.15 0-2.085.41-2.775 1.089-.42.413-.672.835-.8 1.167a1.179 1.179 0 0 0 2.2.847c.016-.043.1-.184.252-.334.264-.259.613-.412 1.123-.412.938 0 1.47.78 1.254 1.584-.105.39-.37.726-.773 1.012a3.25 3.25 0 0 1-.945.47 1.179 1.179 0 0 0-.874 1.138v2.234a1.179 1.179 0 1 0 2.358 0v-1.43a5.9 5.9 0 0 0 .827-.492z"/><ellipse cx="10.825" cy="16.711" rx="1.275" ry="1.322"/></symbol><symbol viewBox="0 0 14 14" id="status_open" xmlns="http://www.w3.org/2000/svg"><path d="M0 7c0-3.866 3.142-7 7-7 3.866 0 7 3.142 7 7 0 3.866-3.142 7-7 7-3.866 0-7-3.142-7-7z"/><path d="M1 7c0 3.309 2.69 6 6 6 3.309 0 6-2.69 6-6 0-3.309-2.69-6-6-6-3.309 0-6 2.69-6 6z" fill="#FFF"/><path d="M7 9.219a2.218 2.218 0 1 0 0-4.436A2.218 2.218 0 0 0 7 9.22zm0 1.12a3.338 3.338 0 1 1 0-6.676 3.338 3.338 0 0 1 0 6.676z"/></symbol><symbol viewBox="0 0 14 14" id="status_pending" xmlns="http://www.w3.org/2000/svg"><g fill-rule="evenodd"><path d="M0 7a7 7 0 1 1 14 0A7 7 0 0 1 0 7z"/><path d="M13 7A6 6 0 1 0 1 7a6 6 0 0 0 12 0z" fill="#FFF"/><path d="M4.7 5.3c0-.2.1-.3.3-.3h.9c.2 0 .3.1.3.3v3.4c0 .2-.1.3-.3.3H5c-.2 0-.3-.1-.3-.3V5.3m3 0c0-.2.1-.3.3-.3h.9c.2 0 .3.1.3.3v3.4c0 .2-.1.3-.3.3H8c-.2 0-.3-.1-.3-.3V5.3"/></g></symbol><symbol viewBox="0 0 22 22" id="status_pending_borderless" xmlns="http://www.w3.org/2000/svg"><path d="M7.386 8.329c0-.315.157-.472.471-.472h1.414c.315 0 .472.157.472.472v5.342c0 .315-.157.472-.472.472H7.857c-.314 0-.471-.157-.471-.472V8.33m4.714 0c0-.315.157-.472.471-.472h1.415c.314 0 .471.157.471.472v5.342c0 .315-.157.472-.471.472H12.57c-.314 0-.471-.157-.471-.472V8.33"/></symbol><symbol viewBox="0 0 14 14" id="status_running" xmlns="http://www.w3.org/2000/svg"><g fill-rule="evenodd"><path d="M0 7a7 7 0 1 1 14 0A7 7 0 0 1 0 7z"/><path d="M13 7A6 6 0 1 0 1 7a6 6 0 0 0 12 0z" fill="#FFF"/><path d="M7 3c2.2 0 4 1.8 4 4s-1.8 4-4 4c-1.3 0-2.5-.7-3.3-1.7L7 7V3"/></g></symbol><symbol viewBox="0 0 22 22" id="status_running_borderless" xmlns="http://www.w3.org/2000/svg"><path d="M11 4.714c3.457 0 6.286 2.829 6.286 6.286 0 3.457-2.829 6.286-6.286 6.286-2.043 0-3.929-1.1-5.186-2.672L11 11V4.714"/></symbol><symbol viewBox="0 0 14 14" id="status_skipped" xmlns="http://www.w3.org/2000/svg"><path d="M7 14A7 7 0 1 1 7 0a7 7 0 0 1 0 14z"/><path d="M7 13A6 6 0 1 0 7 1a6 6 0 0 0 0 12z" fill="#FFF"/><path d="M6.415 7.04L4.579 5.203a.295.295 0 0 1 .004-.416l.349-.349a.29.29 0 0 1 .416-.004l2.214 2.214a.289.289 0 0 1 .019.021l.132.133c.11.11.108.291 0 .398L5.341 9.573a.282.282 0 0 1-.398 0l-.331-.331a.285.285 0 0 1 0-.399L6.415 7.04zm2.54 0L7.119 5.203a.295.295 0 0 1 .004-.416l.349-.349a.29.29 0 0 1 .416-.004l2.214 2.214a.289.289 0 0 1 .019.021l.132.133c.11.11.108.291 0 .398L7.881 9.573a.282.282 0 0 1-.398 0l-.331-.331a.285.285 0 0 1 0-.399L8.955 7.04z"/></symbol><symbol viewBox="0 0 22 22" id="status_skipped_borderless" xmlns="http://www.w3.org/2000/svg"><path d="M14.072 11.063l-2.82 2.82a.46.46 0 0 0-.001.652l.495.495a.457.457 0 0 0 .653-.001l3.7-3.7a.46.46 0 0 0 .001-.653l-.196-.196a.453.453 0 0 0-.03-.033l-3.479-3.479a.464.464 0 0 0-.654.007l-.548.548a.463.463 0 0 0-.007.654l2.886 2.886z"/><path d="M10.08 11.063l-2.819 2.82a.46.46 0 0 0-.002.652l.496.495a.457.457 0 0 0 .652-.001l3.7-3.7a.46.46 0 0 0 .002-.653l-.196-.196a.453.453 0 0 0-.03-.033l-3.48-3.479a.464.464 0 0 0-.653.007l-.548.548a.463.463 0 0 0-.007.654l2.886 2.886z"/></symbol><symbol viewBox="0 0 14 14" id="status_success" xmlns="http://www.w3.org/2000/svg"><g fill-rule="evenodd"><path d="M0 7a7 7 0 1 1 14 0A7 7 0 0 1 0 7z"/><path d="M13 7A6 6 0 1 0 1 7a6 6 0 0 0 12 0z" fill="#FFF"/><path d="M6.278 7.697L5.045 6.464a.296.296 0 0 0-.42-.002l-.613.614a.298.298 0 0 0 .002.42l1.91 1.909a.5.5 0 0 0 .703.005l.265-.265L9.997 6.04a.291.291 0 0 0-.009-.408l-.614-.614a.29.29 0 0 0-.408-.009L6.278 7.697z"/></g></symbol><symbol viewBox="0 0 22 22" id="status_success_borderless" xmlns="http://www.w3.org/2000/svg"><path d="M9.866 12.095l-1.95-1.95a.462.462 0 0 0-.647.01l-.964.964a.46.46 0 0 0-.01.646l3.013 3.014a.787.787 0 0 0 1.106.008l.425-.425 4.854-4.853a.462.462 0 0 0 .002-.659l-.964-.964a.468.468 0 0 0-.658.002l-4.207 4.207z"/></symbol><symbol viewBox="0 0 14 14" id="status_success_solid" xmlns="http://www.w3.org/2000/svg"><path d="M0 7a7 7 0 1 1 14 0A7 7 0 0 1 0 7zm6.278.697L5.045 6.464a.296.296 0 0 0-.42-.002l-.613.614a.298.298 0 0 0 .002.42l1.91 1.909a.5.5 0 0 0 .703.005l.265-.265L9.997 6.04a.291.291 0 0 0-.009-.408l-.614-.614a.29.29 0 0 0-.408-.009L6.278 7.697z" fill-rule="evenodd"/></symbol><symbol viewBox="0 0 14 14" id="status_warning" xmlns="http://www.w3.org/2000/svg"><g fill-rule="evenodd"><path d="M0 7a7 7 0 1 1 14 0A7 7 0 0 1 0 7z"/><path d="M13 7A6 6 0 1 0 1 7a6 6 0 0 0 12 0z" fill="#FFF"/><path d="M6 3.5c0-.3.2-.5.5-.5h1c.3 0 .5.2.5.5v4c0 .3-.2.5-.5.5h-1c-.3 0-.5-.2-.5-.5v-4m0 6c0-.3.2-.5.5-.5h1c.3 0 .5.2.5.5v1c0 .3-.2.5-.5.5h-1c-.3 0-.5-.2-.5-.5v-1"/></g></symbol><symbol viewBox="0 0 22 22" id="status_warning_borderless" xmlns="http://www.w3.org/2000/svg"><path d="M9.429 5.5c0-.471.314-.786.785-.786h1.572c.471 0 .785.315.785.786v6.286c0 .471-.314.785-.785.785h-1.572c-.471 0-.785-.314-.785-.785V5.5m0 9.429c0-.472.314-.786.785-.786h1.572c.471 0 .785.314.785.786V16.5c0 .471-.314.786-.785.786h-1.572c-.471 0-.785-.315-.785-.786v-1.571"/></symbol><symbol viewBox="0 0 16 16" id="stop" xmlns="http://www.w3.org/2000/svg"><path fill-rule="evenodd" d="M2 0h12a2 2 0 0 1 2 2v12a2 2 0 0 1-2 2H2a2 2 0 0 1-2-2V2a2 2 0 0 1 2-2z"/></symbol><symbol viewBox="0 0 16 16" id="task-done" xmlns="http://www.w3.org/2000/svg"><path d="M7.536 8.657l2.828-2.829a1 1 0 0 1 1.414 1.415l-3.535 3.535a.997.997 0 0 1-1.415 0l-2.12-2.121A1 1 0 0 1 6.12 7.243l1.415 1.414zM3 0h10a3 3 0 0 1 3 3v10a3 3 0 0 1-3 3H3a3 3 0 0 1-3-3V3a3 3 0 0 1 3-3zm0 2a1 1 0 0 0-1 1v10a1 1 0 0 0 1 1h10a1 1 0 0 0 1-1V3a1 1 0 0 0-1-1H3z"/></symbol><symbol viewBox="0 0 16 16" id="template" xmlns="http://www.w3.org/2000/svg"><path d="M3 0h10a3 3 0 0 1 3 3v10a3 3 0 0 1-3 3H3a3 3 0 0 1-3-3V3a3 3 0 0 1 3-3zm0 2a1 1 0 0 0-1 1v10a1 1 0 0 0 1 1h10a1 1 0 0 0 1-1V3a1 1 0 0 0-1-1H3zm.8 2h2.4a.8.8 0 0 1 .8.8v1.4a.8.8 0 0 1-.8.8H3.8a.8.8 0 0 1-.8-.8V4.8a.8.8 0 0 1 .8-.8zm4.7 0h4a.5.5 0 1 1 0 1h-4a.5.5 0 0 1 0-1zm0 2h4a.5.5 0 1 1 0 1h-4a.5.5 0 0 1 0-1zm-5 3h9a.5.5 0 1 1 0 1h-9a.5.5 0 0 1 0-1zm0 2h9a.5.5 0 1 1 0 1h-9a.5.5 0 1 1 0-1z"/></symbol><symbol viewBox="0 0 16 16" id="terminal" xmlns="http://www.w3.org/2000/svg"><path d="M7 8a.997.997 0 0 1-.293.707l-1.414 1.414a1 1 0 1 1-1.414-1.414L4.586 8l-.707-.707a1 1 0 1 1 1.414-1.414l1.414 1.414A.997.997 0 0 1 7 8zM4 0h8a4 4 0 0 1 4 4v8a4 4 0 0 1-4 4H4a4 4 0 0 1-4-4V4a4 4 0 0 1 4-4zm0 2a2 2 0 0 0-2 2v8a2 2 0 0 0 2 2h8a2 2 0 0 0 2-2V4a2 2 0 0 0-2-2H4zm5 7h2a1 1 0 0 1 0 2H9a1 1 0 0 1 0-2z"/></symbol><symbol viewBox="0 0 16 16" id="thumb-down" xmlns="http://www.w3.org/2000/svg"><path fill-rule="evenodd" d="M8.33 11h5.282a2 2 0 0 0 1.963-2.38l-.563-2.905a3 3 0 0 0-.243-.732l-1.103-2.286A3 3 0 0 0 10.964 1H7a3 3 0 0 0-3 3v6.3a2 2 0 0 0 .436 1.247l3.11 3.9a.632.632 0 0 0 .941.053l.137-.137a1 1 0 0 0 .28-.87L8.329 11zM1 10h2V3H1a1 1 0 0 0-1 1v5a1 1 0 0 0 1 1z"/></symbol><symbol viewBox="0 0 16 16" id="thumb-up" xmlns="http://www.w3.org/2000/svg"><path fill-rule="evenodd" d="M8.33 5h5.282a2 2 0 0 1 1.963 2.38l-.563 2.905a3 3 0 0 1-.243.732l-1.103 2.286A3 3 0 0 1 10.964 15H7a3 3 0 0 1-3-3V5.7a2 2 0 0 1 .436-1.247l3.11-3.9A.632.632 0 0 1 8.487.5l.137.137a1 1 0 0 1 .28.87L8.329 5zM1 6h2v7H1a1 1 0 0 1-1-1V7a1 1 0 0 1 1-1z"/></symbol><symbol viewBox="0 0 16 16" id="thumbtack" xmlns="http://www.w3.org/2000/svg"><path d="M7.125 9h-2.19a.5.5 0 0 1-.417-.777L6 6V2L5.362.724A.5.5 0 0 1 5.809 0h4.382a.5.5 0 0 1 .447.724L10 2v4l1.482 2.223a.5.5 0 0 1-.416.777H8.875L8 16l-.875-7z" fill-rule="evenodd"/></symbol><symbol viewBox="0 0 16 16" id="time-out" xmlns="http://www.w3.org/2000/svg"><path d="M12 13.36l-1.36 1.358a.961.961 0 1 1-1.358-1.359L10.64 12l-1.36-1.36a.961.961 0 0 1 1.36-1.358L12 10.64l1.36-1.36a.961.961 0 1 1 1.358 1.36L13.36 12l1.36 1.36a.961.961 0 1 1-1.36 1.358L12 13.36zM8 9H5a1 1 0 1 1 0-2h2V5a1 1 0 1 1 2 0v3a1 1 0 0 1-1 1zm0 6a7 7 0 1 1 7-7 4.976 4.976 0 0 0-2.084-.916A5.002 5.002 0 0 0 3 8a5.002 5.002 0 0 0 4.084 4.916c.143.772.462 1.48.916 2.084z"/></symbol><symbol viewBox="0 0 16 16" id="timer" xmlns="http://www.w3.org/2000/svg"><path d="M12.022 3.27l.77-.77a1 1 0 0 1 1.415 1.414l-.728.729a7 7 0 1 1-1.456-1.372zM8 14A5 5 0 1 0 8 4a5 5 0 0 0 0 10zm0-9a1 1 0 0 1 1 1v2a1 1 0 1 1-2 0V6a1 1 0 0 1 1-1zM6 0h4a1 1 0 0 1 0 2H6a1 1 0 1 1 0-2z"/></symbol><symbol viewBox="0 0 16 16" id="todo-add" xmlns="http://www.w3.org/2000/svg"><path fill-rule="evenodd" d="M10 4V2a1 1 0 0 1 2 0v2h2a1 1 0 0 1 0 2h-2v2a1 1 0 0 1-2 0V6H8a1 1 0 1 1 0-2h2zm2 7a1 1 0 0 1 2 0v2a3 3 0 0 1-3 3H3a3 3 0 0 1-3-3V5a3 3 0 0 1 3-3h2a1 1 0 1 1 0 2H3a1 1 0 0 0-1 1v8a1 1 0 0 0 1 1h8a1 1 0 0 0 1-1v-2z"/></symbol><symbol viewBox="0 0 16 16" id="todo-done" xmlns="http://www.w3.org/2000/svg"><path d="M8.243 7.485l4.95-4.95a1 1 0 1 1 1.414 1.415L8.95 9.607a.997.997 0 0 1-1.414 0L4.707 6.778a1 1 0 0 1 1.414-1.414l2.122 2.121zM12 11a1 1 0 0 1 2 0v2a3 3 0 0 1-3 3H3a3 3 0 0 1-3-3V5a3 3 0 0 1 3-3h2a1 1 0 1 1 0 2H3a1 1 0 0 0-1 1v8a1 1 0 0 0 1 1h8a1 1 0 0 0 1-1v-2z"/></symbol><symbol viewBox="0 0 16 16" id="token" xmlns="http://www.w3.org/2000/svg"><path d="M3 2h10a3 3 0 0 1 3 3v6a3 3 0 0 1-3 3H3a3 3 0 0 1-3-3V5a3 3 0 0 1 3-3zm0 2a1 1 0 0 0-1 1v6a1 1 0 0 0 1 1h10a1 1 0 0 0 1-1V5a1 1 0 0 0-1-1H3zm1 5a1 1 0 1 1 0-2 1 1 0 0 1 0 2zm4 0a1 1 0 1 1 0-2 1 1 0 0 1 0 2zm4 0a1 1 0 1 1 0-2 1 1 0 0 1 0 2z"/></symbol><symbol viewBox="0 0 16 16" id="unapproval" xmlns="http://www.w3.org/2000/svg"><path fill-rule="evenodd" d="M11.95 8.536l1.06-1.061a1 1 0 0 1 1.415 1.414l-1.061 1.06 1.06 1.061a1 1 0 0 1-1.414 1.415l-1.06-1.061-1.06 1.06a1 1 0 1 1-1.415-1.414l1.06-1.06-1.06-1.06a1 1 0 0 1 1.414-1.415l1.06 1.06zm-3.768-.33c.006.503.201 1.006.586 1.39l.353.354-.353.353a2 2 0 1 0 2.828 2.829l.354-.354.047.048C11.964 14.363 11.527 15 6 15c-5.924 0-6-.78-6-2.52S.964 8 6 8c.834 0 1.557.074 2.182.205zM5.976 7a3 3 0 1 1 0-6 3 3 0 0 1 0 6z"/></symbol><symbol viewBox="0 0 16 16" id="unassignee" xmlns="http://www.w3.org/2000/svg"><path fill-rule="evenodd" d="M11 5h4a1 1 0 0 1 0 2h-4a1 1 0 0 1 0-2zM5.976 7a3 3 0 1 1 0-6 3 3 0 0 1 0 6zM6 15c-5.924 0-6-.78-6-2.52S.964 8 6 8s6 2.692 6 4.48c0 1.788-.076 2.52-6 2.52z"/></symbol><symbol viewBox="0 0 16 16" id="unlink" xmlns="http://www.w3.org/2000/svg"><path d="M11.295 8.845l-.659-1.664a1.78 1.78 0 0 0 .04-.04l1.415-1.414c.586-.586.654-1.468.152-1.97s-1.384-.434-1.97.152L8.859 5.323a1.781 1.781 0 0 0-.04.04l-1.664-.658c.141-.208.305-.408.491-.594l1.415-1.414c1.366-1.367 3.424-1.525 4.596-.354 1.171 1.172 1.013 3.23-.354 4.596L11.89 8.354c-.186.186-.386.35-.594.491zm-2.45 2.45a4.075 4.075 0 0 1-.491.594l-1.415 1.414c-1.366 1.367-3.424 1.525-4.596.354-1.171-1.172-1.013-3.23.354-4.596L4.11 7.646c.186-.186.386-.35.594-.491l.659 1.664a1.781 1.781 0 0 0-.04.04l-1.415 1.414c-.586.586-.654 1.468-.152 1.97s1.384.434 1.97-.152l1.414-1.414a1.78 1.78 0 0 0 .04-.04l1.664.658zm3.812-2.088h2a.5.5 0 0 1 .5.5v.05a.5.5 0 0 1-.5.5h-2a.5.5 0 0 1-.5-.5v-.05a.5.5 0 0 1 .5-.5zm-.384 2.116l1.415 1.414a.5.5 0 0 1 0 .708l-.037.036a.5.5 0 0 1-.707 0l-1.414-1.414a.5.5 0 0 1 0-.707l.036-.037a.5.5 0 0 1 .707 0zm-2.823 1.09a.5.5 0 0 1 .5-.5h.052a.5.5 0 0 1 .5.5v2a.5.5 0 0 1-.5.5H9.95a.5.5 0 0 1-.5-.5v-2zm-2.748-9.16a.5.5 0 0 1-.5.5h-.05a.5.5 0 0 1-.5-.5v-2a.5.5 0 0 1 .5-.5h.05a.5.5 0 0 1 .5.5v2zm-2.116.383a.5.5 0 0 1 0 .707l-.036.036a.5.5 0 0 1-.707 0L2.428 2.965a.5.5 0 0 1 0-.707l.037-.036a.5.5 0 0 1 .707 0l1.414 1.414zm-1.09 2.823h-2a.5.5 0 0 1-.5-.5v-.051a.5.5 0 0 1 .5-.5h2a.5.5 0 0 1 .5.5v.05a.5.5 0 0 1-.5.5z"/></symbol><symbol viewBox="0 0 16 16" id="unstaged" xmlns="http://www.w3.org/2000/svg"><path fill-rule="evenodd" d="M2 3h12a1 1 0 0 1 0 2H2a1 1 0 1 1 0-2zm0 4h12a1 1 0 0 1 0 2H2a1 1 0 1 1 0-2zm0 4h12a1 1 0 0 1 0 2H2a1 1 0 0 1 0-2z"/></symbol><symbol viewBox="0 0 16 16" id="user" xmlns="http://www.w3.org/2000/svg"><path fill-rule="evenodd" d="M8 7a3 3 0 1 1 0-6 3 3 0 0 1 0 6zm0 8c-6.888 0-6.976-.78-6.976-2.52S2.144 8 8 8s6.976 2.692 6.976 4.48c0 1.788-.088 2.52-6.976 2.52z"/></symbol><symbol viewBox="0 0 16 16" id="users" xmlns="http://www.w3.org/2000/svg"><path fill-rule="evenodd" d="M10.521 8.01C15.103 8.19 16 10.755 16 12.48c0 1.533-.056 2.29-3.808 2.475.609-.54.808-1.331.808-2.475 0-1.911-.804-3.503-2.479-4.47zm-1.67-1.228A3.987 3.987 0 0 0 9.976 4a3.987 3.987 0 0 0-1.125-2.782 3 3 0 1 1 0 5.563zM5.976 7a3 3 0 1 1 0-6 3 3 0 0 1 0 6zM6 15c-5.924 0-6-.78-6-2.52S.964 8 6 8s6 2.692 6 4.48c0 1.788-.076 2.52-6 2.52z"/></symbol><symbol viewBox="0 0 16 16" id="volume-up" xmlns="http://www.w3.org/2000/svg"><path fill-rule="evenodd" d="M1 5h1v6H1a1 1 0 0 1-1-1V6a1 1 0 0 1 1-1zm2 0l4.445-2.964A1 1 0 0 1 9 2.87v10.26a1 1 0 0 1-1.555.833L3 11V5zm10.283 7.89a.5.5 0 0 1-.66-.752A5.485 5.485 0 0 0 14.5 8c0-1.601-.687-3.09-1.865-4.128a.5.5 0 0 1 .661-.75A6.484 6.484 0 0 1 15.5 8a6.485 6.485 0 0 1-2.217 4.89zm-2.002-2.236a.5.5 0 1 1-.652-.758c.55-.472.871-1.157.871-1.896 0-.732-.315-1.411-.856-1.883a.5.5 0 0 1 .658-.753A3.492 3.492 0 0 1 12.5 8c0 1.033-.45 1.994-1.219 2.654z"/></symbol><symbol viewBox="0 0 16 16" id="warning" xmlns="http://www.w3.org/2000/svg"><path d="M15.572 10.506c.867 1.42.375 3.247-1.098 4.082a3.184 3.184 0 0 1-1.57.412h-9.81C1.387 15 0 13.665 0 12.018a2.9 2.9 0 0 1 .427-1.512L5.332 2.47C6.2 1.05 8.096.577 9.57 1.412c.453.257.831.622 1.098 1.059l4.905 8.035zM8.89 3.479a1.014 1.014 0 0 0-.366-.353 1.053 1.053 0 0 0-1.412.353l-4.905 8.035a.967.967 0 0 0-.143.504c0 .549.462.994 1.032.994h9.81c.184 0 .364-.048.523-.137a.974.974 0 0 0 .366-1.361L8.889 3.479zM8 5a1 1 0 0 1 1 1v2a1 1 0 1 1-2 0V6a1 1 0 0 1 1-1zm0 7a1 1 0 1 1 0-2 1 1 0 0 1 0 2z"/></symbol><symbol viewBox="0 0 16 16" id="work" xmlns="http://www.w3.org/2000/svg"><path d="M12 3h1a3 3 0 0 1 3 3v7a3 3 0 0 1-3 3H3a3 3 0 0 1-3-3V6a3 3 0 0 1 3-3h1V2a2 2 0 0 1 2-2h4a2 2 0 0 1 2 2v1zM6 2v1h4V2H6zM3 5a1 1 0 0 0-1 1v7a1 1 0 0 0 1 1h10a1 1 0 0 0 1-1V6a1 1 0 0 0-1-1H3zm1.5 1a.5.5 0 0 1 .5.5v6a.5.5 0 1 1-1 0v-6a.5.5 0 0 1 .5-.5zm7 0a.5.5 0 0 1 .5.5v6a.5.5 0 1 1-1 0v-6a.5.5 0 0 1 .5-.5z"/></symbol></svg>