<svg width="48" height="60" viewBox="0 0 48 60" xmlns="http://www.w3.org/2000/svg"><title>cursor_2x</title><g fill="none" fill-rule="evenodd"><path d="M48 24.21C48 37.583 36.522 47.369 24 60 11.478 47.368 0 37.582 0 24.21 0 10.84 10.745 0 24 0s24 10.84 24 24.21z" fill="#1F78D1" fill-rule="nonzero"/><path d="M30.56 50.497c2.915-2.95 5.078-5.268 6.947-7.493 5.703-6.788 8.406-12.53 8.406-18.793 0-12.223-9.815-22.124-21.913-22.124S2.087 11.988 2.087 24.211c0 6.263 2.703 12.005 8.406 18.793 1.87 2.225 4.032 4.544 6.947 7.493 1.022 1.035 4.432 4.426 6.56 6.55 2.128-2.124 5.538-5.515 6.56-6.55z" fill="#FFF"/><path d="M29.103 16.512c-1.58-.625-3.282-.938-5.103-.938-1.821 0-3.527.313-5.116.938-1.58.616-2.84 1.45-3.777 2.504-.928 1.054-1.393 2.192-1.393 3.415 0 1 .317 1.956.951 2.866.643.902 1.545 1.684 2.706 2.344l1.165.67-.362 1.286a9.603 9.603 0 0 1-.937 2.303 13.208 13.208 0 0 0 3.683-2.29l.576-.509.763.08c.616.072 1.196.108 1.741.108 1.821 0 3.522-.308 5.103-.925 1.589-.625 2.848-1.464 3.776-2.517.938-1.054 1.407-2.192 1.407-3.416 0-1.223-.469-2.361-1.407-3.415-.928-1.053-2.187-1.888-3.776-2.504zm5.29 1.62c1.071 1.313 1.607 2.746 1.607 4.3 0 1.553-.536 2.99-1.607 4.312-1.072 1.312-2.527 2.353-4.366 3.12-1.84.76-3.848 1.139-6.027 1.139a18.32 18.32 0 0 1-1.942-.107c-1.768 1.562-3.821 2.643-6.16 3.24-.438.126-.947.224-1.527.295h-.067a.521.521 0 0 1-.362-.147.649.649 0 0 1-.214-.362v-.013c-.027-.036-.032-.09-.014-.16.027-.072.036-.117.027-.135 0-.017.022-.062.067-.133a1.29 1.29 0 0 0 .08-.121c.01-.009.04-.045.094-.107a106.068 106.068 0 0 1 .522-.59c.215-.232.367-.401.456-.508.098-.099.236-.273.415-.523.188-.25.335-.477.442-.683.107-.205.228-.468.362-.79.134-.321.25-.66.348-1.018-1.402-.794-2.51-1.777-3.322-2.946C12.402 25.025 12 23.77 12 22.43c0-1.553.536-2.986 1.607-4.299 1.072-1.321 2.527-2.361 4.366-3.12 1.84-.768 3.848-1.152 6.027-1.152 2.179 0 4.188.384 6.027 1.152 1.84.759 3.294 1.799 4.366 3.12z" fill="#1F78D1" fill-rule="nonzero"/></g></svg>
