<svg width="234" height="162" viewBox="0 0 234 162" fill="none" xmlns="http://www.w3.org/2000/svg">
<path d="M174.68 56.344H200.5C215.412 56.344 227.5 44.1787 227.5 29.172C227.5 14.1653 215.412 2 200.5 2C185.588 2 173.5 14.1653 173.5 29.172C173.5 36.2548 176.193 42.7046 180.604 47.5412" stroke="#C2B7E6" stroke-width="4" stroke-linecap="round"/>
<path d="M145.5 76.4714C145.5 65.3553 154.454 56.344 165.5 56.344" stroke="#C2B7E6" stroke-width="4" stroke-linecap="round"/>
<path d="M102.5 121.758H29.5C14.5883 121.758 2.5 109.593 2.5 94.586C2.5 79.5794 14.5883 67.4141 29.5 67.4141C44.4117 67.4141 56.5 79.5794 56.5 94.586C56.5 101.669 53.8072 108.119 49.3957 112.955" stroke="#C2B7E6" stroke-width="4" stroke-linecap="round"/>
<path d="M67.0466 121.758H52.5C42.5589 121.758 34.5 129.868 34.5 139.873C34.5 149.877 42.5589 157.987 52.5 157.987C62.4411 157.987 70.5 149.877 70.5 139.873C70.5 137.478 70.0384 135.192 69.1998 133.1" stroke="#C2B7E6" stroke-width="4" stroke-linecap="round"/>
<g clip-path="url(#clip0)">
<path d="M55.0188 135.3C55.1617 134.764 54.8451 134.211 54.3117 134.068C53.7782 133.925 53.2298 134.243 53.0869 134.78L49.9811 146.445C49.8381 146.981 50.1547 147.534 50.6882 147.677C51.2217 147.821 51.77 147.503 51.9129 146.965L55.0188 135.3Z" fill="#FC6D26"/>
<path d="M49.2071 137.142C49.5976 137.534 49.5976 138.172 49.2071 138.565L46.9142 140.873L49.2071 143.18C49.5976 143.573 49.5976 144.211 49.2071 144.603C48.8166 144.997 48.1834 144.997 47.7929 144.603L44.7929 141.584C44.4024 141.192 44.4024 140.554 44.7929 140.161L47.7929 137.142C48.1834 136.748 48.8166 136.748 49.2071 137.142Z" fill="#FC6D26"/>
<path d="M55.7929 137.142C55.4024 137.534 55.4024 138.172 55.7929 138.565L58.0858 140.873L55.7929 143.18C55.4024 143.573 55.4024 144.211 55.7929 144.603C56.1834 144.997 56.8166 144.997 57.2071 144.603L60.2071 141.584C60.5976 141.192 60.5976 140.554 60.2071 140.161L57.2071 137.142C56.8166 136.748 56.1834 136.748 55.7929 137.142Z" fill="#FC6D26"/>
</g>
<path d="M212.102 160C222.815 160 231.5 151.214 231.5 140.376C231.5 129.537 222.815 120.752 212.102 120.752H151.5" stroke="#C2B7E6" stroke-width="4" stroke-linecap="round"/>
<path d="M126.5 138.866C107.171 138.866 91.5 123.096 91.5 103.643C91.5 84.191 107.171 68.4204 126.5 68.4204C145.829 68.4204 161.5 84.191 161.5 103.643C161.5 123.096 145.829 138.866 126.5 138.866ZM126.5 131.451C141.76 131.451 154.132 119.001 154.132 103.643C154.132 88.2861 141.76 75.8358 126.5 75.8358C111.24 75.8358 98.8684 88.2861 98.8684 103.643C98.8684 119.001 111.24 131.451 126.5 131.451Z" fill="#FC6D26"/>
<path fill-rule="evenodd" clip-rule="evenodd" d="M126.126 87.1326C135.355 87.1326 142.906 94.5624 142.906 103.643C142.906 112.724 135.355 120.154 126.126 120.154C120.672 120.154 115.638 117.265 112.281 113.137L126.126 103.643V87.1326Z" fill="#6E49CB"/>
<g clip-path="url(#clip1)">
<path d="M29.5 90.2659L24.3571 91.9534V93.1629C24.3571 94.9623 25.087 96.6872 26.3846 97.9546L29.5 100.997V90.2659Z" fill="#FC6D26"/>
<path fill-rule="evenodd" clip-rule="evenodd" d="M17.5 86.8909L29.5 83.5159L41.5 86.8909V93.1115C41.5 96.6919 40.0551 100.126 37.4832 102.657L29.5 110.516L21.5168 102.657C18.9449 100.126 17.5 96.6919 17.5 93.1115V86.8909ZM20.9286 93.1115V89.4366L29.5 87.0259L38.0714 89.4366V93.1115C38.0714 95.7968 36.9878 98.3721 35.0588 100.271L29.5 105.743L23.9412 100.271C22.0122 98.3721 20.9286 95.7968 20.9286 93.1115Z" fill="#FC6D26"/>
</g>
<g clip-path="url(#clip2)">
<path d="M210.857 19.7297L209.51 24.8237C208.922 27.0445 207.518 28.9576 205.581 30.1752L194.728 36.999L191.862 34.1146L198.642 23.1922C199.852 21.2431 201.753 19.8298 203.96 19.2386L209.022 17.8826C209.822 17.6681 210.644 18.1474 210.857 18.953C210.925 19.2075 210.925 19.4752 210.857 19.7297ZM207.292 21.4702L204.732 22.1561C203.261 22.5503 201.993 23.4925 201.187 24.7918L196.517 32.3146L203.992 27.6148C205.283 26.803 206.219 25.5276 206.611 24.0471L207.292 21.4702ZM196.5 38.2294L204 33.7007V35.2103C204 38.5451 201.314 41.2485 198 41.2485H196.5V38.2294ZM190.5 32.1912H187.5V30.6816C187.5 27.3468 190.186 24.6434 193.5 24.6434H195L190.5 32.1912Z" fill="#FC6D26"/>
</g>
<path fill-rule="evenodd" clip-rule="evenodd" d="M209.914 132.822C209.384 132.822 208.875 133.032 208.5 133.407L204.796 137.111C204.613 137.293 204.5 137.544 204.5 137.822V144.822C204.5 145.926 205.395 146.822 206.5 146.822H216.5C217.605 146.822 218.5 145.926 218.5 144.822V137.822C218.5 137.546 218.388 137.296 218.207 137.115L214.5 133.407C214.125 133.032 213.616 132.822 213.086 132.822H209.914ZM215.086 136.822L213.086 134.822H212.5V136.822H215.086ZM210.5 134.822H209.914L207.914 136.822H210.5V134.822ZM206.5 138.822H216.5V144.822H206.5V138.822Z" fill="#FC6D26"/>
<defs>
<clipPath id="clip0">
<rect width="16" height="13.6779" fill="white" transform="translate(44.5 134.033)"/>
</clipPath>
<clipPath id="clip1">
<rect width="24" height="27.172" fill="white" transform="translate(17.5 83.5159)"/>
</clipPath>
<clipPath id="clip2">
<rect width="24" height="24.1529" fill="white" transform="translate(187.5 17.0956)"/>
</clipPath>
</defs>
</svg>
