<?xml version="1.0" encoding="UTF-8" standalone="no"?>
<svg width="546px" height="194px" viewBox="0 0 546 194" version="1.1" xmlns="http://www.w3.org/2000/svg" xmlns:xlink="http://www.w3.org/1999/xlink" xmlns:sketch="http://www.bohemiancoding.com/sketch/ns">
    <!-- Generator: Sketch 3.3.2 (12043) - http://www.bohemiancoding.com/sketch -->
    <title>Fill 1 + Group 24</title>
    <desc>Created with Sketch.</desc>
    <defs></defs>
    <g id="Page-1" stroke="none" stroke-width="1" fill="none" fill-rule="evenodd" sketch:type="MSPage">
        <g id="Fill-1-+-Group-24" sketch:type="MSLayerGroup">
            <g id="Group-24" sketch:type="MSShapeGroup">
                <path d="M316.7906,65.3001 C301.5016,65.3001 292.0046,77.4461 292.0046,97.0001 C292.0046,116.5541 301.5016,128.7001 316.7906,128.7001 C322.5346,128.7001 327.8716,127.0711 332.2226,123.9881 L332.4336,123.8391 L332.4336,101.8711 L310.4336,101.8711 L310.4336,94.0711 L341.4336,94.0711 L341.4336,126.8061 C334.8706,133.1501 326.3546,136.5001 316.7906,136.5001 C296.2666,136.5001 283.0046,120.9951 283.0046,97.0001 C283.0046,73.0051 296.2666,57.5001 316.7906,57.5001 C326.7826,57.5001 335.2176,61.1481 341.2206,68.0561 L335.2246,73.0381 C330.6986,67.9041 324.4986,65.3001 316.7906,65.3001 L316.7906,65.3001 Z M489.8836,135.2501 L482.9356,135.2501 L480.6016,128.8021 L480.0486,129.2991 C479.9716,129.3681 472.2196,136.2501 462.4606,136.2501 C452.6096,136.2501 445.4606,129.6961 445.4606,120.6671 C445.4606,107.5951 456.7446,104.8511 466.2096,104.8511 C473.5836,104.8511 480.1886,106.5111 480.2546,106.5281 L480.8776,106.6871 L480.8776,105.1011 C480.8776,97.9861 476.4356,94.3781 467.6726,94.3781 C462.3646,94.3781 456.7556,95.6891 451.4236,98.1701 L447.8206,91.9581 C452.5266,88.8961 459.6726,85.3781 467.6726,85.3781 C481.5806,85.3781 489.8836,92.9341 489.8836,105.5891 L489.8836,135.2501 Z M470.6886,111.7771 C460.0716,111.7771 454.4606,114.8511 454.4606,120.6671 C454.4606,124.7281 457.5256,127.2501 462.4606,127.2501 C470.5906,127.2501 477.7276,123.9181 480.6626,121.9481 L480.8836,121.8001 L480.8836,112.6201 L480.4676,112.5491 C480.4226,112.5411 475.8766,111.7771 470.6886,111.7771 L470.6886,111.7771 Z M440.4576,127.4501 L440.4576,135.2501 L410.4606,135.2501 L410.4606,61.2501 L419.4606,61.2501 L419.4606,127.4501 L440.4576,127.4501 Z M520.9416,136.5001 C515.0966,136.5001 508.6886,135.6961 501.8926,134.1091 L501.8926,61.2501 L510.8926,61.2501 L510.8926,89.3131 L511.6656,88.8111 C511.7146,88.7791 516.7346,85.5711 523.6536,85.5711 C525.0336,85.5711 526.4146,85.7001 527.7486,85.9521 C539.0936,88.2761 545.8666,97.4301 545.8666,110.4391 C545.8666,125.7831 535.6176,136.5001 520.9416,136.5001 L520.9416,136.5001 Z M521.9426,94.3781 C518.3636,94.3781 514.6196,95.6031 511.1166,97.9191 L510.8926,98.0681 L510.8926,127.9021 L511.3196,127.9651 C514.6986,128.4601 517.9356,128.7121 520.9416,128.7121 C530.3176,128.7121 536.8666,121.1971 536.8666,110.4391 C536.8666,100.2321 531.4266,94.3781 521.9426,94.3781 L521.9426,94.3781 Z M398.4516,86.2501 L398.4516,94.0501 L383.4516,94.0501 L383.4516,116.9501 C383.4516,119.7551 384.5436,122.3921 386.5276,124.3741 C388.5096,126.3581 391.1466,127.4501 393.9516,127.4501 L398.4516,127.4501 L398.4516,135.2501 L393.9516,135.2501 C383.1996,135.2501 374.4516,126.5021 374.4516,115.7501 L374.4516,61.2501 L383.4516,61.2501 L383.4516,86.2501 L398.4516,86.2501 Z M353.4426,66.2501 L362.4426,66.2501 L362.4426,75.2501 L353.4426,75.2501 L353.4426,66.2501 Z M353.4426,86.2501 L362.4426,86.2501 L362.4426,135.2501 L353.4426,135.2501 L353.4426,86.2501 Z" id="Fill-2" fill="#8C929D"></path>
                <g id="Group">
                    <path d="M105.0614,193.655 L105.0614,193.655 L143.7014,74.734 L66.4214,74.734 L105.0614,193.655 L105.0614,193.655 Z" id="Fill-4" fill="#E24329"></path>
                    <path id="Fill-6" fill="#FC6D26"></path>
                    <path d="M105.0614,193.6548 L66.4214,74.7338 L12.2684,74.7338 L105.0614,193.6548 Z" id="Fill-8" fill="#FC6D26"></path>
                    <path id="Fill-10" fill="#FC6D26"></path>
                    <path d="M12.2685,74.7341 L12.2685,74.7341 L0.5265,110.8731 C-0.5445,114.1691 0.6285,117.7801 3.4325,119.8171 L105.0615,193.6551 L12.2685,74.7341 Z" id="Fill-12" fill="#FCA326"></path>
                    <path id="Fill-14" fill="#FC6D26"></path>
                    <path d="M12.2685,74.7342 L66.4215,74.7342 L43.1485,3.1092 C41.9515,-0.5768 36.7375,-0.5758 35.5405,3.1092 L12.2685,74.7342 Z" id="Fill-16" fill="#E24329"></path>
                    <path d="M105.0614,193.6548 L143.7014,74.7338 L197.8544,74.7338 L105.0614,193.6548 Z" id="Fill-18" fill="#FC6D26"></path>
                    <path d="M197.8544,74.7341 L197.8544,74.7341 L209.5964,110.8731 C210.6674,114.1691 209.4944,117.7801 206.6904,119.8171 L105.0614,193.6551 L197.8544,74.7341 Z" id="Fill-20" fill="#FCA326"></path>
                    <path d="M197.8544,74.7342 L143.7014,74.7342 L166.9744,3.1092 C168.1714,-0.5768 173.3854,-0.5758 174.5824,3.1092 L197.8544,74.7342 Z" id="Fill-22" fill="#E24329"></path>
                </g>
            </g>
        </g>
    </g>
</svg>