<svg width="78" height="82" xmlns="http://www.w3.org/2000/svg"><g fill="none" fill-rule="evenodd"><path d="M2.12 42C2.04 43 2 44 2 45c0 20.43 16.57 37 37 37s37-16.57 37-37c0-1-.04-2-.12-3C74.35 61.03 58.42 76 39 76S3.65 61.03 2.12 42z" fill-opacity=".03" fill="#000" fill-rule="nonzero"/><path d="M39 78C17.46 78 0 60.54 0 39S17.46 0 39 0s39 17.46 39 39-17.46 39-39 39zm0-4c19.33 0 35-15.67 35-35S58.33 4 39 4 4 19.67 4 39s15.67 35 35 35z" fill="#EEE" fill-rule="nonzero"/><path d="M44 31l-2.5-3-2.5 3-2.5-3-2.5 3-2.5-3-2.5 3h-2.72c2.65-4.2 7.36-7 12.72-7s10.07 2.8 12.72 7H49l-2.5-3-2.5 3z" fill="#E1DBF2" fill-rule="nonzero"/><path d="M39 57c-9.4 0-17-7.6-17-17s7.6-17 17-17 17 7.6 17 17-7.6 17-17 17zm0-4c7.18 0 13-5.82 13-13s-5.82-13-13-13-13 5.82-13 13 5.82 13 13 13z" fill="#E1DBF2" fill-rule="nonzero"/><g transform="translate(20 13)"><path d="M5.731 15.24V8.736H33.75v6.504c0 4.851-6.272 8.784-14.01 8.784-7.737 0-14.009-3.933-14.009-8.784z" fill="#0B2630"/><path d="M.75 7.662L18.824.182a2.4 2.4 0 0 1 1.835 0l18.072 7.48a1.2 1.2 0 0 1 0 2.218l-18.072 7.48a2.4 2.4 0 0 1-1.835 0L.75 9.88a1.2 1.2 0 0 1 0-2.218z" fill="#29424E"/><path d="M19.295 9.771a1.194 1.194 0 0 1-.66-1.557c.248-.612.948-.907 1.562-.659l11.516 4.657v11.766c0 .66-.538 1.195-1.2 1.195-.663 0-1.2-.535-1.2-1.195V13.822l-10.018-4.05z" fill="#FFCF00" fill-rule="nonzero"/><path d="M32.613 23.373v3.807h-4.2v-3.807c0-.711.353-1.34.894-1.72h2.411c.541.38.895 1.009.895 1.72z" fill="#FCA326"/><path fill="#FFCF00" d="M28.413 23.592H32.613V27.18H28.413z"/></g><path d="M35 45h8c0 2.2-1.8 4-4 4s-4-1.8-4-4zm-1.5-2c-.83 0-1.5-.67-1.5-1.5s.67-1.5 1.5-1.5 1.5.67 1.5 1.5-.67 1.5-1.5 1.5zm11 0c-.83 0-1.5-.67-1.5-1.5s.67-1.5 1.5-1.5 1.5.67 1.5 1.5-.67 1.5-1.5 1.5z" fill="#6B4FBB" fill-rule="nonzero"/></g></svg>