<svg width="280" height="140" viewBox="0 0 280 140" fill="none" xmlns="http://www.w3.org/2000/svg">
<g clip-path="url(#clip0_187_122567)">
<g clip-path="url(#clip1_187_122567)">
<circle cx="189.5" cy="-42.5" r="131.5" fill="url(#paint0_radial_187_122567)"/>
<circle cx="-41.5" cy="-97.5" r="198.5" fill="url(#paint1_radial_187_122567)"/>
<circle cx="309.5" cy="-7.5" r="121.5" fill="url(#paint2_radial_187_122567)"/>
<g filter="url(#filter0_b_187_122567)">
<path d="M0 4C0 1.79086 1.79086 0 4 0H276C278.209 0 280 1.79086 280 4V130H0V4Z" fill="white" fill-opacity="0.01"/>
</g>
</g>
<path d="M183.948 47.9647H100.897V100.482H183.948V47.9647Z" fill="white"/>
<path d="M100.64 47.9647H184.06V98.9817C184.06 104.1 179.908 108.256 174.793 108.256H100.638V47.9647H100.64Z" fill="white"/>
<path d="M184.314 34.7452H100.64V47.9676H184.314V34.7452Z" fill="#AEA5D6"/>
<path d="M109.594 43.2574C110.644 43.2574 111.495 42.4056 111.495 41.3549C111.495 40.3043 110.644 39.4525 109.594 39.4525C108.544 39.4525 107.693 40.3043 107.693 41.3549C107.693 42.4056 108.544 43.2574 109.594 43.2574Z" fill="#10B1B1"/>
<path d="M116.482 43.2574C117.532 43.2574 118.383 42.4056 118.383 41.3549C118.383 40.3043 117.532 39.4525 116.482 39.4525C115.432 39.4525 114.581 40.3043 114.581 41.3549C114.581 42.4056 115.432 43.2574 116.482 43.2574Z" fill="#A888F4"/>
<path d="M123.368 43.2574C124.418 43.2574 125.269 42.4056 125.269 41.3549C125.269 40.3043 124.418 39.4525 123.368 39.4525C122.318 39.4525 121.467 40.3043 121.467 41.3549C121.467 42.4056 122.318 43.2574 123.368 43.2574Z" fill="#FF9D73"/>
<path fill-rule="evenodd" clip-rule="evenodd" d="M100.556 34.4038H165.377V35.0858H101.238V61.7159H100.556V34.4038Z" fill="#171321"/>
<path fill-rule="evenodd" clip-rule="evenodd" d="M101.238 66.3383V83.4486H100.556V66.3383H101.238Z" fill="#171321"/>
<path fill-rule="evenodd" clip-rule="evenodd" d="M183.721 99.0231V89.5341H184.403V99.0231C184.403 104.311 180.118 108.599 174.834 108.599H120.244V107.917H174.834C179.741 107.917 183.721 103.935 183.721 99.0231Z" fill="#171321"/>
<path fill-rule="evenodd" clip-rule="evenodd" d="M183.721 83.1296V62.2422H184.403V83.1296H183.721Z" fill="#171321"/>
<path fill-rule="evenodd" clip-rule="evenodd" d="M109.596 39.7936C108.734 39.7936 108.036 40.4924 108.036 41.355C108.036 42.2176 108.734 42.9164 109.596 42.9164C110.457 42.9164 111.155 42.2176 111.155 41.355C111.155 40.4924 110.457 39.7936 109.596 39.7936ZM107.354 41.355C107.354 40.1162 108.357 39.1116 109.596 39.1116C110.834 39.1116 111.837 40.1162 111.837 41.355C111.837 42.5938 110.834 43.5985 109.596 43.5985C108.357 43.5985 107.354 42.5938 107.354 41.355Z" fill="#171321"/>
<path fill-rule="evenodd" clip-rule="evenodd" d="M116.48 39.7936C115.619 39.7936 114.92 40.4924 114.92 41.355C114.92 42.2176 115.619 42.9164 116.48 42.9164C117.342 42.9164 118.04 42.2176 118.04 41.355C118.04 40.4924 117.342 39.7936 116.48 39.7936ZM114.238 41.355C114.238 40.1162 115.242 39.1116 116.48 39.1116C117.719 39.1116 118.722 40.1162 118.722 41.355C118.722 42.5938 117.719 43.5985 116.48 43.5985C115.242 43.5985 114.238 42.5938 114.238 41.355Z" fill="#171321"/>
<path fill-rule="evenodd" clip-rule="evenodd" d="M123.367 39.7936C122.506 39.7936 121.808 40.4924 121.808 41.355C121.808 42.2176 122.506 42.9164 123.367 42.9164C124.229 42.9164 124.927 42.2176 124.927 41.355C124.927 40.4924 124.229 39.7936 123.367 39.7936ZM121.125 41.355C121.125 40.1162 122.129 39.1116 123.367 39.1116C124.606 39.1116 125.609 40.1162 125.609 41.355C125.609 42.5938 124.606 43.5985 123.367 43.5985C122.129 43.5985 121.125 42.5938 121.125 41.355Z" fill="#171321"/>
<path fill-rule="evenodd" clip-rule="evenodd" d="M160.466 48.3058H100.897V47.6238H160.466V48.3058Z" fill="#171321"/>
<path d="M173.511 80.7124H152.485V83.4598H173.511V80.7124Z" fill="#D0C5E2"/>
<path d="M149.08 80.7009H111.703V83.4484H149.08V80.7009Z" fill="#E7E4F2"/>
<path d="M111.702 68.5293H132.728V65.7819H111.702V68.5293Z" fill="#E7E4F2"/>
<path d="M136.131 68.5336H173.508V65.7861H136.131V68.5336Z" fill="#AEA5D6"/>
<path d="M111.703 75.9889H120.838V73.2415H111.703V75.9889Z" fill="#AEA5D6"/>
<path d="M155.891 75.9978H173.512V73.2504H155.891V75.9978Z" fill="#E7E4F2"/>
<path d="M124.244 75.9978H152.485V73.2504H124.244V75.9978Z" fill="#D0C5E2"/>
<path d="M141.099 58.3217H124.332V61.0691H141.099V58.3217Z" fill="#D0C5E2"/>
<path d="M173.512 58.3217H144.31V61.0691H173.512V58.3217Z" fill="#E7E4F2"/>
<path d="M120.926 58.3198H111.703V61.0673H120.926V58.3198Z" fill="#AEA5D6"/>
<path d="M144.115 90.9242H160.882V88.1768H144.115V90.9242Z" fill="#AEA5D6"/>
<path d="M111.703 90.908H140.905V88.1605H111.703V90.908Z" fill="#D0C5E2"/>
<path d="M164.288 90.9242H173.512V88.1768H164.288V90.9242Z" fill="#D0C5E2"/>
<path d="M173.508 95.6178H158.224V98.3652H173.508V95.6178Z" fill="#D0C5E2"/>
<path d="M154.82 95.6199H111.703V98.3673H154.82V95.6199Z" fill="#E7E4F2"/>
<path fill-rule="evenodd" clip-rule="evenodd" d="M167.801 34.8965L168.463 35.0598L162.398 59.6461L189.091 57.5112L189.145 58.1911L161.509 60.4014L167.801 34.8965Z" fill="#171321"/>
<path fill-rule="evenodd" clip-rule="evenodd" d="M134.795 81.6335L109.428 116.595L108.876 116.195L133.312 82.5167L92.5055 87.8873L92.4165 87.2111L134.795 81.6335Z" fill="#171321"/>
<path d="M187.019 57.9366C197.646 57.9366 206.262 49.3147 206.262 38.6791C206.262 28.0435 197.646 19.4216 187.019 19.4216C176.392 19.4216 167.777 28.0435 167.777 38.6791C167.777 49.3147 176.392 57.9366 187.019 57.9366Z" fill="white"/>
<path fill-rule="evenodd" clip-rule="evenodd" d="M187.019 19.6948C176.543 19.6948 168.05 28.1943 168.05 38.6794C168.05 49.1646 176.543 57.6641 187.019 57.6641C197.495 57.6641 205.989 49.1646 205.989 38.6794C205.989 28.1943 197.495 19.6948 187.019 19.6948ZM167.504 38.6794C167.504 27.8934 176.241 19.1492 187.019 19.1492C197.797 19.1492 206.534 27.8934 206.534 38.6794C206.534 49.4655 197.797 58.2097 187.019 58.2097C176.241 58.2097 167.504 49.4655 167.504 38.6794Z" fill="#171321"/>
<path fill-rule="evenodd" clip-rule="evenodd" d="M212.255 38.6791C212.255 24.7294 200.956 13.4218 187.018 13.4218V12.677C201.368 12.677 213 24.3186 213 38.6791H212.255Z" fill="#AEA5D6"/>
<path fill-rule="evenodd" clip-rule="evenodd" d="M67.0944 108.321C67.0944 122.27 78.3936 133.578 92.3316 133.578V134.323C77.9817 134.323 66.3496 122.681 66.3496 108.321H67.0944Z" fill="#AEA5D6"/>
<path fill-rule="evenodd" clip-rule="evenodd" d="M181.794 28.4035C183.212 28.0221 184.673 28.8643 185.054 30.2837L184.395 30.4605C184.112 29.4049 183.026 28.7787 181.971 29.0622L181.794 28.4035Z" fill="#171321"/>
<path fill-rule="evenodd" clip-rule="evenodd" d="M192.066 29.0622C191.011 28.7787 189.925 29.4049 189.642 30.4605L188.983 30.2837C189.364 28.8643 190.824 28.0221 192.243 28.4035L192.066 29.0622Z" fill="#171321"/>
<path fill-rule="evenodd" clip-rule="evenodd" d="M195.892 33.5398V36.1862L192.04 37.4786L191.823 36.832L195.21 35.6956V33.5398H195.892Z" fill="#171321"/>
<path fill-rule="evenodd" clip-rule="evenodd" d="M195.213 44.8355L192.045 43.7774L192.262 43.1305L195.895 44.3442V46.991H195.213V44.8355Z" fill="#171321"/>
<path fill-rule="evenodd" clip-rule="evenodd" d="M178.827 35.6957V33.5398H178.145V36.1861L181.995 37.4786L182.212 36.832L178.827 35.6957Z" fill="#171321"/>
<path fill-rule="evenodd" clip-rule="evenodd" d="M181.776 43.1305L181.992 43.7773L178.827 44.8354V46.991H178.145V44.3443L181.776 43.1305Z" fill="#171321"/>
<path d="M182.675 34.3942L181.129 37.5941C179.03 41.9415 182.192 46.9908 187.019 46.9908C191.845 46.9908 195.008 41.9415 192.908 37.5941L191.363 34.3942" fill="#A888F4"/>
<path fill-rule="evenodd" clip-rule="evenodd" d="M186.678 46.9908V34.3942H187.36V46.9908H186.678Z" fill="#171321"/>
<path d="M191.25 34.3939H182.788V33.2534C182.788 28.2918 191.25 28.2987 191.25 33.2534V34.3939Z" fill="#7759C1"/>
<path d="M92.4612 126.064C103.088 126.064 111.704 117.442 111.704 106.806C111.704 96.1706 103.088 87.5487 92.4612 87.5487C81.8339 87.5487 73.2188 96.1706 73.2188 106.806C73.2188 117.442 81.8339 126.064 92.4612 126.064Z" fill="white"/>
<path fill-rule="evenodd" clip-rule="evenodd" d="M92.4604 87.89C82.0217 87.89 73.559 96.359 73.559 106.806C73.559 117.254 82.0217 125.723 92.4604 125.723C102.899 125.723 111.362 117.254 111.362 106.806C111.362 96.359 102.899 87.89 92.4604 87.89ZM72.877 106.806C72.877 95.9828 81.6445 87.208 92.4604 87.208C103.276 87.208 112.044 95.9828 112.044 106.806C112.044 117.63 103.276 126.405 92.4604 126.405C81.6445 126.405 72.877 117.63 72.877 106.806Z" fill="#171321"/>
<path d="M98.2885 105.28H95.9653V101.385C95.9653 99.3302 94.2951 97.6587 92.2419 97.6587C90.1887 97.6587 88.5184 99.3302 88.5184 101.385V105.28H86.1953V101.385C86.1953 98.0489 88.9083 95.3337 92.2419 95.3337C95.5754 95.3337 98.2885 98.0489 98.2885 101.385V105.28Z" fill="#7759C1"/>
<path d="M100.894 104.186H83.3677V116.836H100.894V104.186Z" fill="#A888F4"/>
<path d="M92.1343 111.015C92.8235 111.015 93.3823 110.456 93.3823 109.766C93.3823 109.076 92.8235 108.517 92.1343 108.517C91.445 108.517 90.8862 109.076 90.8862 109.766C90.8862 110.456 91.445 111.015 92.1343 111.015Z" fill="#171321"/>
<path fill-rule="evenodd" clip-rule="evenodd" d="M91.792 112.209V110.722H92.474V112.209H91.792Z" fill="#171321"/>
<path fill-rule="evenodd" clip-rule="evenodd" d="M87.2401 53.2567V60.9103C87.2401 61.9966 88.1212 62.878 89.2061 62.878H121.061C122.523 62.878 123.709 64.0653 123.709 65.5278V67.1601H123.027V65.5278C123.027 64.4415 122.146 63.5601 121.061 63.5601H89.2061C87.7441 63.5601 86.5581 62.3728 86.5581 60.9103V53.2567H87.2401Z" fill="#171321"/>
<path d="M123.368 67.735C123.685 67.735 123.942 67.4776 123.942 67.1601C123.942 66.8426 123.685 66.5852 123.368 66.5852C123.051 66.5852 122.793 66.8426 122.793 67.1601C122.793 67.4776 123.051 67.735 123.368 67.735Z" fill="#171321"/>
<path fill-rule="evenodd" clip-rule="evenodd" d="M123.368 66.9262C123.239 66.9262 123.134 67.0306 123.134 67.16C123.134 67.2895 123.239 67.3939 123.368 67.3939C123.496 67.3939 123.601 67.2895 123.601 67.16C123.601 67.0306 123.496 66.9262 123.368 66.9262ZM122.452 67.16C122.452 66.6545 122.862 66.2441 123.368 66.2441C123.873 66.2441 124.283 66.6545 124.283 67.16C124.283 67.6656 123.873 68.0759 123.368 68.0759C122.862 68.0759 122.452 67.6656 122.452 67.16Z" fill="#171321"/>
<path fill-rule="evenodd" clip-rule="evenodd" d="M167.208 82.5551V84.88C167.208 85.5854 167.778 86.1551 168.482 86.1551H193.305V86.8371H168.482C167.4 86.8371 166.526 85.9616 166.526 84.88V82.5551H167.208Z" fill="#171321"/>
<path d="M166.867 83.13C167.184 83.13 167.441 82.8726 167.441 82.5551C167.441 82.2376 167.184 81.9802 166.867 81.9802C166.55 81.9802 166.292 82.2376 166.292 82.5551C166.292 82.8726 166.55 83.13 166.867 83.13Z" fill="#171321"/>
<path fill-rule="evenodd" clip-rule="evenodd" d="M166.866 82.3209C166.737 82.3209 166.633 82.4254 166.633 82.5548C166.633 82.6842 166.737 82.7887 166.866 82.7887C166.995 82.7887 167.1 82.6842 167.1 82.5548C167.1 82.4255 166.995 82.3209 166.866 82.3209ZM165.951 82.5548C165.951 82.0492 166.36 81.6389 166.866 81.6389C167.372 81.6389 167.782 82.0492 167.782 82.5548C167.782 83.0605 167.372 83.4707 166.866 83.4707C166.36 83.4707 165.951 83.0604 165.951 82.5548Z" fill="#171321"/>
<path d="M86.9023 37.1553C82.8536 41.5743 77.6099 40.6 77.6099 40.6V48.5768C77.6099 49.962 77.8867 51.3404 78.4796 52.5917C80.8973 57.6918 86.9023 59.5873 86.9023 59.5873C86.9023 59.5873 92.9051 57.6918 95.3251 52.5917C95.918 51.3404 96.1948 49.962 96.1948 48.5768V40.6C96.1948 40.6 90.9511 41.5743 86.9023 37.1553V37.1553Z" fill="#10B1B1"/>
<path fill-rule="evenodd" clip-rule="evenodd" d="M90.6411 45.6638L85.4674 50.8415L83.1592 48.5289L83.6419 48.0471L85.4677 49.8764L90.1586 45.1818L90.6411 45.6638Z" fill="#171321"/>
<path d="M197.955 76.3168C193.902 80.7427 188.651 79.7684 188.651 79.7684V87.7567C188.651 89.1443 188.928 90.5249 189.521 91.7786C191.943 96.8856 197.955 98.7834 197.955 98.7834C197.955 98.7834 203.967 96.8856 206.39 91.7786C206.985 90.5249 207.259 89.1443 207.259 87.7567V79.7684C207.259 79.7684 202.009 80.7427 197.955 76.3168Z" fill="#FC6D26"/>
<path d="M197.19 83.1044L197.566 88.4584H198.343L198.719 83.1044H197.19Z" fill="#171321"/>
<path fill-rule="evenodd" clip-rule="evenodd" d="M196.806 82.7468H199.102L198.676 88.8156H197.232L196.806 82.7468ZM197.572 83.4616L197.898 88.1009H198.009L198.335 83.4616H197.572Z" fill="#171321"/>
<path d="M198.343 90.2083H197.566V91.1248H198.343V90.2083Z" fill="#171321"/>
<path fill-rule="evenodd" clip-rule="evenodd" d="M197.208 89.851H198.7V91.4823H197.208V89.851ZM197.922 90.5657V90.7675H197.985V90.5657H197.922Z" fill="#171321"/>
</g>
<defs>
<filter id="filter0_b_187_122567" x="-50" y="-50" width="380" height="230" filterUnits="userSpaceOnUse" color-interpolation-filters="sRGB">
<feFlood flood-opacity="0" result="BackgroundImageFix"/>
<feGaussianBlur in="BackgroundImageFix" stdDeviation="25"/>
<feComposite in2="SourceAlpha" operator="in" result="effect1_backgroundBlur_187_122567"/>
<feBlend mode="normal" in="SourceGraphic" in2="effect1_backgroundBlur_187_122567" result="shape"/>
</filter>
<radialGradient id="paint0_radial_187_122567" cx="0" cy="0" r="1" gradientUnits="userSpaceOnUse" gradientTransform="translate(189.5 -42.5) rotate(89.5818) scale(125.986)">
<stop stop-color="#7759C2"/>
<stop offset="1" stop-color="#7759C2" stop-opacity="0"/>
</radialGradient>
<radialGradient id="paint1_radial_187_122567" cx="0" cy="0" r="1" gradientUnits="userSpaceOnUse" gradientTransform="translate(-41.5 -97.5) rotate(89.5818) scale(190.176)">
<stop stop-color="#D64028"/>
<stop offset="1" stop-color="#D64028" stop-opacity="0"/>
</radialGradient>
<radialGradient id="paint2_radial_187_122567" cx="0" cy="0" r="1" gradientUnits="userSpaceOnUse" gradientTransform="translate(309.5 -7.5) rotate(89.5818) scale(116.405)">
<stop stop-color="#EF76F1"/>
<stop offset="1" stop-color="#EF76F1" stop-opacity="0"/>
</radialGradient>
<clipPath id="clip0_187_122567">
<rect width="280" height="140" fill="white"/>
</clipPath>
<clipPath id="clip1_187_122567">
<path d="M0 4C0 1.79086 1.79086 0 4 0H276C278.209 0 280 1.79086 280 4V140H0V4Z" fill="white"/>
</clipPath>
</defs>
</svg>
