<svg width="288" height="288" fill="none" xmlns="http://www.w3.org/2000/svg"><path d="M287 181c0 22.41-15.768 42.89-41.676 57.823C219.443 253.741 183.621 263 144 263c-39.621 0-75.443-9.259-101.324-24.177C16.768 223.89 1 203.41 1 181v-18h286v18Z" fill="#AEA5D6" stroke="#171321" stroke-width="2"/><ellipse cx="144" cy="161" rx="144" ry="83" fill="#E7E4F2"/><path d="M53.632 225.442C21.51 210.314 1 187.289 1 161.5 1 115.937 65.023 79 144 79s143 36.937 143 82.5S222.977 244 144 244c-29.826 0-57.52-5.268-80.438-14.28" stroke="#171321" stroke-width="2"/><path d="M182.692 103.057V62.385l14.985-8.991v35.963l25.687-50.52 17.982-10.275-25.688 51.376 25.688 29.113-17.553 10.275-18.838-21.835-2.84 5.514-4.438 8.615v23.119l-14.985 8.99v-40.672Z" fill="#fff"/><path d="m241.346 28.563-17.981 10.275-14.985-8.563-11.518 22.653.815.466-14.985 8.99-14.984-8.562 14.984-8.99 14.17 8.096 11.518-22.653L226.361 20l14.985 8.563Z" fill="#C5F4EC"/><path d="M182.692 103.057V62.385l-14.984-8.563v81.345l14.984 8.562v-40.672ZM223.793 119.326l-18.838-21.835-2.84 5.514 6.693 7.758 14.985 8.563Z" fill="#10B1B1"/><path d="m197.677 89.357 25.688-50.52-14.985-8.562-11.518 22.653.815.466v35.963Z" fill="#6FDAC9"/><path d="M182.692 62.385v81.344m0-81.344 14.985-8.99m-14.985 8.99-14.984-8.563m14.984 89.907 14.985-8.99V111.62l4.438-8.615m-19.423 40.724-14.984-8.562m56.085-15.841-18.838-21.835-2.84 5.514m21.678 16.321 17.553-10.275-25.688-29.113 19.534-39.067m-11.399 78.455-14.985-8.563-6.693-7.758m39.231-74.442-17.981 10.275m17.981-10.275L226.361 20 208.38 30.275m32.966-1.712-.923 1.808m-17.058 8.467-25.688 50.519V53.394m25.688-14.556-14.985-8.563m-10.703 23.12-.815-.467m-29.154.894v81.345m0-81.345 14.984-8.99 14.17 8.096m-29.154 82.239.713-.428m14.271-8.563v-23.119m25.688-72.782-11.518 22.653" stroke="#171321" stroke-width="2"/><path d="M113 184.498v-81.5L97.5 94v81.5l15.5 8.998Z" fill="#FF7B42"/><path d="m144 84.998-31 18L97.5 94l31-18c4.222-2.444 10.418-3.506 16-1.606l17.705 9.926c.41.207.814.433 1.211.678l-1.211-.678c-6.091-3.087-13.418-2.093-18.205.678Z" fill="#FF9D73"/><path d="M113 184.498v-81.5l31-18c5.109-2.958 13.111-3.891 19.416 0 5.418 3.344 9.584 10.252 9.584 22.5 0 32-19.5 52.5-31.5 60.5l-28.5 16.5Z" fill="#FFC2A8"/><path d="M113 102.998v81.5m0-81.5 31-18c5.109-2.958 13.111-3.891 19.416 0m-50.416 18L97.5 94m15.5 90.498 28.5-16.5c12-8 31.5-28.5 31.5-60.5 0-12.248-4.166-19.156-9.584-22.5M113 184.498 97.5 175.5V94m0 0 31-18c4.222-2.444 10.418-3.506 16-1.606l18.916 10.604" stroke="#000" stroke-width="2"/><path d="M139.825 108.082v20.886l-10.894 26.443c-.533 1.42-.443 3.427.648 4.13l.035.022a.413.413 0 0 1-.035-.022l-3.166-1.982c-.991-.761-1.059-2.683-.543-4.057l10.894-26.442v-20.887c0-1.471.194-2.796.55-3.93l3.13 1.698c-.4 1.179-.619 2.577-.619 4.141Z" fill="#2B2838"/><path d="M143.905 100.08c.317-.095.664-.067.984.073l-3.03-1.894a1.432 1.432 0 0 0-1.015-.088c-1.615.484-2.86 1.94-3.53 4.072l3.13 1.698c.684-2.017 1.9-3.393 3.461-3.861Z" fill="#45424D"/><path d="M146.061 102.243v25.162l-11.641 28.538c-.622 1.601-1.983 3.854-3.92 3.854-.347 0-.641-.085-.886-.234-1.124-.683-1.222-2.717-.683-4.152l10.894-26.443v-20.886c0-4.238 1.606-7.261 4.08-8.002.318-.095.664-.067.984.073.638.28 1.172 1.006 1.172 2.09Z" fill="#74717A"/><path d="M129.614 159.563c-1.124-.683-1.222-2.717-.683-4.152l10.894-26.443v-20.886c0-1.6.229-3.028.647-4.224m-10.858 55.705c.245.149.539.234.886.234 1.937 0 3.298-2.253 3.92-3.854l11.641-28.538v-25.162c0-1.084-.534-1.81-1.172-2.09m-15.275 59.41-3.201-2.004c-.991-.761-1.059-2.683-.543-4.057l10.894-26.442v-20.887c0-1.471.194-2.796.55-3.93m7.575-2.09a1.428 1.428 0 0 0-.984-.073c-1.54.461-2.743 1.806-3.433 3.778m4.417-3.705-3.03-1.894a1.432 1.432 0 0 0-1.015-.088c-1.615.484-2.86 1.94-3.53 4.072m3.158 1.615-3.158-1.615" stroke="#171321" stroke-width="2"/><path d="M101.348 159.57c0 24.404-22.691 54.801-46.238 54.801-2.106 0-4.718-.461-7.279-1.925-5.247-3.001-10.275-10.218-10.275-26.332 0-7.999 1.196-15.281 3.23-21.834 8.852-28.521 33.58-43.241 44.72-43.241 3.188 0 5.862.832 8.05 2.14 5.337 3.189 7.792 9.201 7.792 12.844l-9.862 5.331-5.98 3.232c0-2.141-2.568-5.994-6.85-5.994-.878 0-1.797.119-2.744.35-6.07 1.481-13.261 7.565-18.048 16.419a47.115 47.115 0 0 0-.614 1.177c-2.853 5.677-4.71 12.402-4.71 19.729 0 2.975 0 7.16.912 10.943 1.188 4.931 3.922 9.179 10.22 9.179 13.272 0 23.12-17.125 23.12-28.256l-14.985 8.99V164.28l29.541-17.126v12.416Z" fill="#fff"/><path d="M71.807 164.28v12.843l14.984-8.99c0 3.249-.838 7.008-2.356 10.703-3.736.735-12.975 1.898-20.051.674a34.87 34.87 0 0 0 3.317-4.801l-10.45-6.148v-12.023c.106-.212.214-.422.323-.631l14.233 8.373Z" fill="#10B1B1"/><path d="M78.657 138.592c4.281 0 6.85 3.853 6.85 5.994l5.98-3.232 9.861-5.331c0-3.643-2.455-9.655-7.792-12.844-2.188-1.308-4.862-2.14-8.05-2.14-9.913 0-30.587 11.657-41.258 34.322a68.81 68.81 0 0 0-3.462 8.919c-2.034 6.553-3.23 13.835-3.23 21.834 0 15.781 4.823 23.03 9.951 26.141l.325.191a13.13 13.13 0 0 1-.325-.191l-13.848-8.159C28.276 201.229 23 194.058 23 177.552c0-8.145 1.24-15.545 3.341-22.191a68.88 68.88 0 0 1 3.185-8.207l14.722 8.207c10.671-22.665 31.345-34.322 41.259-34.322 3.187 0 5.86.832 8.05 2.14 5.336 3.189 7.791 9.201 7.791 12.844l-9.862 5.331-5.98 3.232-4.494-2.644-5.1-3c.947-.231 1.866-.35 2.745-.35Z" fill="#10B1B1"/><path d="m71.807 164.279 29.541-17.125-9.862-5.801-5.979 3.233-4.494-2.644-23.15 13.419c-.097.181-.194.363-.29.546l14.234 8.372ZM53.452 187.21c1.188 4.931 3.922 9.179 10.22 9.179 9.399 0 17.08-8.588 20.763-17.553-3.735.735-12.975 1.898-20.051.674-3.004 3.632-6.73 6.497-10.932 7.7ZM93.38 123.075l.177.104-.178-.104c-2.155-1.248-4.77-2.037-7.872-2.037-9.914 0-30.588 11.658-41.259 34.323l-14.722-8.207c10.62-22.899 31.46-34.678 41.425-34.678 3.229 0 5.93.854 8.134 2.192l14.294 8.407Z" fill="#C5F4EC"/><path d="M101.348 147.154v12.416c0 24.403-22.691 54.801-46.238 54.801-2.106 0-4.718-.461-7.279-1.925m53.517-65.292-29.541 17.125m29.541-17.125-9.862-5.801m-19.68 22.926v12.844m0-12.844-14.232-8.372m14.233 21.216 14.984-8.99c0 3.248-.838 7.008-2.356 10.703m-12.628-1.713-4.106-2.415m17.806-30.122c0-2.141-2.569-5.994-6.85-5.994-.879 0-1.798.119-2.745.35m9.595 5.644 5.98-3.233m-5.98 3.233-4.495-2.644m-13.31 32.766-10.452-6.147v-12.024m10.451 18.171a34.819 34.819 0 0 1-3.317 4.802M47.83 212.446c-5.247-3.001-10.275-10.219-10.275-26.332 0-7.999 1.196-15.281 3.23-21.835a68.852 68.852 0 0 1 3.462-8.918m3.584 57.085-14.173-8.351C28.276 201.229 23 194.058 23 177.551c0-8.144 1.24-15.545 3.341-22.19a68.88 68.88 0 0 1 3.185-8.207m46.386-8.212 5.1 3m-5.1-3c-6.07 1.48-13.261 7.565-18.048 16.419m-4.412 31.849c1.188 4.931 3.922 9.179 10.22 9.179 9.399 0 17.08-8.588 20.763-17.553m-30.983 8.374c-.911-3.783-.911-7.969-.911-10.943 0-7.327 1.856-14.053 4.71-19.73m-3.799 30.673c4.201-1.203 7.928-4.068 10.932-7.7m29.172-56.331c5.337 3.189 7.792 9.201 7.792 12.844l-9.862 5.33m2.07-18.174c-2.188-1.308-4.862-2.141-8.05-2.141-9.913 0-30.587 11.658-41.258 34.323m49.308-32.182-14.471-8.511c-2.204-1.338-4.906-2.192-8.134-2.192-9.966 0-30.804 11.779-41.425 34.678m51.486-5.212-23.148 13.419m0 0c-.098.181-.195.363-.29.546m0 0c-.11.209-.217.419-.324.63m-13.002-1.176-14.722-8.207m54.909 31.682c-3.736.735-12.975 1.898-20.051.674" stroke="#171321" stroke-width="2"/></svg>
