<svg width="288" height="288" fill="none" xmlns="http://www.w3.org/2000/svg"><path d="M287 181c0 22.41-15.768 42.89-41.676 57.823C219.443 253.741 183.621 263 144 263c-39.621 0-75.443-9.259-101.324-24.177C16.768 223.89 1 203.41 1 181v-18h286v18Z" fill="#AEA5D6" stroke="#171321" stroke-width="2"/><ellipse cx="144" cy="161" rx="144" ry="83" fill="#E7E4F2"/><path d="M53.632 225.442C21.51 210.314 1 187.289 1 161.5 1 115.937 65.023 79 144 79s143 36.937 143 82.5S222.977 244 144 244c-29.826 0-57.52-5.268-80.438-14.28" stroke="#171321" stroke-width="2"/><path d="M182.769 102.686V62.014l14.985-8.99v35.962l25.688-50.519 17.981-10.275-25.688 51.375 25.688 29.113-17.553 10.275-18.838-21.834-2.84 5.513-4.438 8.615v23.119l-14.985 8.991v-40.673Z" fill="#fff"/><path d="m241.423 28.192-17.981 10.275-14.985-8.563-11.518 22.654.815.465-14.985 8.991-14.984-8.562 14.984-8.991 14.17 8.097 11.518-22.654 17.982-10.275 14.984 8.563Z" fill="#C5F4EC"/><path d="M182.769 102.686V62.014l-14.984-8.563v81.345l14.984 8.563v-40.673ZM223.87 118.955l-18.838-21.834-2.84 5.513 6.693 7.759 14.985 8.562Z" fill="#10B1B1"/><path d="m197.754 88.986 25.688-50.52-14.985-8.562-11.518 22.653.815.466v35.963Z" fill="#6FDAC9"/><path d="M182.769 62.014v81.345m0-81.345 14.985-8.99m-14.985 8.99-14.984-8.562m14.984 89.907 14.985-8.991v-23.119l4.438-8.615m-19.423 40.725-14.984-8.563m56.085-15.841-18.838-21.834-2.84 5.513m21.678 16.321 17.553-10.275-25.688-29.113L235.269 40.5m-11.399 78.455-14.985-8.562-6.693-7.759m39.231-74.442-17.981 10.275m17.981-10.275-14.984-8.563-17.982 10.275m32.966-1.712L240.5 30m-17.058 8.467-25.688 50.52V53.023m25.688-14.557-14.985-8.563m-10.703 23.12-.815-.466m-29.154.894v81.344m0-81.344 14.984-8.991 14.17 8.097m-29.154 82.238.713-.428m14.271-8.563v-23.119m25.688-72.782-11.518 22.654" stroke="#171321" stroke-width="2"/><path d="M124.466 178.893c23.785 0 50.597-41.441 50.597-71.799 0-15.815-5.031-23.74-10.811-27.32-3.027-1.874-6.259-2.557-9.082-2.557-21.19 0-50.597 38.069-50.597 74.691 0 11.616 3.692 20.031 9.946 24.145 2.827 1.86 6.178 2.84 9.947 2.84Z" fill="#FFC2A8"/><path fill-rule="evenodd" clip-rule="evenodd" d="M155.17 77.217c2.824 0 6.056.683 9.082 2.557l-15.136-9.638c-3.026-1.873-6.258-2.556-9.082-2.556-14.617 0-33.145 18.116-43.232 41.376l15.119 9.675c10.083-23.278 28.624-41.414 43.249-41.414Zm-31.216 90.593c-1.981 0-3.821-.33-5.499-.969 2.479 1.892 5.505 2.897 8.959 2.897 10.94 0 22.66-10.699 30.862-24.51l-5.048.639c-8.085 12.547-19.021 21.943-29.274 21.943Z" fill="#FF9D73"/><path d="M157.757 86.827c4.274 3.252 7.792 9.746 7.792 21.774 0 11.908-4.987 25.884-12.321 37.266l5.048-.639c6.456-10.872 10.733-23.672 10.733-34.699 0-15.173-5.598-21.54-11.252-23.702ZM114.519 176.054c-6.254-4.114-9.946-12.53-9.946-24.146 0-11.345 2.822-22.829 7.348-33.277l-15.12-9.675c-4.535 10.458-7.364 21.956-7.364 33.315 0 11.736 3.77 20.206 10.142 24.272l14.94 9.511Z" fill="#FF7B42"/><path d="M152.655 85.891c-17.42 0-41.595 31.393-41.595 61.594 0 9.082 2.729 15.793 7.395 19.355 1.677.64 3.518.97 5.499.97 10.691 0 22.125-10.216 30.295-23.569 6.772-11.069 11.3-24.293 11.3-35.64 0-12.028-3.518-18.522-7.793-21.775a14.317 14.317 0 0 0-5.101-.935Z" fill="#fff"/><path d="M164.251 79.774c-3.026-1.874-6.258-2.557-9.081-2.557-14.63 0-33.176 18.146-43.257 41.433m52.338-38.876c5.781 3.58 10.812 11.505 10.812 27.32 0 30.358-26.812 71.799-50.597 71.799-3.77 0-7.12-.98-9.947-2.84m49.732-96.279-15.135-9.638c-3.027-1.873-6.259-2.556-9.082-2.556-14.543 0-32.957 17.932-43.078 41.021m17.563 67.452c-6.254-4.113-9.946-12.529-9.946-24.145 0-11.338 2.819-22.815 7.34-33.258m2.606 57.403-14.94-9.51c-6.373-4.066-10.142-12.536-10.142-24.272 0-11.488 2.893-23.117 7.519-33.67m60.8-21.774c4.275 3.252 7.793 9.746 7.793 21.774 0 11.347-4.528 24.571-11.3 35.64m3.507-57.414a14.319 14.319 0 0 0-5.101-.936c-17.42 0-41.595 31.393-41.595 61.594 0 9.083 2.729 15.793 7.395 19.356m39.301-80.014c5.655 2.162 11.252 8.528 11.252 23.702 0 11.32-4.506 24.508-11.252 35.561m-39.301 20.751c1.677.639 3.518.969 5.499.969 10.691 0 22.125-10.216 30.295-23.569m-35.794 22.6c2.479 1.892 5.505 2.897 8.958 2.897 10.712 0 22.171-10.257 30.343-23.648m-45.843-27.44-14.957-10.049m60.8 37.489-3.507-1.849" stroke="#171321" stroke-width="2"/><path d="M136.825 106.082v20.886l-10.894 26.443c-.533 1.42-.443 3.427.648 4.13l.035.022a.413.413 0 0 1-.035-.022l-3.166-1.982c-.991-.761-1.059-2.683-.543-4.057l10.894-26.442v-20.887c0-1.471.194-2.796.55-3.93l3.13 1.698c-.4 1.179-.619 2.577-.619 4.141Z" fill="#2B2838"/><path d="M140.905 98.08c.317-.095.664-.067.984.073l-3.03-1.894a1.432 1.432 0 0 0-1.015-.088c-1.615.484-2.86 1.94-3.53 4.072l3.13 1.698c.684-2.017 1.9-3.393 3.461-3.861Z" fill="#45424D"/><path d="M143.061 100.243v25.162l-11.641 28.538c-.622 1.601-1.983 3.854-3.92 3.854-.347 0-.641-.085-.886-.234-1.124-.683-1.222-2.717-.683-4.152l10.894-26.443v-20.886c0-4.238 1.606-7.261 4.08-8.002.318-.095.664-.067.984.073.638.28 1.172 1.005 1.172 2.09Z" fill="#74717A"/><path d="M126.614 157.563c-1.124-.683-1.222-2.717-.683-4.152l10.894-26.443v-20.886c0-1.6.229-3.028.647-4.224m-10.858 55.705c.245.149.539.234.886.234 1.937 0 3.298-2.253 3.92-3.854l11.641-28.538v-25.162c0-1.084-.534-1.81-1.172-2.09m-15.275 59.41-3.201-2.004c-.991-.761-1.059-2.683-.543-4.057l10.894-26.442v-20.887c0-1.471.194-2.796.55-3.93m7.575-2.09a1.425 1.425 0 0 0-.984-.073c-1.54.461-2.743 1.806-3.433 3.778m4.417-3.705-3.03-1.894a1.432 1.432 0 0 0-1.015-.088c-1.615.484-2.86 1.94-3.53 4.072m3.158 1.615-3.158-1.615" stroke="#171321" stroke-width="2"/><path d="M101.425 159.2c0 24.403-22.691 54.8-46.238 54.8-2.106 0-4.718-.46-7.278-1.924-5.247-3.001-10.276-10.219-10.276-26.332 0-8 1.196-15.282 3.23-21.835 8.852-28.52 33.58-43.241 44.721-43.241 3.188 0 5.861.833 8.05 2.141 5.336 3.188 7.791 9.2 7.791 12.843l-9.862 5.331-5.979 3.232c0-2.141-2.569-5.994-6.85-5.994-.879 0-1.798.119-2.745.35-6.069 1.481-13.26 7.566-18.048 16.42a45.63 45.63 0 0 0-.614 1.176c-2.853 5.677-4.709 12.402-4.709 19.73 0 2.974 0 7.159.911 10.943 1.188 4.93 3.922 9.179 10.22 9.179 13.272 0 23.12-17.125 23.12-28.257l-14.985 8.991v-12.844l29.541-17.125V159.2Z" fill="#fff"/><path d="M71.884 163.909v12.844l14.984-8.991c0 3.249-.838 7.008-2.356 10.703-3.735.735-12.975 1.899-20.051.674a34.74 34.74 0 0 0 3.318-4.801l-10.451-6.148v-12.023c.106-.212.214-.422.323-.63l14.233 8.372Z" fill="#10B1B1"/><path d="M78.734 138.221c4.281 0 6.85 3.853 6.85 5.994l5.98-3.232 9.861-5.331c0-3.643-2.455-9.655-7.791-12.843-2.19-1.308-4.862-2.141-8.05-2.141-9.914 0-30.588 11.657-41.259 34.323a68.796 68.796 0 0 0-3.462 8.918c-2.034 6.553-3.23 13.835-3.23 21.835 0 15.78 4.823 23.029 9.951 26.14l.325.192a13.365 13.365 0 0 1-.325-.192l-13.848-8.159c-5.383-2.866-10.659-10.038-10.659-26.544 0-8.144 1.24-15.545 3.341-22.19a68.765 68.765 0 0 1 3.185-8.207l14.722 8.207c10.671-22.666 31.345-34.323 41.259-34.323 3.188 0 5.86.833 8.05 2.141 5.336 3.188 7.791 9.2 7.791 12.843l-9.862 5.331-5.979 3.232-4.494-2.644-5.1-3c.946-.231 1.865-.35 2.744-.35Z" fill="#10B1B1"/><path d="m71.884 163.909 29.541-17.125-9.862-5.801-5.979 3.232-4.494-2.644-23.149 13.42c-.098.18-.195.362-.29.545l14.233 8.373ZM53.53 186.84c1.187 4.93 3.922 9.179 10.22 9.179 9.398 0 17.079-8.588 20.762-17.554-3.735.735-12.975 1.898-20.051.674-3.004 3.632-6.73 6.497-10.931 7.701ZM93.456 122.704l.178.104-.178-.104c-2.155-1.247-4.77-2.036-7.872-2.036-9.913 0-30.588 11.657-41.258 34.323l-14.723-8.207c10.62-22.9 31.46-34.679 41.425-34.679 3.229 0 5.93.855 8.134 2.192l14.294 8.407Z" fill="#C5F4EC"/><path d="M101.425 146.784v12.415c0 24.404-22.691 54.801-46.238 54.801-2.106 0-4.718-.46-7.278-1.925m53.516-65.291-29.541 17.125m29.541-17.125-9.862-5.801m-19.68 22.926v12.844m0-12.844-14.232-8.373m14.233 21.217 14.984-8.991c0 3.249-.838 7.008-2.356 10.703m-12.628-1.712-4.105-2.415m17.805-30.123c0-2.141-2.569-5.994-6.85-5.994-.879 0-1.798.119-2.745.35m9.595 5.644 5.98-3.232m-5.98 3.232-4.494-2.644m-13.311 32.767-10.451-6.148v-12.023m10.45 18.171a34.8 34.8 0 0 1-3.317 4.801m-16.552 32.936c-5.248-3.001-10.276-10.218-10.276-26.332 0-7.999 1.196-15.281 3.23-21.834a68.74 68.74 0 0 1 3.462-8.918m3.584 57.084-14.173-8.35c-5.383-2.866-10.659-10.038-10.659-26.544 0-8.144 1.24-15.545 3.341-22.19a68.765 68.765 0 0 1 3.185-8.207m46.386-8.213 5.1 3m-5.1-3c-6.069 1.481-13.261 7.565-18.048 16.42m-4.412 31.849c1.188 4.93 3.922 9.179 10.22 9.179 9.399 0 17.08-8.588 20.763-17.554m-30.983 8.375c-.91-3.784-.91-7.969-.91-10.944 0-7.327 1.855-14.052 4.709-19.729m-3.799 30.673c4.201-1.204 7.928-4.069 10.932-7.701m29.173-56.331c5.336 3.189 7.791 9.201 7.791 12.844l-9.862 5.331m2.07-18.175c-2.188-1.307-4.861-2.14-8.049-2.14-9.914 0-30.588 11.657-41.259 34.323m49.309-32.183-14.472-8.511c-2.204-1.337-4.906-2.192-8.134-2.192-9.966 0-30.804 11.779-41.425 34.679m51.487-5.213-23.15 13.42m0 0c-.097.18-.194.362-.29.545m0 0c-.108.209-.216.419-.322.631m-13.003-1.176-14.722-8.207m54.909 31.681c-3.735.735-12.975 1.898-20.051.674" stroke="#171321" stroke-width="2"/></svg>
