<svg xmlns="http://www.w3.org/2000/svg" width="16px" height="16px" fill="none">
    <path fill="url(#SVGID_1_)" d="M8,1C4.1,1,1,4.1,1,8s3.1,7,7,7s7-3.1,7-7S11.9,1,8,1L8,1z M11.3,8.2C9.8,7.7,7.9,6.1,5.8,7.6
		C4,8.9,4.8,11.1,6,11.8c0.9,0.6,2.3,0.7,3,0.1C9.7,11.4,10,10,9,9.5C8.6,9.4,7.9,9.3,7.5,9.8c-0.5,0.6-0.3,1.4,0.4,1.7
		c0,0-1.2-0.1-1.4-1.3C6.2,7.9,9,7.6,10.3,8.4c2.4,1.5,1.5,4.8-2,5.4c-1.8,0.3-4.8-0.3-5.9-2.7c-0.4-0.9-0.3-0.7-0.3-0.7
		c0.1,0.1,0.3,0.3,0.4,0.4c0.8,0.6,1.6,0.1,1.4-0.8C3.3,7.2,4.4,6.7,5.1,6.2s0.4-1.5-0.9-1.3c-1.9,0.3-2.4,3-2.4,3s-0.3-4.6,3.7-5
		c4.1-0.4,4.7,3.2,6.5,3.7c2.5,0.8,1.3-2.6,1.3-2.6s1.1,1.7,0.6,3.2C13.5,8.2,12.3,8.5,11.3,8.2z" />
    <defs>
        <linearGradient id="SVGID_1_" gradientUnits="userSpaceOnUse" x1="8" y1="-271.1102" x2="8" y2="-257.1102"
            gradientTransform="matrix(1 0 0 -1 0 -256.1102)">
            <stop offset="0" style="stop-color:#445470" />
            <stop offset="1" style="stop-color:#7A869A" />
        </linearGradient>
    </defs>
</svg>
