<svg xmlns="http://www.w3.org/2000/svg" width="24" height="24" viewBox="0 0 24 24">
  <g fill="none" fill-rule="evenodd">
    <rect width="24" height="24"/>
    <path fill="#249DF1" fill-rule="nonzero" d="M11.9885489,23.9508272 C18.5934378,23.9508272 23.9477581,18.5965069 23.9477581,11.991618 C23.9477581,5.38672916 18.5934378,0.0324088147 11.9885489,0.0324088147 C5.38366005,0.0324088147 0.0293396995,5.38672916 0.0293396995,11.991618 C0.0293396995,18.5965069 5.38366005,23.9508272 11.9885489,23.9508272 Z M5.81532825,19.2196948 C5.82284678,19.2001458 7.05665273,16.4257234 8.55711991,13.0543124 L11.2852416,6.92447399 L12.7232418,6.73569055 C13.5141416,6.6318599 14.1677133,6.5533787 14.1756233,6.56128868 C14.1835329,6.56919866 13.5518224,8.01671679 12.7718216,9.77799666 C11.9918208,11.5392757 11.3536388,12.9895288 11.3536388,13.0007812 C11.3536388,13.0407762 11.5749288,13.0202941 11.8367355,12.9560678 C13.6135697,12.520175 15.5605791,10.1139354 15.9522022,7.86990972 C16.1318456,6.8405405 15.8549313,6.17434057 15.1002447,5.82027366 C14.6916089,5.62855853 14.475715,5.5940983 13.7011052,5.59694825 C13.1317387,5.59904374 12.9119387,5.61695479 12.5804567,5.68827205 C10.4542702,6.14571406 8.76802902,7.64966104 8.10245333,9.68217175 C7.85995717,10.4226988 7.7529933,11.1703388 7.84332865,11.4933636 L7.87445493,11.6046659 L7.64096097,11.6040689 C7.15310949,11.6028188 6.61552792,11.4065389 6.38695577,11.1462094 C5.97700572,10.6793024 6.19002194,9.49250324 6.86803917,8.46590023 C7.19379169,7.97266978 7.84124839,7.29468341 8.39906889,6.8626774 C9.84922021,5.7396024 11.722445,4.96793469 13.4968977,4.76264694 C14.1013407,4.6927184 15.2419232,4.73336214 15.6640728,4.83987285 C16.8862217,5.14822718 17.6679186,5.81953723 17.9329066,6.78831426 C18.0221606,7.1146205 18.0519482,7.80682818 17.9938378,8.20424574 C17.8477022,9.20367426 17.2234947,10.4137338 16.3835191,11.3259342 C15.7006726,12.0674949 15.0038989,12.5848231 14.1058406,13.017025 C13.1949072,13.4554229 12.4483493,13.6553149 11.5688182,13.6963168 L11.0352365,13.7211911 L10.5265896,14.85862 C10.2468337,15.4842058 9.69326308,16.7245727 9.29643249,17.6149911 L8.57492278,19.2339334 L7.18829052,19.2445871 C6.40373373,19.2506156 5.80759416,19.2398075 5.81532825,19.2196968 L5.81532825,19.2196948 Z" opacity=".91" transform="translate(.039 .036)"/>
  </g>
</svg>
