<svg xmlns="http://www.w3.org/2000/svg" width="24" height="20" viewBox="0 0 24 20">
  <g fill="none" fill-rule="evenodd" transform="translate(0 -2)">
    <rect width="24" height="24"/>
    <g fill="#252728" fill-rule="nonzero" transform="translate(0 2)">
      <path d="M11.7122813.0644772002C2.93203032.0644772002.0360281387 7.54689501.0360281387 10.2826399L7.15414889 10.2826399C7.15414889 10.2826399 8.16273675 6.71780864 11.7122813 6.71780864 15.2618258 6.71780864 16.2707779 10.2826399 16.2707779 10.2826399L23.3475571 10.2826399C23.3475571 7.54653914 20.4924411.0644772002 11.7122813.0644772002M20.7386692 12.0634095L16.2707779 12.0634095C16.2707779 12.0634095 15.4897506 15.6283297 11.7122813 15.6283297 7.93481192 15.6283297 7.15414889 12.0634095 7.15414889 12.0634095L2.76375022 12.0634095C2.76375022 12.9781715 6.20984984 19.4444936 11.7557172 19.4444936 17.3014936 19.4444936 20.7386692 14.1253159 20.7386692 12.0634095"/>
      <ellipse cx="11.692" cy="11.251" rx="2.993" ry="2.924"/>
    </g>
  </g>
</svg>
