<svg width="24" height="24" viewBox="0 0 24 24" xmlns="http://www.w3.org/2000/svg"><title>Slice</title><g fill="none" fill-rule="evenodd"><path d="M11.155 23.978a17.262 17.262 0 0 1-1.081-.143c-.05-.015-.052-.42-.043-8.848.009-8.184.013-8.858.06-9.181.186-1.275.474-2.097 1.015-2.892.881-1.295 2.347-2.001 4.154-2.001 1.346 0 2.687.457 3.848 1.312.299.22.882.743.882.79 0 .043-1.877 2.37-1.911 2.37a1.51 1.51 0 0 1-.209-.12c-.575-.368-.977-.488-1.634-.49-.746-.001-1.293.271-1.538.766-.171.346-.212.575-.228 1.288l-.014.646.216.004c.12.002.918.005 1.775.007.857.002 1.575.015 1.595.027.029.019.037.435.037 1.92v1.897l-.092.018c-.05.01-.849.019-1.774.019H14.53l-.034.073c-.026.056-.035 1.549-.035 5.931 0 3.222-.008 5.984-.019 6.138l-.018.28-.224.032c-.413.06-.926.116-1.325.147a19.42 19.42 0 0 1-1.721.01z" fill="#353535"/><path d="M9.229 23.692a11.98 11.98 0 0 1-2.617-.96 12.025 12.025 0 0 1-5.33-5.287C.802 16.5.369 15.206.205 14.23c-.4-2.373-.188-4.554.648-6.659.232-.584.757-1.623 1.039-2.056A12.185 12.185 0 0 1 8.779.459a12.462 12.462 0 0 1 3.875-.424c.655.038 1.065.083 1.632.179.419.07 1.01.203.99.221a3.823 3.823 0 0 1-.393.055c-1.101.12-1.637.262-2.334.614-1.074.543-1.929 1.501-2.418 2.71-.249.615-.378 1.123-.475 1.868-.113.87-.117 1.189-.106 9.77.006 4.571.005 8.31 0 8.31a55.04 55.04 0 0 1-.32-.072l-.001.002z" fill="#FCE060"/><path d="M9.229 23.692c-.975-.222-2.21-.708-3.13-1.23a13.075 13.075 0 0 1-1.927-1.355 18.295 18.295 0 0 1-1.322-1.319c-.321-.371-.772-.986-1.045-1.424-.657-1.055-1.114-2.15-1.452-3.483l-.115-.45.166-.085c.283-.144.848-.39 1.416-.618 2.062-.825 4.465-1.379 7.027-1.619a31.1 31.1 0 0 0 .588-.059l.103-.013.012 5.865c.006 3.225.006 5.863 0 5.862-.007 0-.151-.033-.32-.072h-.001z" fill="#4CCEF4"/><path d="M9.038 23.62a12.11 12.11 0 0 1-7.334-5.457c-.333-.55-.926-1.8-.877-1.848.008-.008.265.018.57.059 1.645.218 4.21.455 5.803.537.602.031 2.047.088 2.227.088h.096v3.369c0 1.852-.01 3.368-.022 3.367-.012 0-.22-.052-.463-.115z" fill="#1C94DB"/><path d="M8.92 7.53a42.828 42.828 0 0 1-5.542-.896c-.646-.147-1.667-.4-1.816-.451-.05-.017.038-.186.326-.63C3.647 2.843 6.507.89 9.611.276c.909-.18 1.304-.216 2.382-.218 1.005-.002 1.32.018 2.058.131.432.066 1.092.201 1.126.23.014.012-.086.03-.22.042a9.976 9.976 0 0 0-1.362.22c-1.985.508-3.43 2.15-3.864 4.391-.114.59-.204 1.608-.207 2.353v.138l-.17-.004a7.708 7.708 0 0 1-.434-.03z" fill="#EB6F39"/></g></svg>