<svg xmlns="http://www.w3.org/2000/svg" width="24" height="23" viewBox="0 0 24 23">
  <g fill="none" fill-rule="evenodd">
    <rect width="24" height="24"/>
    <g transform="translate(0 .5)">
      <path fill="#C73A63" d="M11.195433,9.50649952 C10.2017358,11.176918 9.2496972,12.7945689 8.27784764,14.4 C8.02826615,14.8121427 7.90477146,15.1478187 8.10417743,15.6717917 C8.65462681,17.1191051 7.87810993,18.5275371 6.41857666,18.9098708 C5.04217551,19.2705419 3.7011379,18.3659016 3.42804243,16.892297 C3.18605207,15.587919 4.19826422,14.3092768 5.63632015,14.1054272 C5.75685246,14.0882083 5.87979171,14.0861716 6.08234523,14.0709894 C6.78702411,12.8893655 7.50892189,11.6790434 8.26988621,10.4028081 C6.8940405,9.03473867 6.0751244,7.43541755 6.25638573,5.45376278 C6.38450916,4.05292189 6.93532883,2.84241466 7.94217165,1.85019865 C9.87050338,-0.0498052073 12.8123433,-0.357523626 15.0828312,1.10089875 C17.2635217,2.50173963 18.2622179,5.23047252 17.4109007,7.56594793 C16.7689875,7.39190743 16.1226307,7.21638573 15.412027,7.02364513 C15.6793828,5.7251919 15.4816432,4.55912054 14.6058862,3.56023915 C14.0272941,2.90073674 13.2848447,2.55506268 12.4405632,2.42767985 C10.7481119,2.17198843 9.08639537,3.25937126 8.59334233,4.9205323 C8.03363549,6.80590935 8.88069431,8.34598264 11.195433,9.50649952 Z"/>
      <path fill="#4B4B4B" d="M14.0332189,7.53113983 C14.733269,8.76608679 15.4440579,10.0197338 16.1485516,11.2619016 C19.7093462,10.1602623 22.3940135,12.1313635 23.357161,14.2416972 C24.5204552,16.7908351 23.7252382,19.8100675 21.4404937,21.3827271 C19.0953905,22.9972305 16.1296663,22.7213578 14.051919,20.6474986 C14.5814465,20.2042507 15.1135661,19.7589662 15.6821601,19.2833173 C17.7343568,20.6125053 19.5291958,20.5499248 20.8617165,18.9759691 C21.9979788,17.6332652 21.9733539,15.631244 20.804135,14.3166827 C19.4547657,12.7997531 17.6473365,12.7534658 15.4625728,14.2096663 C14.5562662,12.6018284 13.6342218,11.0067657 12.7566133,9.38726326 C12.4607445,8.84144262 12.1339556,8.52483703 11.4670473,8.40930376 C10.353188,8.21619286 9.6340675,7.2597107 9.59092768,6.18806557 C9.54852845,5.12827001 10.1728525,4.17030665 11.1487753,3.79704532 C12.1154407,3.42730183 13.2498515,3.72576278 13.9000964,4.54764127 C14.4314754,5.2191784 14.6003317,5.97495853 14.320756,6.80313211 C14.2429932,7.0340135 14.1422719,7.25748891 14.0332189,7.53113983 Z"/>
      <path fill="#4A4A4A" d="M15.7064147,17.6269701 C14.2983529,17.6269701 12.885107,17.6269701 11.4198341,17.6269701 C11.0089875,19.3168293 10.1215661,20.6811958 8.59241659,21.5488062 C7.40375699,22.2231205 6.12252266,22.4517801 4.75889682,22.2316374 C2.24827001,21.8267155 0.19533269,19.5665959 0.0146268081,17.0215313 C-0.189963356,14.1385689 1.79169142,11.5759151 4.43303375,11.0002854 C4.61540598,11.6625651 4.7996297,12.3311398 4.98200193,12.9917531 C2.55858052,14.2281813 1.71985342,15.7860289 2.39805593,17.7339865 C2.99516297,19.4482854 4.69113211,20.387919 6.53262874,20.0244706 C8.4131919,19.6534311 9.36134233,18.0905844 9.24562392,15.5823645 C11.0284282,15.5823645 12.8127136,15.5638496 14.595703,15.5914368 C15.291865,15.6023607 15.8293539,15.5301524 16.3538824,14.9163819 C17.2174195,13.9063915 18.8067425,13.9974851 19.7367483,14.9513751 C20.6871205,15.9261871 20.6415738,17.4947734 19.6358419,18.4284822 C18.6654735,19.3294195 17.1324359,19.2812806 16.224648,18.3105419 C16.0380174,18.1103954 15.8910087,17.8728486 15.7064147,17.6269701 Z"/>
    </g>
  </g>
</svg>
