<svg xmlns="http://www.w3.org/2000/svg" width="24" height="20" viewBox="0 0 24 20">
  <g fill="none" fill-rule="evenodd" transform="translate(0 -2)">
    <rect width="24" height="24"/>
    <g fill-rule="nonzero" transform="translate(0 2)">
      <path fill="#1E363F" d="M0.0120336943,4.23586041 L0.0120336943,10.3880866 C0.0120336943,13.0415162 2.28640193,15.9356197 4.9368231,15.9356197 L6.11913357,15.9356197 C8.22503008,21.7298436 14.211793,19.211793 14.211793,19.211793 C9.42839952,19.076414 11.143201,15.4512635 13.1287605,15.9356197 L18.5890493,15.9356197 C21.2454874,15.9356197 23.1768953,13.0415162 23.1768953,10.3880866 L23.1768953,4.23586041 C23.1768953,1.57942238 21.2454874,0 18.5890493,0 L4.93983153,0 C2.28640193,0 0.0120336943,1.57942238 0.0120336943,4.23586041 Z"/>
      <circle cx="6.336" cy="8.129" r="1.591" fill="#34EA63"/>
      <circle cx="11.588" cy="8.129" r="1.591" fill="#FFA33E"/>
      <circle cx="16.841" cy="8.129" r="1.591" fill="#EF3F65"/>
    </g>
  </g>
</svg>
