<svg xmlns="http://www.w3.org/2000/svg" width="24" height="24" viewBox="0 0 24 24">
  <g fill="none" fill-rule="evenodd">
    <rect width="24" height="24"/>
    <g fill="#222">
      <path d="M19.0379899,2.2887426 L19.1642673,4.83385412 C21.2276267,7.11341799 22.0420799,10.3417417 21.0149258,13.3759048 C19.4816399,17.9051055 14.4257234,20.2859833 9.72236199,18.6937192 C5.01885457,17.1016012 2.44892551,12.1391154 3.98221141,7.60991474 C5.01272318,4.56567873 7.63462309,2.49195444 10.6712679,1.9429029 L12.3119991,0.00436120787 C7.19330887,-0.134179049 2.36410792,3.04304977 0.63622333,8.14714144 C-1.48669808,14.4183873 1.87607834,21.2232103 8.14732423,23.3462777 C14.4185701,25.4691991 21.2235391,22.1062767 23.3466065,15.8350308 C25.0715713,10.7392603 23.1744895,5.29093478 19.0379899,2.2887426 Z"/>
      <path d="M16.0982611,9.79884004 L16.0113997,6.240735 L15.9417646,4.19328811 L15.8946113,2.41956406 C15.8946113,2.41956406 15.9043923,1.56423491 15.8746112,1.36321285 C15.8683339,1.32087705 15.8550492,1.28657046 15.8391368,1.25649744 L15.8331514,1.24394269 L15.82629,1.23299377 C15.7935893,1.17649738 15.7419104,1.13065792 15.675195,1.10803017 C15.6070198,1.08496446 15.5363628,1.09065789 15.4750489,1.11708127 L15.4712533,1.11854112 L15.4500854,1.12934405 C15.4210342,1.14350465 15.3913992,1.16189882 15.362494,1.18992804 C15.2166545,1.33138801 14.7049753,2.01679002 14.7049753,2.01679002 L13.5899379,3.39722908 L12.2909587,4.98131794 L10.060592,7.7548968 C10.060592,7.7548968 9.03708752,9.03227008 9.26321909,10.6046801 C9.48949664,12.1769441 10.6584027,12.9429301 11.5652647,13.2499377 C12.4719808,13.5569452 13.8658505,13.6585512 15.0007419,12.5468714 C16.1354874,11.4351917 16.0982611,9.79884004 16.0982611,9.79884004 Z"/>
    </g>
  </g>
</svg>
