<svg xmlns="http://www.w3.org/2000/svg" width="24" height="24" viewBox="0 0 24 24">
  <defs>
    <linearGradient id="logo-jira-software-a" x1="91.867%" x2="28.264%" y1="40.328%" y2="81.66%">
      <stop offset="18%" stop-color="#0052CC"/>
      <stop offset="100%" stop-color="#2684FF"/>
    </linearGradient>
    <linearGradient id="logo-jira-software-b" x1="3878%" x2="5439%" y1="2561.069%" y2="1905.368%">
      <stop offset="18%" stop-color="#0052CC"/>
      <stop offset="100%" stop-color="#2684FF"/>
    </linearGradient>
  </defs>
  <g fill="none" fill-rule="evenodd">
    <rect width="24" height="24"/>
    <g fill-rule="nonzero" transform="translate(.316)">
      <path fill="#2684FF" d="M22.8631579,11.2926316 L12.5684211,0.997894737 L11.5705263,0 L11.5705263,0 L3.82105263,7.74947368 L3.82105263,7.74947368 L0.277894737,11.2926316 C-0.0915200565,11.6625064 -0.0915200565,12.2617042 0.277894737,12.6315789 L7.35789474,19.7115789 L11.5705263,23.9242105 L19.32,16.1747368 L19.44,16.0547368 L22.8631579,12.6315789 C23.2325727,12.2617042 23.2325727,11.6625064 22.8631579,11.2926316 Z M11.5705263,15.4989474 L8.03368421,11.9621053 L11.5705263,8.42526316 L15.1073684,11.9621053 L11.5705263,15.4989474 Z"/>
      <path fill="url(#logo-jira-software-a)" d="M11.5705263,8.42526316 C9.25486682,6.10933009 9.24358112,2.35824608 11.5452632,0.0284210526 L3.80526316,7.76526316 L8.01789474,11.9778947 L11.5705263,8.42526316 Z"/>
      <path fill="url(#logo-jira-software-b)" d="M15.1168421,11.9526316 L11.5705263,15.4989474 C12.6882199,16.6159762 13.3161895,18.1313915 13.3161895,19.7115789 C13.3161895,21.2917664 12.6882199,22.8071817 11.5705263,23.9242105 L11.5705263,23.9242105 L19.3294737,16.1652632 L15.1168421,11.9526316 Z"/>
    </g>
  </g>
</svg>
