<svg xmlns="http://www.w3.org/2000/svg" width="24" height="24" viewBox="0 0 24 24">
  <g fill="none" fill-rule="evenodd">
    <rect width="24" height="24"/>
    <g fill-rule="nonzero" transform="translate(.5)">
      <path fill="#70CADB" d="M2.02167756,12.565293 C1.16708831,12.5718261 0.443160681,12.0625568 0.176237645,11.2676986 C0.166335466,11.2376797 0.157103899,11.2074437 0.148549824,11.1770132 C-0.142327842,10.1590969 0.421694842,9.0942047 1.4326114,8.75324008 L17.6470969,3.32098299 C17.8396222,3.26528631 18.0388616,3.23618804 18.2392741,3.23449743 C19.1165736,3.22765325 19.8604116,3.74812206 20.1338677,4.55977964 L20.1581334,4.63817661 C20.461455,5.69840238 19.7078174,6.64476587 18.8048523,6.9480875 C18.8042301,6.94855415 18.6399698,7.00408534 2.68027437,12.4531418 C2.46814014,12.5254573 2.24579042,12.5633208 2.02167756,12.565293 Z"/>
      <path fill="#E01765" d="M4.72435107,20.5395409 C3.86307318,20.5457629 3.13665676,20.0436489 2.87284472,19.2601458 C2.8628306,19.2303408 2.85349521,19.200312 2.8448458,19.1700826 C2.54992385,18.1400335 3.11332433,17.0639417 4.12766298,16.7225104 L20.3427707,11.2404775 C20.552296,11.1704802 20.7686654,11.1347038 20.9862792,11.1326816 C21.8498904,11.1261485 22.6086611,11.6537726 22.8763619,12.446142 L22.9012498,12.5285833 C23.0578882,13.0762733 22.9653362,13.6917829 22.653926,14.1775641 C22.4218461,14.5387502 21.6898299,14.8566935 21.6898299,14.8566935 L5.41312449,20.422101 C5.19113498,20.4972523 4.95869879,20.536989 4.72435107,20.539852 L4.72435107,20.5395409 Z"/>
      <path fill="#E8A723" d="M18.2223192,20.5742285 C17.3601015,20.5825084 16.5905703,20.0347629 16.3160594,19.2173697 L10.9044904,3.14287875 L10.8774248,3.05266001 C10.5842139,2.02758844 11.148081,0.958340805 12.1586865,0.617687281 C12.3609009,0.549712125 12.5699595,0.514246827 12.780418,0.512380232 C13.0930726,0.510046989 13.3956165,0.580510937 13.6805833,0.721283284 C14.1546901,0.955743888 14.5157325,1.36957952 14.6837224,1.87110559 L20.0948247,17.9441966 L20.1105352,17.995839 C20.4144791,19.0601091 19.8518563,20.1299789 18.8412509,20.4706325 C18.6416285,20.5373236 18.4327782,20.5722805 18.2223192,20.5742285 L18.2223192,20.5742285 Z"/>
      <path fill="#3EB890" d="M10.1783851,23.281724 C9.3156701,23.289942 8.54577514,22.7417214 8.27134756,21.9237764 L2.8611785,5.84990764 C2.69187411,5.34907626 2.72875683,4.80146712 2.96369174,4.32786219 C3.19862663,3.85425724 3.61231327,3.49356421 4.11350797,3.32533837 C4.3134264,3.25850789 4.52258958,3.22344615 4.73337294,3.22143127 C5.5957356,3.21291767 6.3654802,3.76072564 6.63994383,4.57829004 L12.0502684,20.652781 C12.2196539,21.1538545 12.1826501,21.7017398 11.9474258,22.1754861 C11.7122016,22.6492325 11.2981003,23.0098816 10.796539,23.1778169 C10.5970091,23.2446828 10.3881904,23.279696 10.1777629,23.2815685 L10.1783851,23.2815685 L10.1783851,23.281724 Z"/>
      <polygon fill="#CC2027" points="15.554 16.954 19.328 15.664 18.094 12.001 14.317 13.278"/>
      <polygon fill="#361238" points="7.523 19.7 11.296 18.41 10.053 14.719 6.276 15.996"/>
      <polygon fill="#65863A" points="12.868 8.975 16.642 7.687 15.423 4.066 11.642 5.333"/>
      <polygon fill="#1A937D" points="4.836 11.718 8.609 10.429 7.375 6.763 3.595 8.029"/>
    </g>
  </g>
</svg>
