<svg xmlns="http://www.w3.org/2000/svg" width="24" height="16" viewBox="0 0 24 16">
  <g fill="none" fill-rule="evenodd" transform="translate(0 -4)">
    <rect width="24" height="24"/>
    <path fill="#000" d="M19.7797446,18.1975856 L15.7542592,17.1588848 L15.7542592,17.502041 C15.7542592,18.6066105 14.8588287,19.502041 13.7542592,19.502041 L7.87352233,19.502041 L7.87352233,19.502041 C6.76895283,19.502041 5.87352233,18.6066105 5.87352233,17.502041 L5.87352233,14.6093465 L2.21399016,13.665073 L2.21399016,15.1106023 L0.0182708576,15.1106023 L0.0182708576,13.0985089 L3.79196488e-16,13.0937945 L0.0182708576,10.7549014 L0.0182708576,8.52344444 L2.21399016,8.52344444 L2.21399016,10.1820282 L19.7797446,5.5990429 L19.7797446,18.1975856 Z M20.8776042,18.4808676 L24,19.2865431 L24,4.49795905 L20.8776042,5.31260632 L20.8776042,18.4808676 Z M14.4246411,16.8158018 L7.30999592,14.9800015 L7.30999592,18.1306098 L14.4246411,18.1306098 L14.4246411,16.8158018 Z M8.79931652,14.3786959 L8.79931652,9.47960443 L7.92338748,9.47960443 L7.92338748,14.3786959 L8.79931652,14.3786959 Z M10.8838918,12.541961 L11.8548829,12.541961 L12.8156888,14.3786959 L13.8172356,14.3786959 L12.7477873,12.406158 C13.33174,12.1956635 13.6712474,11.6558467 13.6712474,11.0107827 C13.6712474,10.0703473 13.0261834,9.47960443 11.997476,9.47960443 L10.0079628,9.47960443 L10.0079628,14.3786959 L10.8838918,14.3786959 L10.8838918,12.541961 Z M16.7743449,14.5009186 C17.9049044,14.5009186 18.7333024,13.8252989 18.8487349,12.8237521 L17.9863862,12.8237521 C17.8675586,13.3737541 17.3956434,13.7200516 16.7743449,13.7200516 C15.9391567,13.7200516 15.4197104,13.0342467 15.4197104,11.9274526 C15.4197104,10.8240537 15.9391567,10.1382487 16.7709498,10.1382487 C17.3888532,10.1382487 17.8607685,10.518497 17.9829911,11.1058448 L18.8453399,11.1058448 C18.7434877,10.0839276 17.884534,9.35738177 16.7709498,9.35738177 C15.3823646,9.35738177 14.5234109,10.3385581 14.5234109,11.9308477 C14.5234109,13.5163472 15.3857597,14.5009186 16.7743449,14.5009186 Z M10.8838918,10.2061502 L11.8752534,10.2061502 C12.4320455,10.2061502 12.7715529,10.518497 12.7715529,11.0277581 C12.7715529,11.5472044 12.4524159,11.8459709 11.8956238,11.8459709 L10.8838918,11.8459709 L10.8838918,10.2061502 Z"/>
  </g>
</svg>
