<svg xmlns="http://www.w3.org/2000/svg" width="24" height="24" viewBox="0 0 24 24">
  <g fill="none" fill-rule="evenodd">
    <rect width="24" height="24"/>
    <g fill="#555AAC" fill-rule="nonzero">
      <path d="M0.224,2.65878261 L0.224,21.458087 L14.2928696,23.8566957 L14.2928696,0.260173913 L0.224,2.65878261 Z M10.3582609,9.35791304 L7.78156522,9.42469565 L7.78156522,17.2034783 L5.81704348,17.1227826 L5.81704348,9.47478261 L3.44626087,9.53878261 L3.44626087,7.85530435 L10.3582609,7.57008696 L10.3582609,9.35791304 L10.3582609,9.35791304 Z"/>
      <circle cx="21.728" cy="8.74" r="2.023"/>
      <path d="M15.0970435,10.6351304 L15.0970435,19.2695652 C15.4963478,19.442087 15.9777391,19.5408696 16.4911304,19.5408696 C17.9116522,19.5408696 19.0678261,18.7770435 19.0678261,17.8351304 L19.0678261,10.6337391 L15.0970435,10.6337391 L15.0970435,10.6351304 Z M16.6344348,9.58330435 C17.7516522,9.58330435 18.6587826,8.67617391 18.6587826,7.55895652 C18.6587826,6.44173913 17.7516522,5.5346087 16.6344348,5.5346087 C16.018087,5.5346087 15.4657391,5.81147826 15.0970435,6.24695652 L15.0970435,8.87095652 C15.4657391,9.30643478 16.018087,9.58330435 16.6344348,9.58330435 L16.6344348,9.58330435 Z M19.7412174,11.6813913 L19.7412174,17.7572174 L21.138087,17.7572174 C22.5586087,17.7572174 23.7147826,16.9933913 23.7147826,16.050087 L23.7147826,11.68 L19.7412174,11.68 L19.7412174,11.6813913 Z"/>
    </g>
  </g>
</svg>
