<svg xmlns="http://www.w3.org/2000/svg" width="18" height="24" viewBox="0 0 18 24">
  <g fill="none" fill-rule="evenodd" transform="translate(-3)">
    <rect width="24" height="24"/>
    <g fill-rule="nonzero" transform="translate(3)">
      <path fill="#D33833" d="M17.0882692,11.5707692 C17.0882692,16.3235385 13.3214423,20.1764615 8.67480769,20.1764615 C4.02825,20.1764615 0.261418269,16.3235385 0.261418269,11.5707692 C0.261418269,6.81788462 4.02825,2.96490385 8.67480769,2.96490385 C13.3214423,2.96490385 17.0882692,6.81788462 17.0882692,11.5707692 Z"/>
      <path fill="#EF3D3A" d="M0.604267308,13.7021154 L0.347806731,12.8047115 L0.155499038,11.1380769 L0.796575,8.63807692 L1.91834615,6.49057692 L3.20042308,5.01625 L7.68757692,3.50980769 L8.26446154,4.47134615 C-0.00480769231,4.72778846 0.604267308,13.7021154 0.604267308,13.7021154 Z"/>
      <path fill="#231F20" d="M2.91233654,5.70009615 C1.43618269,7.21048077 0.522724038,9.29586538 0.522724038,11.6028846 C0.522724038,13.9094231 1.43618269,15.9950769 2.91233654,17.5051827 C4.38920192,19.0152885 6.42453846,19.9471154 8.67469231,19.9471154 C10.9249038,19.9471154 12.9603846,19.0152885 14.4371154,17.5051827 C15.9131731,15.9950769 16.8268269,13.9094231 16.8268269,11.6028846 C16.8268269,9.29586538 15.9131731,7.21048077 14.4371154,5.70009615 C12.9603846,4.19028846 10.9249038,3.25846154 8.67469231,3.25826923 C6.42453846,3.25846154 4.38920192,4.19028846 2.91233654,5.70009615 Z M2.53868269,17.8704904 C0.969875,16.2660769 2.99532121e-16,14.04875 0,11.6028846 C-2.99579223e-16,9.15663462 0.969875,6.93951923 2.53868269,5.335 C4.107125,3.73019231 6.27825,2.73548077 8.67469231,2.73576923 C11.0711538,2.73548077 13.2425,3.73019231 14.8106731,5.335 C16.3796154,6.93951923 17.3496154,9.15682692 17.3494231,11.6028846 C17.3496154,14.04875 16.3796154,16.2660769 14.8106731,17.8704904 C13.2425,19.4752115 11.0711538,20.4697981 8.67469231,20.4697981 C6.27825,20.4697981 4.107125,19.4752115 2.53868269,17.8704904 Z"/>
      <polygon fill="#F0D6B7" points="12.216 11.618 10.934 11.811 9.204 12.003 8.082 12.035 6.992 12.003 6.159 11.747 5.421 10.945 4.845 9.311 4.716 8.958 3.947 8.702 3.498 7.965 3.178 6.907 3.53 5.977 4.364 5.689 5.037 6.01 5.357 6.715 5.742 6.65 5.87 6.49 5.742 5.753 5.71 4.824 5.902 3.542 5.895 2.809 6.479 1.875 7.505 1.138 9.3 .368 11.287 .657 13.018 1.907 13.819 3.189 14.332 4.118 14.46 6.426 14.075 8.413 13.37 10.176 12.697 11.106"/>
      <polygon fill="#335061" points="11.127 17.163 6.543 17.356 6.543 18.125 6.928 20.817 6.736 21.042 3.53 19.952 3.306 19.567 2.986 15.945 2.248 13.766 2.088 13.253 4.652 11.49 5.454 11.17 6.159 12.035 6.768 12.58 7.473 12.804 7.793 12.9 8.178 14.567 8.466 14.92 9.204 14.663 8.691 15.657 11.479 16.971"/>
      <polygon fill="#6D6B6D" points="3.53 5.977 3.402 4.888 3.595 3.862 4.236 2.997 4.652 2.099 5.389 1.522 7.152 .657 7.505 1.138 6.255 2.131 5.678 2.804 5.838 3.766 5.646 5.529 5.838 6.266 5.742 6.65 5.357 6.715 5.037 6.01 4.364 5.689"/>
      <path fill="#DCD9D8" d="M4.8445 2.96461538L4.10738462 3.02875 4.45988462 2.38769231 5.26123077 1.58644231 7.3445.785096154C7.3445.785096154 9.17142308.624903846 7.24834615 1.20182692 5.32526923 1.77875 4.8445 2.96461538 4.8445 2.96461538zM3.88296154 5.75307692L3.53046154 5.97740385 3.40219231 4.88769231 3.91507692 3.22105769 5.67784615 2.80432692 5.774 3.18894231C3.20988462 3.50942308 3.88296154 5.75307692 3.88296154 5.75307692z"/>
      <path fill="#F7E4CD" d="M4.90861538 8.73384615L5.32827885 8.32721154C5.32827885 8.32721154 5.51769231 8.34923077 5.54969231 8.57355769 5.58169231 8.79798077 5.67784615 10.8172115 7.05603846 11.9070192 7.18175 12.0064423 6.03046154 11.7466346 6.03046154 11.7466346L5.00476923 10.1441346 4.90861538 8.73384615zM10.80625 8.12490385C10.80625 8.12490385 10.8809615 7.15336538 11.1425962 7.22807692 11.4042308 7.30278846 11.4042308 7.56442308 11.4042308 7.56442308 11.4042308 7.56442308 10.7688462 7.97548077 10.80625 8.12490385zM13.4663462 4.56721154L13.5625 5.20826923C13.4663462 5.24028846 12.8407692 5.60961538 12.8894231 5.14413462 12.9380769 4.67875 13.4663462 4.56721154 13.4663462 4.56721154zM9.58815385 4.59932692L9.90865385 5.36855769C9.68432692 5.56086538 8.88296154 5.59288462 8.88296154 5.14413462 8.88296154 4.69548077 9.58815385 4.59932692 9.58815385 4.59932692zM5.22911538 6.68259615C5.22911538 6.68259615 4.01111538 5.94538462 3.88296154 6.65057692 3.75476923 7.35567308 3.46623077 7.86855769 4.07526923 8.60567308L3.65861538 8.4775 3.274 7.48394231 3.14584615 6.52240385 3.88296154 5.75307692 4.71630769 5.81721154 5.19707692 6.20182692 5.22911538 6.68259615zM5.80603846 4.66336538C5.80603846 4.66336538 5.82857692 4.66278846 5.774 3.18894231 5.742 2.32365385 7.15219231.9775 9.07526923.240288462 10.9983654-.496826923 13.0175962 1.90692308 13.0175962 1.90692308 12.5688462 1.39413462 11.3767308.849423077 9.10738462 1.29798077 6.35092308 1.84288462 5.80603846 4.66336538 5.80603846 4.66336538zM13.2420192 2.22740385L13.5304808 2.90048077C13.0818269 2.45173077 12.3445192 3.28509615 12.3445192 3.28509615 12.2803846 3.15692308 12.2804808 3.02875 12.2804808 3.02875 12.3125962 2.19538462 13.2420192 2.22740385 13.2420192 2.22740385z"/>
      <path fill="#F7E4CD" d="M9.17199038,3.37192308 C8.948125,3.07403846 8.37015385,3.25307692 8.01757692,3.41336538 C7.66496154,3.57355769 7.69707692,4.15048077 7.59953846,4.32769231 C7.50195192,4.50490385 7.53680769,4.24673077 7.40861538,4.11846154 C7.28046154,3.99028846 7.21630769,3.31721154 7.92142308,2.83644231 C9.01198077,2.09278846 9.17199038,3.37192308 9.17199038,3.37192308 Z"/>
      <path fill="#49728B" d="M6.15861538 12.0350962L3.14584615 13.38125C3.14584615 13.38125 4.39584615 18.3492308 3.75476923 19.8876923L3.30603846 19.7275 3.274 17.8364231 2.44076923 14.2467308 2.08815385 13.2530769 5.22911538 11.1377885 6.15861538 12.0350962zM6.46841346 14.7829038L6.89584615 15.3044231 6.89584615 17.2275 6.38296154 17.2275C6.38296154 17.2275 6.31892308 15.8813462 6.31892308 15.7210385 6.31892308 15.5607692 6.38296154 14.9838462 6.38296154 14.9838462L6.46841346 14.7829038z"/>
      <polygon fill="#49728B" points="6.479 17.516 6.479 18.029 5.454 17.868 5.037 17.58"/>
      <polygon fill="#335061" points="11.415 17.195 12.601 17.163 12.889 20.112 11.671 20.272"/>
      <path fill="#335061" d="M11.7355769,17.1953846 L12.4086538,14.4390385 L12.4086538,11.4582692 L13.1778846,10.6890385 L13.4663462,10.9454808 L14.9086538,12.4518269 C14.9086538,12.4518269 14.2675962,15.0479615 14.2675962,15.1441154 C14.2675962,15.2402692 13.5304808,17.0992308 13.5304808,17.0992308 L11.7355769,17.1953846 Z"/>
      <path fill="#49728B" d="M12.5368269,16.9710385 L12.6971154,17.7723077 C12.6971154,17.7723077 11.9919231,18.2851923 11.5752885,18.0928846 L11.4150962,17.1953846 L12.5368269,16.9710385 Z"/>
      <polygon fill="#49728B" points="12.569 11.362 13.178 10.689 14.877 12.26 14.813 13.029"/>
      <polygon fill="#FFF" points="7.591 23.51 6.928 20.817 6.598 18.83 6.543 17.356 9.547 17.196 11.415 17.195 11.245 20.561 11.534 23.157 11.502 23.638 9.066 23.83"/>
      <path fill="#DCD9D8" d="M10.9983654,17.1633462 L11.4791346,16.9709615 L11.5752885,18.0928846 L11.9599038,23.3492337 L11.6394231,23.5415413 L8.94707692,23.6376952 C10.3574038,23.4775019 11.3189423,22.8684615 11.3189423,22.8684615 C10.8381731,20.4967308 10.9983654,17.1633462 10.9983654,17.1633462 Z"/>
      <polygon fill="#FFF" points="12.944 19.856 12.601 17.163 13.008 17.003 13.53 17.099 14.515 16.619 15.54 16.298 16.277 16.394 16.918 18.285 16.566 19.375 14.194 19.503"/>
      <path fill="#DCD9D8" d="M12.9214423,19.2146154 C12.9214423,19.2146154 13.7547115,18.8300769 13.8829808,18.8621154 L13.5304808,17.0992308 L13.9471154,16.9390385 C13.9471154,16.9390385 14.2355769,18.6056538 14.2355769,18.7979615 C14.2355769,18.7979615 16.0303846,18.8941154 16.1906731,18.8941154 C16.1906731,18.8941154 16.5752885,18.1569231 16.4791346,17.3876923 L16.8317308,18.4133462 L16.86375,18.9902692 L16.3509615,19.7595 L15.7740385,19.8876923 L14.8125,19.8556538 L14.4920192,19.4390385 L13.3701923,19.5992308 L13.0175962,19.7275 L12.9214423,19.2146154 Z"/>
      <path fill="#FFF" d="M11.6619231,16.9393365 L10.9568269,15.1444231 L10.2196154,14.0867308 C10.2196154,14.0867308 10.3798077,13.6379808 10.6042308,13.6379808 L11.3414423,13.6379808 L12.0465385,13.8944231 L11.9825,15.0803077 L11.6619231,16.9393365 Z"/>
      <path fill="#DCD9D8" d="M11.7997115,16.33 L11.6714423,16.6505769 L11.4150962,16.6184615 L10.1650962,13.6697115 L10.9022115,13.5735577 L11.9920192,13.7979808 L11.9920192,14.4069231 C11.9920192,14.4069231 11.51125,14.1505769 11.2868269,14.0544231 C11.0624038,13.9582692 10.9022115,14.3428846 10.9022115,14.3428846 C10.9022115,14.5993077 11.7997115,16.33 11.7997115,16.33 Z"/>
      <polygon fill="#FFF" points="7.88 12.1 7.848 13.061 6.566 12.484 6.159 12.035 6.159 11.747 6.992 12.003"/>
      <path fill="#DCD9D8" d="M6.44719231,12.1956731 C6.44719231,12.1956731 7.44084615,12.6124038 7.76134615,12.51625 L7.79323077,12.9004808 L6.89596154,12.7085577 L6.35103846,12.3239423 L6.44719231,12.1956731 Z"/>
      <path fill="#D33833" d="M12.9405769 13.7471154C12.3967308 13.7311538 11.9053846 13.6665385 11.4751923 13.5451923 11.5044231 13.3688462 11.4497115 13.1957692 11.4936538 13.06875 11.6135577 12.9824038 11.8145192 12.98375 11.9957692 12.9634615 11.8390385 12.8864423 11.6188462 12.8559615 11.4379808 12.9004808 11.43375 12.7780769 11.3788462 12.7022115 11.3455769 12.6064423 11.6513462 12.4973077 12.3731731 11.7818269 12.7792308 12.01875 12.9726923 12.1314423 13.0549038 12.7750962 13.0699038 13.0880769 13.0824038 13.3476923 13.0463462 13.6096154 12.9405769 13.7471154zM10.3399038 12.8580769C10.3384615 12.8992308 10.3367308 12.9406731 10.3350962 12.9822115 10.1652885 13.09375 9.89115385 13.0924038 9.70480769 13.1861538 9.97951923 13.1981731 10.1957692 13.2643269 10.3828846 13.3575962 10.37875 13.46125 10.3748077 13.5648077 10.3707692 13.6684615 10.0595192 13.8815385 9.77519231 14.1988462 9.40873077 14.3986635 9.23546154 14.4931635 8.62736538 14.7363269 8.44301923 14.6933558 8.33872115 14.6691346 8.32932692 14.5397019 8.28763462 14.4177019 8.19880769 14.1564423 7.99428846 13.7405769 7.97645192 13.3473077 7.95373077 12.8505769 7.90358654 12.0180769 8.43889423 12.1203846 8.87075962 12.2027885 9.37304808 12.4017308 9.70740385 12.5844231 9.91173077 12.6961538 10.0299038 12.8342308 10.3399038 12.8580769z"/>
      <path fill="#EF3D3A" d="M11.6939423,13.6700962 L11.2451923,13.5098077 L11.2451923,12.8047115 L11.3093269,12.4521154 L12.5273077,11.7470192 L12.9119231,11.8751923 L13.1042308,12.4521154 C13.0401923,12.2918269 12.5913462,12.3559615 12.4311538,12.3879808 C12.2709615,12.42 12.1105769,12.4521154 12.0785577,12.6444231 C12.0465385,12.8367308 12.1426923,12.9328846 12.0465385,13.0931731 C11.9503846,13.2534615 11.7900962,13.1572115 11.6298077,13.2533654 C11.4695192,13.3495192 11.6939423,13.6700962 11.6939423,13.6700962 Z"/>
      <path fill="#D33833" d="M10.6490385,13.4507692 C10.6015385,13.1801923 10.5466346,13.1029808 10.5678846,12.8669231 C11.2895192,12.3857692 11.425,13.6933654 10.6490385,13.4507692 Z"/>
      <path fill="#EF3D3A" d="M8.32857692,14.7277981 L8.44301923,14.6933558 C8.13600962,14.0827885 7.22107692,12.6203846 8.08169231,12.0350962 C8.42134615,11.8041346 9.15764423,12.0450962 9.47622115,12.2103846 C9.72663462,12.3401923 9.97701923,12.47 10.2274038,12.5998077 C10.3696154,12.6735577 10.7663462,12.59625 10.8605769,12.7085577 C11.0289423,13.2136538 10.2927885,13.5788462 9.87605769,13.3516346 C9.38240385,13.0824038 9.84951923,13.1617308 9.67471154,12.8047115 C9.63826923,12.7301923 9.12879808,12.6124038 9.03000962,12.6124038 C8.38322115,12.6124038 8.13615385,12.4822115 8.20399038,13.2283654 C8.24932692,13.7280769 8.29007692,14.2275962 8.32857692,14.7277981 Z"/>
      <path fill="#231F20" d="M9.17199038 3.37192308C8.29841346 3.16846154 7.86433654 3.7375 7.59953846 4.32769231 7.36309615 4.27038462 7.45718269 3.94884615 7.51690385 3.785 7.67326923 3.355 8.30341346 2.78259615 8.81828846 2.86019231 9.03985577 2.89355769 9.33969231 3.09615385 9.17199038 3.37192308zM13.4283654 4.36673077C13.4421154 4.36730769 13.4560577 4.36778846 13.4698077 4.36836538 13.6672115 4.77846154 13.8380769 5.21288462 14.0871154 5.57490385 13.9202885 5.96346154 12.8238462 6.30730769 12.8407692 5.60961538 13.0778846 5.50596154 13.4872115 5.58846154 13.6974038 5.45605769 13.5758654 5.1225 13.4004808 4.83855769 13.4283654 4.36673077zM9.61923077 4.37740385C9.80653846 4.72076923 9.8675 5.08153846 10.13375 5.34105769 10.2536538 5.45788462 10.4868269 5.60028846 10.37125 5.92519231 10.3442308 6.00182692 10.1468269 6.17269231 10.0328846 6.20625 9.61663462 6.32913462 8.64671154 6.23163462 8.97517308 5.71269231 9.31941346 5.72875 9.78211538 5.93625 10.0394231 5.68634615 9.84182692 5.37048077 9.48955769 4.74557692 9.61923077 4.37740385zM13.2721154 7.86721154C12.6453846 8.26980769 11.9465385 8.70759615 10.9196154 8.60605769 10.7001923 8.41528846 10.6165385 7.99076923 10.8297115 7.71038462 10.9406731 7.90115385 10.8709615 8.25201923 11.1801923 8.30480769 11.7628846 8.40451923 12.4410577 7.94836538 12.8601923 7.78894231 13.1200962 7.35076923 12.8377885 7.18961538 12.6036538 6.90759615 12.1243269 6.32980769 11.4813462 5.61365385 11.5047115 4.74865385 11.6984615 4.60817308 11.7151923 4.96307692 11.7429808 5.02769231 11.9932692 5.61346154 12.6231731 6.36259615 13.0828846 6.86394231 13.1957692 6.98740385 13.3816346 7.10586538 13.4023077 7.1875 13.4619231 7.42490385 13.2472115 7.70932692 13.2721154 7.86721154zM5.00976923 7.44336538C5.22649038 6.40038462 3.92296154 5.87298077 3.78755769 6.85663462 3.89291346 6.7875 3.97773077 6.59134615 4.16767308 6.68461538 4.00100962 7.01028846 4.04090385 7.64442308 4.26776923 7.85038462 4.26645192 7.46403846 4.20635577 6.80336538 4.53594231 6.82336538 4.76656731 6.83740385 4.81332692 7.33125 5.00976923 7.44336538zM13.6711538 8.27682692C13.3794231 8.83211538 12.9667308 9.44365385 12.1106731 9.46144231 12.0932692 9.28211538 12.0799038 9.00923077 12.1116346 8.90125 12.7660577 8.83836538 13.1700962 8.50528846 13.6711538 8.27682692zM9.56986538 8.63682692C10.1158654 8.92394231 11.1193269 8.95480769 11.8614423 8.93307692 11.90125 9.09567308 11.9002885 9.29653846 11.9018269 9.49480769 10.9478846 9.54240385 9.82 9.30634615 9.56986538 8.63682692zM9.46608654 9.17221154C9.84365385 10.1201923 11.1413462 10.0110577 12.2356731 9.98490385 12.1875 10.1079808 12.0830769 10.2533654 11.9532692 10.3059615 11.6025962 10.4486538 10.6353846 10.5569231 10.1485577 10.2983654 9.83980769 10.1342308 9.64144231 9.76336538 9.47227885 9.54596154 9.39058654 9.44096154 8.98380769 9.17278846 9.46608654 9.17221154z"/>
      <path fill="#81B0C4" d="M13.2265385,14.4013269 C12.7834615,15.1601923 12.3595192,15.9396058 11.8338462,16.6089615 C12.0542308,15.9609712 12.1485577,14.8764231 12.1818269,14.0496154 C12.6428846,13.8338462 13.0376923,14.0981731 13.2265385,14.4013269 Z"/>
      <path fill="#231F20" d="M15.6107692,17.1287596 C15.1147115,17.2280673 14.7661538,17.7101827 14.2822115,17.6792404 C14.5481731,17.3043077 15.0142308,17.1462596 15.6107692,17.1287596 Z"/>
      <path fill="#DCD9D8" d="M12.3715385,20.4060577 C12.4367308,20.97675 12.6629808,21.5549904 12.6346154,22.1799904 C12.3833654,22.2647212 12.2390385,22.3388269 11.9024038,22.338375 C11.8786538,21.8072019 11.8075962,20.9951923 11.8288462,20.4888462 C11.9944231,20.4998077 12.2385577,20.3705673 12.3715385,20.4060577 Z"/>
      <path fill="#81B0C4" d="M8.908125,15.5412404 C9.05104808,14.9219135 9.61106731,14.6011538 10.1196154,14.2600962 C10.6445192,14.9262692 10.96375,15.7829808 11.3152885,16.6097115 C10.4847115,16.3593365 9.63605769,15.9530865 8.908125,15.5412404 Z"/>
      <path fill="#231F20" d="M11.8288462,20.4888462 C11.8075962,20.9951923 11.8786538,21.8072019 11.9024038,22.338375 C12.2390385,22.3388269 12.3833654,22.2647212 12.6346154,22.1799904 C12.6629808,21.5549904 12.4367308,20.97675 12.3715385,20.4060577 C12.2385577,20.3705673 11.9944231,20.4998077 11.8288462,20.4888462 Z M6.58710577,17.6091538 C6.80908654,19.6498269 7.13059615,21.3652692 7.72028846,23.172326 C9.02906731,23.5697115 10.6068269,23.6043423 11.7636538,23.2457558 C11.55125,22.2258462 11.6440385,20.9841538 11.5199038,19.8957692 C11.4263462,19.0777115 11.4740385,18.2546154 11.3457692,17.42 C9.94403846,17.1283846 7.96274038,17.3518269 6.58710577,17.6091538 Z M11.6772115,17.4328077 C11.6653846,18.3092308 11.7164423,19.17375 11.7833654,20.0512692 C12.1199038,20.00075 12.3482692,19.9670192 12.6609615,19.8984712 C12.5594231,19.0536731 12.5719231,18.1030673 12.3650962,17.3557692 C12.1260577,17.3580577 11.9155769,17.3529904 11.6772115,17.4328077 Z M13.3844231,17.2915385 C13.2247115,17.2549231 13.03875,17.2901154 12.8861538,17.2930769 C12.9578846,18.0075096 13.1319231,18.7958654 13.1931731,19.5457885 C13.4332692,19.5532596 13.5615385,19.4400192 13.7590385,19.4019327 C13.7696154,18.7436538 13.7015385,17.8367308 13.3844231,17.2915385 Z M15.9694231,19.6533558 C16.4699038,19.5318173 16.7846154,18.9188365 16.6446154,18.2893269 C16.5506731,17.86625 16.3833654,17.0695962 16.2043269,16.7989423 C16.0720192,16.59875 15.7132692,16.3366538 15.4268269,16.5200962 C14.9608654,16.8184712 14.14,16.9050865 13.8001923,17.2662596 C13.9705769,17.8335673 14.0234615,18.6127885 14.09375,19.3316154 C14.6758654,19.3679038 15.3921154,19.1714231 15.87625,19.3799231 C15.5382692,19.4894038 15.0997115,19.4902692 14.8076923,19.6498269 C15.0463462,19.7650962 15.6050962,19.7418077 15.9694231,19.6533558 Z M11.3152885,16.6097115 C10.96375,15.7829808 10.6445192,14.9262692 10.1196154,14.2600962 C9.61106731,14.6011538 9.05104808,14.9219135 8.908125,15.5412404 C9.63605769,15.9530865 10.4847115,16.3593365 11.3152885,16.6097115 Z M12.1818269,14.0496154 C12.1485577,14.8764231 12.0542308,15.9609712 11.8338462,16.6089615 C12.3595192,15.9396058 12.7834615,15.1601923 13.2265385,14.4013269 C13.0376923,14.0981731 12.6428846,13.8338462 12.1818269,14.0496154 Z M11.1995192,13.7005769 C11.0003846,13.6791346 10.8313462,13.9295192 10.5724038,13.82125 C10.5130769,13.8868269 10.4591346,13.9578846 10.3986538,14.0219231 C10.9705769,14.7111635 11.2304808,15.6890385 11.6722115,16.4990192 C11.9092308,15.7209615 11.8819231,14.8685385 11.9341346,14.0193269 C11.6084615,14.04 11.4277885,13.7248077 11.1995192,13.7005769 Z M9.70740385,12.5844231 C9.37304808,12.4017308 8.87075962,12.2027885 8.43889423,12.1203846 C7.90358654,12.0179808 7.95373077,12.8505769 7.97645192,13.3473077 C7.99428846,13.7405769 8.19880769,14.1564423 8.28763462,14.4177019 C8.32932692,14.5397019 8.33872115,14.6691346 8.44301923,14.6933558 C8.62736538,14.7363269 9.23546154,14.4931635 9.40873077,14.3986635 C9.77519231,14.1988462 10.0595192,13.8815385 10.3707692,13.6684615 C10.3748077,13.5648077 10.37875,13.46125 10.3828846,13.3575962 C10.1957692,13.2643269 9.97951923,13.1981731 9.70480769,13.1861538 C9.89115385,13.0924038 10.1652885,13.09375 10.3350962,12.9822115 C10.3367308,12.9406731 10.3384615,12.8992308 10.3399038,12.8580769 C10.0299038,12.8342308 9.91173077,12.6961538 9.70740385,12.5844231 Z M6.51378846,12.0043269 C6.23628846,12.2860577 7.29210577,12.6700962 7.62826923,12.6907692 C7.62639423,12.5125 7.72986538,12.3444231 7.70901923,12.2165385 C7.30975962,12.1464423 6.78504808,12.1926923 6.51378846,12.0043269 Z M9.93221154,12.1366346 C9.93086538,12.1641346 9.895,12.1541346 9.88913462,12.1765385 C10.2461538,12.4555769 10.5113462,12.5132692 10.9973077,12.4892308 C11.2164423,12.3301923 11.4107692,12.1442308 11.6389423,11.9952885 C11.1136538,12.0422115 10.4524038,12.3684615 9.93221154,12.1366346 Z M13.0699038,13.0880769 C13.0549038,12.7750962 12.9726923,12.1314423 12.7792308,12.01875 C12.3731731,11.7817308 11.6513462,12.4973077 11.3455769,12.6064423 C11.3788462,12.7022115 11.43375,12.7780769 11.4379808,12.9004808 C11.6188462,12.8559615 11.8390385,12.8864423 11.9957692,12.9634615 C11.8145192,12.98375 11.6135577,12.9824038 11.4936538,13.06875 C11.4497115,13.1957692 11.5044231,13.3688462 11.4751923,13.5451923 C11.9053846,13.6665385 12.3967308,13.7311538 12.9405769,13.7471154 C13.0463462,13.6096154 13.0824038,13.3476923 13.0699038,13.0880769 Z M6.04661538,12.2768269 C5.95947115,12.2147115 5.36997115,11.4476923 5.28921154,11.4795192 C4.22250962,11.9001923 3.22509615,12.6275962 2.33379808,13.3155769 C3.18359615,15.1390481 3.52663462,17.3730865 3.58725,19.5263269 C4.56073077,19.9816346 5.41578846,20.638 6.73677885,20.7065385 C6.58391346,19.625 6.444375,18.6600769 6.35760577,17.6418269 C6.02569231,17.5019135 5.5495,17.6481731 5.23888462,17.5984423 C5.23625,17.224125 5.71326923,17.4345288 5.753,17.1828077 C5.78294231,16.9924135 5.49053846,16.9779904 5.58575,16.6781827 C5.82857692,16.7664519 5.95609615,16.9614231 6.21506731,17.0346346 C6.45170192,16.5169423 6.21175962,15.6009615 6.24586538,15.1682692 C6.25232692,15.0870288 6.28643269,14.7181827 6.46841346,14.7829038 C6.62947115,14.8401827 6.45921154,15.7638558 6.47686538,16.173375 C6.49294231,16.5506731 6.43129808,16.91575 6.58409615,17.1526058 C7.86057692,16.9788558 9.15771154,16.8665481 10.5388462,16.8286538 C10.235,16.6982788 9.87403846,16.5748942 9.47828846,16.3518269 C9.26375,16.2308846 8.58748077,15.9792308 8.52557692,15.7754615 C8.42679808,15.4507596 8.78474038,15.2777981 8.84596154,14.9994327 C8.201625,15.3508462 8.07591346,14.6625962 7.92349038,14.175 C7.78538462,13.7333654 7.70676923,13.4034615 7.67288462,13.14875 C7.11782692,12.8841346 6.524375,12.6161538 6.04661538,12.2768269 Z M12.5061538,11.5723077 C13.3949038,11.1413462 13.5550962,13.1829808 13.2067308,13.8406731 C13.2605769,14.0368269 13.4457692,14.1119231 13.5213462,14.2882692 C13.0253846,15.1767212 12.4745192,16.0060481 11.9684615,16.8840481 C12.3449038,16.6497115 12.8825962,16.8421346 13.3255769,16.6667308 C13.4875,16.6026923 13.6047115,16.2320096 13.7273077,15.9354712 C14.0645192,15.119625 14.4185577,14.0910577 14.5760577,13.3125 C14.6116346,13.1350962 14.7085577,12.7485577 14.6868269,12.5906731 C14.6480769,12.3079808 14.2645192,12.0983654 14.0694231,11.9235577 C13.71,11.6006731 13.4836538,11.3165385 13.10875,11.0146154 C12.9567308,11.2390385 12.6304808,11.3898077 12.5061538,11.5723077 Z M4.01404808,3.69076923 C3.59055769,4.15673077 3.67920192,5.02980769 3.73047115,5.65096154 C4.49594231,5.16942308 5.51194231,5.68903846 5.50236538,6.50807692 C5.86782692,6.49836538 5.63889423,6.05163462 5.57278846,5.76384615 C5.35675,4.82384615 5.93675,3.80259615 5.59908654,2.94298077 C4.94347115,2.99269231 4.40485577,3.26048077 4.01404808,3.69076923 Z M7.04421154,0.986346154 C6.08549038,1.25807692 4.85677885,1.95471154 4.46281731,2.81596154 C4.767875,2.77163462 4.97964423,2.61778846 5.28057692,2.59875 C5.39430769,2.59134615 5.54330769,2.64644231 5.67401923,2.61394231 C5.9345,2.54932692 6.15433654,1.96528846 6.35084615,1.74798077 C6.54240385,1.53576923 6.77264423,1.44509615 6.93021154,1.25163462 C7.03144231,1.20278846 7.18111538,1.20615385 7.18686538,1.05413462 C7.14299038,1.00721154 7.09678846,0.971442308 7.04421154,0.986346154 Z M12.0349038,1.24192308 C11.0398077,0.680480769 9.35547115,0.258173077 8.29695192,0.785865385 C7.44283654,1.21173077 6.28830769,1.91634615 5.89468269,2.80923077 C6.26239423,3.67086538 5.78575962,4.46038462 5.75533654,5.33519231 C5.73918269,5.80067308 5.9745,6.20701923 5.99252885,6.71375 C5.86670192,6.92134615 5.48226923,6.94692308 5.21615385,6.93269231 C5.12657692,6.48442308 4.96975962,5.98057692 4.50815385,5.93 C3.85498077,5.85855769 3.37740385,6.39913462 3.34773077,6.96403846 C3.31261538,7.62836538 3.85798077,8.72942308 4.63097115,8.65298077 C4.92957692,8.62346154 5.00293269,8.32413462 5.32827885,8.32721154 C5.50461538,8.67903846 5.05626923,8.78951923 5.01014423,9.04115385 C4.998125,9.10615385 5.04732692,9.36019231 5.07594231,9.47932692 C5.21634615,10.0594231 5.52933654,10.8101923 5.83740385,11.2518269 C6.22840385,11.8120192 6.99658654,11.8964423 7.82301923,11.9513462 C7.970625,11.6333654 8.51438462,11.6595192 8.86869231,11.7426923 C8.44407692,11.5745192 8.04931731,11.1668269 7.72216346,10.8059615 C7.346375,10.3919231 6.96571154,9.94778846 6.94648077,9.40663462 C7.656625,10.3918269 8.24331731,11.2522115 9.53463462,11.6855769 C10.5117308,12.0132692 11.6528846,11.5353846 12.4036538,11.0081731 C12.7151923,10.7890385 12.9011538,10.4413462 13.1225962,10.1230769 C13.9511538,8.93125 14.3377885,7.23009615 14.2527885,5.58125 C14.2177885,4.90125 14.2193269,4.22355769 13.9911538,3.76605769 C13.7526923,3.28769231 12.9461538,2.85971154 12.4740385,3.29240385 C12.3865385,2.82721154 12.8666346,2.53951923 13.4305769,2.70692308 C13.0284615,2.18798077 12.6064423,1.56442308 12.0349038,1.24192308 Z M13.8888462,16.5849231 C14.6664423,16.1983558 16.1193269,15.5444327 16.6068269,16.5863462 C16.7867308,16.9704038 16.9977885,17.619625 17.0909615,18.0160769 C17.2225962,18.5753846 16.9482692,19.7509808 16.3733654,19.9386635 C15.8655769,20.1044135 15.2730769,20.0943173 14.6614423,19.9714519 C14.5894231,19.9115481 14.5092308,19.807125 14.4531731,19.6982788 C14.0164423,19.6813365 13.6075,19.7217212 13.2625,19.90125 C13.2951923,20.2242308 13.0767308,20.2760673 12.8719231,20.3425865 C12.7200962,20.9445962 13.1756731,21.7307692 13.0666346,22.2797115 C12.9888462,22.6707885 12.5076923,22.7312596 12.1540385,22.8044231 C12.1425,23.02175 12.1695192,23.2031625 12.1936538,23.3870192 C12.1127885,23.6849837 11.7500962,23.8546048 11.4064423,23.8961462 C10.2757692,24.0321138 8.55900962,24.0931866 7.47145192,23.7021106 C7.16797115,22.9577115 6.92889423,22.0523173 6.67611538,21.2022981 C5.61542308,21.3155769 4.75754808,20.744625 3.94880769,20.3705673 C3.66879808,20.2407596 3.28144231,20.16925 3.17683654,19.9463654 C3.07542308,19.7305769 3.11692308,19.3170096 3.09175962,18.9263462 C3.02772115,17.9285577 2.97288462,16.9661538 2.70939423,15.9445192 C2.59108654,15.4860673 2.384875,15.0815385 2.24101923,14.6397981 C2.10805769,14.2303846 1.87575,13.7244231 1.81516346,13.3161538 C1.72532692,12.7110577 2.29510577,12.6774038 2.65944231,12.4151923 C3.22265385,12.0097115 3.66474038,11.7854808 4.27471154,11.4195192 C4.455375,11.3111538 5.00019231,11.0368269 5.06216346,10.9104808 C5.18535577,10.66 4.85070192,10.3068269 4.76123077,10.1104808 C4.61970192,9.8 4.54589423,9.53625 4.52561538,9.22990385 C4.01393269,9.14903846 3.62604808,8.84451923 3.39175,8.50115385 C3.00417308,7.93288462 2.73538462,6.88153846 3.07072115,6.08182692 C3.09701923,6.01884615 3.22817308,5.895 3.24751923,5.79826923 C3.28568269,5.60778846 3.17570192,5.35451923 3.16886538,5.15192308 C3.13363462,4.1125 3.34473077,3.21692308 4.04447115,2.90346154 C4.32853846,1.77182692 5.34525,1.39557692 6.30314423,0.833173077 C6.66121154,0.622980769 7.05592308,0.488653846 7.46356731,0.338653846 C8.92589423,-0.199519231 11.1695192,-0.0981730769 12.3831731,0.819711538 C12.8977885,1.20894231 13.7203846,2.03076923 14.0146154,2.62576923 C14.7917308,4.19663462 14.7365385,6.82192308 14.1929808,8.73278846 C14.1199038,8.98932692 14.0139423,9.36644231 13.8659615,9.67461538 C13.7627885,9.88980769 13.4421154,10.3203846 13.4810577,10.5103846 C13.5211538,10.7068269 14.2122115,11.2315385 14.3603846,11.3744231 C14.6272115,11.6318269 15.1341346,11.9734615 15.1751923,12.2982692 C15.2193269,12.6439423 15.0228846,13.1168269 14.9233654,13.4503846 C14.5906731,14.5635481 14.2660577,15.5925096 13.8888462,16.5849231 Z M10.5678846,12.8669231 C10.5466346,13.1029808 10.6015385,13.1801923 10.6490385,13.4507692 C11.425,13.6933654 11.2895192,12.3857692 10.5678846,12.8669231 Z"/>
      <path fill="#F7E4CD" d="M8.70105769,8.87932692 C8.74324038,8.82317308 8.97517308,8.73788462 9.29969231,8.89413462 C9.29969231,8.89413462 8.91507692,8.95826923 8.94707692,9.59951923 L8.78680769,9.56740385 C8.78680769,9.56740385 8.62117308,8.98596154 8.70105769,8.87932692 Z"/>
    </g>
  </g>
</svg>
