<svg xmlns="http://www.w3.org/2000/svg" width="24" height="24" viewBox="0 0 24 24">
  <defs>
    <radialGradient id="logo-asana-a" cy="54.652%" r="66.263%" fx="50%" fy="54.652%" gradientTransform="matrix(.9243 0 0 1 .038 0)">
      <stop offset="0%" stop-color="#FFB900"/>
      <stop offset="60%" stop-color="#F95D8F"/>
      <stop offset="99.91%" stop-color="#F95353"/>
    </radialGradient>
  </defs>
  <g fill="none" fill-rule="evenodd">
    <rect width="24" height="24"/>
    <path fill="url(#logo-asana-a)" fill-rule="nonzero" d="M18.7805337,12.6523654 C15.897574,12.6523654 13.5608861,14.9891438 13.5608861,17.8718317 C13.5608861,20.7547008 15.897574,23.0916604 18.7805337,23.0916604 C21.6631311,23.0916604 24,20.7547008 24,17.8718317 C24,14.9891438 21.6631311,12.6523654 18.7805337,12.6523654 L18.7805337,12.6523654 Z M5.21955683,12.6527276 C2.33695961,12.6527276 0,14.9891438 0,17.8721034 C0,20.7547008 2.33695961,23.0916604 5.21955683,23.0916604 C8.10233547,23.0916604 10.4393857,20.7547008 10.4393857,17.8721034 C10.4393857,14.9891438 8.10233547,12.6527276 5.21955683,12.6527276 L5.21955683,12.6527276 Z M17.2194211,6.127806 C17.2194211,9.0104939 14.8827331,11.3478157 12.0001358,11.3478157 C9.11726686,11.3478157 6.78048843,9.0104939 6.78048843,6.127806 C6.78048843,3.24529921 9.11726686,0.908339608 12.0001358,0.908339608 C14.8827331,0.908339608 17.2194211,3.24529921 17.2194211,6.127806 L17.2194211,6.127806 Z"/>
  </g>
</svg>
