<svg xmlns="http://www.w3.org/2000/svg" width="24" height="20" viewBox="0 0 24 20">
  <defs>
    <radialGradient id="logo-campfire-a" cy="50.014%" r="46.025%" fx="50%" fy="50.014%" gradientTransform="matrix(.8332 0 0 1 .083 0)">
      <stop offset="0%" stop-color="#FFF"/>
      <stop offset="100%" stop-color="#99D9E8"/>
    </radialGradient>
    <radialGradient id="logo-campfire-b" cx="48.72%" cy="-9.043%" r="53.973%" fx="48.72%" fy="-9.043%" gradientTransform="matrix(.50366 0 0 1 .242 0)">
      <stop offset="0%" stop-color="#CCEBB9"/>
      <stop offset="100%" stop-color="#66BB50"/>
    </radialGradient>
  </defs>
  <g fill="none" fill-rule="evenodd" transform="translate(0 -2)">
    <rect width="24" height="24"/>
    <g fill-rule="nonzero" transform="translate(0 2)">
      <path fill="url(#logo-campfire-a)" d="M12,0 C5.540625,0 0.478125,8.221875 0,15.159375 C2.025,18.675 6.91875,19.996875 12,19.996875 C17.08125,19.996875 21.975,18.675 24,15.159375 C23.521875,8.221875 18.459375,0 12,0 L12,0 Z"/>
      <path fill="url(#logo-campfire-b)" d="M22.125,14.7375 C22.134375,15.8625 20.971875,16.74375 19.0875,17.521875 C17.203125,18.271875 14.5875,18.91875 11.71875,18.9 C8.85,18.91875 6.234375,18.271875 4.35,17.521875 C2.465625,16.74375 1.3125,15.853125 1.3125,14.7375 C1.321875,13.63125 2.428125,12.196875 4.29375,10.875 C6.15,9.571875 8.765625,8.390625 11.709375,8.41875 C14.653125,8.38125 17.26875,9.571875 19.125,10.875 C21.009375,12.196875 22.10625,13.640625 22.125,14.7375 L22.125,14.7375 Z"/>
      <path fill="#695114" d="M16.171875,14.221875 C16.171875,15.375 14.184375,16.3125 11.728125,16.3125 C9.271875,16.3125 7.284375,15.375 7.284375,14.221875 C7.284375,13.06875 9.271875,12.13125 11.728125,12.13125 C14.184375,12.13125 16.171875,13.06875 16.171875,14.221875 L16.171875,14.221875 Z" opacity=".64"/>
      <path fill="#FF7F00" d="M11.0625,5.090625 C11.4375,6.5625 9.871875,7.2375 9.05625,8.34375 C7.640625,10.125 6.675,13.734375 9.13125,15.20625 C9.225,15.2625 9.31875,15.309375 9.421875,15.35625 C10.8375,15.99375 12.8625,15.815625 14.23125,15.15 C14.840625,14.85 15.421875,14.390625 15.54375,13.734375 C15.73125,12.759375 14.55,12.39375 14.596875,11.428125 C14.625,11.00625 14.746875,10.6875 14.971875,10.321875 C15.3,9.76875 15.45,8.634375 14.53125,8.559375 C14.578125,8.953125 13.93125,10.134375 13.359375,9.65625 C13.0125,9.375 13.415625,8.7375 13.490625,8.41875 C13.884375,6.61875 13.06875,4.2 10.85625,3.75"/>
      <path fill="#FF0" d="M13.115625,12.9 C13.171875,13.153125 13.1625,13.434375 13.115625,13.696875 C13.078125,13.940625 12.984375,14.184375 12.84375,14.4 C12.76875,14.5125 12.684375,14.60625 12.58125,14.7 C12.534375,14.7375 12.4875,14.784375 12.43125,14.8125 C12.375,14.840625 12.309375,14.840625 12.24375,14.859375 C12.13125,14.8875 12.028125,14.90625 11.915625,14.90625 C11.79375,14.915625 11.671875,14.896875 11.559375,14.8875 L11.484375,14.8875 C11.240625,14.8875 10.996875,14.765625 10.790625,14.6625 C10.55625,14.540625 10.35,14.390625 10.171875,14.2125 C9.375,13.40625 9.28125,12.3375 9.76875,11.38125 C10.190625,10.55625 11.034375,9.95625 11.45625,9.140625 C11.521875,9.009375 11.615625,8.821875 11.625,8.671875 C11.64375,8.475 11.6625,8.259375 11.578125,8.08125 C11.5875,8.1 11.7375,8.146875 11.765625,8.165625 C11.8125,8.203125 11.85,8.259375 11.878125,8.315625 C11.934375,8.4375 11.934375,8.578125 11.915625,8.7 C11.896875,8.840625 11.859375,8.98125 11.79375,9.1125 C11.709375,9.28125 11.690625,9.46875 11.60625,9.6375 C11.540625,9.7875 11.484375,9.946875 11.390625,10.0875 C11.2875,10.228125 11.19375,10.378125 11.15625,10.546875 C11.1,10.771875 11.0625,11.00625 11.053125,11.23125 C11.04375,11.53125 11.240625,11.821875 11.390625,12.084375 C11.56875,12.39375 11.83125,12.54375 12.20625,12.43125 C12.684375,12.28125 13.06875,11.728125 13.25625,11.325 C12.890625,12.103125 12.965625,12.16875 13.115625,12.9 L13.115625,12.9 Z"/>
      <path fill="#FFF" d="M11.409375,14.240625 C11.071875,14.2125 10.809375,14.015625 10.715625,13.715625 C10.621875,13.415625 10.51875,12.95625 10.603125,12.665625 C10.63125,12.553125 10.696875,12.45 10.725,12.328125 C10.753125,12.196875 10.734375,12.01875 10.846875,11.925 C10.89375,11.8875 10.9125,12.234375 10.9125,12.253125 C10.9125,12.309375 10.884375,12.403125 10.903125,12.459375 C10.95,12.553125 10.996875,12.4875 11.034375,12.515625 C11.175,12.6375 11.240625,12.946875 11.334375,13.125 C11.60625,13.640625 12.01875,13.81875 12.4875,13.35 C12.375,13.63125 12.084375,13.9125 11.746875,14.053125" opacity=".75"/>
      <path fill="#695114" d="M21.05625 12.61875C19.865625 12.225 19.10625 15.65625 17.090625 16.89375 15.20625 18.046875 12.665625 18.39375 11.34375 18.825 14.596875 18.946875 17.353125 18.20625 19.59375 17.2875 21.35625 16.55625 23.409375 14.971875 21.05625 12.61875M2.925 16.621875C1.0125 15.365625 5.034375 11.19375 5.765625 10.078125 4.8375 10.21875 2.7 12.1125 2.1375 12.928125 1.14375 14.38125.825 15.50625 2.775 16.6875" opacity=".15"/>
    </g>
  </g>
</svg>
