<svg xmlns="http://www.w3.org/2000/svg" width="24" height="24" viewBox="0 0 24 24">
  <g fill="none" fill-rule="evenodd">
    <rect width="24" height="24"/>
    <g fill-rule="nonzero">
      <path fill="#EC7D1A" d="M9.06372937 5.67427222L11.6443745 10.1431943C12.0220299 10.0173092 12.5255704 10.0802518 12.9032258 10.2690794L14.2250196 7.94020456 11.9590874 4.03776554 9.06372937 5.67427222 9.06372937 5.67427222M5.16129033 11.4020457L10.3225806 11.4020457C10.3855232 11.2761605 10.4484658 11.0873328 10.5114084 10.9614477 10.6372935 10.7096774 10.8261211 10.5208497 11.0778914 10.3949646L9.75609755 8.0660897 5.22423289 8.0660897 5.16129033 11.4020457 5.16129033 11.4020457 5.16129033 11.4020457M13.6585366 12.8497246C13.5326515 13.1014949 13.3438238 13.2903226 13.0920535 13.4162077L14.4138474 15.7450826 18.945712 15.7450826 18.945712 12.3461841 13.7844217 12.3461841C13.8473643 12.5350118 13.7844217 12.6608969 13.6585366 12.8497246M13.4067663 10.5837923C13.7214791 10.8985051 13.9103069 11.2761605 13.9103069 11.7167584L16.6168371 11.7167584 18.8827695 7.81431943 15.9874115 6.11487018 13.4067663 10.5837923M8.18253345 17.6333596L10.7631786 13.1644374C10.4484658 12.8497246 10.2596381 12.4720692 10.2596381 12.0314713L7.55310779 12.0314713 5.28717545 15.9339103 8.18253345 17.6333596 8.18253345 17.6333596M15.1062156 18.1369001L12.5255704 13.6679779C12.147915 13.7938631 11.6443745 13.7309206 11.2667191 13.5420928L9.94492529 15.8709677 12.2108576 19.7734068 15.1062156 18.1369001 15.1062156 18.1369001"/>
      <path fill="#5283B0" d="M12.0849725,0.387096774 C5.7277734,0.387096774 0.566483084,5.5483871 0.566483084,11.9055862 C0.566483084,18.2627852 5.7277734,23.4240756 12.0849725,23.4240756 C18.4421715,23.4240756 23.6034619,18.2627852 23.6034619,11.9055862 C23.6034619,5.5483871 18.4421715,0.387096774 12.0849725,0.387096774 L12.0849725,0.387096774 Z M12.0849725,2.71597167 C17.1203776,2.71597167 21.2745869,6.8072384 21.2745869,11.9055862 C21.2745869,16.9409913 17.1833203,21.0952006 12.0849725,21.0952006 C7.04956727,21.0952006 2.89535799,17.0039339 2.89535799,11.9055862 C2.89535799,6.8072384 7.04956727,2.71597167 12.0849725,2.71597167 L12.0849725,2.71597167 Z"/>
    </g>
  </g>
</svg>
