<svg xmlns="http://www.w3.org/2000/svg" width="24" height="24" viewBox="0 0 24 24">
  <path fill="#DA4E31" d="M12.0001059,0 C5.37290992,0 0,5.37236943 0,11.9998941 C0,18.627207 5.37290992,24 12.0001059,24 C18.6273018,24 24,18.627207 24,11.9998941 C24,5.37236943 18.6270901,0 12.0001059,0 Z M12.0001059,22.4591683 C10.1145474,22.4591683 8.58581349,21.1995658 8.58581349,19.6462398 L15.4143983,19.6462398 C15.4143983,21.1993541 13.8856644,22.4591683 12.0001059,22.4591683 Z M17.6394165,18.7146676 L6.36015988,18.7146676 L6.36015988,16.669402 L17.6396284,16.669402 L17.6396284,18.7146676 L17.6394165,18.7146676 Z M17.5989694,15.616698 L6.39234821,15.616698 C6.35507751,15.5737088 6.31695975,15.5313551 6.28095964,15.4877306 C5.12641507,14.0858194 4.85450839,13.3539455 4.59043703,12.6080948 C4.58598996,12.5835297 5.99041762,12.895042 6.98634996,13.1190936 C6.98634996,13.1190936 7.49882205,13.2376843 8.24804782,13.3742754 C7.52868096,12.531011 7.1015503,11.4590359 7.1015503,10.3633428 C7.1015503,7.95785796 8.94644983,5.85583821 8.28087137,4.15681499 C8.92866155,4.20954549 9.62155768,5.52399608 9.66835785,7.57921487 C10.3570187,6.62752468 10.6452313,4.88953596 10.6452313,3.82391402 C10.6452313,2.72059719 11.3722217,1.4389708 12.0994238,1.39513461 C11.4512101,2.46350954 12.2673537,3.37941075 12.9928617,5.65148106 C13.2649802,6.50491039 13.2302507,7.9411282 13.4403219,8.85194692 C13.5099927,6.96021388 13.8352642,4.20001588 15.0353383,3.24705508 C14.505925,4.44715038 15.1136915,5.94880483 15.5293868,6.67072558 C16.2000477,7.83545543 16.606637,8.71789715 16.606637,10.3868491 C16.606637,11.5058369 16.1934829,12.559388 15.4965632,13.3829579 C16.288989,13.234296 16.8361907,13.1002462 16.8361907,13.1002462 L19.409563,12.5981417 C19.4097747,12.59793 19.0357972,14.1357969 17.5989694,15.616698 Z"/>
</svg>
