<svg xmlns="http://www.w3.org/2000/svg" width="22" height="24" viewBox="0 0 22 24">
  <g fill="none" fill-rule="evenodd" transform="translate(-1)">
    <rect width="24" height="24"/>
    <g fill-rule="nonzero" transform="translate(1.5)">
      <path fill="#363C44" d="M18.9142118,4.35244161 L12.3308121,0.477707006 C11.8083201,0.159235669 11.1290804,0 10.3453424,0 C9.6138535,0 8.88236465,0.159235669 8.35987261,0.477707006 L1.88097134,4.35244161 C0.835987261,4.98938429 0,6.58174098 0,7.80254777 L0,15.552017 C0,16.8259023 0.783738057,18.3651805 1.88097134,19.0021231 L8.41212182,22.8768577 C8.93461385,23.1953291 9.6138535,23.3545648 10.3453424,23.3545648 C11.0768312,23.3545648 11.8083201,23.1953291 12.2785629,22.8768577 L18.8619626,19.0021231 C19.9069467,18.3651805 20.8474323,16.7728238 20.8474323,15.552017 L20.8474323,7.80254777 C20.8996815,6.52866242 20.0114451,4.98938429 18.9142118,4.35244161 Z"/>
      <path fill="#FFF" d="M15.1000199,15.552017 C15.0477707,15.6050955 14.9432723,15.6050955 14.8910231,15.6050955 C14.7342755,15.6050955 14.5775279,15.4989384 14.4730295,15.3397028 L11.8605693,10.0318471 L9.24810908,15.3397028 C9.14361067,15.4989384 8.98686306,15.6050955 8.83011545,15.6050955 C8.77786624,15.6050955 8.67336783,15.6050955 8.62111863,15.552017 C8.41212182,15.4458599 8.30762341,15.1804671 8.41212182,14.9150743 L11.3380772,9.02335456 L10.3453424,7.00636943 L6.21765525,15.3927813 C6.11315685,15.6050955 5.85191083,15.7112527 5.59066481,15.6050955 C5.38166799,15.4989384 5.27716959,15.2335456 5.38166799,14.9681529 L9.92734873,5.73248408 C9.97959793,5.57324841 10.1363455,5.4670913 10.3453424,5.4670913 C10.5543392,5.4670913 10.6588376,5.57324841 10.763336,5.73248408 L11.8605693,7.96178344 L12.3830613,8.97027601 L15.3090167,14.9150743 C15.4135151,15.1804671 15.3090167,15.4458599 15.1000199,15.552017 Z"/>
    </g>
  </g>
</svg>
