<svg width="18" height="24" viewBox="0 0 18 24" xmlns="http://www.w3.org/2000/svg"><title>logo-bugzilla</title><defs><linearGradient x1="100.562%" y1="-.562%" x2="100.562%" y2="100.562%" id="a"><stop stop-color="#8A7AB9" offset="0%"/><stop stop-color="#B888B6" offset="100%"/></linearGradient><radialGradient cx="51.086%" cy="48.387%" fx="51.086%" fy="48.387%" r="32.47%" gradientTransform="matrix(.96336 0 0 1 .019 0)" id="b"><stop stop-color="#FFF" offset="0%"/><stop stop-color="#FFF" stop-opacity="0" offset="100%"/></radialGradient><linearGradient x1="39.87%" y1="23.127%" x2="23.3%" y2="21.644%" id="c"><stop stop-color="#363433" offset="0%"/><stop stop-color="#363433" stop-opacity="0" offset="100%"/></linearGradient><radialGradient cx="12.723%" cy="17.997%" fx="12.723%" fy="17.997%" r="50.441%" gradientTransform="matrix(1 0 0 .389 0 .11)" id="d"><stop stop-color="#E4BC98" offset="0%"/><stop stop-color="#F6DAAA" stop-opacity="0" offset="100%"/></radialGradient></defs><g fill="none" fill-rule="evenodd"><path d="M.5 6.295h17c.276 0 .5.218.5.486v16.536a.493.493 0 0 1-.5.486H.5a.493.493 0 0 1-.5-.486V6.78c0-.268.224-.486.5-.486z" fill="#625874" fill-rule="nonzero"/><path d="M.5 6.49c-.166 0-.3.13-.3.291v16.536c0 .161.134.292.3.292h17c.166 0 .3-.13.3-.292V6.78a.296.296 0 0 0-.3-.291H.5z" fill="url(#a)"/><path d="M6.46 18.443c-4.53 0-4.922 4.312-4.956 5.164h9.544c.018-.99-.162-5.164-4.589-5.164z" fill="#363433" fill-rule="nonzero"/><path d="M14.642 11.237c.011.624-.19.963-.58.952-.307-.01-.69-.257-1.084-.667-.822-.857-1.4-2.078-1.205-2.79l.009-.035.026-.024c.363-.347.626-.498 1.046-.524h.02c.486.045 1.475 1.746 1.765 3.063l.003.025z" fill="#363433"/><path d="M12.858 8.405c-.327.023-.536.14-.84.425-.136.613.4 1.733 1.152 2.518.35.364.682.579.9.585.197.006.316-.19.31-.68-.269-1.2-1.191-2.792-1.522-2.848z" fill="#F6DAAA" fill-rule="nonzero"/><path d="M8.094 9.086C9.674 5.158 9.211.828 7.47.38l-.05-.012-.025.095.049.012C9.105.902 9.56 5.17 8 9.051l-.018.045.094.036.018-.046z" fill="#6D6E6E" fill-rule="nonzero"/><path d="M7.927 8.865l5.067 1.391c3.358 1.873 4.48 2.78 4.661 4.122 0 2.093-2.585 3.041-5.818 2.81-2.225-.159-3.29.389-3.1 1.77l.008.063-.046.045c-.67.65-1.861.408-2.47-.219l-.036-.036v-.05c-.02-2.492-.273-4.042-1.022-6.63-.13-.476-.013-1.213.347-1.82.464-.782 1.27-1.307 2.409-1.446z" fill="#363433" fill-rule="nonzero"/><path d="M5.746 10.439c-.327.55-.433 1.218-.321 1.625.75 2.589 1.007 4.158 1.03 6.643.515.494 1.47.686 2.012.22-.174-1.547 1.055-2.16 3.389-1.994 3.098.221 5.536-.672 5.537-2.539-.163-1.207-1.25-2.086-4.487-3.896L7.933 9.122c-1.043.134-1.768.61-2.187 1.317z" fill="#F6DAAA"/><path d="M8.647 8.68c-.042-.913.99-2.285 2.38-3.247 1.484-1.025 2.89-1.267 3.59-.459l.033.038.078-.064-.033-.037c-.746-.86-2.205-.61-3.726.442-1.416.98-2.467 2.376-2.423 3.33l.002.05.101-.004-.002-.05z" fill="#6D6E6E" fill-rule="nonzero"/><path d="M6.919 10.119c2.514-3.012 4.809-3.39 6.507 1.602" fill="#F6DAAA" fill-rule="nonzero"/><path d="M15.004 11.668a1.642 1.642 0 0 0-1.093 1.537c0 .907.748 1.641 1.681 1.641.765 0 1.41-.495 1.618-1.174-.225-.418-.592-.819-1.093-1.223a12.269 12.269 0 0 0-1.113-.781z" fill="url(#b)" fill-rule="nonzero"/><path d="M8.115 16.512c-.101 0-.218.18-.038.166.91-.073 1.79-.055 2.547.461l.07-.012.095-.117.02-.03c-.83-.515-1.745-.56-2.694-.468z" fill="#363433" fill-rule="nonzero"/><path d="M9.151 12.89c-.156-.152-.433-1.108-.485-1.859-.076-1.108.246-1.893 1.084-2.126 1.08-.299 2.634 1.94 2.634 3.249 0 1.108-2.248 1.61-3.233.736z" fill="url(#c)" fill-rule="nonzero"/><path d="M12.232 12.154c0-1.226-1.489-3.37-2.44-3.107-.752.209-1.046.927-.975 1.974.05.716.317 1.64.438 1.761.9.796 2.977.332 2.977-.628z" fill="#FFF"/><path d="M10.94 10.445c-.112.61-.56 1.04-1 .959-.442-.08-.71-.64-.598-1.25.111-.61.559-1.04 1-.96.441.081.709.641.598 1.251z" fill="#343231" fill-rule="nonzero"/><path d="M8.065 9.105L8 9.11c-.112.093-.118.058-.107.012-.022.003-.042.009-.063.012-.022.024-.047.05-.082.092l-.064.074-.063.025.063-.074a.505.505 0 0 0 .076-.104c-.017.002-.034.003-.05.006-.063.04-.116.085-.045.012-.998.195-1.587.71-1.92 1.273-.364.612-.411 1.295-.323 1.622v.007c.677 2.341 1.003 3.963 1.03 6.62.19.183.543.396.929.474.254.052.51.047.746-.043.14-.14.238-.347.341-.578.038-.598.337-1.035.834-1.291.003-.001.004-.005.007-.006l-1.245-8.14z" fill="url(#d)" fill-rule="nonzero"/><path d="M7.692.382c0 .11-.06.212-.158.267a.324.324 0 0 1-.317 0A.306.306 0 0 1 7.06.382c0-.11.06-.212.158-.267a.324.324 0 0 1 .317 0 .306.306 0 0 1 .158.267zM14.976 4.954c0 .11-.06.211-.158.267a.324.324 0 0 1-.316 0 .306.306 0 0 1-.159-.267c0-.11.06-.212.159-.267a.324.324 0 0 1 .316 0 .306.306 0 0 1 .158.267z" fill="#413F3E" fill-rule="nonzero"/><path d="M6.244 18.547c-2.34-.062-3.851 2.24-3.682 2.323.28.06.58-.588 1.758-1.553.533-.438 1.946-.586 1.925-.74v-.03z" fill="#FFF" fill-rule="nonzero"/><path d="M6.263 19.199c-2.488 1.062-3.238 2.754-3.26 4.408h7.78c-.001-1.284-.078-2.982-1.985-4.31-.452.387-1.036.45-1.523.35a2.535 2.535 0 0 1-1.012-.448z" fill="#E67E71" fill-rule="nonzero"/><path d="M13.427 11.723c-.329-1.27-.794-2.207-1.298-2.84s-1.056-.982-1.637-1.063c-.582-.081-1.18.102-1.79.491-.608.39-1.376 1.237-1.785 1.808.676-.653 1.311-1.27 1.893-1.642.582-.372 1.137-.533 1.656-.46.52.072 1.016.377 1.498.983.483.606 1.01 1.494 1.463 2.723z" fill="#363433" fill-rule="nonzero"/></g></svg>