<svg xmlns="http://www.w3.org/2000/svg" width="22" height="24" viewBox="0 0 22 24">
  <defs>
    <linearGradient id="logo-atlassian-bamboo-ci-a" x1="50.016%" x2="50.016%" y1="-98.299%" y2="38.217%">
      <stop offset="0%" stop-color="#0052CC"/>
      <stop offset="100%" stop-color="#2684FF"/>
    </linearGradient>
    <linearGradient id="logo-atlassian-bamboo-ci-b" x1="1591%" x2="1591%" y1="1061%" y2="5394%">
      <stop offset="0%" stop-color="#0052CC"/>
      <stop offset="100%" stop-color="#2684FF"/>
    </linearGradient>
  </defs>
  <g fill="none" fill-rule="evenodd" transform="translate(-1)">
    <rect width="24" height="24"/>
    <g fill-rule="nonzero" transform="translate(1.622)">
      <path fill="#2684FF" d="M19.9654054 13.56L15.0064865 13.56C14.6830421 13.5563435 14.4063369 13.7915429 14.3578378 14.1113514 14.0761657 16.1266059 12.3516 17.6255663 10.3167568 17.6237838L11.6594595 23.7567568C16.5240768 23.1212036 20.2682857 19.1478128 20.6140541 14.2540541 20.6266684 14.0742994 20.5639392 13.8973983 20.4409 13.7657464 20.3178609 13.6340945 20.1456016 13.5595579 19.9654054 13.56L19.9654054 13.56zM11.3837838 13.4043243L18.5189189 7.27135135C18.6585408 7.14821641 18.7385268 6.9710274 18.7385268 6.78486486 18.7385268 6.59870232 18.6585408 6.42151332 18.5189189 6.29837838L11.3837838.155675676C11.1912606-.00682517743 10.9220581-.0431488795 10.6933513.0625150792 10.4646444.168179038 10.3178086.396714942 10.3167568.648648649L10.3167568 12.9113514C10.3178086 13.1632851 10.4646444 13.391821 10.6933513 13.4974849 10.9220581 13.6031489 11.1912606 13.5668252 11.3837838 13.4043243z"/>
      <path fill="url(#logo-atlassian-bamboo-ci-a)" d="M0.0972972973,14.8994595 C0.779732908,20.0228554 5.14811166,23.8505589 10.3167568,23.8540541 L10.3167568,17.6237838 C8.07081159,17.6237902 6.24860776,15.8059388 6.24324324,13.56 L0.0972972973,14.8994595 Z"/>
      <path fill="url(#logo-atlassian-bamboo-ci-b)" d="M0,13.4627027 L0,13.56 L6.24324324,13.56 C6.24860776,11.3140612 8.07081159,9.49620981 10.3167568,9.49621622 L8.9772973,3.36324324 C3.88839974,4.02635481 0.0619090144,8.33115688 0,13.4627027"/>
    </g>
  </g>
</svg>
