<svg xmlns="http://www.w3.org/2000/svg" width="24" height="24" viewBox="0 0 24 24">
  <g fill="none" fill-rule="evenodd">
    <rect width="24" height="24"/>
    <g fill-rule="nonzero">
      <path fill="#326CE5" d="M11.8642833,0.363488967 C11.6530506,0.374129816 11.4460873,0.426502709 11.2555352,0.517535179 L2.948726,4.48661549 C2.51319996,4.69461001 2.19686299,5.08797837 2.08925438,5.55537747 L0.0399085773,14.4709348 C-0.055698189,14.885942 0.0220948093,15.3216594 0.255573273,15.6788695 C0.283594913,15.7220925 0.313731924,15.7639297 0.345876224,15.8042313 L6.09551827,22.9530379 C6.396997,23.3277567 6.85409623,23.5459443 7.33744945,23.5458502 L16.557912,23.5437254 C17.0410845,23.5440775 17.4981515,23.3262963 17.7998432,22.9519755 L23.5473604,15.8021065 C23.8490005,15.4271999 23.9620154,14.9364254 23.8543904,14.46881 L21.8018575,5.55325271 C21.6942489,5.08585359 21.377912,4.69248525 20.9423858,4.48449072 L12.6345143,0.517535179 C12.3948284,0.403023552 12.1299825,0.350054377 11.8642833,0.363488967 Z"/>
      <path fill="#FFF" stroke="#FFF" stroke-width=".25" d="M11.946594,3.39757022 C11.6720064,3.3975981 11.449364,3.64492501 11.4493966,3.95001181 C11.4493969,3.95469413 11.4503553,3.9591684 11.4504573,3.96382285 C11.4500527,4.00527671 11.4480503,4.05521743 11.4493966,4.09130936 C11.455945,4.26727476 11.4943024,4.40195118 11.5173894,4.56407187 C11.5592145,4.91106163 11.594261,5.19869501 11.5726336,5.46603901 C11.5516003,5.56685195 11.4773457,5.65905053 11.4111506,5.72313682 L11.3994644,5.93348958 C11.101084,5.95821075 10.8007078,6.00347933 10.5006844,6.07159998 C9.20968417,6.3647231 8.09815573,7.02972305 7.25190292,7.92759123 C7.19699125,7.89012957 7.10092387,7.82121172 7.07235771,7.8001047 C6.98358732,7.81209252 6.89386945,7.8394824 6.77701394,7.77142024 C6.55451053,7.62164465 6.35185932,7.41490232 6.10664733,7.16585928 C5.99428988,7.04672941 5.91292493,6.93328952 5.77943193,6.81845851 C5.74911665,6.79238088 5.7028523,6.75711029 5.66894361,6.73028033 C5.56457873,6.64707175 5.44148386,6.60367703 5.32260523,6.59960665 C5.16976113,6.59437324 5.02262299,6.65413178 4.92633463,6.77490061 C4.7551556,6.98960083 4.80996085,7.31775691 5.04850921,7.50794809 C5.05092976,7.5098757 5.05350736,7.51137425 5.05594593,7.51326004 C5.08872594,7.53983231 5.12886685,7.57388005 5.15899752,7.59612627 C5.30065613,7.70071791 5.43005767,7.75425885 5.57120394,7.83728828 C5.86857051,8.0209304 6.11509102,8.173202 6.31062575,8.35679584 C6.38698236,8.43818902 6.400328,8.58161135 6.4104902,8.64364051 L6.56984835,8.78600046 C5.71676227,10.0698298 5.32194706,11.6556187 5.55526982,13.2714012 L5.34704185,13.3319573 C5.29216145,13.4028265 5.21461191,13.5143391 5.13350023,13.547622 C4.87767286,13.6282006 4.58975357,13.6577904 4.24215697,13.6942315 C4.07896369,13.7078011 3.938155,13.6997032 3.76514491,13.7324774 C3.72706622,13.7396908 3.67401007,13.7535134 3.63234646,13.7632867 C3.63089821,13.7635926 3.62954516,13.764021 3.6280969,13.7643473 C3.62582595,13.7648743 3.62284242,13.7659758 3.6206602,13.7664721 C3.32760642,13.8372795 3.13934793,14.1066402 3.19995467,14.3720331 C3.26057571,14.6374882 3.54682476,14.7989181 3.84163683,14.7353697 C3.84376501,14.7348835 3.84685527,14.7348019 3.84907353,14.734309 C3.85240178,14.7335475 3.85533194,14.7319326 3.85863503,14.7311235 C3.89973159,14.7221022 3.95123342,14.7120651 3.98718393,14.7024391 C4.15727951,14.6568964 4.28046888,14.5899803 4.43338676,14.5313947 C4.76236793,14.4134009 5.03484198,14.3148301 5.30029509,14.2764216 C5.41116348,14.2677382 5.52797276,14.3448278 5.58607736,14.3773484 L5.80280445,14.3401649 C6.30153784,15.8864173 7.34672264,17.1362 8.67018876,17.9204112 L8.57988581,18.1371383 C8.61243464,18.2212937 8.64833451,18.3351573 8.62408861,18.4182655 C8.5275837,18.6685199 8.36228332,18.9326641 8.17405372,19.2271482 C8.08291446,19.363199 7.9896392,19.4687813 7.90739442,19.6244811 C7.8877139,19.6617374 7.86264902,19.718968 7.84365116,19.7583419 C7.71586411,20.0317533 7.809599,20.3466565 8.0550663,20.4648298 C8.30207568,20.5837452 8.60867974,20.4583249 8.74136873,20.1843594 C8.74157271,20.1839718 8.74224244,20.1836863 8.74242943,20.1832987 C8.7425654,20.1829927 8.74229344,20.1825338 8.74242943,20.182238 C8.76132904,20.1433955 8.78810461,20.0923389 8.80404791,20.0558138 C8.87449288,19.8944323 8.89793271,19.7561335 8.94747025,19.6000496 C9.07902341,19.2695997 9.15130147,18.9228742 9.33239725,18.7068243 C9.38198714,18.6476627 9.46283501,18.62491 9.54665688,18.6024675 L9.65926998,18.3984892 C10.8130481,18.8413535 12.1045179,18.9601934 13.394625,18.6672732 C13.6889309,18.6004509 13.9730548,18.5139681 14.2477223,18.4101755 C14.2793723,18.4663147 14.3381912,18.5742318 14.3539611,18.6014052 C14.4391421,18.6291184 14.5321173,18.6434294 14.6078717,18.7554515 C14.7433606,18.9869322 14.8360181,19.2607794 14.9488982,19.5915505 C14.9984439,19.7476317 15.0229294,19.8859366 15.0933828,20.0473148 C15.1094407,20.0840973 15.1360823,20.1358706 15.1550014,20.1748013 C15.2874113,20.4496569 15.5949869,20.5755058 15.8423662,20.4563341 C16.0878032,20.3380979 16.1816414,20.0232233 16.0537813,19.7498462 C16.0347811,19.7104736 16.0086578,19.6532407 15.9889757,19.6159853 C15.9067227,19.46029 15.8134625,19.3557606 15.7223164,19.2197148 C15.5340711,18.9252406 15.3779436,18.6806101 15.2814254,18.4303608 C15.241068,18.3012911 15.2882344,18.2210198 15.3196715,18.1371418 C15.3008449,18.1155619 15.2605582,17.9936738 15.2368053,17.9363506 C16.6122114,17.124239 17.6267036,15.8278496 18.1031271,14.3306068 C18.1674619,14.340718 18.2792809,14.3605019 18.3156046,14.3677904 C18.3903811,14.3184718 18.4591355,14.2541227 18.5939503,14.2647387 C18.859405,14.3031333 19.1318712,14.4017351 19.4608586,14.5197118 C19.6137795,14.5782896 19.7369637,14.6462848 19.9070614,14.6918186 C19.9430122,14.7014426 19.9945131,14.7104214 20.0356103,14.7194407 C20.0389148,14.7202498 20.0418418,14.721868 20.0451717,14.7226261 C20.0473917,14.7231225 20.0504803,14.7232007 20.0526085,14.7236868 C20.3474375,14.7871564 20.6337376,14.625821 20.6942906,14.3603502 C20.7548294,14.0949417 20.5666579,13.8255184 20.2735851,13.7547893 C20.230956,13.7450959 20.1704996,13.7286331 20.1291004,13.7207929 C19.9560886,13.6880278 19.8152824,13.6961081 19.6520883,13.6825469 C19.3044901,13.6461238 19.0165765,13.6165024 18.7607451,13.5359374 C18.6564353,13.4954722 18.582229,13.3713526 18.5461411,13.3202727 L18.3453499,13.2618414 C18.4494557,12.5086707 18.4213845,11.7248184 18.2412359,10.9405243 C18.0594098,10.1489279 17.7380764,9.42493603 17.3095219,8.78706454 C17.361028,8.74024164 17.4582966,8.65410766 17.4858782,8.62876878 C17.4939408,8.53955644 17.4870137,8.44602009 17.5793683,8.34723606 C17.7748932,8.16363201 18.0214334,8.01138625 18.3187901,7.82772849 C18.459932,7.74469158 18.5904058,7.69116561 18.732059,7.58656648 C18.764092,7.56291315 18.8078335,7.52545489 18.8414848,7.49838831 C19.0799825,7.3081332 19.1348935,6.97999684 18.9636594,6.76534081 C18.7924253,6.5506848 18.4606106,6.53046544 18.2221129,6.72072053 C18.1881653,6.74760659 18.1421013,6.78267967 18.1116246,6.80889872 C17.9781376,6.92373721 17.895698,7.03716385 17.7833468,7.15629948 C17.538148,7.40535545 17.3354757,7.61313535 17.1129801,7.76292283 C17.016566,7.81905295 16.8753466,7.79963147 16.8112603,7.79585685 L16.6221554,7.93078009 C15.5438302,6.80004027 14.0756662,6.07711045 12.4947861,5.93667674 C12.4903645,5.87042727 12.4845718,5.75067664 12.4830998,5.71463772 C12.4183805,5.65270817 12.3401986,5.59983662 12.3205545,5.46603901 C12.298927,5.19869501 12.3350359,4.91106163 12.376861,4.56407187 C12.399948,4.40195118 12.4383054,4.26727476 12.4448538,4.09130936 C12.4463429,4.05130817 12.4439529,3.99326339 12.4437931,3.95001181 C12.4437605,3.64492501 12.2211833,3.39754235 11.9465957,3.39757022 L11.946594,3.39757022 Z M11.3240348,7.25403745 L11.176363,9.86219916 L11.1657391,9.8675111 C11.1558346,10.1008403 10.9638018,10.2871542 10.7280354,10.2871542 C10.631458,10.2871542 10.542315,10.2561396 10.4698752,10.2032256 L10.4656256,10.2053504 L8.32703925,8.68932318 C8.98431385,8.04301242 9.82501979,7.56538877 10.7939034,7.34540279 C10.9708883,7.30521801 11.1477944,7.27540079 11.3240348,7.25403745 Z M12.5702156,7.25403745 C13.7013939,7.39316161 14.7475157,7.90536846 15.5491507,8.69038557 L13.4243753,10.1968513 L13.4169385,10.1936658 C13.2283452,10.3314087 12.96263,10.2972321 12.8156271,10.1129244 C12.7554086,10.0374197 12.7238124,9.94864047 12.7200122,9.8590137 L12.7178875,9.85795301 L12.5702156,7.25403745 Z M7.55149625,9.66353267 L9.50416478,11.410098 L9.50204,11.4207219 C9.67828994,11.5739426 9.70428053,11.8398275 9.55728416,12.0241581 C9.49706973,12.0996658 9.41646833,12.1503099 9.3299332,12.1739547 L9.32780842,12.1824538 L6.82482308,12.9048774 C6.69742904,11.7399848 6.97197823,10.6076166 7.55149625,9.66353267 Z M16.3278807,9.66459335 C16.6180094,10.1348507 16.8377095,10.6600809 16.9685005,11.2294904 C17.0977229,11.7920724 17.1301531,12.3536485 17.076864,12.8963766 L14.5611301,12.1718282 L14.5590053,12.1612044 C14.3337281,12.0996355 14.1952801,11.87048 14.2477257,11.6406344 C14.2692124,11.5464773 14.3191936,11.466823 14.3868985,11.4079715 L14.3858378,11.4026596 L16.3278824,9.66459335 L16.3278807,9.66459335 Z M11.5460739,11.5450195 L12.3460518,11.5450195 L12.8432492,12.1665163 L12.6647681,12.9420593 L11.946594,13.2873353 L11.2262952,12.9409969 L11.0478141,12.1654539 L11.5460739,11.5450195 Z M14.1106777,13.6719196 C14.1446731,13.6702028 14.1785202,13.6732659 14.2116045,13.6793563 L14.2158541,13.6740444 L16.8048928,14.1117481 C16.4259859,15.176281 15.700934,16.0985041 14.7321745,16.7156602 L13.7271557,14.2881045 L13.7303412,14.2838549 C13.6380202,14.0693379 13.7304092,13.8177792 13.9428187,13.7154775 C13.9972011,13.6892864 14.0540172,13.6747835 14.110676,13.6719196 L14.1106777,13.6719196 Z M9.76232498,13.6825435 C9.95990325,13.6853142 10.1371224,13.8224472 10.1830305,14.0235699 C10.2045227,14.1177257 10.1940623,14.2110176 10.1585956,14.2934164 L10.1660323,14.3029779 L9.17163743,16.7060988 C8.2419323,16.1095094 7.50141886,15.2162393 7.10529343,14.1202489 L9.67202202,13.68467 L9.67627158,13.6899819 C9.70498188,13.6846985 9.73409947,13.6821491 9.76232498,13.6825452 L9.76232498,13.6825435 Z M11.9306582,14.7353714 C11.9994822,14.732842 12.0693176,14.7469635 12.135699,14.7789293 C12.2227132,14.8208309 12.2899315,14.8868063 12.3322407,14.9659094 L12.3418022,14.9659094 L13.6071059,17.2521678 C13.4428934,17.3072157 13.2740741,17.3542616 13.1014094,17.3934653 C12.1337177,17.6131807 11.1691006,17.5466079 10.2956436,17.2489806 L11.5577601,14.966972 L11.5598849,14.966972 C11.6356177,14.825397 11.7792457,14.7409342 11.9306582,14.7353714 Z"/>
    </g>
  </g>
</svg>
