<svg xmlns="http://www.w3.org/2000/svg" width="24" height="23" viewBox="0 0 24 23">
  <g fill="none" fill-rule="evenodd">
    <rect width="24" height="24"/>
    <g fill="#205281" fill-rule="nonzero" transform="translate(0 .5)">
      <path d="M18.501171,12.7614855 C18.501171,12.5287391 18.3255269,12.2959927 18.0327869,12.2959927 C17.9156909,12.2959927 17.7985948,12.3541793 17.7400468,12.4123659 C16.5690867,13.4597248 14.5199063,14.3907104 12.0608899,14.3907104 L12.0608899,14.3907104 C9.60187354,14.3907104 7.66978923,13.4015382 6.38173302,12.4123659 C6.32318501,12.3541793 6.14754098,12.2959927 6.08899297,12.2959927 C5.79625293,12.2959927 5.6206089,12.5287391 5.6206089,12.8196721 C5.6206089,13.0524185 5.73770492,13.2269783 5.91334895,13.4015382 C6.61592506,14.3907104 8.78220141,16.194495 12.0608899,16.194495 L12.1194379,16.194495 C15.3981265,16.194495 17.5644028,14.448897 18.2669789,13.3433515 C18.3255269,13.1687917 18.501171,12.9360453 18.501171,12.7614855 L18.501171,12.7614855 Z"/>
      <path d="M18.559719,19.9184376 C18.618267,19.9766242 18.618267,20.0348108 18.618267,20.0348108 C18.618267,20.0929974 18.559719,20.151184 18.501171,20.151184 C17.9156909,20.151184 16.0421546,19.1620117 15.1053864,18.4055859 C14.9882904,18.2892127 14.8126464,18.2310261 14.5199063,18.2892127 C13.7587822,18.4637725 12.8805621,18.5801457 12.0608899,18.5801457 C6.61592506,18.5801457 2.22482436,14.9725764 2.22482436,10.4922081 C2.22482436,6.01183971 6.61592506,2.40427039 12.0608899,2.40427039 C17.5058548,2.40427039 21.8969555,6.01183971 21.8969555,10.4922081 C21.8969555,13.1106051 20.3747073,15.4962558 17.9156909,16.9509209 C17.7400468,17.0672941 17.5644028,17.2418539 17.5644028,17.4746003 C17.5644028,17.9982797 18.0327869,19.1620117 18.559719,19.9184376 L18.559719,19.9184376 Z M21.7213115,20.8494232 C20.9016393,20.3839304 20.1405152,19.569318 19.7306792,18.4637725 C19.6721311,18.2310261 19.7306792,18.0564663 19.9063232,17.9400931 C22.3653396,16.1363084 23.8290398,13.4015382 23.8290398,10.3758349 C23.8290398,4.78992107 18.559719,0.25136612 12.0608899,0.25136612 C5.56206089,0.309552722 0.292740047,4.84810767 0.292740047,10.3758349 C0.292740047,15.9617486 5.56206089,20.5003036 12.0608899,20.5003036 C12.8805621,20.5003036 13.7002342,20.442117 14.5199063,20.2675572 C14.6955504,20.2093706 14.8711944,20.2675572 14.9882904,20.3839304 C16.5690867,21.3731026 19.028103,22.187715 21.0772834,22.187715 C21.7213115,22.187715 22.0140515,21.7804088 22.0140515,21.3731026 C22.1311475,21.1985428 21.8969555,21.023983 21.7213115,20.8494232 L21.7213115,20.8494232 Z"/>
    </g>
  </g>
</svg>
