<svg xmlns="http://www.w3.org/2000/svg" width="24" height="18" viewBox="0 0 24 18">
  <g fill="none" fill-rule="evenodd" transform="translate(0 -3)">
    <rect width="24" height="24"/>
    <g fill-rule="nonzero" transform="translate(0 3.83)">
      <path fill="#C1372B" d="M7.06340426,1.61182979 L9.35208511,4.27710638 C9.45038298,4.40374468 9.32017021,4.49770213 9.32017021,4.49770213 C8.40306383,4.99225532 7.73948936,5.73982979 7.17165957,6.59565957 C7.05906383,6.76570213 6.93753191,6.64238298 6.93753191,6.64238298 L4.0373617,4.47038298 C4.0373617,4.47038298 3.91276596,4.39710638 4.02178723,4.25234043 C4.87097872,3.12459574 5.64255319,2.3292766 6.876,1.5786383 C6.876,1.5786383 6.96944681,1.49029787 7.06340426,1.61182979"/>
      <path fill="#B52F2B" d="M3.00331915,5.95378723 L6.43097872,7.61080851 C6.59387234,7.67387234 6.51242553,7.82221277 6.51242553,7.82221277 C6.03880851,8.94893617 5.75029787,9.90025532 5.52765957,11.0530213 C5.49038298,11.2460426 5.35940426,11.1842553 5.35940426,11.1842553 L1.50408511,9.51012766 C1.50408511,9.51012766 1.38842553,9.46697872 1.43668085,9.31838298 C1.60774468,8.79114894 2.47991489,6.68578723 2.82995745,5.99770213 C2.82995745,5.99770213 2.89123404,5.8932766 3.00331915,5.95378723"/>
      <path fill="#9A2728" d="M1.08561702,11.2761702 C1.86970213,11.5177021 5.15948936,12.2754894 5.15948936,12.2754894 C5.35634043,12.3362553 5.29761702,12.4840851 5.29761702,12.4840851 C5.0706383,14.2713191 5.12017021,15.635234 5.12017021,16.1065532 C5.12017021,16.3154043 4.968,16.284766 4.968,16.284766 C4.11395745,16.284766 0.167234043,16.284766 0.167234043,16.284766 C-0.0416170213,16.284766 0.00434042553,16.0968511 0.00434042553,16.0968511 C0.0434042553,15.5014468 0.215234043,13.8074043 0.877021277,11.3785532 C0.877021277,11.3785532 0.909957447,11.2222979 1.08561702,11.2761702"/>
      <path fill="#C1372B" d="M16.794383,1.61182979 L14.5057021,4.27710638 C14.4074043,4.40374468 14.537617,4.49770213 14.537617,4.49770213 C15.4547234,4.99225532 16.1182979,5.73982979 16.6861277,6.59565957 C16.7987234,6.76570213 16.9202553,6.64238298 16.9202553,6.64238298 L19.8204255,4.47038298 C19.8204255,4.47038298 19.9450213,4.39710638 19.836,4.25234043 C18.9868085,3.12459574 18.215234,2.3292766 16.9817872,1.5786383 C16.9817872,1.5786383 16.8883404,1.49029787 16.794383,1.61182979"/>
      <path fill="#CD4E43" d="M11.9290213,3.89310638 C12.3140426,3.89310638 13.0274043,3.92987234 13.3641702,3.98578723 C13.5400851,4.01489362 13.5834894,3.8987234 13.5834894,3.8987234 L15.0242553,0.888255319 C15.0242553,0.888255319 15.1205106,0.774893617 14.9188085,0.701106383 C13.8434043,0.307659574 13.2714894,0.126638298 11.9290213,0.126638298 C10.602383,0.126638298 10.014383,0.307659574 8.93897872,0.701106383 C8.7372766,0.774893617 8.83353191,0.888255319 8.83353191,0.888255319 L10.2742979,3.8987234 C10.2742979,3.8987234 10.3177021,4.01489362 10.493617,3.98578723 C10.830383,3.92987234 11.5434894,3.89310638 11.9290213,3.89310638"/>
      <path fill="#B52F2B" d="M20.8544681,5.95378723 L17.4268085,7.61080851 C17.2639149,7.67387234 17.3453617,7.82221277 17.3453617,7.82221277 C17.8189787,8.94893617 18.1074894,9.90025532 18.3301277,11.0530213 C18.3674043,11.2460426 18.498383,11.1842553 18.498383,11.1842553 L22.3537021,9.51012766 C22.3537021,9.51012766 22.4693617,9.46697872 22.4211064,9.31838298 C22.2500426,8.79114894 21.3778723,6.68578723 21.0278298,5.99770213 C21.0278298,5.99770213 20.9665532,5.8932766 20.8544681,5.95378723"/>
      <path fill="#9A2728" d="M22.7721702,11.2761702 C21.9880851,11.5177021 18.6982979,12.2754894 18.6982979,12.2754894 C18.5011915,12.3362553 18.5599149,12.4840851 18.5599149,12.4840851 C18.7871489,14.2713191 18.737617,15.635234 18.737617,16.1065532 C18.737617,16.3154043 18.8897872,16.284766 18.8897872,16.284766 C19.7438298,16.284766 23.6905532,16.284766 23.6905532,16.284766 C23.8991489,16.284766 23.8534468,16.0968511 23.8534468,16.0968511 C23.814383,15.5014468 23.6425532,13.8074043 22.980766,11.3785532 C22.980766,11.3785532 22.9478298,11.2222979 22.7721702,11.2761702"/>
    </g>
  </g>
</svg>
