<svg xmlns="http://www.w3.org/2000/svg" width="24" height="24" viewBox="0 0 24 24">
  <defs>
    <linearGradient id="logo-jetbrains-team-city-a" x1="93.679%" x2="34.254%" y1="70.421%" y2="39.276%">
      <stop offset="6%" stop-color="#0CB0F2"/>
      <stop offset="21%" stop-color="#10ADF2"/>
      <stop offset="37%" stop-color="#1EA5F3"/>
      <stop offset="54%" stop-color="#3497F5"/>
      <stop offset="71%" stop-color="#5283F7"/>
      <stop offset="88%" stop-color="#796AF9"/>
      <stop offset="97%" stop-color="#905CFB"/>
    </linearGradient>
    <linearGradient id="logo-jetbrains-team-city-b" x1="25.882%" x2="50.914%" y1="84.193%" y2="42.509%">
      <stop offset="6%" stop-color="#0CB0F2"/>
      <stop offset="20%" stop-color="#0DB2EE"/>
      <stop offset="35%" stop-color="#12B7E0"/>
      <stop offset="51%" stop-color="#19C0CA"/>
      <stop offset="68%" stop-color="#23CCAC"/>
      <stop offset="85%" stop-color="#30DC85"/>
      <stop offset="97%" stop-color="#3BEA62"/>
    </linearGradient>
    <linearGradient id="logo-jetbrains-team-city-c" x1="4862%" x2="8812%" y1="-53242.066%" y2="-49058.2%">
      <stop offset="6%" stop-color="#0CB0F2"/>
      <stop offset="20%" stop-color="#0DB2EE"/>
      <stop offset="35%" stop-color="#12B7E0"/>
      <stop offset="51%" stop-color="#19C0CA"/>
      <stop offset="68%" stop-color="#23CCAC"/>
      <stop offset="85%" stop-color="#30DC85"/>
      <stop offset="97%" stop-color="#3BEA62"/>
    </linearGradient>
  </defs>
  <g fill="none" fill-rule="evenodd">
    <rect width="24" height="24"/>
    <g fill-rule="nonzero">
      <path fill="url(#logo-jetbrains-team-city-a)" d="M8.47753846,0.723692308 C8.15294142,0.560880646 7.81026366,0.436946562 7.45661538,0.354461538 C2.712,-0.771692308 -0.814153846,3.88061538 1.12430769,8.10830769 C1.14276923,8.12676923 4.57661538,15.6590769 5.13046154,16.8590769 C5.13046154,16.8590769 11.4443077,13.9606154 12.7366154,10.9883077 C13.9329231,8.21907692 11.9150769,3.16430769 11.5458462,2.40553846 L8.47753846,0.723692308 Z"/>
      <path fill="#0CB0F2" d="M22.7427692,9.12553846 C22.3419247,8.51110078 21.7968502,8.00405468 21.1550769,7.64861538 C21.1366154,7.64861538 16.7058462,5.21169231 16.7058462,5.21169231 C16.7058462,5.21169231 1.49353846,14.0307692 1.47692308,14.0547692 C-0.24,16.0116923 -0.627692308,19.1132308 1.34769231,21.8086154 C1.94324169,22.619133 2.78524014,23.2150089 3.74769231,23.5070769 C5.53846154,24.0609231 7.12615385,23.8393846 8.45538462,23.1378462 C8.49230769,23.1193846 20.9538462,16.5101538 20.9907692,16.4732308 C23.4258462,15.1993846 24.5538462,11.9501538 22.7427692,9.12553846 L22.7427692,9.12553846 Z"/>
      <path fill="url(#logo-jetbrains-team-city-b)" d="M7.09292308,7.18892308 L3.03138462,12.1735385 L1.45661538,14.0547692 C-0.260307692,16.0116923 -0.648,19.1132308 1.32738462,21.8086154 C1.922934,22.619133 2.76493244,23.2150089 3.72738462,23.5070769 C5.51815385,24.0609231 7.12430769,23.8393846 8.45353846,23.1378462 C8.45353846,23.1378462 8.76738462,22.9716923 9.30276923,22.6763077 C10.9901538,21.7643077 13.3181538,15.6332308 14.9058462,10.8923077 L7.09292308,7.18892308 Z"/>
      <path fill="url(#logo-jetbrains-team-city-c)" d="M13.4769231,11.9870769 L16.7058462,5.16923077 C16.7058462,5.15903474 16.7141117,5.15076923 16.7243077,5.15076923 C16.7427692,5.09538462 17.0012308,4.43076923 17.0196923,4.39384615 C17.4051326,3.42116125 17.2805142,2.32036495 16.6873846,1.45846154 C16.3149519,0.868833836 15.7242017,0.45066233 15.0443077,0.295384615 C13.8762885,-0.0154156666 12.6353198,0.398240557 11.8873846,1.34769231 C11.8689231,1.36615385 11.1673846,2.17846154 11.1673846,2.17846154 L5.99815385,8.54769231 L13.4769231,11.9870769 Z"/>
      <g transform="translate(4.246 4.43)">
        <polygon fill="#000" points=".183 .172 14.952 .172 14.952 14.941 .183 14.941"/>
        <path fill="#FFF" d="M3.65353846,3.43938462 L1.65969231,3.43938462 L1.65969231,2.14707692 L7.06892308,2.14707692 L7.06892308,3.43938462 L5.09353846,3.43938462 L5.09353846,8.53292308 L3.65353846,8.53292308 L3.65353846,3.43938462 L3.65353846,3.43938462 Z M7.06892308,5.35384615 C7.06892308,3.50769231 8.43507692,2.01230769 10.4104615,2.01230769 C11.6104615,2.01230769 12.3489231,2.41846154 12.9396923,3.00923077 L12.0350769,4.04307692 C11.5366154,3.6 11.0381538,3.32307692 10.392,3.32307692 C9.32123077,3.32307692 8.52738462,4.22769231 8.52738462,5.31692308 L8.52738462,5.33538462 C8.52738462,6.44307692 9.28430769,7.34769231 10.392,7.34769231 C11.1304615,7.34769231 11.5735385,7.05230769 12.072,6.59076923 L12.9766154,7.49538462 C12.312,8.19692308 11.592,8.64 10.3550769,8.64 C9.47758924,8.6598869 8.63013864,8.32005809 8.00950182,7.69942126 C7.38886499,7.07878444 7.04903618,6.23133384 7.06892308,5.35384615 L7.06892308,5.35384615 Z M1.65969231,11.9870769 L7.06892308,11.9870769 L7.06892308,12.9655385 L1.65969231,12.9655385 L1.65969231,11.9870769 Z"/>
      </g>
    </g>
  </g>
</svg>
