<?xml version="1.0" encoding="utf-8"?><svg xmlns="http://www.w3.org/2000/svg" xmlns:xlink="http://www.w3.org/1999/xlink"><symbol viewBox="0 0 1792 1792" id="clock_o" xmlns="http://www.w3.org/2000/svg"><path d="M1024 544v448q0 14-9 23t-23 9H672q-14 0-23-9t-9-23v-64q0-14 9-23t23-9h224V544q0-14 9-23t23-9h64q14 0 23 9t9 23zm416 352q0-148-73-273t-198-198-273-73-273 73-198 198-73 273 73 273 198 198 273 73 273-73 198-198 73-273zm224 0q0 209-103 385.5T1281.5 1561 896 1664t-385.5-103T231 1281.5 128 896t103-385.5T510.5 231 896 128t385.5 103T1561 510.5 1664 896z"/></symbol><symbol viewBox="0 0 36 18" id="commit" xmlns="http://www.w3.org/2000/svg"><path d="M34 7h-7.2c-.9-4-4.5-7-8.8-7s-7.9 3-8.8 7H2C.9 7 0 7.9 0 9s.9 2 2 2h7.2c.9 4 4.5 7 8.8 7s7.9-3 8.8-7H34c1.1 0 2-.9 2-2s-.9-2-2-2m-16 7c-2.8 0-5-2.2-5-5s2.2-5 5-5 5 2.2 5 5-2.2 5-5 5"/></symbol><symbol viewBox="0 0 16 16" id="project" xmlns="http://www.w3.org/2000/svg"><path d="M8.462 2.177l-.038.044a.505.505 0 0 0 .038-.044zm-.787 0a.5.5 0 0 0 .038.043l-.038-.043zM3.706 7h8.725L8.069 2.585 3.706 7zM7 13.369V12a1 1 0 0 1 2 0v1.369h3V9H4v4.369h3zM14 9v4.836c0 .833-.657 1.533-1.5 1.533h-9c-.843 0-1.5-.7-1.5-1.533V9h-.448a1.1 1.1 0 0 1-.783-1.873L6.934.887a1.5 1.5 0 0 1 2.269 0l6.165 6.24A1.1 1.1 0 0 1 14.585 9H14z"/></symbol></svg>