<svg xmlns="http://www.w3.org/2000/svg" width="214" height="102" viewBox="0 0 214 102" xmlns:xlink="http://www.w3.org/1999/xlink">
  <defs>
    <path id="b" d="M2,0 L46,0 C47.1045695,-2.02906125e-16 48,0.8954305 48,2 L48,27 C48,28.1045695 47.1045695,29 46,29 L2,29 C0.8954305,29 1.3527075e-16,28.1045695 0,27 L0,2 C-1.3527075e-16,0.8954305 0.8954305,2.02906125e-16 2,0 Z"/>
    <filter id="a" width="102.1%" height="106.9%" x="-1%" y="-1.7%" filterUnits="objectBoundingBox">
      <feOffset dy="1" in="SourceAlpha" result="shadowOffsetOuter1"/>
      <feColorMatrix values="0 0 0 0 0 0 0 0 0 0 0 0 0 0 0 0 0 0 0.05 0" in="shadowOffsetOuter1"/>
    </filter>
    <path id="d" d="M2,0 L46,0 C47.1045695,-2.02906125e-16 48,0.8954305 48,2 L48,26 C48,27.1045695 47.1045695,28 46,28 L2,28 C0.8954305,28 1.3527075e-16,27.1045695 0,26 L0,2 C-1.3527075e-16,0.8954305 0.8954305,2.02906125e-16 2,0 Z"/>
    <filter id="c" width="102.1%" height="107.1%" x="-1%" y="-1.8%" filterUnits="objectBoundingBox">
      <feOffset dy="1" in="SourceAlpha" result="shadowOffsetOuter1"/>
      <feColorMatrix values="0 0 0 0 0 0 0 0 0 0 0 0 0 0 0 0 0 0 0.05 0" in="shadowOffsetOuter1"/>
    </filter>
    <path id="e" d="M5,0 L53,0 C55.7614237,-5.07265313e-16 58,2.23857625 58,5 L58,91 C58,93.7614237 55.7614237,96 53,96 L5,96 C2.23857625,96 3.38176876e-16,93.7614237 0,91 L0,5 C-3.38176876e-16,2.23857625 2.23857625,5.07265313e-16 5,0 Z"/>
    <path id="h" d="M2,0 L46,0 C47.1045695,-2.02906125e-16 48,0.8954305 48,2 L48,26 C48,27.1045695 47.1045695,28 46,28 L2,28 C0.8954305,28 1.3527075e-16,27.1045695 0,26 L0,2 C-1.3527075e-16,0.8954305 0.8954305,2.02906125e-16 2,0 Z"/>
    <filter id="g" width="102.1%" height="107.1%" x="-1%" y="-1.8%" filterUnits="objectBoundingBox">
      <feOffset dy="1" in="SourceAlpha" result="shadowOffsetOuter1"/>
      <feColorMatrix values="0 0 0 0 0 0 0 0 0 0 0 0 0 0 0 0 0 0 0.05 0" in="shadowOffsetOuter1"/>
    </filter>
    <path id="j" d="M2,0 L46,0 C47.1045695,-2.02906125e-16 48,0.8954305 48,2 L48,26 C48,27.1045695 47.1045695,28 46,28 L2,28 C0.8954305,28 1.3527075e-16,27.1045695 0,26 L0,2 C-1.3527075e-16,0.8954305 0.8954305,2.02906125e-16 2,0 Z"/>
    <filter id="i" width="102.1%" height="107.1%" x="-1%" y="-1.8%" filterUnits="objectBoundingBox">
      <feOffset dy="1" in="SourceAlpha" result="shadowOffsetOuter1"/>
      <feColorMatrix values="0 0 0 0 0 0 0 0 0 0 0 0 0 0 0 0 0 0 0.05 0" in="shadowOffsetOuter1"/>
    </filter>
    <path id="l" d="M2,0 L46,0 C47.1045695,-2.02906125e-16 48,0.8954305 48,2 L48,26 C48,27.1045695 47.1045695,28 46,28 L2,28 C0.8954305,28 1.3527075e-16,27.1045695 0,26 L0,2 C-1.3527075e-16,0.8954305 0.8954305,2.02906125e-16 2,0 Z"/>
    <filter id="k" width="102.1%" height="107.1%" x="-1%" y="-1.8%" filterUnits="objectBoundingBox">
      <feOffset dy="1" in="SourceAlpha" result="shadowOffsetOuter1"/>
      <feColorMatrix values="0 0 0 0 0 0 0 0 0 0 0 0 0 0 0 0 0 0 0.05 0" in="shadowOffsetOuter1"/>
    </filter>
    <path id="n" d="M2,0 L46,0 C47.1045695,-2.02906125e-16 48,0.8954305 48,2 L48,26 C48,27.1045695 47.1045695,28 46,28 L2,28 C0.8954305,28 1.3527075e-16,27.1045695 0,26 L0,2 C-1.3527075e-16,0.8954305 0.8954305,2.02906125e-16 2,0 Z"/>
    <filter id="m" width="102.1%" height="107.1%" x="-1%" y="-1.8%" filterUnits="objectBoundingBox">
      <feOffset dy="1" in="SourceAlpha" result="shadowOffsetOuter1"/>
      <feColorMatrix values="0 0 0 0 0 0 0 0 0 0 0 0 0 0 0 0 0 0 0.05 0" in="shadowOffsetOuter1"/>
    </filter>
    <path id="p" d="M2,0 L46,0 C47.1045695,-2.02906125e-16 48,0.8954305 48,2 L48,26 C48,27.1045695 47.1045695,28 46,28 L2,28 C0.8954305,28 1.3527075e-16,27.1045695 0,26 L0,2 C-1.3527075e-16,0.8954305 0.8954305,2.02906125e-16 2,0 Z"/>
    <filter id="o" width="102.1%" height="107.1%" x="-1%" y="-1.8%" filterUnits="objectBoundingBox">
      <feOffset dy="1" in="SourceAlpha" result="shadowOffsetOuter1"/>
      <feColorMatrix values="0 0 0 0 0 0 0 0 0 0 0 0 0 0 0 0 0 0 0.05 0" in="shadowOffsetOuter1"/>
    </filter>
  </defs>
  <g fill="none" fill-rule="evenodd">
    <path fill="#D6D4DE" d="M14,21 L62,21 C64.7614237,21 67,23.2385763 67,26 L67,112 C67,114.761424 64.7614237,117 62,117 L14,117 C11.2385763,117 9,114.761424 9,112 L9,26 C9,23.2385763 11.2385763,21 14,21 Z"/>
    <g transform="translate(11 23)">
      <path fill="#FFFFFF" d="M5,0 L53,0 C55.7614237,-5.07265313e-16 58,2.23857625 58,5 L58,91 C58,93.7614237 55.7614237,96 53,96 L5,96 C2.23857625,96 3.38176876e-16,93.7614237 0,91 L0,5 C-3.38176876e-16,2.23857625 2.23857625,5.07265313e-16 5,0 Z"/>
      <path fill="#FC6D26" d="M4,0 L54,0 C56.209139,-4.05812251e-16 58,1.790861 58,4 L0,4 C-2.705415e-16,1.790861 1.790861,4.05812251e-16 4,0 Z"/>
      <g transform="translate(5 10)">
        <use fill="black" filter="url(#a)" xlink:href="#b"/>
        <use fill="#F9F9F9" xlink:href="#b"/>
      </g>
      <g transform="translate(5 42)">
        <use fill="black" filter="url(#c)" xlink:href="#d"/>
        <use fill="#FEF0E8" xlink:href="#d"/>
        <path fill="#FEE1D3" d="M9,8 L33,8 C34.1045695,8 35,8.8954305 35,10 C35,11.1045695 34.1045695,12 33,12 L9,12 C7.8954305,12 7,11.1045695 7,10 C7,8.8954305 7.8954305,8 9,8 Z"/>
        <path fill="#FDC4A8" d="M9,17 L17,17 C18.1045695,17 19,17.8954305 19,19 C19,20.1045695 18.1045695,21 17,21 L9,21 C7.8954305,21 7,20.1045695 7,19 C7,17.8954305 7.8954305,17 9,17 Z"/>
        <path fill="#FC6D26" d="M24,17 L32,17 C33.1045695,17 34,17.8954305 34,19 C34,20.1045695 33.1045695,21 32,21 L24,21 C22.8954305,21 22,20.1045695 22,19 C22,17.8954305 22.8954305,17 24,17 Z"/>
      </g>
    </g>
    <path fill="#D6D4DE" d="M148,26 L196,26 C198.761424,26 201,28.2385763 201,31 L201,117 C201,119.761424 198.761424,122 196,122 L148,122 C145.238576,122 143,119.761424 143,117 L143,31 C143,28.2385763 145.238576,26 148,26 Z"/>
    <g transform="translate(145 28)">
      <mask id="f" fill="white">
        <use xlink:href="#e"/>
      </mask>
      <use fill="#FFFFFF" xlink:href="#e"/>
      <path fill="#FC6D26" d="M4,0 L54,0 C56.209139,-4.05812251e-16 58,1.790861 58,4 L0,4 C-2.705415e-16,1.790861 1.790861,4.05812251e-16 4,0 Z" mask="url(#f)"/>
      <g transform="translate(5 10)">
        <use fill="black" filter="url(#g)" xlink:href="#h"/>
        <use fill="#F9F9F9" xlink:href="#h"/>
      </g>
      <g transform="translate(5 42)">
        <use fill="black" filter="url(#i)" xlink:href="#j"/>
        <use fill="#FEF0E8" xlink:href="#j"/>
        <path fill="#FEE1D3" d="M9 8L33 8C34.1045695 8 35 8.8954305 35 10 35 11.1045695 34.1045695 12 33 12L9 12C7.8954305 12 7 11.1045695 7 10 7 8.8954305 7.8954305 8 9 8zM9 17L13 17C14.1045695 17 15 17.8954305 15 19 15 20.1045695 14.1045695 21 13 21L9 21C7.8954305 21 7 20.1045695 7 19 7 17.8954305 7.8954305 17 9 17z"/>
        <path fill="#FC6D26" d="M20,17 L24,17 C25.1045695,17 26,17.8954305 26,19 C26,20.1045695 25.1045695,21 24,21 L20,21 C18.8954305,21 18,20.1045695 18,19 C18,17.8954305 18.8954305,17 20,17 Z"/>
        <path fill="#FDC4A8" d="M31,17 L35,17 C36.1045695,17 37,17.8954305 37,19 C37,20.1045695 36.1045695,21 35,21 L31,21 C29.8954305,21 29,20.1045695 29,19 C29,17.8954305 29.8954305,17 31,17 Z"/>
      </g>
    </g>
    <path fill="#D6D4DE" d="M81,14 L129,14 C131.761424,14 134,16.2385763 134,19 L134,105 C134,107.761424 131.761424,110 129,110 L81,110 C78.2385763,110 76,107.761424 76,105 L76,19 C76,16.2385763 78.2385763,14 81,14 Z"/>
    <g transform="translate(78 16)">
      <path fill="#FFFFFF" d="M5,0 L53,0 C55.7614237,-5.07265313e-16 58,2.23857625 58,5 L58,91 C58,93.7614237 55.7614237,96 53,96 L5,96 C2.23857625,96 3.38176876e-16,93.7614237 0,91 L0,5 C-3.38176876e-16,2.23857625 2.23857625,5.07265313e-16 5,0 Z"/>
      <g transform="translate(5 10)">
        <use fill="black" filter="url(#k)" xlink:href="#l"/>
        <use fill="#EFEDF8" xlink:href="#l"/>
        <path fill="#E1DBF1" d="M9,8 L33,8 C34.1045695,8 35,8.8954305 35,10 C35,11.1045695 34.1045695,12 33,12 L9,12 C7.8954305,12 7,11.1045695 7,10 C7,8.8954305 7.8954305,8 9,8 Z"/>
        <path fill="#6B4FBB" d="M9,17 L13,17 C14.1045695,17 15,17.8954305 15,19 C15,20.1045695 14.1045695,21 13,21 L9,21 C7.8954305,21 7,20.1045695 7,19 C7,17.8954305 7.8954305,17 9,17 Z"/>
        <path fill="#C3B8E3" d="M20,17 L28,17 C29.1045695,17 30,17.8954305 30,19 C30,20.1045695 29.1045695,21 28,21 L20,21 C18.8954305,21 18,20.1045695 18,19 C18,17.8954305 18.8954305,17 20,17 Z"/>
      </g>
      <g transform="translate(5 42)">
        <use fill="black" filter="url(#m)" xlink:href="#n"/>
        <use fill="#F9F9F9" xlink:href="#n"/>
      </g>
      <g transform="translate(5 74)">
        <rect width="34" height="4" x="7" y="7" fill="#E1DBF1" rx="2"/>
        <use fill="black" filter="url(#o)" xlink:href="#p"/>
        <use fill="#F9F9F9" xlink:href="#p"/>
      </g>
      <path fill="#6B4FBB" d="M4,0 L54,0 C56.209139,-4.05812251e-16 58,1.790861 58,4 L0,4 C-2.705415e-16,1.790861 1.790861,4.05812251e-16 4,0 Z"/>
    </g>
  </g>
</svg>
