<svg xmlns="http://www.w3.org/2000/svg" width="415" height="289" viewBox="0 0 415 289"><g fill="none" fill-rule="evenodd"><path d="M-9-5h430v300H-9z"/><g transform="translate(68 47)"><rect width="284" height="208" y="5" fill="#F9F9F9" fill-rule="nonzero" rx="10"/><rect width="284" height="208" fill="#FFF" fill-rule="nonzero" rx="10"/><path fill="#EEE" fill-rule="nonzero" d="M10 4a6 6 0 0 0-6 6v188a6 6 0 0 0 6 6h264a6 6 0 0 0 6-6V10a6 6 0 0 0-6-6H10zm0-4h264c5.523 0 10 4.477 10 10v188c0 5.523-4.477 10-10 10H10c-5.523 0-10-4.477-10-10V10C0 4.477 4.477 0 10 0z"/><path fill="#E1DBF1" d="M25.168 153.995c3.837-.215 7.173.028 10.119.691a3 3 0 1 0 1.318-5.853c-3.509-.79-7.4-1.074-11.773-.828a3 3 0 1 0 .336 5.99z"/><path fill="#C3B8E3" d="M44.211 158.655c2.401 1.704 4.388 3.61 7.569 7.083a3 3 0 1 0 4.424-4.054c-3.448-3.763-5.686-5.911-8.522-7.923a3 3 0 1 0-3.471 4.894z"/><path fill="#E1DBF1" d="M59.786 173.828c3.181 2.675 6.52 4.665 10.397 6.039a3 3 0 0 0 2.004-5.655c-3.162-1.121-5.884-2.743-8.54-4.976a3 3 0 1 0-3.861 4.592zm22.133 8.148c1.02.037 2.067.045 3.143.023a72.664 72.664 0 0 0 8.346-.638 3 3 0 0 0-.812-5.945c-2.442.334-4.996.53-7.658.585a48.55 48.55 0 0 1-2.796-.021 3 3 0 1 0-.223 5.996z"/><path fill="#C3B8E3" d="M104.697 178.69c3.9-1.37 7.427-3.15 10.54-5.305a3 3 0 0 0-3.415-4.933c-2.665 1.845-5.712 3.382-9.114 4.578a3 3 0 0 0 1.989 5.66z"/><path fill="#E1DBF1" d="M123.853 165.07a33.752 33.752 0 0 0 5.276-10.817 3 3 0 1 0-5.773-1.633 27.753 27.753 0 0 1-4.341 8.9 3 3 0 0 0 4.838 3.55zm6.577-22.657c-.187-3.817-.926-7.71-2.204-11.596a3 3 0 1 0-5.7 1.874c1.113 3.384 1.75 6.745 1.91 10.016a3 3 0 1 0 5.994-.294z"/><path fill="#C3B8E3" d="M123.333 120.153c-1.897-3.2-4.152-6.325-6.748-9.344a3 3 0 0 0-4.55 3.913c2.372 2.756 4.421 5.597 6.136 8.49a3 3 0 1 0 5.162-3.06v.001z"/><path fill="#E1DBF1" d="M111.787 102.36c-.938-3.025-1.402-6.42-1.365-9.976a3 3 0 1 0-6-.063c-.043 4.163.506 8.177 1.634 11.816a3 3 0 1 0 5.731-1.777z"/><path fill="#C3B8E3" d="M111.84 82.253c.905-3.341 2.22-6.538 3.904-9.448a3 3 0 0 0-5.194-3.004c-1.948 3.368-3.463 7.048-4.501 10.884a3 3 0 1 0 5.791 1.568z"/><path fill="#E1DBF1" d="M121.974 64.948c2.475-2.28 5.265-4.09 8.335-5.374a3 3 0 1 0-2.314-5.536c-3.725 1.558-7.105 3.75-10.086 6.497a3 3 0 1 0 4.065 4.413zm18.177-7.586c3.202-.18 6.599.092 10.18.843a3 3 0 0 0 1.23-5.872c-4.086-.857-8.009-1.172-11.747-.962a3 3 0 1 0 .337 5.99v.001z"/><path fill="#C3B8E3" d="M160.198 61.312c3.068 1.268 6.232 2.842 9.487 4.728a3 3 0 1 0 3.009-5.191c-3.48-2.017-6.883-3.71-10.204-5.083a3 3 0 0 0-2.292 5.545v.001z"/><path fill="#E1DBF1" d="M179.776 71.267c3.711 1.586 7.376 2.77 10.997 3.565a3 3 0 0 0 1.286-5.86c-3.248-.713-6.555-1.782-9.925-3.222a3 3 0 1 0-2.358 5.517zm22.591 4.789c3.94-.04 7.808-.553 11.61-1.513a3 3 0 1 0-1.468-5.817 43.358 43.358 0 0 1-10.203 1.33 3 3 0 0 0 .061 6z"/><path fill="#C3B8E3" d="M224.887 70.498c3.335-1.637 6.607-3.613 9.845-5.916a3 3 0 0 0-3.477-4.89c-2.984 2.122-5.98 3.931-9.011 5.42a3 3 0 1 0 2.643 5.386z"/><path fill="#E1DBF1" d="M243.565 57.444a3 3 0 0 1-4.02-4.454 130.547 130.547 0 0 0 5.31-5.088 3 3 0 1 1 4.265 4.22 136.506 136.506 0 0 1-5.555 5.322z"/><path fill="#FDC4A8" d="M194.843 83.085a3 3 0 1 1 4.314-4.17c3.056 3.16 5.075 6.744 6.172 10.754a3 3 0 0 1-5.787 1.584c-.834-3.047-2.35-5.739-4.699-8.168z"/><path fill="#FEE1D3" d="M200.19 101.134a3 3 0 1 1 5.978.52c-.282 3.232-.805 6.273-1.832 11.206a3 3 0 0 1-5.874-1.222c.981-4.717 1.473-7.572 1.728-10.504z"/><path fill="#FDC4A8" d="M196.413 122.689a3 3 0 0 1 5.953.747c-.5 3.988-.397 7.09.399 9.67a3 3 0 1 1-5.733 1.769c-1.087-3.52-1.217-7.426-.62-12.186h.001z"/><path fill="#FEE1D3" d="M203.806 145.133a3 3 0 0 1 4.461-4.013c2.703 3.005 5.224 5.296 7.594 6.947a3 3 0 0 1-3.429 4.924c-2.775-1.932-5.632-4.53-8.626-7.858zm20.352 12.28a3 3 0 1 1 .334-5.99c2.77.154 5.453-.554 9.224-2.254a3 3 0 0 1 2.466 5.47c-4.57 2.06-8.103 2.993-12.024 2.775v-.001z"/><path fill="#FDC4A8" d="M245.942 150.355a3 3 0 0 1-1.815-5.719c4.227-1.342 8.24-1.61 12.496-.572a3 3 0 0 1-1.421 5.83c-3.116-.76-6.025-.566-9.26.46v.001zM106.53 56.038a3 3 0 0 1-3.45 4.909c-1.074-.755-6.723-6.044-8.083-7.204l-.332-.281a3 3 0 1 1 3.865-4.59l.362.306c1.643 1.402 6.971 6.391 7.638 6.86z"/><path fill="#FEE1D3" d="M88.536 42.422a3 3 0 0 1-2.285 5.548c-3.14-1.293-5.78-1.34-8.105-.05a3 3 0 0 1-2.91-5.247c4.087-2.266 8.597-2.187 13.3-.25v-.001z"/><path fill="#FDC4A8" d="M66.698 48.73a3 3 0 0 1 2.029 5.647c-4.432 1.592-8.786.835-13.166-1.88a3 3 0 1 1 3.16-5.1c2.93 1.816 5.425 2.25 7.977 1.333z"/><path fill="#FEE1D3" d="M51.062 40.692a3 3 0 0 1-4.352 4.13c-.911-.96-1.85-1.98-3.061-3.32-.295-.325-2.437-2.703-3.07-3.4-.47-.518-.9-.988-1.313-1.436a3 3 0 0 1 4.41-4.068c.425.46.866.942 1.346 1.47.642.709 2.79 3.092 3.076 3.41a180.865 180.865 0 0 0 2.964 3.214z"/><path fill="#E1DBF1" fill-rule="nonzero" d="M254.66 72.196l2-3.464a2 2 0 1 0-3.464-2l-2 3.464-3.464-2a2 2 0 0 0-2 3.464l3.464 2-2 3.464a2 2 0 0 0 3.464 2l2-3.464 3.464 2a2 2 0 1 0 2-3.464l-3.464-2zm-151.904 78.732l2.829-2.828a2 2 0 1 0-2.829-2.829l-2.828 2.829-2.828-2.829a2 2 0 1 0-2.829 2.829l2.829 2.828-2.829 2.829a2 2 0 0 0 2.829 2.828l2.828-2.828 2.828 2.828a2 2 0 1 0 2.829-2.828l-2.829-2.829z"/><path fill="#6B4FBB" fill-rule="nonzero" d="M210.66 173.66l3.464-2a2 2 0 1 0-2-3.464l-3.464 2-2-3.464a2 2 0 0 0-3.464 2l2 3.464-3.464 2a2 2 0 1 0 2 3.464l3.464-2 2 3.464a2 2 0 1 0 3.464-2l-2-3.464z"/><path fill="#FDC4A8" fill-rule="nonzero" d="M27 181a8 8 0 1 1 0-16 8 8 0 0 1 0 16zm0-4a4 4 0 1 0 0-8 4 4 0 0 0 0 8z"/><path fill="#C3B8E3" fill-rule="nonzero" d="M138 85a7 7 0 1 1 0-14 7 7 0 0 1 0 14zm0-4a3 3 0 1 0 0-6 3 3 0 0 0 0 6z"/><path fill="#6B4FBB" fill-rule="nonzero" d="M200 57a7 7 0 1 1 0-14 7 7 0 0 1 0 14zm0-4a3 3 0 1 0 0-6 3 3 0 0 0 0 6z"/><path fill="#FC6D26" fill-rule="nonzero" d="M222.647 121.647v5h5v-5h-5zm0-4h5a4 4 0 0 1 4 4v5a4 4 0 0 1-4 4h-5a4 4 0 0 1-4-4v-5a4 4 0 0 1 4-4z"/><path fill="#FEE1D3" fill-rule="nonzero" d="M103.647 28.647v5h5v-5h-5zm0-4h5a4 4 0 0 1 4 4v5a4 4 0 0 1-4 4h-5a4 4 0 0 1-4-4v-5a4 4 0 0 1 4-4z"/><path fill="#FC6D26" fill-rule="nonzero" d="M85 103.488L81.841 108h6.318L85 103.488zm6.436 2.218A4 4 0 0 1 88.159 112H81.84a4 4 0 0 1-3.277-6.294l3.16-4.512a4 4 0 0 1 6.553 0l3.159 4.512h.001z"/></g><path fill="#F9F9F9" fill-rule="nonzero" d="M327.376 93.43A48.805 48.805 0 0 0 359 105c27.062 0 49-21.938 49-49S386.062 7 359 7s-49 21.938-49 49c0 9.454 2.677 18.283 7.315 25.77l-3.05 11.306a2.5 2.5 0 0 0 3.064 3.065l10.047-2.71v-.001z"/><path fill="#FFF" fill-rule="nonzero" d="M332.376 88.43A48.805 48.805 0 0 0 364 100c27.062 0 49-21.938 49-49S391.062 2 364 2s-49 21.938-49 49c0 9.454 2.677 18.283 7.315 25.77l-3.05 11.306a2.5 2.5 0 0 0 3.064 3.065l10.047-2.71v-.001z"/><path fill="#EEE" fill-rule="nonzero" d="M322.85 93.072a4.5 4.5 0 0 1-5.516-5.517l2.827-10.48C315.501 69.258 313 60.31 313 51c0-28.167 22.833-51 51-51s51 22.833 51 51-22.833 51-51 51c-11.859 0-23.096-4.064-32.102-11.37l-9.048 2.442zm10.817-6.169C342.091 94.027 352.737 98 364 98c25.957 0 47-21.043 47-47S389.957 4 364 4s-47 21.043-47 47c0 8.859 2.453 17.351 7.016 24.716l.456.737-3.277 12.144c.072.527.347.685.613.613l11.059-2.984.8.677z"/><g fill-rule="nonzero" transform="translate(347 28)"><path fill="#E1DBF1" d="M13 4a1 1 0 0 0-1 1v1a1 1 0 0 0 1 1h8a1 1 0 0 0 1-1V5a1 1 0 0 0-1-1h-8zm0-4h8a5 5 0 0 1 5 5v1a5 5 0 0 1-5 5h-8a5 5 0 0 1-5-5V5a5 5 0 0 1 5-5z"/><path fill="#6B4FBB" d="M5 11a1 1 0 0 0 0 2h24a1 1 0 0 0 0-2H5zm0-4h24a5 5 0 0 1 0 10H5A5 5 0 0 1 5 7z"/><rect width="12" height="4" x="11" y="31" fill="#C3B8E3" rx="2"/><rect width="12" height="4" x="11" y="19" fill="#C3B8E3" rx="2"/><rect width="12" height="4" x="11" y="37" fill="#E1DBF1" rx="2"/><rect width="12" height="4" x="11" y="43" fill="#C3B8E3" rx="2"/><rect width="12" height="4" x="11" y="25" fill="#E1DBF1" rx="2"/></g><g fill-rule="nonzero"><path fill="#F9F9F9" d="M337.238 219.072A38.83 38.83 0 0 1 361 211c21.54 0 39 17.46 39 39s-17.46 39-39 39-39-17.46-39-39a38.84 38.84 0 0 1 4.001-17.227l-3.737-13.85a2.5 2.5 0 0 1 3.065-3.064l11.91 3.213h-.001z"/><path fill="#FFF" d="M341.238 215.072A38.83 38.83 0 0 1 365 207c21.54 0 39 17.46 39 39s-17.46 39-39 39-39-17.46-39-39a38.84 38.84 0 0 1 4.001-17.227l-3.737-13.85a2.5 2.5 0 0 1 3.065-3.064l11.91 3.213h-.001z"/><path fill="#EEE" d="M329.85 209.928a4.5 4.5 0 0 0-5.516 5.517l3.543 13.13A40.848 40.848 0 0 0 324 246c0 22.644 18.356 41 41 41s41-18.356 41-41-18.356-41-41-41a40.82 40.82 0 0 0-24.182 7.887l-10.968-2.96v.001zm12.608 6.73A36.824 36.824 0 0 1 365 209c20.435 0 37 16.565 37 37s-16.565 37-37 37-37-16.565-37-37c0-5.747 1.31-11.304 3.795-16.343l.334-.677-3.934-14.577a.5.5 0 0 1 .613-.613l12.865 3.471.785-.604v.001z"/><path fill="#FEE1D3" d="M348.097 250.962a7 7 0 0 0 8.81 10.88l1.093-.885v1.454a7 7 0 0 0 14 0v-1.454l1.092.885a7 7 0 1 0 8.81-10.88l-1.185-.96 1.455-.337a7 7 0 1 0-3.15-13.64l-1.4.323.623-1.278a7 7 0 0 0-12.583-6.137l-.662 1.356-.662-1.356a7 7 0 0 0-12.583 6.137l.623 1.278-1.4-.324a7 7 0 1 0-3.15 13.641l1.455.336-1.186.96v.001zm5.464-.913a11.914 11.914 0 0 1-.444-1.95l-.19-1.362-4.2-.97a3 3 0 0 1 1.35-5.845l4.178.964.768-1.145c.373-.557.793-1.082 1.254-1.57l.95-1.006-1.877-3.849a3 3 0 0 1 5.393-2.63l1.892 3.879 1.363-.113a12.188 12.188 0 0 1 2.004 0l1.363.113 1.892-3.879a3 3 0 0 1 5.393 2.63l-1.877 3.849.95 1.006c.461.488.88 1.013 1.254 1.57l.768 1.145 4.178-.964a3 3 0 1 1 1.35 5.846l-4.2.97-.19 1.36a11.914 11.914 0 0 1-.444 1.95l-.413 1.302 3.36 2.72a3 3 0 1 1-3.776 4.663l-3.32-2.688-1.196.706a11.94 11.94 0 0 1-1.808.873l-1.286.492v4.295a3 3 0 0 1-6 0v-4.295l-1.286-.492a11.94 11.94 0 0 1-1.808-.873l-1.196-.706-3.32 2.688a3 3 0 0 1-3.776-4.663l3.36-2.72-.413-1.301z"/><path fill="#FC6D26" d="M365 240.411a6 6 0 1 0 0 12 6 6 0 0 0 0-12zm0 4a2 2 0 1 1 0 4 2 2 0 0 1 0-4z"/></g><g fill-rule="nonzero"><path fill="#F9F9F9" d="M87.624 156.43A48.805 48.805 0 0 1 56 168c-27.062 0-49-21.938-49-49s21.938-49 49-49 49 21.938 49 49c0 9.454-2.677 18.283-7.315 25.77l3.05 11.306a2.5 2.5 0 0 1-3.064 3.065l-10.047-2.71v-.001z"/><path fill="#FFF" stroke="#EEE" stroke-width="4" d="M82.624 151.43A48.805 48.805 0 0 1 51 163c-27.062 0-49-21.938-49-49s21.938-49 49-49 49 21.938 49 49c0 9.454-2.677 18.283-7.315 25.77l3.05 11.306a2.5 2.5 0 0 1-3.064 3.065l-10.047-2.71v-.001z"/><path fill="#EEE" d="M92.15 156.072a4.5 4.5 0 0 0 5.516-5.517l-2.827-10.48C99.499 132.258 102 123.31 102 114c0-28.167-22.833-51-51-51S0 85.833 0 114s22.833 51 51 51c11.859 0 23.096-4.064 32.102-11.37l9.048 2.442zm-10.817-6.169C72.909 157.027 62.263 161 51 161c-25.957 0-47-21.043-47-47s21.043-47 47-47 47 21.043 47 47c0 8.859-2.453 17.351-7.016 24.716l-.456.737 3.277 12.144c-.072.527-.347.685-.613.613l-11.059-2.984-.8.677z"/><path fill="#FEE1D3" d="M48.47 88.47l-16.148 6.688a4 4 0 0 0-2.164 2.164l-6.689 16.147a4 4 0 0 0 0 3.062l6.689 16.147a4 4 0 0 0 2.164 2.164l16.147 6.689a4 4 0 0 0 3.062 0l16.147-6.689a4 4 0 0 0 2.164-2.164l6.689-16.147a4 4 0 0 0 0-3.062l-6.689-16.147a4 4 0 0 0-2.164-2.164L51.53 88.469a4 4 0 0 0-3.062 0l.002.001zM50 92.164l16.147 6.688L72.835 115l-6.688 16.147L50 137.835l-16.147-6.688L27.165 115l6.688-16.147L50 92.165v-.001zM50 101a2 2 0 1 0 0-4 2 2 0 0 0 0 4zm12 4a2 2 0 1 0 0-4 2 2 0 0 0 0 4zm4 12a2 2 0 1 0 0-4 2 2 0 0 0 0 4zm-4 11a2 2 0 1 0 0-4 2 2 0 0 0 0 4zm-12 6a2 2 0 1 0 0-4 2 2 0 0 0 0 4zm-12-6a2 2 0 1 0 0-4 2 2 0 0 0 0 4zm-4-11a2 2 0 1 0 0-4 2 2 0 0 0 0 4zm4-11a2 2 0 1 0 0-4 2 2 0 0 0 0 4zm12 20c6.075 0 11-4.925 11-11s-4.925-11-11-11-11 4.925-11 11 4.925 11 11 11zm0-4a7 7 0 1 1 0-14 7 7 0 0 1 0 14z"/><path fill="#FC6D26" d="M50 120.5a5.5 5.5 0 1 0 0-11 5.5 5.5 0 0 0 0 11zm0-3a2.5 2.5 0 1 1 0-5 2.5 2.5 0 0 1 0 5z"/></g></g></svg>