<svg width="140" height="102" viewBox="0 0 140 102" xmlns="http://www.w3.org/2000/svg" xmlns:xlink="http://www.w3.org/1999/xlink"><title>illustration</title><defs><rect id="a" width="12.033" height="40.197" rx="3"/><rect id="b" width="12.033" height="40.197" rx="3"/></defs><g fill="none" fill-rule="evenodd"><g transform="translate(-.446)"><path d="M91.747 35.675v-6.039a2.996 2.996 0 0 0-2.999-3.005H54.635a2.997 2.997 0 0 0-2.999 3.005v6.039H40.092a3.007 3.007 0 0 0-2.996 3.005v34.187a2.995 2.995 0 0 0 2.996 3.005h11.544V79.9a2.996 2.996 0 0 0 2.999 3.005h34.113a2.997 2.997 0 0 0 2.999-3.005v-4.03h11.544a3.007 3.007 0 0 0 2.996-3.004V38.68a2.995 2.995 0 0 0-2.996-3.005H91.747z" stroke="#B5A7DD" stroke-width="2"/><rect stroke="#E5E5E5" stroke-width="2" fill="#FFF" x="21.556" y="38.69" width="98.27" height="34.167" rx="3"/><path d="M121.325 38.19c.55 0 .995.444.995 1.002 0 .554-.453 1.003-.995 1.003h-4.039a1.004 1.004 0 0 1 0-2.006h4.039zm9.044 0c.55 0 .996.444.996 1.002 0 .554-.454 1.003-.996 1.003h-4.038a1.004 1.004 0 0 1 0-2.006h4.038zm9.044 0c.55 0 .996.444.996 1.002 0 .554-.453 1.003-.996 1.003h-4.038a1.004 1.004 0 0 1 0-2.006h4.038zM121.325 71.854a1.004 1.004 0 0 1 0 2.006h-4.039a1.004 1.004 0 0 1 0-2.006h4.039zm9.044 0a1.004 1.004 0 0 1 0 2.006h-4.038a1.004 1.004 0 0 1 0-2.006h4.038zm9.044 0a1.004 1.004 0 0 1 0 2.006h-4.038a1.004 1.004 0 0 1 0-2.006h4.038z" fill="#E5E5E5"/><g transform="translate(110.3 35.675)"><use fill="#FFF" xlink:href="#a"/><rect stroke="#FDE5D8" stroke-width="2" x="1" y="1" width="10.033" height="38.197" rx="3"/><ellipse fill="#FC8A51" cx="6.017" cy="9.547" rx="1.504" ry="1.507"/><ellipse fill="#FC8A51" cx="6.017" cy="20.099" rx="1.504" ry="1.507"/><ellipse fill="#FC8A51" cx="6.017" cy="30.65" rx="1.504" ry="1.507"/></g><path d="M6.008 38.19c.55 0 .996.444.996 1.002 0 .554-.454 1.003-.996 1.003H1.97a1.004 1.004 0 0 1 0-2.006h4.038zm9.044 0c.55 0 .996.444.996 1.002 0 .554-.453 1.003-.996 1.003h-4.038a1.004 1.004 0 0 1 0-2.006h4.038zm9.045 0c.55 0 .995.444.995 1.002 0 .554-.453 1.003-.995 1.003h-4.039a1.004 1.004 0 0 1 0-2.006h4.039zM6.008 71.854a1.004 1.004 0 0 1 0 2.006H1.97a1.004 1.004 0 0 1 0-2.006h4.038zm9.044 0a1.004 1.004 0 0 1 0 2.006h-4.038a1.004 1.004 0 0 1 0-2.006h4.038zm9.045 0a1.004 1.004 0 0 1 0 2.006h-4.039a1.004 1.004 0 0 1 0-2.006h4.039z" fill="#E5E5E5"/><g transform="translate(19.05 35.675)"><use fill="#FFF" xlink:href="#b"/><rect stroke="#FDE5D8" stroke-width="2" x="1" y="1" width="10.033" height="38.197" rx="3"/><ellipse fill="#FC8A51" cx="6.017" cy="10.049" rx="1.504" ry="1.507"/><ellipse fill="#FC8A51" cx="6.017" cy="20.601" rx="1.504" ry="1.507"/><ellipse fill="#FC8A51" cx="6.017" cy="31.153" rx="1.504" ry="1.507"/></g><g transform="translate(47.096)"><g transform="translate(7.05)"><ellipse fill="#FC8A51" cx="17.548" cy="5.025" rx="4.512" ry="4.522"/><rect stroke="#B5A7DD" stroke-width="2" fill="#FFF" x="13.036" y="4.02" width="9.025" height="20.099" rx="1.5"/><rect stroke="#FDE5D8" stroke-width="2" fill="#FFF" y="4.02" width="35.096" height="4.02" rx="2.01"/><rect stroke="#6B4FBB" stroke-width="2" fill="#FFF" x="4.512" y="18.089" width="26.072" height="17.084" rx="1.5"/></g><rect stroke="#6B4FBB" stroke-width="2" fill="#FFF" transform="rotate(-45 43.117 35.117)" x="38.168" y="31.416" width="9.899" height="7.403" rx="3.702"/><ellipse stroke="#6B4FBB" stroke-width="2" fill="#FFF" cx="25" cy="55" rx="25" ry="25"/><ellipse stroke="#6B4FBB" stroke-width="2" fill="#FFF" cx="25" cy="55" rx="21" ry="21"/><rect stroke="#6B4FBB" stroke-width="2" fill="#FFF" x="43.05" y="53.281" width="2.95" height="1.538" rx=".769"/><rect stroke="#6B4FBB" stroke-width="2" fill="#FFF" x="4.305" y="53.281" width="2.95" height="1.538" rx=".769"/><rect stroke="#6B4FBB" stroke-width="2" fill="#FFF" transform="rotate(90 25.153 74.422)" x="23.677" y="73.653" width="2.95" height="1.538" rx=".769"/><rect stroke="#6B4FBB" stroke-width="2" fill="#FFF" transform="rotate(90 25.153 35.51)" x="23.844" y="34.742" width="2.616" height="1.538" rx=".769"/><path d="M13.362 42.502c-.124-.543.198-.854.74-.69l2.321.704c.533.161.643.592.235.972l-.22.206 7.06 7.572a1.002 1.002 0 1 1-1.467 1.368l-7.06-7.573-.118.11c-.402.375-.826.248-.952-.304l-.54-2.365zM21.606 67.576c-.408.38-.84.255-.968-.295l-.551-2.363c-.127-.542.191-.852.725-.69l.288.089 3.027-9.901a1.002 1.002 0 1 1 1.918.586l-3.027 9.901.154.047c.525.16.627.592.213.977l-1.779 1.65z" fill="#FC8A51"/><ellipse stroke="#6B4FBB" stroke-width="2" fill="#FFF" cx="25.099" cy="54.768" rx="2.507" ry="2.512"/></g></g><path d="M52.697 96.966a1.004 1.004 0 0 1 2.006 0v4.038a1.004 1.004 0 0 1-2.006 0v-4.038zm0-9.044a1.004 1.004 0 0 1 2.006 0v4.038a1.004 1.004 0 0 1-2.006 0v-4.038zM86.29 96.966c0-.55.444-.996 1.002-.996.554 0 1.003.454 1.003.996v4.038a1.004 1.004 0 0 1-2.006 0v-4.038zm0-9.044c0-.55.444-.996 1.002-.996.554 0 1.003.453 1.003.996v4.038a1.004 1.004 0 0 1-2.006 0v-4.038z" fill="#E5E5E5"/></g></svg>