<svg width="16" height="16" viewBox="0 0 16 16" fill="none" xmlns="http://www.w3.org/2000/svg">
<path class="scroll-arrow" d="M8 10.4142L4.29289 6.70711C3.90237 6.31658 3.90237 5.68342 4.29289 5.2929C4.68342 4.90237 5.31658 4.90237 5.70711 5.2929L7 6.58579L7 1C7 0.447715 7.44772 0 8 0C8.55229 0 9 0.447715 9 1L9 6.58579L10.2929 5.2929C10.6834 4.90237 11.3166 4.90237 11.7071 5.2929C12.0976 5.68342 12.0976 6.31658 11.7071 6.70711L8 10.4142Z"/>
<path class="scroll-dot" d="M8 16C9.10457 16 10 15.1046 10 14C10 12.8954 9.10457 12 8 12C6.89543 12 6 12.8954 6 14C6 15.1046 6.89543 16 8 16Z"/>
</svg>
