<?xml version="1.0" encoding="UTF-8"?>
<svg width="215px" height="115px" viewBox="0 0 215 115" version="1.1" xmlns="http://www.w3.org/2000/svg" xmlns:xlink="http://www.w3.org/1999/xlink">
    <!-- Generator: Sketch 61.2 (89653) - https://sketch.com -->
    <title>create-new-project-md</title>
    <desc>Created with Sketch.</desc>
    <g id="create-new-project-md" stroke="none" stroke-width="1" fill="none" fill-rule="evenodd">
        <g id="Group-3" transform="translate(71.000000, 18.000000)" fill-rule="nonzero">
            <g id="New-Blank1">
                <path d="M6.11141667,3.90697674 L62.6947849,3.90697674 C65.9485064,3.90697674 68.5891473,6.56494969 68.5891473,9.8400273 L68.5891473,78.0669494 C68.5891473,81.342027 65.9485064,84 62.6947849,84 L6.11141667,84 C2.85769514,84 0.217054264,81.342027 0.217054264,78.0669494 L0.217054264,9.8400273 C0.217054264,6.56494969 2.85769514,3.90697674 6.11141667,3.90697674 Z" id="Path" fill="#F9F9F9"></path>
                <path d="M8.89436241,1 L65.4777306,1 C68.7314521,1 71.372093,3.65598929 71.372093,6.9286227 L71.372093,74.5132378 C71.372093,77.7858712 68.7314521,80.4418605 65.4777306,80.4418605 L8.89436241,80.4418605 C5.64064088,80.4418605 3,77.7858712 3,74.5132378 L3,6.9286227 C3.00209243,3.65598929 5.64064088,1 8.89436241,1 Z" id="Path" fill="#FFFFFF"></path>
                <path d="M9.2677971,2.35980136 C6.65357171,2.35980136 4.53489427,4.47043114 4.53489427,7.07940407 L4.53489427,74.3201325 C4.53489427,76.9270116 6.65147193,79.0397352 9.2677971,79.0397352 L66.0500324,79.0397352 C68.6642577,79.0397352 70.7829352,76.9291055 70.7829352,74.3201325 L70.7829352,7.07731019 C70.7829352,4.47043114 68.6663575,2.35770748 66.0500324,2.35770748 L9.2677971,2.35980136 L9.2677971,2.35980136 Z M9.2677971,0 L66.0500324,0 C69.9724203,0 73.1472868,3.16803856 73.1472868,7.07731019 L73.1472868,74.3180386 C73.1472868,78.2294042 69.9703205,81.3953488 66.0500324,81.3953488 L9.2677971,81.3953488 C5.34540913,81.3953488 2.17054264,78.2273103 2.17054264,74.3180386 L2.17054264,7.07731019 C2.17054264,3.17222631 5.34750891,0 9.2677971,0 Z" id="Shape" fill="#EEEEEE"></path>
                <path d="M21.6234891,28.6511628 L28.9501543,28.6511628 C29.6221266,28.6511628 30.1705426,29.2387129 30.1705426,29.9534884 C30.1705426,30.6682639 29.6199589,31.255814 28.9501543,31.255814 L21.6234891,31.255814 C20.9515168,31.255814 20.4031008,30.6682639 20.4031008,29.9534884 C20.4031008,29.2387129 20.9515168,28.6511628 21.6234891,28.6511628 Z" id="Path" fill="#E1DBF1"></path>
                <path d="M33.9142229,35.8139535 L36.1943042,35.8139535 C36.8214783,35.8139535 37.3333333,36.4015036 37.3333333,37.1162791 C37.3333333,37.8333678 36.8194552,38.4186047 36.1943042,38.4186047 L33.9142229,38.4186047 C33.2870488,38.4186047 32.7751938,37.8310546 32.7751938,37.1162791 C32.7751938,36.4015036 33.2890719,35.8139535 33.9142229,35.8139535 Z" id="Path" fill="#FC6D26"></path>
                <path d="M24.200844,42.9767442 L28.9774506,42.9767442 C29.6343929,42.9767442 30.1705426,43.5642943 30.1705426,44.2790698 C30.1705426,44.9961585 29.6322737,45.5813953 28.9774506,45.5813953 L24.200844,45.5813953 C23.5439017,45.5813953 23.0077519,44.9938453 23.0077519,44.2790698 C23.0077519,43.5642943 23.5439017,42.9767442 24.200844,42.9767442 Z" id="Path" fill="#E1DBF1"></path>
                <path d="M41.0770181,35.8139535 L43.3570964,35.8139535 C43.9842697,35.8139535 44.496124,36.4015036 44.496124,37.1162791 C44.496124,37.8333678 43.9822466,38.4186047 43.3570964,38.4186047 L41.0770181,38.4186047 C40.4498448,38.4186047 39.9379845,37.8310546 39.9379845,37.1162791 C39.9359673,36.4015036 40.4498448,35.8139535 41.0770181,35.8139535 Z" id="Path" fill="#FC6D26"></path>
                <path d="M33.9372473,28.6511628 L47.89221,28.6511628 C48.5320619,28.6511628 49.0542636,29.2387129 49.0542636,29.9534884 C49.0542636,30.6682639 48.5299978,31.255814 47.89221,31.255814 L33.9372473,31.255814 C33.2973955,31.255814 32.7751938,30.6682639 32.7751938,29.9534884 C32.7751938,29.2387129 33.2994595,28.6511628 33.9372473,28.6511628 Z" id="Path" fill="#C3B8E3"></path>
                <path d="M33.9142229,42.9767442 L36.1943042,42.9767442 C36.8214783,42.9767442 37.3333333,43.5642943 37.3333333,44.2790698 C37.3333333,44.9961585 36.8194552,45.5813953 36.1943042,45.5813953 L33.9142229,45.5813953 C33.2870488,45.5813953 32.7751938,44.9938453 32.7751938,44.2790698 C32.7751938,43.5642943 33.2890719,42.9767442 33.9142229,42.9767442 Z" id="Path" fill="#6B4FBB"></path>
                <g id="Group" transform="translate(16.000000, 19.000000)">
                    <circle id="Oval" fill="#FFFFFF" cx="20.8396947" cy="20.8396947" r="20.7533889"></circle>
                    <path d="M20.8396947,41.5930835 C9.3778626,41.5930835 0.0863058062,32.3015267 0.0863058062,20.8396947 C0.0863058062,9.3778626 9.3778626,0.0863058062 20.8396947,0.0863058062 C32.3015267,0.0863058062 41.5930835,9.3778626 41.5930835,20.8396947 C41.5930835,32.3015267 32.3015267,41.5930835 20.8396947,41.5930835 Z M20.8396947,39.2207263 C30.9922045,39.2207263 39.2207263,30.9900995 39.2207263,20.8396947 C39.2207263,10.6892898 30.9900995,2.45866297 20.8396947,2.45866297 C10.6892898,2.45866297 2.45866297,10.6892898 2.45866297,20.8396947 C2.45866297,30.9900995 10.6871848,39.2207263 20.8396947,39.2207263 Z" id="Shape" fill="#EEEEEE"></path>
                    <path d="M13.7647236,19.060953 L27.9967615,19.060953 C28.6493176,19.060953 29.1818876,19.595628 29.1818876,20.2460791 C29.1818876,20.8986352 28.6472126,21.4312052 27.9967615,21.4312052 L13.7647236,21.4312052 C13.1121675,21.4312052 12.5795975,20.8965302 12.5795975,20.2460791 C12.5795975,19.593523 13.1142725,19.060953 13.7647236,19.060953 Z" id="Path" fill="#6B4FBB"></path>
                    <path d="M22.0669211,13.1311127 L22.0669211,27.3631506 C22.0669211,28.0157067 21.5322461,28.5482767 20.881795,28.5482767 C20.231344,28.5482767 19.696669,28.0136017 19.696669,27.3631506 L19.696669,13.1311127 C19.696669,12.4785566 20.231344,11.9459866 20.881795,11.9459866 C21.5322461,11.9459866 22.0669211,12.4785566 22.0669211,13.1311127 Z" id="Path" fill="#6B4FBB"></path>
                </g>
            </g>
        </g>
    </g>
</svg>