<?xml version="1.0" encoding="UTF-8"?>
<svg width="215px" height="115px" viewBox="0 0 215 115" version="1.1" xmlns="http://www.w3.org/2000/svg" xmlns:xlink="http://www.w3.org/1999/xlink">
    <!-- Generator: Sketch 61.2 (89653) - https://sketch.com -->
    <title>run-CICD-pipelines-md</title>
    <desc>Created with Sketch.</desc>
    <g id="run-CICD-pipelines-md" stroke="none" stroke-width="1" fill="none" fill-rule="evenodd">
        <g id="CICD-Repoj1" transform="translate(22.000000, 16.000000)">
            <g id="Group" transform="translate(100.000000, 0.000000)">
                <path d="M5.88230137,4.144 L61.8884384,4.144 C65.1195616,4.144 67.7155068,6.804 67.7155068,10.052 L67.7155068,78.064 C67.7155068,81.34 65.0919452,83.972 61.8884384,83.972 L5.88230137,83.972 C2.65117808,83.972 0.0552328767,81.312 0.0552328767,78.064 L0.0552328767,10.052 C0.0552328767,6.804 2.67879452,4.144 5.88230137,4.144 Z" id="Path" fill="#F9F9F9" fill-rule="nonzero"></path>
                <path d="M8.80964384,1.176 L64.8157808,1.176 C68.0469041,1.176 70.6428493,3.836 70.6428493,7.084 L70.6428493,74.508 C70.6428493,77.784 68.0192877,80.416 64.8157808,80.416 L8.80964384,80.416 C5.57852055,80.416 2.98257534,77.756 2.98257534,74.508 L2.98257534,7.112 C2.98257534,3.836 5.57852055,1.176 8.80964384,1.176 Z" id="Path" fill="#FFFFFF" fill-rule="nonzero"></path>
                <path d="M8.80964384,2.38 C6.24131507,2.38 4.14246575,4.508 4.14246575,7.112 L4.14246575,74.536 C4.14246575,77.14 6.24131507,79.268 8.80964384,79.268 L64.8157808,79.268 C67.3841096,79.268 69.4829589,77.14 69.4829589,74.536 L69.4829589,7.112 C69.4829589,4.508 67.3841096,2.38 64.8157808,2.38 L8.80964384,2.38 L8.80964384,2.38 Z M8.80964384,0 L64.8157808,0 C68.6820822,0 71.8027397,3.164 71.8027397,7.084 L71.8027397,74.508 C71.8027397,78.428 68.6820822,81.592 64.8157808,81.592 L8.80964384,81.592 C4.94334247,81.592 1.82250462,78.4 1.82250462,74.508 L1.82250462,7.112 C1.79506849,3.192 4.94334247,0 8.80964384,0 Z" id="Shape" fill="#EEEEEE" fill-rule="nonzero"></path>
                <path d="M14.6367123,14.784 L21.6236712,14.784 C22.2588493,14.784 22.7835616,15.316 22.7835616,15.96 C22.7835616,16.604 22.2588493,17.136 21.6236712,17.136 L14.6367123,17.136 C14.0015342,17.136 13.4768219,16.604 13.4768219,15.96 C13.4768219,15.316 14.0015342,14.784 14.6367123,14.784 Z M33.3054247,21.896 L40.2923836,21.896 C40.9275616,21.896 41.452274,22.428 41.452274,23.072 C41.452274,23.716 40.9275616,24.248 40.2923836,24.248 L33.3054247,24.248 C32.6702466,24.248 32.1455342,23.716 32.1455342,23.072 C32.1455342,22.428 32.6702466,21.896 33.3054247,21.896 Z" id="Shape" fill="#E1DBF1" fill-rule="nonzero"></path>
                <path d="M40.32,14.784 L47.3069589,14.784 C47.942137,14.784 48.4668493,15.316 48.4668493,15.96 C48.4668493,16.604 47.942137,17.136 47.3069589,17.136 L40.32,17.136 C39.6848219,17.136 39.1601096,16.604 39.1601096,15.96 C39.1324932,15.316 39.6572055,14.784 40.32,14.784 Z" id="Path" fill="#EEEEEE" fill-rule="nonzero"></path>
                <path d="M21.6512877,28.98 L28.6382466,28.98 C29.2734247,28.98 29.798137,29.512 29.798137,30.156 C29.798137,30.8 29.2734247,31.332 28.6382466,31.332 L21.6512877,31.332 C21.0161096,31.332 20.4913973,30.8 20.4913973,30.156 C20.4637808,29.512 20.9884932,28.98 21.6512877,28.98 Z" id="Path" fill="#E1DBF1" fill-rule="nonzero"></path>
                <path d="M26.2908493,14.784 L28.6382466,14.784 C29.2734247,14.784 29.798137,15.316 29.798137,15.96 C29.798137,16.604 29.2734247,17.136 28.6382466,17.136 L26.2908493,17.136 C25.6556712,17.136 25.1309589,16.604 25.1309589,15.96 C25.1309589,15.316 25.6556712,14.784 26.2908493,14.784 Z" id="Path" fill="#FEE1D3" fill-rule="nonzero"></path>
                <path d="M33.3054247,36.092 L35.6528219,36.092 C36.288,36.092 36.8127123,36.624 36.8127123,37.268 C36.8127123,37.912 36.288,38.444 35.6528219,38.444 L33.3054247,38.444 C32.6702466,38.444 32.1455342,37.912 32.1455342,37.268 C32.1455342,36.624 32.6702466,36.092 33.3054247,36.092 Z" id="Path" fill="#FC6D26" fill-rule="nonzero"></path>
                <path d="M44.9595616,21.896 L47.3069589,21.896 C47.942137,21.896 48.4668493,22.428 48.4668493,23.072 C48.4668493,23.716 47.942137,24.248 47.3069589,24.248 L44.9595616,24.248 C44.3243836,24.248 43.7996712,23.716 43.7996712,23.072 C43.7996712,22.428 44.3243836,21.896 44.9595616,21.896 Z M51.974137,14.784 L54.3215342,14.784 C54.9567123,14.784 55.4814247,15.316 55.4814247,15.96 C55.4814247,16.604 54.9567123,17.136 54.3215342,17.136 L51.974137,17.136 C51.3389589,17.136 50.8142466,16.604 50.8142466,15.96 C50.8142466,15.316 51.3389589,14.784 51.974137,14.784 Z" id="Shape" fill="#FEF0E8" fill-rule="nonzero"></path>
                <path d="M23.9710685,43.176 L28.6382466,43.176 C29.2734247,43.176 29.798137,43.708 29.798137,44.352 C29.798137,44.996 29.2734247,45.528 28.6382466,45.528 L23.9710685,45.528 C23.3358904,45.528 22.8111781,44.996 22.8111781,44.352 C22.8111781,43.708 23.3358904,43.176 23.9710685,43.176 Z" id="Path" fill="#E1DBF1" fill-rule="nonzero"></path>
                <path d="M40.32,36.092 L42.6673973,36.092 C43.3025753,36.092 43.8272877,36.624 43.8272877,37.268 C43.8272877,37.912 43.3025753,38.444 42.6673973,38.444 L40.32,38.444 C39.6848219,38.444 39.1601096,37.912 39.1601096,37.268 C39.1324932,36.624 39.6572055,36.092 40.32,36.092 Z" id="Path" fill="#FC6D26" fill-rule="nonzero"></path>
                <path d="M52.2503014,33.712 C53.0511781,33.712 53.7139726,34.384 53.7139726,35.196 C53.7139726,36.008 53.0511781,36.68 52.2503014,36.68 C51.4494247,36.68 50.7866301,36.008 50.7866301,35.196 C50.8142466,34.384 51.4494247,33.712 52.2503014,33.712 Z M58.1049863,50.876 C58.905863,50.876 59.5686575,51.548 59.5686575,52.36 C59.5686575,53.172 58.905863,53.844 58.1049863,53.844 C57.3041096,53.844 56.6413151,53.172 56.6413151,52.36 C56.6413151,51.548 57.3041096,50.876 58.1049863,50.876 Z" id="Shape" fill="#E1DBF1" fill-rule="nonzero"></path>
                <path d="M63.3521096,50.876 C64.1529863,50.876 64.8157808,51.548 64.8157808,52.36 C64.8157808,53.172 64.1529863,53.844 63.3521096,53.844 C62.5512329,53.844 61.8884384,53.172 61.8884384,52.36 C61.8884384,51.548 62.5512329,50.876 63.3521096,50.876 Z M33.3054247,14.784 L35.6528219,14.784 C36.288,14.784 36.8127123,15.316 36.8127123,15.96 C36.8127123,16.604 36.288,17.136 35.6528219,17.136 L33.3054247,17.136 C32.6702466,17.136 32.1455342,16.604 32.1455342,15.96 C32.1455342,15.316 32.6702466,14.784 33.3054247,14.784 Z" id="Shape" fill="#FC6D26" fill-rule="nonzero"></path>
                <path d="M14.6367123,36.092 L28.6382466,36.092 C29.2734247,36.092 29.798137,36.624 29.798137,37.268 C29.798137,37.912 29.2734247,38.444 28.6382466,38.444 L14.6367123,38.444 C14.0015342,38.444 13.4768219,37.912 13.4768219,37.268 C13.4768219,36.624 14.0015342,36.092 14.6367123,36.092 Z M44.0482192,42 L61.0599452,42 C61.8332055,42 62.4683836,42.672 62.4683836,43.484 C62.4683836,44.296 61.8332055,44.968 61.0599452,44.968 L44.0758356,44.968 C43.3025753,44.968 42.6673973,44.296 42.6673973,43.484 C42.6673973,42.672 43.2749589,42 44.0482192,42 L44.0482192,42 L44.0482192,42 Z" id="Shape" fill="#EEEEEE" fill-rule="nonzero"></path>
                <path d="M35.3214247,50.876 L52.3055342,50.876 C53.0787945,50.876 53.7139726,51.548 53.7139726,52.36 C53.7139726,53.172 53.0787945,53.844 52.3055342,53.844 L35.3214247,53.844 C34.5481644,53.844 33.9129863,53.172 33.9129863,52.36 C33.8853699,51.548 34.5205479,50.876 35.3214247,50.876 L35.3214247,50.876 L35.3214247,50.876 Z" id="Path" fill="#EFEDF8" fill-rule="nonzero"></path>
                <path d="M14.6367123,21.896 L28.6382466,21.896 C29.2734247,21.896 29.798137,22.428 29.798137,23.072 C29.798137,23.716 29.2734247,24.248 28.6382466,24.248 L14.6367123,24.248 C14.0015342,24.248 13.4768219,23.716 13.4768219,23.072 C13.4768219,22.428 14.0015342,21.896 14.6367123,21.896 Z" id="Path" fill="#6B4FBB" fill-rule="nonzero"></path>
                <path d="M33.3054247,28.98 L47.3069589,28.98 C47.942137,28.98 48.4668493,29.512 48.4668493,30.156 C48.4668493,30.8 47.942137,31.332 47.3069589,31.332 L33.3054247,31.332 C32.6702466,31.332 32.1455342,30.8 32.1455342,30.156 C32.1455342,29.512 32.6702466,28.98 33.3054247,28.98 Z" id="Path" fill="#C3B8E3" fill-rule="nonzero"></path>
                <path d="M14.6367123,28.98 L16.9841096,28.98 C17.6192877,28.98 18.144,29.512 18.144,30.156 C18.144,30.8 17.6192877,31.332 16.9841096,31.332 L14.6367123,31.332 C14.0015342,31.332 13.4768219,30.8 13.4768219,30.156 C13.4768219,29.512 14.0015342,28.98 14.6367123,28.98 Z" id="Path" fill="#FEF0E8" fill-rule="nonzero"></path>
                <path d="M33.3054247,43.176 L35.6528219,43.176 C36.288,43.176 36.8127123,43.708 36.8127123,44.352 C36.8127123,44.996 36.288,45.528 35.6528219,45.528 L33.3054247,45.528 C32.6702466,45.528 32.1455342,44.996 32.1455342,44.352 C32.1455342,43.708 32.6702466,43.176 33.3054247,43.176 Z" id="Path" fill="#6B4FBB" fill-rule="nonzero"></path>
                <path d="M14.6367123,43.176 L19.3038904,43.176 C19.9390685,43.176 20.4637808,43.708 20.4637808,44.352 C20.4637808,44.996 19.9390685,45.528 19.3038904,45.528 L14.6367123,45.528 C14.0015342,45.528 13.4768219,44.996 13.4768219,44.352 C13.4768219,43.708 14.0015342,43.176 14.6367123,43.176 Z" id="Path" fill="#FC6D26" fill-rule="nonzero"></path>
                <path d="M14.6367123,50.288 L19.3038904,50.288 C19.9390685,50.288 20.4637808,50.82 20.4637808,51.464 C20.4637808,52.108 19.9390685,52.64 19.3038904,52.64 L14.6367123,52.64 C14.0015342,52.64 13.4768219,52.108 13.4768219,51.464 C13.4768219,50.82 14.0015342,50.288 14.6367123,50.288 Z M23.9710685,50.288 L28.6382466,50.288 C29.2734247,50.288 29.798137,50.82 29.798137,51.464 C29.798137,52.108 29.2734247,52.64 28.6382466,52.64 L23.9710685,52.64 C23.3358904,52.64 22.8111781,52.108 22.8111781,51.464 C22.8111781,50.82 23.3358904,50.288 23.9710685,50.288 Z" id="Shape" fill="#FEF0E8" fill-rule="nonzero"></path>
                <path d="M14.6367123,57.372 L21.6236712,57.372 C22.2588493,57.372 22.7835616,57.904 22.7835616,58.548 C22.7835616,59.192 22.2588493,59.724 21.6236712,59.724 L14.6367123,59.724 C14.0015342,59.724 13.4768219,59.192 13.4768219,58.548 C13.4768219,57.904 14.0015342,57.372 14.6367123,57.372 Z" id="Path" fill="#EFEDF8" fill-rule="nonzero"></path>
                <path d="M25.3518904,64.484 L33.6644384,64.484 C34.4376986,64.484 35.0452603,65.016 35.0452603,65.66 C35.0452603,66.304 34.4376986,66.836 33.6644384,66.836 L25.3518904,66.836 C24.5786301,66.836 23.9710685,66.304 23.9710685,65.66 C23.9710685,65.016 24.5786301,64.484 25.3518904,64.484 Z" id="Path" fill="#FC6D26" fill-rule="nonzero"></path>
                <path d="M44.0206027,59.136 L52.3331507,59.136 C53.106411,59.136 53.7139726,59.808 53.7139726,60.62 C53.7139726,61.432 53.106411,62.104 52.3331507,62.104 L44.0206027,62.104 C43.2473425,62.104 42.6397808,61.432 42.6397808,60.62 C42.6397808,59.808 43.2473425,59.136 44.0206027,59.136 Z" id="Path" fill="#6B4FBB" fill-rule="nonzero"></path>
                <path d="M26.2908493,57.372 L28.6382466,57.372 C29.2734247,57.372 29.798137,57.904 29.798137,58.548 C29.798137,59.192 29.2734247,59.724 28.6382466,59.724 L26.2908493,59.724 C25.6556712,59.724 25.1309589,59.192 25.1309589,58.548 C25.1309589,57.904 25.6556712,57.372 26.2908493,57.372 Z" id="Path" fill="#FEE1D3" fill-rule="nonzero"></path>
                <path d="M36.8127123,64.484 L39.1601096,64.484 C39.7952877,64.484 40.32,65.016 40.32,65.66 C40.32,66.304 39.7952877,66.836 39.1601096,66.836 L36.8127123,66.836 C36.1775342,66.836 35.6528219,66.304 35.6528219,65.66 C35.6528219,65.016 36.1775342,64.484 36.8127123,64.484 Z M58.1049863,59.136 L61.0323288,59.136 C61.8332055,59.136 62.496,59.808 62.496,60.62 C62.496,61.432 61.8332055,62.104 61.0323288,62.104 L58.1049863,62.104 C57.3041096,62.104 56.6413151,61.432 56.6413151,60.62 C56.6413151,59.808 57.3041096,59.136 58.1049863,59.136 Z" id="Shape" fill="#FEF0E8" fill-rule="nonzero"></path>
                <path d="M35.3490411,59.136 L38.2763836,59.136 C39.0772603,59.136 39.7400548,59.808 39.7400548,60.62 C39.7400548,61.432 39.0772603,62.104 38.2763836,62.104 L35.3490411,62.104 C34.5481644,62.104 33.8853699,61.432 33.8853699,60.62 C33.8853699,59.808 34.5481644,59.136 35.3490411,59.136 Z" id="Path" fill="#FC6D26" fill-rule="nonzero"></path>
                <path d="M14.6367123,64.484 L20.4637808,64.484 C21.0989589,64.484 21.6236712,65.016 21.6236712,65.66 C21.6236712,66.304 21.0989589,66.836 20.4637808,66.836 L14.6367123,66.836 C14.0015342,66.836 13.4768219,66.304 13.4768219,65.66 C13.4768219,65.016 14.0015342,64.484 14.6367123,64.484 Z" id="Path" fill="#EEEEEE" fill-rule="nonzero"></path>
                <ellipse id="Oval" fill="#FFFFFF" fill-rule="nonzero" cx="36.7574795" cy="38.612" rx="20.4085479" ry="20.692"></ellipse>
                <path d="M36.7574795,59.304 C25.4899726,59.304 16.3489315,50.036 16.3489315,38.612 C16.3489315,27.188 25.4899726,17.92 36.7574795,17.92 C48.0249863,17.92 57.1660274,27.188 57.1660274,38.612 C57.1660274,50.036 48.0526027,59.304 36.7574795,59.304 Z M36.7574795,56.952 C46.7546301,56.952 54.8462466,48.748 54.8462466,38.612 C54.8462466,28.476 46.7546301,20.272 36.7574795,20.272 C26.7603288,20.272 18.6687123,28.476 18.6687123,38.612 C18.6687123,48.748 26.7879452,56.952 36.7574795,56.952 Z" id="Shape" fill="#EEEEEE" fill-rule="nonzero"></path>
                <g transform="translate(26.787945, 29.400000)" id="Path">
                    <path d="M19.7457534,10.528 L18.6410959,7.112 L16.4593973,0.336 C16.3489315,7.97972799e-15 15.8794521,7.97972799e-15 15.7413699,0.336 L13.5872877,7.112 L6.37939726,7.112 L4.19769863,0.336 C4.08723288,7.97972799e-15 3.61775342,7.97972799e-15 3.47967123,0.336 L1.2979726,7.112 L0.193315068,10.528 C0.0828493151,10.836 0.193315068,11.172 0.469479452,11.368 L9.94191781,18.34 L19.4143562,11.368 C19.718137,11.172 19.8286027,10.836 19.7457534,10.528" fill="#FC6D26"></path>
                    <polygon fill="#E24329" points="9.96953425 18.34 13.5596712 7.112 6.35178082 7.112"></polygon>
                    <polygon fill="#FC6D26" points="9.96953425 18.34 6.37939726 7.112 1.32558904 7.112"></polygon>
                    <path d="M1.32558904,7.112 L0.220931507,10.528 C0.110465753,10.836 0.220931507,11.172 0.49709589,11.368 L9.96953425,18.34 L1.32558904,7.112 Z" fill="#FCA326"></path>
                    <path d="M1.32558904,7.112 L6.37939726,7.112 L4.19769863,0.336 C4.08723288,7.9658502e-15 3.61775342,7.9658502e-15 3.47967123,0.336 L1.32558904,7.112 Z" fill="#E24329"></path>
                    <polygon fill="#FC6D26" points="9.96953425 18.34 13.5596712 7.112 18.6134795 7.112"></polygon>
                    <path d="M18.6410959,7.112 L19.7457534,10.528 C19.8562192,10.836 19.7457534,11.172 19.469589,11.368 L9.99715068,18.34 L18.6410959,7.112 Z" fill="#FCA326"></path>
                    <path d="M18.6410959,7.112 L13.5872877,7.112 L15.7689863,0.336 C15.8794521,7.9658502e-15 16.3489315,7.9658502e-15 16.4870137,0.336 L18.6410959,7.112 Z" fill="#E24329"></path>
                </g>
            </g>
            <path d="M76,41.475 C76,40.660967 76.8066938,40 77.8150611,40 L81.4537653,40 C82.4578417,40 83.2688264,40.6540094 83.2688264,41.475 C83.2688264,42.289033 82.4621326,42.95 81.4537653,42.95 L77.8150611,42.95 C76.8152757,42.95 76,42.2959906 76,41.4819575 C76,41.4784788 76,41.4784788 76,41.475 Z M88.7311736,41.475 C88.7311736,40.660967 89.5378674,40 90.5462347,40 L94.1849389,40 C95.1890152,40 96,40.6540094 96,41.475 C96,42.289033 95.1933062,42.95 94.1849389,42.95 L90.5462347,42.95 C89.5464493,42.95 88.7311736,42.2959906 88.7311736,41.4819575 C88.7311736,41.4784788 88.7311736,41.4784788 88.7311736,41.475 Z" id="Shape" fill="#E5E5E5" fill-rule="nonzero"></path>
            <g id="Group">
                <g transform="translate(3.686038, 58.800000)">
                    <path d="M6.33328302,0.207529412 L17.1233208,0.207529412 C20.541283,0.207529412 23.2890566,3.04376471 23.2890566,6.57176471 L23.2890566,17.7091765 C23.2890566,21.2025882 20.541283,24.0734118 17.1233208,24.0734118 L6.33328302,24.0734118 C2.94883019,24.0734118 0.16754717,21.2371765 0.16754717,17.7091765 L0.16754717,6.57176471 C0.16754717,3.04376471 2.91532075,0.207529412 6.33328302,0.207529412 Z" id="Path" fill="#FFFFFF"></path>
                    <path d="M6.33328302,3.38964706 C4.62430189,3.38964706 3.25041509,4.80776471 3.25041509,6.57176471 L3.25041509,17.7091765 C3.25041509,19.4731765 4.62430189,20.8912941 6.33328302,20.8912941 L17.1233208,20.8912941 C18.8323019,20.8912941 20.2061887,19.4731765 20.2061887,17.7091765 L20.2061887,6.57176471 C20.2061887,4.80776471 18.8323019,3.38964706 17.1233208,3.38964706 L6.33328302,3.38964706 Z M6.33328302,0.207529412 L17.1233208,0.207529412 C20.541283,0.207529412 23.2890566,3.04376471 23.2890566,6.57176471 L23.2890566,17.7091765 C23.2890566,21.2025882 20.541283,24.0734118 17.1233208,24.0734118 L6.33328302,24.0734118 C2.94883019,24.0734118 0.16754717,21.2371765 0.16754717,17.7091765 L0.16754717,6.57176471 C0.16754717,3.04376471 2.91532075,0.207529412 6.33328302,0.207529412 Z" id="Shape" fill="#E1DBF1" fill-rule="nonzero"></path>
                    <path d="M11.7283019,8.12823529 L11.7283019,8.12823529 C13.8393962,8.12823529 15.5818868,9.89223529 15.5818868,12.1058824 L15.5818868,12.1058824 C15.5818868,14.3195294 13.8729057,16.0835294 11.7283019,16.0835294 L11.7283019,16.0835294 C9.61720755,16.0835294 7.87471698,14.3195294 7.87471698,12.1058824 L7.87471698,12.1058824 C7.87471698,9.92682353 9.58369811,8.12823529 11.7283019,8.12823529 Z" id="Path" fill="#6B4FBB"></path>
                </g>
                <path d="M4.62430189,3.35505882 C3.78656604,3.35505882 3.08286792,4.08141176 3.08286792,4.94611765 L3.08286792,14.4924706 C3.08286792,15.3571765 3.78656604,16.0835294 4.62430189,16.0835294 L13.8729057,16.0835294 C14.7106415,16.0835294 15.4143396,15.3571765 15.4143396,14.4924706 L15.4143396,4.94611765 C15.4143396,4.08141176 14.7106415,3.35505882 13.8729057,3.35505882 L4.62430189,3.35505882 Z" id="Path" fill="#FFFFFF"></path>
                <path d="M4.62430189,3.35505882 C3.78656604,3.35505882 3.08286792,4.08141176 3.08286792,4.94611765 L3.08286792,14.4924706 C3.08286792,15.3571765 3.78656604,16.0835294 4.62430189,16.0835294 L13.8729057,16.0835294 C14.7106415,16.0835294 15.4143396,15.3571765 15.4143396,14.4924706 L15.4143396,4.94611765 C15.4143396,4.08141176 14.7106415,3.35505882 13.8729057,3.35505882 L4.62430189,3.35505882 Z M4.62430189,0.172941176 L13.8729057,0.172941176 C16.4196226,0.172941176 18.4972075,2.31741176 18.4972075,4.94611765 L18.4972075,14.4924706 C18.4972075,17.1211765 16.4196226,19.2656471 13.8729057,19.2656471 L4.62430189,19.2656471 C2.07758491,19.2656471 -1.19049424e-15,17.1211765 -1.19049424e-15,14.4924706 L-1.19049424e-15,4.94611765 C-1.19049424e-15,2.31741176 2.07758491,0.172941176 4.62430189,0.172941176 Z" id="Shape" fill="#FDC4A8" fill-rule="nonzero"></path>
                <path d="M9.24860377,6.53717647 L9.24860377,6.53717647 C10.9575849,6.53717647 12.3314717,7.95529412 12.3314717,9.71929412 L12.3314717,9.71929412 C12.3314717,11.4832941 10.9575849,12.9014118 9.24860377,12.9014118 L9.24860377,12.9014118 C7.53962264,12.9014118 6.16573585,11.4832941 6.16573585,9.71929412 L6.16573585,9.71929412 C6.16573585,7.95529412 7.53962264,6.53717647 9.24860377,6.53717647 Z" id="Path" fill="#FC6D26"></path>
                <g transform="translate(35.184906, 23.174118)">
                    <path d="M7.94173585,1.62564706 L27.9803774,1.62564706 C32.2360755,1.62564706 35.6875472,5.18823529 35.6875472,9.58094118 L35.6875472,30.2647059 C35.6875472,34.6574118 32.2360755,38.22 27.9803774,38.22 L7.94173585,38.22 C3.68603774,38.22 0.234566038,34.6574118 0.234566038,30.2647059 L0.234566038,9.58094118 C0.234566038,5.18823529 3.68603774,1.62564706 7.94173585,1.62564706 Z" id="Path" fill="#E1DBF1"></path>
                    <path d="M7.94173585,0.0345882353 L27.9803774,0.0345882353 C32.2360755,0.0345882353 35.6875472,3.59717647 35.6875472,7.98988235 L35.6875472,28.6736471 C35.6875472,33.0663529 32.2360755,36.6289412 27.9803774,36.6289412 L7.94173585,36.6289412 C3.68603774,36.6289412 0.234566038,33.0663529 0.234566038,28.6736471 L0.234566038,7.98988235 C0.234566038,3.59717647 3.68603774,0.0345882353 7.94173585,0.0345882353 Z" id="Path" fill="#E1DBF1"></path>
                    <path d="M7.94173585,3.21670588 C5.39501887,3.21670588 3.31743396,5.36117647 3.31743396,7.98988235 L3.31743396,28.6736471 C3.31743396,31.3023529 5.39501887,33.4468235 7.94173585,33.4468235 L27.9803774,33.4468235 C30.5270943,33.4468235 32.6046792,31.3023529 32.6046792,28.6736471 L32.6046792,7.98988235 C32.6046792,5.36117647 30.5270943,3.21670588 27.9803774,3.21670588 C27.9468679,3.21670588 7.94173585,3.21670588 7.94173585,3.21670588 Z M7.94173585,0.0345882353 L27.9803774,0.0345882353 C32.2360755,0.0345882353 35.6875472,3.59717647 35.6875472,7.98988235 L35.6875472,28.6736471 C35.6875472,33.0663529 32.2360755,36.6289412 27.9803774,36.6289412 L7.94173585,36.6289412 C3.68603774,36.6289412 0.234566038,33.0663529 0.234566038,28.6736471 L0.234566038,7.98988235 C0.234566038,3.59717647 3.68603774,0.0345882353 7.94173585,0.0345882353 Z" id="Shape" fill="#C3B8E3" fill-rule="nonzero"></path>
                    <path d="M14.1074717,12.7630588 L21.8146415,12.7630588 C22.6523774,12.7630588 23.3560755,13.4894118 23.3560755,14.3541176 L23.3560755,22.3094118 C23.3560755,23.1741176 22.6523774,23.9004706 21.8146415,23.9004706 L14.1074717,23.9004706 C13.2697358,23.9004706 12.5660377,23.1741176 12.5660377,22.3094118 L12.5660377,14.3541176 C12.5660377,13.4894118 13.2362264,12.7630588 14.1074717,12.7630588 Z" id="Path" fill="#6B4FBB"></path>
                </g>
                <path d="M32.6716981,71.4592941 C32.0685283,72.0818824 31.0967547,72.0818824 30.4935849,71.4592941 C29.8904151,70.8367059 29.8904151,69.8336471 30.4935849,69.2110588 L32.1355472,67.5162353 C32.738717,66.8936471 33.7104906,66.8936471 34.3136604,67.5162353 C34.9168302,68.1388235 34.9168302,69.1418824 34.3136604,69.7644706 L32.6716981,71.4592941 Z" id="Path" fill="#C3B8E3" fill-rule="nonzero"></path>
                <path d="M37.5640755,66.4094118 C36.9609057,67.032 35.9891321,67.032 35.3859623,66.4094118 C34.7827925,65.7868235 34.7827925,64.7837647 35.3859623,64.1611765 L37.0279245,62.4663529 C37.6310943,61.8437647 38.6028679,61.8437647 39.2060377,62.4663529 C39.8092075,63.0889412 39.8092075,64.092 39.2060377,64.7145882 L37.5640755,66.4094118 Z" id="Path" fill="#E1DBF1"></path>
                <path d="M21.3455094,21.2717647 C20.7088302,20.7183529 20.6083019,19.7152941 21.1444528,19.0235294 C21.6806038,18.3663529 22.6523774,18.2625882 23.322566,18.816 L25.098566,20.3378824 C25.7352453,20.8912941 25.8357736,21.8943529 25.2996226,22.5861176 C24.7634717,23.2432941 23.7916981,23.3470588 23.1215094,22.7936471 L21.3455094,21.2717647 Z" id="Path" fill="#E1DBF1" fill-rule="nonzero"></path>
                <path d="M26.64,25.872 C26.0033208,25.3185882 25.9027925,24.3155294 26.4389434,23.6237647 C26.9750943,22.9665882 27.9468679,22.8628235 28.6170566,23.4162353 L30.3930566,24.9381176 C31.0297358,25.4915294 31.1302642,26.4945882 30.5941132,27.1863529 C30.0579623,27.8781176 29.0861887,27.9472941 28.416,27.3938824 L26.64,25.872 Z" id="Path" fill="#C3B8E3"></path>
            </g>
        </g>
    </g>
</svg>