<svg width="169" height="78" viewBox="0 0 169 78" fill="none" xmlns="http://www.w3.org/2000/svg">
<path d="M115.571 41.5714L147.714 41.5714C158.365 41.5714 167 32.9369 167 22.2857C167 11.6345 158.365 3 147.714 3C137.063 3 128.429 11.6345 128.429 22.2857C128.429 27.3128 130.352 31.8907 133.503 35.3235" stroke="#DBDBDB" stroke-width="2.63203" stroke-linecap="round"/>
<path d="M115.107 41.5714H125.786C133.084 41.5714 139 47.4877 139 54.7857C139 62.0838 133.084 68 125.786 68C118.488 68 112.571 62.0838 112.571 54.7857C112.571 53.039 112.91 51.3715 113.526 49.8453" stroke="#DBDBDB" stroke-width="2.63203" stroke-linecap="round"/>
<path d="M87.5486 37H76.3943C75.6243 37 75 36.3746 75 35.6032C75 34.8318 75.6243 34.2064 76.3943 34.2064H87.5486C88.3187 34.2064 88.9429 34.8318 88.9429 35.6032C88.9429 36.3746 88.3187 37 87.5486 37Z" fill="#FC6D26"/>
<path d="M118.703 37H96.3943C95.6243 37 95 36.3746 95 35.6032C95 34.8318 95.6243 34.2064 96.3943 34.2064H118.703C119.473 34.2064 120.097 34.8318 120.097 35.6032C120.097 36.3746 119.473 37 118.703 37Z" fill="#FC6D26"/>
<path d="M118.703 37H96.3943C95.6243 37 95 36.3746 95 35.6032C95 34.8318 95.6243 34.2064 96.3943 34.2064H118.703C119.473 34.2064 120.097 34.8318 120.097 35.6032C120.097 36.3746 119.473 37 118.703 37Z" fill="white" fill-opacity="0.6"/>
<path d="M93.8573 32H71.3944C70.6243 32 70.0001 31.3746 70.0001 30.6032C70.0001 29.8318 70.6243 29.2064 71.3944 29.2064L93.8573 29.2064C94.6273 29.2064 95.2516 29.8318 95.2516 30.6032C95.2516 31.3746 94.6273 32 93.8573 32Z" fill="#6E49CB"/>
<path d="M93.8573 32H71.3944C70.6243 32 70.0001 31.3746 70.0001 30.6032C70.0001 29.8318 70.6243 29.2064 71.3944 29.2064L93.8573 29.2064C94.6273 29.2064 95.2516 29.8318 95.2516 30.6032C95.2516 31.3746 94.6273 32 93.8573 32Z" fill="white" fill-opacity="0.8"/>
<path d="M86.8573 49H71.3944C70.6243 49 70.0001 48.3746 70.0001 47.6032C70.0001 46.8317 70.6243 46.2064 71.3944 46.2064H86.8573C87.6273 46.2064 88.2516 46.8317 88.2516 47.6032C88.2516 48.3746 87.6273 49 86.8573 49Z" fill="#6E49CB"/>
<path d="M86.8573 49H71.3944C70.6243 49 70.0001 48.3746 70.0001 47.6032C70.0001 46.8317 70.6243 46.2064 71.3944 46.2064H86.8573C87.6273 46.2064 88.2516 46.8317 88.2516 47.6032C88.2516 48.3746 87.6273 49 86.8573 49Z" fill="white" fill-opacity="0.8"/>
<path d="M109.166 43L73.3944 43C72.6243 43 72.0001 42.3746 72.0001 41.6032C72.0001 40.8317 72.6243 40.2064 73.3944 40.2064L109.166 40.2064C109.936 40.2064 110.56 40.8317 110.56 41.6032C110.56 42.3746 109.936 43 109.166 43Z" fill="#6E49CB"/>
<path d="M109.166 43L73.3944 43C72.6243 43 72.0001 42.3746 72.0001 41.6032C72.0001 40.8317 72.6243 40.2064 73.3944 40.2064L109.166 40.2064C109.936 40.2064 110.56 40.8317 110.56 41.6032C110.56 42.3746 109.936 43 109.166 43Z" fill="white" fill-opacity="0.4"/>
<path d="M146.262 24.2349L143.048 21.0153C142.767 20.7338 142.282 20.7323 141.983 21.0313L140.394 22.6236C140.1 22.9181 140.088 23.4002 140.378 23.6903L145.344 28.6651C145.841 29.1637 146.666 29.1795 147.166 28.6793L147.866 27.9779L155.864 19.9653C156.171 19.658 156.167 19.1776 155.868 18.8786L154.279 17.2863C153.985 16.9918 153.495 16.9891 153.194 17.2903L146.262 24.2349Z" fill="#FC6D26"/>
<path fill-rule="evenodd" clip-rule="evenodd" d="M125.682 56.7113L123.087 59.3221C122.858 59.5529 122.547 59.6825 122.223 59.6824C121.898 59.6824 121.587 59.5526 121.358 59.3218C121.129 59.091 121 58.7779 121 58.4515C121 58.1251 121.129 57.8121 121.358 57.5813L123.087 55.8412L121.358 54.1011C121.129 53.8703 121 53.5573 121 53.2309C121 52.9045 121.129 52.5915 121.358 52.3606C121.587 52.1298 121.898 52.0001 122.223 52C122.547 51.9999 122.858 52.1296 123.087 52.3603L125.682 54.9711C125.911 55.2019 126.04 55.5149 126.04 55.8412C126.04 56.1675 125.911 56.4805 125.682 56.7113ZM131.796 56.7113L129.202 59.3221C129.088 59.4364 128.954 59.527 128.805 59.5888C128.657 59.6506 128.498 59.6824 128.337 59.6824C128.177 59.6824 128.018 59.6505 127.869 59.5886C127.721 59.5268 127.586 59.4361 127.472 59.3218C127.359 59.2075 127.269 59.0718 127.207 58.9225C127.146 58.7732 127.114 58.6131 127.114 58.4515C127.114 58.2899 127.146 58.1299 127.208 57.9806C127.269 57.8313 127.359 57.6956 127.473 57.5813L129.202 55.8412L127.473 54.1011C127.359 53.9868 127.269 53.8512 127.208 53.7018C127.146 53.5525 127.114 53.3925 127.114 53.2309C127.114 53.0693 127.146 52.9092 127.207 52.7599C127.269 52.6106 127.359 52.4749 127.472 52.3606C127.586 52.2463 127.721 52.1556 127.869 52.0938C128.018 52.0319 128.177 52 128.337 52C128.498 52 128.657 52.0318 128.805 52.0936C128.954 52.1554 129.088 52.246 129.202 52.3603L131.796 54.9711C132.026 55.2019 132.154 55.5149 132.154 55.8412C132.154 56.1675 132.026 56.4805 131.796 56.7113Z" fill="#6E49CB"/>
<path d="M2 26C2 28.415 14.4361 30.3727 29.7769 30.3727C33.7709 30.3727 37.568 30.24 41 30.0011" stroke="#DBDBDB" stroke-width="1.28173"/>
<path d="M2 50C2 52.415 14.4361 54.3727 29.7769 54.3727C35.6133 54.3727 41.0293 54.0893 45.5 53.6052" stroke="#DBDBDB" stroke-width="1.28173"/>
<path d="M57.5537 5V22M2 5V68.6673C2 73.1731 20.9696 75.5204 29.7769 75.5204C38.5842 75.5204 57.5537 73.1731 57.5537 68.6673V57" stroke="#DBDBDB" stroke-width="2.56346" stroke-linejoin="round"/>
<ellipse cx="29.7769" cy="5.64391" rx="27.7769" ry="3.64391" stroke="#DBDBDB" stroke-width="2.56346"/>
<ellipse cx="55.4286" cy="39.46" rx="17.4286" ry="17.46" stroke="#6E49CB" stroke-width="2.56346"/>
<ellipse cx="55.2458" cy="39.2696" rx="13.2458" ry="13.2696" fill="#6E49CB"/>
<ellipse cx="55.2458" cy="39.2696" rx="13.2458" ry="13.2696" fill="white" fill-opacity="0.9"/>
<path d="M61.763 38.5893C62.5797 39.0892 62.5797 40.2756 61.763 40.7756L52.951 46.1704C52.0969 46.6933 51 46.0787 51 45.0773L51 34.2875C51 33.2861 52.0969 32.6715 52.951 33.1944L61.763 38.5893Z" fill="#6E49CB"/>
</svg>
