<svg width="82" height="80" viewBox="0 0 82 80" fill="none" xmlns="http://www.w3.org/2000/svg">
<path d="M68.1765 8.17647H79.6471C80.2968 8.17647 80.8235 8.70319 80.8235 9.35294V69.6471C80.8235 70.2968 80.2968 70.8235 79.6471 70.8235H68.1765V8.17647Z" fill="#F0F0F0" stroke="#DBDBDB" stroke-width="2.35294"/>
<path d="M24.0504 19L24.0093 10.0746C24.0039 8.9145 24.8449 7.92363 25.9905 7.74035L65.393 1.43595C66.8226 1.20721 68.1176 2.31155 68.1176 3.75934V75.903C68.1176 77.3456 66.8314 78.4485 65.4057 78.2284L26.2788 72.1887C25.1356 72.0122 24.2902 71.0309 24.2849 69.8742L24.244 61" stroke="#DBDBDB" stroke-width="2.35294"/>
<path d="M60.0194 11.1796L30.0195 15.2198C29.4357 15.2984 29 15.7966 29 16.3857V19.1235C29 19.8153 29.594 20.3578 30.283 20.2951L60.283 17.5679C60.889 17.5128 61.3529 17.0047 61.3529 16.3962V12.3455C61.3529 11.6334 60.7252 11.0845 60.0194 11.1796Z" fill="#DBDBDB" stroke="#DBDBDB" stroke-width="0.588235" stroke-linecap="round" stroke-linejoin="bevel"/>
<path d="M51.1704 29.1021L41.8902 29.8481C41.0202 29.918 40.5266 30.8776 40.9756 31.626L42.6523 34.4205C42.8676 34.7793 43.2573 34.9968 43.6758 34.9916L51.2794 34.8968C51.9233 34.8888 52.4412 34.3645 52.4412 33.7205V30.2748C52.4412 29.5879 51.8551 29.0471 51.1704 29.1021Z" fill="#DBDBDB" stroke="#DBDBDB" stroke-width="0.588235" stroke-linecap="round" stroke-linejoin="bevel"/>
<path d="M61.2104 70.6341V40.1765C61.2104 39.5267 60.6837 39 60.0339 39H44.9909C44.4469 39 43.9738 39.373 43.8469 39.9019L41.118 51.2721C41.0819 51.4226 41.0148 51.5672 40.923 51.6918C37.1778 56.7763 34.7228 57.4741 29.7135 59.6826C29.2815 59.873 29.0064 60.3064 29.0162 60.7783L29.1309 66.295C29.1428 66.8693 29.5679 67.3511 30.1362 67.4345L59.8631 71.7981C60.5732 71.9024 61.2104 71.3519 61.2104 70.6341Z" fill="#DBDBDB" stroke="#DBDBDB" stroke-width="0.588235" stroke-linecap="round" stroke-linejoin="bevel"/>
<path d="M43.5694 24L36 24.5" stroke="#DBDBDB" stroke-width="1.17647" stroke-linecap="round"/>
<circle cx="23" cy="40" r="21" stroke="#6E49CB" stroke-width="2.35294"/>
<circle cx="23" cy="40" r="17" fill="#6E49CB"/>
<circle cx="23" cy="40" r="17" fill="white" fill-opacity="0.9"/>
<path d="M22.3125 48V33" stroke="#6E49CB" stroke-width="2.35294" stroke-linecap="round"/>
<path d="M15 41.3148H30" stroke="#6E49CB" stroke-width="2.35294" stroke-linecap="round"/>
</svg>
