<svg width="169" height="84" viewBox="0 0 169 84" fill="none" xmlns="http://www.w3.org/2000/svg">
<g clip-path="url(#clip0)">
<path d="M153.5 74.5714H165.684C166.411 74.5714 167 73.9822 167 73.2554V8.74461C167 8.01779 166.411 7.42859 165.684 7.42859H153.5" stroke="#DBDBDB" stroke-width="2.63203"/>
<path d="M107.94 57L108.014 72.9062C108.017 73.5536 108.49 74.1026 109.13 74.2008L151.913 80.7674C152.71 80.8897 153.429 80.273 153.429 79.4666V2.54193C153.429 1.73264 152.705 1.11511 151.906 1.24226L108.829 8.09543C108.187 8.19744 107.716 8.7519 107.719 9.4012L107.771 20.5" stroke="#DBDBDB" stroke-width="2.63203"/>
<path d="M133.539 52.5313L122.91 51.9925M137.311 52.7225L148.969 53.3135" stroke="#DFDFDF" stroke-width="1.31602" stroke-linecap="round"/>
<path d="M132.224 43.9783L124 43.6955M135.998 44.1081L147.665 44.5092" stroke="#DFDFDF" stroke-width="1.31602" stroke-linecap="round"/>
<path d="M148.238 12.3644L131.189 14.604M117.282 16.4529L126.416 15.2311" stroke="#DFDFDF" stroke-width="1.31602" stroke-linecap="round"/>
<path d="M149.032 36.8519L131.839 37.0342M125 37.0852L127.024 37.0852" stroke="#DFDFDF" stroke-width="1.31602" stroke-linecap="round"/>
<path d="M112.038 66.3444L120.582 67.4102M148.266 70.8634L134.595 69.1581M125.025 67.9644L129.468 68.5186" stroke="#DFDFDF" stroke-width="1.31602" stroke-linecap="round"/>
<path d="M114.352 23.3947L116.215 23.2387M129.258 22.147L119.433 22.9693M137.388 21.4665L145.18 20.8143" stroke="#DFDFDF" stroke-width="1.31602" stroke-linecap="round"/>
<path d="M135.832 29.2067L125.981 29.5888M138.724 28.9864L146.537 28.6833" stroke="#DFDFDF" stroke-width="1.31602" stroke-linecap="round"/>
<path d="M115.114 59.5557L128.942 60.8796M133.782 61.3429L145.19 62.4351" stroke="#DFDFDF" stroke-width="1.31602" stroke-linecap="round"/>
<path d="M53.4286 42.4286H21.2857C10.6345 42.4286 2.00002 33.7941 2.00002 23.1429C2.00002 12.4917 10.6345 3.85718 21.2857 3.85718C31.9369 3.85718 40.5714 12.4917 40.5714 23.1429C40.5714 28.17 38.648 32.7479 35.4969 36.1807" stroke="#DBDBDB" stroke-width="2.63203" stroke-linecap="round"/>
<path d="M53.0361 42.4286H42.3571C35.0591 42.4286 29.1428 48.3448 29.1428 55.6429C29.1428 62.9409 35.0591 68.8572 42.3571 68.8572C49.6552 68.8572 55.5714 62.9409 55.5714 55.6429C55.5714 53.8962 55.2325 52.2287 54.6169 50.7025" stroke="#DBDBDB" stroke-width="2.63203" stroke-linecap="round"/>
<path fill-rule="evenodd" clip-rule="evenodd" d="M38.4286 51.7144C38.4286 50.9254 39.0682 50.2858 39.8572 50.2858H44.1429C44.829 50.2858 45.4022 50.7695 45.5399 51.4146L47.7105 52.6677C48.3938 53.0622 48.6279 53.9359 48.2334 54.6192C47.3183 56.2042 45.5714 59.2248 45.4609 59.4191C45.1836 59.9063 44.7237 60.2858 44.1429 60.2858H39.8572C39.0682 60.2858 38.4286 59.6462 38.4286 58.8572V51.7144ZM39.8572 51.7144H44.1429V58.8572H39.8572L39.8572 51.7144ZM45.5714 56.3727L46.9962 53.9049L45.5714 53.0823V56.3727Z" fill="#FC6D26"/>
<path d="M25.5984 15.2331C25.8026 14.471 25.3503 13.6877 24.5882 13.4835C23.8261 13.2793 23.0428 13.7315 22.8386 14.4936L18.4017 31.0524C18.1975 31.8145 18.6497 32.5978 19.4118 32.802C20.1739 33.0062 20.9573 32.5539 21.1615 31.7918L25.5984 15.2331Z" fill="#6E49CB"/>
<path d="M17.2958 17.8469C17.8537 18.4048 17.8537 19.3093 17.2958 19.8672L14.0203 23.1428L17.2958 26.4183C17.8537 26.9762 17.8537 27.8807 17.2958 28.4386C16.738 28.9965 15.8334 28.9965 15.2755 28.4386L10.9898 24.1529C10.4319 23.595 10.4319 22.6905 10.9898 22.1326L15.2755 17.8469C15.8334 17.289 16.738 17.289 17.2958 17.8469Z" fill="#6E49CB"/>
<path d="M26.7041 17.8469C26.1462 18.4048 26.1462 19.3093 26.7041 19.8672L29.9797 23.1428L26.7041 26.4183C26.1462 26.9762 26.1462 27.8807 26.7041 28.4386C27.262 28.9965 28.1665 28.9965 28.7244 28.4386L33.0101 24.1529C33.568 23.595 33.568 22.6905 33.0101 22.1326L28.7244 17.8469C28.1665 17.289 27.262 17.289 26.7041 17.8469Z" fill="#6E49CB"/>
<path d="M50.5714 35.2857L62 35.2857C62.7889 35.2857 63.4285 35.9253 63.4285 36.7143C63.4285 37.5032 62.7889 38.1428 62 38.1428L50.5714 38.1428C49.7824 38.1428 49.1428 37.5032 49.1428 36.7143C49.1428 35.9253 49.7824 35.2857 50.5714 35.2857Z" fill="#FC6D26"/>
<path d="M50.5714 35.2857L62 35.2857C62.7889 35.2857 63.4285 35.9253 63.4285 36.7143C63.4285 37.5032 62.7889 38.1428 62 38.1428L50.5714 38.1428C49.7824 38.1428 49.1428 37.5032 49.1428 36.7143C49.1428 35.9253 49.7824 35.2857 50.5714 35.2857Z" fill="white" fill-opacity="0.6"/>
<path d="M70.5713 35.2857L83.4285 35.2857C84.2175 35.2857 84.8571 35.9253 84.8571 36.7143C84.8571 37.5032 84.2175 38.1428 83.4285 38.1428L70.5713 38.1428C69.7824 38.1428 69.1428 37.5032 69.1428 36.7143C69.1428 35.9253 69.7824 35.2857 70.5713 35.2857Z" fill="#FC6D26"/>
<path d="M76.2856 46.7144L92.1428 46.7144C92.9318 46.7144 93.5714 47.3539 93.5714 48.1429C93.5714 48.9319 92.9318 49.5715 92.1428 49.5715L76.2856 49.5715C75.4967 49.5715 74.8571 48.9319 74.8571 48.1429C74.8571 47.354 75.4967 46.7144 76.2856 46.7144Z" fill="#6E49CB"/>
<path d="M76.2856 46.7144L92.1428 46.7144C92.9318 46.7144 93.5714 47.3539 93.5714 48.1429C93.5714 48.9319 92.9318 49.5715 92.1428 49.5715L76.2856 49.5715C75.4967 49.5715 74.8571 48.9319 74.8571 48.1429C74.8571 47.354 75.4967 46.7144 76.2856 46.7144Z" fill="white" fill-opacity="0.8"/>
<path d="M62.7142 40.9999L90 40.9999C90.7889 40.9999 91.4285 41.6395 91.4285 42.4285C91.4285 43.2175 90.7889 43.8571 90 43.8571L62.7142 43.8571C61.9253 43.8571 61.2857 43.2175 61.2857 42.4285C61.2857 41.6395 61.9253 40.9999 62.7142 40.9999Z" fill="#6E49CB"/>
<path d="M62.7142 40.9999L90 40.9999C90.7889 40.9999 91.4285 41.6395 91.4285 42.4285C91.4285 43.2175 90.7889 43.8571 90 43.8571L62.7142 43.8571C61.9253 43.8571 61.2857 43.2175 61.2857 42.4285C61.2857 41.6395 61.9253 40.9999 62.7142 40.9999Z" fill="white" fill-opacity="0.6"/>
<path d="M69.8571 29.5714L91.5714 29.5714C92.3603 29.5714 92.9999 30.211 92.9999 31C92.9999 31.789 92.3603 32.4286 91.5714 32.4286L69.8571 32.4286C69.0681 32.4286 68.4285 31.789 68.4285 31C68.4285 30.211 69.0681 29.5714 69.8571 29.5714Z" fill="#6E49CB"/>
<path d="M69.8571 29.5714L91.5714 29.5714C92.3603 29.5714 92.9999 30.211 92.9999 31C92.9999 31.789 92.3603 32.4286 91.5714 32.4286L69.8571 32.4286C69.0681 32.4286 68.4285 31.789 68.4285 31C68.4285 30.211 69.0681 29.5714 69.8571 29.5714Z" fill="white" fill-opacity="0.8"/>
<circle cx="107.714" cy="38.8571" r="17.8571" stroke="#6E49CB" stroke-width="2.63203"/>
<circle cx="107.714" cy="38.8573" r="13.5714" fill="#6E49CB"/>
<circle cx="107.714" cy="38.8573" r="13.5714" fill="white" fill-opacity="0.9"/>
<path d="M111.431 35.0867L115.367 39.0232L111.431 42.9597C111.016 43.3744 110.344 43.3744 109.929 42.9597C109.515 42.545 109.515 41.8727 109.929 41.458L111.302 40.0851H101.123C100.537 40.0851 100.061 39.6097 100.061 39.0232C100.061 38.4367 100.537 37.9613 101.123 37.9613H111.302L109.929 36.5884C109.515 36.1737 109.515 35.5014 109.929 35.0867C110.344 34.672 111.016 34.672 111.431 35.0867Z" fill="#6E49CB"/>
</g>
<defs>
<clipPath id="clip0">
<rect width="169" height="84" fill="white"/>
</clipPath>
</defs>
</svg>
