<?xml version="1.0" encoding="UTF-8"?>
<svg width="215px" height="115px" viewBox="0 0 215 115" version="1.1" xmlns="http://www.w3.org/2000/svg" xmlns:xlink="http://www.w3.org/1999/xlink">
    <!-- Generator: Sketch 61.2 (89653) - https://sketch.com -->
    <title>import-project-md</title>
    <desc>Created with Sketch.</desc>
    <g id="import-project-md" stroke="none" stroke-width="1" fill="none" fill-rule="evenodd">
        <g id="Group-4" transform="translate(14.000000, 15.000000)">
            <g id="Group-7" transform="translate(0.000000, 0.007864)" fill-rule="nonzero">
                <path d="M5.84551724,4.12490066 L61.9641379,4.12490066 C65.1917241,4.12490066 67.8096552,6.76450331 67.8096552,10.0188079 L67.8096552,77.8001325 C67.8096552,81.0544371 65.1917241,83.6940397 61.9641379,83.6940397 L5.84551724,83.6940397 C2.61793103,83.6940397 2.84217094e-14,81.0544371 2.84217094e-14,77.8001325 L2.84217094e-14,10.0188079 C2.84217094e-14,6.76450331 2.61793103,4.12490066 5.84551724,4.12490066 Z" id="Path" fill="#F9F9F9"></path>
                <path d="M8.76965517,1.17933775 L64.8882759,1.17933775 C68.1158621,1.17933775 70.7337931,3.8189404 70.7337931,7.07324503 L70.7337931,74.2649007 C70.7337931,77.5192053 68.1158621,80.1588079 64.8882759,80.1588079 L8.76965517,80.1588079 C5.54206897,80.1588079 2.92413793,77.5192053 2.92413793,74.2649007 L2.92413793,7.07324503 C2.92413793,3.81615894 5.53931034,1.17933775 8.76965517,1.17933775 Z" id="Path" fill="#FFFFFF"></path>
                <path d="M64.8882759,2.20268248e-13 C68.7613793,2.20268248e-13 71.9034483,3.16807947 71.9034483,7.07324503 L71.9024828,19.847 L69.5634828,19.847 L69.5641379,7.07324503 C69.5641379,4.46980132 67.4703448,2.3586755 64.8882759,2.3586755 L8.76965517,2.3586755 L8.76965517,2.35589404 C6.18758621,2.35589404 4.0937931,4.46701987 4.0937931,7.07046358 L4.0937931,74.2621192 C4.0937931,76.8655629 6.18758621,78.9766887 8.76965517,78.9766887 L64.8882759,78.9766887 C67.4703448,78.9766887 69.5641379,76.8655629 69.5641379,74.2621192 L69.5624828,54.847 L71.9014828,54.847 L71.9034483,74.2649007 C71.9034483,78.1700662 68.7613793,81.3381457 64.8882759,81.3381457 L8.76965517,81.3381457 C4.89655172,81.3381457 1.75448276,78.1700662 1.75448276,74.2649007 L1.75448276,7.07324503 C1.75448276,3.16529801 4.8937931,2.20268248e-13 8.76965517,2.20268248e-13 L64.8882759,2.20268248e-13 Z M71.9014828,44.847 L71.9004828,48.847 L69.5614828,48.847 L69.5624828,44.847 L71.9014828,44.847 Z M71.9024828,26.847 L71.9014828,31.847 L69.5624828,31.847 L69.5634828,26.847 L71.9024828,26.847 Z" id="Combined-Shape" fill="#EEEEEE"></path>
                <path d="M14.6151724,14.7333775 L21.6275862,14.7333775 C22.2731034,14.7333775 22.7972414,15.2618543 22.7972414,15.9127152 C22.7972414,16.5635762 22.2731034,17.092053 21.6275862,17.092053 L14.6151724,17.092053 C13.9696552,17.092053 13.4455172,16.5635762 13.4455172,15.9127152 C13.4455172,15.2618543 13.9696552,14.7333775 14.6151724,14.7333775 Z M33.3213793,21.8066225 L40.3365517,21.8066225 C40.982069,21.8066225 41.5062069,22.3350993 41.5062069,22.9859603 C41.5062069,23.6368212 40.982069,24.165298 40.3365517,24.165298 L33.3213793,24.165298 C32.6758621,24.165298 32.1517241,23.6368212 32.1517241,22.9859603 C32.1517241,22.3350993 32.6731034,21.8066225 33.3213793,21.8066225 Z" id="Shape" fill="#E1DBF1"></path>
                <path d="M40.3337931,14.7333775 L47.3489655,14.7333775 C47.9944828,14.7333775 48.5186207,15.2618543 48.5186207,15.9127152 C48.5186207,16.5635762 47.9944828,17.092053 47.3489655,17.092053 L40.3337931,17.092053 C39.6882759,17.092053 39.1641379,16.5635762 39.1641379,15.9127152 C39.1668966,15.2618543 39.6882759,14.7333775 40.3337931,14.7333775 Z" id="Path" fill="#EEEEEE"></path>
                <path d="M21.6275862,28.8798675 L28.6427586,28.8798675 C29.2882759,28.8798675 29.8124138,29.4083444 29.8124138,30.0592053 C29.8124138,30.7100662 29.2882759,31.238543 28.6427586,31.238543 L21.6275862,31.238543 C20.982069,31.238543 20.457931,30.7100662 20.457931,30.0592053 C20.4606897,29.4083444 20.982069,28.8798675 21.6275862,28.8798675 Z" id="Path" fill="#E1DBF1"></path>
                <path d="M26.3062069,14.7333775 L28.6455172,14.7333775 C29.2910345,14.7333775 29.8151724,15.2618543 29.8151724,15.9127152 C29.8151724,16.5635762 29.2910345,17.092053 28.6455172,17.092053 L26.3062069,17.092053 C25.6606897,17.092053 25.1365517,16.5635762 25.1365517,15.9127152 C25.1365517,15.2618543 25.6606897,14.7333775 26.3062069,14.7333775 Z" id="Path" fill="#FEE1D3"></path>
                <path d="M33.3213793,35.9531126 L35.6606897,35.9531126 C36.3062069,35.9531126 36.8303448,36.4815894 36.8303448,37.1324503 C36.8303448,37.7833113 36.3062069,38.3117881 35.6606897,38.3117881 L33.3213793,38.3117881 C32.6758621,38.3117881 32.1517241,37.7833113 32.1517241,37.1324503 C32.1517241,36.4815894 32.6731034,35.9531126 33.3213793,35.9531126 Z" id="Path" fill="#FC6D26"></path>
                <path d="M52.0248276,14.7333775 L54.3641379,14.7333775 C55.0096552,14.7333775 55.5337931,15.2618543 55.5337931,15.9127152 C55.5337931,16.5635762 55.0096552,17.092053 54.3641379,17.092053 L52.0248276,17.092053 C51.3793103,17.092053 50.8551724,16.5635762 50.8551724,15.9127152 C50.857931,15.2618543 51.3793103,14.7333775 52.0248276,14.7333775 Z" id="Shape" fill="#FEF0E8"></path>
                <path d="M23.9668966,43.0263576 L28.6427586,43.0263576 C29.2882759,43.0263576 29.8124138,43.5548344 29.8124138,44.2056954 C29.8124138,44.8565563 29.2882759,45.3850331 28.6427586,45.3850331 L23.9668966,45.3850331 C23.3213793,45.3850331 22.7972414,44.8565563 22.7972414,44.2056954 C22.7972414,43.5548344 23.3213793,43.0263576 23.9668966,43.0263576 Z" id="Path" fill="#E1DBF1"></path>
                <path d="M40.3337931,35.9531126 L42.6731034,35.9531126 C43.3186207,35.9531126 43.8427586,36.4815894 43.8427586,37.1324503 C43.8427586,37.7833113 43.3186207,38.3117881 42.6731034,38.3117881 L40.3337931,38.3117881 C39.6882759,38.3117881 39.1641379,37.7833113 39.1641379,37.1324503 C39.1641379,36.4815894 39.6882759,35.9531126 40.3337931,35.9531126 Z" id="Path" fill="#FC6D26"></path>
                <path d="M52.3172414,33.5944371 C53.1255172,33.5944371 53.7793103,34.2536424 53.7793103,35.0686093 C53.7793103,35.8835762 53.1255172,36.5427815 52.3172414,36.5427815 C51.5089655,36.5427815 50.8551724,35.8835762 50.8551724,35.0686093 C50.8551724,34.2536424 51.5117241,33.5944371 52.3172414,33.5944371 Z M58.1627586,50.6892715 C58.9710345,50.6892715 59.6248276,51.3484768 59.6248276,52.1634437 C59.6248276,52.9784106 58.9710345,53.6376159 58.1627586,53.6376159 C57.3544828,53.6376159 56.7006897,52.9784106 56.7006897,52.1634437 C56.7006897,51.3484768 57.3572414,50.6892715 58.1627586,50.6892715 Z" id="Shape" fill="#E1DBF1"></path>
                <path d="M63.4262069,50.6892715 C64.2344828,50.6892715 64.8882759,51.3484768 64.8882759,52.1634437 C64.8882759,52.9784106 64.2344828,53.6376159 63.4262069,53.6376159 C62.617931,53.6376159 61.9641379,52.9784106 61.9641379,52.1634437 C61.9641379,51.3484768 62.617931,50.6892715 63.4262069,50.6892715 Z M33.3213793,14.7333775 L35.6606897,14.7333775 C36.3062069,14.7333775 36.8303448,15.2618543 36.8303448,15.9127152 C36.8303448,16.5635762 36.3062069,17.092053 35.6606897,17.092053 L33.3213793,17.092053 C32.6758621,17.092053 32.1517241,16.5635762 32.1517241,15.9127152 C32.1517241,15.2618543 32.6731034,14.7333775 33.3213793,14.7333775 Z" id="Shape" fill="#FC6D26"></path>
                <path d="M59.1696552,33.8470199 L66.182069,33.8470199 C66.8275862,33.8470199 67.3517241,34.3754967 67.3517241,35.0263576 C67.3517241,35.6772185 66.8275862,36.2056954 66.182069,36.2056954 L59.1696552,36.2056954 C58.5241379,36.2056954 58,35.6772185 58,35.0263576 C58,34.3754967 58.5241379,33.8470199 59.1696552,33.8470199 Z" id="Shape" fill="#E1DBF1"></path>
                <path d="M70.8606897,33.8470199 L73.2,33.8470199 C73.8455172,33.8470199 74.3696552,34.3754967 74.3696552,35.0263576 C74.3696552,35.6772185 73.8455172,36.2056954 73.2,36.2056954 L70.8606897,36.2056954 C70.2151724,36.2056954 69.6910345,35.6772185 69.6910345,35.0263576 C69.6910345,34.3754967 70.2151724,33.8470199 70.8606897,33.8470199 Z" id="Path" fill="#FEE1D3"></path>
                <path d="M77.8758621,33.8470199 L80.2151724,33.8470199 C80.8606897,33.8470199 81.3848276,34.3754967 81.3848276,35.0263576 C81.3848276,35.6772185 80.8606897,36.2056954 80.2151724,36.2056954 L77.8758621,36.2056954 C77.2303448,36.2056954 76.7062069,35.6772185 76.7062069,35.0263576 C76.7062069,34.3754967 77.2275862,33.8470199 77.8758621,33.8470199 Z" id="Shape" fill="#FC6D26"></path>
                <path d="M14.6151724,35.9531126 L28.6455172,35.9531126 C29.2910345,35.9531126 29.8151724,36.4815894 29.8151724,37.1324503 C29.8151724,37.7833113 29.2910345,38.3117881 28.6455172,38.3117881 L14.6151724,38.3117881 C13.9696552,38.3117881 13.4455172,37.7833113 13.4455172,37.1324503 C13.4455172,36.4815894 13.9696552,35.9531126 14.6151724,35.9531126 Z M44.0937931,41.8470199 L61.1282759,41.8470199 C61.9117241,41.8470199 62.5489655,42.5062252 62.5489655,43.3211921 C62.5489655,44.1361589 61.9144828,44.7953642 61.1282759,44.7953642 L44.0937931,44.7953642 C43.3103448,44.7953642 42.6731034,44.1361589 42.6731034,43.3211921 C42.6731034,42.5062252 43.3103448,41.8470199 44.0937931,41.8470199 L44.0937931,41.8470199 L44.0937931,41.8470199 Z" id="Shape" fill="#EEEEEE"></path>
                <path d="M35.3241379,50.6892715 L52.3586207,50.6892715 C53.142069,50.6892715 53.7793103,51.3484768 53.7793103,52.1634437 C53.7793103,52.9784106 53.1448276,53.6376159 52.3586207,53.6376159 L35.3241379,53.6376159 C34.5406897,53.6376159 33.9034483,52.9784106 33.9034483,52.1634437 C33.9034483,51.3484768 34.5406897,50.6892715 35.3241379,50.6892715 L35.3241379,50.6892715 L35.3241379,50.6892715 Z" id="Path" fill="#EFEDF8"></path>
                <path d="M14.6151724,21.8066225 L28.6455172,21.8066225 C29.2910345,21.8066225 29.8151724,22.3350993 29.8151724,22.9859603 C29.8151724,23.6368212 29.2910345,24.165298 28.6455172,24.165298 L14.6151724,24.165298 C13.9696552,24.165298 13.4455172,23.6368212 13.4455172,22.9859603 C13.4455172,22.3350993 13.9696552,21.8066225 14.6151724,21.8066225 Z" id="Path" fill="#6B4FBB"></path>
                <path d="M33.3213793,28.8798675 L47.3517241,28.8798675 C47.9972414,28.8798675 48.5213793,29.4083444 48.5213793,30.0592053 C48.5213793,30.7100662 47.9972414,31.238543 47.3517241,31.238543 L33.3213793,31.238543 C32.6758621,31.238543 32.1517241,30.7100662 32.1517241,30.0592053 C32.1517241,29.4083444 32.6731034,28.8798675 33.3213793,28.8798675 Z" id="Path" fill="#C3B8E3"></path>
                <path d="M14.6151724,28.8798675 L16.9544828,28.8798675 C17.6,28.8798675 18.1241379,29.4083444 18.1241379,30.0592053 C18.1241379,30.7100662 17.6,31.238543 16.9544828,31.238543 L14.6151724,31.238543 C13.9696552,31.238543 13.4455172,30.7100662 13.4455172,30.0592053 C13.4455172,29.4083444 13.9696552,28.8798675 14.6151724,28.8798675 Z" id="Path" fill="#FEF0E8"></path>
                <path d="M75.182069,50.8470199 L82.1972414,50.8470199 C82.8427586,50.8470199 83.3668966,51.3754967 83.3668966,52.0263576 C83.3668966,52.6772185 82.8427586,53.2056954 82.1972414,53.2056954 L75.182069,53.2056954 C74.5365517,53.2056954 74.0124138,52.6772185 74.0124138,52.0263576 C74.0151724,51.3754967 74.5365517,50.8470199 75.182069,50.8470199 Z" id="Path" fill="#E1DBF1"></path>
                <path d="M86.8758621,50.8470199 L100.906207,50.8470199 C101.551724,50.8470199 102.075862,51.5079868 102.075862,52.3220199 C102.075862,53.1360529 101.551724,53.7970199 100.906207,53.7970199 L86.8758621,53.7970199 C86.2303448,53.7970199 85.7062069,53.1360529 85.7062069,52.3220199 C85.7062069,51.5079868 86.2275862,50.8470199 86.8758621,50.8470199 Z" id="Path" fill="#C3B8E3"></path>
                <path d="M68.1696552,50.8470199 L70.5089655,50.8470199 C71.1544828,50.8470199 71.6786207,51.3754967 71.6786207,52.0263576 C71.6786207,52.6772185 71.1544828,53.2056954 70.5089655,53.2056954 L68.1696552,53.2056954 C67.5241379,53.2056954 67,52.6772185 67,52.0263576 C67,51.3754967 67.5241379,50.8470199 68.1696552,50.8470199 Z" id="Path" fill="#FEF0E8"></path>
                <path d="M33.3213793,43.0263576 L35.6606897,43.0263576 C36.3062069,43.0263576 36.8303448,43.5548344 36.8303448,44.2056954 C36.8303448,44.8565563 36.3062069,45.3850331 35.6606897,45.3850331 L33.3213793,45.3850331 C32.6758621,45.3850331 32.1517241,44.8565563 32.1517241,44.2056954 C32.1517241,43.5548344 32.6731034,43.0263576 33.3213793,43.0263576 Z" id="Path" fill="#6B4FBB"></path>
                <path d="M14.6151724,43.0263576 L19.2910345,43.0263576 C19.9365517,43.0263576 20.4606897,43.5548344 20.4606897,44.2056954 C20.4606897,44.8565563 19.9365517,45.3850331 19.2910345,45.3850331 L14.6151724,45.3850331 C13.9696552,45.3850331 13.4455172,44.8565563 13.4455172,44.2056954 C13.4455172,43.5548344 13.9696552,43.0263576 14.6151724,43.0263576 Z" id="Path" fill="#FC6D26"></path>
                <path d="M14.6151724,50.0996026 L19.2910345,50.0996026 C19.9365517,50.0996026 20.4606897,50.6280795 20.4606897,51.2789404 C20.4606897,51.9298013 19.9365517,52.4582781 19.2910345,52.4582781 L14.6151724,52.4582781 C13.9696552,52.4582781 13.4455172,51.9298013 13.4455172,51.2789404 C13.4455172,50.625298 13.9696552,50.0996026 14.6151724,50.0996026 Z M23.9668966,50.0996026 L28.6427586,50.0996026 C29.2882759,50.0996026 29.8124138,50.6280795 29.8124138,51.2789404 C29.8124138,51.9298013 29.2882759,52.4582781 28.6427586,52.4582781 L23.9668966,52.4582781 C23.3213793,52.4582781 22.7972414,51.9298013 22.7972414,51.2789404 C22.7972414,50.625298 23.3213793,50.0996026 23.9668966,50.0996026 Z" id="Shape" fill="#FEF0E8"></path>
                <path d="M88.7172414,21.8029139 C89.5255172,21.8029139 90.1793103,22.4621192 90.1793103,23.2770861 C90.1793103,24.092053 89.5255172,24.7512583 88.7172414,24.7512583 C87.9089655,24.7512583 87.2551724,24.092053 87.2551724,23.2770861 C87.2551724,22.4621192 87.9117241,21.8029139 88.7172414,21.8029139 Z" id="Shape" fill="#FEE1D3"></path>
                <path d="M93.9806897,21.8029139 C94.7889655,21.8029139 95.4427586,22.4621192 95.4427586,23.2770861 C95.4427586,24.092053 94.7889655,24.7512583 93.9806897,24.7512583 C93.1724138,24.7512583 92.5186207,24.092053 92.5186207,23.2770861 C92.5186207,22.4621192 93.1724138,21.8029139 93.9806897,21.8029139 Z" id="Shape" fill="#6B4FBB"></path>
                <path d="M65.8786207,21.8029139 L82.9131034,21.8029139 C83.6965517,21.8029139 84.3337931,22.4624894 84.3337931,23.2779139 C84.3337931,24.0933384 83.6993103,24.7529139 82.9131034,24.7529139 L65.8786207,24.7529139 C65.0951724,24.7529139 64.457931,24.0933384 64.457931,23.2779139 C64.457931,22.4624894 65.0951724,21.8029139 65.8786207,21.8029139 L65.8786207,21.8029139 L65.8786207,21.8029139 Z" id="Path" fill="#FC6D26"></path>
                <path d="M54.5213793,21.213245 L59.1972414,21.213245 C59.8427586,21.213245 60.3668966,21.7417219 60.3668966,22.3925828 C60.3668966,23.0434437 59.8427586,23.5719205 59.1972414,23.5719205 L54.5213793,23.5719205 C53.8758621,23.5719205 53.3517241,23.0434437 53.3517241,22.3925828 C53.3517241,21.7389404 53.8758621,21.213245 54.5213793,21.213245 Z" id="Shape" fill="#FEF0E8"></path>
                <path d="M45.1696552,21.213245 L49.8455172,21.213245 C50.4910345,21.213245 51.0151724,21.7417219 51.0151724,22.3925828 C51.0151724,23.0434437 50.4910345,23.5719205 49.8455172,23.5719205 L45.1696552,23.5719205 C44.5241379,23.5719205 44,23.0434437 44,22.3925828 C44,21.7389404 44.5241379,21.213245 45.1696552,21.213245 Z" id="Path" fill="#EEEEEE"></path>
                <path d="M14.6151724,57.1728477 L21.6275862,57.1728477 C22.2731034,57.1728477 22.7972414,57.7013245 22.7972414,58.3521854 C22.7972414,59.0030464 22.2731034,59.5315232 21.6275862,59.5315232 L14.6151724,59.5315232 C13.9696552,59.5315232 13.4455172,59.0030464 13.4455172,58.3521854 C13.4455172,57.698543 13.9696552,57.1728477 14.6151724,57.1728477 Z" id="Path" fill="#EFEDF8"></path>
                <path d="M25.3544828,64.2433113 L33.6855172,64.2433113 C34.4524138,64.2433113 35.0731034,64.7717881 35.0731034,65.422649 C35.0731034,66.0735099 34.4524138,66.6019868 33.6855172,66.6019868 L25.3544828,66.6019868 C24.5875862,66.6019868 23.9668966,66.0735099 23.9668966,65.422649 C23.9668966,64.7717881 24.5875862,64.2433113 25.3544828,64.2433113 Z" id="Path" fill="#FC6D26"></path>
                <path d="M44.0606897,58.9390728 L52.3917241,58.9390728 C53.1586207,58.9390728 53.7793103,59.5982781 53.7793103,60.413245 C53.7793103,61.2254305 53.1586207,61.8874172 52.3917241,61.8874172 L44.0606897,61.8874172 C43.2937931,61.8874172 42.6731034,61.2282119 42.6731034,60.413245 C42.6731034,59.6010596 43.2937931,58.9390728 44.0606897,58.9390728 Z" id="Path" fill="#6B4FBB"></path>
                <path d="M26.3062069,57.1728477 L28.6455172,57.1728477 C29.2910345,57.1728477 29.8151724,57.7013245 29.8151724,58.3521854 C29.8151724,59.0030464 29.2910345,59.5315232 28.6455172,59.5315232 L26.3062069,59.5315232 C25.6606897,59.5315232 25.1365517,59.0030464 25.1365517,58.3521854 C25.1365517,57.698543 25.6606897,57.1728477 26.3062069,57.1728477 Z" id="Path" fill="#FEE1D3"></path>
                <path d="M36.8275862,64.2433113 L39.1668966,64.2433113 C39.8124138,64.2433113 40.3365517,64.7717881 40.3365517,65.422649 C40.3365517,66.0735099 39.8124138,66.6019868 39.1668966,66.6019868 L36.8275862,66.6019868 C36.182069,66.6019868 35.657931,66.0735099 35.657931,65.422649 C35.657931,64.7717881 36.182069,64.2433113 36.8275862,64.2433113 Z M58.1627586,58.9390728 L61.0868966,58.9390728 C61.8951724,58.9390728 62.5489655,59.5982781 62.5489655,60.413245 C62.5489655,61.2282119 61.8951724,61.8874172 61.0868966,61.8874172 L58.1627586,61.8874172 C57.3544828,61.8874172 56.7006897,61.2282119 56.7006897,60.413245 C56.7034483,59.5982781 57.3572414,58.9390728 58.1627586,58.9390728 Z" id="Shape" fill="#FEF0E8"></path>
                <path d="M35.3655172,58.9390728 L38.2896552,58.9390728 C39.097931,58.9390728 39.7517241,59.5982781 39.7517241,60.413245 C39.7517241,61.2282119 39.097931,61.8874172 38.2896552,61.8874172 L35.3655172,61.8874172 C34.5572414,61.8874172 33.9034483,61.2282119 33.9034483,60.413245 C33.9034483,59.5982781 34.56,58.9390728 35.3655172,58.9390728 Z" id="Path" fill="#FC6D26"></path>
                <path d="M66.1696552,40.8470199 L73.182069,40.8470199 C73.8275862,40.8470199 74.3517241,41.3754967 74.3517241,42.0263576 C74.3517241,42.6772185 73.8275862,43.2056954 73.182069,43.2056954 L66.1696552,43.2056954 C65.5241379,43.2056954 65,42.6772185 65,42.0263576 C65,41.3727152 65.5241379,40.8470199 66.1696552,40.8470199 Z" id="Path" fill="#EFEDF8"></path>
                <path d="M95.6151724,42.613245 L103.946207,42.613245 C104.713103,42.613245 105.333793,43.1409054 105.333793,43.793245 C105.333793,44.4433582 104.713103,44.973245 103.946207,44.973245 L95.6151724,44.973245 C94.8482759,44.973245 94.2275862,44.4455847 94.2275862,43.793245 C94.2275862,43.1431318 94.8482759,42.613245 95.6151724,42.613245 Z" id="Path" fill="#6B4FBB"></path>
                <path d="M77.8606897,40.8470199 L80.2,40.8470199 C80.8455172,40.8470199 81.3696552,41.3754967 81.3696552,42.0263576 C81.3696552,42.6772185 80.8455172,43.2056954 80.2,43.2056954 L77.8606897,43.2056954 C77.2151724,43.2056954 76.6910345,42.6772185 76.6910345,42.0263576 C76.6910345,41.3727152 77.2151724,40.8470199 77.8606897,40.8470199 Z" id="Path" fill="#FEE1D3"></path>
                <path d="M86.92,42.613245 L89.8441379,42.613245 C90.6524138,42.613245 91.3062069,43.1409054 91.3062069,43.793245 C91.3062069,44.4455847 90.6524138,44.973245 89.8441379,44.973245 L86.92,44.973245 C86.1117241,44.973245 85.457931,44.4455847 85.457931,43.793245 C85.457931,43.1409054 86.1144828,42.613245 86.92,42.613245 Z" id="Path" fill="#FC6D26"></path>
                <path d="M14.6151724,64.2433113 L20.4606897,64.2433113 C21.1062069,64.2433113 21.6303448,64.7717881 21.6303448,65.422649 C21.6303448,66.0735099 21.1062069,66.6019868 20.4606897,66.6019868 L14.6151724,66.6019868 C13.9696552,66.6019868 13.4455172,66.0735099 13.4455172,65.422649 C13.4455172,64.7717881 13.9696552,64.2433113 14.6151724,64.2433113 Z" id="Path" fill="#EEEEEE"></path>
            </g>
            <g id="Group-12" transform="translate(112.058152, -0.000000)">
                <path d="M5.84861758,4.12465116 L62.0003099,4.12465116 C65.229233,4.12465116 67.8489253,6.76465116 67.8489253,10.0186047 L67.8489253,77.8046512 C67.8489253,81.0586047 65.229233,83.6986047 62.0003099,83.6986047 L5.84861758,83.6986047 C2.6196945,83.6986047 1.42108547e-14,81.0586047 1.42108547e-14,77.8046512 L1.42108547e-14,10.0213953 C-0.00276703963,6.76744186 2.6196945,4.12465116 5.84861758,4.12465116 Z" id="Path" fill="#F9F9F9" fill-rule="nonzero"></path>
                <path d="M8.77292527,1.17767442 L64.9246176,1.17767442 C68.1535407,1.17767442 70.773233,3.81767442 70.773233,7.07162791 L70.773233,74.2688372 C70.773233,77.5227907 68.1535407,80.1627907 64.9246176,80.1627907 L8.77292527,80.1627907 C5.54400219,80.1627907 2.92430988,77.5227907 2.92430988,74.2688372 L2.92430988,7.07162791 C2.92430988,3.81767442 5.54400219,1.17767442 8.77292527,1.17767442 Z" id="Path" fill="#FFFFFF" fill-rule="nonzero"></path>
                <path d="M8.77292527,2.35813953 C6.18646373,2.35813953 4.09292527,4.46790698 4.09292527,7.0744186 L4.09292527,74.2716279 C4.09292527,76.8781395 6.18646373,78.987907 8.77292527,78.987907 L64.9246176,78.987907 C67.5110791,78.987907 69.6046176,76.8781395 69.6046176,74.2716279 L69.6046176,7.07162791 C69.6046176,4.46511628 67.5110791,2.35534884 64.9246176,2.35534884 L8.77292527,2.35813953 L8.77292527,2.35813953 Z M8.77292527,-4.19220214e-13 L64.9246176,-4.19220214e-13 C68.8043099,-4.19220214e-13 71.9418483,3.16744186 71.9418483,7.07162791 L71.9418483,74.2688372 C71.9418483,78.1786047 68.7987714,81.3404651 64.9246176,81.3404651 L8.77292527,81.3404651 C4.89323296,81.3404651 1.75569267,78.1730233 1.75569267,74.2688372 L1.75569267,7.07162791 C1.75292527,3.17023256 4.89600219,-4.19220214e-13 8.77292527,-4.19220214e-13 Z" id="Shape" fill="#EEEEEE" fill-rule="nonzero"></path>
                <path d="M14.6215407,14.7348837 L21.6387714,14.7348837 C22.281233,14.7348837 22.8073868,15.2651163 22.8073868,15.9125581 C22.8073868,16.56 22.281233,17.0902326 21.6387714,17.0902326 L14.6215407,17.0902326 C13.9790791,17.0902326 13.4529253,16.56 13.4529253,15.9125581 C13.4529253,15.2651163 13.9763099,14.7348837 14.6215407,14.7348837 Z M33.3387714,21.8093023 L40.3560022,21.8093023 C40.9984637,21.8093023 41.5246176,22.3395349 41.5246176,22.9869767 C41.5246176,23.6344186 40.9984637,24.1646512 40.3560022,24.1646512 L33.3387714,24.1646512 C32.6963099,24.1646512 32.170156,23.6344186 32.170156,22.9869767 C32.170156,22.3395349 32.6963099,21.8093023 33.3387714,21.8093023 Z" id="Shape" fill="#E1DBF1" fill-rule="nonzero"></path>
                <path d="M40.3587714,14.7348837 L47.3760022,14.7348837 C48.0184637,14.7348837 48.5446176,15.2651163 48.5446176,15.9125581 C48.5446176,16.56 48.0184637,17.0902326 47.3760022,17.0902326 L40.3587714,17.0902326 C39.7163099,17.0902326 39.1901452,16.56 39.1901452,15.9125581 C39.1873868,15.267907 39.7163099,14.7348837 40.3587714,14.7348837 Z" id="Path" fill="#EEEEEE" fill-rule="nonzero"></path>
                <path d="M21.6415407,28.8837209 L28.6587714,28.8837209 C29.301233,28.8837209 29.8273868,29.4139535 29.8273868,30.0613953 C29.8273868,30.7088372 29.301233,31.2390698 28.6587714,31.2390698 L21.6415407,31.2390698 C20.9990791,31.2390698 20.4729253,30.7088372 20.4729253,30.0613953 C20.4729253,29.4139535 20.9990791,28.8837209 21.6415407,28.8837209 Z" id="Path" fill="#E1DBF1" fill-rule="nonzero"></path>
                <path d="M26.3187714,14.7348837 L28.6587714,14.7348837 C29.301233,14.7348837 29.8273868,15.2651163 29.8273868,15.9125581 C29.8273868,16.56 29.301233,17.0902326 28.6587714,17.0902326 L26.3187714,17.0902326 C25.6763099,17.0902326 25.150156,16.56 25.150156,15.9125581 C25.150156,15.2651163 25.6763099,14.7348837 26.3187714,14.7348837 Z" id="Path" fill="#FEE1D3" fill-rule="nonzero"></path>
                <path d="M33.3387714,35.9553488 L35.6787714,35.9553488 C36.321233,35.9553488 36.8473868,36.4855814 36.8473868,37.1330233 C36.8473868,37.7804651 36.321233,38.3106977 35.6787714,38.3106977 L33.3387714,38.3106977 C32.6963099,38.3106977 32.170156,37.7804651 32.170156,37.1330233 C32.170156,36.4855814 32.6963099,35.9553488 33.3387714,35.9553488 Z" id="Path" fill="#FC6D26" fill-rule="nonzero"></path>
                <path d="M45.0360022,21.8093023 L47.3760022,21.8093023 C48.0184637,21.8093023 48.5446176,22.3395349 48.5446176,22.9869767 C48.5446176,23.6344186 48.0184637,24.1646512 47.3760022,24.1646512 L45.0360022,24.1646512 C44.3935407,24.1646512 43.8673868,23.6344186 43.8673868,22.9869767 C43.8673868,22.3395349 44.3935407,21.8093023 45.0360022,21.8093023 Z M52.0560022,14.7348837 L54.3960022,14.7348837 C55.0384637,14.7348837 55.5646176,15.2651163 55.5646176,15.9125581 C55.5646176,16.56 55.0384637,17.0902326 54.3960022,17.0902326 L52.0560022,17.0902326 C51.4135407,17.0902326 50.8873868,16.56 50.8873868,15.9125581 C50.8873868,15.2651163 51.4135407,14.7348837 52.0560022,14.7348837 Z" id="Shape" fill="#FEF0E8" fill-rule="nonzero"></path>
                <path d="M23.9787714,43.0297674 L28.6587714,43.0297674 C29.301233,43.0297674 29.8273868,43.56 29.8273868,44.2074419 C29.8273868,44.8548837 29.301233,45.3851163 28.6587714,45.3851163 L23.9787714,45.3851163 C23.3363099,45.3851163 22.810156,44.8548837 22.810156,44.2074419 C22.810156,43.56 23.3363099,43.0297674 23.9787714,43.0297674 Z" id="Path" fill="#E1DBF1" fill-rule="nonzero"></path>
                <path d="M40.3587714,35.9553488 L42.6987714,35.9553488 C43.341233,35.9553488 43.8673868,36.4855814 43.8673868,37.1330233 C43.8673868,37.7804651 43.341233,38.3106977 42.6987714,38.3106977 L40.3587714,38.3106977 C39.7163099,38.3106977 39.1901452,37.7804651 39.1901452,37.1330233 C39.1873868,36.4883721 39.7163099,35.9553488 40.3587714,35.9553488 Z" id="Path" fill="#FC6D26" fill-rule="nonzero"></path>
                <path d="M52.3495407,33.5972093 C53.158156,33.5972093 53.8116945,34.255814 53.8116945,35.0706977 C53.8116945,35.8855814 53.158156,36.544186 52.3495407,36.544186 C51.5409253,36.544186 50.8873868,35.8855814 50.8873868,35.0706977 C50.8873868,34.2586047 51.5436945,33.5972093 52.3495407,33.5972093 Z M58.198156,50.6930233 C59.0067714,50.6930233 59.6603099,51.3516279 59.6603099,52.1665116 C59.6603099,52.9813953 59.0067714,53.64 58.198156,53.64 C57.3895407,53.64 56.7360022,52.9813953 56.7360022,52.1665116 C56.7360022,51.3516279 57.3895407,50.6930233 58.198156,50.6930233 Z" id="Shape" fill="#E1DBF1" fill-rule="nonzero"></path>
                <path d="M63.4624637,50.6930233 C64.2710791,50.6930233 64.9246176,51.3516279 64.9246176,52.1665116 C64.9246176,52.9813953 64.2710791,53.64 63.4624637,53.64 C62.6538483,53.64 62.0003099,52.9813953 62.0003099,52.1665116 C62.0003099,51.3516279 62.6566176,50.6930233 63.4624637,50.6930233 Z M33.3387714,14.7348837 L35.6787714,14.7348837 C36.321233,14.7348837 36.8473868,15.2651163 36.8473868,15.9125581 C36.8473868,16.56 36.321233,17.0902326 35.6787714,17.0902326 L33.3387714,17.0902326 C32.6963099,17.0902326 32.170156,16.56 32.170156,15.9125581 C32.170156,15.2651163 32.6963099,14.7348837 33.3387714,14.7348837 Z" id="Shape" fill="#FC6D26" fill-rule="nonzero"></path>
                <path d="M14.6215407,35.9553488 L28.6615407,35.9553488 C29.3040022,35.9553488 29.830156,36.4855814 29.830156,37.1330233 C29.830156,37.7804651 29.3040022,38.3106977 28.6615407,38.3106977 L14.6215407,38.3106977 C13.9790791,38.3106977 13.4529253,37.7804651 13.4529253,37.1330233 C13.4529253,36.4855814 13.9763099,35.9553488 14.6215407,35.9553488 Z M44.1193868,41.8493023 L61.1640022,41.8493023 C61.9476945,41.8493023 62.5873868,42.507907 62.5873868,43.3227907 C62.5873868,44.1376744 61.9504637,44.7962791 61.1640022,44.7962791 L44.1193868,44.7962791 C43.3356945,44.7962791 42.6960022,44.1376744 42.6960022,43.3227907 C42.6960022,42.507907 43.3356945,41.8493023 44.1193868,41.8493023 L44.1193868,41.8493023 L44.1193868,41.8493023 Z" id="Shape" fill="#EEEEEE" fill-rule="nonzero"></path>
                <path d="M35.3464637,50.6930233 L52.3910791,50.6930233 C53.1747714,50.6930233 53.8144637,51.3516279 53.8144637,52.1665116 C53.8144637,52.9813953 53.1775407,53.64 52.3910791,53.64 L35.3464637,53.64 C34.5627714,53.64 33.9230791,52.9813953 33.9230791,52.1665116 C33.9230791,51.3516279 34.5600022,50.6930233 35.3464637,50.6930233 L35.3464637,50.6930233 L35.3464637,50.6930233 Z" id="Path" fill="#EFEDF8" fill-rule="nonzero"></path>
                <path d="M14.6215407,21.8093023 L28.6615407,21.8093023 C29.3040022,21.8093023 29.830156,22.3395349 29.830156,22.9869767 C29.830156,23.6344186 29.3040022,24.1646512 28.6615407,24.1646512 L14.6215407,24.1646512 C13.9790791,24.1646512 13.4529253,23.6344186 13.4529253,22.9869767 C13.4529253,22.3395349 13.9763099,21.8093023 14.6215407,21.8093023 Z" id="Path" fill="#6B4FBB" fill-rule="nonzero"></path>
                <path d="M33.3387714,28.8837209 L47.3787714,28.8837209 C48.021233,28.8837209 48.5473868,29.4139535 48.5473868,30.0613953 C48.5473868,30.7088372 48.021233,31.2390698 47.3787714,31.2390698 L33.3387714,31.2390698 C32.6963099,31.2390698 32.170156,30.7088372 32.170156,30.0613953 C32.170156,29.4139535 32.6963099,28.8837209 33.3387714,28.8837209 Z" id="Path" fill="#C3B8E3" fill-rule="nonzero"></path>
                <path d="M14.6215407,28.8837209 L16.9615407,28.8837209 C17.6040022,28.8837209 18.130156,29.4139535 18.130156,30.0613953 C18.130156,30.7088372 17.6040022,31.2390698 16.9615407,31.2390698 L14.6215407,31.2390698 C13.9790791,31.2390698 13.4529253,30.7088372 13.4529253,30.0613953 C13.4529253,29.4139535 13.9763099,28.8837209 14.6215407,28.8837209 Z" id="Path" fill="#FEF0E8" fill-rule="nonzero"></path>
                <path d="M33.3387714,43.0297674 L35.6787714,43.0297674 C36.321233,43.0297674 36.8473868,43.56 36.8473868,44.2074419 C36.8473868,44.8548837 36.321233,45.3851163 35.6787714,45.3851163 L33.3387714,45.3851163 C32.6963099,45.3851163 32.170156,44.8548837 32.170156,44.2074419 C32.170156,43.56 32.6963099,43.0297674 33.3387714,43.0297674 Z" id="Path" fill="#6B4FBB" fill-rule="nonzero"></path>
                <path d="M14.6215407,43.0297674 L19.3015407,43.0297674 C19.9440022,43.0297674 20.470156,43.56 20.470156,44.2074419 C20.470156,44.8548837 19.9440022,45.3851163 19.3015407,45.3851163 L14.6215407,45.3851163 C13.9790791,45.3851163 13.4529253,44.8548837 13.4529253,44.2074419 C13.4529253,43.56 13.9763099,43.0297674 14.6215407,43.0297674 Z" id="Path" fill="#FC6D26" fill-rule="nonzero"></path>
                <path d="M14.6215407,50.104186 L19.3015407,50.104186 C19.9440022,50.104186 20.470156,50.6344186 20.470156,51.2818605 C20.470156,51.9293023 19.9440022,52.4595349 19.3015407,52.4595349 L14.6215407,52.4595349 C13.9790791,52.4595349 13.4529253,51.9293023 13.4529253,51.2818605 C13.4529253,50.6344186 13.9763099,50.104186 14.6215407,50.104186 Z M23.9787714,50.104186 L28.6587714,50.104186 C29.301233,50.104186 29.8273868,50.6344186 29.8273868,51.2818605 C29.8273868,51.9293023 29.301233,52.4595349 28.6587714,52.4595349 L23.9787714,52.4595349 C23.3363099,52.4595349 22.810156,51.9293023 22.810156,51.2818605 C22.810156,50.6344186 23.3363099,50.104186 23.9787714,50.104186 Z" id="Shape" fill="#FEF0E8" fill-rule="nonzero"></path>
                <path d="M14.6215407,57.175814 L21.6387714,57.175814 C22.281233,57.175814 22.8073868,57.7060465 22.8073868,58.3534884 C22.8073868,59.0009302 22.281233,59.5311628 21.6387714,59.5311628 L14.6215407,59.5311628 C13.9790791,59.5311628 13.4529253,59.0009302 13.4529253,58.3534884 C13.4529253,57.7060465 13.9763099,57.175814 14.6215407,57.175814 Z" id="Path" fill="#EFEDF8" fill-rule="nonzero"></path>
                <path d="M25.366156,64.2502326 L33.7015407,64.2502326 C34.4686176,64.2502326 35.0916945,64.7748837 35.0916945,65.427907 C35.0916945,66.0753488 34.4713868,66.6055814 33.7015407,66.6055814 L25.366156,66.6055814 C24.5990791,66.6055814 23.9760022,66.0753488 23.9760022,65.427907 C23.9787714,64.7804651 24.6018483,64.2502326 25.366156,64.2502326 Z" id="Path" fill="#FC6D26" fill-rule="nonzero"></path>
                <path d="M44.0833868,58.9451163 L52.4187714,58.9451163 C53.1858483,58.9451163 53.8089253,59.6037209 53.8089253,60.4186047 C53.8089253,61.2334884 53.1886176,61.892093 52.4187714,61.892093 L44.0833868,61.892093 C43.3163099,61.892093 42.693233,61.2334884 42.693233,60.4186047 C42.6960022,59.6065116 43.3190791,58.9451163 44.0833868,58.9451163 Z" id="Path" fill="#6B4FBB" fill-rule="nonzero"></path>
                <path d="M26.3187714,57.175814 L28.6587714,57.175814 C29.301233,57.175814 29.8273868,57.7060465 29.8273868,58.3534884 C29.8273868,59.0009302 29.301233,59.5311628 28.6587714,59.5311628 L26.3187714,59.5311628 C25.6763099,59.5311628 25.150156,59.0009302 25.150156,58.3534884 C25.150156,57.7060465 25.6763099,57.175814 26.3187714,57.175814 Z" id="Path" fill="#FEE1D3" fill-rule="nonzero"></path>
                <path d="M36.850156,64.2502326 L39.190156,64.2502326 C39.8326176,64.2502326 40.3587714,64.7804651 40.3587714,65.427907 C40.3587714,66.0753488 39.8326176,66.6055814 39.190156,66.6055814 L36.850156,66.6055814 C36.2076945,66.6055814 35.6815407,66.0753488 35.6815407,65.427907 C35.6815407,64.7804651 36.2049253,64.2502326 36.850156,64.2502326 Z M58.198156,58.9451163 L61.1224637,58.9451163 C61.9310791,58.9451163 62.5846176,59.6037209 62.5846176,60.4186047 C62.5846176,61.2334884 61.9310791,61.892093 61.1224637,61.892093 L58.198156,61.892093 C57.3895407,61.892093 56.7360022,61.2334884 56.7360022,60.4186047 C56.7360022,59.6065116 57.3895407,58.9451163 58.198156,58.9451163 Z" id="Shape" fill="#FEF0E8" fill-rule="nonzero"></path>
                <path d="M35.385233,58.9451163 L38.3095407,58.9451163 C39.118156,58.9451163 39.7716945,59.6037209 39.7716945,60.4186047 C39.7716945,61.2334884 39.118156,61.892093 38.3095407,61.892093 L35.385233,61.892093 C34.5766176,61.892093 33.9230791,61.2334884 33.9230791,60.4186047 C33.9230791,59.6065116 34.5793868,58.9451163 35.385233,58.9451163 Z" id="Path" fill="#FC6D26" fill-rule="nonzero"></path>
                <path d="M14.6215407,64.2502326 L20.470156,64.2502326 C21.1126176,64.2502326 21.6387714,64.7804651 21.6387714,65.427907 C21.6387714,66.0753488 21.1126176,66.6055814 20.470156,66.6055814 L14.6215407,66.6055814 C13.9790791,66.6055814 13.4529253,66.0753488 13.4529253,65.427907 C13.4529253,64.7804651 13.9763099,64.2502326 14.6215407,64.2502326 Z" id="Path" fill="#EEEEEE" fill-rule="nonzero"></path>
                <ellipse id="Oval" fill="#FFFFFF" fill-rule="nonzero" cx="36.814156" cy="38.4725581" rx="20.4729231" ry="20.6316279"></ellipse>
                <path d="M36.814156,59.104186 C25.5073868,59.104186 16.341233,49.8669767 16.341233,38.4725581 C16.341233,27.0781395 25.5073868,17.8409302 36.814156,17.8409302 C48.1209253,17.8409302 57.2870791,27.0781395 57.2870791,38.4725581 C57.2870791,49.8669767 48.1209253,59.104186 36.814156,59.104186 Z M36.814156,56.7460465 C46.8276945,56.7460465 54.9470791,48.5637209 54.9470791,38.4725581 C54.9470791,28.3813953 46.8276945,20.1990698 36.814156,20.1990698 C26.8006176,20.1990698 18.681233,28.3813953 18.681233,38.4725581 C18.681233,48.5637209 26.8006176,56.7460465 36.814156,56.7460465 Z" id="Shape" fill="#EEEEEE" fill-rule="nonzero"></path>
                <path d="M46.5895407,39.7813953 L45.490156,36.3739535 L43.3135407,29.6260465 C43.2027714,29.28 42.718156,29.28 42.5990791,29.6260465 L40.4280022,36.3739535 L33.2030791,36.3739535 L31.0264637,29.6260465 C30.9156945,29.28 30.4310791,29.28 30.3120022,29.6260465 L28.1353868,36.3739535 L27.0360022,39.7813953 C26.9363099,40.0939535 27.0470791,40.4288372 27.3046176,40.624186 L36.8086176,47.5786047 L46.3126176,40.624186 C46.581233,40.4288372 46.689233,40.0883721 46.5895407,39.7813953" id="Path" fill="#FC6D26"></path>
                <polygon id="Path" fill="#E24329" points="36.814156 47.5813953 40.4280022 36.3767442 33.2030791 36.3767442"></polygon>
                <polygon id="Path" fill="#FC6D26" points="36.814156 47.5813953 33.2003099 36.3767442 28.1353868 36.3767442"></polygon>
                <path d="M28.138156,36.3739535 L27.0387714,39.7813953 C26.9390791,40.0939535 27.0498483,40.4288372 27.3073868,40.624186 L36.8113868,47.5786047 L28.138156,36.3739535 Z" id="Path" fill="#FCA326"></path>
                <path d="M28.138156,36.3739535 L33.2030791,36.3739535 L31.0264637,29.6260465 C30.9156945,29.28 30.4310791,29.28 30.3120022,29.6260465 L28.138156,36.3739535 Z" id="Path" fill="#E24329"></path>
                <polygon id="Path" fill="#FC6D26" points="36.814156 47.5813953 40.4280022 36.3767442 45.4929253 36.3767442"></polygon>
                <path d="M45.4929253,36.3739535 L46.5923099,39.7813953 C46.6920022,40.0939535 46.581233,40.4288372 46.3236945,40.624186 L36.8196945,47.5786047 L45.4929253,36.3739535 Z" id="Path" fill="#FCA326"></path>
                <path d="M45.4929253,36.3739535 L40.4280022,36.3739535 L42.6046176,29.6260465 C42.7153868,29.28 43.2000022,29.28 43.3190791,29.6260465 L45.4929253,36.3739535 Z" id="Path" fill="#E24329"></path>
            </g>
        </g>
    </g>
</svg>