<svg xmlns="http://www.w3.org/2000/svg" width="430" height="172" viewBox="0 0 430 172"><g fill="none" fill-rule="evenodd"><path fill="#EEE" fill-rule="nonzero" d="M187 121a2 2 0 1 1 0-4c2.542 0 5.042-.305 7.463-.904a2 2 0 1 1 .96 3.884A35.075 35.075 0 0 1 187 121zm18.21-5.105a2 2 0 1 1-2.083-3.414 31.143 31.143 0 0 0 5.896-4.664 2 2 0 1 1 2.842 2.815 35.143 35.143 0 0 1-6.654 5.263zm12.895-13.835a2 2 0 0 1-3.552-1.838 30.77 30.77 0 0 0 2.612-7.042 2 2 0 1 1 3.892.922 34.77 34.77 0 0 1-2.952 7.958zm3.816-18.433a2 2 0 1 1-3.991.268 30.873 30.873 0 0 0-1.407-7.38 2 2 0 0 1 3.808-1.223 34.873 34.873 0 0 1 1.59 8.335zm-6.346-17.842a2 2 0 0 1-3.264 2.312 31.188 31.188 0 0 0-5.054-5.564 2 2 0 0 1 2.615-3.027 35.188 35.188 0 0 1 5.703 6.279zm-14.68-11.918a2 2 0 0 1-1.59 3.67 30.758 30.758 0 0 0-7.206-2.12 2 2 0 1 1 .653-3.946 34.758 34.758 0 0 1 8.143 2.396zm-18.632-2.549a2 2 0 0 1 .537 3.964c-2.505.339-4.94.98-7.266 1.907a2 2 0 1 1-1.48-3.716 34.774 34.774 0 0 1 8.209-2.155zm-17.356 7.535a2 2 0 0 1 2.527 3.1 31.196 31.196 0 0 0-5.213 5.416 2 2 0 0 1-3.196-2.406 35.196 35.196 0 0 1 5.882-6.11zm-10.918 15.49a2 2 0 0 1 3.772 1.331 30.82 30.82 0 0 0-1.619 7.337 2 2 0 1 1-3.982-.38 34.82 34.82 0 0 1 1.829-8.289zm-1.27 18.744a2 2 0 1 1 3.917-.806 30.757 30.757 0 0 0 2.4 7.118 2 2 0 1 1-3.605 1.73 34.757 34.757 0 0 1-2.713-8.042zm8.675 16.774a2 2 0 0 1 2.926-2.728 31.167 31.167 0 0 0 5.751 4.841 2 2 0 1 1-2.187 3.349 35.167 35.167 0 0 1-6.49-5.462zm16.245 9.873a2 2 0 1 1 1.067-3.855 30.979 30.979 0 0 0 7.434 1.11 2 2 0 1 1-.11 3.998 34.979 34.979 0 0 1-8.391-1.253z"/><path fill="#E1DBF1" fill-rule="nonzero" d="M187 104c-9.941 0-18-8.059-18-18s8.059-18 18-18 18 8.059 18 18-8.059 18-18 18zm0-4c7.732 0 14-6.268 14-14s-6.268-14-14-14-14 6.268-14 14 6.268 14 14 14z"/><path fill="#6B4FBB" d="M189 84h5a2 2 0 1 1 0 4h-7a2 2 0 0 1-2-2v-8a2 2 0 1 1 4 0v6z"/><g transform="translate(261 16)"><path fill="#F9F9F9" d="M115.575 132.895C114.333 137.006 110.516 140 106 140H10c-5.523 0-10-4.477-10-10V15a10 10 0 0 1 5.884-9.116A9.964 9.964 0 0 0 5 10v114c0 5.523 4.477 10 10 10h96a9.957 9.957 0 0 0 4.575-1.105z"/><rect width="116" height="134" x="5" fill="#FFF" rx="10"/><path fill="#EEE" fill-rule="nonzero" d="M15 2a8 8 0 0 0-8 8v114a8 8 0 0 0 8 8h96a8 8 0 0 0 8-8V10a8 8 0 0 0-8-8H15zm0-4h96c6.627 0 12 5.373 12 12v114c0 6.627-5.373 12-12 12H15c-6.627 0-12-5.373-12-12V10C3 3.373 8.373-2 15-2z"/><g transform="translate(23 23)"><rect width="16" height="4" fill="#E1DBF1" rx="2"/><rect width="16" height="4" x="32" y="12" fill="#E1DBF1" rx="2"/><rect width="16" height="4" x="44" fill="#EEE" rx="2"/><rect width="16" height="4" x="12" y="24" fill="#E1DBF1" rx="2"/><rect width="16" height="4" x="64" y="36" fill="#FEF0E8" rx="2"/><rect width="8" height="4" x="20" fill="#FEE1D3" rx="2"/><rect width="8" height="4" x="32" y="36" fill="#FC6D26" rx="2"/><rect width="8" height="4" x="52" y="12" fill="#FEF0E8" rx="2"/><rect width="8" height="4" x="64" fill="#FEF0E8" rx="2"/><rect width="12" height="4" x="16" y="48" fill="#E1DBF1" rx="2"/><rect width="8" height="4" x="44" y="36" fill="#FC6D26" rx="2"/><rect width="4" height="4" x="56" y="36" fill="#E1DBF1" rx="2"/><rect width="4" height="4" x="64" y="60" fill="#E1DBF1" rx="2"/><rect width="4" height="4" x="72" y="60" fill="#FC6D26" rx="2"/><rect width="8" height="4" x="32" fill="#FC6D26" rx="2"/><rect width="28" height="4" y="36" fill="#EEE" rx="2"/><rect width="28" height="4" x="44" y="48" fill="#EEE" rx="2"/><rect width="28" height="4" x="32" y="60" fill="#EFEDF8" rx="2"/><rect width="28" height="4" y="12" fill="#6B4FBB" rx="2"/><rect width="28" height="4" x="32" y="24" fill="#C3B8E3" rx="2"/><rect width="8" height="4" y="24" fill="#FEF0E8" rx="2"/><rect width="8" height="4" x="32" y="48" fill="#6B4FBB" rx="2"/><rect width="12" height="4" y="48" fill="#FC6D26" rx="2"/><rect width="12" height="4" y="60" fill="#FEF0E8" rx="2"/><rect width="12" height="4" x="16" y="60" fill="#FEF0E8" rx="2"/></g><g transform="translate(23 95)"><rect width="16" height="4" fill="#EFEDF8" rx="2"/><rect width="16" height="4" x="18" y="12" fill="#FC6D26" rx="2"/><rect width="16" height="4" x="44" fill="#6B4FBB" rx="2"/><rect width="8" height="4" x="20" fill="#FEE1D3" rx="2"/><rect width="8" height="4" x="38" y="12" fill="#FEF0E8" rx="2"/><rect width="8" height="4" x="64" fill="#FEF0E8" rx="2"/><rect width="8" height="4" x="32" fill="#FC6D26" rx="2"/><rect width="14" height="4" y="12" fill="#EEE" rx="2"/></g></g><path fill="#FFF" d="M80 117c17.12 0 31-13.88 31-31 0-17.12-13.88-31-31-31-17.12 0-31 13.88-31 31 0 17.12 13.88 31 31 31z"/><path fill="#EEE" fill-rule="nonzero" d="M80 121c-19.33 0-35-15.67-35-35s15.67-35 35-35 35 15.67 35 35-15.67 35-35 35zm0-4c17.12 0 31-13.88 31-31 0-17.12-13.88-31-31-31-17.12 0-31 13.88-31 31 0 17.12 13.88 31 31 31z"/><g transform="translate(61 67)"><path fill="#CCC" fill-rule="nonzero" d="M19 38C8.507 38 0 29.493 0 19S8.507 0 19 0s19 8.507 19 19-8.507 19-19 19zm0-4c8.284 0 15-6.716 15-15 0-8.284-6.716-15-15-15-8.284 0-15 6.716-15 15 0 8.284 6.716 15 15 15z"/><rect width="18" height="4" x="10" y="17" fill="#2E2E2E" rx="2" transform="rotate(45 19 19)"/></g><path fill="#E5E5E5" fill-rule="nonzero" d="M122 88c0-1.105.887-2 1.998-2h4.004c1.103 0 1.998.888 1.998 2 0 1.105-.887 2-1.998 2h-4.004A1.994 1.994 0 0 1 122 88zm14 0c0-1.105.887-2 1.998-2h4.004c1.103 0 1.998.888 1.998 2 0 1.105-.887 2-1.998 2h-4.004A1.994 1.994 0 0 1 136 88zm93 0c0-1.105.887-2 1.998-2h4.004c1.103 0 1.998.888 1.998 2 0 1.105-.887 2-1.998 2h-4.004A1.994 1.994 0 0 1 229 88zm14 0c0-1.105.887-2 1.998-2h4.004c1.103 0 1.998.888 1.998 2 0 1.105-.887 2-1.998 2h-4.004A1.994 1.994 0 0 1 243 88z"/></g></svg>