<svg height="128" viewBox="0 0 142 128" width="142" xmlns="http://www.w3.org/2000/svg"><g fill="none" fill-rule="evenodd"><path d="M94 62h20v4H94z" fill="#f0edf8"/><path d="M84.828 84l17.678 17.678-2.828 2.828L82 86.828z" fill="#fee1d3"/><path d="M42.828 24l17.678 17.678-2.828 2.828L40 26.828zM40 101.678L57.678 84l2.828 2.828-17.678 17.678z" fill="#f0edf8"/><g fill="#fee1d3"><path d="M82 41.678L99.678 24l2.828 2.828-17.678 17.678zM28 62h20v4H28z"/><rect height="30" rx="5" width="30" y="49"/></g><rect height="26" rx="5" stroke="#fdc4a8" stroke-width="4" width="26" x="2" y="51"/><rect fill="#c3b8e3" height="50" rx="10" width="50" x="46" y="39"/><rect height="46" rx="10" stroke="#6b4fbb" stroke-width="4" width="46" x="48" y="41"/><rect fill="#fef0e8" height="30" rx="5" width="30" x="84"/><rect height="26" rx="5" stroke="#fee1d3" stroke-width="4" width="26" x="86" y="2"/><rect fill="#fee1d3" height="30" rx="5" width="30" x="84" y="98"/><rect height="26" rx="5" stroke="#fdc4a8" stroke-width="4" width="26" x="86" y="100"/><rect fill="#f0edf8" height="30" rx="5" width="30" x="112" y="49"/><rect height="26" rx="5" stroke="#e1dbf1" stroke-width="4" width="26" x="114" y="51"/><rect fill="#f0edf8" height="30" rx="5" width="30" x="28" y="98"/><rect height="26" rx="5" stroke="#e1dbf1" stroke-width="4" width="26" x="30" y="100"/><rect fill="#f0edf8" height="30" rx="5" width="30" x="28"/><rect height="26" rx="5" stroke="#e1dbf1" stroke-width="4" width="26" x="30" y="2"/></g></svg>