<svg height="128" viewBox="0 0 142 128" width="142" xmlns="http://www.w3.org/2000/svg"><g fill="none" fill-rule="evenodd"><path d="M94 62h20v4H94z" fill="#f0edf8"/><path d="M84.828 84l17.678 17.678-2.828 2.828L82 86.828z" fill="#fee1d3"/><path d="M42.828 24l17.678 17.678-2.828 2.828L40 26.828zM40 101.678L57.678 84l2.828 2.828-17.678 17.678z" fill="#f0edf8"/><path d="M82 41.678L99.678 24l2.828 2.828-17.678 17.678zM28 62h20v4H28zM3 52h24v24H3z" fill="#fee1d3"/><path d="M31 3h24v24H31z" fill="#f0edf8"/><path d="M87 3h24v24H87z" fill="#fef0e8"/><path d="M115 52h24v24h-24z" fill="#f0edf8"/><path d="M87 101h24v24H87z" fill="#fee1d3"/><path d="M31 101h24v24H31z" fill="#f0edf8"/><path d="M49 42h44v44H49z" fill="#c3b8e3"/><g fill-rule="nonzero"><path d="M5 53a1 1 0 0 0-1 1v20a1 1 0 0 0 1 1h20a1 1 0 0 0 1-1V54a1 1 0 0 0-1-1zm0-4h20a5 5 0 0 1 5 5v20a5 5 0 0 1-5 5H5a5 5 0 0 1-5-5V54a5 5 0 0 1 5-5z" fill="#fdc4a8"/><path d="M56 43a6 6 0 0 0-6 6v30a6 6 0 0 0 6 6h30a6 6 0 0 0 6-6V49a6 6 0 0 0-6-6zm0-4h30c5.523 0 10 4.477 10 10v30c0 5.523-4.477 10-10 10H56c-5.523 0-10-4.477-10-10V49c0-5.523 4.477-10 10-10z" fill="#6b4fbb"/><path d="M89 4a1 1 0 0 0-1 1v20a1 1 0 0 0 1 1h20a1 1 0 0 0 1-1V5a1 1 0 0 0-1-1zm0-4h20a5 5 0 0 1 5 5v20a5 5 0 0 1-5 5H89a5 5 0 0 1-5-5V5a5 5 0 0 1 5-5z" fill="#fee1d3"/><path d="M89 102a1 1 0 0 0-1 1v20a1 1 0 0 0 1 1h20a1 1 0 0 0 1-1v-20a1 1 0 0 0-1-1zm0-4h20a5 5 0 0 1 5 5v20a5 5 0 0 1-5 5H89a5 5 0 0 1-5-5v-20a5 5 0 0 1 5-5z" fill="#fdc4a8"/><path d="M117 53a1 1 0 0 0-1 1v20a1 1 0 0 0 1 1h20a1 1 0 0 0 1-1V54a1 1 0 0 0-1-1zm0-4h20a5 5 0 0 1 5 5v20a5 5 0 0 1-5 5h-20a5 5 0 0 1-5-5V54a5 5 0 0 1 5-5zM33 102a1 1 0 0 0-1 1v20a1 1 0 0 0 1 1h20a1 1 0 0 0 1-1v-20a1 1 0 0 0-1-1zm0-4h20a5 5 0 0 1 5 5v20a5 5 0 0 1-5 5H33a5 5 0 0 1-5-5v-20a5 5 0 0 1 5-5zM33 4a1 1 0 0 0-1 1v20a1 1 0 0 0 1 1h20a1 1 0 0 0 1-1V5a1 1 0 0 0-1-1zm0-4h20a5 5 0 0 1 5 5v20a5 5 0 0 1-5 5H33a5 5 0 0 1-5-5V5a5 5 0 0 1 5-5z" fill="#e1dbf1"/></g></g></svg>