<svg xmlns="http://www.w3.org/2000/svg" width="142" height="104" viewBox="0 0 142 104"><g fill="none" fill-rule="evenodd"><g transform="translate(112 4)"><path fill="#FFF" d="M8 4a4 4 0 0 0-4 4v14a4 4 0 0 0 4 4h14a4 4 0 0 0 4-4V8a4 4 0 0 0-4-4H8z"/><path fill="#FDC4A8" fill-rule="nonzero" d="M8 4a4 4 0 0 0-4 4v14a4 4 0 0 0 4 4h14a4 4 0 0 0 4-4V8a4 4 0 0 0-4-4H8zm0-4h14a8 8 0 0 1 8 8v14a8 8 0 0 1-8 8H8a8 8 0 0 1-8-8V8a8 8 0 0 1 8-8z"/><rect width="10" height="10" x="10" y="10" fill="#FC6D26" rx="5"/></g><g transform="translate(5 74)"><rect width="30" height="30" fill="#FFF" rx="8"/><path fill="#E1DBF1" fill-rule="nonzero" d="M8 4a4 4 0 0 0-4 4v14a4 4 0 0 0 4 4h14a4 4 0 0 0 4-4V8a4 4 0 0 0-4-4H8zm0-4h14a8 8 0 0 1 8 8v14a8 8 0 0 1-8 8H8a8 8 0 0 1-8-8V8a8 8 0 0 1 8-8z"/><rect width="10" height="10" x="10" y="10" fill="#6B4FBB" rx="5"/></g><path fill="#FFF" d="M6 4a2 2 0 0 0-2 2v12a2 2 0 0 0 2 2h12a2 2 0 0 0 2-2V6a2 2 0 0 0-2-2H6z"/><path fill="#FDC4A8" fill-rule="nonzero" d="M6 4a2 2 0 0 0-2 2v12a2 2 0 0 0 2 2h12a2 2 0 0 0 2-2V6a2 2 0 0 0-2-2H6zm0-4h12a6 6 0 0 1 6 6v12a6 6 0 0 1-6 6H6a6 6 0 0 1-6-6V6a6 6 0 0 1 6-6z"/><rect width="8" height="8" x="8" y="8" fill="#FC6D26" rx="4"/><g transform="translate(112 77)"><rect width="24" height="24" fill="#FFF" rx="6"/><path fill="#E1DBF1" fill-rule="nonzero" d="M6 4a2 2 0 0 0-2 2v12a2 2 0 0 0 2 2h12a2 2 0 0 0 2-2V6a2 2 0 0 0-2-2H6zm0-4h12a6 6 0 0 1 6 6v12a6 6 0 0 1-6 6H6a6 6 0 0 1-6-6V6a6 6 0 0 1 6-6z"/><rect width="8" height="8" x="8" y="8" fill="#6B4FBB" rx="4"/></g><g transform="translate(46 29)"><rect width="46" height="46" y="2" fill="#E1DBF1" rx="10"/><rect width="46" height="46" fill="#E1DBF1" rx="10"/><path fill="#C3B8E3" fill-rule="nonzero" d="M10 4a6 6 0 0 0-6 6v26a6 6 0 0 0 6 6h26a6 6 0 0 0 6-6V10a6 6 0 0 0-6-6H10zm0-4h26c5.523 0 10 4.477 10 10v26c0 5.523-4.477 10-10 10H10C4.477 46 0 41.523 0 36V10C0 4.477 4.477 0 10 0z"/><rect width="14" height="14" x="16" y="16" fill="#6B4FBB" rx="2"/></g><path fill="#E1DBF1" fill-rule="nonzero" d="M98.413 35.682a2 2 0 1 1-2.826-2.83l2.122-2.12a2 2 0 1 1 2.827 2.83l-2.123 2.12z"/><path fill="#C3B8E3" d="M104.78 29.32a2 2 0 0 1-2.826-2.829l2.122-2.12a2 2 0 0 1 2.827 2.83l-2.122 2.12z"/><path fill="#C3B8E3" fill-rule="nonzero" d="M42.413 89.682a2 2 0 1 1-2.826-2.83l2.122-2.12a2 2 0 1 1 2.827 2.83l-2.123 2.12z"/><path fill="#E1DBF1" d="M48.78 83.32a2 2 0 1 1-2.826-2.829l2.122-2.12a2 2 0 1 1 2.827 2.83l-2.122 2.12z"/><path fill="#E1DBF1" fill-rule="nonzero" d="M27.713 26.531a2 2 0 1 1 2.574-3.062l2.296 1.93a2 2 0 1 1-2.573 3.062l-2.297-1.93z"/><path fill="#C3B8E3" d="M34.604 32.321a2 2 0 1 1 2.573-3.062l2.297 1.93A2 2 0 0 1 36.9 34.25l-2.297-1.93z"/><path fill="#C3B8E3" fill-rule="nonzero" d="M93.74 74.553a2 2 0 0 1 2.52-3.106l2.33 1.891a2 2 0 1 1-2.521 3.106l-2.33-1.891z"/><path fill="#E1DBF1" d="M100.727 80.225a2 2 0 1 1 2.521-3.105l2.33 1.89a2 2 0 1 1-2.522 3.106l-2.33-1.89z"/></g></svg>