<svg xmlns="http://www.w3.org/2000/svg" viewBox="0 0 310 271" xmlns:xlink="http://www.w3.org/1999/xlink"><defs><rect id="0" width="7" height="25" rx="3.5"/><rect id="2" width="9" height="13" x="3" y="3" rx="3"/><rect id="4" width="15" height="6" rx="3"/><mask id="1" width="7" height="25" x="0" y="0" fill="#fff"><use xlink:href="#0"/></mask><mask id="3" width="9" height="13" x="0" y="0" fill="#fff"><use xlink:href="#2"/></mask><mask id="5" width="15" height="6" x="0" y="0" fill="#fff"><use xlink:href="#4"/></mask></defs><g fill="none" fill-rule="evenodd"><g transform="translate(30 166)"><path stroke="#eee" stroke-width="3" d="m219.69 85.73c-12.712-48.19-56.6-83.73-108.79-83.73-52.35 0-96.35 35.757-108.91 84.18" stroke-linecap="round"/><g fill="#eee"><g fill-rule="nonzero"><path d="m111.12 3.5c50.613.098 94.39 34.36 107.12 82.61.211.801 1.032 1.279 1.833 1.068.801-.211 1.279-1.032 1.068-1.833-13.07-49.558-58.03-84.74-110.01-84.85-.828-.002-1.501.669-1.503 1.497-.002.828.669 1.501 1.497 1.503m64.11 82.09c-7.683-49.66-33.691-84.992-64.11-85.09-.828-.003-1.502.667-1.505 1.495-.003.828.667 1.502 1.495 1.505 28.581.096 53.665 34.17 61.15 82.55.127.819.893 1.38 1.712 1.253.819-.127 1.38-.893 1.253-1.712m-64.27-85.09c-52.31 0-97.49 35.442-110.42 85.3-.208.802.274 1.621 1.075 1.828.802.208 1.621-.274 1.828-1.075 12.588-48.547 56.58-83.06 107.45-83.06.888 0 1.56-.671 1.56-1.499 0-.828-.671-1.5-1.499-1.501m-61.28 85.81c7.442-48.563 32.608-82.79 61.28-82.81.828-.001 1.499-.673 1.499-1.501-.001-.828-.673-1.499-1.501-1.499-30.512.028-56.6 35.51-64.24 85.36-.125.819.437 1.584 1.255 1.71.819.125 1.584-.437 1.71-1.255"/><path d="m33.06 33.907c21.698 11.943 49.04 18.593 77.938 18.593 28.84 0 56.14-6.624 77.82-18.527.726-.399.992-1.311.593-2.037-.399-.726-1.311-.992-2.037-.593-21.23 11.653-48.03 18.16-76.37 18.16-28.402 0-55.25-6.529-76.49-18.221-.726-.399-1.638-.135-2.037.591-.399.726-.135 1.638.591 2.037"/></g><rect width="3" height="86" x="110" y="2" rx="1.5"/></g></g><g transform="translate(133 160)"><circle cx="8.5" cy="8.5" r="8.5" fill="#fc6d26" opacity=".2"/><circle cx="8.5" cy="8.5" r="3.5" fill="#fff" stroke="#fc6d26" stroke-width="3" stroke-linecap="round"/></g><g transform="translate(24 45)"><path fill="#fde5d8" d="m215.76 178.82c1.077-1.716 2.108-3.461 3.094-5.231.403-.724.143-1.637-.581-2.04-.724-.403-1.637-.143-2.04.581-.96 1.725-1.965 3.424-3.01 5.096-.44.702-.228 1.628.474 2.068.702.44 1.628.228 2.068-.474"/><g fill="#fc8a51"><path d="m224.21 162.66c.794-1.863 1.54-3.747 2.236-5.651.284-.778-.116-1.639-.894-1.924-.778-.285-1.639.116-1.924.894-.678 1.854-1.405 3.69-2.178 5.505-.325.762.029 1.643.791 1.968.762.325 1.643-.029 1.968-.791" opacity=".2"/><path d="m230.02 145.37c.491-1.964.932-3.943 1.32-5.934.159-.813-.372-1.601-1.185-1.76-.813-.159-1.601.372-1.76 1.185-.379 1.94-.808 3.868-1.286 5.781-.201.804.287 1.618 1.091 1.819.804.201 1.618-.287 1.819-1.091" opacity=".3"/><path d="m233.04 127.41c.178-2.01.305-4.04.38-6.07.03-.828-.616-1.524-1.444-1.554-.828-.03-1.524.616-1.554 1.444-.073 1.978-.196 3.949-.37 5.911-.073.825.537 1.553 1.362 1.627.825.073 1.553-.537 1.627-1.362" opacity=".4"/><path d="m233.24 109.18c-.134-2.026-.321-4.04-.559-6.05-.098-.823-.844-1.41-1.666-1.313-.823.098-1.41.844-1.313 1.666.232 1.956.414 3.922.545 5.896.055.827.769 1.452 1.596 1.397.827-.055 1.452-.769 1.397-1.596" opacity=".5"/><path d="m230.62 91.14c-.449-1.98-.949-3.945-1.5-5.894-.225-.797-1.054-1.261-1.851-1.035-.797.225-1.261 1.054-1.035 1.851.537 1.899 1.024 3.813 1.461 5.742.183.808.987 1.314 1.794 1.131.808-.183 1.314-.987 1.131-1.794" opacity=".6"/><path d="m225.2 73.74c-.753-1.882-1.555-3.742-2.405-5.581-.348-.752-1.239-1.08-1.991-.732-.752.348-1.08 1.239-.732 1.991.828 1.791 1.609 3.603 2.343 5.436.308.769 1.181 1.143 1.95.835.769-.308 1.143-1.181.835-1.95" opacity=".7"/><path d="m217.11 57.38c-1.038-1.739-2.121-3.452-3.249-5.135-.461-.688-1.393-.873-2.081-.412-.688.461-.873 1.393-.412 2.081 1.098 1.64 2.154 3.308 3.165 5 .425.711 1.345.944 2.057.519.711-.425.944-1.345.519-2.057" opacity=".8"/><path d="m206.55 42.478c-1.297-1.556-2.633-3.079-4.01-4.566-.563-.608-1.512-.645-2.12-.083-.608.563-.645 1.512-.083 2.12 1.34 1.449 2.643 2.933 3.906 4.449.53.636 1.476.723 2.113.192.636-.53.723-1.476.192-2.113" opacity=".9"/><path d="m193.89 29.473c-1.521-1.337-3.077-2.635-4.666-3.892-.65-.514-1.593-.404-2.107.246-.514.65-.404 1.593.246 2.107 1.548 1.224 3.064 2.489 4.546 3.792.622.547 1.57.486 2.117-.136.547-.622.486-1.57-.136-2.117"/></g><path fill="#fde5d8" d="m179.28 18.527c-1.711-1.085-3.451-2.124-5.216-3.118-.722-.406-1.637-.151-2.043.571-.406.722-.151 1.637.571 2.043 1.72.968 3.415 1.981 5.082 3.038.7.443 1.626.236 2.07-.464.443-.7.236-1.626-.464-2.07m-16.14-8.534c-1.86-.803-3.741-1.557-5.642-2.262-.777-.288-1.64.108-1.928.885-.288.777.108 1.64.885 1.928 1.852.687 3.684 1.421 5.496 2.203.761.328 1.643-.022 1.972-.783.328-.761-.022-1.643-.783-1.972m-17.291-5.894c-1.962-.5-3.938-.948-5.928-1.345-.812-.162-1.602.365-1.764 1.178-.162.812.365 1.602 1.178 1.764 1.938.387 3.863.824 5.774 1.31.803.205 1.619-.28 1.824-1.083.205-.803-.28-1.619-1.083-1.824m-17.931-3.095c-2.01-.187-4.03-.322-6.06-.406-.828-.034-1.526.61-1.56 1.437-.034.828.61 1.526 1.437 1.56 1.978.081 3.948.213 5.909.395.825.077 1.556-.53 1.632-1.355.077-.825-.53-1.556-1.355-1.632m-18.14-.285c-2.028.124-4.048.3-6.06.528-.823.093-1.415.836-1.321 1.66.093.823.836 1.415 1.66 1.321 1.959-.222 3.927-.394 5.903-.515.827-.051 1.456-.762 1.406-1.589-.051-.827-.762-1.456-1.589-1.406m-18.05 2.528c-1.982.438-3.949.928-5.901 1.468-.798.221-1.266 1.048-1.045 1.846.221.798 1.048 1.266 1.846 1.045 1.901-.527 3.817-1 5.748-1.43.809-.179 1.32-.98 1.141-1.788-.179-.809-.98-1.32-1.788-1.141m-17.426 5.323c-1.887.743-3.753 1.536-5.597 2.377-.754.344-1.086 1.233-.742 1.987.344.754 1.233 1.086 1.987.742 1.796-.819 3.614-1.591 5.452-2.315.771-.304 1.149-1.175.846-1.945-.304-.771-1.175-1.149-1.945-.846"/><g fill="#6b4fbb"><path d="m57.904 16.58c-1.746 1.03-3.464 2.104-5.154 3.224-.691.457-.88 1.388-.422 2.079.457.691 1.388.88 2.079.422 1.646-1.09 3.32-2.138 5.02-3.141.714-.421.951-1.34.53-2.054-.421-.714-1.34-.951-2.054-.53" opacity=".2"/><path d="m42.949 27.06c-1.563 1.289-3.093 2.618-4.588 3.986-.611.559-.653 1.508-.094 2.119.559.611 1.508.653 2.119.094 1.456-1.333 2.947-2.628 4.47-3.884.639-.527.73-1.472.203-2.112-.527-.639-1.472-.73-2.112-.203" opacity=".3"/><path d="m29.871 39.663c-1.346 1.515-2.653 3.066-3.918 4.649-.517.647-.412 1.591.235 2.108.647.517 1.591.412 2.108-.235 1.233-1.543 2.506-3.053 3.818-4.53.55-.619.494-1.567-.125-2.118-.619-.55-1.567-.494-2.118.125" opacity=".4"/><path d="m18.852 54.21c-1.093 1.706-2.142 3.44-3.145 5.2-.41.72-.159 1.636.561 2.046.72.41 1.636.159 2.046-.561.977-1.715 1.999-3.405 3.064-5.066.447-.697.244-1.625-.453-2.072-.697-.447-1.625-.244-2.072.453" opacity=".5"/><path d="m10.236 70.3c-.813 1.856-1.577 3.733-2.292 5.63-.292.775.1 1.64.875 1.933.775.292 1.64-.1 1.933-.875.696-1.848 1.441-3.677 2.232-5.484.332-.759-.013-1.643-.772-1.976-.759-.332-1.643.013-1.976.772" opacity=".6"/><path d="m4.248 87.58c-.51 1.959-.969 3.934-1.376 5.922-.166.812.357 1.604 1.168 1.771.812.166 1.604-.357 1.771-1.168.397-1.937.844-3.86 1.34-5.768.209-.802-.272-1.621-1.074-1.829-.802-.209-1.621.272-1.829 1.074" opacity=".7"/><path d="m1.061 105.5c-.197 2.01-.343 4.03-.436 6.06-.038.828.602 1.529 1.43 1.567.828.038 1.529-.602 1.567-1.43.091-1.977.233-3.947.425-5.907.081-.824-.522-1.558-1.347-1.639-.824-.081-1.558.522-1.639 1.347" opacity=".8"/><path d="m.685 123.61c.114 2.029.279 4.049.497 6.06.089.824.829 1.419 1.653 1.33.824-.089 1.419-.829 1.33-1.653-.212-1.96-.374-3.929-.484-5.906-.046-.827-.754-1.46-1.582-1.414-.827.046-1.46.754-1.414 1.582" opacity=".9"/><path d="m3.12 141.68c.428 1.982.907 3.951 1.437 5.904.217.8 1.041 1.272 1.841 1.055.8-.217 1.272-1.041 1.055-1.841-.516-1.902-.983-3.82-1.4-5.751-.175-.81-.973-1.325-1.783-1.15-.81.175-1.325.973-1.15 1.783"/></g><path fill="#fde5d8" d="m8.361 159.16c.734 1.89 1.517 3.76 2.348 5.607.34.755 1.228 1.092 1.983.752.755-.34 1.092-1.228.752-1.983-.81-1.8-1.573-3.621-2.288-5.462-.3-.772-1.169-1.155-1.941-.855-.772.3-1.155 1.169-.855 1.941m7.911 16.416c1.02 1.751 2.086 3.474 3.196 5.169.454.693 1.384.887 2.077.433.693-.454.887-1.384.433-2.077-1.081-1.651-2.12-3.331-3.113-5.04-.417-.716-1.335-.958-2.051-.541-.716.417-.958 1.335-.541 2.051m10.407 15.02c1.281 1.57 2.602 3.106 3.962 4.608.556.614 1.505.661 2.119.104.614-.556.661-1.505.104-2.119-1.325-1.463-2.613-2.96-3.86-4.49-.524-.642-1.469-.738-2.11-.214-.642.524-.738 1.469-.214 2.11"/></g><g transform="translate(146 82)"><path fill="#fde5d8" d="m3.229 76.861c.048-.069.134-.195.253-.376.194-.294.416-.641.661-1.038.696-1.126 1.447-2.437 2.225-3.92.385-.733.103-1.64-.631-2.025-.733-.385-1.64-.103-2.025.631-.746 1.42-1.462 2.67-2.122 3.739-.229.371-.434.692-.612.962-.104.158-.174.26-.207.307-.475.679-.311 1.614.368 2.089.679.475 1.614.311 2.089-.368"/><path fill="#fdc4a8" d="m11.208 60.31c.661-1.911 1.257-3.861 1.781-5.849.211-.801-.267-1.622-1.068-1.833-.801-.211-1.622.267-1.833 1.068-.504 1.913-1.079 3.792-1.715 5.633-.271.783.144 1.637.927 1.908.783.271 1.637-.144 1.908-.927"/><path fill="#fc9562" d="m15.16 42.4c.197-2.033.309-4.073.331-6.12.009-.828-.655-1.507-1.484-1.516-.828-.009-1.507.655-1.516 1.484-.021 1.96-.128 3.914-.317 5.862-.08.825.523 1.558 1.348 1.638.825.08 1.558-.523 1.638-1.348"/><path fill="#fde5d8" d="m14.533 24.07c-.343-2.01-.779-4.01-1.311-5.996-.214-.8-1.036-1.276-1.836-1.062-.8.214-1.276 1.036-1.062 1.836.508 1.902.924 3.812 1.252 5.728.14.817.915 1.365 1.731 1.226.817-.14 1.365-.915 1.226-1.731m-5.533-17.538c-.855-1.824-1.798-3.635-2.829-5.431-.412-.719-1.329-.967-2.048-.554-.719.412-.967 1.329-.554 2.048.99 1.725 1.894 3.462 2.714 5.212.352.75 1.245 1.073 1.995.721.75-.352 1.073-1.245.721-1.995"/></g><g transform="translate(86)"><rect width="84" height="91" x="36.806" y="10.487" fill="#fafafa" transform="matrix(.99619-.08716.08716.99619-4.58 7.081)" rx="12"/><rect width="84" height="91" x="31.806" y="6.487" fill="#fff" stroke="#eee" stroke-width="3" stroke-linecap="round" transform="matrix(.99619-.08716.08716.99619-4.25 6.63)" rx="10"/><rect width="88" height="98" x="11.84" y="11.896" fill="#fafafa" transform="matrix(.98481.17365-.17365.98481 11.423-8.771)" rx="12"/><g transform="matrix(.98481.17365-.17365.98481 17.233 0)"><rect width="88" height="98" fill="#fff" stroke="#eee" stroke-width="3" stroke-linecap="round" rx="10"/><g transform="translate(14 20)"><g fill="#fde5d8"><rect width="12" height="4" rx="2"/><rect width="12" height="4" x="24" y="12" rx="2"/></g><rect width="12" height="4" y="36" fill="#6b4fbb" rx="2"/><g fill="#fde5d8"><rect width="12" height="4" x="18" y="36" rx="2"/><rect width="12" height="4" y="54" rx="2"/></g><rect width="12" height="4" x="36" y="36" fill="#fc6d26" rx="2"/><rect width="6" height="4" x="42" y="12" fill="#6b4fbb" rx="2"/><g fill="#fde5d8"><rect width="6" height="4" x="36" y="24" rx="2"/><rect width="6" height="4" x="54" y="36" rx="2"/><rect width="6" height="4" x="48" y="24" rx="2"/><rect width="6" height="4" x="42" y="54" rx="2"/><rect width="6" height="4" y="24" rx="2"/><rect width="18" height="4" x="18" rx="2"/></g><rect width="18" height="4" x="18" y="54" fill="#fc6d26" rx="2"/><rect width="18" height="4" y="12" fill="#fc8a51" rx="2"/><g fill="#fc6d26"><rect width="18" height="4" x="12" y="24" rx="2"/><rect width="12" height="4" x="42" rx="2"/></g></g></g></g><g transform="translate(230 214)"><circle cx="8.5" cy="8.5" r="8.5" fill="#fc6d26" opacity=".2"/><circle cx="8.5" cy="8.5" r="3.5" fill="#fff" stroke="#fc6d26" stroke-width="3" stroke-linecap="round"/></g><g transform="translate(63 242)"><g fill="#6b4fbb"><circle cx="14.5" cy="14.5" r="14.5" opacity=".1"/><circle cx="14.5" cy="14.5" r="10.5" opacity=".2"/></g><circle cx="14.5" cy="14.5" r="4.5" fill="#fff" stroke="#6b4fbb" stroke-width="3" stroke-linecap="round"/></g><circle cx="191.5" cy="210.5" r="4.5" fill="#fff" stroke="#fde5d8" stroke-width="3" stroke-linecap="round"/><g transform="translate(251 177)"><path fill="#fafafa" d="m12.877 44.501c4.637 6.364 12.147 10.499 20.623 10.499 14.08 0 25.5-11.417 25.5-25.5 0-14.08-11.417-25.5-25.5-25.5-14.08 0-25.5 11.417-25.5 25.5 0 1.798.186 3.553.54 5.246l-3.651 7.385c-.489.989.007 1.855 1.112 1.927l6.876.443"/><path fill="#fff" stroke="#e5e5e5" stroke-width="3" d="m8.877 40.501c4.637 6.364 12.147 10.499 20.623 10.499 14.08 0 25.5-11.417 25.5-25.5 0-14.08-11.417-25.5-25.5-25.5-14.08 0-25.5 11.417-25.5 25.5 0 1.798.186 3.553.54 5.246l-3.651 7.385c-.489.989.007 1.855 1.112 1.927l6.876.443" stroke-linecap="round" stroke-linejoin="round"/><g transform="translate(17 18)"><g stroke="#fc6d26"><path fill="#fff" stroke-width="3" d="m13 16c7.18 0 12.367-6.825 12.367-6.825.35-.417.369-1.116.036-1.547 0 0-5.224-7.629-12.404-7.629-7.18 0-12.404 7.629-12.404 7.629-.329.438-.316 1.138.049 1.561 0 0 5.175 6.811 12.355 6.811" stroke-linecap="round" opacity=".5"/><circle cx="13" cy="8" r="4" stroke-width="2"/></g><circle cx="13" cy="8" r="2" fill="#fc6d26"/></g></g><g transform="matrix(-1 0 0 1 62 198)"><path fill="#fafafa" d="m9.837 49.647c5.04 5.734 12.429 9.353 20.663 9.353 15.188 0 27.5-12.312 27.5-27.5 0-15.188-12.312-27.5-27.5-27.5-15.188 0-27.5 12.312-27.5 27.5 0 2.928.458 5.749 1.305 8.396l-3.613 7.306c-.489.989.007 1.855 1.112 1.927l8.03.518"/><path fill="#fff" stroke="#e5e5e5" stroke-width="3" d="m13.837 45.647c5.04 5.734 12.429 9.353 20.663 9.353 15.188 0 27.5-12.312 27.5-27.5 0-15.188-12.312-27.5-27.5-27.5-15.188 0-27.5 12.312-27.5 27.5 0 2.928.458 5.749 1.305 8.396l-3.613 7.306c-.489.989.007 1.855 1.112 1.927l8.03.518" stroke-linecap="round" stroke-linejoin="round"/></g><g transform="translate(20.274 207.34)"><g transform="translate(4)"><use stroke="#b5a7dd" stroke-width="4" mask="url(#1)" xlink:href="#0"/><rect width="1" height="5" x="3" y="1" fill="#b5a7dd" rx=".5"/></g><g transform="translate(0 19)"><use fill="#fff" stroke="#6b4fbb" stroke-width="4" mask="url(#3)" xlink:href="#2"/><g fill="#6b4fbb"><rect width="1" height="5" x="6" y="11" rx=".5"/><rect width="1" height="5" x="8" y="11" rx=".5"/></g><use fill="#fff" stroke="#6b4fbb" stroke-width="4" mask="url(#5)" xlink:href="#4"/></g></g></g></svg>