<svg xmlns="http://www.w3.org/2000/svg" width="492.509" height="453.68" viewBox="0 0 492.50943 453.67966"><g fill="none" fill-rule="evenodd"><path d="M491.589 259.398l-27.559-84.814L409.413 6.486c-2.81-8.648-15.045-8.648-17.856 0l-54.619 168.098H155.572L100.952 6.486c-2.81-8.648-15.046-8.648-17.856 0L28.478 174.584.921 259.398a18.775 18.775 0 0 0 6.82 20.992l238.513 173.29L484.77 280.39a18.777 18.777 0 0 0 6.82-20.992" fill="#fc6d26"/><path d="M246.255 453.68l90.684-279.096H155.57z" fill="#e24329"/><path d="M246.255 453.68L155.57 174.583H28.479z" fill="#fc6d26"/><path d="M28.479 174.584L.92 259.4a18.773 18.773 0 0 0 6.821 20.99l238.514 173.29z" fill="#fca326"/><path d="M28.479 174.584H155.57L100.952 6.487c-2.81-8.65-15.047-8.65-17.856 0z" fill="#e24329"/><path d="M246.255 453.68l90.684-279.096H464.03z" fill="#fc6d26"/><path d="M464.03 174.584l27.56 84.815a18.773 18.773 0 0 1-6.822 20.99L246.255 453.68z" fill="#fca326"/><path d="M464.03 174.584H336.94L391.557 6.487c2.811-8.65 15.047-8.65 17.856 0z" fill="#e24329"/></g></svg>