<svg xmlns="http://www.w3.org/2000/svg" viewBox="790 253 425 254" xmlns:xlink="http://www.w3.org/1999/xlink"><defs><rect id="a" width="25" height="8.942" x="25" y="88.423" rx="2"/><mask id="h" width="25" height="8.942" x="0" y="0" fill="#fff"><use xlink:href="#a"/></mask><path id="b" d="M16 29.801h43v61.603H16z"/><mask id="i" width="43" height="61.603" x="0" y="0" fill="#fff"><use xlink:href="#b"/></mask><path id="c" d="M57 60.603l13.187 9.358c.449.32.876 1.015.955 1.568l3.575 24.863c.157 1.086-.253 1.257-.912.384L66 86.436l-9-6.955"/><mask id="j" width="17.75" height="36.731" x="0" y="0" fill="#fff"><use xlink:href="#c"/></mask><path id="d" d="M.25 60.603l13.186 9.358c.45.32.876 1.015.956 1.568l3.575 24.863c.156 1.086-.253 1.257-.912.384l-7.806-10.34-9-6.955"/><mask id="k" width="17.75" height="36.731" x="0" y="0" fill="#fff"><use xlink:href="#d"/></mask><path id="e" d="M16 29.801L35.786 1.456c.947-1.357 2.48-1.36 3.428 0L59 29.8"/><mask id="l" width="43" height="29.364" x="0" y="0" fill="#fff"><use xlink:href="#e"/></mask><rect id="f" width="26.265" height="35.509" x="6.367" rx="13.133"/><mask id="m" width="26.265" height="35.509" x="0" y="0" fill="#fff"><use xlink:href="#f"/></mask><rect id="g" width="16.837" height="22.386" x="4.082" rx="8.418"/><mask id="n" width="16.837" height="22.386" x="0" y="0" fill="#fff"><use xlink:href="#g"/></mask></defs><g fill="none" fill-rule="evenodd" transform="translate(792 255)"><path d="M225.437 59.587c-.059.59-.132 1.27-.22 2.03a178.367 178.367 0 0 1-.965 7.07 1.5 1.5 0 1 0 2.963.465c.4-2.553.726-4.975.982-7.19a137.446 137.446 0 0 0 .297-2.832 1.5 1.5 0 1 0-2.989-.26c-.01.123-.033.365-.068.717zm-5.563 28.354a1.5 1.5 0 0 0 2.853.929c.975-2.997 1.849-6.283 2.628-9.797a1.5 1.5 0 1 0-2.928-.65c-.76 3.426-1.61 6.62-2.553 9.518zm-9.947 15.225a1.5 1.5 0 1 0 1.001 2.828c2.98-1.055 5.542-3.68 7.78-7.627a1.5 1.5 0 0 0-2.61-1.48c-1.915 3.378-3.995 5.508-6.171 6.279zm-19.488 4.417a1.5 1.5 0 1 0 1.164 2.765c3.12-1.314 6.272-2.324 9.258-2.981a1.5 1.5 0 1 0-.645-2.93c-3.167.697-6.491 1.763-9.777 3.146zm-17.208 11.043a1.5 1.5 0 0 0 2.066 2.175c2.282-2.169 4.866-4.162 7.676-5.946a1.5 1.5 0 0 0-1.608-2.533c-2.97 1.885-5.707 3.998-8.134 6.304zm-10.777 17.623a1.5 1.5 0 1 0 2.91.732c.768-3.054 2.041-5.977 3.78-8.748a1.5 1.5 0 0 0-2.54-1.595c-1.903 3.032-3.302 6.244-4.15 9.611zm-.265 20.444a1.5 1.5 0 1 0 2.977-.375c-.367-2.91-.58-6.137-.645-9.817a1.5 1.5 0 0 0-3 .053c.067 3.783.287 7.116.668 10.139zm6.219 19.472a1.5 1.5 0 0 0 2.652-1.403c-1.674-3.162-2.903-5.995-3.848-8.943a1.5 1.5 0 1 0-2.857.916c1.003 3.127 2.302 6.12 4.053 9.43zm7.566 12.77a595.837 595.837 0 0 1 2.73 4.475 1.5 1.5 0 0 0 2.569-1.551 626.463 626.463 0 0 0-2.744-4.495c.08.13-1.954-3.173-2.486-4.04a1.5 1.5 0 1 0-2.558 1.567c.534.87 2.571 4.178 2.489 4.045zm8.856 22.447a1.5 1.5 0 0 0 3-.039 32.214 32.214 0 0 0-1.837-10.326 1.5 1.5 0 0 0-2.828.999 29.212 29.212 0 0 1 1.665 9.366zm-5.483 18.028a1.5 1.5 0 0 0 2.497 1.662 36.203 36.203 0 0 0 4.488-9.416 1.5 1.5 0 0 0-2.868-.882 33.197 33.197 0 0 1-4.117 8.636z" fill="#FDE5D8"/><g transform="rotate(60 126.799 371.622)"><path stroke="#FDE5D8" stroke-width="3" d="M19 154l10-52.66m16 0L55 154" stroke-linecap="round"/><rect width="3" height="38.75" x="35" y="99.353" fill="#FDE5D8" rx="1.5"/><use fill="#FFF" stroke="#FDE5D8" stroke-width="6" mask="url(#h)" xlink:href="#a"/><use stroke="#FDE5D8" stroke-width="6" mask="url(#i)" xlink:href="#b"/><use stroke="#FDE5D8" stroke-width="6" mask="url(#j)" xlink:href="#c"/><use stroke="#FDE5D8" stroke-width="6" mask="url(#k)" transform="matrix(-1 0 0 1 18.25 0)" xlink:href="#d"/><use stroke="#FDE5D8" stroke-width="6" mask="url(#l)" xlink:href="#e"/><ellipse cx="28.5" cy="82.958" fill="#FC8A51" rx="1.5" ry="1.49"/><ellipse cx="34.5" cy="82.958" fill="#FC8A51" rx="1.5" ry="1.49"/><ellipse cx="40.5" cy="82.958" fill="#FC8A51" rx="1.5" ry="1.49"/><ellipse cx="46.5" cy="82.958" fill="#FC8A51" rx="1.5" ry="1.49"/><ellipse cx="37.5" cy="55.138" stroke="#FDE5D8" stroke-width="3" rx="10.5" ry="10.433"/><ellipse cx="37.5" cy="55.138" stroke="#FDE5D8" stroke-width="3" rx="5.5" ry="5.465"/></g><path fill="#EEE" d="M96.043 37.21c-.152 1.688.081 3.816.997 6.147a1.016 1.016 0 0 0 1.89-.74c-.791-2.014-.99-3.832-.865-5.226.01-.114.02-.186.024-.211a1.015 1.015 0 1 0-2.002-.333 5.06 5.06 0 0 0-.044.363zm11.487 15.683c.491.24 1.098.063 1.355-.394.257-.456.068-1.02-.424-1.26-1.866-.907-3.458-1.914-4.794-3.007a1.058 1.058 0 0 0-1.417.085.888.888 0 0 0 .091 1.317c1.458 1.192 3.183 2.283 5.19 3.26zm13.131 6.06a1.032 1.032 0 0 0 1.293-.7 1.06 1.06 0 0 0-.686-1.32 376.355 376.355 0 0 1-5.915-1.882 1.031 1.031 0 0 0-1.303.681 1.06 1.06 0 0 0 .668 1.33c1.729.569 2.905.94 5.943 1.891zm11.934 3.928c.45.246 1.022.098 1.28-.33a.872.872 0 0 0-.346-1.221c-1.494-.819-3.192-1.545-5.267-2.275-.486-.17-1.025.067-1.204.53-.18.464.07.978.555 1.149 1.984.697 3.59 1.384 4.982 2.147zm9.382 10.502c.205.494.81.742 1.349.554.54-.188.81-.74.605-1.234-.85-2.048-1.853-3.796-3.037-5.305-.337-.429-.99-.527-1.459-.218-.469.308-.575.906-.238 1.335 1.074 1.368 1.992 2.97 2.78 4.868zm2.632 13.642c.018.553.568.99 1.228.975.66-.016 1.18-.477 1.163-1.03-.073-2.204-.27-4.206-.622-6.12-.101-.547-.712-.923-1.365-.838-.652.084-1.1.597-.999 1.144.336 1.825.525 3.745.595 5.869z"/><path fill="#E5E5E5" d="M144.142 95.73a244.285 244.285 0 0 0-.142 5.254c-.007.553.396 1.008.902 1.016.506.008.923-.433.93-.985.02-1.467.056-2.681.142-5.211l.026-.767c.018-.552-.377-1.016-.882-1.036-.506-.02-.931.41-.95.963l-.026.766zm.797 19.471c.12.545.673.892 1.236.777.562-.116.921-.651.802-1.196-.417-1.9-.71-3.84-.897-5.864-.052-.554-.558-.964-1.131-.914-.573.05-.996.54-.945 1.094.195 2.102.5 4.121.935 6.103zm5.056 12.324c.296.454.953.61 1.467.348.514-.261.69-.841.395-1.295a40.725 40.725 0 0 1-2.79-4.991c-.227-.485-.855-.715-1.403-.515-.548.2-.81.755-.582 1.239a42.56 42.56 0 0 0 2.913 5.214zm4.814 7.701a33.475 33.475 0 0 0 3.543 3.531 1.021 1.021 0 0 0 1.393-.066.908.908 0 0 0-.07-1.326 31.562 31.562 0 0 1-3.34-3.328 59.092 59.092 0 0 1-.576-.682 1.02 1.02 0 0 0-1.386-.152.909.909 0 0 0-.16 1.32c.196.234.394.469.596.703zm15.825 11.677c.48.242 1.052.017 1.276-.501.224-.52.016-1.136-.464-1.378a49.756 49.756 0 0 1-4.986-2.872c-.453-.298-1.044-.144-1.32.345-.276.488-.133 1.126.32 1.424a51.568 51.568 0 0 0 5.174 2.982z"/><path fill="#EEE" d="M184.733 151.97c.553.141 1.108-.226 1.239-.82.131-.595-.21-1.192-.763-1.333a72.17 72.17 0 0 1-5.863-1.763c-.54-.188-1.12.13-1.296.712-.175.581.121 1.205.662 1.393a74.018 74.018 0 0 0 6.021 1.81zm13.2 2.028c.554.04 1.03-.445 1.065-1.083.035-.639-.386-1.188-.939-1.228a71.842 71.842 0 0 1-5.92-.676c-.55-.086-1.055.358-1.13.991-.074.634.31 1.217.86 1.303a73.28 73.28 0 0 0 6.065.693zm14.188-1.392c.55-.055.94-.457.871-.9-.068-.441-.569-.755-1.118-.7-1.917.192-3.893.32-5.91.382-.554.017-.985.392-.963.837.021.445.487.792 1.04.774a88.939 88.939 0 0 0 6.08-.393zm14.245-2.657c.53-.22.776-.816.55-1.332a1.053 1.053 0 0 0-1.367-.535 44.421 44.421 0 0 1-5.777 1.923 1.012 1.012 0 0 0-.736 1.243c.15.542.721.863 1.277.717a46.532 46.532 0 0 0 6.054-2.016zm11.483-9.532c.292-.435.148-1.006-.32-1.277-.47-.27-1.087-.138-1.379.297-.957 1.424-2.225 2.734-3.784 3.92a.88.88 0 0 0-.138 1.304c.35.396.98.453 1.408.128 1.723-1.31 3.136-2.771 4.213-4.372zm7.824-9.73a.965.965 0 0 0 .09-1.358.958.958 0 0 0-1.355-.09 44.935 44.935 0 0 0-4.17 4.163.965.965 0 0 0 .089 1.359.957.957 0 0 0 1.354-.089 43.05 43.05 0 0 1 3.991-3.985zm11.808-7.817c.476-.257.657-.858.405-1.342a.967.967 0 0 0-1.319-.412 67.097 67.097 0 0 0-5.123 3.059c-.451.298-.58.913-.287 1.373.294.46.898.59 1.35.292a65.257 65.257 0 0 1 4.974-2.97zm12.795-5.948c.55-.169.851-.724.672-1.241-.179-.518-.77-.8-1.32-.632a92.308 92.308 0 0 0-5.975 2.054c-.536.205-.794.78-.576 1.283.218.504.83.746 1.366.541a90.115 90.115 0 0 1 5.833-2.005z"/><circle cx="145" cy="90" r="5" fill="#FFF" stroke="#EEE" stroke-width="2"/><circle cx="238" cy="138" r="5" fill="#FFF" stroke="#EEE" stroke-width="2"/><path stroke="#B5A7DD" stroke-width="3" d="M20.06 56s-17.47 33-12 53c5.47 20 17 32 38 44s32.44-5 60.94 6 29 43 29 43" stroke-linecap="round" stroke-dasharray="8 10"/><g stroke="#EEE" stroke-width="3" transform="translate(108 173)"><path fill="#FFF" d="M154 77c0-42.526-34.474-77-77-77S0 34.474 0 77" stroke-linecap="round"/><circle cx="108" cy="41" r="16"/><circle cx="42.5" cy="30.5" r="8.5"/><circle cx="22" cy="58" r="5"/></g><g fill="#FC8A51" transform="rotate(15 101.633 923.121)"><path d="M.398 11.298h2.388c0-4.234 3.385-7.666 7.56-7.666V1.21C4.853 1.21.399 5.727.399 11.298z"/><ellipse cx="10.745" cy="2.018" rx="1.99" ry="2.018"/></g><g fill="#FC8A51" transform="scale(-1 1) rotate(-15 -102.031 920.099)"><path d="M.398 11.298h2.388c0-4.234 3.385-7.666 7.56-7.666V1.21C4.853 1.21.399 5.727.399 11.298z"/><ellipse cx="10.745" cy="2.018" rx="1.99" ry="2.018"/></g><g transform="rotate(15 71.738 842.306)"><g fill="#FC8A51" transform="translate(29.449 11.298)"><rect width="7.959" height="2" x=".796" y="8.877" rx="1"/><rect width="7.959" height="2" x=".796" y="16.14" transform="rotate(15 4.776 17.14)" rx="1"/><rect width="7.959" height="2" x=".915" y="1.807" transform="rotate(-15 4.895 2.807)" rx="1"/></g><g fill="#FC8A51" transform="matrix(-1 0 0 1 9.551 11.298)"><rect width="7.959" height="2" x=".796" y="8.877" rx="1"/><rect width="7.959" height="2" x=".796" y="16.14" transform="rotate(15 4.776 17.14)" rx="1"/><rect width="7.959" height="2" x=".915" y="1.807" transform="rotate(-15 4.895 2.807)" rx="1"/></g><use stroke="#FC8A51" stroke-width="6" mask="url(#m)" xlink:href="#f"/><path fill="#FC8A51" d="M7.163 12.912h23.878v3H7.163z"/></g><g fill="#EEE" transform="scale(-1 1) rotate(15 -60.75 -335.206)"><path d="M.255 7.123h1.53a4.84 4.84 0 0 1 4.848-4.834V.763C3.11.763.255 3.611.255 7.123z"/><ellipse cx="6.888" cy="1.272" rx="1.276" ry="1.272"/></g><g fill="#EEE" transform="rotate(-15 60.494 -337.144)"><path d="M.255 7.123h1.53a4.84 4.84 0 0 1 4.848-4.834V.763C3.11.763.255 3.611.255 7.123z"/><ellipse cx="6.888" cy="1.272" rx="1.276" ry="1.272"/></g><g transform="scale(-1 1) rotate(15 -79.491 -386.955)"><g fill="#EEE" transform="translate(18.878 7.123)"><rect width="5.102" height="2" x=".51" y="5.596" rx="1"/><rect width="5.102" height="2" x=".51" y="10.175" transform="rotate(15 3.061 11.175)" rx="1"/><rect width="5.102" height="2" x=".587" y="1.139" transform="rotate(-15 3.138 2.14)" rx="1"/></g><g fill="#EEE" transform="matrix(-1 0 0 1 6.122 7.123)"><rect width="5.102" height="2" x=".51" y="5.596" rx="1"/><rect width="5.102" height="2" x=".51" y="10.175" transform="rotate(15 3.061 11.175)" rx="1"/><rect width="5.102" height="2" x=".587" y="1.139" transform="rotate(-15 3.138 2.14)" rx="1"/></g><use stroke="#EEE" stroke-width="4" mask="url(#n)" xlink:href="#g"/><path fill="#EEE" d="M4.592 8.14h15.306v2H4.592z"/></g><g fill="#FFF" transform="translate(0 103)"><circle cx="8.5" cy="8.5" r="8.5" stroke="#B5A7DD" stroke-width="4"/><circle cx="171.5" cy="20.5" r="6.5"/></g><g transform="translate(39 142)"><ellipse cx="12.5" cy="12.5" fill="#FFF" stroke="#6B4FBB" stroke-width="4" rx="12.5" ry="12.5"/><path fill="#FC8A51" d="M10.732 13.475l-1.766-1.767a1.5 1.5 0 1 0-2.122 2.122l2.826 2.826h.001v.001c.59.59 1.535.587 2.119.003l6.37-6.37a1.504 1.504 0 0 0-.003-2.118 1.494 1.494 0 0 0-2.118-.004l-5.307 5.307z"/></g><circle cx="171.5" cy="122.5" r="6.5" fill="#FFF" stroke="#FC8A51" stroke-width="3"/><circle cx="22" cy="52" r="6" fill="#FFF" stroke="#B5A7DD" stroke-width="3"/><path fill="#FFF" stroke="#B5A7DD" stroke-width="3.6" d="M188.151 141.596c8.704-7.746 11.013-20.925 4.862-31.578-7.02-12.16-22.405-16.422-34.362-9.518-11.958 6.904-15.96 22.358-8.939 34.518 6.236 10.8 19.068 15.37 30.238 11.42l10.899 18.879a4.765 4.765 0 0 0 6.508 1.748 4.768 4.768 0 0 0 1.74-6.51l-10.946-18.959zm-8.434-4.609c7.857-4.536 10.487-14.692 5.873-22.683-4.613-7.991-14.723-10.791-22.58-6.255-7.858 4.537-10.488 14.693-5.875 22.684 4.614 7.99 14.724 10.791 22.582 6.254z"/></g></svg>