<svg xmlns="http://www.w3.org/2000/svg" width="104" height="104" viewBox="0 0 104 104"><g fill="none" fill-rule="evenodd"><path fill="#EEE" fill-rule="nonzero" d="M9.565 27.5a2 2 0 0 1 3.464 2C6.226 41.283 5.18 55.239 9.843 67.745a2 2 0 0 1-3.748 1.397C1.02 55.53 2.159 40.328 9.565 27.5zM27.5 94.435a2 2 0 0 1 2-3.464c9.19 5.306 19.725 7.137 29.97 5.406a2 2 0 1 1 .667 3.944A48.798 48.798 0 0 1 27.5 94.435zM94.435 76.5a2 2 0 0 1-3.464-2 44.808 44.808 0 0 0 5.261-30.78 2 2 0 0 1 3.932-.738A48.807 48.807 0 0 1 94.435 76.5zM76.5 9.565a2 2 0 0 1-2 3.464C62.824 6.288 49.012 5.198 36.585 9.72a2 2 0 0 1-1.368-3.758C48.744 1.039 63.789 2.226 76.5 9.565z"/><path fill="#EEE" fill-rule="nonzero" d="M62.612 12.397a2 2 0 0 1-1.036 3.864C51.55 13.574 41.08 15.214 32.44 20.593a2 2 0 0 1-2.114-3.396c9.571-5.958 21.18-7.776 32.287-4.8zM12.397 41.388a2 2 0 0 1 3.864 1.036 36.854 36.854 0 0 0 2.986 26.787 2 2 0 1 1-3.54 1.862 40.854 40.854 0 0 1-3.31-29.685zm28.991 50.215a2 2 0 0 1 1.036-3.864c10.098 2.706 20.644 1.022 29.316-4.445a2 2 0 1 1 2.134 3.384c-9.606 6.056-21.299 7.922-32.486 4.925zm50.215-28.991a2 2 0 0 1-3.864-1.036 36.86 36.86 0 0 0-3.208-27.204 2 2 0 1 1 3.517-1.906 40.859 40.859 0 0 1 3.555 30.146z"/><path fill="#EEE" d="M22.717 56.065c2.039 14.585 14.563 25.81 29.71 25.81 16.569 0 30-13.431 30-30v-.077c.191 1.369.29 2.768.29 4.19 0 16.568-13.431 30-30 30-16.543 0-29.958-13.39-30-29.923z"/><path fill="#E1DBF1" fill-rule="nonzero" d="M52.427 83.875c-17.673 0-32-14.327-32-32 0-17.673 14.327-32 32-32 17.673 0 32 14.327 32 32 0 17.673-14.327 32-32 32zm0-4c15.464 0 28-12.536 28-28s-12.536-28-28-28-28 12.536-28 28 12.536 28 28 28zm6.877-16.24a2 2 0 1 1-2.882 2.773 4.979 4.979 0 0 0-3.603-1.533 4.977 4.977 0 0 0-3.539 1.468 2 2 0 1 1-2.83-2.826 8.976 8.976 0 0 1 6.369-2.642 8.98 8.98 0 0 1 6.485 2.76z"/><path fill="#6B4FBB" d="M41.755 49.774l2.122 2.122a2 2 0 1 1-2.829 2.828l-2.121-2.121-2.121 2.121a2 2 0 0 1-2.829-2.828l2.122-2.122-2.122-2.12a2 2 0 1 1 2.829-2.83l2.121 2.122 2.121-2.121a2 2 0 0 1 2.829 2.828l-2.122 2.121zm27 0l2.122 2.122a2 2 0 1 1-2.829 2.828l-2.121-2.121-2.121 2.121a2 2 0 0 1-2.829-2.828l2.122-2.122-2.122-2.12a2 2 0 1 1 2.829-2.83l2.121 2.122 2.121-2.121a2 2 0 0 1 2.829 2.828l-2.122 2.121z"/></g></svg>