<svg xmlns="http://www.w3.org/2000/svg" viewBox="0 0 310 141" xmlns:xlink="http://www.w3.org/1999/xlink"><g fill="none" fill-rule="evenodd"><g fill-rule="nonzero"><path fill="#e5e5e5" d="M48 69c0-1.105.887-2 1.998-2h4c1.103 0 1.998.888 1.998 2 0 1.105-.887 2-1.998 2h-4A1.992 1.992 0 0 1 48 69m14 0c0-1.105.887-2 1.998-2h4c1.103 0 1.998.888 1.998 2 0 1.105-.887 2-1.998 2h-4A1.992 1.992 0 0 1 62 69"/><g fill="#31af64"><path d="M19 88C8.507 88 0 79.493 0 69s8.507-19 19-19 19 8.507 19 19-8.507 19-19 19m0-4c8.284 0 15-6.716 15-15 0-8.284-6.716-15-15-15-8.284 0-15 6.716-15 15 0 8.284 6.716 15 15 15"/><path d="M17.07 71.02l-2.829-2.828a1.995 1.995 0 0 0-2.828 0 1.997 1.997 0 0 0 0 2.83l4.243 4.243a1.993 1.993 0 0 0 2.823.005l7.79-7.79a1.998 1.998 0 0 0-.007-2.822 1.99 1.99 0 0 0-2.822-.006l-6.37 6.37v-.001"/></g></g><g transform="translate(187)"><rect width="116" height="134" y="7" fill="#f9f9f9" rx="10"/><rect width="116" height="134" x="5" y="2" fill="#fff" rx="10"/><path fill="#eee" fill-rule="nonzero" d="M15 4a8 8 0 0 0-8 8v114a8 8 0 0 0 8 8h96a8 8 0 0 0 8-8V12a8 8 0 0 0-8-8H15m0-4h96c6.627 0 12 5.373 12 12v114c0 6.627-5.373 12-12 12H15c-6.627 0-12-5.373-12-12V12C3 5.373 8.373 0 15 0"/><g transform="translate(23 25)"><g fill="#e1dbf1"><rect width="16" height="4" rx="2"/><rect width="16" height="4" x="32" y="12" rx="2"/></g><rect width="16" height="4" x="44" fill="#eee" rx="2"/><rect width="16" height="4" x="12" y="24" fill="#e1dbf1" rx="2"/><rect width="16" height="4" x="64" y="36" fill="#fef0e8" rx="2"/><rect width="8" height="4" x="20" fill="#fee1d3" rx="2" id="a"/><rect width="8" height="4" x="32" y="36" fill="#fc6d26" rx="2"/><rect width="8" height="4" x="52" y="12" fill="#fef0e8" rx="2"/><rect width="8" height="4" x="64" fill="#fef0e8" rx="2" id="b"/><rect width="12" height="4" x="16" y="48" fill="#e1dbf1" rx="2"/><rect width="8" height="4" x="44" y="36" fill="#fc6d26" rx="2"/><g fill="#e1dbf1"><rect width="4" height="4" x="56" y="36" rx="2"/><rect width="4" height="4" x="64" y="60" rx="2"/></g><rect width="4" height="4" x="72" y="60" fill="#fc6d26" rx="2"/><rect width="8" height="4" x="32" fill="#fc6d26" rx="2" id="c"/><g fill="#eee"><rect width="28" height="4" y="36" rx="2"/><rect width="28" height="4" x="44" y="48" rx="2"/></g><rect width="28" height="4" x="32" y="60" fill="#efedf8" rx="2"/><rect width="28" height="4" y="12" fill="#6b4fbb" rx="2"/><rect width="28" height="4" x="32" y="24" fill="#c3b8e3" rx="2"/><rect width="8" height="4" y="24" fill="#fef0e8" rx="2"/><rect width="8" height="4" x="32" y="48" fill="#6b4fbb" rx="2"/><rect width="12" height="4" y="48" fill="#fc6d26" rx="2"/><g fill="#fef0e8"><rect width="12" height="4" y="60" rx="2"/><rect width="12" height="4" x="16" y="60" rx="2"/></g></g><g transform="translate(23 97)"><rect width="16" height="4" fill="#efedf8" rx="2"/><rect width="16" height="4" x="18" y="12" fill="#fc6d26" rx="2"/><rect width="16" height="4" x="44" fill="#6b4fbb" rx="2"/><use xlink:href="#a"/><rect width="8" height="4" x="38" y="12" fill="#fef0e8" rx="2"/><use xlink:href="#b"/><use xlink:href="#c"/><rect width="14" height="4" y="12" fill="#eee" rx="2"/></g></g><g fill-rule="nonzero"><path fill="#eee" d="M109 101a2 2 0 1 1 0-4c2.524 0 5-.346 7.379-1.02a2 2 0 0 1 1.091 3.849 31.007 31.007 0 0 1-8.47 1.172m18.09-5.825a31.174 31.174 0 0 0 6.187-5.899 2 2 0 1 0-3.131-2.489 27.133 27.133 0 0 1-5.393 5.142 2.001 2.001 0 0 0 2.337 3.247m11.297-15.288a30.923 30.923 0 0 0 1.576-8.407 2 2 0 1 0-3.996-.188 26.875 26.875 0 0 1-1.372 7.32 2 2 0 1 0 3.791 1.275m.283-18.89a30.855 30.855 0 0 0-3.593-7.763 2 2 0 1 0-3.362 2.166 26.905 26.905 0 0 1 3.128 6.757 2 2 0 0 0 3.828-1.16M127.875 45.41a30.973 30.973 0 0 0-7.435-4.228 2 2 0 0 0-1.477 3.717 26.936 26.936 0 0 1 6.474 3.682 2 2 0 0 0 2.438-3.172m-17.834-6.391a31.09 31.09 0 0 0-8.5.886 2 2 0 0 0 .959 3.883 27.06 27.06 0 0 1 7.408-.771 2 2 0 1 0 .132-3.998m-18.272 5.207a31.139 31.139 0 0 0-6.383 5.688 2 2 0 1 0 3.045 2.593 27.152 27.152 0 0 1 5.564-4.957 2 2 0 1 0-2.226-3.324M79.96 59.121a30.864 30.864 0 0 0-1.862 8.349 2 2 0 1 0 3.987.323c.203-2.506.75-4.946 1.62-7.268a2 2 0 1 0-3.746-1.404m-.923 18.873a30.827 30.827 0 0 0 3.327 7.881 2.001 2.001 0 0 0 3.435-2.051 26.785 26.785 0 0 1-2.895-6.859 2 2 0 0 0-3.865 1.029M89.301 93.94a31.008 31.008 0 0 0 7.286 4.476 2 2 0 1 0 1.603-3.665 26.983 26.983 0 0 1-6.346-3.899 2 2 0 0 0-2.543 3.087m17.61 6.991a2 2 0 0 1 .265-3.991c.601.04 1.205.06 1.812.06a1.999 1.999 0 1 1-.001 3.999c-.695 0-1.387-.023-2.076-.069"/><path fill="#fc0" d="M117.78 63.798c.241.268.288.563.14.884l-10.848 23.24c-.174.334-.455.502-.843.502-.054 0-.148-.014-.282-.04a.855.855 0 0 1-.512-.382.761.761 0 0 1-.09-.603l3.957-16.232-8.156 2.03a1.08 1.08 0 0 1-.241.02.93.93 0 0 1-.623-.222c-.24-.2-.328-.462-.26-.783l4.04-16.574a.858.858 0 0 1 .321-.462.917.917 0 0 1 .563-.18h6.59c.254 0 .468.083.642.25a.797.797 0 0 1 .261.593.818.818 0 0 1-.1.362l-3.435 9.301 7.955-1.969c.107-.027.187-.04.241-.04.254 0 .482.1.683.301"/><path fill="#e5e5e5" d="M148 69c0-1.105.887-2 1.998-2h4c1.103 0 1.998.888 1.998 2 0 1.105-.887 2-1.998 2h-4A1.992 1.992 0 0 1 148 69m14 0c0-1.105.887-2 1.998-2h4c1.103 0 1.998.888 1.998 2 0 1.105-.887 2-1.998 2h-4A1.992 1.992 0 0 1 162 69"/></g></g></svg>