<svg xmlns="http://www.w3.org/2000/svg" viewBox="787 240 386 274" xmlns:xlink="http://www.w3.org/1999/xlink"><defs><circle id="a" cx="37" cy="107" r="8"/><mask id="e" width="16" height="16" x="0" y="0" fill="#fff"><use xlink:href="#a"/></mask><circle id="b" cx="37" cy="75" r="8"/><mask id="f" width="16" height="16" x="0" y="0" fill="#fff"><use xlink:href="#b"/></mask><circle id="c" cx="42" cy="93" r="8"/><mask id="g" width="16" height="16" x="0" y="0" fill="#fff"><use xlink:href="#c"/></mask><circle id="d" cx="43" cy="75" r="8"/><mask id="h" width="16" height="16" x="0" y="0" fill="#fff"><use xlink:href="#d"/></mask></defs><g fill="none" fill-rule="evenodd" transform="translate(791 244)"><g transform="rotate(30 49.554 229.722)"><rect width="74" height="124" x="8.6" y="95.9" fill="#FAFAFA" rx="8"/><rect width="74" height="124" y="87" fill="#FFF" stroke="#EEE" stroke-width="4" stroke-linecap="round" rx="8"/><circle cx="26.5" cy="178.5" r="3.5" fill="#FC8A51"/><circle cx="47.5" cy="178.5" r="3.5" fill="#FC8A51"/><rect width="50" height="4" x="12" y="127" fill="#E5E5E5" rx="2"/><rect width="38" height="4" x="18" y="139" fill="#E5E5E5" rx="2"/><use stroke="#E5E5E5" stroke-width="8" mask="url(#e)" stroke-linecap="round" xlink:href="#a"/><path stroke="#EEE" stroke-width="4" d="M37.3 107S10.5 18.3 81 .6" stroke-linecap="round"/><path fill="#FDE5D8" d="M31 189c0 3.3 2.7 6 6 6s6-2.7 6-6"/></g><g transform="translate(105 47)"><rect width="74" height="124" y="64" fill="#FAFAFA" rx="8"/><rect width="74" height="124" y="55" fill="#FFF" stroke="#EEE" stroke-width="4" stroke-linecap="round" rx="8"/><rect width="50" height="4" x="12" y="95" fill="#E5E5E5" rx="2"/><rect width="38" height="4" x="18" y="107" fill="#E5E5E5" rx="2"/><use stroke="#E5E5E5" stroke-width="8" mask="url(#f)" stroke-linecap="round" xlink:href="#b"/><path fill="#B5A7DD" d="M56 149.7c-.6-1-.2-2 .7-2.7l1.8-1c1-.6 2-.2 2.7.7.5 1 .2 2.2-.7 2.8l-1.8 1c-1 .5-2 .2-2.7-.8zm-37.8 0c.5-1 .2-2-.7-2.7l-1.8-1c-1-.6-2-.2-2.7.7-.6 1-.2 2.2.7 2.8l1.8 1c1 .5 2 .2 2.7-.8zM33 151h9v4h-9v-4z"/><path fill="#6B4FBB" d="M59 153c0-5.5-4.6-10-10-10-5.7 0-10 4.5-10 10s4.3 10 10 10c5.4 0 10-4.5 10-10zm-16 0c0-3.3 2.6-6 6-6 3.2 0 6 2.7 6 6s-2.8 6-6 6c-3.4 0-6-2.7-6-6zm-8 0c0-5.5-4.6-10-10-10-5.7 0-10 4.5-10 10s4.3 10 10 10c5.4 0 10-4.5 10-10zm-16 0c0-3.3 2.6-6 6-6 3.2 0 6 2.7 6 6s-2.8 6-6 6c-3.4 0-6-2.7-6-6z"/><path stroke="#EEE" stroke-width="4" d="M37 75S30 0 80 0" stroke-linecap="round"/></g><g transform="rotate(15 -82.507 752.644)"><rect width="74" height="124" x="14.6" y="81.8" fill="#FAFAFA" rx="8"/><rect width="74" height="124" x="5" y="73" fill="#FFF" stroke="#EEE" stroke-width="4" stroke-linecap="round" rx="8"/><path fill="#FDE5D8" d="M41 147c0-1 1-2 2-2s2 1 2 2v3c0 1-1 2-2 2s-2-1-2-2v-3zm16.8 6.2c.8-.7 2-.6 2.8.3.7.8.5 2-.3 2.8L58 158c-1 .8-2.2.7-3 0-.6-1-.4-2.3.4-3l2.4-1.8zm-32 3c-1-.6-1-2-.4-2.7.7-1 2-1 2.8-.3l2.4 1.8c.8.7 1 2 .3 3-.8.7-2 1-3 0l-2.3-1.7z"/><rect width="2" height="7" x="39" y="168" fill="#FC8A51" rx="1"/><rect width="2" height="7" x="45" y="168" fill="#FC8A51" rx="1"/><circle cx="40" cy="169" r="2" fill="#FC8A51"/><circle cx="46" cy="169" r="2" fill="#FC8A51"/><rect width="22" height="18" x="32" y="158" stroke="#FC8A51" stroke-width="4" rx="8"/><rect width="34" height="5" x="26" y="174" fill="#FC8A51" rx="2.5"/><rect width="50" height="4" x="17" y="113" fill="#E5E5E5" rx="2"/><rect width="38" height="4" x="23" y="125" fill="#E5E5E5" rx="2"/><use stroke="#E5E5E5" stroke-width="8" mask="url(#g)" stroke-linecap="round" xlink:href="#c"/><path stroke="#EEE" stroke-width="4" d="M42 93S50 0 0 0" stroke-linecap="round"/></g><g transform="rotate(-15 276.18 -697.744)"><rect width="74" height="124" x="18.7" y="65.6" fill="#FAFAFA" rx="8"/><rect width="74" height="124" x="6" y="55" fill="#FFF" stroke="#EEE" stroke-width="4" stroke-linecap="round" rx="8"/><g transform="translate(25 129)"><path stroke="#B5A7DD" stroke-width="4" d="M32 14c0-7.7-6.3-14-14-14S4 6.3 4 14" stroke-linecap="round"/><path stroke="#B5A7DD" stroke-width="2" d="M33 15v13c0 4.4-3.6 8-8 8" stroke-linecap="round"/><rect width="7" height="4" x="20" y="34" fill="#6B4FBB" rx="2"/><rect width="7" height="13" y="15" fill="#FFF" stroke="#6B4FBB" stroke-width="3" stroke-linejoin="round" rx="3.5"/><rect width="7" height="13" x="29" y="15" fill="#FFF" stroke="#6B4FBB" stroke-width="3" stroke-linejoin="round" transform="matrix(-1 0 0 1 65 0)" rx="3.5"/></g><rect width="50" height="4" x="18" y="95" fill="#E5E5E5" rx="2"/><rect width="38" height="4" x="24" y="107" fill="#E5E5E5" rx="2"/><use stroke="#E5E5E5" stroke-width="8" mask="url(#h)" stroke-linecap="round" xlink:href="#d"/><path stroke="#EEE" stroke-width="4" d="M43 75S50 0 0 0" stroke-linecap="round"/></g><circle cx="193" cy="47" r="12" fill="#FFF" stroke="#FDE5D8" stroke-width="4"/><circle cx="193" cy="47" r="5" fill="#FFF" stroke="#FDE5D8" stroke-width="4"/><g opacity=".2"><path fill="#FC8A51" d="M30.7 254.8l-2.6 1c-1 .5-1.7 0-1.7-1v-3l-1-2.7c-.4-1 .2-1.7 1.2-1.7h3l2.6-1c1.2-.4 2 .2 2 1.2l-.2 3 1 2.6c.5 1.2 0 2-1 2l-3-.2zm344-121l-2.6 1c-1 .5-1.7 0-1.7-1v-3l-1-2.7c-.4-1 .2-1.7 1.2-1.7h3l2.6-1c1.2-.4 2 .2 2 1.2l-.2 3 1 2.6c.5 1.2 0 2-1 2l-3-.2zM5.6 95H1.8c-1.3.2-2-.8-1.4-2l1.4-3.4-.2-3.8c0-1.3 1-2 2-1.4l3.6 1.4 3.7-.2c1.2 0 2 1 1.4 2L11 91.3V95c.2 1.2-.8 2-2 1.4L5.6 95z"/><path fill="#6B4FBB" d="M308.8 62l-2-2.3c-.7-.8-.5-1.7.6-2l2.8-1 2-2c1-.6 1.8-.4 2.2.7l.8 2.8 2 2c.8 1 .5 1.8-.5 2.2l-2.8.8-2.3 2c-.8.8-1.7.5-2-.5l-1-2.8zm9.2 164.6h-3c-1-.2-1.4-1-1-2l1.4-2.5v-3c.2-1 1-1.4 2-1l2.6 1.4h3c1 .2 1.5 1 1 2l-1.4 2.6v3c-.2 1-1 1.5-2 1l-2.5-1.4zM121.8 8l-2-2.3c-.7-.8-.5-1.7.6-2l2.8-1 2-2c1-.6 1.8-.4 2.2.7l.8 2.8 2 2c.8 1 .5 1.8-.5 2.2l-2.8.8-2.3 2c-.8.8-1.7.5-2-.5l-1-2.8z"/></g></g></svg>