<svg xmlns="http://www.w3.org/2000/svg" width="78" height="82" viewBox="0 0 78 82"><g fill="none" fill-rule="evenodd"><circle cx="39" cy="45" r="37" fill="#F9F9F9"/><circle cx="39" cy="39" r="37" fill="#FFF"/><path fill="#EEE" fill-rule="nonzero" d="M39 78C17.46 78 0 60.54 0 39S17.46 0 39 0s39 17.46 39 39-17.46 39-39 39zm0-4c19.33 0 35-15.67 35-35S58.33 4 39 4 4 19.67 4 39s15.67 35 35 35z"/><path fill="#E1DBF1" fill-rule="nonzero" d="M30 35a4 4 0 0 0-4 4v10a4 4 0 0 0 4 4h18a4 4 0 0 0 4-4V39a4 4 0 0 0-4-4H30zm0-4h18a8 8 0 0 1 8 8v10a8 8 0 0 1-8 8H30a8 8 0 0 1-8-8V39a8 8 0 0 1 8-8z"/><path fill="#6B4FBB" d="M33 29v2h-4v-2c0-5.523 4.477-10 10-10a9.996 9.996 0 0 1 10 10v2h-4v-2a5.997 5.997 0 0 0-6-6 6 6 0 0 0-6 6zm5 13.732a2 2 0 1 1 2 0V44a1 1 0 0 1-2 0v-1.268z"/></g></svg>