<svg xmlns="http://www.w3.org/2000/svg" viewBox="0 0 398 151" xmlns:xlink="http://www.w3.org/1999/xlink"><g fill="none" fill-rule="evenodd"><path fill="#fef0e8" stroke="#fc6d26" stroke-width="4" d="M57.7 106.5h21.6a4.2 4.2 0 0 1 4.2 4.2v5.6a4.2 4.2 0 0 1-4.2 4.2H57.7a4.2 4.2 0 0 1-4.2-4.2v-5.6a4.2 4.2 0 0 1 4.2-4.2"/><g transform="translate(42 117)"><rect width="52" height="23" x=".5" y=".5" fill="#fff" stroke="#eee" stroke-width="4" rx="4.2"/><g fill="#fdc4a8"><rect width="11" height="2" x="8" y="8" rx="1"/><rect width="11" height="2" x="8" y="14" rx="1"/></g></g><g fill-rule="nonzero"><path fill="#e1dbf1" d="M96.31 132.32c1.048 0 1.648.007 4.319.042 11.523.153 18.377-.12 26.32-1.533 24.23-4.309 38.521-18.02 38.521-45.03 0-31.02 21.885-44.487 66.903-40.522l.351-3.985c-47.09-4.147-71.25 10.727-71.25 44.507 0 24.868-12.746 37.1-35.22 41.09-7.623 1.356-14.284 1.621-25.567 1.471a287.717 287.717 0 0 0-4.372-.042v4"/><path fill="#eee" d="M242 57.678c-6.29-1.373-11-6.976-11-13.678 0-6.702 4.71-12.304 11-13.678v4.136c-4.057 1.274-7 5.065-7 9.542 0 4.478 2.943 8.268 7 9.542v4.136"/></g><g transform="translate(242)"><rect width="116" height="134" y="7" fill="#f9f9f9" rx="10"/><rect width="116" height="134" x="5" y="2" fill="#fff" rx="10"/><path fill="#eee" fill-rule="nonzero" d="M15 4a8 8 0 0 0-8 8v114a8 8 0 0 0 8 8h96a8 8 0 0 0 8-8V12a8 8 0 0 0-8-8H15m0-4h96c6.627 0 12 5.373 12 12v114c0 6.627-5.373 12-12 12H15c-6.627 0-12-5.373-12-12V12C3 5.373 8.373 0 15 0"/><g transform="translate(23 25)"><g fill="#e1dbf1"><rect width="16" height="4" rx="2"/><rect width="16" height="4" x="32" y="12" rx="2"/></g><rect width="16" height="4" x="44" fill="#eee" rx="2"/><rect width="16" height="4" x="12" y="24" fill="#e1dbf1" rx="2"/><rect width="16" height="4" x="64" y="36" fill="#fef0e8" rx="2"/><rect width="8" height="4" x="20" fill="#fee1d3" rx="2" id="a"/><rect width="8" height="4" x="32" y="36" fill="#fc6d26" rx="2"/><rect width="8" height="4" x="52" y="12" fill="#fef0e8" rx="2"/><rect width="8" height="4" x="64" fill="#fef0e8" rx="2" id="b"/><rect width="12" height="4" x="16" y="48" fill="#e1dbf1" rx="2"/><rect width="8" height="4" x="44" y="36" fill="#fc6d26" rx="2"/><g fill="#e1dbf1"><rect width="4" height="4" x="56" y="36" rx="2"/><rect width="4" height="4" x="64" y="60" rx="2"/></g><rect width="4" height="4" x="72" y="60" fill="#fc6d26" rx="2"/><rect width="8" height="4" x="32" fill="#fc6d26" rx="2" id="c"/><g fill="#eee"><rect width="28" height="4" y="36" rx="2"/><rect width="28" height="4" x="44" y="48" rx="2"/></g><rect width="28" height="4" x="32" y="60" fill="#efedf8" rx="2"/><rect width="28" height="4" y="12" fill="#6b4fbb" rx="2"/><rect width="28" height="4" x="32" y="24" fill="#c3b8e3" rx="2"/><rect width="8" height="4" y="24" fill="#fef0e8" rx="2"/><rect width="8" height="4" x="32" y="48" fill="#6b4fbb" rx="2"/><rect width="12" height="4" y="48" fill="#fc6d26" rx="2"/><g fill="#fef0e8"><rect width="12" height="4" y="60" rx="2"/><rect width="12" height="4" x="16" y="60" rx="2"/></g><g transform="translate(0 72)"><rect width="16" height="4" fill="#efedf8" rx="2"/><rect width="16" height="4" x="18" y="12" fill="#fc6d26" rx="2"/><rect width="16" height="4" x="44" fill="#6b4fbb" rx="2"/><use xlink:href="#a"/><rect width="8" height="4" x="38" y="12" fill="#fef0e8" rx="2"/><use xlink:href="#b"/><use xlink:href="#c"/><rect width="14" height="4" y="12" fill="#eee" rx="2"/></g></g></g><g transform="translate(330 83)"><circle cx="33" cy="33" r="33" fill="#fff"/><g fill-rule="nonzero"><path fill="#eee" d="M33 68C13.67 68-2 52.33-2 33S13.67-2 33-2s35 15.67 35 35-15.67 35-35 35m0-4c17.12 0 31-13.879 31-31C64 15.88 50.121 2 33 2 15.88 2 2 15.879 2 33c0 17.12 13.879 31 31 31"/><path fill="#6b4fbb" stroke="#6b4fbb" stroke-width=".968" d="M42.383 34.655v-3.308l-2.112-.343c-.116-.456-.351-.913-.703-1.598l1.29-1.711-2.463-2.398-1.76 1.256a6.347 6.347 0 0 0-1.642-.684l-.233-2.055h-3.401l-.352 2.055c-.586.114-1.055.342-1.642.684l-1.76-1.255-2.463 2.397 1.173 1.711c-.352.57-.469 1.027-.704 1.598l-1.995.228v3.31l2.112.342c.116.57.351 1.027.703 1.598l-1.172 1.712 2.463 2.397 1.759-1.141c.469.227 1.056.456 1.642.684l.352 2.055h3.518l.352-2.055c.586-.114 1.055-.342 1.642-.684l1.76 1.255 2.463-2.397-1.29-1.712a6.03 6.03 0 0 0 .703-1.598l1.76-.344M33 36.367c-1.994 0-3.519-1.484-3.519-3.424 0-1.941 1.525-3.424 3.519-3.424 1.994 0 3.519 1.483 3.519 3.424 0 1.94-1.525 3.424-3.519 3.424" stroke-linecap="round" stroke-linejoin="bevel"/><path fill="#e1dbf1" d="M33 53.563c-11.598 0-21-9.206-21-20.563s9.402-20.563 21-20.563S54 21.643 54 33s-9.402 20.563-21 20.563m0-4.375c9.13 0 16.532-7.248 16.532-16.188 0-8.94-7.402-16.188-16.532-16.188-9.13 0-16.532 7.248-16.532 16.188 0 8.94 7.402 16.188 16.532 16.188"/></g></g><path fill="#fff" d="M164 114c14.912 0 27-12.09 27-27 0-14.912-12.09-27-27-27-14.912 0-27 12.09-27 27 0 14.912 12.09 27 27 27"/><g fill-rule="nonzero"><path fill="#eee" d="M164 118c-17.12 0-31-13.879-31-31 0-17.12 13.879-31 31-31 17.12 0 31 13.879 31 31 0 17.12-13.879 31-31 31m0-4c14.912 0 27-12.09 27-27 0-14.912-12.09-27-27-27-14.912 0-27 12.09-27 27 0 14.912 12.09 27 27 27"/><path fill="#fc0" d="M172.78 80.798c.241.268.288.563.14.884l-10.848 23.24c-.174.334-.455.502-.843.502-.054 0-.148-.014-.282-.04a.855.855 0 0 1-.512-.382.761.761 0 0 1-.09-.603l3.957-16.232-8.156 2.03a1.08 1.08 0 0 1-.241.02.93.93 0 0 1-.623-.222c-.24-.2-.328-.462-.26-.783l4.04-16.574a.858.858 0 0 1 .321-.462.917.917 0 0 1 .563-.18h6.59c.254 0 .468.083.642.25a.797.797 0 0 1 .261.593.818.818 0 0 1-.1.362l-3.435 9.301 7.955-1.969c.107-.027.187-.04.241-.04.254 0 .482.1.683.301"/></g><g><path fill="#eee" fill-rule="nonzero" d="M37.801 99.01l5.355 2.648c2.271 1.122 4.643-.252 4.809-2.778l.487-7.546a27.675 27.675 0 0 0 2.87-4.076c7.594-13.152 3.088-29.972-10.07-37.565-13.153-7.594-29.971-3.087-37.566 10.07-7.594 13.154-3.087 29.973 10.07 37.565a27.46 27.46 0 0 0 24.05 1.687m.952-3.992a2.002 2.002 0 0 0-1.698-.035 23.454 23.454 0 0 1-21.299-1.124c-11.24-6.488-15.09-20.86-8.602-32.1 6.49-11.239 20.862-15.09 32.1-8.601 11.239 6.489 15.09 20.862 8.6 32.1a23.519 23.519 0 0 1-2.849 3.939 1.995 1.995 0 0 0-.504 1.204l-.466 7.229-5.285-2.613"/><path fill="#fdc4a8" d="M21.137 70.471A7.495 7.495 0 0 0 27.5 74c2.684 0 5.04-1.41 6.363-3.529C36.377 71.869 38 74.267 38 77.674c0 5.799-2.739 9.587-10.5 9.587S17 83.473 17 77.674c0-3.407 1.622-5.804 4.137-7.203M27.5 72a5.5 5.5 0 1 1 0-11 5.5 5.5 0 1 1 0 11"/></g></g></svg>