<svg xmlns="http://www.w3.org/2000/svg" width="374" height="268" xmlns:xlink="http://www.w3.org/1999/xlink"><defs><circle id="a" cx="44" cy="44" r="44"/><circle id="b" cx="31" cy="31" r="31"/><circle id="c" cx="35" cy="35" r="35"/><rect id="d" width="230" height="176" rx="10"/><circle id="e" cx="31" cy="31" r="31"/></defs><g fill="none" fill-rule="evenodd"><g transform="translate(4 98)"><circle cx="53" cy="53" r="44" fill="#F9F9F9"/><g transform="translate(6 6)"><use fill="#FFF" xlink:href="#a"/><circle cx="44" cy="44" r="42" stroke="#EEE" stroke-width="4"/><path fill="#FEE1D3" fill-rule="nonzero" d="M34.394 55.736A4 4 0 0 1 36.706 55H56a6 6 0 0 0 6-6V35a6 6 0 0 0-6-6H34a6 6 0 0 0-6 6v25.265l6.394-4.53zM36.706 59l-7.972 5.647A3 3 0 0 1 24 62.199V35c0-5.523 4.477-10 10-10h22c5.523 0 10 4.477 10 10v14c0 5.523-4.477 10-10 10H36.706z"/><path fill="#FC6D26" d="M38 40a2 2 0 1 1 0 4 2 2 0 0 1 0-4zm7 0a2 2 0 1 1 0 4 2 2 0 0 1 0-4zm7 0a2 2 0 1 1 0 4 2 2 0 0 1 0-4z"/></g></g><g transform="translate(50 2)"><circle cx="39" cy="39" r="31" fill="#F9F9F9"/><g transform="translate(5 5)"><use fill="#FFF" xlink:href="#b"/><circle cx="31" cy="31" r="29" stroke="#EEE" stroke-width="4"/><rect width="20" height="4" x="21" y="29" fill="#6B4FBB" rx="2"/></g></g><path fill="#F9F9F9" d="M235.58 229H102c-6.627 0-12-5.373-12-12V65c0-6.627 5.373-12 12-12h206c6.627 0 12 5.373 12 12v18.399A34.842 34.842 0 0 1 337 79c19.33 0 35 15.67 35 35s-15.67 35-35 35a34.842 34.842 0 0 1-17-4.399V217c0 6.627-5.373 12-12 12h-11.58c.38 1.941.58 3.947.58 6 0 17.12-13.88 31-31 31s-31-13.88-31-31c0-2.053.2-4.059.58-6z"/><g transform="translate(87 50)"><g transform="translate(212 26)"><use fill="#FFF" xlink:href="#c"/><circle cx="35" cy="35" r="33" stroke="#EEE" stroke-width="4"/><g transform="translate(20 19)"><circle cx="15" cy="16" r="15" fill="#F4F1FA" stroke="#6B4FBB" stroke-width="3"/><path fill="#6B4FBB" d="M19.419 6.996h-.007L16.959 4l-2.454 2.997h-.006L12.045 4 9.59 6.998h-.003L7.132 4 4.676 7H2c2.605-4.204 7.23-7 12.502-7C19.771 0 24.394 2.793 27 6.994h-2.676L21.872 4l-2.453 2.996z"/><circle cx="9.5" cy="17.5" r="1.5" fill="#6B4FBB"/><circle cx="20.5" cy="17.5" r="1.5" fill="#6B4FBB"/></g></g><use fill="#FFF" xlink:href="#d"/><rect width="226" height="172" x="2" y="2" stroke="#EEE" stroke-width="4" rx="10"/><rect width="4" height="122" x="33" y="42" fill="#EEE" rx="2"/><g transform="translate(13 59)"><rect width="10" height="4" fill="#FEE1D3" rx="2"/><rect width="10" height="4" y="12" fill="#F0EDF8" rx="2"/><rect width="10" height="4" y="24" fill="#FEF0E9" rx="2"/><rect width="10" height="4" y="36" fill="#FEE1D3" rx="2"/><rect width="10" height="4" y="48" fill="#E1DBF1" rx="2"/><rect width="10" height="4" y="60" fill="#F0EDF8" rx="2"/><rect width="10" height="4" y="72" fill="#FEF0E9" rx="2"/><rect width="10" height="4" y="84" fill="#FEE1D3" rx="2"/></g><g transform="translate(55 59)"><rect width="14" height="4" fill="#6B4FBB" rx="2"/><rect width="14" height="4" x="20" fill="#F0EDF8" rx="2"/><rect width="14" height="4" x="40" fill="#FEF0E9" rx="2"/><rect width="14" height="4" y="12" fill="#F0EDF8" rx="2"/><rect width="14" height="4" x="40" y="24" fill="#FEF0E9" rx="2"/><rect width="14" height="4" y="48" fill="#E1DBF1" rx="2"/><rect width="14" height="4" x="40" y="36" fill="#FEF0E9" rx="2"/><rect width="7" height="4" x="20" y="12" fill="#FEE1D3" rx="2"/><rect width="7" height="4" x="27" y="36" fill="#6B4FBB" rx="2"/><rect width="7" height="4" x="20" y="48" fill="#FEE1D3" rx="2"/><rect width="7" height="4" y="24" fill="#FC6D26" rx="2"/><rect width="21" height="4" x="13" y="24" fill="#E1DBF1" rx="2"/><rect width="21" height="4" y="36" fill="#EEE" rx="2"/><rect width="7" height="4" x="33" y="12" fill="#6B4FBB" rx="2"/><g transform="translate(98)"><rect width="14" height="4" fill="#FEE1D3" rx="2"/><rect width="14" height="4" x="20" fill="#F0EDF8" rx="2"/><rect width="14" height="4" x="40" fill="#FC6D26" rx="2"/><rect width="14" height="4" y="12" fill="#FEF0E9" rx="2"/><rect width="14" height="4" x="40" y="24" fill="#E1DBF1" rx="2"/><rect width="14" height="4" y="48" fill="#F0EDF8" rx="2"/><rect width="14" height="4" x="40" y="36" fill="#FEE1D3" rx="2"/><rect width="7" height="4" x="20" y="12" fill="#FC6D26" rx="2"/><rect width="7" height="4" x="27" y="36" fill="#6B4FBB" rx="2"/><rect width="7" height="4" x="20" y="48" fill="#FC6D26" rx="2"/><rect width="7" height="4" y="24" fill="#6B4FBB" rx="2"/><rect width="21" height="4" x="13" y="24" fill="#FEE1D3" rx="2"/><rect width="21" height="4" y="36" fill="#FEF0E9" rx="2"/><rect width="7" height="4" x="33" y="12" fill="#6B4FBB" rx="2"/></g><g transform="translate(0 60)"><rect width="14" height="4" fill="#F0EDF8" rx="2"/><rect width="14" height="4" x="20" fill="#6B4FBB" rx="2"/><rect width="14" height="4" x="40" fill="#E1DBF1" rx="2"/><rect width="14" height="4" y="12" fill="#FEF0E9" rx="2"/><rect width="14" height="4" x="40" y="24" fill="#FEE1D3" rx="2"/><rect width="7" height="4" x="20" y="12" fill="#EEE" rx="2"/><rect width="7" height="4" y="24" fill="#6B4FBB" rx="2"/><rect width="21" height="4" x="13" y="24" fill="#FEF0E9" rx="2"/><rect width="7" height="4" x="33" y="12" fill="#FC6D26" rx="2"/></g><rect width="4" height="63" x="74" y="13" fill="#EEE" rx="2"/></g><rect width="230" height="4" y="27" fill="#EEE" rx="2"/></g><g transform="translate(233 201)"><use fill="#FFF" xlink:href="#e"/><circle cx="31" cy="31" r="29" stroke="#EEE" stroke-width="4"/><path fill="#FC6D26" d="M29 29v-6a2 2 0 1 1 4 0v6h6a2 2 0 1 1 0 4h-6v6a2 2 0 1 1-4 0v-6h-6a2 2 0 1 1 0-4h6z"/></g></g></svg>