<svg xmlns="http://www.w3.org/2000/svg" viewBox="0 0 374 268" xmlns:xlink="http://www.w3.org/1999/xlink"><defs><rect id="d" width="230" height="176" rx="10" fill="#fff"/><rect id="e" width="14" rx="2" height="4"/><rect id="f" width="14" x="40" rx="2" height="4"/><rect id="g" width="14" x="40" y="24" rx="2" height="4"/><rect id="h" width="7" x="20" y="12" rx="2" height="4"/><rect id="i" width="7" y="24" rx="2" height="4"/><rect id="j" width="7" x="33" y="12" rx="2" height="4"/><circle id="l" cx="31" cy="31" r="31"/><circle id="c" cx="35" cy="35" r="35"/><circle id="a" cx="44" cy="44" r="44"/><circle id="b" cx="31" cy="31" r="31"/></defs><g fill="none" fill-rule="evenodd"><g transform="translate(0 94)"><circle cx="57" cy="57" r="44" fill="#f9f9f9"/><g transform="rotate(-7.999 120.507 -22.508)"><use fill="#fff" xlink:href="#a"/><circle cx="44" cy="44" r="42" stroke="#eee" stroke-width="4"/><path fill="#fee1d3" fill-rule="nonzero" d="M34.394 55.736A4 4 0 0 1 36.706 55H56a6 6 0 0 0 6-6V35a6 6 0 0 0-6-6H34a6 6 0 0 0-6 6v25.26l6.394-4.529m2.312 3.264l-7.972 5.647A3.001 3.001 0 0 1 24 62.194v-27.2c0-5.523 4.477-10 10-10h22c5.523 0 10 4.477 10 10v14c0 5.523-4.477 10-10 10H36.706"/><path fill="#fc6d26" d="M38 40a2 2 0 1 1 .001 3.999A2 2 0 0 1 38 40m7 0a2 2 0 1 1 .001 3.999A2 2 0 0 1 45 40m7 0a2 2 0 1 1 .001 3.999A2 2 0 0 1 52 40"/></g></g><g transform="translate(48)"><circle cx="41" cy="41" r="31" fill="#f9f9f9"/><g transform="rotate(-7.999 84.554 -15.551)"><use fill="#fff" xlink:href="#b"/><circle cx="31" cy="31" r="29" stroke="#eee" stroke-width="4"/><rect width="20" height="4" x="21" y="29" fill="#6b4fbb" rx="2"/></g></g><path fill="#f9f9f9" d="M235.58 229H102c-6.627 0-12-5.373-12-12V65c0-6.627 5.373-12 12-12h206c6.627 0 12 5.373 12 12v18.399A34.834 34.834 0 0 1 337 79c19.33 0 35 15.67 35 35s-15.67 35-35 35a34.831 34.831 0 0 1-17-4.399v72.4c0 6.627-5.373 12-12 12h-11.58c.381 1.941.58 3.947.58 6 0 17.12-13.879 31-31 31-17.12 0-31-13.879-31-31 0-2.053.2-4.059.58-6"/><g transform="translate(87 50)"><g transform="rotate(7.999 -44.933 1563.894)"><use fill="#fff" xlink:href="#c"/><circle cx="35" cy="35" r="33" stroke="#eee" stroke-width="4"/><g transform="translate(20 19)"><circle cx="15" cy="16" r="15" fill="#f4f1fa" stroke="#6b4fbb" stroke-width="3"/><g fill="#6b4fbb"><path d="M19.419 6.996h-.007L16.959 4l-2.454 2.997H14.5L12.046 4 9.591 6.998h-.003L7.133 4 4.677 6.999H2.001c2.605-4.204 7.231-7 12.502-7 5.269 0 9.892 2.793 12.498 6.994h-2.676l-2.452-2.994-2.453 2.996"/><circle cx="9.5" cy="17.5" r="1.5"/><circle cx="20.5" cy="17.5" r="1.5"/></g></g></g><use xlink:href="#d"/><rect width="226" height="172" x="2" y="2" stroke="#eee" stroke-width="4" rx="10"/><rect width="4" height="122" x="33" y="42" fill="#eee" rx="2"/><g transform="translate(13 59)"><rect width="10" height="4" fill="#fee1d3" rx="2"/><rect width="10" height="4" y="12" fill="#f0edf8" rx="2"/><rect width="10" height="4" y="24" fill="#fef0e9" rx="2"/><rect width="10" height="4" y="36" fill="#fee1d3" rx="2"/><rect width="10" height="4" y="48" fill="#e1dbf1" rx="2"/><rect width="10" height="4" y="60" fill="#f0edf8" rx="2"/><rect width="10" height="4" y="72" fill="#fef0e9" rx="2"/><rect width="10" height="4" y="84" fill="#fee1d3" rx="2"/></g><g transform="translate(55 59)"><use fill="#6b4fbb" xlink:href="#e"/><rect width="14" height="4" x="20" fill="#f0edf8" rx="2"/><use fill="#fef0e9" xlink:href="#f"/><rect width="14" height="4" y="12" fill="#f0edf8" rx="2"/><use fill="#fef0e9" xlink:href="#g"/><rect width="14" height="4" y="48" fill="#e1dbf1" rx="2"/><rect width="14" height="4" x="40" y="36" fill="#fef0e9" rx="2"/><use fill="#fee1d3" xlink:href="#h"/><rect width="7" height="4" x="27" y="36" fill="#6b4fbb" rx="2"/><rect width="7" height="4" x="20" y="48" fill="#fee1d3" rx="2"/><use fill="#fc6d26" xlink:href="#i"/><rect width="21" height="4" x="13" y="24" fill="#e1dbf1" rx="2"/><rect width="21" height="4" y="36" fill="#eee" rx="2"/><use fill="#6b4fbb" xlink:href="#j"/><g transform="translate(98)"><use fill="#fee1d3" xlink:href="#e"/><rect width="14" height="4" x="20" fill="#f0edf8" rx="2"/><use fill="#fc6d26" xlink:href="#f"/><rect width="14" height="4" y="12" fill="#fef0e9" rx="2" id="k"/><use fill="#e1dbf1" xlink:href="#g"/><rect width="14" height="4" y="48" fill="#f0edf8" rx="2"/><rect width="14" height="4" x="40" y="36" fill="#fee1d3" rx="2"/><use fill="#fc6d26" xlink:href="#h"/><rect width="7" height="4" x="27" y="36" fill="#6b4fbb" rx="2"/><rect width="7" height="4" x="20" y="48" fill="#fc6d26" rx="2"/><use fill="#6b4fbb" xlink:href="#i"/><rect width="21" height="4" x="13" y="24" fill="#fee1d3" rx="2"/><rect width="21" height="4" y="36" fill="#fef0e9" rx="2"/><use fill="#6b4fbb" xlink:href="#j"/></g><g transform="translate(0 60)"><use fill="#f0edf8" xlink:href="#e"/><rect width="14" height="4" x="20" fill="#6b4fbb" rx="2"/><use fill="#e1dbf1" xlink:href="#f"/><use xlink:href="#k"/><use fill="#fee1d3" xlink:href="#g"/><use fill="#eee" xlink:href="#h"/><use fill="#6b4fbb" xlink:href="#i"/><rect width="21" height="4" x="13" y="24" fill="#fef0e9" rx="2"/><use fill="#fc6d26" xlink:href="#j"/></g><rect width="4" height="63" x="74" y="13" fill="#eee" rx="2"/></g><rect width="230" height="4" y="27" fill="#eee" rx="2"/></g><g transform="rotate(7.999 -1289.786 1797.583)"><use fill="#fff" xlink:href="#l"/><circle cx="31" cy="31" r="29" stroke="#eee" stroke-width="4"/><path fill="#fc6d26" d="M29 29h-6a2 2 0 1 0 0 4h6v6a2 2 0 1 0 4 0v-6h6a2 2 0 1 0 0-4h-6v-6a2 2 0 1 0-4 0v6"/></g></g></svg>