<svg xmlns="http://www.w3.org/2000/svg" viewBox="755 221 385 225" xmlns:xlink="http://www.w3.org/1999/xlink"><defs><rect id="a" width="278" height="179" rx="10"/><mask id="d" width="278" height="179" x="0" y="0" fill="#fff"><use xlink:href="#a"/></mask><path id="b" d="M13.6 49H57c5.5 0 10-4.5 10-10V10c0-5.5-4.5-10-10-10H10C4.5 0 0 4.5 0 10v42c0 5.5 3.2 7 7.2 3l6.4-6z"/><mask id="e" width="67" height="57.2" x="0" y="0" fill="#fff"><use xlink:href="#b"/></mask><path id="c" d="M13.6 49H57c5.5 0 10-4.5 10-10V10c0-5.5-4.5-10-10-10H10C4.5 0 0 4.5 0 10v42c0 5.5 3.2 7 7.2 3l6.4-6z"/><mask id="f" width="67" height="57.2" x="0" y="0" fill="#fff"><use xlink:href="#c"/></mask></defs><g fill="none" fill-rule="evenodd"><g fill="#F9F9F9" transform="translate(752 227)"><rect width="120" height="22" x="30" rx="11"/><rect width="132" height="22" y="44" rx="11"/><rect width="190" height="22" x="208" y="66" rx="11"/><rect width="158" height="22" x="129" y="197" rx="11"/><rect width="158" height="22" x="66" y="154" rx="11"/><rect width="350" height="22" x="31" y="110" rx="11"/><path d="M153 22H21h21.5c6 0 11 5 11 11s-5 11-11 11H21h132-36.5c-6 0-11-5-11-11s5-11 11-11H153zm252 66H288h36.5c6 0 11 5 11 11s-5 11-11 11H288h117-36.5c-6 0-11-5-11-11s5-11 11-11H405zm-244 44H44h36.5c6 0 11 5 11 11s-5 11-11 11H44h117-36.5c-6 0-11-5-11-11s5-11 11-11H161zm75 44H119h21.5c6 0 11 5 11 11s-5 11-11 11H119h117-51.5c-6 0-11-5-11-11s5-11 11-11H236z"/></g><g transform="translate(812 240)"><use fill="#FFF" stroke="#EEE" stroke-width="8" mask="url(#d)" xlink:href="#a"/><path fill="#EEE" d="M4 29h271v4H4z"/><g transform="translate(34 60)"><rect width="6" height="2" y="1" fill="#B5A7DD" rx="1"/><rect width="15" height="4" x="15" fill="#EEE" rx="2"/><rect width="15" height="4" x="72" fill="#EEE" rx="2"/><rect width="15" height="4" x="39" y="22" fill="#EEE" rx="2"/><rect width="15" height="4" x="53" y="11" fill="#FC6D26" rx="2"/><rect width="20" height="4" x="48" fill="#FC6D26" opacity=".5" rx="2"/><rect width="20" height="4" x="15" y="22" fill="#EEE" rx="2"/><rect width="20" height="4" x="29" y="11" fill="#EEE" rx="2"/><rect width="10" height="4" x="34" fill="#FC6D26" rx="2"/><rect width="10" height="4" x="15" y="11" fill="#EEE" rx="2"/><rect width="6" height="2" y="12" fill="#B5A7DD" rx="1"/><rect width="6" height="2" y="23" fill="#B5A7DD" rx="1"/></g><g transform="translate(34 93)"><rect width="6" height="2" y="1" fill="#B5A7DD" rx="1"/><rect width="15" height="4" x="15" fill="#FC6D26" rx="2"/><rect width="15" height="4" x="72" fill="#EEE" rx="2"/><rect width="15" height="4" x="39" y="22" fill="#FC6D26" opacity=".5" rx="2"/><rect width="15" height="4" x="53" y="11" fill="#EEE" rx="2"/><rect width="20" height="4" x="48" fill="#FC6D26" rx="2"/><rect width="20" height="4" x="15" y="22" fill="#FC6D26" rx="2"/><rect width="20" height="4" x="29" y="11" fill="#EEE" rx="2"/><rect width="10" height="4" x="34" fill="#FC6D26" opacity=".5" rx="2"/><rect width="10" height="4" x="15" y="11" fill="#EEE" rx="2"/><rect width="6" height="2" y="12" fill="#B5A7DD" rx="1"/><rect width="6" height="2" y="23" fill="#B5A7DD" rx="1"/></g><g transform="translate(34 126)"><rect width="6" height="2" y="1" fill="#B5A7DD" rx="1"/><rect width="15" height="4" x="15" fill="#EEE" rx="2"/><rect width="15" height="4" x="72" fill="#EEE" rx="2"/><rect width="15" height="4" x="39" y="22" fill="#EEE" rx="2"/><rect width="15" height="4" x="53" y="11" fill="#EEE" rx="2"/><rect width="20" height="4" x="48" fill="#FC6D26" rx="2"/><rect width="20" height="4" x="15" y="22" fill="#EEE" rx="2"/><rect width="20" height="4" x="29" y="11" fill="#EEE" rx="2"/><rect width="10" height="4" x="34" fill="#FC6D26" opacity=".5" rx="2"/><rect width="10" height="4" x="15" y="11" fill="#EEE" rx="2"/><rect width="6" height="2" y="12" fill="#B5A7DD" rx="1"/><rect width="6" height="2" y="23" fill="#B5A7DD" rx="1"/></g><g transform="translate(157 59)"><rect width="6" height="2" y="1" fill="#FDE5D8" rx="1"/><rect width="15" height="4" x="15" fill="#EEE" rx="2"/><rect width="15" height="4" x="72" fill="#EEE" rx="2"/><rect width="15" height="4" x="39" y="22" fill="#6B4FBB" opacity=".5" rx="2"/><rect width="15" height="4" x="53" y="11" fill="#6B4FBB" rx="2"/><rect width="20" height="4" x="48" fill="#6B4FBB" opacity=".5" rx="2"/><rect width="20" height="4" x="15" y="22" fill="#6B4FBB" rx="2"/><rect width="20" height="4" x="29" y="11" fill="#EEE" rx="2"/><rect width="10" height="4" x="34" fill="#6B4FBB" rx="2"/><rect width="10" height="4" x="15" y="11" fill="#EEE" rx="2"/><rect width="6" height="2" y="12" fill="#FDE5D8" rx="1"/><rect width="6" height="2" y="23" fill="#FDE5D8" rx="1"/><rect width="6" height="2" y="34" fill="#FDE5D8" rx="1"/><rect width="15" height="4" x="15" y="33" fill="#EEE" rx="2"/><rect width="15" height="4" x="58" y="22" fill="#EEE" rx="2"/><rect width="15" height="4" x="39" y="55" fill="#6B4FBB" opacity=".5" rx="2"/><rect width="15" height="4" x="29" y="44" fill="#6B4FBB" rx="2"/><rect width="20" height="4" x="48" y="33" fill="#6B4FBB" rx="2"/><rect width="20" height="4" x="15" y="55" fill="#EEE" rx="2"/><rect width="10" height="4" x="34" y="33" fill="#EEE" rx="2"/><rect width="10" height="4" x="15" y="44" fill="#EEE" rx="2"/><rect width="10" height="4" x="48" y="44" fill="#EEE" rx="2"/><rect width="10" height="4" x="62" y="44" fill="#EEE" rx="2"/><rect width="10" height="4" x="77" y="22" fill="#EEE" rx="2"/><rect width="6" height="2" y="45" fill="#FDE5D8" rx="1"/><rect width="6" height="2" y="56" fill="#FDE5D8" rx="1"/><rect width="6" height="2" y="67" fill="#FDE5D8" rx="1"/><rect width="15" height="4" x="15" y="66" fill="#6B4FBB" rx="2"/><rect width="15" height="4" x="39" y="88" fill="#EEE" rx="2"/><rect width="15" height="4" x="53" y="77" fill="#6B4FBB" opacity=".5" rx="2"/><rect width="20" height="4" x="15" y="88" fill="#EEE" rx="2"/><rect width="20" height="4" x="29" y="77" fill="#6B4FBB" rx="2"/><rect width="10" height="4" x="34" y="66" fill="#EEE" rx="2"/><rect width="10" height="4" x="72" y="77" fill="#EEE" rx="2"/><rect width="10" height="4" x="15" y="77" fill="#EEE" rx="2"/><rect width="6" height="2" y="78" fill="#FDE5D8" rx="1"/><rect width="6" height="2" y="89" fill="#FDE5D8" rx="1"/></g></g><g transform="translate(1057 221)"><use fill="#FFF" stroke="#FDE5D8" stroke-width="8" mask="url(#e)" xlink:href="#b"/><rect width="29" height="3" x="14" y="14" fill="#FDB692" rx="1.5"/><rect width="39" height="3" x="14" y="23" fill="#FDB692" rx="1.5"/><rect width="29" height="3" x="14" y="32" fill="#FDB692" rx="1.5"/></g><g transform="translate(1046 285)"><circle cx="16" cy="15" r="15" fill="#FFF7F4" stroke="#FC6D26" stroke-width="3"/><path stroke="#FC6D26" stroke-width="2" d="M0 14h1c5 0 9.2-2.7 11.4-6.7M14 1V0"/><path stroke="#FC6D26" stroke-width="2" d="M7.8 3c3 4.3 7.8 7 13.2 7 3.3 0 6.3-1 9-2.7"/><circle cx="10.5" cy="17.5" r="1.5" fill="#FC6D26"/><circle cx="21.5" cy="17.5" r="1.5" fill="#FC6D26"/></g><g transform="translate(825 370)"><circle cx="15" cy="16" r="15" fill="#F4F1FA" stroke="#6B4FBB" stroke-width="3"/><path fill="#6B4FBB" d="M25 7h2.7C25 2.8 20.4 0 15 0 9.6 0 5 2.8 2.3 7H5l2.5-3L10 7l2.5-3L15 7l2.5-3L20 7l2.5-3L25 7z"/><circle cx="9.5" cy="17.5" r="1.5" fill="#6B4FBB"/><circle cx="20.5" cy="17.5" r="1.5" fill="#6B4FBB"/></g><g transform="matrix(-1 0 0 1 840 306)"><use fill="#FFF" stroke="#E2DCF2" stroke-width="8" mask="url(#f)" xlink:href="#c"/><rect width="29" height="3" x="24" y="14" fill="#6B4FBB" opacity=".5" rx="1.5"/><rect width="19" height="3" x="34" y="23" fill="#6B4FBB" opacity=".5" rx="1.5"/><rect width="19" height="3" x="34" y="32" fill="#6B4FBB" opacity=".5" rx="1.5"/></g></g></svg>