<svg xmlns="http://www.w3.org/2000/svg" width="78" height="82" viewBox="0 0 78 82"><g fill="none" fill-rule="evenodd"><path fill="#F9F9F9" d="M2.12 42C3.647 61.032 19.575 76 39 76c19.425 0 35.353-14.968 36.88-34 .08.99.12 1.99.12 3 0 20.435-16.565 37-37 37S2 65.435 2 45c0-1.01.04-2.01.12-3z"/><path fill="#EEE" fill-rule="nonzero" d="M39 78C17.46 78 0 60.54 0 39S17.46 0 39 0s39 17.46 39 39-17.46 39-39 39zm0-4c19.33 0 35-15.67 35-35S58.33 4 39 4 4 19.67 4 39s15.67 35 35 35z"/><path fill="#FDE1D4" fill-rule="nonzero" d="M25.934 25.205a3 3 0 1 1 4.127 4.356A12.952 12.952 0 0 0 26 39c0 7.18 5.82 13 13 13s13-5.82 13-13c0-3.621-1.484-6.999-4.063-9.44a3 3 0 1 1 4.126-4.357A18.951 18.951 0 0 1 58 39c0 10.493-8.507 19-19 19s-19-8.507-19-19a18.951 18.951 0 0 1 5.934-13.795z"/><rect width="6" height="18" x="36" y="17" fill="#FA6D34" rx="3"/></g></svg>