<svg xmlns="http://www.w3.org/2000/svg" width="430" height="300"><g fill="none" fill-rule="evenodd" transform="translate(35 29)"><path fill="#EEE" fill-rule="nonzero" d="M90 23a2 2 0 1 1 0-4h10a2 2 0 0 1 0 4H90zm20 0a2 2 0 0 1 0-4h10a2 2 0 0 1 0 4h-10zm20 0a2 2 0 0 1 0-4h10a2 2 0 0 1 0 4h-10zm20 0a2 2 0 0 1 0-4h10a2 2 0 0 1 0 4h-10zm20 0a2 2 0 0 1 0-4h10a2 2 0 0 1 0 4h-10zm20 0a2 2 0 0 1 0-4h10a2 2 0 0 1 0 4h-10zm20 0a2 2 0 0 1 0-4h10a2 2 0 0 1 0 4h-10zm20 0a2 2 0 0 1 0-4h10a2 2 0 0 1 0 4h-10zm20 0a2 2 0 0 1 0-4h10a2 2 0 0 1 0 4h-10zm20 0a2 2 0 0 1 0-4h10a2 2 0 0 1 0 4h-10zm20 0a2 2 0 0 1 0-4h10a2 2 0 0 1 0 4h-10zm20 0a2 2 0 0 1 0-4h10a2 2 0 0 1 0 4h-10zm20 0a2 2 0 0 1 0-4h1a11.98 11.98 0 0 1 9.457 4.612 2 2 0 0 1-3.151 2.464A7.981 7.981 0 0 0 331 23h-1zm9 11.39a2 2 0 0 1 4 0v10a2 2 0 0 1-4 0v-10zm0 180a2 2 0 1 1 4 0V223c0 .56-.038 1.114-.114 1.662a2 2 0 0 1-3.962-.55A8.21 8.21 0 0 0 339 223v-8.61zm-4.769 15.931a2 2 0 0 1 1.618 3.658A11.967 11.967 0 0 1 331 235h-5.782a2 2 0 0 1 0-4H331c1.13 0 2.224-.233 3.231-.679zm-19.013.679a2 2 0 1 1 0 4h-10a2 2 0 0 1 0-4h10zm-20 0a2 2 0 1 1 0 4h-10a2 2 0 0 1 0-4h10zm-20 0a2 2 0 1 1 0 4h-10a2 2 0 0 1 0-4h10zm-20 0a2 2 0 1 1 0 4h-10a2 2 0 0 1 0-4h10zm-20 0a2 2 0 1 1 0 4h-10a2 2 0 0 1 0-4h10zm-20 0a2 2 0 1 1 0 4h-10a2 2 0 0 1 0-4h10zm-20 0a2 2 0 1 1 0 4h-10a2 2 0 0 1 0-4h10zm-20 0a2 2 0 1 1 0 4h-10a2 2 0 0 1 0-4h10zm-20 0a2 2 0 1 1 0 4h-10a2 2 0 0 1 0-4h10zm-20 0a2 2 0 1 1 0 4h-10a2 2 0 0 1 0-4h10zM115 231a2 2 0 0 1 0 4h-10a2 2 0 0 1 0-4h10zm-26.2 4c.131-.646.2-1.315.2-2v-2h4a2 2 0 0 1 0 4h-4.2z"/><path fill="#EEE" fill-rule="nonzero" d="M103 211h258a6 6 0 0 0 6-6V63a6 6 0 0 0-6-6H166a5 5 0 0 1-5-5v-8.5a5.5 5.5 0 0 0-5.5-5.5H109a6 6 0 0 0-6 6v167zm62-167.5V52a1 1 0 0 0 1 1h195c5.523 0 10 4.477 10 10v142c0 5.523-4.477 10-10 10H99V44c0-5.523 4.477-10 10-10h46.5a9.5 9.5 0 0 1 9.5 9.5z"/><rect width="40" height="4" x="118" y="78" fill="#6B4FBB" rx="2"/><rect width="30" height="4" x="118" y="90" fill="#EFEDF8" rx="2"/><rect width="30" height="4" x="153" y="90" fill="#E1DBF1" rx="2"/><rect width="150" height="4" x="118" y="102" fill="#EFEDF8" rx="2"/><rect width="90" height="4" x="118" y="114" fill="#E1DBF1" rx="2"/><rect width="60" height="4" x="118" y="138" fill="#EFEDF8" rx="2"/><rect width="20" height="4" x="118" y="150" fill="#6B4FBB" rx="2"/><rect width="20" height="4" x="144" y="150" fill="#C3B8E3" rx="2"/><rect width="20" height="4" x="170" y="150" fill="#E1DBF1" rx="2"/><rect width="130" height="4" x="118" y="162" fill="#EFEDF8" rx="2"/><rect width="30" height="4" x="118" y="174" fill="#C3B8E3" rx="2"/><rect width="30" height="4" x="154" y="174" fill="#EFEDF8" rx="2"/><rect width="30" height="4" x="190" y="174" fill="#EFEDF8" rx="2"/><rect width="40" height="4" x="118" y="186" fill="#E1DBF1" rx="2"/><path fill="#F9F9F9" d="M89 24.292l11.434 19.326v170.326L89 226.336V24.292z"/><path fill="#EEE" fill-rule="nonzero" d="M89 229.286v-5.9l9.434-10.223V44.165L89 28.22v-7.856l13.434 22.707v171.655L89 229.286zM10 4a6 6 0 0 0-6 6v223a6 6 0 0 0 6 6h69a6 6 0 0 0 6-6V10a6 6 0 0 0-6-6H10zm0-4h69c5.523 0 10 4.477 10 10v223c0 5.523-4.477 10-10 10H10c-5.523 0-10-4.477-10-10V10C0 4.477 4.477 0 10 0z"/><circle cx="25" cy="23" r="11" fill="#FEF0E8"/><path fill="#FEE1D3" d="M46 17h16a2 2 0 1 1 0 4H46a2 2 0 1 1 0-4zm0 8h27a2 2 0 1 1 0 4H46a2 2 0 1 1 0-4z"/><path fill="#EEE" d="M16 50h4a2 2 0 0 1 2 2v4a2 2 0 0 1-2 2h-4a2 2 0 0 1-2-2v-4a2 2 0 0 1 2-2zm14 2h24a2 2 0 1 1 0 4H30a2 2 0 1 1 0-4zm-4 12h4a2 2 0 0 1 2 2v4a2 2 0 0 1-2 2h-4a2 2 0 0 1-2-2v-4a2 2 0 0 1 2-2zm14 2h24a2 2 0 1 1 0 4H40a2 2 0 1 1 0-4zM26 78h4a2 2 0 0 1 2 2v4a2 2 0 0 1-2 2h-4a2 2 0 0 1-2-2v-4a2 2 0 0 1 2-2zm14 2h24a2 2 0 1 1 0 4H40a2 2 0 1 1 0-4z"/><g transform="translate(14 110)"><rect width="8" height="8" fill="#FEE1D3" rx="2"/><rect width="28" height="4" x="14" y="2" fill="#FEF0E8" rx="2"/></g><path fill="#EEE" d="M16 140h4a2 2 0 0 1 2 2v4a2 2 0 0 1-2 2h-4a2 2 0 0 1-2-2v-4a2 2 0 0 1 2-2zm14 2h24a2 2 0 1 1 0 4H30a2 2 0 1 1 0-4zm-14 14h4a2 2 0 0 1 2 2v4a2 2 0 0 1-2 2h-4a2 2 0 0 1-2-2v-4a2 2 0 0 1 2-2zm14 2h24a2 2 0 1 1 0 4H30a2 2 0 1 1 0-4zm-14 14h4a2 2 0 0 1 2 2v4a2 2 0 0 1-2 2h-4a2 2 0 0 1-2-2v-4a2 2 0 0 1 2-2zm14 2h24a2 2 0 1 1 0 4H30a2 2 0 1 1 0-4zm-14 14h4a2 2 0 0 1 2 2v4a2 2 0 0 1-2 2h-4a2 2 0 0 1-2-2v-4a2 2 0 0 1 2-2zm14 2h24a2 2 0 1 1 0 4H30a2 2 0 1 1 0-4z"/><g transform="translate(24 124)"><rect width="8" height="8" fill="#FEE1D3" rx="2"/><rect width="28" height="4" x="14" y="2" fill="#FEF0E8" rx="2"/></g><g fill="#FC6D26" transform="translate(24 92)"><rect width="8" height="8" rx="2"/><rect width="28" height="4" x="14" y="2" rx="2"/></g><path fill="#FDC4A8" fill-rule="nonzero" d="M152 50.5a4.5 4.5 0 1 1 0-9 4.5 4.5 0 0 1 0 9zm0-3a1.5 1.5 0 1 0 0-3 1.5 1.5 0 0 0 0 3z"/></g></svg>