<svg xmlns="http://www.w3.org/2000/svg" width="80" height="80" viewBox="0 0 80 80"><g fill="none" fill-rule="evenodd"><path fill="#EEE" d="M44.242 59.348c-3.7 1.576-7.3 1.994-10.902.84a7.002 7.002 0 0 1-9.085-.699l-4.243-4.243a7 7 0 0 1-.238-9.649c-.701-3.024-.419-6.083.646-9.206l-6.287-2.426a5.6 5.6 0 0 1-2.274-8.824l8.233-9.811a5.6 5.6 0 0 1 6.306-1.625l8.045 3.105c.772-.797 1.564-1.6 2.374-2.41C44.841 6.376 55.265 2.135 68.09 1.677a10 10 0 0 1 1.119.023c5.507.42 9.63 5.226 9.209 10.733-.935 12.225-5.373 22.309-13.315 30.25a410.76 410.76 0 0 1-1.661 1.653l3.247 8.412a5.6 5.6 0 0 1-1.625 6.306l-9.81 8.233a5.6 5.6 0 0 1-8.825-2.274l-2.186-5.665zm-22.92-26.923l10.406-12.402-6.822-2.633a1.6 1.6 0 0 0-1.801.464l-8.233 9.811a1.6 1.6 0 0 0 .65 2.521l5.8 2.239zm26.646 25.4l2.239 5.8a1.6 1.6 0 0 0 2.521.649l9.81-8.232a1.6 1.6 0 0 0 .465-1.802l-2.633-6.822-12.402 10.406zm-19.69-5.627c8.751 8.752 16.065 5.587 33.995-12.343 7.25-7.25 11.292-16.433 12.155-27.727a6 6 0 0 0-6.196-6.454c-11.846.423-21.303 4.271-28.586 11.554-17.03 17.03-20.414 25.924-11.368 34.97z"/><path fill="#FDC4A8" fill-rule="nonzero" d="M52.54 28.376a4 4 0 1 0 5.656-5.657 4 4 0 0 0-5.657 5.657zm-2.83 2.829A8 8 0 1 1 61.025 19.89a8 8 0 0 1-11.313 11.314z"/><path fill="#FEE1D3" d="M15.063 54.54a2 2 0 0 1 0 2.828L3.749 68.68A2 2 0 1 1 .92 65.853l11.314-11.314a2 2 0 0 1 2.829 0zm9.899 9.899a2 2 0 0 1 0 2.828l-8.485 8.485a2 2 0 1 1-2.829-2.828l8.486-8.485a2 2 0 0 1 2.828 0z"/><path fill="#FDC4A8" d="M20.012 59.489a2 2 0 0 1 0 2.828L4.456 77.874a2 2 0 0 1-2.829-2.829L17.184 59.49a2 2 0 0 1 2.828 0z"/></g></svg>