<svg xmlns="http://www.w3.org/2000/svg" width="80" height="80" viewBox="0 0 80 80"><g fill="none" fill-rule="evenodd" transform="translate(0 3)"><path fill="#EEE" fill-rule="nonzero" d="M40.843 5.864a2 2 0 1 1 .348-3.985l5.977.523a2 2 0 1 1-.348 3.985l-5.977-.523zm13.946 1.22a2 2 0 1 1 .349-3.985l5.977.523a2 2 0 1 1-.348 3.985l-5.978-.523zm13.947 1.22a2 2 0 1 1 .349-3.984 11.952 11.952 0 0 1 6.655 2.75 2 2 0 1 1-2.569 3.066 7.953 7.953 0 0 0-4.435-1.832zm7.28 7.357a2 2 0 1 1 3.99-.301c.048.639.045 1.283-.01 1.934l-.385 4.4a2 2 0 1 1-3.985-.349l.384-4.395c.037-.433.039-.863.007-1.29zm-1.088 13.654a2 2 0 0 1 3.985.348l-.523 5.978a2 2 0 1 1-3.984-.349l.522-5.977zm-1.22 13.947a2 2 0 1 1 3.985.348l-.523 5.977a2 2 0 1 1-3.985-.348l.523-5.977zM72.305 56.7a2 2 0 0 1 3.79 1.282 11.995 11.995 0 0 1-4.253 5.81 2 2 0 0 1-2.373-3.22 7.996 7.996 0 0 0 2.836-3.872zm-9.054 5.33a2 2 0 1 1-.349 3.985l-5.977-.522a2 2 0 1 1 .349-3.985l5.977.523zM32.793 10.675a2 2 0 1 1-3.675-1.579 12.02 12.02 0 0 1 4.696-5.456 2 2 0 0 1 2.112 3.397 8.02 8.02 0 0 0-3.133 3.638z"/><rect width="48" height="58" x="2" y="14" fill="#FAFAFA" rx="10"/><path fill="#EEE" fill-rule="nonzero" d="M12 16a8 8 0 0 0-8 8v38a8 8 0 0 0 8 8h28a8 8 0 0 0 8-8V24a8 8 0 0 0-8-8H12zm0-4h28c6.627 0 12 5.373 12 12v38c0 6.627-5.373 12-12 12H12C5.373 74 0 68.627 0 62V24c0-6.627 5.373-12 12-12z"/><rect width="24" height="4" x="11" y="30" fill="#E5E5E5" rx="2"/><rect width="30" height="4" x="11" y="41" fill="#E5E5E5" rx="2"/><rect width="20" height="4" x="11" y="52" fill="#E5E5E5" rx="2"/></g></svg>