<svg xmlns="http://www.w3.org/2000/svg" width="80" height="80" viewBox="0 0 80 80"><g fill="none" fill-rule="evenodd" transform="translate(7 3)"><path fill="#EEE" fill-rule="nonzero" d="M54 18a2 2 0 1 1 0-4h4c.843 0 1.675.105 2.48.31a2 2 0 1 1-.99 3.876A6.015 6.015 0 0 0 58 18h-4zm9.735 4.228a2 2 0 0 1 3.822-1.18A10 10 0 0 1 68 24v3.513a2 2 0 1 1-4 0V24c0-.61-.09-1.204-.265-1.772zM64 35.513a2 2 0 1 1 4 0v6a2 2 0 1 1-4 0v-6zm0 14a2 2 0 1 1 4 0v6a2 2 0 1 1-4 0v-6zm0 14a2 2 0 1 1 4 0V66a9.97 9.97 0 0 1-.963 4.286 2 2 0 1 1-3.613-1.716A5.969 5.969 0 0 0 64 66v-2.487zm-5.255 8.441a2 2 0 1 1 .49 3.97c-.401.05-.806.075-1.218.076h-5.042a2 2 0 1 1 0-4h5.038c.246 0 .49-.016.732-.046zM44.975 72a2 2 0 1 1 0 4h-6a2 2 0 1 1 0-4h6zm-14 0a2 2 0 1 1 0 4H26c-.429 0-.855-.027-1.276-.08a2 2 0 0 1 .506-3.969c.254.033.51.049.77.049h4.975zm-10.438-3.514a2 2 0 1 1-3.64 1.66A9.97 9.97 0 0 1 16 66v-2.538a2 2 0 1 1 4 0V66c0 .871.185 1.713.537 2.486zM8 2a6 6 0 0 0-6 6v42a6 6 0 0 0 6 6h32a6 6 0 0 0 6-6V8a6 6 0 0 0-6-6H8zm0-4h32c5.523 0 10 4.477 10 10v42c0 5.523-4.477 10-10 10H8C2.477 60-2 55.523-2 50V8C-2 2.477 2.477-2 8-2z"/><rect width="10" height="4" x="8" y="16" fill="#EFEDF8" rx="2"/><rect width="10" height="4" x="21" y="16" fill="#6B4FBB" rx="2"/><rect width="10" height="4" x="8" y="32" fill="#E1DBF1" rx="2"/><rect width="6" height="4" x="34" y="16" fill="#EFEDF8" rx="2"/><rect width="6" height="4" x="8" y="24" fill="#6B4FBB" rx="2"/><rect width="6" height="4" x="17" y="24" fill="#EFEDF8" rx="2"/><rect width="6" height="4" x="21" y="32" fill="#6B4FBB" rx="2"/><rect width="6" height="4" x="8" y="40" fill="#6B4FBB" rx="2"/><rect width="6" height="4" x="17" y="40" fill="#EFEDF8" rx="2"/><rect width="6" height="4" x="26" y="40" fill="#C3B8E3" rx="2"/><rect width="10" height="4" x="26" y="24" fill="#C3B8E3" rx="2"/></g></svg>