<svg xmlns="http://www.w3.org/2000/svg" viewBox="0 0 168 107" xmlns:xlink="http://www.w3.org/1999/xlink"><g fill="#eee" fill-rule="evenodd"><path d="M4.01 2h1.102a1 1 0 0 0 0-2H4.01A4.001 4.001 0 0 0 0 4a1 1 0 0 0 2 0c0-1.108.892-2 2.01-2m12.702 0a1 1 0 0 0 0-2h-5.7a1 1 0 0 0 0 2h5.7m11.6 0a1 1 0 0 0 0-2h-5.7a1 1 0 0 0 0 2h5.7m11.6 0a1 1 0 0 0 0-2h-5.7a1 1 0 0 0 0 2h5.7m11.6 0a1 1 0 0 0 0-2h-5.7a1 1 0 0 0 0 2h5.7m11.6 0a1 1 0 0 0 0-2h-5.7a1 1 0 0 0 0 2h5.7m11.6 0a1 1 0 0 0 0-2h-5.7a1 1 0 0 0 0 2h5.7m11.6 0a1 1 0 0 0 0-2h-5.7a1 1 0 0 0 0 2h5.7m11.6 0a1 1 0 0 0 0-2h-5.7a1 1 0 0 0 0 2h5.7m11.6 0a1 1 0 0 0 0-2h-5.7a1 1 0 0 0 0 2h5.7m11.6 0a1 1 0 0 0 0-2h-5.7a1 1 0 0 0 0 2h5.7m11.6 0a1 1 0 0 0 0-2h-5.7a1 1 0 0 0 0 2h5.7m11.6 0a1 1 0 0 0 0-2h-5.7a1 1 0 0 0 0 2h5.7m11.6 0a1 1 0 0 0 0-2h-5.7a1 1 0 0 0 0 2h5.7M164 2c.822 0 1.554.503 1.86 1.254a1 1 0 1 0 1.853-.753 4.01 4.01 0 0 0-3.712-2.5h-2.188a1 1 0 0 0 0 2h2.188m2.01 12.518a1 1 0 0 0 2 0v-5.7a1 1 0 0 0-2 0v5.7m0 11.6a1 1 0 0 0 2 0v-5.7a1 1 0 0 0-2 0v5.7m0 11.6a1 1 0 0 0 2 0v-5.7a1 1 0 0 0-2 0v5.7m0 6.282c0 1.108-.892 2-2.01 2h-.72a1 1 0 0 0 0 2h.72a4.001 4.001 0 0 0 4.01-4v-.382a1 1 0 0 0-2 0v.382m-14.325 2a1 1 0 0 0 0 2h5.7a1 1 0 0 0 0-2h-5.7m-11.6 0a1 1 0 0 0 0 2h5.7a1 1 0 0 0 0-2h-5.7m-11.6 0a1 1 0 0 0 0 2h5.7a1 1 0 0 0 0-2h-5.7m-11.6 0a1 1 0 0 0 0 2h5.7a1 1 0 0 0 0-2h-5.7m-11.6 0a1 1 0 0 0 0 2h5.7a1 1 0 0 0 0-2h-5.7m-11.6 0a1 1 0 0 0 0 2h5.7a1 1 0 0 0 0-2h-5.7m-11.6 0a1 1 0 0 0 0 2h5.7a1 1 0 0 0 0-2h-5.7m-11.6 0a1 1 0 0 0 0 2h5.7a1 1 0 0 0 0-2h-5.7m-11.6 0a1 1 0 0 0 0 2h5.7a1 1 0 0 0 0-2h-5.7m-11.6 0a1 1 0 0 0 0 2h5.7a1 1 0 0 0 0-2h-5.7m-11.6 0a1 1 0 0 0 0 2h5.7a1 1 0 0 0 0-2h-5.7m-11.6 0a1 1 0 0 0 0 2h5.7a1 1 0 0 0 0-2h-5.7m-11.6 0a1 1 0 0 0 0 2h5.7a1 1 0 0 0 0-2h-5.7m-8.47 0a2.01 2.01 0 0 1-1.782-1.085 1 1 0 0 0-1.775.923 4.007 4.007 0 0 0 3.556 2.162h2.57a1 1 0 0 0 0-2h-2.57m-2.01-12.136a1 1 0 0 0-2 0v5.7a1 1 0 0 0 2 0v-5.7m0-11.6a1 1 0 0 0-2 0v5.7a1 1 0 0 0 2 0v-5.7m0-11.6a1 1 0 0 0-2 0v5.7a1 1 0 0 0 2 0v-5.7m0-6.664a1 1 0 0 0-2 0v.764a1 1 0 0 0 2 0v-.764" id="a"/><circle cx="21" cy="24" r="10"/><rect width="33" height="3" x="37" y="18" rx="1.5" id="b"/><rect width="53" height="3" x="37" y="27" rx="1.5" id="c"/><path d="M131 29c0 .552.447.999.996.999h22.01c.545 0 .996-.451.996-.999v-9a.998.998 0 0 0-.996-.999h-22.01c-.545 0-.996.451-.996.999v9m.996-12h22.01a2.998 2.998 0 0 1 2.996 2.999v9a3.003 3.003 0 0 1-2.996 2.999h-22.01A2.998 2.998 0 0 1 129 28.999v-9A3.003 3.003 0 0 1 131.996 17" id="d"/><g transform="translate(0 59)"><use xlink:href="#a"/><circle cx="21" cy="24" r="10"/><use xlink:href="#b"/><use xlink:href="#c"/><use xlink:href="#d"/></g></g></svg>