<svg xmlns="http://www.w3.org/2000/svg" viewBox="0 0 446 249" xmlns:xlink="http://www.w3.org/1999/xlink"><defs><path id="a" d="M260.03 114h23.972v-.013c19.972-.53 36-16.887 36-36.987 0-20.435-16.565-37-37-37-.993 0-1.977.039-2.95.116-4.95-14.605-18.773-25.12-35.05-25.12a36.87 36.87 0 0 0-15.32 3.311c-6.649-9.841-17.909-16.311-30.68-16.311-20.435 0-37 16.565-37 37 0 .701.019 1.397.058 2.088C145.95 45.083 134 59.645 134 76.996c0 20.435 16.565 37 37 37 .324 0 .646-.004.968-.012"/><ellipse id="b" cx="41" cy="41" rx="41" ry="41"/><mask id="c" width="186" height="112" x="0" y="0" fill="#fff"><use xlink:href="#a"/></mask><mask id="d" width="82" height="82" x="0" y="0" fill="#fff"><use xlink:href="#b"/></mask></defs><g fill="none" fill-rule="evenodd"><path stroke="#b5a7dd" stroke-width="4" d="M228.415 137.792c8.443 17.156 21.89 32.082 39.688 42.358"/><path fill="#fb722e" d="M284.464 183.822a2.006 2.006 0 0 1 2.74-.727l6.914 3.992a2.001 2.001 0 0 1 .741 2.737 2.006 2.006 0 0 1-2.74.727l-6.914-3.992a2.001 2.001 0 0 1-.74-2.737m-5 8.66a2.006 2.006 0 0 1 2.74-.726l6.913 3.991a2.001 2.001 0 0 1 .741 2.737 2.006 2.006 0 0 1-2.74.727l-6.914-3.991a2.001 2.001 0 0 1-.74-2.737"/><path fill="#fde5d8" fill-rule="nonzero" d="M267.072 189.947l5.196 3a5.998 5.998 0 0 0 8.195-2.194l3.005-5.205a5.995 5.995 0 0 0-2.198-8.193l-5.196-3-9 15.588m6.032-18.447a3.005 3.005 0 0 1 4.098-1.11l6.07 3.505c4.784 2.761 6.426 8.871 3.662 13.658l-3.005 5.204c-2.76 4.782-8.875 6.42-13.659 3.658l-6.07-3.505a2.999 2.999 0 0 1-1.088-4.104l9.992-17.306"/><g fill-rule="nonzero"><path fill="#e5e5e5" d="M260.597 18.747C266.208 9.657 276.116 4 287 4c17.12 0 31 13.879 31 31 0 7.02-2.34 13.685-6.58 19.1l3.149 2.466A34.855 34.855 0 0 0 322 35.001c0-19.33-15.67-35-35-35-12.286 0-23.476 6.384-29.808 16.647l3.404 2.1"/><path fill="#b5a7dd" d="M281.982 23.991l-2.526 1.154-2.992-2.993a.4.4 0 0 0-.564.009l-1.738 1.738a.392.392 0 0 0-.009.564l2.987 2.987-1.147 2.524a12.26 12.26 0 0 0-1.04 3.883l-.269 2.76-4.08 1.093a.399.399 0 0 0-.275.492l.636 2.375c.06.223.273.346.485.29l4.087-1.096 1.611 2.262a12.017 12.017 0 0 0 2.827 2.828l2.26 1.612-1.094 4.08a.399.399 0 0 0 .29.485l2.374.636a.393.393 0 0 0 .493-.275l1.093-4.08 2.763-.267a12.14 12.14 0 0 0 3.862-1.035l2.526-1.154 2.992 2.992a.4.4 0 0 0 .564-.008l1.738-1.738a.392.392 0 0 0 .009-.564l-2.987-2.987 1.147-2.524a12.26 12.26 0 0 0 1.04-3.883l.27-2.76 4.08-1.093a.399.399 0 0 0 .274-.493l-.636-2.374a.393.393 0 0 0-.485-.29l-4.087 1.096-1.611-2.262a12.017 12.017 0 0 0-2.826-2.828l-2.26-1.612 1.093-4.08a.399.399 0 0 0-.29-.485l-2.373-.636a.393.393 0 0 0-.493.274l-1.094 4.081-2.763.266c-1.336.129-2.64.48-3.862 1.036m3.48-5.02l.375-1.4a4.393 4.393 0 0 1 5.392-3.103l2.375.636a4.399 4.399 0 0 1 3.117 5.383l-.375 1.401a16.077 16.077 0 0 1 3.761 3.767l1.405-.376a4.397 4.397 0 0 1 5.386 3.118l.636 2.375a4.398 4.398 0 0 1-3.103 5.39l-1.402.376a16.217 16.217 0 0 1-1.378 5.143l1.027 1.026a4.392 4.392 0 0 1-.008 6.22l-1.739 1.738a4.4 4.4 0 0 1-6.224.008l-1.028-1.028a16.09 16.09 0 0 1-5.14 1.381l-.376 1.4a4.393 4.393 0 0 1-5.392 3.104l-2.374-.636a4.399 4.399 0 0 1-3.118-5.383l.376-1.401a16.077 16.077 0 0 1-3.762-3.767l-1.404.376a4.397 4.397 0 0 1-5.386-3.118l-.637-2.374a4.398 4.398 0 0 1 3.103-5.391l1.402-.376a16.217 16.217 0 0 1 1.378-5.143l-1.026-1.026a4.392 4.392 0 0 1 .008-6.22l1.738-1.738a4.4 4.4 0 0 1 6.224-.008l1.028 1.028a16.09 16.09 0 0 1 5.141-1.381"/><path fill="#6b4fbb" d="M286.367 37.355a2.439 2.439 0 1 0 1.262-4.711 2.439 2.439 0 0 0-1.262 4.711m-1.035 3.864a6.44 6.44 0 1 1 3.333-12.44 6.44 6.44 0 0 1-3.333 12.44"/></g><use fill="#fff" stroke="#e5e5e5" stroke-width="8" mask="url(#c)" stroke-linejoin="round" xlink:href="#a"/><g transform="translate(175 58)"><use fill="#fff" stroke="#e5e5e5" stroke-width="8" mask="url(#d)" xlink:href="#b"/><g fill-rule="nonzero"><path fill="#e5e5e5" d="M41 78c20.435 0 37-16.565 37-37S61.435 4 41 4 4 20.565 4 41s16.565 37 37 37m0 4C18.356 82 0 63.644 0 41S18.356 0 41 0s41 18.356 41 41-18.356 41-41 41"/><path fill="#b5a7dd" d="M34.363 26.44l-2.527 1.154-3.211-3.211a1.495 1.495 0 0 0-2.117-.005l-2.131 2.13a1.504 1.504 0 0 0 .005 2.117l3.206 3.206-1.147 2.524a16.09 16.09 0 0 0-.897 2.503 16.08 16.08 0 0 0-.475 2.616l-.269 2.76-4.379 1.174a1.495 1.495 0 0 0-1.063 1.83l.78 2.911a1.504 1.504 0 0 0 1.836 1.054l4.387-1.176 1.612 2.263a15.954 15.954 0 0 0 3.737 3.742l2.26 1.612-1.173 4.38a1.495 1.495 0 0 0 1.053 1.835l2.908.78a1.504 1.504 0 0 0 1.83-1.063l1.174-4.38 2.763-.266a15.977 15.977 0 0 0 5.108-1.372l2.527-1.154 3.211 3.212a1.495 1.495 0 0 0 2.117.005l2.131-2.131a1.504 1.504 0 0 0-.005-2.117l-3.206-3.206 1.147-2.524a16.09 16.09 0 0 0 .897-2.503 16.1 16.1 0 0 0 .475-2.616l.269-2.76 4.379-1.173a1.495 1.495 0 0 0 1.063-1.83l-.78-2.912a1.504 1.504 0 0 0-1.836-1.054l-4.387 1.176-1.612-2.262a15.954 15.954 0 0 0-3.737-3.743l-2.26-1.612 1.173-4.38a1.495 1.495 0 0 0-1.053-1.835l-2.908-.779a1.504 1.504 0 0 0-1.83 1.063l-1.174 4.38-2.763.265c-1.767.17-3.493.636-5.108 1.373m4.726-5.355l.455-1.699a5.504 5.504 0 0 1 6.73-3.89l2.907.778a5.495 5.495 0 0 1 3.882 6.735l-.455 1.699a19.95 19.95 0 0 1 4.673 4.68l1.704-.457a5.503 5.503 0 0 1 6.734 3.886l.78 2.91a5.493 5.493 0 0 1-3.894 6.73l-1.701.455a20.134 20.134 0 0 1-.593 3.265 20.134 20.134 0 0 1-1.119 3.124l1.245 1.246a5.507 5.507 0 0 1 .008 7.774l-2.13 2.13a5.5 5.5 0 0 1-7.775-.001l-1.248-1.248c-2 .914-4.157 1.502-6.387 1.717l-.455 1.699a5.504 5.504 0 0 1-6.73 3.89l-2.907-.778a5.495 5.495 0 0 1-3.882-6.735l.455-1.699a19.95 19.95 0 0 1-4.673-4.68l-1.704.457a5.503 5.503 0 0 1-6.734-3.886l-.78-2.91a5.493 5.493 0 0 1 3.894-6.73l1.701-.455a20.258 20.258 0 0 1 1.712-6.389l-1.245-1.246a5.507 5.507 0 0 1-.008-7.774l2.13-2.13a5.5 5.5 0 0 1 7.775.001l1.248 1.248c2-.914 4.157-1.502 6.387-1.717"/><path fill="#6b4fbb" d="M39.965 44.863a4 4 0 1 0 2.07-7.727 4 4 0 0 0-2.07 7.727m-1.036 3.864a8 8 0 1 1 4.142-15.455 8 8 0 0 1-4.142 15.455"/></g></g><path fill="#e5e5e5" fill-rule="nonzero" d="M144 169.541v30.01a4.002 4.002 0 0 0 4 3.995h20c2.209 0 4-1.789 4-3.995v-30.01a4.002 4.002 0 0 0-4-3.995h-20c-2.209 0-4 1.789-4 3.995m-4 0c0-4.416 3.583-7.995 8-7.995h20c4.416 0 8 3.584 8 7.995v30.01c0 4.416-3.583 7.995-8 7.995h-20c-4.416 0-8-3.584-8-7.995v-30.01"/><g fill="#fb722e" transform="translate(140 161)"><rect width="4" height="11" x="10" y="18.545" rx="2"/><rect width="4" height="11" x="21" y="18.545" rx="2"/></g><path fill="#e5e5e5" fill-rule="nonzero" d="M445.16 245.34c-16.874-11.778-110.62-20.336-222.14-20.336-111.61 0-205.4 8.571-222.18 20.364a2 2 0 1 0 2.3 3.272c15.756-11.07 109.46-19.636 219.88-19.636 110.34 0 203.99 8.55 219.85 19.617a2.001 2.001 0 0 0 2.29-3.28"/></g></svg>