<svg xmlns="http://www.w3.org/2000/svg" width="430" height="220" viewBox="0 0 430 220"><g fill="none" fill-rule="evenodd"><path fill="#EEE" fill-rule="nonzero" d="M189.8 182l2.4-12H114c-5.523 0-10-4.477-10-10V34c0-5.523 4.477-10 10-10h200c5.523 0 10 4.477 10 10v126c0 5.523-4.477 10-10 10h-78.2l2.4 12h22.52a9.651 9.651 0 0 1 9.28 7 5.491 5.491 0 0 1-5.28 7H164.159a5.787 5.787 0 0 1-5.659-7 8.855 8.855 0 0 1 8.659-7H189.8zM114 28a6 6 0 0 0-6 6v126a6 6 0 0 0 6 6h200a6 6 0 0 0 6-6V34a6 6 0 0 0-6-6H114zm5 6h190a5 5 0 0 1 5 5v116a5 5 0 0 1-5 5H119a5 5 0 0 1-5-5V39a5 5 0 0 1 5-5zm0 4a1 1 0 0 0-1 1v116a1 1 0 0 0 1 1h190a1 1 0 0 0 1-1V39a1 1 0 0 0-1-1H119zm112.72 132h-35.44l-2.4 12h40.24l-2.4-12zm-64.561 16c-2.29 0-4.268 1.6-4.748 3.838A1.787 1.787 0 0 0 164.16 192h100.56a1.491 1.491 0 0 0 1.435-1.901A5.651 5.651 0 0 0 260.72 186h-93.561z"/><path fill="#FEF0E8" d="M177.965 99H194a2 2 0 1 1 0 4h-16.322c-1.374 6.29-6.976 11-13.678 11-6.702 0-12.304-4.71-13.678-11h-3.365l-7.395 9.249a2 2 0 0 1-3.049.089L128.11 103h-5.844a2 2 0 1 1 0-4H129a2 2 0 0 1 1.487.662l7.423 8.248 6.523-8.159a2 2 0 0 1 1.562-.751h4.04c.513-7.265 6.57-13 13.965-13 7.396 0 13.452 5.735 13.965 13zM164 110c5.523 0 10-4.477 10-10s-4.477-10-10-10-10 4.477-10 10 4.477 10 10 10z"/><path fill="#EFEDF8" d="M273.847 103c-.962 6.23-6.347 11-12.847 11-6.5 0-11.885-4.77-12.847-11H232a2 2 0 0 1 0-4h16.153c.962-6.23 6.347-11 12.847-11 6.5 0 11.885 4.77 12.847 11h3.998l8.404-9.338a2 2 0 0 1 3.048.09L296.692 99H305a2 2 0 0 1 0 4h-9.27a2 2 0 0 1-1.562-.751l-6.523-8.16-7.423 8.249a2 2 0 0 1-1.487.662h-4.888zM261 110a9 9 0 1 0 0-18 9 9 0 0 0 0 18z"/><path fill="#FEE1D3" fill-rule="nonzero" d="M213 119c-10.493 0-19-8.507-19-19s8.507-19 19-19 19 8.507 19 19-8.507 19-19 19zm0-4c8.284 0 15-6.716 15-15 0-8.284-6.716-15-15-15-8.284 0-15 6.716-15 15 0 8.284 6.716 15 15 15z"/><path fill="#FC6D26" d="M211.586 101.828L208.757 99a2 2 0 1 0-2.828 2.828l4.243 4.243c.39.39.902.586 1.414.586.512 0 1.023-.195 1.414-.586L220.071 99a2 2 0 1 0-2.828-2.828l-5.657 5.656z"/><path fill="#FDC4A8" d="M162.95 101.07l-1.768-1.767a1.5 1.5 0 0 0-2.121 2.121l2.828 2.829c.293.293.677.439 1.06.439.385 0 .769-.146 1.062-.44l4.242-4.242a1.5 1.5 0 1 0-2.121-2.121l-3.182 3.182z"/><path fill="#6B4FBB" d="M256.39 104.841A6 6 0 1 0 261 95v6l-4.61 3.841z"/><path fill="#FEF0E8" fill-rule="nonzero" d="M99 99h-5a2 2 0 1 0 0 4h5a2 2 0 1 0 0-4zm-16 0h-5a2 2 0 1 0 0 4h5a2 2 0 1 0 0-4zm-14.384-.078l-3.643-3.425a2 2 0 1 0-2.74 2.914l3.643 3.425a2 2 0 1 0 2.74-2.914zm-11.657-10.96l-3.642-3.425a2 2 0 1 0-2.74 2.914l3.642 3.425a2 2 0 0 0 2.74-2.914zm-11.656-10.96l-3.643-3.425a2 2 0 0 0-2.74 2.914l3.643 3.425a2 2 0 1 0 2.74-2.914zm-14.367-3.885l-3.593 3.477a2 2 0 0 0 2.782 2.875l3.593-3.477a2 2 0 0 0-2.782-2.875zM19.44 84.244l-3.593 3.477a2 2 0 1 0 2.781 2.874l3.593-3.477a2 2 0 0 0-2.781-2.874zM7.94 95.371l-3.593 3.477a2 2 0 1 0 2.782 2.874l3.593-3.477a2 2 0 1 0-2.782-2.874z"/><path fill="#E1DBF1" fill-rule="nonzero" d="M423.611 99.56l-3.598 3.472a2 2 0 0 0 2.777 2.879l3.599-3.472a2 2 0 0 0-2.778-2.878zm-11.514 11.11l-3.598 3.472a2 2 0 0 0 2.777 2.878l3.598-3.471a2 2 0 0 0-2.777-2.879zm-11.514 11.11l-3.599 3.471a2 2 0 1 0 2.778 2.879l3.598-3.472a2 2 0 1 0-2.777-2.879zm-8.799 4.48l-3.642-3.426a2 2 0 0 0-2.74 2.915l3.642 3.425a2 2 0 0 0 2.74-2.915zm-11.656-10.96l-3.643-3.426a2 2 0 1 0-2.74 2.914l3.643 3.426a2 2 0 1 0 2.74-2.915zm-11.657-10.96l-3.643-3.426a2 2 0 1 0-2.74 2.914l3.643 3.425a2 2 0 1 0 2.74-2.914zM353.001 99h-5a2 2 0 1 0 0 4h5a2 2 0 0 0 0-4zm-16 0h-5a2 2 0 1 0 0 4h5a2 2 0 0 0 0-4z"/></g></svg>