<svg xmlns="http://www.w3.org/2000/svg" viewBox="0 0 250 150"><g fill="none" fill-rule="evenodd"><g fill="#e5e5e5" transform="translate(0 102)"><rect width="74" height="4" x="34" y="21" opacity=".5" rx="2"/><path d="M152 23c0-1.105.887-2 1.998-2h4c1.104 0 1.998.888 1.998 2 0 1.105-.887 2-1.998 2h-4A1.994 1.994 0 0 1 152 23m14 0c0-1.105.887-2 1.998-2h4c1.104 0 1.998.888 1.998 2 0 1.105-.887 2-1.998 2h-4A1.994 1.994 0 0 1 166 23m14 0c0-1.105.887-2 1.998-2h4c1.104 0 1.998.888 1.998 2 0 1.105-.887 2-1.998 2h-4A1.994 1.994 0 0 1 180 23m14 0c0-1.105.887-2 1.998-2h4c1.104 0 1.998.888 1.998 2 0 1.105-.887 2-1.998 2h-4A1.994 1.994 0 0 1 194 23m14 0c0-1.105.887-2 1.998-2h4c1.104 0 1.998.888 1.998 2 0 1.105-.887 2-1.998 2h-4A1.994 1.994 0 0 1 208 23"/></g><g fill="#31af64"><path fill-rule="nonzero" d="M19 144c-10.493 0-19-8.507-19-19s8.507-19 19-19 19 8.507 19 19-8.507 19-19 19m0-4c8.284 0 15-6.716 15-15 0-8.284-6.716-15-15-15-8.284 0-15 6.716-15 15 0 8.284 6.716 15 15 15"/><path d="M17.07 127.02l-2.829-2.829a1.995 1.995 0 0 0-2.828 0 1.995 1.995 0 0 0 0 2.828l4.243 4.243a1.995 1.995 0 0 0 2.822.006l7.79-7.79a1.997 1.997 0 0 0-.006-2.823 1.992 1.992 0 0 0-2.823-.006l-6.37 6.37"/></g><g fill="#e52c5a"><path fill-rule="nonzero" d="M126 149.5c-12.979 0-23.5-10.521-23.5-23.5s10.521-23.5 23.5-23.5 23.5 10.521 23.5 23.5-10.521 23.5-23.5 23.5m0-5c10.217 0 18.5-8.283 18.5-18.5s-8.283-18.5-18.5-18.5-18.5 8.283-18.5 18.5 8.283 18.5 18.5 18.5"/><path d="M130.24 126l2.833-2.833a3 3 0 0 0-4.243-4.243l-2.833 2.833-2.833-2.833a3 3 0 0 0-4.243 4.243l2.833 2.833-2.833 2.833a3 3 0 0 0 4.243 4.243l2.833-2.833 2.833 2.833a3 3 0 0 0 4.243-4.243L130.24 126"/></g><path fill="#e5e5e5" fill-rule="nonzero" d="M236 139c-7.732 0-14-6.268-14-14s6.268-14 14-14 14 6.268 14 14-6.268 14-14 14m0-4c5.523 0 10-4.477 10-10s-4.477-10-10-10-10 4.477-10 10 4.477 10 10 10"/><g transform="translate(73 4)"><path stroke="#e5e5e5" stroke-width="4" d="M64.82 76H98c4.419 0 8-3.579 8-7.99V7.99C106 3.577 102.417 0 98 0H8.009c-4.419 0-8 3.579-8 7.99v60.02c0 4.413 3.583 7.99 8 7.99h31.935l9.263 9.855a4.357 4.357 0 0 0 6.354 0L64.824 76"/><rect width="18" height="6" x="11" y="19" fill="#fc8a51" rx="3"/><rect width="18" height="6" x="35" y="35" fill="#e52c5a" rx="3"/><rect width="18" height="6" x="29" y="51" fill="#e5e5e5" rx="3"/><rect width="12" height="6" x="35" y="19" fill="#fde5d8" rx="3"/><rect width="12" height="6" x="53" y="51" fill="#e52c5a" rx="3"/><rect width="12" height="6" x="11" y="51" fill="#b5a7dd" rx="3"/><rect width="18" height="6" x="77" y="19" fill="#fc8a51" rx="3"/><rect width="18" height="6" x="11" y="35" fill="#fde5d8" rx="3"/><rect width="6" height="6" x="53" y="19" fill="#e52c5a" rx="3"/><g fill="#fde5d8"><rect width="6" height="6" x="65" y="19" rx="3"/><rect width="6" height="6" x="71" y="35" rx="3"/></g><rect width="6" height="6" x="59" y="35" fill="#e52c5a" rx="3"/></g><path fill="#6b4fbb" fill-rule="nonzero" d="M151.869 77.403c-13.26 9.264-31.649 7.977-43.484-3.858-13.279-13.279-13.279-34.806 0-48.084 13.278-13.278 34.805-13.278 48.083 0 11.836 11.836 13.118 30.23 3.858 43.485.133.111.262.229.387.354l15.556 15.555a6.004 6.004 0 0 1 0 8.486 5.997 5.997 0 0 1-8.486 0l-15.555-15.556a6.051 6.051 0 0 1-.355-.387m-1.06-9.512c10.154-10.154 10.154-26.617 0-36.77-10.153-10.154-26.616-10.154-36.77 0-10.153 10.153-10.153 26.616 0 36.77 10.154 10.153 26.617 10.153 36.77 0"/></g></svg>