<svg xmlns="http://www.w3.org/2000/svg" width="116" height="68" viewBox="181 0 116 68"><g fill="none" fill-rule="evenodd" transform="translate(182)"><rect width="78" height="34" x="37" y="34" fill="#FAFAFA" rx="3"/><rect width="78" height="34" x="31" y="28" fill="#FFF" stroke="#EEE" stroke-width="4" stroke-linecap="round" rx="3"/><path fill="#FFF" stroke="#FC6D26" stroke-width="3" d="M34 35.8c-.6 0-1.4 0-1.8.4L29 38.8c-1 .7-1.7.4-2-.7l-.6-4c0-.5-.5-1.2-1-1.5L22 30.2c-1-.6-1-1.5 0-2l3.7-2c.5-.2 1-.8 1.2-1.3l1-4.2c.3-1 1-1.3 2-.5l3 3c.3.3 1 .6 1.6.6l4.2-.3c1 0 1.5.7 1 1.7L38 29c-.3.6-.3 1.4 0 2l1.3 3.8c.4 1 0 1.8-1.2 1.6l-4-.6z" stroke-linecap="round"/><path fill="#FDE5D8" d="M51.6 14.3c-.2-.2-.8-.4-1-.3l-2.8.5c-.7 0-1-.4-.8-1l1-2.8V9.5L46.6 7c-.3-.7 0-1.2.8-1h2.7c.3 0 .8-.2 1-.5l2-2c.6-.5 1-.4 1.3.3l.7 2.8c0 .3.4.8.7 1l2.3 1.2c.7.3.7 1 0 1.3l-2.2 1.7-.6 1-.4 3c-.2.6-.7.8-1.3.4l-2-1.7zM5.4 43.2c-.2-.2-.5-.2-.7-.2l-1.8.3c-.6 0-1-.2-.7-.7l.7-1.8V40l-1-1.7c0-.4 0-.7.6-.7h1.8c.3 0 .6 0 .8-.2L6.5 36c.3-.3.7-.2.8.2l.5 2 .5.5 1.6.8c.3.2.3.7 0 1l-1.6 1c-.2 0-.4.4-.4.7l-.4 2c0 .3-.4.5-.8.2l-1.4-1.2zm5-34C10.2 9 10 9 9.7 9L8 9.3c-.6 0-1-.2-.7-.7L8 6.8V6L7 4.3c0-.4 0-.7.6-.7h1.8c.3 0 .6 0 .8-.2L11.5 2c.3-.3.7-.2.8.2l.5 2 .5.5 1.6.8c.3.2.3.7 0 1l-1.6 1c-.2 0-.4.4-.4.7l-.4 2c0 .3-.4.5-.8.2l-1.4-1.2z"/><rect width="52" height="4" x="43" y="38" fill="#EEE" rx="2"/><rect width="36" height="4" x="43" y="48" fill="#EEE" rx="2"/></g></svg>