<svg width="430" height="267" viewBox="0 0 430 267" xmlns="http://www.w3.org/2000/svg"><title>prometheus-graphs_empty</title><g fill="none" fill-rule="evenodd"><path d="M187 43a2 2 0 0 1 0-4h8a2 2 0 0 1 0 4h-8zm18 0a2 2 0 0 1 0-4h8a2 2 0 0 1 0 4h-8zm18 0a2 2 0 0 1 0-4h8a2 2 0 0 1 0 4h-8zm18 0a2 2 0 0 1 0-4h8a2 2 0 0 1 0 4h-8zm18 0a2 2 0 0 1 0-4h8a2 2 0 0 1 0 4h-8zm18 0a2 2 0 0 1 0-4h8a2 2 0 0 1 0 4h-8zm18 0a2 2 0 0 1 0-4h8a2 2 0 0 1 0 4h-8zm18 0a2 2 0 0 1 0-4h8a2 2 0 0 1 0 4h-8zm15.769 2.457a2 2 0 0 1 2.883-2.772A11.964 11.964 0 0 1 335 51v.39a2 2 0 0 1-4 0V51a7.965 7.965 0 0 0-2.231-5.543zm2.225 159.857a2 2 0 0 1 3.997.154 11.973 11.973 0 0 1-4.02 8.503 2 2 0 0 1-2.658-2.99 7.974 7.974 0 0 0 2.681-5.667zM320.218 213a2 2 0 1 1 0 4h-8a2 2 0 0 1 0-4h8zm-18 0a2 2 0 1 1 0 4h-8a2 2 0 0 1 0-4h8zm-18 0a2 2 0 1 1 0 4h-8a2 2 0 0 1 0-4h8zm-18 0a2 2 0 1 1 0 4h-8a2 2 0 0 1 0-4h8zm-18 0a2 2 0 1 1 0 4h-8a2 2 0 0 1 0-4h8zm-18 0a2 2 0 1 1 0 4h-8a2 2 0 0 1 0-4h8zm-18 0a2 2 0 1 1 0 4h-8a2 2 0 0 1 0-4h8zm-18 0a2 2 0 1 1 0 4h-8a2 2 0 0 1 0-4h8zm-18 0a2 2 0 1 1 0 4h-8a2 2 0 0 1 0-4h8zm-18 0a2 2 0 1 1 0 4h-8a2 2 0 0 1 0-4h8zM89 155.827a2 2 0 1 1-4 0v-8a2 2 0 0 1 4 0v8zm0-18a2 2 0 1 1-4 0v-8a2 2 0 0 1 4 0v8z" fill="#EEE" fill-rule="nonzero"/><path d="M175.116 125.116A10.002 10.002 0 0 1 166 131H54c-5.523 0-10-4.477-10-10V31a10 10 0 0 1 5.884-9.116A9.964 9.964 0 0 0 49 26v90c0 5.523 4.477 10 10 10h112c1.467 0 2.86-.316 4.116-.884z" fill="#F9F9F9"/><path d="M59 20a6 6 0 0 0-6 6v90a6 6 0 0 0 6 6h112a6 6 0 0 0 6-6V26a6 6 0 0 0-6-6H59zm0-4h112c5.523 0 10 4.477 10 10v90c0 5.523-4.477 10-10 10H59c-5.523 0-10-4.477-10-10V26c0-5.523 4.477-10 10-10z" fill="#EEE" fill-rule="nonzero"/><path d="M73 58h4a3 3 0 0 1 3 3v45H70V61a3 3 0 0 1 3-3z" fill="#EFEDF8"/><path d="M93 70h4a3 3 0 0 1 3 3v33H90V73a3 3 0 0 1 3-3z" fill="#E1DBF1"/><path d="M153 70h4a3 3 0 0 1 3 3v33h-10V73a3 3 0 0 1 3-3z" fill="#C3B8E3"/><path d="M133 89h4a3 3 0 0 1 3 3v14h-10V92a3 3 0 0 1 3-3z" fill="#EFEDF8"/><path d="M113 46h4a3 3 0 0 1 3 3v57h-10V49a3 3 0 0 1 3-3z" fill="#6B4FBB"/><path d="M385.4 191.418A10.004 10.004 0 0 1 376 198H221c-5.523 0-10-4.477-10-10V74a9.992 9.992 0 0 1 4.6-8.418A9.981 9.981 0 0 0 215 69v114c0 5.523 4.477 10 10 10h155c1.99 0 3.843-.58 5.4-1.582z" fill="#F9F9F9" opacity=".99"/><path d="M225 63a6 6 0 0 0-6 6v114a6 6 0 0 0 6 6h155a6 6 0 0 0 6-6V69a6 6 0 0 0-6-6H225zm0-4h155c5.523 0 10 4.477 10 10v114c0 5.523-4.477 10-10 10H225c-5.523 0-10-4.477-10-10V69c0-5.523 4.477-10 10-10z" fill="#EEE" fill-rule="nonzero"/><g transform="translate(238 92)"><path d="M44.584 31.917L28.808 49.434a2 2 0 0 1-2.695.255L3.791 32.749a2 2 0 0 1 2.418-3.186l20.858 15.828 15.966-17.73a2 2 0 0 1 2.912-.064l16.09 16.344L77.35.058c.641-1.838 3.263-1.77 3.808.098l19.827 67.92 22.3-37.106a2 2 0 0 1 3.43 2.06l-24.656 41.024c-.898 1.494-3.145 1.204-3.634-.47L79.07 7.273l-14.315 41.02a2 2 0 0 1-3.314.745L44.584 31.917z" fill="#FEF0E8" fill-rule="nonzero"/><circle fill="#FEE1D3" cx="100" cy="71" r="4"/><circle fill="#FDC4A8" cx="44" cy="30" r="4"/><circle stroke="#FC6D26" stroke-width="4" fill="#FFF" cx="5" cy="32" r="5"/><circle stroke="#FC6D26" stroke-width="4" fill="#FFF" cx="125" cy="32" r="5"/></g><path d="M80.41 166.41C72.69 175.07 68 186.486 68 199c0 27.062 21.938 49 49 49 12.513 0 23.93-4.69 32.59-12.41C140.618 245.66 127.55 252 113 252c-27.062 0-49-21.938-49-49 0-14.549 6.34-27.617 16.41-36.59z" fill="#F9F9F9"/><path d="M117 244c24.853 0 45-20.147 45-45s-20.147-45-45-45-45 20.147-45 45 20.147 45 45 45zm0 4c-27.062 0-49-21.938-49-49s21.938-49 49-49 49 21.938 49 49-21.938 49-49 49z" fill="#EEE" fill-rule="nonzero"/><path d="M117 223c-13.255 0-24-10.745-24-24s10.745-24 24-24 24 10.745 24 24-10.745 24-24 24zm0-12c6.627 0 12-5.373 12-12s-5.373-12-12-12-12 5.373-12 12 5.373 12 12 12z" fill="#FEF0E8"/><path d="M117 175c13.255 0 24 10.745 24 24 0 .674-.028 1.34-.082 2h-12.084c.11-.65.166-1.319.166-2 0-6.627-5.373-12-12-12v-12z" fill="#FDC4A8"/></g></svg>