<svg xmlns="http://www.w3.org/2000/svg" width="226" height="178" viewBox="0 0 226 178"><g fill="none" fill-rule="evenodd"><path fill="#EEE" fill-rule="nonzero" d="M109.496 165.895a78.17 78.17 0 0 0 6.158.08 2 2 0 0 0-.11-4c-1.94.053-3.886.028-5.84-.074a2 2 0 0 0-2.1 1.893 1.996 1.996 0 0 0 1.89 2.102zm18.408-1.245a76 76 0 0 0 6-1.4 2 2 0 1 0-1.064-3.856c-1.875.52-3.772.96-5.686 1.327a2.001 2.001 0 0 0 .75 3.93zm17.572-5.636a76.28 76.28 0 0 0 5.486-2.803 2 2 0 1 0-1.962-3.485 72.42 72.42 0 0 1-5.2 2.656 2.003 2.003 0 0 0 1.676 3.635zm44.342-74.897a75.786 75.786 0 0 0-.674-6.127 2.002 2.002 0 0 0-3.956.598c.29 1.92.505 3.857.64 5.805a1.998 1.998 0 0 0 2.133 1.857 2 2 0 0 0 1.858-2.133zm-3.505-18.144a76.141 76.141 0 0 0-2.13-5.78 2.001 2.001 0 0 0-3.695 1.534 72.381 72.381 0 0 1 2.02 5.476 1.999 1.999 0 1 0 3.805-1.229zm-7.754-16.73a77.053 77.053 0 0 0-3.454-5.1 1.998 1.998 0 0 0-2.797-.423 1.998 1.998 0 0 0-.424 2.796 73.06 73.06 0 0 1 3.273 4.835c.58.94 1.814 1.23 2.753.647a2.001 2.001 0 0 0 .646-2.754zm-11.582-14.446a76.37 76.37 0 0 0-4.572-4.128 1.999 1.999 0 1 0-2.559 3.073 72.633 72.633 0 0 1 4.334 3.913 2.001 2.001 0 1 0 2.798-2.86zm-101.422-4.91a77.634 77.634 0 0 0-4.64 4.05 2.001 2.001 0 0 0 2.749 2.906 72.611 72.611 0 0 1 4.4-3.84 2 2 0 1 0-2.509-3.115zM52.7 43.062a75.962 75.962 0 0 0-3.546 5.04 2 2 0 1 0 3.363 2.168 72.314 72.314 0 0 1 3.36-4.777 2 2 0 0 0-3.177-2.432zm-9.373 15.924c-.82 1.882-1.56 3.8-2.226 5.745a2 2 0 1 0 3.787 1.294 72.253 72.253 0 0 1 2.108-5.443 1.998 1.998 0 0 0-1.036-2.63 2.001 2.001 0 0 0-2.633 1.036zm-5.26 17.74a76.33 76.33 0 0 0-.777 6.11 2 2 0 0 0 3.985.347c.17-1.947.415-3.88.737-5.793a2 2 0 0 0-3.945-.664zM74.87 155.55a76.028 76.028 0 0 0 5.437 2.897 2 2 0 1 0 1.737-3.603 71.34 71.34 0 0 1-5.152-2.745 1.998 1.998 0 0 0-2.737.714 2.002 2.002 0 0 0 .715 2.738zm16.97 7.34a76.606 76.606 0 0 0 5.975 1.498 2 2 0 1 0 .816-3.916 72.52 72.52 0 0 1-5.662-1.42 1.999 1.999 0 1 0-1.129 3.837z"/><path fill="#F9F9F9" d="M2.12 130c-.08.99-.12 1.99-.12 3 0 20.435 16.565 37 37 37s37-16.565 37-37c0-1.01-.04-2.01-.12-3-1.527 19.032-17.455 34-36.88 34-19.425 0-35.353-14.968-36.88-34z"/><path fill="#EEE" fill-rule="nonzero" d="M39 166c-21.54 0-39-17.46-39-39s17.46-39 39-39 39 17.46 39 39-17.46 39-39 39zm0-4c19.33 0 35-15.67 35-35S58.33 92 39 92 4 107.67 4 127s15.67 35 35 35z"/><path fill="#FDC4A8" fill-rule="nonzero" d="M53.925 116.226A1.995 1.995 0 0 0 53 116H25a1.99 1.99 0 0 0-.898.212l14.663 13.406c.39.357.99.348 1.37-.02l13.79-13.372zm1.075 4.53L42.92 132.47a5 5 0 0 1-6.854.1L23 120.624V138a2 2 0 0 0 2 2h28a2 2 0 0 0 2-2v-17.244zM25 112h28a6 6 0 0 1 6 6v20a6 6 0 0 1-6 6H25a6 6 0 0 1-6-6v-20a6 6 0 0 1 6-6z"/><path fill="#F9F9F9" d="M150.12 131c-.08.99-.12 1.99-.12 3 0 20.435 16.565 37 37 37s37-16.565 37-37c0-1.01-.04-2.01-.12-3-1.527 19.032-17.455 34-36.88 34-19.425 0-35.353-14.968-36.88-34z"/><path fill="#EEE" fill-rule="nonzero" d="M187 167c-21.54 0-39-17.46-39-39s17.46-39 39-39 39 17.46 39 39-17.46 39-39 39zm0-4c19.33 0 35-15.67 35-35s-15.67-35-35-35-35 15.67-35 35 15.67 35 35 35z"/><path fill="#E1DBF1" fill-rule="nonzero" d="M180.51 137H199a2 2 0 0 0 2-2v-16a2 2 0 0 0-2-2h-24a2 2 0 0 0-2 2v22.743l7.51-4.743zm1.157 4l-9.6 6.062a2 2 0 0 1-3.067-1.69V119a6 6 0 0 1 6-6h24a6 6 0 0 1 6 6v16a6 6 0 0 1-6 6h-17.333z"/><path fill="#6B4FBB" d="M180 129a2 2 0 1 1-.001-3.999A2 2 0 0 1 180 129zm7 0a2 2 0 1 1-.001-3.999A2 2 0 0 1 187 129zm7 0a2 2 0 1 1-.001-3.999A2 2 0 0 1 194 129z"/><g><path fill="#F9F9F9" d="M76.12 42c-.08.99-.12 1.99-.12 3 0 20.435 16.565 37 37 37s37-16.565 37-37c0-1.01-.04-2.01-.12-3-1.527 19.032-17.455 34-36.88 34-19.425 0-35.353-14.968-36.88-34z"/><path fill="#EEE" fill-rule="nonzero" d="M113 78c-21.54 0-39-17.46-39-39S91.46 0 113 0s39 17.46 39 39-17.46 39-39 39zm0-4c19.33 0 35-15.67 35-35S132.33 4 113 4 78 19.67 78 39s15.67 35 35 35z"/><g transform="translate(133 35)"><rect width="7" height="1" y="3" fill="#E1DBF2" rx=".5"/><path fill="#6B4FBB" d="M1.5 7a3.5 3.5 0 1 0 0-7v7z"/></g><g transform="matrix(-1 0 0 1 93 35)"><rect width="7" height="1" y="3" fill="#E1DBF2" rx=".5"/><path fill="#6B4FBB" d="M1.5 7a3.5 3.5 0 1 0 0-7v7z"/></g><path fill="#E1DBF1" fill-rule="nonzero" d="M113 58c10.493 0 19-8.507 19-19s-8.507-19-19-19-19 8.507-19 19 8.507 19 19 19zm0 4c-12.703 0-23-10.297-23-23s10.297-23 23-23 23 10.297 23 23-10.297 23-23 23z"/><path fill="#6B4FBB" d="M109 56a1 1 0 1 1 0-2 1 1 0 0 1 0 2zm4 0a1 1 0 1 1 0-2 1 1 0 0 1 0 2zm4 0a1 1 0 1 1 0-2 1 1 0 0 1 0 2z"/><path fill="#E1DBF1" fill-rule="nonzero" d="M97.5 40c0-5.8 4.698-10.5 10.494-10.5h10.012c5.796 0 10.494 4.7 10.494 10.5s-4.698 10.5-10.494 10.5h-10.012C102.198 50.5 97.5 45.8 97.5 40zm3 0c0 4.143 3.355 7.5 7.494 7.5h10.012A7.496 7.496 0 0 0 125.5 40c0-4.143-3.355-7.5-7.494-7.5h-10.012A7.496 7.496 0 0 0 100.5 40z"/><path fill="#6B4FBB" fill-rule="nonzero" d="M109.255 42.406a.998.998 0 0 1 .584-1.287.997.997 0 0 1 1.287.583 2 2 0 0 0 3.76-.038 1 1 0 0 1 1.886.665 4.001 4.001 0 0 1-7.518.076zM105.5 40a1.5 1.5 0 1 1 .001-3.001A1.5 1.5 0 0 1 105.5 40zm15 0a1.5 1.5 0 1 1 .001-3.001A1.5 1.5 0 0 1 120.5 40z"/><path fill="#6B4FBB" d="M112 22h2a1 1 0 0 1 0 2h-2a1 1 0 0 1 0-2zm0 3h2a1 1 0 0 1 0 2h-2a1 1 0 0 1 0-2z" style="mix-blend-mode:multiply"/></g></g></svg>