<svg xmlns="http://www.w3.org/2000/svg" id="Layer_1" viewBox="0 0 121.94154 121.84154" width="121.942" height="121.842"><style id="style200">.st0{fill:#ecb32d}.st1{fill:#63c1a0}.st2{fill:#e01a59}.st3{fill:#331433}.st4{fill:#d62027}.st5{fill:#89d3df}.st6{fill:#258b74}.st7{fill:#819c3c}</style><path class="st0" d="M79.03 7.511c-1.9-5.7-8-8.8-13.7-7-5.7 1.9-8.8 8-7 13.7l28.1 86.4c1.9 5.3 7.7 8.3 13.2 6.7 5.8-1.7 9.3-7.8 7.4-13.4 0-.2-28-86.4-28-86.4z" id="path202" fill="#ecb32d"/><path class="st1" d="M35.53 21.611c-1.9-5.7-8-8.8-13.7-7-5.7 1.9-8.8 8-7 13.7l28.1 86.4c1.9 5.3 7.7 8.3 13.2 6.7 5.8-1.7 9.3-7.8 7.4-13.4 0-.2-28-86.4-28-86.4z" id="path204" fill="#63c1a0"/><path class="st2" d="M114.43 79.011c5.7-1.9 8.8-8 7-13.7-1.9-5.7-8-8.8-13.7-7l-86.5 28.2c-5.3 1.9-8.3 7.7-6.7 13.2 1.7 5.8 7.8 9.3 13.4 7.4.2 0 86.5-28.1 86.5-28.1z" id="path206" fill="#e01a59"/><path class="st3" d="M39.23 103.511c5.6-1.8 12.9-4.2 20.7-6.7-1.8-5.6-4.2-12.9-6.7-20.7l-20.7 6.7z" id="path208" fill="#331433"/><path class="st4" d="M82.83 89.311c7.8-2.5 15.1-4.9 20.7-6.7-1.8-5.6-4.2-12.9-6.7-20.7l-20.7 6.7z" id="path210" fill="#d62027"/><path class="st5" d="M100.23 35.511c5.7-1.9 8.8-8 7-13.7-1.9-5.7-8-8.8-13.7-7l-86.4 28.1c-5.3 1.9-8.3 7.7-6.7 13.2 1.7 5.8 7.8 9.3 13.4 7.4.2 0 86.4-28 86.4-28z" id="path212" fill="#89d3df"/><path class="st6" d="M25.13 59.911c5.6-1.8 12.9-4.2 20.7-6.7-2.5-7.8-4.9-15.1-6.7-20.7l-20.7 6.7z" id="path214" fill="#258b74"/><path class="st7" d="M68.63 45.811c7.8-2.5 15.1-4.9 20.7-6.7-2.5-7.8-4.9-15.1-6.7-20.7l-20.7 6.7z" id="path216" fill="#819c3c"/></svg>