<svg xmlns="http://www.w3.org/2000/svg" viewBox="0 0 293 216"><g fill="none" fill-rule="evenodd"><g transform="rotate(-5 211.388 -693.89)"><rect width="163.6" height="200" x=".2" fill="#FFF" stroke="#EEE" stroke-width="3" stroke-linecap="round" stroke-dasharray="6 9" rx="6"/><g transform="translate(24 38)"><path fill="#FC6D26" d="M18.2 14l-4-3.8c-.4-.6-1.4-.6-2 0-.6.6-.6 1.5 0 2l5 5c.3.4.6.5 1 .5s.8 0 1-.4L28 8.8c.6-.6.6-1.5 0-2-.6-.7-1.6-.7-2 0L18 14z"/><path stroke="#6B4FBB" stroke-width="3" d="M27 23.3V27c0 2.3-1.7 4-4 4H4c-2.3 0-4-1.7-4-4V8c0-2.3 1.7-4 4-4h3.8" stroke-linecap="round"/><rect width="76" height="3" x="40" y="11" fill="#6B4FBB" opacity=".5" rx="1.5"/><rect width="43" height="3" x="40" y="21" fill="#6B4FBB" opacity=".5" rx="1.5"/></g><g transform="translate(24 83)"><path fill="#FC6D26" d="M18.2 14l-4-3.8c-.4-.6-1.4-.6-2 0-.6.6-.6 1.5 0 2l5 5c.3.4.6.5 1 .5s.8 0 1-.4L28 8.8c.6-.6.6-1.5 0-2-.6-.7-1.6-.7-2 0L18 14z"/><path stroke="#6B4FBB" stroke-width="3" d="M27 23.3V27c0 2.3-1.7 4-4 4H4c-2.3 0-4-1.7-4-4V8c0-2.3 1.7-4 4-4h3.8" stroke-linecap="round"/><rect width="76" height="3" x="40" y="11" fill="#B5A7DD" rx="1.5"/><rect width="43" height="3" x="40" y="21" fill="#B5A7DD" rx="1.5"/></g><g transform="translate(24 130)"><path fill="#FC6D26" d="M18.2 14l-4-3.8c-.4-.6-1.4-.6-2 0-.6.6-.6 1.5 0 2l5 5c.3.4.6.5 1 .5s.8 0 1-.4L28 8.8c.6-.6.6-1.5 0-2-.6-.7-1.6-.7-2 0L18 14z"/><path stroke="#6B4FBB" stroke-width="3" d="M27 23.3V27c0 2.3-1.7 4-4 4H4c-2.3 0-4-1.7-4-4V8c0-2.3 1.7-4 4-4h3.8" stroke-linecap="round"/><rect width="76" height="3" x="40" y="11" fill="#B5A7DD" rx="1.5"/><rect width="43" height="3" x="40" y="21" fill="#B5A7DD" rx="1.5"/></g></g><path fill="#FFCE29" d="M30 11l-1.8 4-2-4-4-1.8 4-2 2-4 2 4 4 2M286 60l-2.7 6.3-3-6-6-3 6-3 3-6 2.8 6.2 6.6 2.8M263 97l-2 4-2-4-4-2 4-2 2-4 2 4 4 2M12 85l-2.7 6.3-3-6-6-3 6-3 3-6 2.8 6.2 6.6 2.8"/></g></svg>