<svg xmlns="http://www.w3.org/2000/svg" width="114" height="88" viewBox="0 0 114 88"><g fill="none" fill-rule="evenodd"><rect width="110" height="80" x="2" y="8" fill="#F9F9F9" rx="10"/><path fill="#FFF" d="M12 2h90c5.523 0 10 4.477 10 10v60c0 5.523-4.477 10-10 10H12C6.477 82 2 77.523 2 72V12C2 6.477 6.477 2 12 2z"/><path fill="#EEE" fill-rule="nonzero" d="M33 4v4.255A6.968 6.968 0 0 1 37 7h19a6.98 6.98 0 0 1 4.899 2H75a7 7 0 0 1 7 7v2h28v-6a8 8 0 0 0-8-8H33zm-3 0H12a8 8 0 0 0-8 8v60a8 8 0 0 0 8 8h18V4zm48 14v-2a3 3 0 0 0-3-3H62.93c.046.327.07.66.07 1v4h15zM12 0h90c6.627 0 12 5.373 12 12v60c0 6.627-5.373 12-12 12H12C5.373 84 0 78.627 0 72V12C0 5.373 5.373 0 12 0zm98 22H61a2 2 0 0 1-2-2v-6a3 3 0 0 0-3-3H37a3 3 0 0 0-3 3v66h68a8 8 0 0 0 8-8V22z"/><path fill="#EFEDF8" d="M52 36h40a2 2 0 1 1 0 4H52a2 2 0 1 1 0-4z"/><path fill="#E1DBF2" d="M52 46h30a2 2 0 1 1 0 4H52a2 2 0 1 1 0-4z"/><path fill="#EFEDF8" d="M52 56h40a2 2 0 1 1 0 4H52a2 2 0 1 1 0-4z"/><path fill="#E1DBF2" d="M52 66h30a2 2 0 1 1 0 4H52a2 2 0 1 1 0-4zM10 16h14a2 2 0 1 1 0 4H10a2 2 0 1 1 0-4zm0 10h10a2 2 0 1 1 0 4H10a2 2 0 1 1 0-4z"/><path fill="#EFEDF8" d="M10 36h14a2 2 0 1 1 0 4H10a2 2 0 1 1 0-4z"/><path fill="#6B4FBB" d="M10 46h10a2 2 0 1 1 0 4H10a2 2 0 1 1 0-4z"/><path fill="#E1DBF2" d="M10 56h14a2 2 0 1 1 0 4H10a2 2 0 1 1 0-4z"/><path fill="#EFEDF8" d="M10 66h10a2 2 0 1 1 0 4H10a2 2 0 1 1 0-4z"/></g></svg>