<svg xmlns="http://www.w3.org/2000/svg" width="386" height="298" viewBox="0 0 386 298" xmlns:xlink="http://www.w3.org/1999/xlink"><defs><path id="a" d="M4 51h16v15.997A5.003 5.003 0 0 1 15.003 72H8.997A5.005 5.005 0 0 1 4 66.997V51z"/><rect id="b" width="24" height="10" y="44" rx="3"/></defs><g fill="none" fill-rule="evenodd" transform="translate(0 3)"><g transform="rotate(15 23.151 968.24)"><rect width="53" height="44" fill="#FFF" stroke="#FDE5D8" stroke-width="3" stroke-linecap="round" rx="5"/><path fill="#FDE5D8" d="M29.5 28.3l2.758-3.861c.962-1.347 2.527-1.34 3.484 0l6.516 9.122c.962 1.347.399 2.439-1.252 2.439H17.994c-1.653 0-2.21-1.099-1.252-2.439l6.516-9.122c.962-1.347 2.527-1.34 3.484 0L29.5 28.3z" opacity=".6"/><circle cx="16" cy="16" r="6" fill="#FDB997"/></g><g transform="scale(-1 1) rotate(25 -75.08 -334.15)"><rect width="3" height="11" x="12.45" y="23.45" fill="#6B4FBB" transform="rotate(45 13.95 28.95)" rx="1.5"/><rect width="3" height="14" x="9.45" y="15.45" fill="#6B4FBB" transform="rotate(45 10.95 22.45)" rx="1.5"/><path fill="#FFF" stroke="#E1DCF1" stroke-width="3" d="M16 39.6C6.871 37.747 0 29.676 0 20 0 8.954 8.954 0 20 0s20 8.954 20 20c0 8.955-5.886 16.536-14 19.084v15.91A5.007 5.007 0 0 1 21 60c-2.761 0-5-2.244-5-5.006V39.6zm4-7.6c6.627 0 12-5.373 12-12S26.627 8 20 8 8 13.373 8 20s5.373 12 12 12z"/></g><g transform="scale(1 -1) rotate(-15 -383.616 -172.407)"><path stroke="#FDE5D8" stroke-width="3" d="M1.5 38.5h9V4c0-1.378-1.12-2.5-2.496-2.5H3.996A2.503 2.503 0 0 0 1.5 4v34.5z"/><rect width="2" height="27" x="5" y="7" fill="#FDA77D" opacity=".8" rx="1"/><path stroke="#FDE5D8" stroke-width="3" d="M2.427 41.553h7.146L6 48.699l-3.573-7.146z"/></g><g transform="rotate(-30 420.145 -545.422)"><path fill="#FFF" stroke="#FDE5D8" stroke-width="3" d="M9 3c0-1.657 1.347-3 3-3 1.657 0 3 1.352 3 3v43H9V3z"/><use fill="#FFF" xlink:href="#a"/><path stroke="#FDE5D8" stroke-width="3" d="M5.5 52.5v14.497A3.505 3.505 0 0 0 8.997 70.5h6.006a3.503 3.503 0 0 0 3.497-3.503V52.5h-13z"/><rect width="2" height="14" x="9" y="51" fill="#FDA77D" rx="1"/><rect width="2" height="14" x="13" y="51" fill="#FDA77D" rx="1"/><use fill="#FFF" xlink:href="#b"/><rect width="21" height="7" x="1.5" y="45.5" stroke="#FDE5D8" stroke-width="3" rx="3"/></g><g transform="translate(72 97.488)"><rect width="125" height="160" fill="#FFF" stroke="#E5E5E5" stroke-width="4" stroke-linecap="round" rx="10"/><rect width="125" height="160" x="125" fill="#FFF" stroke="#E5E5E5" stroke-width="4" stroke-linecap="round" rx="10"/><path fill="#FFF" stroke="#E5E5E5" stroke-width="4" d="M7 12.008C7 8.69 9.686 6 12.993 6H125v148H12.993C9.683 154 7 151.305 7 147.992V12.008zm236 0C243 8.69 240.314 6 237.007 6H125v148h112.007c3.31 0 5.993-2.695 5.993-6.008V12.008z" stroke-linecap="round"/><rect width="84" height="42" x="142" y="29" stroke="#EEE" stroke-width="4" rx="3"/><rect width="88" height="4" x="141" y="93" fill="#E5E5E5" rx="2"/><rect width="88" height="4" x="141" y="107" fill="#BFBFBF" rx="2"/><rect width="56" height="4" x="141" y="121" fill="#E5E5E5" rx="2"/><rect width="56" height="4" x="22" y="93" fill="#E5E5E5" rx="2"/><rect width="26" height="4" x="22" y="27" fill="#BFBFBF" rx="2"/><rect width="56" height="4" x="22" y="41" fill="#E5E5E5" rx="2"/><rect width="36" height="4" x="22" y="55" fill="#BFBFBF" rx="2"/><rect width="56" height="4" x="22" y="69" fill="#E5E5E5" rx="2"/><rect width="36" height="4" x="22" y="107" fill="#E5E5E5" rx="2"/><rect width="56" height="4" x="22" y="121" fill="#BFBFBF" rx="2"/></g><path stroke="#B5A7DD" stroke-width="2.5" d="M23.139 182.922l-1.347-.6a2.004 2.004 0 0 1-1.02-2.64l.815-1.831a1.995 1.995 0 0 1 2.645-1.01l1.308.583a9.959 9.959 0 0 1 2.177-1.876l-.376-1.402a2.004 2.004 0 0 1 1.41-2.455l1.937-.519a1.995 1.995 0 0 1 2.449 1.421l.375 1.402a9.959 9.959 0 0 1 2.824.536l.84-1.158a2.004 2.004 0 0 1 2.796-.448l1.622 1.178a1.995 1.995 0 0 1 .437 2.797l-.867 1.193a9.946 9.946 0 0 1 1.341 2.541l1.461-.05a2.004 2.004 0 0 1 2.075 1.926l.07 2.003a1.995 1.995 0 0 1-1.935 2.067l-1.445.05c-.256.93-.644 1.817-1.15 2.632l.944 1.087a2.004 2.004 0 0 1-.191 2.825l-1.513 1.315a1.995 1.995 0 0 1-2.824-.204l-.963-1.108a10.084 10.084 0 0 1-2.776.744l-.28 1.441a2.004 2.004 0 0 1-2.344 1.588l-1.967-.382a1.995 1.995 0 0 1-1.579-2.35l.275-1.414a10.044 10.044 0 0 1-2.312-1.704l-1.277.678a2.004 2.004 0 0 1-2.709-.822l-.94-1.77a1.995 1.995 0 0 1 .833-2.705l1.29-.687a9.946 9.946 0 0 1-.11-2.872zm10.98 4.93a4 4 0 1 0-2.07-7.727 4 4 0 0 0 2.07 7.728z"/><ellipse cx="197" cy="289.988" fill="#F9F9F9" rx="125" ry="4.5"/><path fill="#6B4FBB" d="M164 100.492a3.002 3.002 0 0 1 3.001-3.004H183a3.006 3.006 0 0 1 3.001 3.004v34.988c0 2.213-1.45 2.954-3.24 1.651l-7.76-5.643-7.76 5.643c-1.789 1.302-3.24.566-3.24-1.651v-34.988z"/><g opacity=".2"><path fill="#FC8A51" d="M5.747 234.768l-2.688 1.114c-1.017.422-1.803-.134-1.754-1.228l.128-2.907-1.115-2.688c-.422-1.017.135-1.803 1.229-1.754l2.907.128 2.687-1.115c1.018-.422 1.803.135 1.755 1.229l-.128 2.907 1.114 2.687c.422 1.018-.134 1.803-1.228 1.755l-2.907-.128zM191.564 37.953l-3.72.164c-1.326.059-1.992-.88-1.48-2.115l1.426-3.438-.164-3.72c-.059-1.326.88-1.992 2.115-1.48l3.438 1.426 3.72-.164c1.326-.059 1.992.88 1.48 2.114l-1.426 3.44.164 3.719c.059 1.326-.88 1.992-2.114 1.48l-3.44-1.426z"/><path fill="#6B4FBB" d="M348.789 75.876l-1.967-2.144c-.744-.812-.49-1.74.555-2.07l2.775-.873 2.144-1.967c.812-.744 1.74-.49 2.07.555l.873 2.775 1.967 2.144c.744.812.49 1.74-.555 2.07l-2.775.873-2.144 1.967c-.812.745-1.74.49-2.07-.555l-.873-2.775zm9.261 164.735l-2.907-.125c-1.1-.048-1.577-.884-1.07-1.855l1.344-2.58.126-2.908c.047-1.1.883-1.577 1.855-1.07l2.58 1.344 2.907.126c1.1.047 1.577.883 1.07 1.855l-1.344 2.58-.125 2.907c-.048 1.1-.884 1.577-1.856 1.07l-2.58-1.344zM88.789 75.876l-1.967-2.144c-.744-.812-.49-1.74.555-2.07l2.775-.873 2.144-1.967c.812-.744 1.74-.49 2.07.555l.873 2.775 1.967 2.144c.744.812.49 1.74-.555 2.07l-2.775.873-2.144 1.967c-.812.745-1.74.49-2.07-.555l-.873-2.775z"/></g></g></svg>