<svg xmlns="http://www.w3.org/2000/svg" width="412" height="260" viewBox="0 0 412 260" xmlns:xlink="http://www.w3.org/1999/xlink"><defs><path id="a" d="M6.447.894L12 12H0L5.553.894a.5.5 0 0 1 .894 0z"/></defs><g fill="none" fill-rule="evenodd"><path fill="#FEF0E8" fill-rule="nonzero" d="M338 50.287C322.695 41.45 303.124 46.694 294.287 62c-8.836 15.305-3.592 34.876 11.713 43.712 15.306 8.837 34.877 3.593 43.713-11.712 8.837-15.306 3.593-34.877-11.713-43.713zm2-3.464C357.22 56.763 363.118 78.78 353.177 96c-9.941 17.218-31.958 23.118-49.177 13.176-17.218-9.94-23.118-31.958-13.177-49.176C300.764 42.78 322.782 36.88 340 46.823z"/><g transform="rotate(-150 171.003 8.53)"><path fill="#FC6D26" fill-rule="nonzero" d="M4 16v25a2 2 0 1 0 4 0V16H4zm8-4v29a6 6 0 1 1-12 0V12h12z"/><use fill="#D8D8D8" xlink:href="#a"/><path stroke="#FDC4A8" stroke-width="4" d="M6 4.472L3.236 10h5.528L6 4.472z"/><path fill="#FC6D26" d="M9 6L6.447.894a.5.5 0 0 0-.894 0L3 6c.836.628 1.874 1 3 1a4.978 4.978 0 0 0 3-1z"/></g><path fill="#F9F9F9" d="M263.116 237.116A10.002 10.002 0 0 1 254 243h-86c-11.046 0-20-8.954-20-20V121c0-4.056 2.414-7.547 5.884-9.116A9.964 9.964 0 0 0 153 116v106c0 8.837 7.163 16 16 16h90c1.467 0 2.86-.316 4.116-.884z"/><path fill="#EEE" fill-rule="nonzero" d="M214.5 106H163c-5.523 0-10 4.477-10 10v106c0 8.837 7.163 16 16 16h90c5.523 0 10-4.477 10-10v-17.999a10.036 10.036 0 0 1-4 3.167V228a6 6 0 0 1-6 6h-90c-6.627 0-12-5.373-12-12V116a6 6 0 0 1 6-6h7v-4h44.5z"/><path fill="#EEE" fill-rule="nonzero" d="M260 218.268V214h-90a6 6 0 0 0 0 12h86a4 4 0 0 0 4-4v-.268a1.99 1.99 0 0 1-1 .268h-50a2 2 0 0 1 0-4h50c.364 0 .706.097 1 .268zM170 210h90.5a3.5 3.5 0 0 1 3.5 3.5v8.5a8 8 0 0 1-8 8h-86c-5.523 0-10-4.477-10-10s4.477-10 10-10z"/><path fill="#EEE" fill-rule="nonzero" d="M174 110v100h87a6 6 0 0 0 6-6v-88a6 6 0 0 0-6-6h-87zm-4-4h91c5.523 0 10 4.477 10 10v88c0 5.523-4.477 10-10 10h-91V106z"/><path fill="#EFEDF8" d="M230 99h18a6 6 0 0 1 6 6v31.35a3 3 0 0 1-4.68 2.484l-9.277-6.274a1.5 1.5 0 0 0-1.664-.01l-9.731 6.395a3 3 0 0 1-4.648-2.507V105a6 6 0 0 1 6-6z"/><path fill="#C3B8E3" fill-rule="nonzero" d="M236.182 129.207a5.5 5.5 0 0 1 6.102.04l7.716 5.219V105a2 2 0 0 0-2-2h-18a2 2 0 0 0-2 2v29.584l8.182-5.377zM230 99h18a6 6 0 0 1 6 6v31.35a3 3 0 0 1-4.68 2.484l-9.277-6.274a1.5 1.5 0 0 0-1.664-.01l-9.731 6.395a3 3 0 0 1-4.648-2.507V105a6 6 0 0 1 6-6z"/><g fill-rule="nonzero"><path fill="#EFEDF8" d="M156 74c14.912 0 27-12.088 27-27s-12.088-27-27-27-27 12.088-27 27 12.088 27 27 27zm0 4c-17.12 0-31-13.88-31-31s13.88-31 31-31 31 13.88 31 31-13.88 31-31 31z"/><path fill="#6B4FBB" d="M147.535 44.916l-.116 1.086a8.446 8.446 0 0 0 .093 2.44l.2 1.08-2.262 1.202a.495.495 0 0 0-.213.678l.941 1.77c.128.239.434.332.68.201l2.25-1.196.785.775a8.544 8.544 0 0 0 1.967 1.45l.975.522-.486 2.5a.495.495 0 0 0 .392.59l1.968.383a.504.504 0 0 0 .585-.401l.489-2.515 1.086-.13a8.584 8.584 0 0 0 2.363-.633l1.005-.43 1.68 1.933a.495.495 0 0 0 .708.055l1.513-1.315a.504.504 0 0 0 .044-.708l-1.67-1.922.583-.94c.431-.696.761-1.45.978-2.239l.292-1.063 2.547-.089a.495.495 0 0 0 .488-.515l-.07-2.003a.504.504 0 0 0-.523-.48l-2.56.09-.367-1.037a8.446 8.446 0 0 0-1.139-2.159l-.644-.882 1.509-2.076a.495.495 0 0 0-.106-.702l-1.621-1.178a.504.504 0 0 0-.7.116l-1.494 2.057-1.05-.362a8.459 8.459 0 0 0-2.398-.455l-1.1-.047-.66-2.466a.495.495 0 0 0-.613-.36l-1.936.519a.504.504 0 0 0-.35.617l.661 2.466-.93.59a8.459 8.459 0 0 0-1.848 1.594l-.728.838-2.322-1.034a.495.495 0 0 0-.665.25l-.815 1.83a.504.504 0 0 0 .26.661l2.344 1.044zm-3.565 1.697a3.504 3.504 0 0 1-1.78-4.622l.815-1.83a3.495 3.495 0 0 1 4.626-1.77l.346.154c.259-.245.529-.477.81-.697l-.106-.394a3.504 3.504 0 0 1 2.471-4.292l1.936-.519a3.495 3.495 0 0 1 4.286 2.481l.106.395c.353.05.703.116 1.05.198l.222-.306a3.504 3.504 0 0 1 4.89-.78l1.622 1.178a3.495 3.495 0 0 1 .769 4.892l-.258.355c.184.312.354.633.508.962l.42-.014a3.504 3.504 0 0 1 3.625 3.373l.07 2.003a3.495 3.495 0 0 1-3.382 3.618l-.4.014c-.127.332-.27.659-.426.978l.256.294a3.504 3.504 0 0 1-.34 4.941l-1.512 1.315a3.495 3.495 0 0 1-4.94-.351l-.283-.325a11.669 11.669 0 0 1-1.05.28l-.082.424a3.504 3.504 0 0 1-4.103 2.774l-1.967-.382a3.495 3.495 0 0 1-2.765-4.11l.075-.383a11.547 11.547 0 0 1-.858-.633l-.354.188a3.504 3.504 0 0 1-4.738-1.442l-.94-1.77a3.495 3.495 0 0 1 1.453-4.734l.37-.197a11.436 11.436 0 0 1-.041-1.088l-.4-.178zm13.326 5.608a5.5 5.5 0 1 1-2.847-10.625 5.5 5.5 0 0 1 2.847 10.625zm-.776-2.898a2.5 2.5 0 1 0-1.294-4.83 2.5 2.5 0 0 0 1.294 4.83z"/></g><g fill-rule="nonzero"><path fill="#EFEDF8" d="M326.979 222.047c14.403 3.86 29.209-4.688 33.068-19.092 3.86-14.403-4.688-29.209-19.092-33.068-14.403-3.86-29.209 4.688-33.068 19.092-3.86 14.404 4.688 29.209 19.092 33.068zm-1.035 3.864c-16.538-4.431-26.352-21.43-21.92-37.967 4.43-16.538 21.429-26.352 37.966-21.92 16.538 4.43 26.352 21.429 21.92 37.966-4.43 16.538-21.429 26.352-37.966 21.92z"/><path fill="#6B4FBB" d="M329.376 201.598c-4.668-2.621-7.155-8.157-5.706-13.566 1.715-6.402 8.295-10.201 14.697-8.486 6.402 1.716 10.2 8.296 8.485 14.697-1.45 5.41-6.371 8.96-11.725 8.897a3.03 3.03 0 0 1-.074.365l-1.812 6.761a3 3 0 0 1-5.795-1.552l1.812-6.762a3.03 3.03 0 0 1 .118-.354zm3.815-2.733a8 8 0 1 0 4.14-15.455 8 8 0 0 0-4.14 15.455z"/></g><path fill="#FEF0E8" fill-rule="nonzero" d="M91.373 193c17.071-4.574 27.202-22.12 22.628-39.191-4.575-17.071-22.121-27.202-39.192-22.628-17.071 4.574-27.202 22.121-22.628 39.192 4.574 17.071 22.121 27.202 39.192 22.627zm1.035 3.864c-19.204 5.146-38.945-6.25-44.09-25.456-5.146-19.204 6.25-38.945 25.455-44.09 19.205-5.146 38.945 6.25 44.091 25.455 5.146 19.205-6.25 38.945-25.456 44.091z"/><path fill="#FDC4A8" fill-rule="nonzero" d="M70.067 152.122l6.73 25.114 19.318-5.176-6.73-25.114-19.318 5.176zm-1.035-3.864l19.318-5.176a4 4 0 0 1 4.9 2.828l6.729 25.114a4 4 0 0 1-2.829 4.9L77.832 181.1a4 4 0 0 1-4.9-2.829l-6.729-25.114a4 4 0 0 1 2.829-4.899z"/><path fill="#FC6D26" d="M76.898 154.433l7.727-2.07a2 2 0 0 1 1.036 3.863l-7.728 2.07a2 2 0 1 1-1.035-3.863zm1.812 6.761l5.795-1.553a2 2 0 0 1 1.035 3.864l-5.795 1.553a2 2 0 1 1-1.035-3.864zm1.811 6.762l7.728-2.07a2 2 0 0 1 1.035 3.863l-7.727 2.07a2 2 0 1 1-1.036-3.863z"/></g></svg>