<svg xmlns="http://www.w3.org/2000/svg" width="78" height="82" viewBox="0 0 78 82"><g fill="none" fill-rule="evenodd"><path fill="#F9F9F9" d="M2.12 42c-.08.99-.12 1.99-.12 3 0 20.435 16.565 37 37 37s37-16.565 37-37c0-1.01-.04-2.01-.12-3C74.353 61.032 58.425 76 39 76S3.647 61.032 2.12 42z"/><path fill="#EEE" fill-rule="nonzero" d="M39 78C17.46 78 0 60.54 0 39S17.46 0 39 0s39 17.46 39 39-17.46 39-39 39zm0-4c19.33 0 35-15.67 35-35S58.33 4 39 4 4 19.67 4 39s15.67 35 35 35z"/><path fill="#E1DBF2" fill-rule="nonzero" d="M30 24c-2.21 0-4 1.79-4 4v22c0 2.21 1.79 4 4 4h18c2.21 0 4-1.79 4-4V28c0-2.21-1.79-4-4-4H30zm0-4h18a8 8 0 0 1 8 8v22a8 8 0 0 1-8 8H30a8 8 0 0 1-8-8V28a8 8 0 0 1 8-8z"/><path fill="#6B4FBB" d="M33 30h8a2 2 0 1 1 0 4h-8a2 2 0 1 1 0-4zm0 7h12a2 2 0 1 1 0 4H33a2 2 0 1 1 0-4zm0 7h12a2 2 0 1 1 0 4H33a2 2 0 1 1 0-4z"/></g></svg>