<svg xmlns="http://www.w3.org/2000/svg" width="78" height="82" viewBox="0 0 78 82"><g fill="none" fill-rule="evenodd"><path fill="#F9F9F9" d="M2.12 42c-.08.99-.12 1.99-.12 3 0 20.435 16.565 37 37 37s37-16.565 37-37c0-1.01-.04-2.01-.12-3C74.353 61.032 58.425 76 39 76S3.647 61.032 2.12 42z"/><path fill="#EEE" fill-rule="nonzero" d="M39 78C17.46 78 0 60.54 0 39S17.46 0 39 0s39 17.46 39 39-17.46 39-39 39zm0-4c19.33 0 35-15.67 35-35S58.33 4 39 4 4 19.67 4 39s15.67 35 35 35z"/><path fill="#6B4FBB" d="M33 52h12a2 2 0 1 1 0 4H33a2 2 0 1 1 0-4zm1 5h10a2 2 0 1 1 0 4H34a2 2 0 1 1 0-4z"/><path fill="#E1DBF2" fill-rule="nonzero" d="M45.542 46.932l.346-2.36a8.004 8.004 0 0 1 1.566-3.705c3.025-3.946 4.485-7.29 4.547-9.96C52.153 24.41 46.843 20 39 20c-7.777 0-13 4.374-13 11 0 2.4 1.462 5.73 4.573 9.846a8.009 8.009 0 0 1 1.536 3.683l.353 2.456 13.08-.054zm-17.038.624L28.15 45.1a3.997 3.997 0 0 0-.768-1.842C23.794 38.51 22 34.424 22 31c0-9.39 7.61-15 17-15s17.218 5.614 17 15c-.085 3.64-1.875 7.74-5.37 12.3a3.99 3.99 0 0 0-.784 1.853l-.346 2.36a4.003 4.003 0 0 1-3.942 3.42l-13.08.053a4 4 0 0 1-3.974-3.43z"/><path fill="#6B4FBB" d="M41 38.732a2 2 0 1 1 2 0V42a1 1 0 0 1-2 0v-3.268zm-6 0a2 2 0 1 1 2 0V42a1 1 0 0 1-2 0v-3.268z"/></g></svg>