<svg xmlns="http://www.w3.org/2000/svg" width="106" height="110" viewBox="0 0 106 110" xmlns:xlink="http://www.w3.org/1999/xlink"><defs><circle id="a" cx="20" cy="40" r="5"/><circle id="b" cx="20" cy="20" r="20"/></defs><g fill="none" fill-rule="evenodd"><rect width="106" height="106" y="4" fill="#F9F9F9" rx="12"/><rect width="106" height="106" fill="#FFF" rx="10"/><path fill="#EEE" fill-rule="nonzero" d="M10 4a6 6 0 0 0-6 6v86a6 6 0 0 0 6 6h86a6 6 0 0 0 6-6V10a6 6 0 0 0-6-6H10zm0-4h86c5.523 0 10 4.477 10 10v86c0 5.523-4.477 10-10 10H10c-5.523 0-10-4.477-10-10V10C0 4.477 4.477 0 10 0z"/><path fill="#FDC4A8" d="M79.187 33.187l-.974 1.782a.3.3 0 0 1-.527 0l-.974-1.782-1.781-.974a.3.3 0 0 1 0-.526l1.781-.974.974-1.782a.3.3 0 0 1 .527 0l.974 1.782 1.781.974a.3.3 0 0 1 0 .526l-1.78.974z"/><path fill="#FEE1D3" d="M84.955 70.955l-1.328 2.428a.3.3 0 0 1-.526 0l-1.328-2.428-2.428-1.328a.3.3 0 0 1 0-.526l2.428-1.328 1.328-2.428a.3.3 0 0 1 .526 0l1.328 2.428 2.428 1.328a.3.3 0 0 1 0 .526l-2.428 1.328z"/><path fill="#FC6D26" d="M19.187 65.187l-.974 1.782a.3.3 0 0 1-.527 0l-.974-1.782-1.781-.974a.3.3 0 0 1 0-.526l1.781-.974.974-1.782a.3.3 0 0 1 .527 0l.974 1.782 1.781.974a.3.3 0 0 1 0 .526l-1.78.974z"/><ellipse cx="53" cy="90" fill="#F9F9F9" rx="22" ry="2"/><path fill="#6B4FBB" fill-rule="nonzero" d="M45.215 59.777c0 9.383 2.722 16.768 9.284 19.746 3.385 1.537 5.542 1.513 8.965.543.793-.224.868-.245 1.171-.321 2.864-.715 4.901-.054 8.558 3.637a1 1 0 1 0 1.42-1.407c-4.132-4.172-6.882-5.064-10.462-4.17-.333.083-.412.105-1.232.337-3.01.852-4.705.87-7.594-.44-5.647-2.564-8.11-9.245-8.11-17.925a1 1 0 1 0-2 0z"/><g transform="rotate(-5 227.182 -255.297)"><use fill="#FFF" xlink:href="#a"/><circle cx="20" cy="40" r="3" stroke="#C3B8E3" stroke-width="4"/><use fill="#FFF" xlink:href="#b"/><circle cx="20" cy="20" r="18" stroke="#C3B8E3" stroke-width="4"/></g><path fill="#6B4FBB" d="M44.535 40.745l-1.856.975a1 1 0 0 1-1.451-1.054l.354-2.066a1 1 0 0 0-.287-.885l-1.501-1.464a1 1 0 0 1 .554-1.705l2.074-.302a1 1 0 0 0 .753-.547l.928-1.88a1 1 0 0 1 1.794 0l.928 1.88a1 1 0 0 0 .753.547l2.074.302a1 1 0 0 1 .554 1.705l-1.5 1.464a1 1 0 0 0-.288.885l.354 2.066a1 1 0 0 1-1.451 1.054l-1.856-.975a1 1 0 0 0-.93 0z"/></g></svg>