<svg xmlns="http://www.w3.org/2000/svg" viewBox="0 0 106 110" xmlns:xlink="http://www.w3.org/1999/xlink"><defs><path id="1" d="m45 25.823c9.187 0 25-2.539 25-10.823 0-8.284-11.193-15-25-15-13.807 0-25 6.716-25 15 0 8.284 15.813 10.823 25 10.823" fill="#fff"/><ellipse id="0" cx="45" cy="28" rx="45" ry="17"/></defs><g fill="none" fill-rule="evenodd"><rect width="106" height="106" y="4" fill="#f9f9f9" rx="12"/><rect width="106" height="106" fill="#fff" rx="10"/><path fill="#eee" fill-rule="nonzero" d="m10 4c-3.314 0-6 2.686-6 6v86c0 3.314 2.686 6 6 6h86c3.314 0 6-2.686 6-6v-86c0-3.314-2.686-6-6-6h-86m0-4h86c5.523 0 10 4.477 10 10v86c0 5.523-4.477 10-10 10h-86c-5.523 0-10-4.477-10-10v-86c0-5.523 4.477-10 10-10"/><g transform="translate(8 11)"><g fill-rule="nonzero" transform="translate(16 47)"><path fill="#fef0e8" d="m4.455 1.761c4.504 2.62 13.518 4.239 23.545 4.239 9.962 0 18.929-1.599 23.459-4.19.959-.548 1.292-1.77.743-2.729-.548-.959-1.77-1.292-2.729-.743-3.802 2.174-12.146 3.662-21.474 3.662-9.383 0-17.767-1.506-21.533-3.697-.955-.555-2.179-.232-2.734.723-.555.955-.232 2.179.723 2.734"/><path fill="#fdc4a8" d="m2.888 11.835c4.995 2.569 14.991 4.165 26.11 4.165 11.04 0 20.978-1.574 26.01-4.111.986-.498 1.382-1.7.884-2.687-.498-.986-1.7-1.382-2.687-.884-4.352 2.197-13.734 3.682-24.2 3.682-10.54 0-19.974-1.506-24.282-3.722-.982-.505-2.188-.118-2.693.864-.505.982-.118 2.188.864 2.693"/><path fill="#fc6d26" d="m1.289 21.931c5.361 2.508 15.948 4.069 27.711 4.069 11.581 0 22.03-1.513 27.465-3.956 1.01-.453 1.457-1.637 1-2.644-.453-1.01-1.637-1.457-2.644-1-4.813 2.164-14.759 3.604-25.825 3.604-11.229 0-21.298-1.484-26.02-3.692-1-.468-2.191-.037-2.659.964-.468 1-.037 2.191.964 2.659"/><path fill="#fef0e8" d="m-.617 31.881c5.631 2.534 16.981 4.119 29.617 4.119 12.637 0 23.987-1.586 29.618-4.12 1.01-.453 1.456-1.637 1-2.645-.453-1.01-1.637-1.456-2.645-1-5 2.251-15.857 3.768-27.976 3.768-12.12 0-22.973-1.517-27.975-3.767-1.01-.453-2.191-.004-2.645 1-.453 1.01-.004 2.191 1 2.645"/></g><use fill="#fff" xlink:href="#0"/><ellipse cx="45" cy="28" stroke="#e1dbf1" stroke-width="4" rx="43" ry="15"/><use xlink:href="#1"/><path stroke="#c3b8e3" stroke-width="4" d="m45 23.823c12.11 0 23-3.567 23-8.823 0-6.908-10.154-13-23-13-12.846 0-23 6.092-23 13 0 5.256 10.894 8.823 23 8.823"/><path fill="#6b4fbb" d="m14.5 29c-1.381 0-2.5-1.119-2.5-2.5 0-1.381 1.119-2.5 2.5-2.5 1.381 0 2.5 1.119 2.5 2.5 0 1.381-1.119 2.5-2.5 2.5m11 5c-1.381 0-2.5-1.119-2.5-2.5 0-1.381 1.119-2.5 2.5-2.5 1.381 0 2.5 1.119 2.5 2.5 0 1.381-1.119 2.5-2.5 2.5m13 2c-1.381 0-2.5-1.119-2.5-2.5 0-1.381 1.119-2.5 2.5-2.5 1.381 0 2.5 1.119 2.5 2.5 0 1.381-1.119 2.5-2.5 2.5m13 0c-1.381 0-2.5-1.119-2.5-2.5 0-1.381 1.119-2.5 2.5-2.5 1.381 0 2.5 1.119 2.5 2.5 0 1.381-1.119 2.5-2.5 2.5m13-2c-1.381 0-2.5-1.119-2.5-2.5 0-1.381 1.119-2.5 2.5-2.5 1.381 0 2.5 1.119 2.5 2.5 0 1.381-1.119 2.5-2.5 2.5m11-5c-1.381 0-2.5-1.119-2.5-2.5 0-1.381 1.119-2.5 2.5-2.5 1.381 0 2.5 1.119 2.5 2.5 0 1.381-1.119 2.5-2.5 2.5"/></g></g></svg>
