<svg xmlns="http://www.w3.org/2000/svg" viewBox="0 0 106 110" xmlns:xlink="http://www.w3.org/1999/xlink"><defs><circle id="0" cx="20" cy="40" r="5"/><circle id="1" cx="20" cy="20" r="20"/></defs><g fill="none" fill-rule="evenodd"><rect width="106" height="106" y="4" fill="#f9f9f9" rx="12"/><rect width="106" height="106" fill="#fff" rx="10"/><path fill="#eee" fill-rule="nonzero" d="m10 4c-3.314 0-6 2.686-6 6v86c0 3.314 2.686 6 6 6h86c3.314 0 6-2.686 6-6v-86c0-3.314-2.686-6-6-6h-86m0-4h86c5.523 0 10 4.477 10 10v86c0 5.523-4.477 10-10 10h-86c-5.523 0-10-4.477-10-10v-86c0-5.523 4.477-10 10-10"/><path fill="#fdc4a8" d="m77.95 33.7l-1.948.571c-.159.047-.326-.045-.372-.204-.016-.055-.016-.114 0-.169l.571-1.948-.571-1.948c-.047-.159.045-.326.204-.372.055-.016.114-.016.169 0l1.948.571 1.948-.571c.159-.047.326.045.372.204.016.055.016.114 0 .169l-.571 1.948.571 1.948c.047.159-.045.326-.204.372-.055.016-.114.016-.169 0l-1.948-.571" transform="matrix(.70711-.70711.70711.70711.239 64.48)"/><path fill="#fee1d3" d="m83.36 71.61l-2.656.778c-.159.047-.326-.045-.372-.204-.016-.055-.016-.114 0-.169l.778-2.656-.778-2.656c-.047-.159.045-.326.204-.372.055-.016.114-.016.169 0l2.656.778 2.656-.778c.159-.047.326.045.372.204.016.055.016.114 0 .169l-.778 2.656.778 2.656c.047.159-.045.326-.204.372-.055.016-.114.016-.169 0l-2.656-.778" transform="matrix(.70711-.70711.70711.70711-24.631 79.26)"/><path fill="#fc6d26" d="m17.95 65.7l-1.948.571c-.159.047-.326-.045-.372-.204-.016-.055-.016-.114 0-.169l.571-1.948-.571-1.948c-.047-.159.045-.326.204-.372.055-.016.114-.016.169 0l1.948.571 1.948-.571c.159-.047.326.045.372.204.016.055.016.114 0 .169l-.571 1.948.571 1.948c.047.159-.045.326-.204.372-.055.016-.114.016-.169 0l-1.948-.571" transform="matrix(.70711-.70711.70711.70711-39.962 31.423)"/><ellipse cx="53" cy="90" fill="#f9f9f9" rx="22" ry="2"/><g transform="translate(23 15)"><path fill="#6b4fbb" fill-rule="nonzero" d="m22.21 44.777c0 9.383 2.722 16.767 9.284 19.746 3.385 1.537 5.542 1.513 8.966.543.792-.224.867-.245 1.171-.321 2.863-.715 4.901-.054 8.557 3.638.389.392 1.022.395 1.414.007.392-.389.395-1.022.007-1.414-4.133-4.172-6.882-5.064-10.463-4.17-.333.083-.412.105-1.232.337-3.01.853-4.705.871-7.594-.44-5.648-2.563-8.111-9.244-8.111-17.924 0-.552-.448-1-1-1-.552 0-1 .448-1 1"/><g transform="matrix(.99619-.08716.08716.99619.115 3.829)"><use fill="#fff" xlink:href="#0"/><circle cx="20" cy="40" r="3" stroke="#c3b8e3" stroke-width="4"/><g><use fill="#fff" xlink:href="#1"/><circle cx="20" cy="20" r="18" stroke="#c3b8e3" stroke-width="4"/></g></g></g></g></svg>
