<svg xmlns="http://www.w3.org/2000/svg" viewBox="0 0 106 110" xmlns:xlink="http://www.w3.org/1999/xlink"><g fill="none" fill-rule="evenodd"><rect width="106" height="106" y="4" fill="#f9f9f9" rx="12"/><rect width="106" height="106" fill="#fff" rx="10"/><path fill="#eee" fill-rule="nonzero" d="m10 4c-3.314 0-6 2.686-6 6v86c0 3.314 2.686 6 6 6h86c3.314 0 6-2.686 6-6v-86c0-3.314-2.686-6-6-6h-86m0-4h86c5.523 0 10 4.477 10 10v86c0 5.523-4.477 10-10 10h-86c-5.523 0-10-4.477-10-10v-86c0-5.523 4.477-10 10-10"/><path fill="#fdc4a8" d="m88.36 49.614l-2.656.778c-.159.047-.326-.045-.372-.204-.016-.055-.016-.114 0-.169l.778-2.656-.778-2.656c-.047-.159.045-.326.204-.372.055-.016.114-.016.169 0l2.656.778 2.656-.778c.159-.047.326.045.372.204.016.055.016.114 0 .169l-.778 2.656.778 2.656c.047.159-.045.326-.204.372-.055.016-.114.016-.169 0l-2.656-.778" transform="matrix(.70711-.70711.70711.70711-7.61 76.36)"/><g fill="#fc6d26"><path d="m19.95 39.7l-1.948.571c-.159.047-.326-.045-.372-.204-.016-.055-.016-.114 0-.169l.571-1.948-.571-1.948c-.047-.159.045-.326.204-.372.055-.016.114-.016.169 0l1.948.571 1.948-.571c.159-.047.326.045.372.204.016.055.016.114 0 .169l-.571 1.948.571 1.948c.047.159-.045.326-.204.372-.055.016-.114.016-.169 0l-1.948-.571" transform="matrix(.70711-.70711.70711.70711-20.991 25.22)"/><path d="m73.95 17.7l-1.948.571c-.159.047-.326-.045-.372-.204-.016-.055-.016-.114 0-.169l.571-1.948-.571-1.948c-.047-.159.045-.326.204-.372.055-.016.114-.016.169 0l1.948.571 1.948-.571c.159-.047.326.045.372.204.016.055.016.114 0 .169l-.571 1.948.571 1.948c.047.159-.045.326-.204.372-.055.016-.114.016-.169 0l-1.948-.571" transform="matrix(.70711-.70711.70711.70711 10.381 56.962)"/></g><path fill="#fef0e8" d="m27 83h10v17h-10z"/><path fill="#fee1d3" d="m27 83h5v17h-5z"/><path fill="#fef0e8" d="m48 83h10v17h-10z"/><path fill="#fee1d3" d="m48 83h5v17h-5z"/><path fill="#fef0e8" d="m69 83h10v17h-10z"/><path fill="#fee1d3" d="m69 83h5v17h-5z"/><path fill="#c3b8e3" fill-rule="nonzero" d="m29 80h6v-2h-6v2m-2-6h10c1.105 0 2 .895 2 2v6c0 1.105-.895 2-2 2h-10c-1.105 0-2-.895-2-2v-6c0-1.105.895-2 2-2m22 6h8v-2h-8v2m-2-6h12c1.105 0 2 .895 2 2v6c0 1.105-.895 2-2 2h-12c-1.105 0-2-.895-2-2v-6c0-1.105.895-2 2-2m24 6h6v-2h-6v2m-2-6h10c1.105 0 2 .895 2 2v6c0 1.105-.895 2-2 2h-10c-1.105 0-2-.895-2-2v-6c0-1.105.895-2 2-2"/><path fill="#fff" d="m42.802 43v36h-22.802c-1.657 0-3-1.343-3-3 0-.095.004-.19.013-.284.891-9.374 4.1-14.974 9.626-16.801 6.144-2.031 11.531-7.336 16.16-15.915"/><path fill="#e1dbf1" fill-rule="nonzero" d="m40.901 79h-20.901c-1.657 0-3-1.343-3-3 0-.095.004-.19.013-.284.891-9.374 4.1-14.974 9.626-16.801 4.421-1.462 8.451-4.619 12.09-9.471-.218 2.132-.375 4.351-.471 6.659-3.159 3.155-6.609 5.369-10.362 6.61-3.57 1.18-5.915 5.04-6.782 12.287h17.551c.098 1.313.21 2.647.336 4h1.901"/><rect width="6" height="3" x="28" y="69" fill="#efedf8" rx="1.5"/><rect width="6" height="3" x="72" y="69" fill="#c3b8e3" rx="1.5"/><g transform="matrix(-1 0 0 1 151.8 0)"><path fill="#fff" d="m88.8 43v36h-22.802c-1.657 0-3-1.343-3-3 0-.095.004-.19.013-.284.891-9.374 4.1-14.974 9.626-16.801 6.144-2.031 11.531-7.336 16.16-15.915"/><path fill="#e1dbf1" fill-rule="nonzero" d="m84.8 49.35c1.214-1.63 2.385-3.449 3.512-5.458l.488.123v6.628c-1.277 1.82-2.61 3.457-4 4.908v-6.201m-10.906 13.367c-3.57 1.18-5.915 5.04-6.782 12.287h17.689v-19.453c-3.306 3.452-6.936 5.854-10.906 7.166m14.906-19.713v36h-22.802c-1.657 0-3-1.343-3-3 0-.095.004-.19.013-.284.891-9.374 4.1-14.974 9.626-16.801 6.144-2.031 11.531-7.336 16.16-15.915"/></g><rect width="6" height="3" x="72" y="69" fill="#efedf8" rx="1.5"/><path fill="#fff" d="m40 41c1.927-9.373 5.828-17.497 11.703-24.371.718-.84 1.98-.938 2.82-.221.061.052.119.108.173.167 5.46 5.938 9.228 14.08 11.304 24.425 2.266 11.292 2.6 23.958 1 38h-28c-1.414-15.208-1.081-27.875 1-38" id="0"/><use xlink:href="#0"/><path fill="#e1dbf1" fill-rule="nonzero" d="m63.39 75c1.119-12.232.677-23.302-1.312-33.21-1.736-8.65-4.688-15.545-8.817-20.738-4.608 5.952-7.719 12.855-9.343 20.756-1.828 8.893-2.251 19.966-1.243 33.19h20.715m-23.39-34c1.927-9.373 5.828-17.497 11.703-24.371.718-.84 1.98-.938 2.82-.221.061.052.119.108.173.167 5.46 5.938 9.228 14.08 11.304 24.425 2.266 11.292 2.6 23.958 1 38h-28c-1.414-15.208-1.081-27.875 1-38"/><path fill="#c3b8e3" d="m51.5 64h3c.828 0 1.5.672 1.5 1.5 0 .828-.672 1.5-1.5 1.5h-3c-.828 0-1.5-.672-1.5-1.5 0-.828.672-1.5 1.5-1.5m0 5h3c.828 0 1.5.672 1.5 1.5 0 .828-.672 1.5-1.5 1.5h-3c-.828 0-1.5-.672-1.5-1.5 0-.828.672-1.5 1.5-1.5"/><path fill="#6b4fbb" fill-rule="nonzero" d="m58.987 37.466c-1.01-2.384-3.353-3.966-5.987-3.966-2.666 0-5.03 1.62-6.02 4.047-.313.767.056 1.643.823 1.955.767.313 1.643-.056 1.955-.823.533-1.307 1.807-2.18 3.243-2.18 1.419 0 2.681.852 3.225 2.136.323.763 1.204 1.119 1.966.796.763-.323 1.119-1.204.796-1.966"/></g></svg>
