<svg xmlns="http://www.w3.org/2000/svg" width="226" height="178" viewBox="0 0 226 178"><g fill="none" fill-rule="evenodd"><path fill="#EEE" fill-rule="nonzero" d="M109.496 165.895c2.06.108 4.113.134 6.158.08 1.104-.03 1.975-.95 1.945-2.055-.03-1.104-.95-1.975-2.055-1.945-1.94.053-3.886.028-5.84-.074-1.102-.057-2.043.79-2.1 1.893-.06 1.104.788 2.045 1.89 2.102zm18.408-1.245c2.02-.386 4.023-.853 6-1.4 1.066-.295 1.69-1.396 1.396-2.46-.295-1.066-1.397-1.69-2.46-1.396-1.875.52-3.772.96-5.686 1.327-1.085.208-1.797 1.255-1.59 2.34.207 1.085 1.255 1.797 2.34 1.59zm17.572-5.636c1.865-.86 3.696-1.795 5.486-2.803.962-.54 1.303-1.76.762-2.723-.542-.962-1.762-1.303-2.724-.762-1.697.955-3.43 1.84-5.2 2.656-1.002.464-1.44 1.652-.978 2.655.462 1.003 1.65 1.44 2.654.98zm44.342-74.897c-.142-2.056-.367-4.1-.674-6.127-.165-1.092-1.184-1.844-2.276-1.678-1.092.165-1.844 1.184-1.68 2.276.29 1.92.505 3.857.64 5.805.076 1.102 1.03 1.934 2.133 1.857 1.103-.076 1.934-1.03 1.858-2.133zm-3.505-18.144c-.632-1.956-1.343-3.884-2.13-5.78-.425-1.02-1.595-1.504-2.615-1.08-1.02.424-1.503 1.594-1.08 2.614.747 1.797 1.42 3.624 2.02 5.476.34 1.05 1.467 1.628 2.518 1.288 1.05-.34 1.627-1.466 1.287-2.517zm-7.754-16.73c-1.083-1.745-2.235-3.447-3.454-5.1-.655-.89-1.907-1.08-2.797-.423-.89.655-1.08 1.907-.424 2.796 1.155 1.568 2.247 3.18 3.273 4.835.58.94 1.814 1.23 2.753.647.938-.582 1.228-1.815.646-2.754zm-11.582-14.446c-1.468-1.437-2.993-2.814-4.572-4.128-.85-.708-2.11-.592-2.816.256-.707.85-.592 2.11.257 2.817 1.496 1.246 2.942 2.55 4.334 3.913.79.773 2.057.76 2.83-.03.772-.79.758-2.057-.032-2.83zm-101.422-4.91c-1.6 1.288-3.148 2.64-4.64 4.05-.802.76-.837 2.026-.078 2.828.76.802 2.025.837 2.827.078 1.415-1.338 2.882-2.62 4.4-3.84.86-.692.996-1.95.303-2.812-.692-.86-1.95-.996-2.812-.303zM52.7 43.062c-1.25 1.632-2.433 3.313-3.546 5.04-.6.93-.33 2.167.597 2.765.93.6 2.167.33 2.766-.597 1.055-1.637 2.176-3.23 3.36-4.777.67-.878.504-2.133-.374-2.804-.877-.672-2.132-.505-2.803.372zm-9.373 15.924c-.82 1.882-1.56 3.8-2.226 5.745-.356 1.047.2 2.183 1.247 2.54 1.045.358 2.182-.2 2.54-1.246.63-1.844 1.333-3.66 2.108-5.443.44-1.012-.023-2.19-1.036-2.63-1.014-.44-2.192.023-2.633 1.036zm-5.26 17.74c-.34 2.02-.6 4.058-.777 6.11-.096 1.102.72 2.07 1.82 2.167 1.1.095 2.07-.72 2.165-1.82.17-1.947.415-3.88.737-5.793.183-1.09-.552-2.12-1.64-2.304-1.09-.183-2.122.552-2.305 1.64zM74.87 155.55c1.772 1.038 3.585 2.005 5.437 2.897.995.48 2.19.062 2.67-.933.48-.995.062-2.19-.933-2.67-1.755-.845-3.473-1.76-5.152-2.745-.953-.56-2.178-.24-2.737.714-.558.954-.238 2.18.715 2.738zm16.97 7.34c1.966.578 3.96 1.078 5.975 1.498 1.082.225 2.14-.47 2.366-1.55.226-1.082-.468-2.14-1.55-2.366-1.91-.398-3.798-.872-5.662-1.42-1.06-.312-2.172.294-2.483 1.354-.312 1.06.294 2.17 1.354 2.483z"/><path fill="#F9F9F9" d="M2.12 130c-.08.99-.12 1.99-.12 3 0 20.435 16.565 37 37 37s37-16.565 37-37c0-1.01-.04-2.01-.12-3-1.527 19.032-17.455 34-36.88 34-19.425 0-35.353-14.968-36.88-34z"/><path fill="#EEE" fill-rule="nonzero" d="M39 166c-21.54 0-39-17.46-39-39s17.46-39 39-39 39 17.46 39 39-17.46 39-39 39zm0-4c19.33 0 35-15.67 35-35S58.33 92 39 92 4 107.67 4 127s15.67 35 35 35z"/><path fill="#FDC4A8" fill-rule="nonzero" d="M53.925 116.226c-.277-.144-.59-.226-.925-.226H25c-.323 0-.628.076-.898.212l14.663 13.406c.39.357.99.348 1.37-.02l13.79-13.372zm1.075 4.53L42.92 132.47c-1.898 1.84-4.902 1.885-6.854.1L23 120.624V138c0 1.105.895 2 2 2h28c1.105 0 2-.895 2-2v-17.244zM25 112h28c3.314 0 6 2.686 6 6v20c0 3.314-2.686 6-6 6H25c-3.314 0-6-2.686-6-6v-20c0-3.314 2.686-6 6-6z"/><g><path fill="#F9F9F9" d="M150.12 131c-.08.99-.12 1.99-.12 3 0 20.435 16.565 37 37 37s37-16.565 37-37c0-1.01-.04-2.01-.12-3-1.527 19.032-17.455 34-36.88 34-19.425 0-35.353-14.968-36.88-34z"/><path fill="#EEE" fill-rule="nonzero" d="M187 167c-21.54 0-39-17.46-39-39s17.46-39 39-39 39 17.46 39 39-17.46 39-39 39zm0-4c19.33 0 35-15.67 35-35s-15.67-35-35-35-35 15.67-35 35 15.67 35 35 35z"/><path fill="#E1DBF1" fill-rule="nonzero" d="M180.51 137H199c1.105 0 2-.895 2-2v-16c0-1.105-.895-2-2-2h-24c-1.105 0-2 .895-2 2v22.743l7.51-4.743zm1.157 4l-9.6 6.062c-.32.202-.69.31-1.067.31-1.105 0-2-.896-2-2V119c0-3.314 2.686-6 6-6h24c3.314 0 6 2.686 6 6v16c0 3.314-2.686 6-6 6h-17.333z"/><path fill="#6B4FBB" d="M180 129c-1.105 0-2-.895-2-2s.895-2 2-2 2 .895 2 2-.895 2-2 2zm7 0c-1.105 0-2-.895-2-2s.895-2 2-2 2 .895 2 2-.895 2-2 2zm7 0c-1.105 0-2-.895-2-2s.895-2 2-2 2 .895 2 2-.895 2-2 2z"/></g><g><path fill="#F9F9F9" d="M76.12 42c-.08.99-.12 1.99-.12 3 0 20.435 16.565 37 37 37s37-16.565 37-37c0-1.01-.04-2.01-.12-3-1.527 19.032-17.455 34-36.88 34-19.425 0-35.353-14.968-36.88-34z"/><path fill="#EEE" fill-rule="nonzero" d="M113 78c-21.54 0-39-17.46-39-39S91.46 0 113 0s39 17.46 39 39-17.46 39-39 39zm0-4c19.33 0 35-15.67 35-35S132.33 4 113 4 78 19.67 78 39s15.67 35 35 35z"/><g transform="translate(133 35)"><rect width="7" height="1" y="3" fill="#E1DBF2" rx=".5"/><path fill="#6B4FBB" d="M1.5 7C3.433 7 5 5.433 5 3.5S3.433 0 1.5 0v7z"/></g><g transform="matrix(-1 0 0 1 93 35)"><rect width="7" height="1" y="3" fill="#E1DBF2" rx=".5"/><path fill="#6B4FBB" d="M1.5 7C3.433 7 5 5.433 5 3.5S3.433 0 1.5 0v7z"/></g><path fill="#E1DBF1" fill-rule="nonzero" d="M113 58c10.493 0 19-8.507 19-19s-8.507-19-19-19-19 8.507-19 19 8.507 19 19 19zm0 4c-12.703 0-23-10.297-23-23s10.297-23 23-23 23 10.297 23 23-10.297 23-23 23z"/><path fill="#6B4FBB" d="M109 56c-.552 0-1-.448-1-1s.448-1 1-1 1 .448 1 1-.448 1-1 1zm4 0c-.552 0-1-.448-1-1s.448-1 1-1 1 .448 1 1-.448 1-1 1zm4 0c-.552 0-1-.448-1-1s.448-1 1-1 1 .448 1 1-.448 1-1 1z"/><path fill="#E1DBF1" fill-rule="nonzero" d="M97.5 40c0-5.8 4.698-10.5 10.494-10.5h10.012c5.796 0 10.494 4.7 10.494 10.5s-4.698 10.5-10.494 10.5h-10.012C102.198 50.5 97.5 45.8 97.5 40zm3 0c0 4.143 3.355 7.5 7.494 7.5h10.012c4.14 0 7.494-3.358 7.494-7.5 0-4.143-3.355-7.5-7.494-7.5h-10.012c-4.14 0-7.494 3.358-7.494 7.5z"/><path fill="#6B4FBB" fill-rule="nonzero" d="M109.255 42.406c-.195-.517.067-1.093.584-1.287.516-.196 1.093.066 1.287.583.29.774 1.033 1.297 1.873 1.297.855 0 1.608-.542 1.887-1.335.184-.52.755-.794 1.276-.61.52.183.794.754.61 1.275-.56 1.587-2.063 2.67-3.773 2.67-1.68 0-3.164-1.046-3.745-2.594zM105.5 40c-.828 0-1.5-.672-1.5-1.5s.672-1.5 1.5-1.5 1.5.672 1.5 1.5-.672 1.5-1.5 1.5zm15 0c-.828 0-1.5-.672-1.5-1.5s.672-1.5 1.5-1.5 1.5.672 1.5 1.5-.672 1.5-1.5 1.5z"/><path fill="#6B4FBB" d="M112 22h2c.552 0 1 .448 1 1s-.448 1-1 1h-2c-.552 0-1-.448-1-1s.448-1 1-1zm0 3h2c.552 0 1 .448 1 1s-.448 1-1 1h-2c-.552 0-1-.448-1-1s.448-1 1-1z" style="mix-blend-mode:multiply"/></g></g></svg>
