<svg xmlns="http://www.w3.org/2000/svg" width="50" height="50" viewBox="0 0 16 16"><g fill-rule="evenodd"><path d="M14 16.01h1V7.99C15 4.128 11.866.999 8 .999c-3.858 0-7 3.13-7 6.991v8.02h1V7.99c0-3.306 2.691-5.991 6-5.991 3.314 0 6 2.682 6 5.991v8.02M3.48 2.656a2 2 0 1 0-2.155 3.228c.102-.321.226-.631.371-.93a1.001 1.001 0 1 1 1.069-1.599 6.96 6.96 0 0 1 .717-.699m9.04-.002a2 2 0 1 1 2.155 3.23 6.835 6.835 0 0 0-.37-.931 1 1 0 1 0-1.068-1.599 6.96 6.96 0 0 0-.717-.699"/><path d="M5.726 8.04h1.557v.124c0 .283-.033.534-.1.752a1.583 1.583 0 0 1-.33.566c-.35.394-.795.591-1.335.591-.527 0-.979-.19-1.355-.571a1.893 1.893 0 0 1-.564-1.377c0-.547.191-1.01.574-1.391a1.902 1.902 0 0 1 1.396-.574c.295 0 .57.06.825.181.244.12.484.316.72.586l-.405.388c-.309-.412-.686-.618-1.13-.618-.399 0-.733.138-1 .413-.27.27-.405.609-.405 1.015 0 .42.151.766.452 1.037.282.252.587.378.915.378.28 0 .531-.094.754-.283.223-.19.347-.418.373-.683h-.94v-.535m2.884.061c0-.53.194-.986.583-1.367a1.919 1.919 0 0 1 1.396-.571c.537 0 .998.192 1.382.576.386.384.578.845.578 1.384 0 .542-.194 1-.581 1.379a1.944 1.944 0 0 1-1.408.569c-.487 0-.923-.168-1.311-.505-.426-.373-.64-.861-.64-1.465m.574.007c0 .417.14.759.42 1.028.278.269.6.403.964.403.395 0 .729-.137 1-.41.272-.277.408-.613.408-1.01 0-.402-.134-.739-.403-1.01a1.33 1.33 0 0 0-.991-.41c-.392 0-.723.137-.993.41a1.36 1.36 0 0 0-.405 1m-.184 3.918c.525.026.812.063.812.063.271.025.324-.096.116-.273 0 0-.775-.813-1.933-.813-1.159 0-1.923.813-1.923.813-.211.174-.153.3.12.273 0 0 .286-.037.81-.063v.477c0 .268.224.5.5.5.268 0 .5-.223.5-.498v-.252.25c0 .268.224.5.5.5.268 0 .5-.223.5-.498v-.478m-1-1.023c.552 0 1-.224 1-.5s-.448-.5-1-.5-1 .224-1 .5.448.5 1 .5"/></g></svg>