<svg xmlns="http://www.w3.org/2000/svg" viewBox="0 0 406 305" xmlns:xlink="http://www.w3.org/1999/xlink"><defs><rect id="a" width="159.8" height="127.81" x=".196" y="5" rx="10"/><rect id="b" width="160" height="128" x=".666" y=".41" rx="10"/><rect id="c" width="160.19" height="128.19" x=".339" y=".59" rx="10"/><mask id="d" width="159.8" height="127.81" x="0" y="0" fill="#fff"><use xlink:href="#a"/></mask><mask id="e" width="160" height="128" x="0" y="0" fill="#fff"><use xlink:href="#b"/></mask><mask id="f" width="160.19" height="128.19" x="0" y="0" fill="#fff"><use xlink:href="#c"/></mask></defs><g fill="none" fill-rule="evenodd" transform="translate(12 3)"><rect width="160" height="128" x="122.08" y="146.08" fill="#f9f9f9" transform="rotate(5 202.071 210.085)" rx="10"/><g transform="rotate(15 -104.714 891.23)"><rect width="159.8" height="127.81" x="1.64" y="10.06" fill="#f9f9f9" rx="8"/><use fill="#fff" stroke="#eee" stroke-width="8" mask="url(#d)" xlink:href="#a"/><path fill="#d2caea" fill-rule="nonzero" d="M96.153 81.151a2.001 2.001 0 0 0 2.184-.496l35.956-38.34a2 2 0 1 0-2.918-2.736l-35.03 37.36-41.888-16.285a2 2 0 0 0-2.16.471l-26.368 27.16a2 2 0 1 0 2.87 2.786l25.444-26.21 41.911 16.294"/><g fill="#fff" transform="translate(24.368 36.951)"><circle cx="5.716" cy="5.104" r="5" stroke="#6b4fbb" stroke-width="4" transform="translate(65.917 34.945)"/><g stroke="#fb722e"><ellipse cx="4.632" cy="50.05" stroke-width="3.2" rx="4" ry="3.999"/><g stroke-width="4"><ellipse cx="29.632" cy="27.05" rx="4" ry="3.999"/><ellipse cx="107.63" cy="4.048" rx="4" ry="3.999"/></g></g></g></g><rect width="160.19" height="128.19" x="36.28" y="86.74" fill="#f9f9f9" transform="rotate(-5 116.372 150.825)" rx="10"/><g transform="rotate(5 -1514.687 1518.752)"><use fill="#fff" stroke="#eee" stroke-width="8" mask="url(#e)" xlink:href="#b"/><path fill="#6b4fbb" stroke="#6b4fbb" stroke-width="3.2" d="M84.67 28.41c18.225 0 33 15.07 33 33.651h-33V28.41" stroke-linecap="round" stroke-linejoin="round"/><path fill="#d2caea" fill-rule="nonzero" d="M78.67 66.41h30a2 2 0 0 1 2 2c0 18.778-15.222 34-34 34s-34-15.222-34-34 15.222-34 34-34a2 2 0 0 1 2 2v30m-32 2c0 16.569 13.431 30 30 30 15.896 0 28.905-12.364 29.934-28H76.67a2 2 0 0 1-2-2V38.476c-15.636 1.029-28 14.04-28 29.934"/></g><g transform="rotate(-5 1023.06 -299.524)"><use fill="#fff" stroke="#eee" stroke-width="8" mask="url(#f)" xlink:href="#c"/><path fill="#fef0ea" d="M42 47.391c0-.768.628-1.391 1.4-1.391h9.2c.773 0 1.4.626 1.4 1.391V97H42V47.391"/><path fill="#fb722e" d="M108 55.406c0-.777.628-1.406 1.4-1.406h9.2a1.4 1.4 0 0 1 1.4 1.406V97h-12V55.406"/><path fill="#6b4fbb" d="M64 35.404c0-.776.628-1.404 1.4-1.404h9.2a1.4 1.4 0 0 1 1.4 1.404v61.6H64v-61.6"/><path fill="#d2caea" d="M86 73.4a1.4 1.4 0 0 1 1.4-1.398h9.2c.773 0 1.4.618 1.4 1.398v23.602H86V73.4"/></g><g fill="#fee8dc"><path d="M3.592 93.86l-2.454-1.562c-.93-.592-.924-1.554 0-2.143l2.454-1.562 1.562-2.454c.592-.93 1.554-.925 2.143 0l1.562 2.454 2.454 1.562c.93.591.924 1.554 0 2.143L8.86 93.86l-1.562 2.454c-.591.93-1.554.924-2.143 0L3.592 93.86M309.489 52.07l-3.14-1.998c-1.12-.713-1.128-1.863 0-2.581l3.14-2 1.999-3.14c.713-1.12 1.863-1.127 2.58 0l2 3.14 3.14 2c1.12.713 1.128 1.863 0 2.58l-3.14 2-2 3.14c-.712 1.12-1.862 1.128-2.58 0l-1.999-3.14"/></g><path fill="#e1dcf1" d="M128.073 11.066l-1.99 3.126c-.718 1.129-1.88 1.131-2.6 0l-1.99-3.126-3.126-1.989c-1.128-.718-1.13-1.88 0-2.6l3.127-1.99 1.989-3.126c.718-1.128 1.88-1.13 2.6 0l1.99 3.126 3.126 1.99c1.128.718 1.13 1.88 0 2.6l-3.126 1.99"/><path fill="#d2caea" d="M378.07 243.068l-1.989 3.126c-.718 1.129-1.88 1.131-2.6 0l-1.99-3.126-3.126-1.989c-1.128-.718-1.13-1.88 0-2.6l3.127-1.99 1.989-3.126c.718-1.128 1.88-1.13 2.6 0l1.99 3.126 3.126 1.99c1.128.718 1.13 1.88 0 2.6l-3.126 1.99"/></g></svg>