<svg xmlns="http://www.w3.org/2000/svg" viewBox="0 0 406 305" xmlns:xlink="http://www.w3.org/1999/xlink"><defs><rect id="c" width="161" height="100" x="92" y="181" rx="10"/><rect id="d" width="151" height="32" x="20" rx="10"/><rect id="a" width="191" height="62" y="10" rx="10"/><circle id="b" cx="23" cy="41" r="9"/><circle id="k" cx="36.5" cy="36.5" r="36.5"/><circle id="e" cx="262.5" cy="169.5" r="15.5"/><circle id="g" cx="79.5" cy="169.5" r="15.5"/><circle id="j" cx="45" cy="41" r="9"/><circle id="f" cx="30.5" cy="30.5" r="30.5"/><circle id="h" cx="18" cy="34" r="3"/><ellipse id="i" cx="43.5" cy="43.5" rx="43.5" ry="43.5"/><mask id="t" width="191" height="62" x="0" y="0" fill="#fff"><use xlink:href="#a"/></mask><mask id="u" width="18" height="18" x="0" y="0" fill="#fff"><use xlink:href="#b"/></mask><mask id="r" width="161" height="100" x="0" y="0" fill="#fff"><use xlink:href="#c"/></mask><mask id="s" width="151" height="32" x="0" y="0" fill="#fff"><use xlink:href="#d"/></mask><mask id="p" width="31" height="31" x="0" y="0" fill="#fff"><use xlink:href="#e"/></mask><mask id="l" width="61" height="61" x="0" y="0" fill="#fff"><use xlink:href="#f"/></mask><mask id="q" width="31" height="31" x="0" y="0" fill="#fff"><use xlink:href="#g"/></mask><mask id="m" width="6" height="6" x="0" y="0" fill="#fff"><use xlink:href="#h"/></mask><mask id="o" width="87" height="87" x="0" y="0" fill="#fff"><use xlink:href="#i"/></mask><mask id="v" width="18" height="18" x="0" y="0" fill="#fff"><use xlink:href="#j"/></mask><mask id="n" width="73" height="73" x="0" y="0" fill="#fff"><use xlink:href="#k"/></mask></defs><g fill="none" fill-rule="evenodd" transform="translate(28 2)"><g transform="translate(133 87)"><use fill="#fff" stroke="#eee" stroke-width="8" mask="url(#l)" xlink:href="#f"/><path stroke="#d2caea" stroke-width="3" stroke-linecap="round" stroke-linejoin="round" d="M19 32l2-9 5 17 4-12 4 5 6-10 3 5"/><g fill="#fff" stroke="#fb722e"><use stroke-width="4" mask="url(#m)" xlink:href="#h"/><circle cx="44" cy="30" r="2" stroke-width="2"/></g></g><g transform="translate(188 29)"><circle cx="36.5" cy="41.5" r="36.5" fill="#f9f9f9"/><use fill="#fff" stroke="#eee" stroke-width="8" mask="url(#n)" xlink:href="#k"/><rect width="27" height="4" x="23" y="27" fill="#d2caea" rx="2"/><rect width="10.5" height="4" x="23" y="27" fill="#6b4fbb" rx="2"/><rect width="27" height="4" x="23" y="36" fill="#d2caea" rx="2"/><rect width="19" height="4" x="23" y="36" fill="#6b4fbb" rx="2"/><rect width="27" height="4" x="23" y="45" fill="#d2caea" rx="2"/><rect width="7" height="4" x="23" y="45" fill="#6b4fbb" rx="2"/></g><path fill="#eee" fill-rule="nonzero" d="M247 292v1c0 5.519-4.469 9.993-10.01 9.993H111c-5.177 0-9.436-3.927-9.954-8.96a9.96 9.96 0 0 0 4.705 1.883 6.008 6.008 0 0 0 5.248 3.077h125.99a6 6 0 0 0 5.526-3.637 10.027 10.027 0 0 0 4.48-3.359m1.947-8.962a10.001 10.001 0 0 1-9.95 8.958h-131.99a10 10 0 0 1-9.851-8.25 9.942 9.942 0 0 0 4.649 1.248 6 6 0 0 0 5.202 3h131.99a6.002 6.002 0 0 0 5.245-3.076 9.943 9.943 0 0 0 4.705-1.882"/><g transform="translate(79)"><ellipse cx="43.5" cy="47.5" fill="#f9f9f9" rx="43.5" ry="43.5"/><g fill="#fff"><g stroke="#eee"><use stroke-width="8" mask="url(#o)" xlink:href="#i"/><path stroke-width="4" d="M18.595 49C21.11 60.44 31.305 69 43.5 69 57.58 69 69 57.583 69 43.5c0-12.195-8.56-22.391-20-24.905v15.959c3 1.848 5 5.164 5 8.946C54 49.299 49.299 54 43.5 54c-3.782 0-7.098-2-8.946-5H18.595" stroke-linejoin="round"/></g><path stroke="#d2caea" stroke-width="4" d="M18 44a27.69 27.69 0 0 1-.005-.5c0-14.08 11.417-25.5 25.5-25.5.167 0 .334.002.5.005v15.01a10.365 10.365 0 0 0-.5-.012c-5.799 0-10.5 4.701-10.5 10.5 0 .168.004.334.012.5h-15.01" stroke-linejoin="round"/></g></g><g fill="#fff" stroke="#eee" stroke-width="8"><use mask="url(#p)" xlink:href="#e"/><use mask="url(#q)" xlink:href="#g"/><use mask="url(#r)" xlink:href="#c"/></g><g fill="#eee"><rect width="15" height="2" x="226" y="247" rx="1"/><rect width="15" height="2" x="226" y="242" rx="1"/><rect width="15" height="2" x="226" y="252" rx="1"/></g><rect width="10" height="52" x="118" y="196" fill="#d2caea" rx="2"/><rect width="10" height="47" x="154" y="196" fill="#6b4fbb" rx="2"/><rect width="10" height="37" x="190" y="196" fill="#d2caea" rx="2"/><g fill="#fee8dc"><rect width="10" height="52" x="132" y="185" rx="2"/><rect width="10" height="38" x="168" y="185" rx="2"/></g><rect width="10" height="58" x="204" y="185" fill="#fb722e" rx="2"/><g fill="#fff" stroke="#eee" stroke-width="8" transform="translate(76 128)"><use mask="url(#s)" xlink:href="#d"/><use mask="url(#t)" xlink:href="#a"/></g><g fill="#d2caea" transform="translate(76 128)"><rect width="16" height="4" x="156" y="35" rx="2"/><rect width="16" height="4" x="156" y="43" rx="2"/></g><g fill="#fff" stroke-width="8" transform="translate(76 128)"><use stroke="#fee8dc" mask="url(#u)" xlink:href="#b"/><use stroke="#fb722e" mask="url(#v)" xlink:href="#j"/></g><g fill="#fb722e"><path d="M3.597 219.858l-2.455-1.562c-.929-.59-.924-1.553 0-2.142l2.455-1.562 1.562-2.455c.59-.929 1.553-.924 2.142 0l1.562 2.455 2.454 1.562c.93.591.925 1.553 0 2.142l-2.454 1.562-1.562 2.455c-.591.929-1.553.924-2.142 0l-1.562-2.455M253.597 8.859l-2.454-1.562c-.93-.592-.925-1.554 0-2.143l2.454-1.562 1.562-2.454c.591-.93 1.554-.925 2.143 0l1.562 2.454 2.454 1.562c.93.591.924 1.554 0 2.143l-2.454 1.562-1.562 2.454c-.592.93-1.554.924-2.143 0l-1.562-2.454" opacity=".2"/></g><path fill="#fee8dc" d="M309.49 149.07l-3.141-1.999c-1.12-.712-1.128-1.863 0-2.58l3.14-2 2-3.14c.712-1.12 1.863-1.128 2.58 0l2 3.14 3.14 2c1.12.712 1.127 1.863 0 2.58l-3.14 2-2 3.14c-.713 1.12-1.863 1.128-2.58 0l-2-3.14"/><path fill="#6b4fbb" d="M47.068 79.067l-1.99 3.126c-.718 1.129-1.88 1.13-2.6 0l-1.99-3.126-3.125-1.99c-1.129-.718-1.131-1.88 0-2.6l3.126-1.989 1.989-3.126c.718-1.129 1.88-1.13 2.6 0l1.99 3.126 3.126 1.99c1.128.718 1.13 1.88 0 2.6l-3.126 1.989" opacity=".2"/></g></svg>