<svg xmlns="http://www.w3.org/2000/svg" viewBox="0 0 406 305" xmlns:xlink="http://www.w3.org/1999/xlink"><defs><rect id="C" width="161" height="100" x="92" y="181" rx="10"/><rect id="E" width="151" height="32" x="20" rx="10"/><rect id="G" width="191" height="62" y="10" rx="10"/><circle id="I" cx="23" cy="41" r="9"/><circle id="4" cx="36.5" cy="36.5" r="36.5"/><circle id="8" cx="262.5" cy="169.5" r="15.5"/><circle id="A" cx="79.5" cy="169.5" r="15.5"/><circle id="K" cx="45" cy="41" r="9"/><circle id="0" cx="30.5" cy="30.5" r="30.5"/><circle id="2" cx="18" cy="34" r="3"/><ellipse id="6" cx="43.5" cy="43.5" rx="43.5" ry="43.5"/><mask id="H" width="191" height="62" x="0" y="0" fill="#fff"><use xlink:href="#G"/></mask><mask id="J" width="18" height="18" x="0" y="0" fill="#fff"><use xlink:href="#I"/></mask><mask id="D" width="161" height="100" x="0" y="0" fill="#fff"><use xlink:href="#C"/></mask><mask id="F" width="151" height="32" x="0" y="0" fill="#fff"><use xlink:href="#E"/></mask><mask id="9" width="31" height="31" x="0" y="0" fill="#fff"><use xlink:href="#8"/></mask><mask id="1" width="61" height="61" x="0" y="0" fill="#fff"><use xlink:href="#0"/></mask><mask id="B" width="31" height="31" x="0" y="0" fill="#fff"><use xlink:href="#A"/></mask><mask id="3" width="6" height="6" x="0" y="0" fill="#fff"><use xlink:href="#2"/></mask><mask id="7" width="87" height="87" x="0" y="0" fill="#fff"><use xlink:href="#6"/></mask><mask id="L" width="18" height="18" x="0" y="0" fill="#fff"><use xlink:href="#K"/></mask><mask id="5" width="73" height="73" x="0" y="0" fill="#fff"><use xlink:href="#4"/></mask></defs><g fill="none" fill-rule="evenodd" transform="translate(28 2)"><g transform="translate(133 87)"><use fill="#fff" stroke="#eee" stroke-width="8" mask="url(#1)" xlink:href="#0"/><path stroke="#d2caea" stroke-width="3" stroke-linecap="round" stroke-linejoin="round" d="m19 32l2-9 5 17 4-12 4 5 6-10 3 5"/><g fill="#fff" stroke="#fb722e"><use stroke-width="4" mask="url(#3)" xlink:href="#2"/><circle cx="44" cy="30" r="2" stroke-width="2"/></g></g><g transform="translate(188 29)"><circle cx="36.5" cy="41.5" r="36.5" fill="#f9f9f9"/><use fill="#fff" stroke="#eee" stroke-width="8" mask="url(#5)" xlink:href="#4"/><rect width="27" height="4" x="23" y="27" fill="#d2caea" rx="2"/><rect width="10.5" height="4" x="23" y="27" fill="#6b4fbb" rx="2"/><rect width="27" height="4" x="23" y="36" fill="#d2caea" rx="2"/><rect width="19" height="4" x="23" y="36" fill="#6b4fbb" rx="2"/><rect width="27" height="4" x="23" y="45" fill="#d2caea" rx="2"/><rect width="7" height="4" x="23" y="45" fill="#6b4fbb" rx="2"/></g><path fill="#eee" fill-rule="nonzero" d="m247 292v1c0 5.519-4.469 9.993-10.01 9.993h-125.99c-5.177 0-9.436-3.927-9.954-8.96 1.348.998 2.957 1.666 4.705 1.883 1.027 1.835 2.992 3.077 5.248 3.077h125.99c2.485 0 4.611-1.497 5.526-3.637 1.796-.675 3.347-1.852 4.48-3.359m1.947-8.962c-.518 5.03-4.774 8.958-9.95 8.958h-131.99c-4.929 0-9.03-3.563-9.851-8.25 1.382.767 2.964 1.216 4.649 1.248 1.037 1.794 2.978 3 5.202 3h131.99c2.255 0 4.219-1.241 5.245-3.076 1.748-.216 3.356-.883 4.705-1.882"/><g transform="translate(79)"><ellipse cx="43.5" cy="47.5" fill="#f9f9f9" rx="43.5" ry="43.5"/><g fill="#fff"><g stroke="#eee"><use stroke-width="8" mask="url(#7)" xlink:href="#6"/><path stroke-width="4" d="m18.595 49c2.515 11.44 12.71 20 24.905 20 14.08 0 25.5-11.417 25.5-25.5 0-12.195-8.56-22.391-20-24.905v15.959c3 1.848 5 5.164 5 8.946 0 5.799-4.701 10.5-10.5 10.5-3.782 0-7.098-2-8.946-5h-15.959" stroke-linejoin="round"/></g><path stroke="#d2caea" stroke-width="4" d="m18 44c-.003-.166-.005-.333-.005-.5 0-14.08 11.417-25.5 25.5-25.5.167 0 .334.002.5.005v15.01c-.166-.008-.332-.012-.5-.012-5.799 0-10.5 4.701-10.5 10.5 0 .168.004.334.012.5h-15.01" stroke-linejoin="round"/></g></g><g fill="#fff" stroke="#eee" stroke-width="8"><use mask="url(#9)" xlink:href="#8"/><use mask="url(#B)" xlink:href="#A"/><use mask="url(#D)" xlink:href="#C"/></g><g fill="#eee"><rect width="15" height="2" x="226" y="247" rx="1"/><rect width="15" height="2" x="226" y="242" rx="1"/><rect width="15" height="2" x="226" y="252" rx="1"/></g><rect width="10" height="52" x="118" y="196" fill="#d2caea" rx="2"/><rect width="10" height="47" x="154" y="196" fill="#6b4fbb" rx="2"/><rect width="10" height="37" x="190" y="196" fill="#d2caea" rx="2"/><g fill="#fee8dc"><rect width="10" height="52" x="132" y="185" rx="2"/><rect width="10" height="38" x="168" y="185" rx="2"/></g><rect width="10" height="58" x="204" y="185" fill="#fb722e" rx="2"/><g transform="translate(76 128)"><g fill="#fff" stroke="#eee" stroke-width="8"><use mask="url(#F)" xlink:href="#E"/><use mask="url(#H)" xlink:href="#G"/></g><g fill="#d2caea"><rect width="16" height="4" x="156" y="35" rx="2"/><rect width="16" height="4" x="156" y="43" rx="2"/></g><g fill="#fff" stroke-width="8"><use stroke="#fee8dc" mask="url(#J)" xlink:href="#I"/><use stroke="#fb722e" mask="url(#L)" xlink:href="#K"/></g></g><g fill="#fb722e"><path d="m6.226 220.95l-2.84.631c-1.075.239-1.752-.445-1.515-1.515l.631-2.84-.631-2.84c-.239-1.075.445-1.752 1.515-1.515l2.84.631 2.84-.631c1.075-.239 1.752.445 1.515 1.515l-.631 2.84.631 2.84c.239 1.075-.445 1.752-1.515 1.515l-2.84-.631" opacity=".2" transform="matrix(.70711.70711-.70711.70711 155.43 59.22)"/><path d="m256.23 9.95l-2.84.631c-1.075.239-1.752-.445-1.515-1.515l.631-2.84-.631-2.84c-.239-1.075.445-1.752 1.515-1.515l2.84.631 2.84-.631c1.075-.239 1.752.445 1.515 1.515l-.631 2.84.631 2.84c.239 1.075-.445 1.752-1.515 1.515l-2.84-.631" opacity=".2" transform="matrix(.70711.70711-.70711.70711 79.45-179.36)"/></g><path fill="#fee8dc" d="m312.78 150.43l-3.634.807c-1.296.288-2.115-.52-1.825-1.825l.807-3.634-.807-3.634c-.288-1.296.52-2.115 1.825-1.825l3.634.807 3.634-.807c1.296-.288 2.115.52 1.825 1.825l-.807 3.634.807 3.634c.288 1.296-.52 2.115-1.825 1.825l-3.634-.807" transform="matrix(.70711.70711-.70711.70711 194.69-178.47)"/><path fill="#6b4fbb" d="m43.778 80.43l-3.617.804c-1.306.29-2.129-.53-1.839-1.839l.804-3.617-.804-3.617c-.29-1.306.53-2.129 1.839-1.839l3.617.804 3.617-.804c1.306-.29 2.129.53 1.839 1.839l-.804 3.617.804 3.617c.29 1.306-.53 2.129-1.839 1.839l-3.617-.804" opacity=".2" transform="matrix(.70711-.70711.70711.70711-40.761 53.15)"/></g></svg>