<svg xmlns="http://www.w3.org/2000/svg" viewBox="0 0 406 305" xmlns:xlink="http://www.w3.org/1999/xlink"><defs><use id="g" xlink:href="#a"/><use id="f" xlink:href="#a"/><use id="h" xlink:href="#a"/><path id="e" d="M74 93h26v47H74z"/><path id="c" d="M74 93h26v47H74z"/><rect id="b" width="65" height="14" x="55" y="135" rx="4"/><rect id="d" width="175" height="118" rx="10"/><rect id="a" width="159" rx="10" height="56"/><rect id="i" width="160" y="2" rx="10" height="56" fill="#f9f9f9"/><mask id="q" width="65" height="14" x="0" y="0" fill="#fff"><use xlink:href="#b"/></mask><mask id="p" width="26" height="47" x="0" y="0" fill="#fff"><use xlink:href="#c"/></mask><mask id="r" width="175" height="118" x="0" y="0" fill="#fff"><use xlink:href="#d"/></mask><mask id="o" width="26" height="47" x="0" y="0" fill="#fff"><use xlink:href="#e"/></mask><mask id="k" width="159" height="56" x="0" y="0" fill="#fff"><use xlink:href="#f"/></mask><mask id="j" width="159" height="56" x="0" y="0" fill="#fff"><use xlink:href="#g"/></mask><mask id="l" width="159" height="56" x="0" y="0" fill="#fff"><use xlink:href="#h"/></mask></defs><g fill="none" fill-rule="evenodd"><g transform="translate(245 65)"><use xlink:href="#i"/><use fill="#fff" stroke="#eee" stroke-width="8" mask="url(#j)" xlink:href="#g"/><g fill-rule="nonzero"><path fill="#fb722e" d="M134 31a2 2 0 1 0 .001-3.999A2 2 0 0 0 134 31m0 4a6 6 0 1 1 0-12 6 6 0 0 1 0 12"/><path fill="#fee8dc" d="M117 31a2 2 0 1 0 .001-3.999A2 2 0 0 0 117 31m0 4a6 6 0 1 1 0-12 6 6 0 0 1 0 12m-17-4a2 2 0 1 0 .001-3.999A2 2 0 0 0 100 31m0 4a6 6 0 1 1 0-12 6 6 0 0 1 0 12"/></g><g fill="#d2caea"><rect width="50" height="4" x="19" y="20" rx="2"/><rect width="50" height="4" x="19" y="34" rx="2"/></g><g transform="translate(0 59)"><use xlink:href="#i"/><use fill="#fff" stroke="#eee" stroke-width="8" mask="url(#k)" xlink:href="#f"/><g fill-rule="nonzero"><path fill="#fee8dc" d="M134 30a2 2 0 1 0 .001-3.999A2 2 0 0 0 134 30m0 4a6 6 0 1 1 0-12 6 6 0 0 1 0 12"/><path fill="#fb722e" d="M117 30a2 2 0 1 0 .001-3.999A2 2 0 0 0 117 30m0 4a6 6 0 1 1 0-12 6 6 0 0 1 0 12"/><path fill="#fee8dc" d="M100 30a2 2 0 1 0 .001-3.999A2 2 0 0 0 100 30m0 4a6 6 0 1 1 0-12 6 6 0 0 1 0 12"/></g><rect width="50" height="4" x="19" y="19" fill="#d2caea" rx="2" id="m"/><rect width="50" height="4" x="19" y="33" fill="#d2caea" rx="2" id="n"/></g><g transform="translate(0 118)"><use xlink:href="#i"/><use fill="#fff" stroke="#eee" stroke-width="8" mask="url(#l)" xlink:href="#h"/><g fill-rule="nonzero"><path fill="#fb722e" d="M134 30a2 2 0 1 0 .001-3.999A2 2 0 0 0 134 30m0 4a6 6 0 1 1 0-12 6 6 0 0 1 0 12"/><path fill="#fee8dc" d="M117 30a2 2 0 1 0 .001-3.999A2 2 0 0 0 117 30m0 4a6 6 0 1 1 0-12 6 6 0 0 1 0 12m-17-4a2 2 0 1 0 .001-3.999A2 2 0 0 0 100 30m0 4a6 6 0 1 1 0-12 6 6 0 0 1 0 12"/></g><use xlink:href="#m"/><use xlink:href="#n"/></g></g><g fill="#eee" transform="translate(164 120)"><rect width="29" height="4" y="29" rx="2"/><rect width="28" height="4" x="55" y="29" rx="2"/></g><g transform="translate(180 120)"><circle cx="30" cy="30" r="24" fill="#fef0ea"/><g fill="#fb722e"><circle cx="30.5" cy="30.5" r="30.5" opacity=".1"/><circle cx="30.5" cy="30.5" r="19.5" opacity=".1"/></g><circle cx="30.5" cy="30.5" r="13.5" fill="#fff"/><path fill="#fb722e" d="M32.621 30.5l2.481-2.481a1.492 1.492 0 0 0-.006-2.115 1.491 1.491 0 0 0-2.115-.006L30.5 28.379l-2.481-2.481a1.492 1.492 0 0 0-2.115.006 1.491 1.491 0 0 0-.006 2.115l2.481 2.481-2.481 2.481a1.492 1.492 0 0 0 .006 2.115c.59.59 1.533.589 2.115.006l2.481-2.481 2.481 2.481c.586.586 1.529.58 2.115-.006.59-.59.589-1.533.006-2.115L32.621 30.5"/></g><g transform="translate(1 78)"><rect width="65" height="14" x="55" y="137" fill="#f9f9f9" rx="4"/><use fill="#fff" stroke="#eee" stroke-width="8" mask="url(#o)" xlink:href="#e"/><rect width="175" height="118" y="3" fill="#f9f9f9" rx="10"/><g fill="#fff" stroke="#eee" stroke-width="8"><use mask="url(#p)" xlink:href="#c"/><use mask="url(#q)" xlink:href="#b"/><use mask="url(#r)" xlink:href="#d"/></g><g fill-rule="nonzero"><path fill="#eee" d="M163 105V12H11v93h152M7 11.99A3.998 3.998 0 0 1 10.995 8h152.01A3.999 3.999 0 0 1 167 11.99v93.02a3.998 3.998 0 0 1-3.995 3.99H10.995A3.999 3.999 0 0 1 7 105.01V11.99"/><path fill="#d2caea" d="M86 92c-11.598 0-21-9.402-21-21s9.402-21 21-21 21 9.402 21 21-9.402 21-21 21m0-4c9.389 0 17-7.611 17-17s-7.611-17-17-17-17 7.611-17 17 7.611 17 17 17"/></g><path fill="#6b4fbb" d="M83 63a3.001 3.001 0 0 1 6 0v7.993a3.001 3.001 0 0 1-6 0V63m3 18.997a3 3 0 1 1 0-6 3 3 0 0 1 0 6"/><g fill="#eee"><rect width="134" height="4" x="20" y="30" rx="2"/><rect width="14" height="4" x="20" y="20" rx="2"/><circle cx="87" cy="21" r="5"/></g></g></g></svg>