<svg xmlns="http://www.w3.org/2000/svg" viewBox="0 0 406 305" xmlns:xlink="http://www.w3.org/1999/xlink"><defs><rect id="0" width="159.8" height="127.81" x=".196" y="5" rx="10"/><rect id="2" width="160" height="128" x=".666" y=".41" rx="10"/><rect id="4" width="160.19" height="128.19" x=".339" y=".59" rx="10"/><mask id="1" width="159.8" height="127.81" x="0" y="0" fill="#fff"><use xlink:href="#0"/></mask><mask id="3" width="160" height="128" x="0" y="0" fill="#fff"><use xlink:href="#2"/></mask><mask id="5" width="160.19" height="128.19" x="0" y="0" fill="#fff"><use xlink:href="#4"/></mask></defs><g fill="none" fill-rule="evenodd" transform="translate(12 3)"><rect width="160" height="128" x="122.08" y="146.08" fill="#f9f9f9" transform="matrix(.99619.08716-.08716.99619 19.08-16.813)" rx="10"/><g transform="matrix(.96593.25882-.25882.96593 227.1 57.47)"><rect width="159.8" height="127.81" x="1.64" y="10.06" fill="#f9f9f9" rx="8"/><use fill="#fff" stroke="#eee" stroke-width="8" mask="url(#1)" xlink:href="#0"/><g transform="translate(24.368 36.951)"><path fill="#d2caea" fill-rule="nonzero" d="m71.785 44.2c.761.296 1.625.099 2.184-.496l35.956-38.34c.756-.806.715-2.071-.091-2.827-.806-.756-2.071-.715-2.827.091l-35.03 37.36-41.888-16.285c-.749-.291-1.6-.106-2.16.471l-26.368 27.16c-.769.793-.751 2.059.042 2.828.793.769 2.059.751 2.828-.042l25.444-26.21 41.911 16.294"/><g fill="#fff"><circle cx="5.716" cy="5.104" r="5" stroke="#6b4fbb" stroke-width="4" transform="translate(65.917 34.945)"/><g stroke="#fb722e"><ellipse cx="4.632" cy="50.05" stroke-width="3.2" rx="4" ry="3.999"/><g stroke-width="4"><ellipse cx="29.632" cy="27.05" rx="4" ry="3.999"/><ellipse cx="107.63" cy="4.048" rx="4" ry="3.999"/></g></g></g></g></g><rect width="160.19" height="128.19" x="36.28" y="86.74" fill="#f9f9f9" transform="matrix(.99619-.08716.08716.99619-12.703 10.717)" rx="10"/><g transform="matrix(.99619.08716-.08716.99619 126.61 137.8)"><use fill="#fff" stroke="#eee" stroke-width="8" mask="url(#3)" xlink:href="#2"/><path fill="#6b4fbb" stroke="#6b4fbb" stroke-width="3.2" d="m84.67 28.41c18.225 0 33 15.07 33 33.651h-33v-33.651" stroke-linecap="round" stroke-linejoin="round"/><path fill="#d2caea" fill-rule="nonzero" d="m78.67 66.41h30c1.105 0 2 .895 2 2 0 18.778-15.222 34-34 34-18.778 0-34-15.222-34-34 0-18.778 15.222-34 34-34 1.105 0 2 .895 2 2v30m-32 2c0 16.569 13.431 30 30 30 15.896 0 28.905-12.364 29.934-28h-29.934c-1.105 0-2-.895-2-2v-29.934c-15.636 1.029-28 14.04-28 29.934"/></g><g transform="matrix(.99619-.08716.08716.99619 30 88.03)"><use fill="#fff" stroke="#eee" stroke-width="8" mask="url(#5)" xlink:href="#4"/><g transform="translate(42 34)"><path fill="#fef0ea" d="m0 13.391c0-.768.628-1.391 1.4-1.391h9.2c.773 0 1.4.626 1.4 1.391v49.609h-12v-49.609"/><path fill="#fb722e" d="m66 21.406c0-.777.628-1.406 1.4-1.406h9.2c.773 0 1.4.624 1.4 1.406v41.594h-12v-41.594"/><path fill="#6b4fbb" d="m22 1.404c0-.776.628-1.404 1.4-1.404h9.2c.773 0 1.4.624 1.4 1.404v61.6h-12v-61.6"/><path fill="#d2caea" d="m44 39.4c0-.772.628-1.398 1.4-1.398h9.2c.773 0 1.4.618 1.4 1.398v23.602h-12v-23.602"/></g></g><g fill="#fee8dc"><path d="m6.226 94.95l-2.84.631c-1.075.239-1.752-.445-1.515-1.515l.631-2.84-.631-2.84c-.239-1.075.445-1.752 1.515-1.515l2.84.631 2.84-.631c1.075-.239 1.752.445 1.515 1.515l-.631 2.84.631 2.84c.239 1.075-.445 1.752-1.515 1.515l-2.84-.631" transform="matrix(.70711.70711-.70711.70711 66.33 22.317)"/><path d="m312.78 53.43l-3.634.807c-1.296.288-2.115-.52-1.825-1.825l.807-3.634-.807-3.634c-.288-1.296.52-2.115 1.825-1.825l3.634.807 3.634-.807c1.296-.288 2.115.52 1.825 1.825l-.807 3.634.807 3.634c.288 1.296-.52 2.115-1.825 1.825l-3.634-.807" transform="matrix(.70711.70711-.70711.70711 126.1-206.88)"/></g><path fill="#e1dcf1" d="m124.78 12.43l-3.617.804c-1.306.29-2.129-.53-1.839-1.839l.804-3.617-.804-3.617c-.29-1.306.53-2.129 1.839-1.839l3.617.804 3.617-.804c1.306-.29 2.129.53 1.839 1.839l-.804 3.617.804 3.617c.29 1.306-.53 2.129-1.839 1.839l-3.617-.804" transform="matrix(.70711-.70711.70711.70711 31.05 90.51)"/><path fill="#d2caea" d="m374.78 244.43l-3.617.804c-1.306.29-2.129-.53-1.839-1.839l.804-3.617-.804-3.617c-.29-1.306.53-2.129 1.839-1.839l3.617.804 3.617-.804c1.306-.29 2.129.53 1.839 1.839l-.804 3.617.804 3.617c.29 1.306-.53 2.129-1.839 1.839l-3.617-.804" transform="matrix(.70711-.70711.70711.70711-59.779 335.24)"/></g></svg>