<svg xmlns="http://www.w3.org/2000/svg" viewBox="0 0 406 305" xmlns:xlink="http://www.w3.org/1999/xlink"><defs><use id="0" xlink:href="#E"/><use id="2" xlink:href="#E"/><use id="4" xlink:href="#E"/><path id="6" d="m74 93h26v47h-26z"/><path id="8" d="m74 93h26v47h-26z"/><rect id="A" width="65" height="14" x="55" y="135" rx="4"/><rect id="C" width="175" height="118" rx="10"/><rect id="E" width="159" rx="10" height="56"/><rect id="F" width="160" y="2" rx="10" height="56" fill="#f9f9f9"/><mask id="B" width="65" height="14" x="0" y="0" fill="#fff"><use xlink:href="#A"/></mask><mask id="9" width="26" height="47" x="0" y="0" fill="#fff"><use xlink:href="#8"/></mask><mask id="D" width="175" height="118" x="0" y="0" fill="#fff"><use xlink:href="#C"/></mask><mask id="7" width="26" height="47" x="0" y="0" fill="#fff"><use xlink:href="#6"/></mask><mask id="3" width="159" height="56" x="0" y="0" fill="#fff"><use xlink:href="#2"/></mask><mask id="1" width="159" height="56" x="0" y="0" fill="#fff"><use xlink:href="#0"/></mask><mask id="5" width="159" height="56" x="0" y="0" fill="#fff"><use xlink:href="#4"/></mask></defs><g fill="none" fill-rule="evenodd" transform="translate(1 65)"><g transform="translate(244)"><use xlink:href="#F"/><use fill="#fff" stroke="#eee" stroke-width="8" mask="url(#1)" xlink:href="#0"/><g fill-rule="nonzero"><path fill="#fb722e" d="m134 31c1.105 0 2-.895 2-2 0-1.105-.895-2-2-2-1.105 0-2 .895-2 2 0 1.105.895 2 2 2m0 4c-3.314 0-6-2.686-6-6 0-3.314 2.686-6 6-6 3.314 0 6 2.686 6 6 0 3.314-2.686 6-6 6"/><path fill="#fee8dc" d="m117 31c1.105 0 2-.895 2-2 0-1.105-.895-2-2-2-1.105 0-2 .895-2 2 0 1.105.895 2 2 2m0 4c-3.314 0-6-2.686-6-6 0-3.314 2.686-6 6-6 3.314 0 6 2.686 6 6 0 3.314-2.686 6-6 6m-17-4c1.105 0 2-.895 2-2 0-1.105-.895-2-2-2-1.105 0-2 .895-2 2 0 1.105.895 2 2 2m0 4c-3.314 0-6-2.686-6-6 0-3.314 2.686-6 6-6 3.314 0 6 2.686 6 6 0 3.314-2.686 6-6 6"/></g><g fill="#d2caea"><rect width="50" height="4" x="19" y="20" rx="2"/><rect width="50" height="4" x="19" y="34" rx="2"/></g><g transform="translate(0 59)"><use xlink:href="#F"/><use fill="#fff" stroke="#eee" stroke-width="8" mask="url(#3)" xlink:href="#2"/><g fill-rule="nonzero"><path fill="#fee8dc" d="m134 30c1.105 0 2-.895 2-2 0-1.105-.895-2-2-2-1.105 0-2 .895-2 2 0 1.105.895 2 2 2m0 4c-3.314 0-6-2.686-6-6 0-3.314 2.686-6 6-6 3.314 0 6 2.686 6 6 0 3.314-2.686 6-6 6"/><path fill="#fb722e" d="m117 30c1.105 0 2-.895 2-2 0-1.105-.895-2-2-2-1.105 0-2 .895-2 2 0 1.105.895 2 2 2m0 4c-3.314 0-6-2.686-6-6 0-3.314 2.686-6 6-6 3.314 0 6 2.686 6 6 0 3.314-2.686 6-6 6"/><path fill="#fee8dc" d="m100 30c1.105 0 2-.895 2-2 0-1.105-.895-2-2-2-1.105 0-2 .895-2 2 0 1.105.895 2 2 2m0 4c-3.314 0-6-2.686-6-6 0-3.314 2.686-6 6-6 3.314 0 6 2.686 6 6 0 3.314-2.686 6-6 6"/></g><rect width="50" height="4" x="19" y="19" fill="#d2caea" rx="2" id="G"/><rect width="50" height="4" x="19" y="33" fill="#d2caea" rx="2" id="H"/></g><g transform="translate(0 118)"><use xlink:href="#F"/><use fill="#fff" stroke="#eee" stroke-width="8" mask="url(#5)" xlink:href="#4"/><g fill-rule="nonzero"><path fill="#fb722e" d="m134 30c1.105 0 2-.895 2-2 0-1.105-.895-2-2-2-1.105 0-2 .895-2 2 0 1.105.895 2 2 2m0 4c-3.314 0-6-2.686-6-6 0-3.314 2.686-6 6-6 3.314 0 6 2.686 6 6 0 3.314-2.686 6-6 6"/><path fill="#fee8dc" d="m117 30c1.105 0 2-.895 2-2 0-1.105-.895-2-2-2-1.105 0-2 .895-2 2 0 1.105.895 2 2 2m0 4c-3.314 0-6-2.686-6-6 0-3.314 2.686-6 6-6 3.314 0 6 2.686 6 6 0 3.314-2.686 6-6 6m-17-4c1.105 0 2-.895 2-2 0-1.105-.895-2-2-2-1.105 0-2 .895-2 2 0 1.105.895 2 2 2m0 4c-3.314 0-6-2.686-6-6 0-3.314 2.686-6 6-6 3.314 0 6 2.686 6 6 0 3.314-2.686 6-6 6"/></g><use xlink:href="#G"/><use xlink:href="#H"/></g></g><g transform="translate(163 55)"><g fill="#eee"><rect width="29" height="4" y="29" rx="2"/><rect width="28" height="4" x="55" y="29" rx="2"/></g><g transform="translate(16)"><circle cx="30" cy="30" r="24" fill="#fef0ea"/><g fill="#fb722e"><circle cx="30.5" cy="30.5" r="30.5" opacity=".1"/><circle cx="30.5" cy="30.5" r="19.5" opacity=".1"/></g><circle cx="30.5" cy="30.5" r="13.5" fill="#fff"/><path fill="#fb722e" d="m32.621 30.5l2.481-2.481c.586-.586.58-1.529-.006-2.115-.59-.59-1.533-.589-2.115-.006l-2.481 2.481-2.481-2.481c-.586-.586-1.529-.58-2.115.006-.59.59-.589 1.533-.006 2.115l2.481 2.481-2.481 2.481c-.586.586-.58 1.529.006 2.115.59.59 1.533.589 2.115.006l2.481-2.481 2.481 2.481c.586.586 1.529.58 2.115-.006.59-.59.589-1.533.006-2.115l-2.481-2.481"/></g></g><g transform="translate(0 13)"><rect width="65" height="14" x="55" y="137" fill="#f9f9f9" rx="4"/><use fill="#fff" stroke="#eee" stroke-width="8" mask="url(#7)" xlink:href="#6"/><rect width="175" height="118" y="3" fill="#f9f9f9" rx="10"/><g fill="#fff" stroke="#eee" stroke-width="8"><use mask="url(#9)" xlink:href="#8"/><use mask="url(#B)" xlink:href="#A"/><use mask="url(#D)" xlink:href="#C"/></g><g fill-rule="nonzero"><path fill="#eee" d="m163 105v-93h-152v93h152m-156-93.01c0-2.204 1.797-3.99 3.995-3.99h152.01c2.206 0 3.995 1.796 3.995 3.99v93.02c0 2.204-1.797 3.99-3.995 3.99h-152.01c-2.206 0-3.995-1.796-3.995-3.99v-93.02"/><path fill="#d2caea" d="m86 92c-11.598 0-21-9.402-21-21 0-11.598 9.402-21 21-21 11.598 0 21 9.402 21 21 0 11.598-9.402 21-21 21m0-4c9.389 0 17-7.611 17-17 0-9.389-7.611-17-17-17-9.389 0-17 7.611-17 17 0 9.389 7.611 17 17 17"/></g><path fill="#6b4fbb" d="m83 63c0-1.659 1.347-3 3-3 1.657 0 3 1.342 3 3v7.993c0 1.659-1.347 3-3 3-1.657 0-3-1.342-3-3v-7.993m3 18.997c-1.657 0-3-1.343-3-3 0-1.657 1.343-3 3-3 1.657 0 3 1.343 3 3 0 1.657-1.343 3-3 3"/><g fill="#eee"><rect width="134" height="4" x="20" y="30" rx="2"/><rect width="14" height="4" x="20" y="20" rx="2"/><circle cx="87" cy="21" r="5"/></g></g></g></svg>